<?xml version="1.0" encoding="UTF-8" standalone="no"?>
<!-- Created with Inkscape (http://www.inkscape.org/) -->

<svg
   width="75.789703mm"
   height="137.49284mm"
   viewBox="0 0 75.789703 137.49284"
   version="1.1"
   id="svg5"
   xml:space="preserve"
   inkscape:version="1.2 (dc2aedaf03, 2022-05-15)"
   sodipodi:docname="drawing.svg"
   xmlns:inkscape="http://www.inkscape.org/namespaces/inkscape"
   xmlns:sodipodi="http://sodipodi.sourceforge.net/DTD/sodipodi-0.dtd"
   xmlns="http://www.w3.org/2000/svg"
   xmlns:svg="http://www.w3.org/2000/svg"><sodipodi:namedview
     id="namedview7"
     pagecolor="#505050"
     bordercolor="#eeeeee"
     borderopacity="1"
     inkscape:showpageshadow="0"
     inkscape:pageopacity="0"
     inkscape:pagecheckerboard="0"
     inkscape:deskcolor="#505050"
     inkscape:document-units="mm"
     showgrid="false"
     inkscape:zoom="0.18128859"
     inkscape:cx="-16691.619"
     inkscape:cy="311.65779"
     inkscape:window-width="1920"
     inkscape:window-height="1001"
     inkscape:window-x="-9"
     inkscape:window-y="-9"
     inkscape:window-maximized="1"
     inkscape:current-layer="layer24"
     showguides="true" /><defs
     id="defs2" /><g
     inkscape:groupmode="layer"
     id="layer24"
     inkscape:label="another daisy 4"
     style="display:inline"
     transform="translate(4551.964,72.165403)"><g
       id="g61852"><path
         style="display:inline;fill:#495833;fill-opacity:1;stroke-width:0.167555"
         d="m -4362.7957,-217.80852 c -8.8286,37.69839 -12.0359,77.3614 -4.0962,115.51295 -17.2294,-23.89632 -6.5243,-54.12942 -4.0806,-80.67517 0.7779,-11.83975 1.0284,-24.76432 8.1768,-34.83778 z"
         id="path60765"
         sodipodi:nodetypes="csssssc"
         transform="translate(-142.73433,167.62301)" /><path
         style="display:inline;opacity:1;fill:#fce4d8;fill-opacity:1;stroke-width:0.277471"
         d="m -4502.2134,-63.194101 c 6.687,-14.794836 28.3113,9.951201 9.1269,7.60512 l -2.0463,-0.365173 -2.311,-0.561117"
         id="path60769" /><path
         style="display:inline;opacity:1;fill:#fce4d8;fill-opacity:1;stroke-width:0.277471"
         d="m -4506.0709,-54.704234 c -20.1572,12.45009 22.3491,31.341218 13.1277,8.413674 -2.4276,-4.730935 -6.386,-10.517385 -12.5477,-9.566314"
         id="path60773" /><path
         style="display:inline;opacity:1;fill:#fbdecf;fill-opacity:1;stroke-width:0.277471"
         d="m -4510.0228,-57.410634 c -15.9074,-11.586071 -23.0936,27.8348 -5.8661,15.728014 4.5772,-3.920729 11.2022,-15.235114 1.4876,-17.441014"
         id="path60777" /><path
         style="display:inline;opacity:1;fill:#fbdecf;fill-opacity:1;stroke-width:0.277471"
         d="m -4494.0906,-52.359111 c -2.3126,16.009885 28.7814,9.627327 12.212,0.896584 -4.3371,-1.366323 -8.9211,-1.625088 -13.3475,-2.614634"
         id="path60779" /><path
         style="display:inline;opacity:1;fill:#fce4d8;fill-opacity:1;stroke-width:0.277471"
         d="m -4500.5608,-54.824941 c -6.0824,15.14419 31.0284,25.012997 16.4742,6.855719 -3.7889,-4.571094 -10.057,-5.898958 -15.4834,-7.551639"
         id="path60783" /><path
         style="display:inline;opacity:1;fill:#fdeae0;fill-opacity:1;stroke-width:0.277471"
         d="m -4507.1155,-52.380841 c -5.3197,13.278436 24.892,25.376099 15.6695,6.925983 -2.6074,-5.607915 -9.6289,-10.01468 -15.6695,-6.925983 z"
         id="path60787" /><path
         style="display:inline;opacity:1;fill:#fce4d8;fill-opacity:1;stroke-width:0.277471"
         d="m -4501.4428,-58.040621 c 7.4435,-15.681674 38.0036,12.033703 19.0587,11.099654 -5.9987,-2.127263 -11.855,-6.778252 -18.5996,-4.683944"
         id="path60791" /><path
         id="path60793"
         style="display:inline;opacity:1;fill:#000000;fill-opacity:0.238727;stroke-width:0.277471"
         d="m -4492.5527,-59.434661 c -19.6474,7.312955 21.1113,7.6121 2.9333,-0.185529 -0.9778,0.06184 -1.9555,0.123686 -2.9333,0.185529 z m -8.5019,6.81974 c -2.9815,-1.102766 2.0211,2.765961 0,0 z m 13.0157,-2.7124 0.2417,0.13006 z" /><path
         style="display:inline;opacity:1;fill:#fdeae0;fill-opacity:1;stroke-width:0.277471"
         d="m -4500.2724,-56.327411 c 2.9356,-13.893562 28.2024,0.16732 9.9804,2.366001 -3.3387,0.18988 -6.6841,-0.12464 -9.9904,-0.569651"
         id="path60795" /><path
         style="display:inline;opacity:1;fill:#fce4d8;fill-opacity:1;stroke-width:0.277471"
         d="m -4521.174,-59.727944 c -8.9671,-12.115071 -24.6795,8.622206 -7.9199,7.960772 8.6057,-0.464908 18.6943,-10.891023 2.7244,-8.961192"
         id="path60801" /><path
         style="display:inline;opacity:1;fill:#fbdecf;fill-opacity:1;stroke-width:0.277471"
         d="m -4521.1982,-53.355884 c -17.8526,7.369348 -24.064,-22.113375 -3.5237,-9.507097 9.8147,3.352653 6.8829,12.367915 -3.2184,8.441327"
         id="path60805" /><path
         id="path60809"
         style="display:inline;opacity:1;fill:#fce4d8;fill-opacity:1;stroke-width:0.277471"
         d="m -4537.8034,-71.780924 c -10.4688,18.288974 33.5605,11.265711 12.0913,2.342072 -3.8838,-1.570149 -7.9887,-1.879736 -12.0913,-2.342072 z" /><path
         style="display:inline;opacity:1;fill:#fdeae0;fill-opacity:1;stroke-width:0.277471"
         d="m -4514.4493,-60.397444 c -10.7806,-0.568033 -17.3672,-13.762752 -1.8725,-11.50927 11.9087,0.08019 4.547,10.013575 -1.4671,12.39963"
         id="path60813" /><path
         style="display:inline;opacity:1;fill:#fdeae0;fill-opacity:1;stroke-width:0.277471"
         d="m -4509.019,-60.054164 c -20.2308,3.499635 4.4772,33.937172 6.1442,11.962207 0.8678,-5.556863 -2.7567,-15.270824 -9.8657,-10.809657"
         id="path60817" /><path
         style="display:inline;opacity:1;fill:#fdeae0;fill-opacity:1;stroke-width:0.277471"
         d="m -4515.0361,-62.054964 c -19.5783,-8.608097 -15.7597,24.558669 -0.838,5.538531 2.1862,-1.241542 1.3767,-4.565537 -0.7327,-5.342801"
         id="path60821" /><path
         style="display:inline;opacity:1;fill:#f4a002;fill-opacity:1;stroke-width:0.202867"
         d="m -4516.8878,-61.682854 c 6.1658,-21.10813 31.8581,13.229504 11.3148,8.995704 -4.4656,-1.929455 -9.223,-4.345983 -11.3148,-8.995704 z"
         id="path60825" /><path
         style="opacity:1;fill:#76872a;fill-opacity:1;stroke-width:0.264583"
         d="m -4518.7699,28.580656 c -12.2258,-3.461263 -26.4003,-9.645092 -33.1941,-20.282675 11.339,0.1566336 26.7577,3.358755 32.4888,14.678295 0.6579,1.782962 0.8738,3.715552 0.7053,5.60438 z"
         id="path60829" /><path
         style="display:inline;fill:#76872a;fill-opacity:1;stroke-width:0.308188"
         d="m -4514.6451,8.1044559 c 12.7536,-6.5557823 28.4227,-9.02758081 38.4708,-19.8537389 -1.6633,-15.582121 -25.8011,-0.246707 -32.4035,6.9252411 -3.2199,3.7102599 -5.2694,8.4266739 -5.6629,13.3336978"
         id="path60831" /><path
         style="opacity:1;fill:#495833;fill-opacity:1;stroke-width:0.299585"
         d="m -4517.7675,28.146756 c -3.0915,-3.311544 -18.2855,-11.886375 -15.5762,-12.219168 5.869,2.784179 12.7427,5.500717 14.7549,12.401968"
         id="path60833"
         sodipodi:nodetypes="ccccccccc" /><path
         style="opacity:1;fill:#495833;fill-opacity:1;stroke-width:0.264583"
         d="m -4515.8788,9.1846559 c 1.9451,-6.3732415 27.1434,-20.7255629 10.3067,-11.3609833 -4.7489,2.47912527 -8.6102,6.6759645 -11.0792,11.4025833"
         id="path60837"
         sodipodi:nodetypes="cccccc" /></g></g></svg>
