<?xml version="1.0" encoding="UTF-8" standalone="no"?>
<!-- Created with Inkscape (http://www.inkscape.org/) -->

<svg
   width="92.017876mm"
   height="142.01765mm"
   viewBox="0 0 92.017876 142.01765"
   version="1.1"
   id="svg5"
   xml:space="preserve"
   inkscape:version="1.2 (dc2aedaf03, 2022-05-15)"
   sodipodi:docname="drawing.svg"
   xmlns:inkscape="http://www.inkscape.org/namespaces/inkscape"
   xmlns:sodipodi="http://sodipodi.sourceforge.net/DTD/sodipodi-0.dtd"
   xmlns="http://www.w3.org/2000/svg"
   xmlns:svg="http://www.w3.org/2000/svg"><sodipodi:namedview
     id="namedview7"
     pagecolor="#505050"
     bordercolor="#eeeeee"
     borderopacity="1"
     inkscape:showpageshadow="0"
     inkscape:pageopacity="0"
     inkscape:pagecheckerboard="0"
     inkscape:deskcolor="#505050"
     inkscape:document-units="mm"
     showgrid="false"
     inkscape:zoom="0.18128859"
     inkscape:cx="-16691.619"
     inkscape:cy="311.65779"
     inkscape:window-width="1920"
     inkscape:window-height="1001"
     inkscape:window-x="-9"
     inkscape:window-y="-9"
     inkscape:window-maximized="1"
     inkscape:current-layer="layer24"
     showguides="true" /><defs
     id="defs2" /><g
     inkscape:groupmode="layer"
     id="layer20"
     inkscape:label="another daisy"
     style="display:inline"
     transform="translate(4401.5586,72.714127)"><g
       inkscape:groupmode="layer"
       id="layer22"
       inkscape:label="another daisy 2"
       style="display:inline"><g
         id="g61893"><path
           style="display:inline;fill:#76872a;fill-opacity:1;stroke-width:0.0900417"
           d="m -4281.1529,-10.500444 c -1.4121,-16.026617 16.2051,-26.019572 29.7152,-29.370657 21.0744,-0.35149 -0.1315,22.992696 -11.0338,24.287074 -5.9423,2.573995 -12.2576,4.276081 -18.6814,5.083583 z"
           id="path60687"
           sodipodi:nodetypes="cccccccccccccc"
           transform="translate(-67.079588,33.023797)" /><path
           style="display:inline;opacity:1;fill:#3b4729;fill-opacity:1;stroke-width:0.264583"
           d="m -4278.5077,-9.8973441 c 3.5216,-6.5908969 19.426,-17.3000419 19.2774,-19.9067419 -7.9218,4.759036 -17.4932,9.89787 -19.2774,19.9067419 z"
           id="path60691"
           transform="translate(-67.079588,33.023797)" /><path
           style="display:inline;fill:#495833;fill-opacity:1;stroke-width:0.167555"
           d="m -4291.4272,-79.233224 c 8.8286,37.69839 12.0359,77.3614096 4.0962,115.51296 17.2293,-23.896335 6.5244,-54.129427 4.0806,-80.675156 -0.778,-11.839754 -1.0285,-24.76427 -8.1768,-34.837804 z"
           id="path60693"
           sodipodi:nodetypes="csssssc"
           transform="translate(-67.079588,33.023797)" /><path
           style="display:inline;opacity:1;fill:#fbdecf;fill-opacity:1;stroke-width:0.138563"
           d="m -4348.2407,-55.037304 c 8.1946,-8.06891 -4.6509,-27.549012 -8.3926,-11.078369 -0.2172,3.924484 0.8596,7.772999 2.25,11.398069"
           id="path60697"
           sodipodi:nodetypes="cccc" /><path
           style="display:inline;opacity:1;fill:#fbdecf;fill-opacity:1;stroke-width:0.138563"
           d="m -4343.4848,-47.578024 c 11.7086,-8.199393 28.4745,23.042954 14.1729,19.876405 -6.9314,-4.953175 -8.9632,-13.729341 -15.2615,-19.192835"
           id="path60701"
           sodipodi:nodetypes="ccccc" /><path
           style="display:inline;opacity:1;fill:#fce4d8;fill-opacity:1;stroke-width:0.138563"
           d="m -4347.4419,-53.464674 c 15.7919,-3.638489 4.0393,-29.578007 -5.532,-14.667517 -1.1494,4.380217 -0.08,8.925267 1.166,13.145937"
           id="path60705"
           sodipodi:nodetypes="cccc" /><path
           style="display:inline;opacity:1;fill:#fce4d8;fill-opacity:1;stroke-width:0.138563"
           d="m -4361.4327,-52.564094 c -3.1626,-14.441305 -24.7607,-13.27816 -32.4769,-3.77669 2.0697,7.896134 25.9218,10.236105 31.4871,3.96099"
           id="path60707" /><path
           style="display:inline;opacity:1;fill:#fce4d8;fill-opacity:1;stroke-width:0.138563"
           d="m -4382.0717,-25.922444 c -20.7003,6.459174 -4.3008,-18.644741 5.394,-21.701259 4.4789,-2.960531 12.2146,-4.665147 14.835,1.621369"
           id="path60711"
           sodipodi:nodetypes="ccccc" /><path
           style="display:inline;opacity:1;fill:#fdeae0;fill-opacity:1;stroke-width:0.138563"
           d="m -4363.9688,-47.265564 c -10.3392,7.086809 -25.5694,14.825314 -37.5277,8.857007 -1.3923,-16.984481 20.9584,-17.920291 32.3352,-12.210961 2.0262,0.721021 4.0238,1.519806 6.005,2.355874"
           id="path60715"
           sodipodi:nodetypes="ccccccc" /><path
           style="display:inline;opacity:1;fill:#fdeae0;fill-opacity:1;stroke-width:0.138563"
           d="m -4358.1167,-43.752154 c 10.0409,13.873633 -22.5346,30.994612 -17.1749,10.153681 3.2145,-6.498626 7.7786,-15.277135 16.3187,-14.793101"
           id="path60717"
           sodipodi:nodetypes="ccccc" /><path
           style="display:inline;opacity:1;fill:#fce4d8;fill-opacity:1;stroke-width:0.138563"
           d="m -4343.4245,-47.592834 c 15.3817,-1.071369 16.7251,19.983025 7.3192,27.965147 -13.5585,8.727563 -18.073,-20.331603 -15.9603,-28.390197"
           id="path60721"
           sodipodi:nodetypes="ccscscc" /><path
           style="display:inline;opacity:1;fill:#fdeae0;fill-opacity:1;stroke-width:0.138563"
           d="m -4350.3393,-45.734554 c 14.0479,8.089511 2.2836,28.761484 -11.6949,25.505642 -10.5864,-6.534573 -0.179,-28.096256 10.5023,-29.411852"
           id="path60725"
           sodipodi:nodetypes="ccsccc" /><path
           style="display:inline;opacity:1;fill:#fce4d8;fill-opacity:1;stroke-width:0.138563"
           d="m -4340.4582,-50.005737 c 11.573,4.962685 21.0849,-12.956758 5.6437,-13.380993 -7.7784,-1.034633 -25.2089,21.51514 -6.3605,14.148923"
           id="path60729"
           sodipodi:nodetypes="cccccc" /><path
           style="display:inline;opacity:1;fill:#fce4d8;fill-opacity:1;stroke-width:0.138563"
           d="m -4330.7819,-46.887907 c 9.8172,1.688003 12.8147,-6.177692 1.5516,-7.154299 -7.9431,-4.163887 -21.8838,0.8036 -10.3109,9.07782 3.8809,0.105624 7.5259,-1.51227 11.3875,-1.600991"
           id="path60733"
           sodipodi:nodetypes="ccccc" /><path
           style="display:inline;opacity:1;fill:#fdeae0;fill-opacity:1;stroke-width:0.138563"
           d="m -4333.1544,-40.369264 c 6.4541,19.686457 34.7426,-6.514815 13.5071,-11.284273 -8.6007,0.328466 -18.35,-2.424705 -25.7683,3.469713"
           id="path60737"
           sodipodi:nodetypes="ccccc" /><path
           style="display:inline;opacity:1;fill:#fdeae0;fill-opacity:1;stroke-width:0.138563"
           d="m -4328.6626,-61.224287 c -5.5831,-22.555793 -31.8521,15.080054 -11.6932,9.778554 4.5063,-2.362544 8.129,-5.882619 11.6167,-9.504024"
           id="path60743"
           sodipodi:nodetypes="csscccc" /><path
           style="display:inline;opacity:1;fill:#fbdecf;fill-opacity:1;stroke-width:0.138563"
           d="m -4353.5145,-56.797914 c 12.1903,-10.185241 -18.7935,-22.587909 -6.5371,-7.50619 2.8185,2.224184 4.0876,4.789945 5.0864,8.12052"
           id="path60747"
           sodipodi:nodetypes="ccsccc" /><path
           style="display:inline;opacity:1;fill:#fdeae0;fill-opacity:1;stroke-width:0.138563"
           d="m -4353.8581,-57.230804 c 8.7429,-16.48542 -29.8795,-17.456198 -14.4663,-3.426214 4.3654,2.185466 8.1266,7.784136 13.647,5.729224"
           id="path60751"
           sodipodi:nodetypes="cccccc" /><path
           style="display:inline;opacity:1;fill:#fdeae0;fill-opacity:1;stroke-width:0.138563"
           d="m -4359.6169,-55.110944 c 5.0609,-16.352727 -30.0254,-13.476275 -16.2342,-2.480253 5.16,2.122695 10.7437,2.325902 16.2342,2.480253 z"
           id="path60755"
           sodipodi:nodetypes="ccsccc" /><path
           style="display:inline;opacity:1;fill:#f4a002;fill-opacity:1;stroke-width:0.138563"
           d="m -4345.8911,-50.876276 c -3.7083,21.437466 -33.6516,-9.826689 -11.0387,-5.86532 3.5737,0.760626 6.707,2.522274 9.8241,4.32601"
           id="path60761"
           sodipodi:nodetypes="cccccccc" /></g></g></g></svg>
