<?xml version="1.0" encoding="UTF-8" standalone="no"?>
<!-- Created with Inkscape (http://www.inkscape.org/) -->

<svg
   width="75.746666mm"
   height="143.79346mm"
   viewBox="0 0 75.746666 143.79346"
   version="1.1"
   id="svg5"
   xml:space="preserve"
   inkscape:version="1.2 (dc2aedaf03, 2022-05-15)"
   sodipodi:docname="drawing.svg"
   xmlns:inkscape="http://www.inkscape.org/namespaces/inkscape"
   xmlns:sodipodi="http://sodipodi.sourceforge.net/DTD/sodipodi-0.dtd"
   xmlns="http://www.w3.org/2000/svg"
   xmlns:svg="http://www.w3.org/2000/svg"><sodipodi:namedview
     id="namedview7"
     pagecolor="#505050"
     bordercolor="#eeeeee"
     borderopacity="1"
     inkscape:showpageshadow="0"
     inkscape:pageopacity="0"
     inkscape:pagecheckerboard="0"
     inkscape:deskcolor="#505050"
     inkscape:document-units="mm"
     showgrid="false"
     inkscape:zoom="0.18128859"
     inkscape:cx="-16691.619"
     inkscape:cy="311.65779"
     inkscape:window-width="1920"
     inkscape:window-height="1001"
     inkscape:window-x="-9"
     inkscape:window-y="-9"
     inkscape:window-maximized="1"
     inkscape:current-layer="layer24"
     showguides="true" /><defs
     id="defs2" /><g
     inkscape:groupmode="layer"
     id="layer27"
     inkscape:label="another daisy 7"
     style="display:inline"
     transform="translate(4247.4085,78.21646)"><g
       inkscape:groupmode="layer"
       id="layer29"
       inkscape:label="another daisy 9"
       style="display:inline"><g
         id="g61944"><path
           style="display:inline;opacity:1;fill:#76872a;fill-opacity:1;stroke-width:0.487037"
           d="m -4219.6345,20.456554 c 8.0171,-4.536262 20.0531,-21.3763869 12.6091,-28.3043169 -9.6614,4.7626236 -21.9626,16.8866966 -14.3471,28.2496169"
           id="path60841" /><path
           style="display:inline;opacity:1;fill:#495833;fill-opacity:1;stroke-width:0.264583"
           d="m -4226.5826,23.409266 c 1.8665,-7.803866 18.9187,-24.16625095 7.6038,-8.227006 -2.1402,3.093862 -4.59,5.956845 -7.6038,8.227006 z"
           id="path60845"
           sodipodi:nodetypes="cccccc" /><path
           style="display:inline;opacity:1;fill:#76872a;fill-opacity:1;stroke-width:0.487037"
           d="m -4225.7244,24.061261 c 18.0584,2.630793 38.4669,-1.868102 52.149,-14.3469204 9.0761,-13.8491974 -16.6497,-2.8846354 -24.5757,-4.0810547 -11.3486,1.5331267 -23.5927,6.7179251 -27.5733,18.4279751 z"
           id="path60847" /><path
           id="path60851"
           style="display:inline;opacity:1;fill:#495833;fill-opacity:1;stroke-width:0.264583"
           d="m -4183.8288,7.7193659 c -11.8747,-1.18791 -29.3384,4.7642321 -35.584,11.8072871 12.7141,-1.177011 23.0591,-9.8786283 35.584,-11.8072871 z"
           sodipodi:nodetypes="sccccsscccccss" /><path
           style="display:inline;fill:#495833;fill-opacity:1;stroke-width:0.199656"
           d="m -4212.857,-49.591694 c -12.2449,36.845199 -16.4382,77.276757 -6.4759,115.16869 -17.3358,-13.878433 -12.5969,-38.369555 -8.9536,-57.3035128 3.9755,-19.4789802 1.8318,-41.6038052 15.4295,-57.8651772 z"
           id="path60853"
           sodipodi:nodetypes="csssssc" /><path
           style="display:inline;opacity:1;fill:#fbdecf;fill-opacity:1;stroke-width:0.345683"
           d="m -4198.9406,-40.495834 c 12.3754,9.597717 32.9204,-19.258077 11.6026,-15.392349 -6.7516,1.7228 -13.016,5.348464 -17.5948,10.637259"
           id="path60857" /><path
           style="display:inline;opacity:1;fill:#fce4d8;fill-opacity:1;stroke-width:0.345683"
           d="m -4207.8868,-43.801164 c 10.3541,4.53335 2.7049,24.539992 -4.6575,11.858077 -1.2185,-5.451979 1.0388,-10.925911 3.2435,-15.801237"
           id="path60859" /><path
           style="display:inline;opacity:1;fill:#fce4d8;fill-opacity:1;stroke-width:0.345683"
           d="m -4214.9972,-44.902904 c 2.3592,14.51223 -22.148,16.48305 -14.0838,1.076532 2.4234,-3.135845 6.0615,-4.976254 9.6957,-6.314792"
           id="path60861" /><path
           id="path60863"
           style="display:inline;opacity:1;fill:#000000;fill-opacity:0.236074;stroke-width:0.345683"
           d="m -4209.3006,-47.744444 c -10.199,5.814394 4.7126,22.810719 5.676,9.511249 -0.9982,-3.621752 -3.3259,-6.66448 -5.676,-9.511249 z" /><path
           id="path60865"
           style="display:inline;opacity:1;fill:#000000;fill-opacity:0.236074;stroke-width:0.345683"
           d="m -4219.3849,-50.141124 c -17.0444,0.115135 -6.5737,23.462575 3.0228,11.084071 0.5876,-3.94869 -1.2929,-7.685024 -3.0228,-11.084071 z" /><path
           style="display:inline;opacity:1;fill:#fdeae0;fill-opacity:1;stroke-width:0.345683"
           d="m -4211.1361,-45.656774 c 17.3214,10.986645 -17.1194,26.534506 -10.2908,7.822039 1.8326,-3.176894 4.3689,-5.878715 6.9746,-8.428879"
           id="path60867"
           sodipodi:nodetypes="ccccc" /><path
           style="display:inline;opacity:1;fill:#fce4d8;fill-opacity:1;stroke-width:0.345683"
           d="m -4207.2948,-47.081945 c 6.6901,-16.40592 36.8302,10.31075 17.8732,9.726245 -7.0831,-2.009342 -12.813,-8.043062 -20.5106,-7.928575"
           id="path60873"
           sodipodi:nodetypes="cccccc" /><path
           style="display:inline;opacity:1;fill:#fdeae0;fill-opacity:1;stroke-width:0.345683"
           d="m -4207.5846,-46.521456 c 14.7014,-4.446312 21.43,22.256883 4.4911,18.962144 -5.7483,-3.55525 -7.667,-10.705525 -9.3129,-16.817174"
           id="path60877"
           sodipodi:nodetypes="ccccccc" /><path
           id="path60881"
           style="display:inline;opacity:1;fill:#fbdecf;fill-opacity:1;stroke-width:0.345683"
           d="m -4208.5716,-74.19267 c -14.5698,3.878774 -0.4814,27.967977 4.8769,12.853034 -0.3323,-4.665046 -2.6114,-8.875651 -4.8769,-12.853034 z" /><path
           style="display:inline;opacity:1;fill:#fbdecf;fill-opacity:1;stroke-width:0.345683"
           d="m -4220.1877,-57.563624 c 16.7283,-7.23141 -12.4969,-29.539896 -8.3215,-11.105477 2.0736,4.089612 4.5476,7.871938 6.0413,12.245867"
           id="path60885" /><path
           style="display:inline;opacity:1;fill:#fce4d8;fill-opacity:1;stroke-width:0.345683"
           d="m -4205.4261,-52.920744 c 22.0978,-4.075999 1.1579,-36.0082 -4.6393,-10.580077 -0.6169,3.524779 -1.7977,6.917692 -2.7134,10.370467"
           id="path60889"
           sodipodi:nodetypes="ccccc" /><path
           style="display:inline;opacity:1;fill:#fce4d8;fill-opacity:1;stroke-width:0.345683"
           d="m -4200.9661,-48.942724 c 17.8926,5.957675 19.218,-33.364356 2.5343,-18.337336 -4.352,4.562791 -9.5155,12.296597 -4.349,18.202006"
           id="path60893" /><path
           id="path60897"
           style="display:inline;opacity:1;fill:#fce4d8;fill-opacity:1;stroke-width:0.345683"
           d="m -4218.1754,-78.21646 c -20.2677,3.31285 6.8436,36.424584 6.8869,14.033308 -1.2291,-4.772413 -0.047,-13.445002 -6.8869,-14.033308 z" /><path
           style="display:inline;opacity:1;fill:#fbdecf;fill-opacity:1;stroke-width:0.345683"
           d="m -4224.0491,-57.524944 c 0.3343,-18.945465 -37.7299,-6.974461 -15.3205,1.629875 4.1914,1.537817 8.6105,2.292104 13.0419,2.699885"
           id="path60901" /><path
           style="display:inline;opacity:1;fill:#fbdecf;fill-opacity:1;stroke-width:0.345683"
           d="m -4223.9013,-42.080844 c -13.2828,10.215164 -38.2063,-8.607832 -11.9974,-9.42037 4.3572,0.100648 8.7946,1.605302 11.9547,4.68468"
           id="path60909" /><path
           style="display:inline;opacity:1;fill:#fdeae0;fill-opacity:1;stroke-width:0.345683"
           d="m -4219.1331,-44.154324 c 3.966,19.346285 -35.9882,9.690847 -16.9446,-0.911839 5.0424,-1.978153 10.5181,-3.272734 15.9557,-2.489481"
           id="path60913"
           sodipodi:nodetypes="ccccc" /><path
           style="display:inline;opacity:1;fill:#fdeae0;fill-opacity:1;stroke-width:0.345683"
           d="m -4225.7087,-49.133838 c -10.3342,10.238711 -33.8555,-15.465008 -12.7585,-10.860128 6.5688,1.868769 12.4989,5.875858 16.5351,11.401378"
           id="path60917" /><path
           style="display:inline;opacity:1;fill:#fdeae0;fill-opacity:1;stroke-width:0.345683"
           d="m -4224.0984,-52.972734 c -17.8936,1.242739 -18.183,-37.901497 -0.6338,-20.426777 4.3052,4.125452 7.5523,10.027773 6.6428,16.157737"
           id="path60921"
           sodipodi:nodetypes="cccccc" /><path
           id="path60925"
           style="display:inline;opacity:1;fill:#fdeae0;fill-opacity:1;stroke-width:0.345683"
           d="m -4176.9908,-64.602504 c -14.2662,-9.838572 -28.768,24.769039 -8.965,16.635025 4.0292,-3.35049 21.2349,-12.220858 8.965,-16.635025 z"
           sodipodi:nodetypes="sccccccss" /><path
           style="opacity:1;fill:#f4a002;fill-opacity:1;stroke-width:0.29021"
           d="m -4221.5262,-43.230054 c -19.0199,-12.954894 22.3239,-22.710371 18.4873,-6.322913 -4.6388,6.293438 -14.4684,10.641359 -20.7115,3.934541"
           id="path60929" /></g></g></g></svg>
