<?xml version="1.0" encoding="UTF-8" standalone="no"?>
<!-- Created with Inkscape (http://www.inkscape.org/) -->

<svg
   width="105.17955mm"
   height="176.18558mm"
   viewBox="0 0 105.17955 176.18558"
   version="1.1"
   id="svg5"
   xml:space="preserve"
   inkscape:version="1.2 (dc2aedaf03, 2022-05-15)"
   sodipodi:docname="drawing.svg"
   xmlns:inkscape="http://www.inkscape.org/namespaces/inkscape"
   xmlns:sodipodi="http://sodipodi.sourceforge.net/DTD/sodipodi-0.dtd"
   xmlns="http://www.w3.org/2000/svg"
   xmlns:svg="http://www.w3.org/2000/svg"><sodipodi:namedview
     id="namedview7"
     pagecolor="#505050"
     bordercolor="#eeeeee"
     borderopacity="1"
     inkscape:showpageshadow="0"
     inkscape:pageopacity="0"
     inkscape:pagecheckerboard="0"
     inkscape:deskcolor="#505050"
     inkscape:document-units="mm"
     showgrid="false"
     inkscape:zoom="0.36257718"
     inkscape:cx="-20741.791"
     inkscape:cy="2342.9494"
     inkscape:window-width="3200"
     inkscape:window-height="1271"
     inkscape:window-x="2391"
     inkscape:window-y="-9"
     inkscape:window-maximized="1"
     inkscape:current-layer="layer3"
     showguides="true" /><defs
     id="defs2" /><g
     inkscape:groupmode="layer"
     id="layer9"
     inkscape:label="Daisy2"
     transform="translate(5701.0959,-370.00853)"
     style="display:inline"><g
       inkscape:groupmode="layer"
       id="layer12"
       inkscape:label="petalas 2"
       style="display:inline"><g
         id="g75773"><g
           id="g35235"
           transform="matrix(2.6136981,0,0,2.6136981,-5000.4962,-17.486286)"
           style="display:inline;fill:#a6ac38;fill-opacity:1"
           inkscape:export-filename="minhaFlor2.svg"
           inkscape:export-xdpi="96"
           inkscape:export-ydpi="96"><path
             d="m -246.15926,161.40416 c -2.78474,3.81982 -4.00244,7.19326 -5.26542,11.14659 -2.23338,6.99125 -2.57743,14.11453 -2.29807,20.7088 0.13968,3.29581 1.11272,17.13098 4.01655,22.25407 0.24965,0.44109 1.68466,-0.19937 2.00048,-0.50343 -1.76229,-4.25091 -6.08172,-18.88975 -4.74258,-31.59279 0.41403,-3.93627 1.55939,-8.20895 2.65535,-11.41419 2.10546,-6.16053 3.90657,-9.07201 3.63369,-10.59905 v 0"
             style="fill:#a6ac38;fill-opacity:1;fill-rule:evenodd;stroke:none;stroke-width:0.00294059"
             id="path35059" /><path
             d="m -253.65541,184.14725 c 1.76876,-3.37844 -4.12153,-15.62364 -8.17689,-17.60206 -0.66899,-0.32611 2.72916,2.11957 4.66612,6.5775 2.56743,5.90706 2.95941,10.97428 3.51077,11.02456 v 0"
             style="fill:#a6ac38;fill-opacity:1;fill-rule:evenodd;stroke:none;stroke-width:0.00294059"
             id="path35061" /><path
             d="m -256.60188,173.56643 c -1.04803,-0.90188 -1.42589,-1.29268 -2.8262,-1.58263 -0.94305,-0.19525 -0.54195,-2.50891 -4.03831,-2.50391 -0.6237,10e-4 1.99519,2.35894 3.41726,2.63977 1.51028,0.29759 3.42667,2.12751 3.42667,2.11193 0.002,-0.12174 0.17584,-0.53195 0.0206,-0.66516 v 0"
             style="fill:#a6ac38;fill-opacity:1;fill-rule:evenodd;stroke:none;stroke-width:0.00294059"
             id="path35065" /><path
             d="m -254.65051,178.45633 c -1.04685,-0.90188 -1.42589,-1.29268 -2.8262,-1.58262 -0.94334,-0.19526 -0.54195,-2.50891 -4.0383,-2.50362 0.36875,2.11428 1.99636,2.35894 3.41843,2.63977 1.50881,0.29758 3.4252,2.12722 3.42667,2.11163 10e-4,-0.12174 0.17467,-0.53195 0.0194,-0.66516 v 0"
             style="fill:#a6ac38;fill-opacity:1;fill-rule:evenodd;stroke:none;stroke-width:0.00294059"
             id="path35067" /><path
             d="m -255.89261,175.67307 c -0.42991,-1.26034 -0.64987,-1.74318 -0.32876,-3.03322 0.21613,-0.86806 -2.22191,-1.53322 -0.7078,-4.43705 1.91109,1.21887 1.44795,2.6774 1.1089,3.98038 -0.35964,1.38325 0.60282,3.76689 0.5887,3.76042 -0.12027,-0.0506 -0.59664,-0.0841 -0.66104,-0.27053 v 0"
             style="fill:#a6ac38;fill-opacity:1;fill-rule:evenodd;stroke:none;stroke-width:0.00294059"
             id="path35069" /><path
             d="m -254.74637,178.53926 c -0.10468,-1.31739 -0.1979,-1.83375 0.43491,-3.02028 0.42698,-0.79955 -1.78052,-1.96167 0.41668,-4.46793 1.55646,1.59027 0.7428,2.91118 0.0879,4.1083 -0.69486,1.26945 -0.35081,3.79277 -0.36375,3.78365 -0.10469,-0.0753 -0.56018,-0.20702 -0.57577,-0.40374 v 0"
             style="fill:#a6ac38;fill-opacity:1;fill-rule:evenodd;stroke:none;stroke-width:0.00294059"
             id="path35071" /><path
             d="m -252.67326,197.61632 c -1.76905,-3.37991 4.12006,-15.62481 8.17543,-17.60324 0.66898,-0.32611 -2.72916,2.11958 -4.66613,6.57721 -2.56595,5.90706 -2.9594,10.97575 -3.5093,11.02603 v 0"
             style="fill:#a6ac38;fill-opacity:1;fill-rule:evenodd;stroke:none;stroke-width:0.00294059"
             id="path35073" /><path
             d="m -246.80502,181.96181 c 1.23828,0.0673 2.66565,-1.03774 3.10673,-2.40423 0.50608,-1.56586 -0.07,-3.42255 -0.0635,-3.41226 0.0144,0.0206 -0.002,0.29259 -0.45785,1.01715 -0.91894,1.45942 -0.82425,1.23299 -1.96049,2.41834 -0.81396,0.85013 -0.41286,1.41178 -0.62488,2.381 v 0"
             style="fill:#a6ac38;fill-opacity:1;fill-rule:evenodd;stroke:none;stroke-width:0.00294059"
             id="path35075" /><path
             d="m -249.91851,186.55295 c -0.10616,-1.31739 -0.19908,-1.83375 0.43491,-3.02146 0.4255,-0.79837 -1.78053,-1.96166 0.41668,-4.46822 1.55528,1.59174 0.74132,2.91265 0.0868,4.1083 -0.69516,1.27092 -0.35081,3.79394 -0.36375,3.78365 -0.10351,-0.0738 -0.55901,-0.20702 -0.57459,-0.40227 v 0"
             style="fill:#a6ac38;fill-opacity:1;fill-rule:evenodd;stroke:none;stroke-width:0.00294059"
             id="path35077" /><path
             d="m -251.33411,193.11075 c 1.25651,-0.63664 1.7767,-0.8463 2.51155,-1.98225 0.49579,-0.76485 2.75622,0.30788 3.84071,-2.75504 -2.29572,-0.3364 -3.05527,1.01186 -3.78748,2.17016 -0.77632,1.22799 -3.26082,2.33688 -3.24523,2.34188 0.12409,0.0403 0.49402,0.31965 0.68045,0.22525 v 0"
             style="fill:#a6ac38;fill-opacity:1;fill-rule:evenodd;stroke:none;stroke-width:0.00294059"
             id="path35079" /></g><path
           style="display:inline;fill:#fff3cf;fill-opacity:1;stroke-width:1.645"
           d="m -5624.3103,409.26554 c 2.9972,5.29892 8.1325,11.64399 11.8999,17.63262 4.4552,7.08165 7.4605,13.3652 9.3745,12.53912 0.7247,-0.13853 1.3422,-0.42057 1.8628,-0.8165 0.8472,-0.64474 0.6801,-2.30354 1.0531,-3.42589 0.3748,-1.12739 1.2874,-1.71993 1.2676,-3.07271 -0.031,-2.07776 -0.4757,-4.26972 -1.1831,-6.11004 -1.768,-5.67071 -5.2003,-9.13206 -8.5184,-12.10409 -3.2394,-2.09912 -7.8042,-5.37856 -11.3346,-6.00385"
           id="path9630-5"
           sodipodi:nodetypes="cscsssccc" /><path
           style="display:inline;fill:#fff3cf;fill-opacity:1;stroke-width:1.86858"
           d="m -5631.3931,408.66177 c 1.6599,14.59826 2.6054,29.68464 8.8649,43.24144 1.8558,0.66438 2.0077,-0.1857 2.8606,-0.51363 1.1409,-0.43851 1.8814,-2.73808 2.674,-3.61281 1.2764,-1.40855 2.3341,-1.6736 2.7606,-3.65264 0.41,-1.90472 0.4411,-3.91354 0.1217,-5.71805 -0.8608,-9.9184 -5.9675,-18.7104 -11.5543,-26.74524"
           id="path9632-3"
           sodipodi:nodetypes="ccssscc" /><path
           style="display:inline;fill:#fff3cf;fill-opacity:1;stroke-width:1.86858"
           d="m -5632.7599,407.16439 c -0.5292,15.11157 0.664,30.32943 -1.5366,45.34656 -0.6647,1.08399 -1.6426,1.62801 -2.7526,1.91171 -1.159,0.29613 -2.4619,-0.13193 -3.7026,-0.0852 -1.506,0.0569 -2.9705,0.3863 -4.1983,-0.0745 -1.5495,-0.58169 -2.7217,-1.72072 -3.1229,-3.78308 -1.6011,-7.44154 0.9309,-19.57471 1.2467,-27.10162 0.5979,-5.93075 2.0743,-12.00776 5.779,-16.81867"
           id="path9634-0"
           sodipodi:nodetypes="ccsssccc" /><path
           style="display:inline;fill:#fff3cf;fill-opacity:1;stroke-width:1.86858"
           d="m -5643.5437,406.87596 c -5.9883,11.1513 -10.0719,27.92027 -19.7683,36.96386 -3.3502,3.51263 -5.0315,1.08746 -8.1181,-3.75146 -2.8962,-4.81514 -6.2473,-6.30818 -3.3521,-10.60028 5.5712,-11.81203 18.2307,-24.45405 28.9524,-31.91377"
           id="path9638-8"
           sodipodi:nodetypes="ccccc" /><path
           style="display:inline;fill:#fff3cf;fill-opacity:1;stroke-width:1.92805"
           d="m -5651.806,400.22026 c -8.8737,10.77245 -23.401,18.10618 -29.9734,26.2495 -4.8344,3.02288 -5.853,0.60439 -9.52,-4.83707 -2.4596,-5.8274 -3.9019,-5.616 -0.5424,-9.43234 9.803,-5.74008 26.7481,-17.53117 36.2855,-16.66409"
           id="path9640-2"
           sodipodi:nodetypes="ccccc" /><path
           style="display:inline;fill:#fff3cf;fill-opacity:1;stroke-width:1.86858"
           d="m -5656.9664,392.90026 c -11.3046,2.13063 -26.6906,17.12324 -38.2329,17.46745 -0.8091,0.0251 -1.8928,0.13696 -2.8575,-1.29792 -0.4509,-0.67114 -0.2963,-2.62912 -0.6556,-3.40223 -0.4274,-0.92254 -1.3384,-1.8239 -1.5075,-2.67544 -0.1779,-0.89369 -0.1747,-1.6835 0.087,-2.23347 8.0198,-7.97758 24.25,-10.32816 35.4943,-11.53827 2.71,-0.0817 4.702,-2.10202 7.4094,-1.99326"
           id="path9642-6"
           sodipodi:nodetypes="cssssccc" /><path
           style="display:inline;fill:#fff3cf;fill-opacity:1;stroke-width:1.86858"
           d="m -5656.9558,385.79917 c -14.3539,3.48419 -27.097,7.5762 -41.8657,9.14081 -0.3925,-0.61768 -0.7464,-1.19917 -1.0601,-1.74695 -0.8189,-1.43013 -0.038,-2.40908 -0.2716,-3.4234 -0.2931,-1.26861 -1.4334,-2.46772 -0.7016,-3.2408 0.633,-0.66838 1.6738,-1.18374 3.1639,-1.60164 6.3572,-2.45416 22.5551,-5.89671 29.1621,-4.31853 4.0092,0.64954 7.9253,2.56676 11.9199,1.542"
           id="path9644-5"
           sodipodi:nodetypes="ccsssccc" /><path
           style="display:inline;fill:#fff3cf;fill-opacity:1;stroke-width:1.86858"
           d="m -5666.9789,381.05609 c -5.8845,-1.02115 -12.1896,0.52503 -17.8288,-1.80575 -1.6676,-1.85362 -1.203,-3.53718 -1.6404,-4.84086 -0.5847,-1.74087 -1.6459,-2.884 -0.6285,-3.61747 0.8929,-0.64336 2.2713,-0.89329 3.9085,-0.73944 8.2305,0.0346 26.5439,4.46881 31.7793,10.60047 -2.3547,4.02142 -4.9558,6.01105 -2.1585,2.15903"
           id="path9646-8"
           sodipodi:nodetypes="ccssccc" /><path
           style="display:inline;fill:#fff3cf;fill-opacity:1;stroke-width:1.86858"
           d="m -5619.0425,398.80759 c 7.4815,2.57558 16.6708,3.70435 21.7244,10.12 1.0096,1.34776 1.4262,2.6473 1.4007,3.75073 -0.031,0.72425 -1.1681,1.23823 -1.5235,1.75175 -0.5006,0.72343 -0.3508,1.32218 -1.3191,1.42771 -1.2162,0.13228 -2.7073,-0.31431 -4.2371,-1.57186 -7.9082,-3.84286 -15.5895,-5.86908 -20.3811,-12.95262"
           id="path9650-4"
           sodipodi:nodetypes="ccssscc" /><path
           style="display:inline;fill:#e6c78a;fill-opacity:1;stroke-width:0.258091"
           id="path10138-4"
           d="m -5653.4277,382.58105 c -2.0422,-0.90208 -0.051,-0.42196 -2.1214,-1.26316 -0.3642,-0.84835 -5.7556,-2.62713 -9.4308,-3.50867 -3.0086,-2.23533 6.6113,0.14044 8.3489,1.01479 1.2423,0.60195 2.4567,1.25889 3.6946,1.86904 -0.1651,0.62931 -0.3276,1.25868 -0.4913,1.888 z"
           sodipodi:nodetypes="cccccc" /><path
           style="display:inline;fill:#e6c78a;fill-opacity:1;stroke-width:0.258091"
           id="path10146-7"
           d="m -5619.566,400.63413 c 1.2819,0.52125 1.787,0.19005 3.033,0.79175 2.3349,1.51967 5.6031,3.31655 5.9934,4.37458 0.1936,2.42134 -5.7169,-3.98788 -7.1604,-3.13478 -1.2061,-0.58325 -1.3543,0.28336 -2.5954,-0.22219 z"
           sodipodi:nodetypes="cccccc" /><path
           style="display:inline;fill:#e6c78a;fill-opacity:1;stroke-width:0.258091"
           id="path10150-5"
           d="m -5624.4602,405.33172 c 4.0162,3.42795 -0.2371,-0.73391 3.8726,2.0113 3.1607,1.30621 10.1836,8.73437 8.622,9.31582 -0.3122,0.36151 -6.4657,-6.66558 -10.7792,-8.40243 -0.9221,-0.97617 -1.5247,0.10081 -2.4868,-0.83538 z"
           sodipodi:nodetypes="cccccc" /><path
           style="display:inline;fill:#e6c78a;fill-opacity:1;stroke:none;stroke-width:0.326516;stroke-opacity:1"
           id="path2017-5-2"
           d="m -5646.9701,402.77784 c -1.3754,2.51727 -4.7049,6.78494 -7.1115,11.18176 -2.7819,5.08308 -4.5245,10.21851 -3.7204,11.08201 1.5654,-0.5496 3.4809,-5.72667 5.9254,-10.47436 2.8241,-5.48376 6.2149,-10.51031 8.3301,-9.04567 -0.7533,-3.52379 -0.7396,-6.34926 -3.4236,-2.74374 z"
           sodipodi:nodetypes="cscscc" /><path
           style="display:inline;fill:#e6c78a;fill-opacity:1;stroke:none;stroke-width:0.258091;stroke-opacity:1"
           id="path2019-2-5"
           d="m -5635.5557,408.68924 c -0.2122,2.09203 0.1252,6.16151 -0.2402,9.81783 -0.4241,4.22696 -1.5029,9.7676 -2.4672,9.81697 -0.8375,-1.11928 0.1408,-6.77313 0.6432,-10.64077 0.5814,-4.46727 0.5536,-8.98242 -1.6068,-9.29198 2.1682,-1.52574 3.4744,-3.07287 3.6706,0.29801 z"
           sodipodi:nodetypes="cscscc" /><path
           style="display:inline;fill:#e6c78a;fill-opacity:1;stroke:none;stroke-width:0.278391;stroke-opacity:1"
           d="m -5629.096,412.03006 -1.5116,0.75834 c 1.5372,6.35161 2.4561,12.57482 3.3389,14.04425 1.4651,-2.33415 -0.337,-8.55448 -1.8273,-14.80259 z"
           id="path2043-4-6"
           sodipodi:nodetypes="cccc" /><path
           style="display:inline;fill:#e6c78a;fill-opacity:1;stroke:none;stroke-width:0.279487;stroke-opacity:1"
           id="path2045-1-6"
           d="m -5657.2995,396.70178 c -1.8938,1.43867 -5.8252,2.118 -9.1364,4.62926 -3.8283,2.90317 -9.0525,7.9845 -8.7548,9.00086 1.3528,0.20441 6.1366,-4.46614 9.598,-7.2407 3.9984,-3.20479 8.8215,-4.83583 9.8841,-2.80411 0.6625,-3.11158 1.6527,-5.35327 -1.5909,-3.58535 z"
           sodipodi:nodetypes="cscsccc" /><path
           style="display:inline;fill:#e6c78a;fill-opacity:1;stroke:none;stroke-width:0.204258;stroke-opacity:1"
           id="path2047-4-4"
           d="m -5659.3801,390.09596 c -1.6213,0.76322 -4.5973,0.72499 -7.4313,2.05658 -3.2755,1.5394 -7.935,4.42746 -7.8892,5.18137 0.9503,0.32126 5.2196,-2.33562 8.207,-3.8327 3.4504,-1.7292 7.2363,-2.24332 7.6675,-0.67491 1.0064,-2.10146 2.1049,-3.54812 -0.554,-2.73038 z"
           sodipodi:nodetypes="cscsccc" /><path
           style="display:inline;fill:#e6c78a;fill-opacity:1;stroke:none;stroke-width:0.258091;stroke-opacity:1"
           id="path2049-3-5"
           d="m -5659.2914,383.62926 c -2.1027,0.0251 -5.6038,-1.70284 -9.2783,-1.66046 -4.2481,0.049 -10.464,0.98071 -10.5982,1.9368 1.0408,0.93337 6.7395,0.0667 10.6363,-0.093 4.5013,-0.18444 9.0949,1.32002 9.2125,3.49918 1.7113,-2.02469 3.3681,-3.18938 0.031,-3.68252 z"
           sodipodi:nodetypes="cscsccc" /><path
           style="display:inline;fill:#e6c78a;fill-opacity:1;stroke:none;stroke-width:0.249147;stroke-opacity:1"
           d="m -5658.6879,388.85518 -0.3192,1.38047 c -6.6489,0.45057 -13.5554,1.86507 -14.5984,1.82234 1.3214,-3.00692 8.2469,-2.5225 14.9183,-3.20278 z"
           id="path2051-5-8"
           sodipodi:nodetypes="ccccc" /><path
           style="display:inline;fill:#e6c78a;fill-opacity:1;stroke:none;stroke-width:0.249147;stroke-opacity:1"
           d="m -5647.8347,399.81126 0.6874,1.23159 c -4.146,5.11796 -8.5856,11.44565 -9.9125,12.43658 -0.3264,-2.95924 5.149,-8.63639 9.2253,-13.66848 z"
           id="path2053-9-2"
           sodipodi:nodetypes="ccccc" /><path
           style="display:inline;fill:#e6c78a;fill-opacity:1;stroke:none;stroke-width:0.249147;stroke-opacity:1"
           d="m -5650.4467,395.66384 0.2591,1.38664 c -5.9239,3.74067 -11.6942,7.24206 -12.4774,7.28252 0,-2.99739 6.7489,-5.20369 12.2199,-8.66932 z"
           id="path2053-9-9-5"
           sodipodi:nodetypes="ccccc" /><path
           style="display:inline;fill:#e6c78a;fill-opacity:1;stroke:none;stroke-width:0.23324;stroke-opacity:1"
           id="path2019-4-4"
           d="m -5627.6681,411.60891 c 0.7238,1.47522 2.9618,4.26635 4.23,6.84429 1.4663,2.98027 2.8093,6.94137 1.7647,7.07646 -1.4395,-0.68985 -2.9472,-4.71902 -4.161,-7.45802 -1.4018,-3.1636 -3.5,-6.29678 -6.0331,-6.28601 1.7011,-1.28633 2.4388,-2.49749 4.1994,-0.17662 z"
           sodipodi:nodetypes="cscscc" /><path
           style="display:inline;fill:#f5cd44;fill-opacity:1;stroke-width:0.372073"
           d="m -5621.3861,402.95115 c 2.2195,-1.13226 2.75,-4.51902 0.9993,-6.28554 -0.2747,-2.3321 -0.969,-4.77488 -2.7183,-6.44206 -0.1966,-2.61828 -2.5574,-4.5922 -5.0158,-5.08406 -1.2996,-1.92856 -3.4901,-3.4746 -5.8996,-3.31861 -2.3333,-0.8987 -4.5717,-2.65839 -7.2167,-2.16961 -2.7044,0.12167 -5.2629,-1.45139 -7.9594,-1.00099 -2.4984,0.64829 -4.4873,2.41132 -6.7966,3.48253 -2.5798,1.56537 -5.3327,3.75766 -5.7772,6.93185 0.206,2.76752 3.0548,3.98341 4.6835,5.85103 2.1467,1.57475 2.3528,4.79725 4.8468,5.88031 2.122,0.51611 3.19,2.25046 4.302,3.86361 1.8986,0.83658 4.3316,0.66171 5.4844,2.71365 2.2453,1.87549 5.1366,2.66279 7.6726,4.04055 2.4144,1.06531 5.3015,2.11855 7.8214,0.76788 1.6414,-0.68681 3.1642,-1.64295 4.5351,-2.77439 1.2864,-1.953 -0.153,-4.4759 1.0385,-6.45615 z"
           id="path6646-9"
           sodipodi:nodetypes="ccccccccccccccccccc" /><path
           id="path8718-8"
           style="display:inline;fill:#f0a60d;fill-opacity:1;stroke-width:0.372073"
           d="m -5621.4139,403.15617 c -1.0799,1.86777 -0.1494,3.72509 -0.6091,5.52295 -0.9805,1.92798 -3.0819,2.40794 -4.6967,3.41435 -1.7316,0.90799 -3.6589,1.07698 -5.2245,0.35731 -2.9056,-0.81744 -5.4858,-2.32473 -8.1269,-3.66424 -1.829,-0.2019 -2.6357,-1.85197 -3.7994,-3.01463 -1.1816,-1.20664 -3.3607,0.39765 -4.2355,-1.40096 -0.9866,-1.21867 -1.6393,-3.15685 -3.4685,-3.18372 -2.7124,-0.68701 -3.0966,-4.11858 -5.0434,-5.7717 -1.551,-1.78175 -3.6771,-2.98542 -4.9443,-5.03888 -0.8473,-2.33542 1.1549,-4.75561 2.9018,-6.35047 1.8129,-1.62528 2.0468,1.86991 3.4142,2.37642 1.3588,1.57856 1.2594,6.20266 3.4331,6.8118 1.784,0.32039 3.5327,0.88718 4.8367,2.14352 1.4237,1.04784 2.1289,3.04643 3.995,3.43576 2.5417,0.63139 5.4395,0.63154 7.4358,2.42961 1.3517,1.14608 2.785,2.39998 4.7192,2.40374 1.9844,0.63692 3.9715,0.61168 6.2602,0.58549 0.8781,-0.90907 2.1031,-1.14251 3.1523,-1.05621 z"
           sodipodi:nodetypes="scccccccccccccccccss" /></g></g></g></svg>
