<?xml version="1.0" encoding="UTF-8" standalone="no"?>
<!-- Created with Inkscape (http://www.inkscape.org/) -->

<svg
   width="104.39211mm"
   height="187.06512mm"
   viewBox="0 0 104.39211 187.06512"
   version="1.1"
   id="svg5"
   xml:space="preserve"
   inkscape:version="1.2 (dc2aedaf03, 2022-05-15)"
   sodipodi:docname="drawing.svg"
   xmlns:inkscape="http://www.inkscape.org/namespaces/inkscape"
   xmlns:sodipodi="http://sodipodi.sourceforge.net/DTD/sodipodi-0.dtd"
   xmlns="http://www.w3.org/2000/svg"
   xmlns:svg="http://www.w3.org/2000/svg"><sodipodi:namedview
     id="namedview7"
     pagecolor="#505050"
     bordercolor="#eeeeee"
     borderopacity="1"
     inkscape:showpageshadow="0"
     inkscape:pageopacity="0"
     inkscape:pagecheckerboard="0"
     inkscape:deskcolor="#505050"
     inkscape:document-units="mm"
     showgrid="false"
     inkscape:zoom="0.36257718"
     inkscape:cx="-20741.791"
     inkscape:cy="2342.9494"
     inkscape:window-width="3200"
     inkscape:window-height="1271"
     inkscape:window-x="2391"
     inkscape:window-y="-9"
     inkscape:window-maximized="1"
     inkscape:current-layer="layer3"
     showguides="true" /><defs
     id="defs2" /><g
     inkscape:groupmode="layer"
     id="layer9"
     inkscape:label="Daisy2"
     transform="translate(5943.6677,-354.9914)"
     style="display:inline"><g
       inkscape:groupmode="layer"
       id="layer12"
       inkscape:label="petalas 2"
       style="display:inline"><g
         id="g75595"><path
           d="m -5890.4654,541.77544 c 10.2604,1.47329 3.7187,-2.63579 -0.3649,-17.30798 -4.9441,-17.75794 -9.4799,-29.00627 -10.5738,-41.52741 -0.062,-0.72585 -0.1494,-1.48737 -0.2558,-2.27865 0.3163,-1.19986 0.7,-2.6474 1.1559,-4.10577 2.3802,-1.96877 4.3204,-2.89513 4.6484,-2.96061 6.8293,-1.35314 10.9095,-2.09641 13.3822,-11.04453 -8.2773,-2.2356 -9.5833,5.68426 -14.0567,8.63077 -0.9876,0.65214 -1.9032,1.30174 -2.7525,1.94312 0.059,-0.13071 0.1129,-0.26276 0.1721,-0.39032 2.0783,-4.67416 4.7868,-7.37624 5.1849,-7.60575 6.0195,-3.48599 9.6439,-5.50944 9.0899,-14.77496 -8.5539,0.55849 -7.2308,8.47749 -10.5121,12.70755 -4.1818,5.39673 -6.0785,9.93918 -6.9494,13.47236 -4.2044,-24.97262 -2.5124,-28.53151 4.6344,-50.73326 4.8093,-14.94231 5.4687,-18.23521 4.1853,-15.80653 -2.4028,4.54656 -11.4744,24.72483 -13.1589,34.84383 -0.7112,4.26899 -1.5538,9.34092 -1.4551,15.11302 -1.2289,-2.9457 -3.2236,-6.39192 -6.4899,-10.25322 -3.46,-4.08751 -2.4759,-12.05377 -11.0443,-12.24769 -0.1564,9.27958 3.5472,11.14644 9.7128,14.3739 0.4088,0.21126 3.2307,2.79656 5.5063,7.37625 0.4955,0.99519 0.952,2.11793 1.371,3.24898 -1.1889,-0.63138 -2.4872,-1.25452 -3.909,-1.85608 -4.9296,-2.08975 -7.6457,-9.64832 -15.3836,-5.95436 4.0471,8.3532 8.1938,8.34986 15.1539,8.44847 0.3358,0.007 2.3847,0.55769 5.0568,2.04501 0.1061,0.32153 0.206,0.63471 0.3029,0.94133 1.8335,25.89567 11.9448,60.38155 17.3485,75.70253 v 0"
           style="display:inline;fill:#b4ba3d;fill-opacity:1;fill-rule:evenodd;stroke:none;stroke-width:0.00828613"
           id="path2528"
           inkscape:export-filename="minhaFlor1.svg"
           inkscape:export-xdpi="96"
           inkscape:export-ydpi="96" /><path
           style="display:inline;fill:#fff3cf;fill-opacity:1;stroke:none;stroke-width:0.287513"
           d="m -5885.5063,392.05497 c 3.2632,-5.26839 8.4268,-14.29515 12.7782,-21.10443 3.2503,-5.08719 6.3197,-8.72886 3.2934,-10.33009 -11.7707,-4.85492 -16.1985,8.48386 -17.9948,19.62801 -0.7743,3.6039 0.2123,8.31581 -0.8478,11.8616"
           id="path2530"
           sodipodi:nodetypes="csccc"
           inkscape:transform-center-x="13.56017"
           inkscape:transform-center-y="-28.411877" /><path
           style="display:inline;fill:#fff3cf;fill-opacity:1;stroke:none;stroke-width:0.33896"
           d="m -5883.009,396.71266 c 8.6588,-5.02219 19.895,-8.13765 27.5264,-14.67908 2.2983,-1.36491 8.4846,-5.22809 6.9332,-7.04409 -5.9446,-10.29014 -21.0254,1.68122 -27.2191,7.80345 -2.4953,2.3955 -5.7144,7.67945 -8.2259,10.05891"
           id="path2532"
           sodipodi:nodetypes="ccccc"
           inkscape:transform-center-x="24.149984"
           inkscape:transform-center-y="-21.828322" /><path
           style="display:inline;fill:#fff3cf;fill-opacity:1;stroke:none;stroke-width:0.330656"
           d="m -5881.0708,400.14111 c 1.7975,-0.18412 7.8506,-0.35269 14.9698,0.30582 5.6295,0.52082 11.9743,1.94595 17.0717,1.58869 3.5594,-0.24934 7.8652,-0.60603 9.7537,-1.79739 -2.0238,-16.28072 -27.5287,-7.98148 -36.3041,-5.04788"
           id="path2534"
           sodipodi:nodetypes="csscc"
           inkscape:transform-center-x="31.898765"
           inkscape:transform-center-y="-5.6824956" /><path
           style="display:inline;fill:#fff3cf;fill-opacity:1;stroke:none;stroke-width:0.347435"
           d="m -5890.4764,395.21624 c 0.3339,-8.39209 4.1229,-18.26924 2.6453,-26.45478 -0.952,-2.91549 -1.8583,-10.62281 -4.5872,-13.28422 -11.3729,-3.24469 -10.6587,10.53971 -7.2994,18.28953 3.1284,7.01386 7.0204,14.78098 6.1928,22.33972"
           id="path2536"
           sodipodi:nodetypes="ccccc"
           inkscape:transform-center-x="-2.4537555"
           inkscape:transform-center-y="-27.507869" /><path
           style="display:inline;fill:#fff3cf;fill-opacity:1;stroke:none;stroke-width:0.303459"
           d="m -5901.4068,394.9612 c -2.7399,-2.7374 -6.1638,-8.32809 -8.8491,-10.57032 -4.6931,-3.91825 -10.1115,-7.98368 -16.3668,-9.66204 -5.1537,-2.41096 -13.2238,3.78273 -11.0701,9.54111 9.4044,4.92063 19.047,5.45829 23.1308,8.29689 2.4503,1.70315 6.5864,3.05549 9.3665,4.10837"
           id="path2538"
           sodipodi:nodetypes="csccsc"
           inkscape:transform-center-x="-27.413093"
           inkscape:transform-center-y="-16.143123" /><path
           style="display:inline;fill:#fff3cf;fill-opacity:1;stroke:none;stroke-width:0.300388"
           d="m -5893.9687,396.42151 c -2.9012,-7.48473 -3.6311,-16.56965 -7.8813,-23.3673 -6.7428,-11.45893 -9.6762,-13.81865 -19.3641,-9.27166 -4.4384,5.48317 18.3646,20.97376 22.8708,30.38435"
           id="path2540"
           sodipodi:nodetypes="cccc"
           inkscape:transform-center-x="-14.980811"
           inkscape:transform-center-y="-25.054117" /><path
           style="display:inline;fill:#fff3cf;fill-opacity:1;stroke:none;stroke-width:0.330656"
           d="m -5907.3659,397.46693 c -10.12,-2.24291 -44.5687,-12.48403 -34.4676,6.02312 0.7272,1.15926 2.5301,0.75733 3.8055,1.07192 11.3276,-1.35717 18.8219,-2.75619 29.806,-0.93589 1.7624,-0.35554 0.5469,-0.5312 2.4223,-0.55354"
           id="path2542"
           sodipodi:nodetypes="ccccc"
           inkscape:transform-center-x="-31.398763"
           inkscape:transform-center-y="-5.4240791" /><path
           style="display:inline;fill:#fff3cf;fill-opacity:1;stroke:none;stroke-width:0.303459"
           d="m -5879.5735,402.9442 c 3.8682,-0.19099 9.7732,-0.55612 13.2687,-0.41651 6.1086,0.24403 11.4094,3.45145 17.1738,6.40458 0.9901,0.50743 1.8677,1.293 2.7655,2.00612 10.3793,16.8441 -15.0608,6.54927 -23.1771,2.1057 -2.6209,-1.42652 -7.5528,-4.51596 -10.3204,-5.60082"
           id="path2544"
           sodipodi:nodetypes="cssccc"
           inkscape:transform-center-x="29.703388"
           inkscape:transform-center-y="8.9110009" /><path
           style="display:inline;fill:#fff3cf;fill-opacity:1;stroke:none;stroke-width:0.287423"
           d="m -5888.7339,412.43669 c 3.3989,6.66892 9.0599,9.57649 11.1104,16.85626 2.6739,9.49254 3.3679,14.97433 -1.9917,17.92495 -0.2527,0.13922 -1.0904,0.688 -1.4708,0.6791 -1.3828,-0.0322 -3.7335,-4.68108 -4.0751,-5.29327 -3.2592,-6.99199 -5.8477,-17.49744 -6.8972,-24.31027 -1.792,-3.82373 3.506,-2.94826 0.9706,-5.85582"
           id="path2546"
           sodipodi:nodetypes="csssccc"
           inkscape:transform-center-x="8.1362237"
           inkscape:transform-center-y="25.312417" /><path
           style="display:inline;fill:#fff3cf;fill-opacity:1;stroke:none;stroke-width:0.339156"
           d="m -5882.4884,408.22821 c 6.641,4.43545 14.5133,7.52235 19.9221,13.30637 8.2838,16.67057 -0.9458,17.46475 -10.041,6.43793 -1.4999,-2.68957 -3.1628,-5.7369 -4.8978,-8.22641 -1.9743,-2.83251 -6.2831,-7.2312 -9.4286,-8.94047"
           id="path2548"
           sodipodi:nodetypes="cccsc"
           inkscape:transform-center-x="20.146513"
           inkscape:transform-center-y="19.500889" /><path
           style="display:inline;fill:#fff3cf;fill-opacity:1;stroke:none;stroke-width:0.290663"
           d="m -5903.9591,410.31771 c -10.629,-1.9245 -30.3956,34.5449 -15.6394,29.84151 5.2758,-2.17564 8.3663,-3.96828 11.2443,-9.0119 1.3104,-2.29565 2.307,-4.76571 3.5993,-7.08239 1.663,-2.9814 2.7145,-7.31846 4.6841,-10.12655"
           id="path2550"
           sodipodi:nodetypes="ccssc"
           inkscape:transform-center-x="-19.629903"
           inkscape:transform-center-y="21.198219" /><path
           style="display:inline;fill:#fff3cf;fill-opacity:1;stroke:none;stroke-width:0.335655"
           d="m -5907.9654,403.53342 c -7.837,-0.11959 -40.6255,13.75168 -28.3455,21.22773 1.8232,0.74991 5.1643,-0.99346 6.8598,-1.57211 6.4808,-2.21223 8.0248,-2.74517 13.6753,-6.63808 2.8334,-1.95236 4.6197,-4.77985 7.4668,-6.71432"
           id="path2552"
           sodipodi:nodetypes="cccsc"
           inkscape:transform-center-x="-27.035985"
           inkscape:transform-center-y="11.364753" /><path
           style="display:inline;fill:#fff3cf;fill-opacity:1;stroke:none;stroke-width:0.299256"
           d="m -5896.9425,414.44411 c -4.4427,11.699 -19.3436,30.30225 -7.6717,32.14974 0.9259,0.11419 4.2711,-1.07336 4.879,-1.55979 4.485,-3.5901 3.428,-6.33392 4.8491,-11.21837 0.8279,-2.84575 1.6617,-5.66889 1.7503,-8.61235 0.106,-3.53858 -1.065,-7.28308 -0.6282,-10.82118"
           id="path2554"
           sodipodi:nodetypes="cccssc"
           inkscape:transform-center-x="-6.8447624"
           inkscape:transform-center-y="25.183279" /><path
           style="display:inline;fill:#e6c78a;fill-opacity:1;stroke:none;stroke-width:0.181788;stroke-opacity:1"
           id="path2556"
           d="m -5888.3409,389.77383 c 1.1167,-3.71007 3.3535,-14.7805 4.3712,-14.57623 1.929,1.70499 -3.0417,12.35455 -2.5707,14.35509 -1.4972,0.93974 -2.3364,3.07779 -1.8005,0.22125 z"
           sodipodi:nodetypes="cccc"
           inkscape:transform-center-x="6.4683554"
           inkscape:transform-center-y="-20.392574" /><path
           style="display:inline;fill:#e6c78a;fill-opacity:1;stroke:none;stroke-width:0.199392;stroke-opacity:1"
           id="path2558"
           d="m -5886.507,389.8576 c 0.7455,-4.96097 6.2928,-17.29688 7.9944,-16.46246 0.725,1.04602 -1.6953,3.769 -3.0268,7.0064 -1.5956,3.87928 -3.1958,8.11587 -3.1439,9.44817 -1.6572,0.90478 -2.8845,3.32697 -1.8237,0.007 z"
           sodipodi:nodetypes="ccsccc"
           inkscape:transform-center-x="9.8399872"
           inkscape:transform-center-y="-21.139976" /><path
           style="display:inline;fill:#e6c78a;fill-opacity:1;stroke:none;stroke-width:0.253881;stroke-opacity:1"
           id="path2560"
           d="m -5886.0773,394.49806 c 1.5169,-1.40598 3.9145,-4.62889 6.5637,-7.08815 3.0628,-2.84302 6.3438,-4.81691 7.0875,-4.22613 -0.1094,1.3709 -3.3898,3.4943 -6.2773,6.02059 -3.3353,2.91792 -6.2522,6.26764 -4.8593,7.90139 -2.5923,-0.28459 -4.5631,0.007 -2.5146,-2.6077 z"
           sodipodi:nodetypes="cscscc"
           inkscape:transform-center-x="13.480515"
           inkscape:transform-center-y="-13.661808" /><path
           style="display:inline;fill:#e6c78a;fill-opacity:1;stroke:none;stroke-width:0.253881;stroke-opacity:1"
           id="path2562"
           d="m -5882.3914,393.15451 c 1.7651,-1.07848 4.7521,-3.76422 7.8349,-5.65153 3.5643,-2.18191 8.5469,-4.63227 9.1589,-3.90619 -0.3786,1.32213 -5.3895,3.91929 -8.7191,5.8253 -3.8462,2.20148 -7.3675,4.90886 -6.3248,6.78553 -2.485,-0.79112 -4.4744,-0.89455 -1.9499,-3.05311 z"
           sodipodi:nodetypes="cscscc"
           inkscape:transform-center-x="18.678695"
           inkscape:transform-center-y="-13.917049" /><path
           style="display:inline;fill:#e6c78a;fill-opacity:1;stroke:none;stroke-width:0.253881;stroke-opacity:1"
           id="path2564"
           d="m -5878.9685,397.32556 c 3.6865,-0.54389 18.737,-2.84405 19.5446,-0.61265 -4.9215,1.98889 -18.8572,-1.57475 -19.3538,4.23022 -1.772,-1.91352 -3.4513,-2.98434 -0.1904,-3.61753 z"
           sodipodi:nodetypes="ccccc"
           inkscape:transform-center-x="22.232503"
           inkscape:transform-center-y="-4.5942655" /><path
           style="display:inline;fill:#e6c78a;fill-opacity:1;stroke:none;stroke-width:0.26628;stroke-opacity:1"
           id="path2566"
           d="m -5890.1449,389.31469 c -0.8102,-2.02511 -0.4695,-6.0692 -1.8821,-9.60941 -1.6333,-4.09269 -4.8434,-9.75532 -5.8055,-9.52293 -0.5012,1.36125 2.4536,6.54791 4.0614,10.25897 1.8574,4.28643 2.1385,9.30297 0.1061,10.24279 2.5695,0.88871 4.2989,2.05038 3.5216,-1.36942 z"
           sodipodi:nodetypes="cscsccc"
           inkscape:transform-center-x="-1.2127507"
           inkscape:transform-center-y="-22.130401" /><path
           style="display:inline;fill:#e6c78a;fill-opacity:1;stroke:none;stroke-width:0.253881;stroke-opacity:1"
           id="path2568"
           d="m -5902.7545,394.66136 c -1.7196,-1.14957 -3.5967,-4.50101 -6.5998,-6.51243 -3.4724,-2.32536 -9.0318,-5.03043 -9.6732,-4.32989 0.3243,1.33645 5.4282,3.80632 8.6774,5.84649 3.7531,2.3564 6.6409,6.13427 5.5227,7.96692 2.5152,-0.68916 4.5071,-0.71141 2.0729,-2.97109 z"
           sodipodi:nodetypes="cscsccc"
           inkscape:transform-center-x="-17.525971"
           inkscape:transform-center-y="-12.303569" /><path
           style="display:inline;fill:#e6c78a;fill-opacity:1;stroke:none;stroke-width:0.261109;stroke-opacity:1"
           id="path2570"
           d="m -5898.4547,390.80923 c -1.3021,-1.69196 -2.0736,-5.62278 -4.3469,-8.5815 -2.6287,-3.42047 -7.1526,-7.88519 -7.9881,-7.39373 -0.1026,1.4321 4.0558,5.51743 6.5575,8.5832 2.8893,3.54107 4.5039,8.21869 2.8575,9.68317 2.6396,0.11819 4.5675,0.73253 2.92,-2.29114 z"
           sodipodi:nodetypes="cscsccc"
           inkscape:transform-center-x="-11.810763"
           inkscape:transform-center-y="-18.959408" /><path
           style="display:inline;fill:#e6c78a;fill-opacity:1;stroke:none;stroke-width:0.186963;stroke-opacity:1"
           id="path2572"
           d="m -5896.2636,391.37645 c -1.8308,-3.57837 -8.0835,-13.45365 -7.2038,-14.04696 2.6048,-0.14444 6.5848,11.42002 8.3463,12.56369 -0.4131,1.79591 0.5009,4.00119 -1.1425,1.48324 z"
           sodipodi:nodetypes="cccc"
           inkscape:transform-center-x="-6.8292264"
           inkscape:transform-center-y="-18.053652" /><path
           style="display:inline;fill:#e6c78a;fill-opacity:1;stroke:none;stroke-width:0.232215;stroke-opacity:1"
           id="path2574"
           d="m -5906.3461,399.09933 c -1.8355,-0.14009 -4.7629,-2.00727 -7.9704,-2.25508 -3.7074,-0.28646 -9.1956,0.0874 -9.3818,0.95821 0.8397,0.94171 5.8719,0.58761 9.2814,0.74456 3.9385,0.18131 7.8353,1.92693 7.7793,3.945 1.6389,-1.73291 3.1683,-2.6773 0.2903,-3.39269 z"
           sodipodi:nodetypes="cscsccc"
           inkscape:transform-center-x="-21.44039"
           inkscape:transform-center-y="-3.9130149" /><path
           style="display:inline;fill:#e6c78a;fill-opacity:1;stroke:none;stroke-width:0.219586;stroke-opacity:1"
           id="path2576"
           d="m -5906.8389,400.9305 c -5.6784,-1.66437 -22.0007,-2.53454 -22.1349,-0.63824 0.6713,1.13165 4.9873,0.26558 9.1968,0.60393 5.0441,0.40537 10.4679,0.97437 11.8429,1.64436 1.9422,-1.04234 5.2294,-0.99362 1.0952,-1.61005 z"
           sodipodi:nodetypes="ccsccc"
           inkscape:transform-center-x="-24.135999"
           inkscape:transform-center-y="-2.6542137" /><path
           style="display:inline;fill:#e6c78a;fill-opacity:1;stroke:none;stroke-width:0.266381;stroke-opacity:1"
           id="path2578"
           d="m -5877.6012,403.9074 c 2.1148,0.33845 6.2059,0.20251 9.9016,0.79089 4.2729,0.68014 8.0485,2.12693 8.1277,3.15048 -1.1025,0.8257 -4.9892,-0.51995 -8.9023,-1.26445 -4.5199,-0.85994 -9.0693,-1.07739 -9.3152,1.19273 -1.6041,-2.37865 -3.2029,-3.84641 0.1871,-3.86965 z"
           sodipodi:nodetypes="cscscc"
           inkscape:transform-center-x="23.136882"
           inkscape:transform-center-y="2.8588555" /><path
           style="display:inline;fill:#e6c78a;fill-opacity:1;stroke:none;stroke-width:0.243877;stroke-opacity:1"
           id="path2580"
           d="m -5875.0308,406.19568 c 1.8351,0.82493 5.6953,1.79646 8.9042,3.23562 3.7094,1.66377 6.6563,3.80189 6.3286,4.63097 -1.3496,0.36124 -4.4394,-1.72626 -7.7886,-3.34603 -3.8694,-1.87092 -8.0175,-3.24232 -9.1365,-1.5147 -0.5599,-2.30115 -1.4726,-3.88175 1.6923,-3.00586 z"
           sodipodi:nodetypes="cscscc"
           inkscape:transform-center-x="24.193641"
           inkscape:transform-center-y="6.8781825" /><path
           style="display:inline;fill:#e6c78a;fill-opacity:1;stroke:none;stroke-width:0.233692;stroke-opacity:1"
           id="path2582"
           d="m -5889.3169,410.92592 c 0.6598,1.78115 2.2949,4.36722 3.4506,7.47903 1.3357,3.59747 3.5392,8.97852 2.7597,9.36759 -1.1411,-0.60888 -2.3841,-5.322 -3.5109,-8.65539 -1.3012,-3.85018 -3.9465,-7.63538 -5.8611,-7.1061 1.1881,-2.02741 6.1862,-1.10875 7.6948,1.56678 z"
           sodipodi:nodetypes="cscsccc"
           inkscape:transform-center-x="5.040654"
           inkscape:transform-center-y="16.0622" /><path
           style="display:inline;fill:#e6c78a;fill-opacity:1;stroke:none;stroke-width:0.233692;stroke-opacity:1"
           id="path2584"
           d="m -5888.5834,414.544 c 0.2652,1.86387 1.0551,4.932 1.5221,8.18894 0.5399,3.76522 1.8131,9.2139 0.9617,9.43421 -0.9926,-0.82246 -2.2533,-5.80625 -2.6445,-9.27266 -0.4513,-4.00378 -1.1872,-8.06277 -3.186,-7.9358 1.607,-1.72936 2.4381,-3.31911 3.3467,-0.41469 z"
           sodipodi:nodetypes="cscsccc"
           inkscape:transform-center-x="3.8797621"
           inkscape:transform-center-y="19.272949" /><path
           style="display:inline;fill:#e6c78a;fill-opacity:1;stroke:none;stroke-width:0.273852;stroke-opacity:1"
           d="m -5879.8391,412.29257 -0.6471,1.53228 c 5.2042,3.77332 9.8639,7.84509 11.4627,8.38156 -0.3931,-2.68242 -5.7122,-6.18816 -10.8156,-9.91384 z"
           id="path2586"
           sodipodi:nodetypes="cccc"
           inkscape:transform-center-x="17.795291"
           inkscape:transform-center-y="13.619913" /><path
           style="display:inline;fill:#e6c78a;fill-opacity:1;stroke:none;stroke-width:0.235758;stroke-opacity:1"
           id="path2588"
           d="m -5901.2113,408.70137 c -1.4466,1.42405 -4.7389,2.51571 -7.2685,5.00216 -2.9245,2.87445 -6.7752,7.7018 -6.392,8.48203 1.1877,-0.022 4.7118,-4.45618 7.3373,-7.17613 3.0327,-3.14167 6.9717,-5.12549 8.1395,-3.63038 0.1779,-2.6059 0.7482,-4.5541 -1.8163,-2.67772 z"
           sodipodi:nodetypes="cscsccc"
           inkscape:transform-center-x="-14.402504"
           inkscape:transform-center-y="11.654966" /><path
           style="display:inline;fill:#e6c78a;fill-opacity:1;stroke:none;stroke-width:0.200926;stroke-opacity:1"
           id="path2590"
           d="m -5903.8081,411.86533 c -0.7917,1.57489 -3.1187,3.35211 -4.504,6.10292 -1.601,3.18013 -3.4545,8.24391 -2.9614,8.7999 0.9305,-0.32825 2.6222,-4.9765 4.0258,-7.94872 1.6212,-3.43302 4.2397,-6.12915 5.5256,-5.17687 -0.4968,-2.23765 -0.5246,-4.0243 -2.0863,-1.77723 z"
           sodipodi:nodetypes="cscsccc"
           inkscape:transform-center-x="-13.884232"
           inkscape:transform-center-y="15.383517" /><path
           style="display:inline;fill:#e6c78a;fill-opacity:1;stroke:none;stroke-width:0.253881;stroke-opacity:1"
           id="path2592"
           d="m -5901.3294,405.38688 c -1.9757,0.61369 -5.7613,-0.0353 -9.2142,1.03436 -3.9918,1.23653 -9.592,3.85698 -9.4507,4.79615 1.243,0.58846 6.3735,-1.82565 10.0034,-3.0683 4.1925,-1.43537 8.9458,-1.30397 9.6675,0.71789 1.046,-2.38868 2.2819,-3.95113 -1.006,-3.48006 z"
           sodipodi:nodetypes="cscsccc"
           inkscape:transform-center-x="-16.940755"
           inkscape:transform-center-y="5.4310142" /><path
           style="display:inline;fill:#e6c78a;fill-opacity:1;stroke:none;stroke-width:0.245085;stroke-opacity:1"
           d="m -5896.0197,415.93303 1.1115,0.84076 c -2.2635,6.15265 -3.7642,12.92299 -4.221,13.84253 -2.1706,-2.39316 1.0435,-8.41884 3.1095,-14.68368 z"
           id="path2594"
           sodipodi:nodetypes="ccccc"
           inkscape:transform-center-x="-4.3791847"
           inkscape:transform-center-y="19.604234" /><path
           style="display:inline;fill:#e6c78a;fill-opacity:1;stroke:none;stroke-width:0.245085;stroke-opacity:1"
           d="m -5898.1576,416.6795 0.993,0.96862 c -2.4745,5.98794 -4.8873,13.19887 -5.8606,14.50517 -1.1371,-2.69882 2.4341,-9.58665 4.8676,-15.47414 z"
           id="path2596"
           sodipodi:nodetypes="ccccc"
           inkscape:transform-center-x="-7.202726"
           inkscape:transform-center-y="20.745974" /><g
           id="g2602"
           transform="matrix(-0.95955509,0,0,0.95955509,-6007.4705,329.86327)"><path
             style="fill:#f5cd44;fill-opacity:1;stroke-width:0.78494"
             d="m -137.20659,80.036649 c -0.73948,-2.554381 -1.45441,-5.613171 -1.18429,-8.287291 1.70448,-4.389268 3.76573,-7.853649 6.9236,-9.907004 1.73739,-1.129712 3.26687,-2.191221 5.48999,-2.626852 1.71289,-0.33565 4.05996,-0.151482 5.8583,-0.255924 1.42295,-0.008 2.88415,-0.126482 4.1932,0.08745 1.13402,0.185323 2.61221,1.108728 3.51035,1.526074 1.4734,0.684656 2.23418,1.01013 3.63513,1.904704 1.32287,0.844714 2.93151,1.494924 3.98026,2.559901 1.23696,1.256112 1.74509,2.933738 2.49553,4.431101 2.712324,5.411924 2.538133,11.770115 -3.04709,17.049667 -3.91908,5.501885 -14.62474,8.551308 -19.96569,6.604649 -6.74968,-2.287595 -11.00586,-7.552907 -11.88929,-13.08647 z"
             id="path2598"
             sodipodi:nodetypes="ccsscssssscccc" /><path
             style="fill:#f1a60e;fill-opacity:1;stroke-width:0.78494"
             d="m -137.13016,80.036649 c -0.73948,-2.554381 -1.45441,-5.613171 -1.18429,-8.287291 0.69161,1.056692 1.25077,2.288471 2.17923,3.053593 0.85539,0.704912 2.07941,0.95166 2.76404,1.701328 0.72852,0.797729 0.71804,1.694569 1.10033,2.747329 0.46073,1.268743 1.96823,1.720401 2.9217,2.372922 1.26281,0.864227 2.19024,2.014979 3.60435,1.895586 1.37544,-0.116128 2.44095,-0.194443 4.06636,-0.107018 0.90798,0.04884 2.0719,0.377758 3.16432,0.821985 1.172,0.476589 2.45578,0.260893 3.67439,0.507213 1.17999,0.238516 1.79433,0.741975 2.85976,0.706429 0.61844,-0.02063 1.86332,-0.727874 2.80028,-1.345307 0.66723,-0.439694 1.49632,-0.507234 2.161,-1.003087 0.80489,-0.600449 1.55787,-1.166902 2.13774,-1.517304 1.81563,-1.097137 1.82396,-0.243799 3.89293,-1.130435 -6.01705,12.434317 -18.9119,14.617186 -24.25285,12.670527 -6.74968,-2.287595 -11.00586,-7.552907 -11.88929,-13.08647 z"
             id="path2600"
             sodipodi:nodetypes="ccssssssssssssccc" /></g></g></g></g></svg>
