<?xml version="1.0" encoding="UTF-8" standalone="no"?>
<!-- Created with Inkscape (http://www.inkscape.org/) -->

<svg
   width="104.94012mm"
   height="188.04712mm"
   viewBox="0 0 104.94012 188.04712"
   version="1.1"
   id="svg5"
   xml:space="preserve"
   inkscape:version="1.2 (dc2aedaf03, 2022-05-15)"
   sodipodi:docname="drawing.svg"
   xmlns:inkscape="http://www.inkscape.org/namespaces/inkscape"
   xmlns:sodipodi="http://sodipodi.sourceforge.net/DTD/sodipodi-0.dtd"
   xmlns="http://www.w3.org/2000/svg"
   xmlns:svg="http://www.w3.org/2000/svg"><sodipodi:namedview
     id="namedview7"
     pagecolor="#505050"
     bordercolor="#eeeeee"
     borderopacity="1"
     inkscape:showpageshadow="0"
     inkscape:pageopacity="0"
     inkscape:pagecheckerboard="0"
     inkscape:deskcolor="#505050"
     inkscape:document-units="mm"
     showgrid="false"
     inkscape:zoom="0.36257718"
     inkscape:cx="-20741.791"
     inkscape:cy="2342.9494"
     inkscape:window-width="3200"
     inkscape:window-height="1271"
     inkscape:window-x="2391"
     inkscape:window-y="-9"
     inkscape:window-maximized="1"
     inkscape:current-layer="layer3"
     showguides="true" /><defs
     id="defs2" /><g
     inkscape:groupmode="layer"
     id="layer3"
     inkscape:label="Daisy1"
     style="display:inline"
     transform="translate(5953.3031,-150.63355)"><g
       inkscape:groupmode="layer"
       id="layer4"
       inkscape:label="Miolo"
       style="display:inline"><g
         id="g2148"
         transform="matrix(-1,0,0,1,-11665.263,-2.9189188)"><path
           d="m -5765.4414,341.31702 c -10.3144,1.48103 -3.7383,-2.64963 0.3667,-17.39883 4.9702,-17.85116 9.5297,-29.15853 10.6293,-41.74541 0.063,-0.72966 0.1502,-1.49518 0.2572,-2.29061 -0.318,-1.20616 -0.7037,-2.6613 -1.162,-4.12732 -2.3927,-1.9791 -4.343,-2.91033 -4.6727,-2.97615 -6.8653,-1.36024 -10.9668,-2.10742 -13.4525,-11.10251 8.3207,-2.24733 9.6336,5.71409 14.1304,8.67608 0.9928,0.65556 1.9133,1.30857 2.767,1.95331 -0.059,-0.13139 -0.1136,-0.26413 -0.173,-0.39236 -2.0892,-4.6987 -4.812,-7.41497 -5.2121,-7.64568 -6.0512,-3.50429 -9.6946,-5.53836 -9.1376,-14.85251 8.5987,0.56141 7.2687,8.52198 10.5672,12.77425 4.2038,5.42505 6.1104,9.99136 6.986,13.54309 4.2265,-25.10372 2.5255,-28.68129 -4.6588,-50.9996 -4.8345,-15.02074 -5.4974,-18.33093 -4.2073,-15.88949 2.4155,4.57043 11.5347,24.85462 13.228,35.02674 0.715,4.29139 1.5619,9.38995 1.4628,15.19234 1.2353,-2.96116 3.2405,-6.42546 6.5238,-10.30704 3.4783,-4.10897 2.489,-12.11704 11.1024,-12.31197 0.1573,9.32828 -3.5658,11.20495 -9.7638,14.44935 -0.4109,0.21236 -3.2476,2.81123 -5.5352,7.41496 -0.4981,1.00042 -0.957,2.12906 -1.3782,3.26605 1.1951,-0.6347 2.5003,-1.26112 3.9296,-1.86583 4.9555,-2.10072 7.6858,-9.69897 15.4643,-5.98562 -4.0684,8.39706 -8.2369,8.3937 -15.2335,8.49282 -0.3376,0.007 -2.3973,0.56062 -5.0833,2.05575 -0.1066,0.32321 -0.2071,0.63803 -0.3044,0.94627 -1.8432,26.03161 -12.0077,60.69851 -17.4396,76.09992 v 0"
           style="display:inline;fill:#d2d904;fill-opacity:1;fill-rule:evenodd;stroke:none;stroke-width:0.00832963"
           id="path2114"
           inkscape:export-filename="minhaFlor1.svg"
           inkscape:export-xdpi="96"
           inkscape:export-ydpi="96" /><path
           style="display:inline;fill:#fff3cf;fill-opacity:1;stroke:none;stroke-width:0.289023"
           d="m -5770.4266,190.81061 c -3.2803,-5.29605 -8.4711,-14.3702 -12.8453,-21.21521 -3.2674,-5.11391 -6.3529,-8.7747 -3.3107,-10.38433 11.8326,-4.88041 16.2836,8.5284 18.0892,19.73104 0.7784,3.62283 -0.2133,8.35948 0.8523,11.92387"
           id="path2116"
           sodipodi:nodetypes="csccc"
           inkscape:transform-center-x="13.631384"
           inkscape:transform-center-y="-28.561027" /><path
           style="display:inline;fill:#fff3cf;fill-opacity:1;stroke:none;stroke-width:0.340739"
           d="m -5772.9371,195.49274 c -8.7042,-5.04855 -19.9993,-8.18036 -27.6707,-14.75614 -2.3105,-1.37206 -8.5292,-5.25553 -6.9698,-7.08105 5.9759,-10.34417 21.1358,1.69004 27.3621,7.84441 2.5084,2.40808 5.7443,7.71975 8.269,10.11171"
           id="path2118"
           sodipodi:nodetypes="ccccc"
           inkscape:transform-center-x="24.276805"
           inkscape:transform-center-y="-21.942911" /><path
           style="display:inline;fill:#fff3cf;fill-opacity:1;stroke:none;stroke-width:0.332392"
           d="m -5774.8855,198.9392 c -1.8068,-0.18509 -7.8917,-0.35454 -15.0482,0.30741 -5.6591,0.52356 -12.0372,1.95617 -17.1614,1.59703 -3.5781,-0.25064 -7.9065,-0.6092 -9.8049,-1.80682 2.0344,-16.36619 27.6732,-8.02337 36.4947,-5.07438"
           id="path2120"
           sodipodi:nodetypes="csscc"
           inkscape:transform-center-x="32.066267"
           inkscape:transform-center-y="-5.7123309" /><path
           style="display:inline;fill:#fff3cf;fill-opacity:1;stroke:none;stroke-width:0.349258"
           d="m -5765.4304,193.98847 c -0.3357,-8.43614 -4.1446,-18.36514 -2.6592,-26.59365 0.957,-2.9308 1.868,-10.67858 4.6113,-13.35396 11.4326,-3.26172 10.7146,10.59504 7.3377,18.38555 -3.1448,7.05067 -7.0573,14.85856 -6.2253,22.45699"
           id="path2122"
           sodipodi:nodetypes="ccccc"
           inkscape:transform-center-x="-2.4666344"
           inkscape:transform-center-y="-27.652268" /><path
           style="display:inline;fill:#fff3cf;fill-opacity:1;stroke:none;stroke-width:0.305052"
           d="m -5754.4426,193.7321 c 2.7542,-2.75178 6.1962,-8.37181 8.8955,-10.62582 4.7177,-3.93882 10.1646,-8.02558 16.4528,-9.71275 5.1806,-2.42362 13.2931,3.80258 11.1282,9.59119 -9.4538,4.94646 -19.147,5.48695 -23.2523,8.34045 -2.4631,1.71209 -6.6209,3.07152 -9.4157,4.12994"
           id="path2124"
           sodipodi:nodetypes="csccsc"
           inkscape:transform-center-x="-27.557035"
           inkscape:transform-center-y="-16.227858" /><path
           style="display:inline;fill:#fff3cf;fill-opacity:1;stroke:none;stroke-width:0.301965"
           d="m -5761.9198,195.20007 c 2.9164,-7.52403 3.6501,-16.65663 7.9227,-23.48996 6.7782,-11.51909 9.7269,-13.8912 19.4657,-9.32034 4.4617,5.51195 -18.461,21.08386 -22.9908,30.54385"
           id="path2126"
           sodipodi:nodetypes="cccc"
           inkscape:transform-center-x="-15.059432"
           inkscape:transform-center-y="-25.185637" /><path
           style="display:inline;fill:#fff3cf;fill-opacity:1;stroke:none;stroke-width:0.332392"
           d="m -5748.4523,196.25097 c 10.1732,-2.25469 44.8027,-12.54957 34.6486,6.05474 -0.7311,1.16535 -2.5434,0.76131 -3.8255,1.07755 -11.387,-1.36429 -18.9208,-2.77066 -29.9625,-0.9408 -1.7716,-0.35741 -0.5497,-0.53399 -2.435,-0.55644"
           id="path2128"
           sodipodi:nodetypes="ccccc"
           inkscape:transform-center-x="-31.563592"
           inkscape:transform-center-y="-5.4525579" /><path
           style="display:inline;fill:#fff3cf;fill-opacity:1;stroke:none;stroke-width:0.305052"
           d="m -5776.3906,201.757 c -3.8885,-0.19199 -9.8244,-0.55904 -13.3383,-0.4187 -6.1407,0.24532 -11.4694,3.46957 -17.264,6.4382 -0.9953,0.5101 -1.8775,1.2998 -2.7799,2.01665 -10.4339,16.93253 15.1398,6.58365 23.2987,2.11676 2.6347,-1.43401 7.5924,-4.53967 10.3746,-5.63022"
           id="path2130"
           sodipodi:nodetypes="cssccc"
           inkscape:transform-center-x="29.859276"
           inkscape:transform-center-y="8.9577782" /><path
           style="display:inline;fill:#fff3cf;fill-opacity:1;stroke:none;stroke-width:0.288932"
           d="m -5767.1821,211.29933 c -3.4168,6.70392 -9.1075,9.62675 -11.1687,16.94474 -2.6879,9.54236 -3.3856,15.05293 2.0022,18.01904 0.254,0.13996 1.096,0.69161 1.4785,0.68266 1.39,-0.0323 3.753,-4.70565 4.0965,-5.32106 3.2763,-7.02869 5.8784,-17.58928 6.9334,-24.43788 1.8014,-3.8438 -3.5244,-2.96373 -0.9757,-5.88656"
           id="path2132"
           sodipodi:nodetypes="csssccc"
           inkscape:transform-center-x="8.178922"
           inkscape:transform-center-y="25.445296" /><path
           style="display:inline;fill:#fff3cf;fill-opacity:1;stroke:none;stroke-width:0.340936"
           d="m -5773.4604,207.06874 c -6.6758,4.45874 -14.5894,7.56184 -20.0266,13.37623 -8.3273,16.75808 0.9507,17.55643 10.0937,6.47173 1.5077,-2.70369 3.1793,-5.76702 4.9235,-8.2696 1.9847,-2.84738 6.316,-7.26916 9.4781,-8.9874"
           id="path2134"
           sodipodi:nodetypes="cccsc"
           inkscape:transform-center-x="20.252251"
           inkscape:transform-center-y="19.603256" /><path
           style="display:inline;fill:#fff3cf;fill-opacity:1;stroke:none;stroke-width:0.292189"
           d="m -5751.8769,209.16922 c 10.6847,-1.93461 30.5552,34.72624 15.7215,29.99815 -5.3036,-2.18705 -8.4102,-3.9891 -11.3034,-9.0592 -1.3172,-2.3077 -2.3191,-4.79072 -3.6182,-7.11957 -1.6717,-2.99705 -2.7288,-7.35688 -4.7086,-10.17971"
           id="path2136"
           sodipodi:nodetypes="ccssc"
           inkscape:transform-center-x="-19.733004"
           inkscape:transform-center-y="21.309498" /><path
           style="display:inline;fill:#fff3cf;fill-opacity:1;stroke:none;stroke-width:0.337417"
           d="m -5747.8496,202.34931 c 7.8781,-0.12021 40.8388,13.82387 28.4942,21.33917 -1.8327,0.75384 -5.1913,-0.99868 -6.8958,-1.58037 -6.5147,-2.22384 -8.0668,-2.75958 -13.747,-6.67292 -2.8483,-1.96262 -4.644,-4.80495 -7.506,-6.74957"
           id="path2138"
           sodipodi:nodetypes="cccsc"
           inkscape:transform-center-x="-27.177901"
           inkscape:transform-center-y="11.424412" /><path
           style="display:inline;fill:#fff3cf;fill-opacity:1;stroke:none;stroke-width:0.300827"
           d="m -5758.9304,213.31727 c 4.4661,11.76041 19.4452,30.46133 7.712,32.31851 -0.9308,0.1148 -4.2936,-1.07899 -4.9046,-1.56797 -4.5085,-3.60895 -3.446,-6.36717 -4.8746,-11.27727 -0.8322,-2.86068 -1.6704,-5.69864 -1.7595,-8.65756 -0.1066,-3.55714 1.0706,-7.3213 0.6315,-10.87798"
           id="path2140"
           sodipodi:nodetypes="cccssc"
           inkscape:transform-center-x="-6.8806871"
           inkscape:transform-center-y="25.315475" /><g
           id="g2146"
           transform="matrix(0.96459224,0,0,0.96459224,-5647.8228,128.29243)"><path
             style="fill:#f5cd44;fill-opacity:1;stroke-width:0.78494"
             d="m -137.20659,80.036649 c -0.73948,-2.554381 -1.45441,-5.613171 -1.18429,-8.287291 1.70448,-4.389268 3.76573,-7.853649 6.9236,-9.907004 1.73739,-1.129712 3.26687,-2.191221 5.48999,-2.626852 1.71289,-0.33565 4.05996,-0.151482 5.8583,-0.255924 1.42295,-0.008 2.88415,-0.126482 4.1932,0.08745 1.13402,0.185323 2.61221,1.108728 3.51035,1.526074 1.4734,0.684656 2.23418,1.01013 3.63513,1.904704 1.32287,0.844714 2.93151,1.494924 3.98026,2.559901 1.23696,1.256112 1.74509,2.933738 2.49553,4.431101 2.712324,5.411924 2.538133,11.770115 -3.04709,17.049667 -3.91908,5.501885 -14.62474,8.551308 -19.96569,6.604649 -6.74968,-2.287595 -11.00586,-7.552907 -11.88929,-13.08647 z"
             id="path2142"
             sodipodi:nodetypes="ccsscssssscccc" /><path
             style="fill:#f1a60e;fill-opacity:1;stroke-width:0.78494"
             d="m -137.13016,80.036649 c -0.73948,-2.554381 -1.45441,-5.613171 -1.18429,-8.287291 0.69161,1.056692 1.25077,2.288471 2.17923,3.053593 0.85539,0.704912 2.07941,0.95166 2.76404,1.701328 0.72852,0.797729 0.71804,1.694569 1.10033,2.747329 0.46073,1.268743 1.96823,1.720401 2.9217,2.372922 1.26281,0.864227 2.19024,2.014979 3.60435,1.895586 1.37544,-0.116128 2.44095,-0.194443 4.06636,-0.107018 0.90798,0.04884 2.0719,0.377758 3.16432,0.821985 1.172,0.476589 2.45578,0.260893 3.67439,0.507213 1.17999,0.238516 1.79433,0.741975 2.85976,0.706429 0.61844,-0.02063 1.86332,-0.727874 2.80028,-1.345307 0.66723,-0.439694 1.49632,-0.507234 2.161,-1.003087 0.80489,-0.600449 1.55787,-1.166902 2.13774,-1.517304 1.81563,-1.097137 1.82396,-0.243799 3.89293,-1.130435 -6.01705,12.434317 -18.9119,14.617186 -24.25285,12.670527 -6.74968,-2.287595 -11.00586,-7.552907 -11.88929,-13.08647 z"
             id="path2144"
             sodipodi:nodetypes="ccssssssssssssccc" /></g></g></g></g></svg>
