<?xml version="1.0" encoding="UTF-8" standalone="no"?>
<!-- Created with Inkscape (http://www.inkscape.org/) -->

<svg
   width="105.73171mm"
   height="177.11044mm"
   viewBox="0 0 105.73171 177.11044"
   version="1.1"
   id="svg5"
   xml:space="preserve"
   inkscape:version="1.2 (dc2aedaf03, 2022-05-15)"
   sodipodi:docname="drawing.svg"
   xmlns:inkscape="http://www.inkscape.org/namespaces/inkscape"
   xmlns:sodipodi="http://sodipodi.sourceforge.net/DTD/sodipodi-0.dtd"
   xmlns="http://www.w3.org/2000/svg"
   xmlns:svg="http://www.w3.org/2000/svg"><sodipodi:namedview
     id="namedview7"
     pagecolor="#505050"
     bordercolor="#eeeeee"
     borderopacity="1"
     inkscape:showpageshadow="0"
     inkscape:pageopacity="0"
     inkscape:pagecheckerboard="0"
     inkscape:deskcolor="#505050"
     inkscape:document-units="mm"
     showgrid="false"
     inkscape:zoom="0.36257718"
     inkscape:cx="-20741.791"
     inkscape:cy="2342.9494"
     inkscape:window-width="3200"
     inkscape:window-height="1271"
     inkscape:window-x="2391"
     inkscape:window-y="-9"
     inkscape:window-maximized="1"
     inkscape:current-layer="layer3"
     showguides="true" /><defs
     id="defs2" /><g
     inkscape:groupmode="layer"
     id="layer9"
     inkscape:label="Daisy2"
     transform="translate(5696.1113,-159.65123)"
     style="display:inline"><g
       inkscape:groupmode="layer"
       id="layer12"
       inkscape:label="petalas 2"
       style="display:inline"><g
         id="g8978"><g
           id="g6176"
           transform="matrix(2.6274185,0,0,2.6274185,-4991.8337,-229.87771)"
           style="display:inline;fill:#c5cb04;fill-opacity:1"
           inkscape:export-filename="minhaFlor2.svg"
           inkscape:export-xdpi="96"
           inkscape:export-ydpi="96"><path
             d="m -246.15926,161.40416 c -2.78474,3.81982 -4.00244,7.19326 -5.26542,11.14659 -2.23338,6.99125 -2.57743,14.11453 -2.29807,20.7088 0.13968,3.29581 1.11272,17.13098 4.01655,22.25407 0.24965,0.44109 1.68466,-0.19937 2.00048,-0.50343 -1.76229,-4.25091 -6.08172,-18.88975 -4.74258,-31.59279 0.41403,-3.93627 1.55939,-8.20895 2.65535,-11.41419 2.10546,-6.16053 3.90657,-9.07201 3.63369,-10.59905 v 0"
             style="fill:#c5cb04;fill-opacity:1;fill-rule:evenodd;stroke:none;stroke-width:0.00294059"
             id="path6156" /><path
             d="m -253.65541,184.14725 c 1.76876,-3.37844 -4.12153,-15.62364 -8.17689,-17.60206 -0.66899,-0.32611 2.72916,2.11957 4.66612,6.5775 2.56743,5.90706 2.95941,10.97428 3.51077,11.02456 v 0"
             style="fill:#c5cb04;fill-opacity:1;fill-rule:evenodd;stroke:none;stroke-width:0.00294059"
             id="path6158" /><path
             d="m -256.60188,173.56643 c -1.04803,-0.90188 -1.42589,-1.29268 -2.8262,-1.58263 -0.94305,-0.19525 -0.54195,-2.50891 -4.03831,-2.50391 -0.6237,10e-4 1.99519,2.35894 3.41726,2.63977 1.51028,0.29759 3.42667,2.12751 3.42667,2.11193 0.002,-0.12174 0.17584,-0.53195 0.0206,-0.66516 v 0"
             style="fill:#c5cb04;fill-opacity:1;fill-rule:evenodd;stroke:none;stroke-width:0.00294059"
             id="path6160" /><path
             d="m -254.65051,178.45633 c -1.04685,-0.90188 -1.42589,-1.29268 -2.8262,-1.58262 -0.94334,-0.19526 -0.54195,-2.50891 -4.0383,-2.50362 0.36875,2.11428 1.99636,2.35894 3.41843,2.63977 1.50881,0.29758 3.4252,2.12722 3.42667,2.11163 10e-4,-0.12174 0.17467,-0.53195 0.0194,-0.66516 v 0"
             style="fill:#c5cb04;fill-opacity:1;fill-rule:evenodd;stroke:none;stroke-width:0.00294059"
             id="path6162" /><path
             d="m -255.89261,175.67307 c -0.42991,-1.26034 -0.64987,-1.74318 -0.32876,-3.03322 0.21613,-0.86806 -2.22191,-1.53322 -0.7078,-4.43705 1.91109,1.21887 1.44795,2.6774 1.1089,3.98038 -0.35964,1.38325 0.60282,3.76689 0.5887,3.76042 -0.12027,-0.0506 -0.59664,-0.0841 -0.66104,-0.27053 v 0"
             style="fill:#c5cb04;fill-opacity:1;fill-rule:evenodd;stroke:none;stroke-width:0.00294059"
             id="path6164" /><path
             d="m -254.74637,178.53926 c -0.10468,-1.31739 -0.1979,-1.83375 0.43491,-3.02028 0.42698,-0.79955 -1.78052,-1.96167 0.41668,-4.46793 1.55646,1.59027 0.7428,2.91118 0.0879,4.1083 -0.69486,1.26945 -0.35081,3.79277 -0.36375,3.78365 -0.10469,-0.0753 -0.56018,-0.20702 -0.57577,-0.40374 v 0"
             style="fill:#c5cb04;fill-opacity:1;fill-rule:evenodd;stroke:none;stroke-width:0.00294059"
             id="path6166" /><path
             d="m -252.67326,197.61632 c -1.76905,-3.37991 4.12006,-15.62481 8.17543,-17.60324 0.66898,-0.32611 -2.72916,2.11958 -4.66613,6.57721 -2.56595,5.90706 -2.9594,10.97575 -3.5093,11.02603 v 0"
             style="fill:#c5cb04;fill-opacity:1;fill-rule:evenodd;stroke:none;stroke-width:0.00294059"
             id="path6168" /><path
             d="m -246.80502,181.96181 c 1.23828,0.0673 2.66565,-1.03774 3.10673,-2.40423 0.50608,-1.56586 -0.07,-3.42255 -0.0635,-3.41226 0.0144,0.0206 -0.002,0.29259 -0.45785,1.01715 -0.91894,1.45942 -0.82425,1.23299 -1.96049,2.41834 -0.81396,0.85013 -0.41286,1.41178 -0.62488,2.381 v 0"
             style="fill:#c5cb04;fill-opacity:1;fill-rule:evenodd;stroke:none;stroke-width:0.00294059"
             id="path6170" /><path
             d="m -249.91851,186.55295 c -0.10616,-1.31739 -0.19908,-1.83375 0.43491,-3.02146 0.4255,-0.79837 -1.78053,-1.96166 0.41668,-4.46822 1.55528,1.59174 0.74132,2.91265 0.0868,4.1083 -0.69516,1.27092 -0.35081,3.79394 -0.36375,3.78365 -0.10351,-0.0738 -0.55901,-0.20702 -0.57459,-0.40227 v 0"
             style="fill:#c5cb04;fill-opacity:1;fill-rule:evenodd;stroke:none;stroke-width:0.00294059"
             id="path6172" /><path
             d="m -251.33411,193.11075 c 1.25651,-0.63664 1.7767,-0.8463 2.51155,-1.98225 0.49579,-0.76485 2.75622,0.30788 3.84071,-2.75504 -2.29572,-0.3364 -3.05527,1.01186 -3.78748,2.17016 -0.77632,1.22799 -3.26082,2.33688 -3.24523,2.34188 0.12409,0.0403 0.49402,0.31965 0.68045,0.22525 v 0"
             style="fill:#c5cb04;fill-opacity:1;fill-rule:evenodd;stroke:none;stroke-width:0.00294059"
             id="path6174" /></g><path
           style="display:inline;fill:#fff3cf;fill-opacity:1;stroke-width:1.65363"
           d="m -5618.9227,199.11432 c 3.013,5.32674 8.1752,11.70511 11.9624,17.72518 4.4786,7.11882 7.4997,13.43536 9.4238,12.60494 0.7284,-0.13925 1.3492,-0.42277 1.8725,-0.82078 0.8517,-0.64812 0.6837,-2.31563 1.0587,-3.44387 0.3767,-1.13332 1.294,-1.72897 1.2741,-3.08884 -0.031,-2.08868 -0.478,-4.29214 -1.1892,-6.14212 -1.7773,-5.70048 -5.2277,-9.17999 -8.5632,-12.16763 -3.2564,-2.11014 -7.8451,-5.4068 -11.394,-6.03537"
           id="path6180"
           sodipodi:nodetypes="cscsssccc" /><path
           style="display:inline;fill:#fff3cf;fill-opacity:1;stroke-width:1.87839"
           d="m -5626.0427,198.50739 c 1.6687,14.67489 2.6192,29.84046 8.9115,43.46842 1.8656,0.66788 2.0183,-0.18667 2.8757,-0.51632 1.1469,-0.44081 1.8912,-2.75246 2.688,-3.63178 1.283,-1.41594 2.3464,-1.68238 2.775,-3.67182 0.4122,-1.91472 0.4435,-3.93408 0.1223,-5.74805 -0.8652,-9.97047 -5.9987,-18.80862 -11.6148,-26.88565"
           id="path6182"
           sodipodi:nodetypes="ccssscc" /><path
           style="display:inline;fill:#fff3cf;fill-opacity:1;stroke-width:1.87839"
           d="m -5627.4166,197.00214 c -0.532,15.1909 0.6675,30.48864 -1.5447,45.5846 -0.6682,1.08969 -1.6512,1.63656 -2.767,1.92175 -1.1651,0.29768 -2.4749,-0.13262 -3.7221,-0.0856 -1.5138,0.0571 -2.9861,0.38833 -4.2204,-0.075 -1.5575,-0.58474 -2.7358,-1.72975 -3.1391,-3.80293 -1.6096,-7.48061 0.9357,-19.67747 1.2531,-27.24389 0.6011,-5.96189 2.0852,-12.0708 5.8094,-16.90697"
           id="path6184"
           sodipodi:nodetypes="ccsssccc" /><path
           style="display:inline;fill:#fff3cf;fill-opacity:1;stroke-width:1.87839"
           d="m -5638.257,196.7122 c -6.0198,11.20984 -10.1248,28.06683 -19.872,37.15789 -3.3679,3.53108 -5.058,1.09317 -8.1608,-3.77115 -2.9114,-4.84042 -6.2801,-6.34129 -3.3697,-10.65592 5.6004,-11.87404 18.3264,-24.58243 29.1044,-32.0813"
           id="path6186"
           sodipodi:nodetypes="ccccc" /><path
           style="display:inline;fill:#fff3cf;fill-opacity:1;stroke-width:1.93817"
           d="m -5646.5627,190.02155 c -8.9202,10.82901 -23.5238,18.20123 -30.1308,26.3873 -4.8597,3.03875 -5.8836,0.60757 -9.5698,-4.86246 -2.4726,-5.85798 -3.9225,-5.64548 -0.5454,-9.48186 9.8545,-5.77021 26.8886,-17.62319 36.4761,-16.75156"
           id="path6188"
           sodipodi:nodetypes="ccccc" /><path
           style="display:inline;fill:#fff3cf;fill-opacity:1;stroke-width:1.87839"
           d="m -5651.7502,182.66313 c -11.364,2.14182 -26.8307,17.21313 -38.4335,17.55914 -0.8134,0.0252 -1.9028,0.13769 -2.8725,-1.30473 -0.4533,-0.67466 -0.2979,-2.64291 -0.6591,-3.42009 -0.4297,-0.92738 -1.3454,-1.83347 -1.5154,-2.68948 -0.1788,-0.89838 -0.1756,-1.69234 0.087,-2.2452 8.062,-8.01945 24.3774,-10.38238 35.6807,-11.59884 2.7242,-0.0821 4.7267,-2.11305 7.4483,-2.00372"
           id="path6190"
           sodipodi:nodetypes="cssssccc" /><path
           style="display:inline;fill:#fff3cf;fill-opacity:1;stroke-width:1.87839"
           d="m -5651.7396,175.52476 c -14.4292,3.50248 -27.2392,7.61597 -42.0854,9.1888 -0.3946,-0.62093 -0.7503,-1.20546 -1.0657,-1.75612 -0.8231,-1.43764 -0.038,-2.42173 -0.2729,-3.44137 -0.2948,-1.27527 -1.441,-2.48068 -0.7054,-3.25782 0.6364,-0.67188 1.6826,-1.18995 3.1806,-1.61004 6.3905,-2.46704 22.6735,-5.92767 29.3151,-4.34121 4.0303,0.65296 7.9669,2.58025 11.9825,1.5501"
           id="path6192"
           sodipodi:nodetypes="ccsssccc" /><path
           style="display:inline;fill:#fff3cf;fill-opacity:1;stroke-width:1.87839"
           d="m -5661.8152,170.75679 c -5.9155,-1.02651 -12.2535,0.52778 -17.9224,-1.81523 -1.6763,-1.86335 -1.2093,-3.55575 -1.6491,-4.86628 -0.5878,-1.75 -1.6545,-2.89914 -0.6318,-3.63645 0.8976,-0.64674 2.2833,-0.89798 3.9291,-0.74333 8.2737,0.0348 26.6832,4.49227 31.946,10.65611 -2.367,4.04254 -4.9816,6.04262 -2.1697,2.17037"
           id="path6194"
           sodipodi:nodetypes="ccssccc" /><path
           style="display:inline;fill:#fff3cf;fill-opacity:1;stroke-width:1.87839"
           d="m -5613.6272,188.60147 c 7.5208,2.5891 16.7583,3.7238 21.8385,10.17313 1.0148,1.35484 1.4337,2.66119 1.408,3.77042 -0.032,0.72805 -1.1742,1.24472 -1.5315,1.76094 -0.5032,0.72723 -0.3526,1.32912 -1.326,1.43521 -1.2226,0.13297 -2.7216,-0.31596 -4.2594,-1.58011 -7.9497,-3.86304 -15.6713,-5.8999 -20.488,-13.02062"
           id="path6196"
           sodipodi:nodetypes="ccssscc" /><path
           style="display:inline;fill:#f5cd44;fill-opacity:1;stroke-width:0.374026"
           d="m -5615.9831,192.76679 c 2.2311,-1.13821 2.7644,-4.54275 1.0045,-6.31855 -0.276,-2.34434 -0.9741,-4.79995 -2.7325,-6.47587 -0.1976,-2.63203 -2.5708,-4.61631 -5.0421,-5.11075 -1.3065,-1.93868 -3.5084,-3.49285 -5.9307,-3.33603 -2.3455,-0.90341 -4.5957,-2.67234 -7.2545,-2.181 -2.7186,0.12231 -5.2906,-1.459 -8.0011,-1.00624 -2.5116,0.6517 -4.511,2.42398 -6.8324,3.50081 -2.5933,1.57358 -5.3607,3.77739 -5.8074,6.96823 0.207,2.78206 3.0708,4.00433 4.708,5.88175 2.1579,1.58301 2.3651,4.82243 4.8723,5.91118 2.1331,0.51882 3.2068,2.26227 4.3245,3.88389 1.9086,0.84098 4.3544,0.66519 5.5132,2.7279 2.2571,1.88533 5.1635,2.67676 7.7128,4.06176 2.4272,1.07089 5.3294,2.12967 7.8626,0.77191 1.65,-0.69042 3.1808,-1.65158 4.5588,-2.78895 1.2932,-1.96326 -0.1537,-4.4994 1.044,-6.49004 z"
           id="path6226"
           sodipodi:nodetypes="ccccccccccccccccccc" /><path
           id="path6228"
           style="display:inline;fill:#f0a60d;fill-opacity:1;stroke-width:0.374026"
           d="m -5616.011,192.97288 c -1.0856,1.87757 -0.1503,3.74465 -0.6123,5.55194 -0.9856,1.9381 -3.0981,2.42058 -4.7215,3.43227 -1.7406,0.91276 -3.678,1.08263 -5.2518,0.35919 -2.9209,-0.82173 -5.5146,-2.33693 -8.1695,-3.68347 -1.8387,-0.20297 -2.6496,-1.86169 -3.8194,-3.03047 -1.1878,-1.21296 -3.3784,0.39975 -4.2578,-1.4083 -0.9917,-1.22507 -1.6478,-3.17343 -3.4867,-3.20044 -2.7266,-0.69061 -3.1128,-4.1402 -5.0699,-5.802 -1.5591,-1.7911 -3.6964,-3.00109 -4.9701,-5.06533 -0.8518,-2.34767 1.1609,-4.78057 2.9169,-6.3838 1.8224,-1.63381 2.0576,1.87972 3.4322,2.3889 1.3658,1.58684 1.266,6.23521 3.451,6.84755 1.7934,0.32207 3.5514,0.89184 4.8622,2.15478 1.4312,1.05333 2.14,3.06242 4.0159,3.45379 2.5551,0.6347 5.4681,0.63486 7.4749,2.44236 1.3588,1.15211 2.7996,2.41258 4.744,2.41637 1.9947,0.64025 3.9924,0.61488 6.293,0.58855 0.8827,-0.91384 2.1142,-1.1485 3.1689,-1.06175 z"
           sodipodi:nodetypes="scccccccccccccccccss" /></g></g></g></svg>
