<?xml version="1.0" encoding="UTF-8" standalone="no"?>
<!-- Created with Inkscape (http://www.inkscape.org/) -->

<svg
   width="95.275932mm"
   height="161.93344mm"
   viewBox="0 0 95.275932 161.93344"
   version="1.1"
   id="svg5"
   xml:space="preserve"
   inkscape:version="1.2 (dc2aedaf03, 2022-05-15)"
   sodipodi:docname="drawing.svg"
   xmlns:inkscape="http://www.inkscape.org/namespaces/inkscape"
   xmlns:sodipodi="http://sodipodi.sourceforge.net/DTD/sodipodi-0.dtd"
   xmlns="http://www.w3.org/2000/svg"
   xmlns:svg="http://www.w3.org/2000/svg"><sodipodi:namedview
     id="namedview7"
     pagecolor="#505050"
     bordercolor="#eeeeee"
     borderopacity="1"
     inkscape:showpageshadow="0"
     inkscape:pageopacity="0"
     inkscape:pagecheckerboard="0"
     inkscape:deskcolor="#505050"
     inkscape:document-units="mm"
     showgrid="false"
     inkscape:zoom="0.36257718"
     inkscape:cx="-20741.791"
     inkscape:cy="2342.9494"
     inkscape:window-width="3200"
     inkscape:window-height="1271"
     inkscape:window-x="2391"
     inkscape:window-y="-9"
     inkscape:window-maximized="1"
     inkscape:current-layer="layer3"
     showguides="true" /><defs
     id="defs2" /><g
     inkscape:groupmode="layer"
     id="layer9"
     inkscape:label="Daisy2"
     transform="translate(5667.972,-573.39319)"
     style="display:inline"><g
       inkscape:groupmode="layer"
       id="layer12"
       inkscape:label="petalas 2"
       style="display:inline"><g
         id="g8713"><g
           id="g7915"
           transform="matrix(2.36756,0,0,2.36756,-5032.4121,224.72934)"
           style="display:inline;fill:#818603;fill-opacity:1"
           inkscape:export-filename="minhaFlor2.svg"
           inkscape:export-xdpi="96"
           inkscape:export-ydpi="96"><path
             d="m -246.15926,161.40416 c -2.78474,3.81982 -4.00244,7.19326 -5.26542,11.14659 -2.23338,6.99125 -2.57743,14.11453 -2.29807,20.7088 0.13968,3.29581 1.11272,17.13098 4.01655,22.25407 0.24965,0.44109 1.68466,-0.19937 2.00048,-0.50343 -1.76229,-4.25091 -6.08172,-18.88975 -4.74258,-31.59279 0.41403,-3.93627 1.55939,-8.20895 2.65535,-11.41419 2.10546,-6.16053 3.90657,-9.07201 3.63369,-10.59905 v 0"
             style="fill:#818603;fill-opacity:1;fill-rule:evenodd;stroke:none;stroke-width:0.00294059"
             id="path7895" /><path
             d="m -253.65541,184.14725 c 1.76876,-3.37844 -4.12153,-15.62364 -8.17689,-17.60206 -0.66899,-0.32611 2.72916,2.11957 4.66612,6.5775 2.56743,5.90706 2.95941,10.97428 3.51077,11.02456 v 0"
             style="fill:#818603;fill-opacity:1;fill-rule:evenodd;stroke:none;stroke-width:0.00294059"
             id="path7897" /><path
             d="m -256.60188,173.56643 c -1.04803,-0.90188 -1.42589,-1.29268 -2.8262,-1.58263 -0.94305,-0.19525 -0.54195,-2.50891 -4.03831,-2.50391 -0.6237,10e-4 1.99519,2.35894 3.41726,2.63977 1.51028,0.29759 3.42667,2.12751 3.42667,2.11193 0.002,-0.12174 0.17584,-0.53195 0.0206,-0.66516 v 0"
             style="fill:#818603;fill-opacity:1;fill-rule:evenodd;stroke:none;stroke-width:0.00294059"
             id="path7899" /><path
             d="m -254.65051,178.45633 c -1.04685,-0.90188 -1.42589,-1.29268 -2.8262,-1.58262 -0.94334,-0.19526 -0.54195,-2.50891 -4.0383,-2.50362 0.36875,2.11428 1.99636,2.35894 3.41843,2.63977 1.50881,0.29758 3.4252,2.12722 3.42667,2.11163 10e-4,-0.12174 0.17467,-0.53195 0.0194,-0.66516 v 0"
             style="fill:#818603;fill-opacity:1;fill-rule:evenodd;stroke:none;stroke-width:0.00294059"
             id="path7901" /><path
             d="m -255.89261,175.67307 c -0.42991,-1.26034 -0.64987,-1.74318 -0.32876,-3.03322 0.21613,-0.86806 -2.22191,-1.53322 -0.7078,-4.43705 1.91109,1.21887 1.44795,2.6774 1.1089,3.98038 -0.35964,1.38325 0.60282,3.76689 0.5887,3.76042 -0.12027,-0.0506 -0.59664,-0.0841 -0.66104,-0.27053 v 0"
             style="fill:#818603;fill-opacity:1;fill-rule:evenodd;stroke:none;stroke-width:0.00294059"
             id="path7903" /><path
             d="m -254.74637,178.53926 c -0.10468,-1.31739 -0.1979,-1.83375 0.43491,-3.02028 0.42698,-0.79955 -1.78052,-1.96167 0.41668,-4.46793 1.55646,1.59027 0.7428,2.91118 0.0879,4.1083 -0.69486,1.26945 -0.35081,3.79277 -0.36375,3.78365 -0.10469,-0.0753 -0.56018,-0.20702 -0.57577,-0.40374 v 0"
             style="fill:#818603;fill-opacity:1;fill-rule:evenodd;stroke:none;stroke-width:0.00294059"
             id="path7905" /><path
             d="m -252.67326,197.61632 c -1.76905,-3.37991 4.12006,-15.62481 8.17543,-17.60324 0.66898,-0.32611 -2.72916,2.11958 -4.66613,6.57721 -2.56595,5.90706 -2.9594,10.97575 -3.5093,11.02603 v 0"
             style="fill:#818603;fill-opacity:1;fill-rule:evenodd;stroke:none;stroke-width:0.00294059"
             id="path7907" /><path
             d="m -246.80502,181.96181 c 1.23828,0.0673 2.66565,-1.03774 3.10673,-2.40423 0.50608,-1.56586 -0.07,-3.42255 -0.0635,-3.41226 0.0144,0.0206 -0.002,0.29259 -0.45785,1.01715 -0.91894,1.45942 -0.82425,1.23299 -1.96049,2.41834 -0.81396,0.85013 -0.41286,1.41178 -0.62488,2.381 v 0"
             style="fill:#818603;fill-opacity:1;fill-rule:evenodd;stroke:none;stroke-width:0.00294059"
             id="path7909" /><path
             d="m -249.91851,186.55295 c -0.10616,-1.31739 -0.19908,-1.83375 0.43491,-3.02146 0.4255,-0.79837 -1.78053,-1.96166 0.41668,-4.46822 1.55528,1.59174 0.74132,2.91265 0.0868,4.1083 -0.69516,1.27092 -0.35081,3.79394 -0.36375,3.78365 -0.10351,-0.0738 -0.55901,-0.20702 -0.57459,-0.40227 v 0"
             style="fill:#818603;fill-opacity:1;fill-rule:evenodd;stroke:none;stroke-width:0.00294059"
             id="path7911" /><path
             d="m -251.33411,193.11075 c 1.25651,-0.63664 1.7767,-0.8463 2.51155,-1.98225 0.49579,-0.76485 2.75622,0.30788 3.84071,-2.75504 -2.29572,-0.3364 -3.05527,1.01186 -3.78748,2.17016 -0.77632,1.22799 -3.26082,2.33688 -3.24523,2.34188 0.12409,0.0403 0.49402,0.31965 0.68045,0.22525 v 0"
             style="fill:#818603;fill-opacity:1;fill-rule:evenodd;stroke:none;stroke-width:0.00294059"
             id="path7913" /></g><path
           style="display:inline;fill:#fff3cf;fill-opacity:1;stroke-width:1.49009"
           d="m -5598.4159,608.95328 c 2.7147,4.7999 7.3664,10.54743 10.7792,15.97211 4.0357,6.41474 6.7577,12.10658 8.4916,11.35829 0.6565,-0.12557 1.2159,-0.38097 1.6873,-0.73961 0.7675,-0.58403 0.6163,-2.08663 0.954,-3.10328 0.3394,-1.02123 1.166,-1.55797 1.1482,-2.78334 -0.027,-1.88209 -0.4309,-3.86763 -1.0715,-5.53466 -1.6017,-5.13667 -4.7109,-8.27204 -7.7164,-10.96421 -2.9346,-1.90144 -7.0694,-4.87205 -10.2671,-5.43845"
           id="path7917"
           sodipodi:nodetypes="cscsssccc" /><path
           style="display:inline;fill:#fff3cf;fill-opacity:1;stroke-width:1.69262"
           d="m -5604.8319,608.40636 c 1.5037,13.22353 2.3601,26.88919 8.03,39.16927 1.6812,0.60184 1.8187,-0.1682 2.5914,-0.46524 1.0333,-0.39719 1.704,-2.48024 2.422,-3.27258 1.1563,-1.27588 2.1145,-1.516 2.5005,-3.30865 0.3717,-1.72537 0.3999,-3.54499 0.1111,-5.17957 -0.7795,-8.98438 -5.4056,-16.94841 -10.4661,-24.22658"
           id="path7919"
           sodipodi:nodetypes="ccssscc" /><path
           style="display:inline;fill:#fff3cf;fill-opacity:1;stroke-width:1.69262"
           d="m -5606.0701,607.05001 c -0.4793,13.68848 0.6017,27.47323 -1.3919,41.07615 -0.602,0.98192 -1.4877,1.47471 -2.4932,1.73168 -1.0498,0.2683 -2.2301,-0.11942 -3.3539,-0.077 -1.3642,0.0515 -2.6909,0.34991 -3.803,-0.0675 -1.4037,-0.52691 -2.4654,-1.55868 -2.8289,-3.42685 -1.4504,-6.74072 0.8433,-17.73128 1.1294,-24.54937 0.5416,-5.37225 1.8788,-10.87695 5.2346,-15.23482"
           id="path7921"
           sodipodi:nodetypes="ccsssccc" /><path
           style="display:inline;fill:#fff3cf;fill-opacity:1;stroke-width:1.69262"
           d="m -5615.8383,606.78875 c -5.4244,10.10115 -9.1234,25.29095 -17.9065,33.48285 -3.0348,3.18186 -4.5577,0.98507 -7.3538,-3.39817 -2.6234,-4.36167 -5.6589,-5.71412 -3.0365,-9.602 5.0466,-10.69968 16.5141,-22.15118 26.226,-28.90837"
           id="path7923"
           sodipodi:nodetypes="ccccc" /><path
           style="display:inline;fill:#fff3cf;fill-opacity:1;stroke-width:1.74648"
           d="m -5623.3224,600.75979 c -8.0382,9.758 -21.1971,16.40111 -27.1509,23.77756 -4.3791,2.7382 -5.3019,0.54747 -8.6234,-4.38156 -2.228,-5.27861 -3.5344,-5.08713 -0.4912,-8.54407 8.8798,-5.19954 24.2291,-15.88023 32.8684,-15.0948"
           id="path7925"
           sodipodi:nodetypes="ccccc" /><path
           style="display:inline;fill:#fff3cf;fill-opacity:1;stroke-width:1.69262"
           d="m -5627.9969,594.12914 c -10.24,1.93 -24.1772,15.51071 -34.6323,15.8225 -0.7329,0.0219 -1.7149,0.12419 -2.5884,-1.17568 -0.4086,-0.60795 -0.2694,-2.38152 -0.5938,-3.08184 -0.3873,-0.83565 -1.2124,-1.65212 -1.3656,-2.42346 -0.1608,-0.80955 -0.1585,-1.525 0.079,-2.02316 7.2645,-7.22629 21.9664,-9.35556 32.1516,-10.45169 2.4549,-0.0742 4.2594,-1.90405 6.7118,-1.80554"
           id="path7927"
           sodipodi:nodetypes="cssssccc" /><path
           style="display:inline;fill:#fff3cf;fill-opacity:1;stroke-width:1.69262"
           d="m -5627.9873,587.69679 c -13.002,3.15607 -24.5452,6.86271 -37.9232,8.28 -0.3554,-0.55952 -0.6761,-1.08625 -0.9602,-1.58244 -0.7416,-1.29544 -0.033,-2.1822 -0.2469,-3.101 -0.2672,-1.14915 -1.2989,-2.23534 -0.6358,-2.9356 0.5734,-0.60545 1.5162,-1.07226 2.8659,-1.45082 5.7585,-2.22303 20.4311,-5.34138 26.4158,-3.91185 3.6318,0.58837 7.179,2.32506 10.7975,1.39679"
           id="path7929"
           sodipodi:nodetypes="ccsssccc" /><path
           style="display:inline;fill:#fff3cf;fill-opacity:1;stroke-width:1.69262"
           d="m -5637.0664,583.40037 c -5.3304,-0.92499 -11.0416,0.47559 -16.1498,-1.63569 -1.5107,-1.67905 -1.0898,-3.20408 -1.4862,-4.38499 -0.5296,-1.57692 -1.4907,-2.61239 -0.569,-3.27679 0.8085,-0.58279 2.0575,-0.80918 3.5403,-0.66982 7.4556,0.0314 24.0441,4.04798 28.7864,9.60221 -2.1331,3.64272 -4.4889,5.44498 -1.9551,1.95571"
           id="path7931"
           sodipodi:nodetypes="ccssccc" /><path
           style="display:inline;fill:#fff3cf;fill-opacity:1;stroke-width:1.69262"
           d="m -5593.6444,599.48019 c 6.777,2.33301 15.1008,3.35549 19.6786,9.16697 0.9146,1.22085 1.292,2.39799 1.2687,3.39752 -0.016,0.65605 -1.0581,1.12159 -1.38,1.58677 -0.4534,0.65531 -0.3176,1.19767 -1.1949,1.29326 -1.1016,0.12006 -2.4523,-0.28469 -3.8381,-1.42384 -7.1633,-3.48096 -14.1212,-5.31637 -18.4616,-11.73285"
           id="path7933"
           sodipodi:nodetypes="ccssscc" /><path
           style="display:inline;fill:#e6c78a;fill-opacity:1;stroke-width:0.233787"
           id="path7935"
           d="m -5624.7916,584.78171 c -1.8497,-0.8171 -0.046,-0.38221 -1.9216,-1.14418 -0.3297,-0.76848 -5.2133,-2.37975 -8.5425,-3.17825 -2.7253,-2.02482 5.9887,0.12722 7.5627,0.91922 1.1251,0.54526 2.2252,1.14035 3.3466,1.69303 -0.1483,0.57006 -0.2968,1.14012 -0.4452,1.71018 z"
           sodipodi:nodetypes="cccccc" /><path
           style="display:inline;fill:#e6c78a;fill-opacity:1;stroke-width:0.233787"
           id="path7937"
           d="m -5598.5519,605.3899 c 3.638,3.10514 -0.2143,-0.66478 3.5079,1.82192 2.8628,1.1832 9.2243,7.9118 7.8101,8.43851 -0.2824,0.32748 -5.8566,-6.03784 -9.7639,-7.61114 -0.8354,-0.88426 -1.3811,0.0912 -2.2526,-0.75673 z"
           sodipodi:nodetypes="cccccc" /><path
           style="display:inline;fill:#e6c78a;fill-opacity:1;stroke-width:0.233787"
           id="path7939"
           d="m -5594.1187,601.13469 c 1.1611,0.4722 1.6189,0.17215 2.7474,0.7172 2.1152,1.37657 5.0754,3.00424 5.429,3.96262 0.1743,2.19331 -5.1785,-3.61231 -6.4861,-2.83955 -1.0925,-0.52835 -1.2266,0.25665 -2.3509,-0.20116 z"
           sodipodi:nodetypes="cccccc" /><path
           style="display:inline;fill:#e6c78a;fill-opacity:1;stroke:none;stroke-width:0.295766;stroke-opacity:1"
           id="path7941"
           d="m -5618.9419,603.07655 c -1.2459,2.2802 -4.262,6.14597 -6.4419,10.12875 -2.52,4.60438 -4.0983,9.25619 -3.3699,10.03839 1.4179,-0.49784 3.1528,-5.18738 5.3674,-9.48797 2.558,-4.96735 5.6297,-9.52056 7.5455,-8.19384 -0.6822,-3.19194 -0.6698,-5.75131 -3.1011,-2.48533 z"
           sodipodi:nodetypes="cscscc" /><path
           style="display:inline;fill:#e6c78a;fill-opacity:1;stroke:none;stroke-width:0.233787;stroke-opacity:1"
           id="path7943"
           d="m -5608.6025,608.43124 c -0.1917,1.89504 0.1149,5.58126 -0.2173,8.89326 -0.3841,3.8289 -1.3613,8.84777 -2.2347,8.89251 -0.7589,-1.01389 0.1264,-6.13533 0.5825,-9.63874 0.5266,-4.04656 0.5014,-8.13651 -1.4554,-8.41692 1.9639,-1.38205 3.1473,-2.78349 3.3249,0.26989 z"
           sodipodi:nodetypes="cscscc" /><path
           style="display:inline;fill:#e6c78a;fill-opacity:1;stroke:none;stroke-width:0.252174;stroke-opacity:1"
           d="m -5602.7512,611.45745 -1.3691,0.68691 c 1.3924,5.75349 2.2247,11.39064 3.0244,12.72168 1.3273,-2.11432 -0.3053,-7.74889 -1.6553,-13.40859 z"
           id="path7945"
           sodipodi:nodetypes="cccc" /><path
           style="display:inline;fill:#e6c78a;fill-opacity:1;stroke:none;stroke-width:0.253167;stroke-opacity:1"
           id="path7947"
           d="m -5628.2985,597.57266 c -1.7157,1.3032 -5.2768,1.91854 -8.2763,4.19333 -3.4676,2.62978 -8.1999,7.23257 -7.9302,8.15322 1.2253,0.18513 5.5587,-4.04553 8.6942,-6.55882 3.6217,-2.90298 7.9906,-4.38042 8.9531,-2.54004 0.6001,-2.81856 1.4972,-4.84917 -1.4408,-3.24771 z"
           sodipodi:nodetypes="cscsccc" /><path
           style="display:inline;fill:#e6c78a;fill-opacity:1;stroke:none;stroke-width:0.185022;stroke-opacity:1"
           id="path7949"
           d="m -5630.1833,591.58892 c -1.4685,0.69136 -4.1646,0.65674 -6.7313,1.86293 -2.9674,1.39443 -7.1878,4.01053 -7.1466,4.69342 0.861,0.291 4.7283,-2.11568 7.4342,-3.47176 3.1255,-1.56636 6.5549,-2.03204 6.9455,-0.61136 0.9117,-1.90355 1.9068,-3.21398 -0.5018,-2.47326 z"
           sodipodi:nodetypes="cscsccc" /><path
           style="display:inline;fill:#e6c78a;fill-opacity:1;stroke:none;stroke-width:0.233787;stroke-opacity:1"
           id="path7951"
           d="m -5630.103,585.73123 c -1.9046,0.0235 -5.0762,-1.5425 -8.4046,-1.50412 -3.8479,0.0443 -9.4783,0.8884 -9.6,1.75444 0.9428,0.84547 6.1047,0.0604 9.6346,-0.0842 4.0774,-0.16716 8.2386,1.19575 8.3451,3.16966 1.5501,-1.834 3.0506,-2.88902 0.024,-3.33572 z"
           sodipodi:nodetypes="cscsccc" /><path
           style="display:inline;fill:#e6c78a;fill-opacity:1;stroke:none;stroke-width:0.225685;stroke-opacity:1"
           d="m -5629.5561,590.46502 -0.2893,1.25047 c -6.023,0.40813 -12.2788,1.68944 -13.2236,1.65069 1.1968,-2.72374 7.4701,-2.28491 13.5133,-2.90115 z"
           id="path7953"
           sodipodi:nodetypes="ccccc" /><path
           style="display:inline;fill:#e6c78a;fill-opacity:1;stroke:none;stroke-width:0.225685;stroke-opacity:1"
           d="m -5619.7251,600.38932 0.6226,1.11562 c -3.7555,4.63601 -7.7772,10.36779 -8.979,11.26541 -0.2957,-2.68056 4.664,-7.82309 8.3567,-12.38129 z"
           id="path7955"
           sodipodi:nodetypes="ccccc" /><path
           style="display:inline;fill:#e6c78a;fill-opacity:1;stroke:none;stroke-width:0.225685;stroke-opacity:1"
           d="m -5622.0911,596.63246 0.2335,1.25608 c -5.3657,3.3884 -10.5928,6.56004 -11.302,6.59671 0.013,-2.71513 6.1133,-4.71366 11.0689,-7.85293 z"
           id="path7957"
           sodipodi:nodetypes="ccccc" /><path
           id="path7959"
           style="display:inline;fill:#997a00;fill-opacity:0.36;stroke-width:1.49009"
           d="m -5597.4522,605.96521 -0.9635,2.98797 c 1.5951,2.82042 3.8598,5.97051 6.1482,9.18757 -0.017,-0.34866 0.01,-0.69786 0.027,-1.04646 0.044,-0.7334 0.1057,-1.46533 0.1713,-2.19698 0.026,-0.57756 0.046,-1.15537 0.022,-1.73307 -0.031,-0.7248 -0.095,-1.12816 -0.1836,-1.83613 -0.047,-0.15657 -0.094,-0.31324 -0.1422,-0.46955 -0.3006,-0.97538 -0.655,-1.9328 -1.049,-2.87398 -0.08,-0.18646 -0.1661,-0.37026 -0.2562,-0.55205 -1.4703,-0.74131 -2.8045,-1.29571 -3.7733,-1.46732 z" /><path
           style="display:inline;fill:#e6c78a;fill-opacity:1;stroke:none;stroke-width:0.211275;stroke-opacity:1"
           id="path7961"
           d="m -5601.4577,611.07598 c 0.6555,1.33627 2.6829,3.86458 3.8318,6.19974 1.328,2.6996 2.5447,6.28769 1.5984,6.41006 -1.3042,-0.6249 -2.6696,-4.27463 -3.7691,-6.75569 -1.2699,-2.86568 -3.1706,-5.70381 -5.4651,-5.69405 1.541,-1.16519 2.2091,-2.26229 3.804,-0.16006 z"
           sodipodi:nodetypes="cscscc" /><path
           id="path7963"
           style="display:inline;fill:#997a00;fill-opacity:0.36;stroke-width:1.69262"
           d="m -5604.8321,608.40642 c 1.5037,13.22352 2.3602,26.88922 8.0301,39.1693 1.6812,0.60183 1.8189,-0.16821 2.5916,-0.46525 1.0333,-0.39718 1.704,-2.48027 2.422,-3.27262 1.1563,-1.27587 2.1145,-1.51607 2.5005,-3.30873 0.1004,-0.46606 0.1749,-0.93898 0.2257,-1.41329 -0.6356,-0.38589 -1.199,-0.87216 -1.7009,-1.42191 -0.1519,-0.17352 -0.3086,-0.3429 -0.4556,-0.52058 -1.034,-1.24995 -1.8637,-2.65369 -2.6646,-4.05896 -0.2106,-0.4036 -0.4306,-0.80247 -0.6319,-1.21082 -1.1224,-2.2772 -1.9975,-4.67742 -2.5655,-7.15263 -0.099,-0.50968 -0.2152,-1.0163 -0.2979,-1.52894 -0.3086,-1.91441 -0.4185,-3.88326 0.036,-5.78506 0.09,-0.37392 0.2321,-0.73299 0.3483,-1.09949 0.1078,-0.24882 0.2044,-0.50305 0.3144,-0.75088 -0.9521,-1.51702 -1.9485,-3.00439 -2.9631,-4.46357 z" /><path
           style="display:inline;fill:#997a00;fill-opacity:0.36;stroke-width:1.69262"
           d="m -5606.0701,607.05001 c -0.4793,13.68848 0.6017,27.47323 -1.3919,41.07615 -0.602,0.98192 -1.4877,1.47471 -2.4932,1.73168 -1.0498,0.2683 -2.2301,-0.11942 -3.3539,-0.077 -1.3642,0.0515 -2.6909,0.34991 -3.803,-0.0675 -1.4037,-0.52691 -2.4654,-1.55868 -2.8289,-3.42685 -1.4504,-6.74072 0.8433,-17.73128 1.1294,-24.54937 0.5416,-5.37225 1.8788,-10.87695 5.2346,-15.23482"
           id="path7965"
           sodipodi:nodetypes="ccsssccc" /><path
           id="path7967"
           style="display:inline;fill:#997a00;fill-opacity:0.36;stroke-width:1.69262"
           d="m -5617.9093,598.36292 c -1.4966,1.04131 -3.0351,2.19495 -4.5852,3.43929 0.3336,0.0461 0.6669,0.0885 0.9988,0.10869 0.2978,0.70584 0.6898,1.37888 0.8934,2.11746 0.081,0.29346 -0.021,0.60957 -0.059,0.91159 -0.029,0.22889 -0.088,0.45275 -0.1409,0.67733 -0.2056,0.87546 -0.4792,1.73353 -0.735,2.59496 -0.7832,2.45697 -1.6151,4.91568 -2.9047,7.16224 -0.2642,0.43838 -0.5133,0.88583 -0.7923,1.31487 -1.5567,2.39328 -3.5346,4.48669 -5.9968,5.95937 -0.4824,0.27644 -0.9577,0.56523 -1.4468,0.82942 -2.4513,1.32401 -5.0588,2.33197 -7.5589,3.55593 -1.5912,0.7391 -3.1832,1.47952 -4.8049,2.1496 -0.6174,2.57044 1.7994,4.12592 3.943,7.68978 2.7961,4.38323 4.3189,6.58006 7.3538,3.3982 8.783,-8.19189 12.4822,-23.38183 17.9065,-33.48298 z m -11.9383,9.98087 c 0,0.003 -0.01,0.005 -0.01,0.008 0,6.5e-4 0,10e-4 0,0.003 0,-0.003 0.01,-0.007 0.01,-0.01 z" /><path
           id="path7969"
           style="display:inline;fill:#997a00;fill-opacity:0.36;stroke-width:1.74648"
           d="m -5627.5488,596.47643 c -6.768,0.31204 -12.7544,3.89865 -18.5714,7.03267 -4.6229,2.69909 -9.2286,5.474 -13.7276,8.35153 -2.1498,1.73444 -1.5017,4.50494 -0.1151,6.4637 1.3711,2.49899 2.6432,5.31074 5.0217,7.00948 2.5659,1.31846 4.9378,-1.15469 6.4461,-2.97073 7.9828,-7.67005 18.0884,-12.96156 25.1729,-21.60336 -1.4941,-1.29376 -2.1129,-3.84085 -4.2266,-4.28329 z m -18.2453,13.31479 c -2.0526,1.00642 -6.7967,1.00267 -4.8271,-2.37063 2.3271,-3.13119 6.2198,-4.40618 9.5415,-6.18204 1.6608,-0.73628 3.423,-1.3133 5.2496,-1.406 0.091,-0.0104 0.1793,-0.0161 0.265,-0.0176 14.3198,-1.90017 -6.7917,8.81052 -10.229,9.97624 z"
           sodipodi:nodetypes="cccccccccccccc" /><path
           id="path7971"
           style="display:inline;fill:#997a00;fill-opacity:0.36;stroke-width:1.69262"
           d="m -5628.4624,588.98646 c -1.8077,0.0138 -3.2749,1.045 -4.9467,1.54518 0,9e-5 -1e-4,2.6e-4 0,3.4e-4 0.1282,0.22235 0.02,0.49594 -0.2655,0.92883 -0.058,0.0886 -0.1516,0.14823 -0.2276,0.22235 -0.2742,0.24139 -0.3559,0.31919 -0.6568,0.55538 -0.7748,0.60824 -1.6072,1.13982 -2.4819,1.59289 -0.8084,0.40583 -1.0759,0.55101 -1.926,0.9295 -1.6676,0.74255 -3.3868,1.35943 -5.1399,1.86826 -1.2972,0.37266 -1.6708,0.49124 -2.9915,0.82345 -1.074,0.27011 -2.1181,0.50865 -3.2045,0.72471 -0.5306,0.10553 -1.0635,0.20008 -1.5961,0.29459 -0.5416,0.0961 -1.0845,0.18463 -1.6267,0.27703 -1.6406,0.25996 -3.2809,0.5163 -4.9298,0.71973 -1.0087,0.12445 -2.2072,0.25828 -3.2253,0.32176 -0.4511,0.0281 -0.9035,0.0327 -1.3552,0.0491 -0.3973,-0.007 -0.795,10e-4 -1.1917,-0.0212 -0.3672,-0.0208 -0.7362,-0.0589 -1.1001,-0.12326 -0.6289,0.4897 -1.2211,1.00628 -1.7702,1.55247 -0.2376,0.49816 -0.24,1.21346 -0.079,2.02302 0.1532,0.77133 0.9783,1.58798 1.3656,2.42364 0.3244,0.70031 0.1852,2.47379 0.5938,3.08174 0.8735,1.29987 1.8557,1.19757 2.5886,1.1757 10.4551,-0.31179 24.3922,-13.8926 34.6322,-15.8226 l -0.2376,-5.13889 c -0.077,-0.003 -0.1525,-0.004 -0.2279,-0.004 z" /><path
           id="path7973"
           style="display:inline;fill:#997a00;fill-opacity:0.36;stroke-width:1.69262"
           d="m -5639.7207,582.77758 c -0.1782,0.55051 -0.3398,0.97243 -0.732,1.72777 -0.8536,1.6438 -2.1009,3.04699 -3.3631,4.38303 -0.9417,0.87922 -1.2649,1.22911 -2.306,2.00479 -1.2844,0.95695 -2.6854,1.73201 -4.1359,2.4021 7.3683,-1.66529 14.5638,-3.72782 22.2704,-5.59849 l 0.3132,-3.30476 c -3.618,0.92821 -7.166,-0.80869 -10.7977,-1.39706 -0.3815,-0.0911 -0.8008,-0.16227 -1.2489,-0.21738 z" /><path
           id="path7975"
           style="display:inline;fill:#997a00;fill-opacity:0.36;stroke-width:1.69262"
           d="m -5630.6365,582.16057 c -1.0847,-1.3e-4 -2.1694,0.0177 -3.2521,0.0908 -0.8483,0.0479 -1.6961,0.10717 -2.545,0.14513 -0.9796,0.0439 -1.9607,0.06 -2.9409,0.0872 -0.516,0.0126 -1.0321,0.0223 -1.5481,0.0324 -0.867,0.15899 -1.7311,0.33481 -2.594,0.51694 2.169,-5.7e-4 4.3394,6.4e-4 6.4501,0.36716 l 12.1666,1.59091 c -2.5338,3.48926 -0.178,1.68697 1.9551,-1.95575 -0.2005,-0.2349 -0.4228,-0.46702 -0.6644,-0.69621 -0.1027,-0.008 -0.2054,-0.0169 -0.3079,-0.0258 -1.5875,-0.0886 -3.1776,-0.12186 -4.7674,-0.14116 -0.6506,-0.005 -1.3013,-0.0115 -1.952,-0.0116 z" /><path
           style="display:inline;fill:#e6c78a;fill-opacity:1;stroke-width:0.233787"
           id="path7977"
           d="m -5597.9635,597.67721 c 1.2956,0.4186 1.7534,1.20219 3.0505,1.61589 1.1561,0.37679 10.2776,2.78339 8.2314,3.99841 -0.8293,0.46839 -6.9602,-2.80278 -8.5034,-3.28376 l -3.3214,-0.64881 z"
           sodipodi:nodetypes="scccccs" /><path
           id="path7979"
           style="display:inline;fill:#997a00;fill-opacity:0.36;stroke-width:1.69262"
           d="m -5593.6444,599.4803 -3.9273,2.28778 c 1.8892,2.79301 4.275,4.7176 6.9574,6.28809 -0.076,-0.86899 -0.1587,-1.73745 -0.2688,-2.60325 -0.1289,-1.0143 -0.1773,-1.23325 -0.3489,-2.23874 -0.1904,-1.09819 -0.481,-2.17382 -0.8473,-3.2239 -0.5289,-0.16435 -1.0517,-0.33324 -1.5651,-0.50998 z m 18.8765,13.37477 c 0.026,0.0219 0.052,0.0444 0.079,0.0649 0.4665,0.35299 0.2344,-0.0178 -0.079,-0.0649 z" /><path
           style="display:inline;fill:#f5cd44;fill-opacity:1;stroke-width:0.337035"
           d="m -5595.7672,603.23353 c 2.0105,-1.02565 2.491,-4.09346 0.905,-5.69362 -0.249,-2.11249 -0.8777,-4.32521 -2.4623,-5.83539 -0.1775,-2.37171 -2.3164,-4.15974 -4.5432,-4.6053 -1.1775,-1.74692 -3.1614,-3.14739 -5.3442,-3.0061 -2.1135,-0.81406 -4.1411,-2.40802 -6.5371,-1.96526 -2.4496,0.11031 -4.7673,-1.31469 -7.2098,-0.90672 -2.263,0.58724 -4.0647,2.18424 -6.1565,3.15455 -2.3368,1.41798 -4.8306,3.40382 -5.2331,6.27908 0.1854,2.50689 2.767,3.60828 4.2424,5.3 1.9444,1.42648 2.1313,4.34551 4.3903,5.32655 1.9224,0.46753 2.8897,2.03856 3.897,3.49977 1.7196,0.75783 3.9235,0.59942 4.9678,2.45812 2.0338,1.69887 4.6529,2.41203 6.9501,3.66004 2.187,0.96497 4.8022,1.91904 7.0848,0.69554 1.4869,-0.6221 2.8661,-1.48822 4.1079,-2.51309 1.1652,-1.7691 -0.1373,-4.05438 0.9409,-5.84817 z"
           id="path7981"
           sodipodi:nodetypes="ccccccccccccccccccc" /><path
           id="path7983"
           style="display:inline;fill:#f0a60d;fill-opacity:1;stroke-width:0.337035"
           d="m -5595.7924,603.41926 c -0.9782,1.69187 -0.1369,3.37429 -0.5518,5.00281 -0.8881,1.74644 -2.7915,2.1812 -4.2544,3.09283 -1.5687,0.82248 -3.3142,0.97555 -4.7325,0.32364 -2.6319,-0.74043 -4.969,-2.10579 -7.3616,-3.31916 -1.6568,-0.18292 -2.3873,-1.67757 -3.4415,-2.73075 -1.0703,-1.09298 -3.0444,0.36024 -3.8365,-1.26901 -0.8939,-1.10391 -1.4849,-2.85958 -3.1422,-2.8839 -2.4568,-0.62231 -2.8048,-3.73073 -4.5684,-5.22817 -1.4049,-1.61396 -3.3306,-2.70428 -4.4785,-4.56436 -0.7676,-2.11548 1.046,-4.30774 2.6286,-5.75242 1.6419,-1.47224 1.8539,1.69383 3.0925,2.15263 1.2308,1.4299 1.1409,5.61855 3.1096,6.17031 1.6161,0.29022 3.2003,0.80363 4.3815,1.94167 1.2896,0.94916 1.9285,2.75953 3.6187,3.1122 2.3024,0.57194 4.9273,0.57207 6.7355,2.20082 1.2245,1.03816 2.523,2.17394 4.2748,2.17737 1.7976,0.57695 3.5977,0.55405 5.6708,0.53034 0.7952,-0.82347 1.9052,-1.03492 2.8553,-0.95676 z"
           sodipodi:nodetypes="scccccccccccccccccss" /><path
           d="m -5621.3901,596.22493 c 0.8033,0.19889 1.2038,1.71145 -0.2747,2.22506 -2.2117,0.76822 -1.0511,-2.55398 0.2747,-2.22506 v 0"
           style="display:inline;fill:#b88729;fill-opacity:1;fill-rule:evenodd;stroke:none;stroke-width:0.00673591"
           id="path7985" /><path
           d="m -5628.8007,587.43528 c 0.8032,0.19888 1.2037,1.71151 -0.2748,2.22507 -2.2116,0.7682 -1.0511,-2.55399 0.2748,-2.22507 v 0"
           style="display:inline;fill:#b88729;fill-opacity:1;fill-rule:evenodd;stroke:none;stroke-width:0.00673591"
           id="path7987" /><path
           d="m -5598.6651,595.60238 c 0.8032,0.19888 1.2037,1.71149 -0.2747,2.22506 -2.2115,0.76823 -1.0511,-2.55398 0.2747,-2.22506 v 0"
           style="display:inline;fill:#d29b30;fill-opacity:1;fill-rule:evenodd;stroke:none;stroke-width:0.00673591"
           id="path7989" /><path
           d="m -5628.8163,594.65498 c 0.1375,0.94961 1.6037,1.52353 2.2158,-0.15793 0.9175,-2.51814 -2.4471,-1.40529 -2.2158,0.15793 v 0"
           style="display:inline;fill:#b88729;fill-opacity:1;fill-rule:evenodd;stroke:none;stroke-width:0.0050775"
           id="path7991" /><path
           d="m -5614.0157,596.39569 c -0.047,-0.9754 -1.4288,-1.71185 -2.1831,-0.0757 -1.13,2.45041 2.2654,1.68194 2.1831,0.0757 v 0"
           style="display:inline;fill:#d29b30;fill-opacity:1;fill-rule:evenodd;stroke:none;stroke-width:0.0050775"
           id="path7993" /><path
           d="m -5625.2415,591.2235 c 0.1878,1.25685 2.1288,2.02643 2.9276,-0.19275 1.1969,-3.32355 -3.243,-1.87624 -2.9276,0.19275 v 0"
           style="display:inline;fill:#d29b30;fill-opacity:1;fill-rule:evenodd;stroke:none;stroke-width:0.00671257"
           id="path7995" /><path
           d="m -5628.109,586.30805 c 0.1374,0.9496 1.6037,1.52343 2.216,-0.15788 0.9175,-2.51812 -2.4472,-1.40531 -2.216,0.15788 v 0"
           style="display:inline;fill:#d29b30;fill-opacity:1;fill-rule:evenodd;stroke:none;stroke-width:0.0050775"
           id="path7997" /><path
           d="m -5598.8051,601.7835 c 0.1247,0.86231 1.4561,1.38343 2.0121,-0.14336 0.8332,-2.28664 -2.2222,-1.27607 -2.0121,0.14336 v 0"
           style="display:inline;fill:#d29b30;fill-opacity:1;fill-rule:evenodd;stroke:none;stroke-width:0.00461071"
           id="path7999" /><path
           d="m -5601.6249,601.10836 c 0.097,0.66914 1.1299,1.07337 1.5611,-0.11131 0.6461,-1.77421 -1.7241,-0.99013 -1.5611,0.11131 v 0"
           style="display:inline;fill:#d29b30;fill-opacity:1;fill-rule:evenodd;stroke:none;stroke-width:0.00357746"
           id="path8001" /></g></g></g></svg>
