<?xml version="1.0" encoding="UTF-8" standalone="no"?>
<!-- Created with Inkscape (http://www.inkscape.org/) -->

<svg
   width="210mm"
   height="297mm"
   viewBox="0 0 210 297"
   version="1.1"
   id="svg415"
   inkscape:version="1.2.1 (9c6d41e410, 2022-07-14)"
   sodipodi:docname="1.svg"
   xmlns:inkscape="http://www.inkscape.org/namespaces/inkscape"
   xmlns:sodipodi="http://sodipodi.sourceforge.net/DTD/sodipodi-0.dtd"
   xmlns="http://www.w3.org/2000/svg"
   xmlns:svg="http://www.w3.org/2000/svg">
  <sodipodi:namedview
     id="namedview417"
     pagecolor="#505050"
     bordercolor="#eeeeee"
     borderopacity="1"
     inkscape:showpageshadow="0"
     inkscape:pageopacity="0"
     inkscape:pagecheckerboard="0"
     inkscape:deskcolor="#505050"
     inkscape:document-units="mm"
     showgrid="false"
     inkscape:zoom="0.36257716"
     inkscape:cx="879.81273"
     inkscape:cy="703.29858"
     inkscape:window-width="1920"
     inkscape:window-height="986"
     inkscape:window-x="-11"
     inkscape:window-y="-11"
     inkscape:window-maximized="1"
     inkscape:current-layer="layer1" />
  <defs
     id="defs412" />
  <g
     inkscape:label="Layer 1"
     inkscape:groupmode="layer"
     id="layer1">
    <g
       id="g808"
       transform="matrix(-1,0,0,1,222.51048,0)">
      <path
         d="m 119.49199,291.40833 c 17.2924,2.48291 6.26732,-4.44215 -0.61444,-29.16932 -8.3327,-29.92761 -15.97693,-48.88459 -17.82027,-69.98655 -0.10474,-1.2233 -0.25276,-2.50666 -0.43011,-3.84027 0.53345,-2.02208 1.18001,-4.4617 1.94807,-6.91947 4.01203,-3.318 7.28116,-4.87925 7.83416,-4.98957 11.50965,-2.28043 18.38583,-3.53306 22.55288,-18.61346 -13.94927,-3.76766 -16.15009,9.57974 -23.68961,14.54556 -1.66457,1.09902 -3.20767,2.19384 -4.63905,3.27471 0.0978,-0.22065 0.18993,-0.44268 0.28907,-0.65774 3.50233,-7.87744 8.06737,-12.4313 8.73767,-12.81814 10.14531,-5.87491 16.25344,-9.28507 15.3192,-24.90032 -14.41569,0.94121 -12.18553,14.28721 -17.71552,21.41615 -7.04796,9.09517 -10.24446,16.75058 -11.712139,22.70509 -7.085664,-42.0866 -4.234078,-48.08441 7.810419,-85.501247 8.10506,-25.18242 9.21666,-30.731967 7.05353,-26.638929 -4.04974,7.66239 -19.338221,41.669066 -22.177231,58.722666 -1.198164,7.19458 -2.618365,15.74234 -2.452192,25.4701 -2.070955,-4.96442 -5.432237,-10.77231 -10.9371,-17.27983 C 73.0177,129.339 74.6767,115.9134 60.235872,115.58664 c -0.265329,15.63897 5.978253,18.78521 16.369335,24.22444 0.688465,0.3561 5.44482,4.71306 9.279502,12.43132 0.835091,1.67715 1.604538,3.56935 2.311146,5.47553 -2.003918,-1.06411 -4.192184,-2.11426 -6.58851,-3.12808 -8.307564,-3.52189 -12.885163,-16.26043 -25.925337,-10.03499 6.820326,14.07775 13.808229,14.07217 25.538519,14.23834 0.565564,0.0126 4.019019,0.93982 8.522619,3.44647 0.178735,0.54183 0.344918,1.0697 0.5111,1.58639 3.090373,43.64227 20.131414,101.76167 29.237744,127.58227 v 0"
         style="fill:#b4ba3d;fill-opacity:1;fill-rule:evenodd;stroke:none;stroke-width:0.0139646"
         id="path50" />
      <path
         d="m 107.66256,62.211014 c -7.47248,2.200829 -20.912042,-19.694318 -20.27246,-44.37262 0.129865,-4.947666 4.866673,4.694909 8.683215,-1.794455 2.063966,-3.521884 3.847246,-2.734273 5.358225,0.269517 7.07867,14.097302 5.3708,31.026621 6.23102,45.897558 v 0"
         style="fill:#fff3cf;fill-opacity:1;fill-rule:evenodd;stroke:none;stroke-width:0.0139646"
         id="path52" />
      <path
         d="m 116.6474,58.383305 c -8.39414,-0.38821 -12.38942,-26.830238 -3.04848,-51.7543232 1.46209,-3.9017181 3.9087,0.2150544 4.97141,2.0891089 0.3561,-1.7511634 2.34745,-4.9518528 4.48544,0.1228912 3.34872,-2.8571634 4.91694,-2.4144807 5.39594,1.1744291 2.2483,16.862293 -5.35824,45.854267 -11.80431,48.367894 v 0"
         style="fill:#fff3cf;fill-opacity:1;fill-rule:evenodd;stroke:none;stroke-width:0.0139646"
         id="path54" />
      <path
         d="m 125.31804,61.48066 c -6.13327,-5.715719 6.78402,-30.166392 29.99881,-43.09625 4.65303,-2.593226 -1.67715,7.085656 6.42235,7.060519 4.39327,-0.01114 4.63905,2.070955 2.6854,5.113847 -9.18036,14.280237 -25.80246,21.974748 -39.10656,30.921884 v 0"
         style="fill:#fff3cf;fill-opacity:1;fill-rule:evenodd;stroke:none;stroke-width:0.0139646"
         id="path56" />
      <path
         d="m 125.07226,67.72286 c -2.63652,-7.575818 19.22092,-22.5082 44.65471,-23.091919 5.10127,-0.11731 -4.5832,5.24791 2.286,8.847991 3.72437,1.948064 3.00518,3.822118 -0.0111,5.524409 -14.15315,8.000336 -31.66619,7.091237 -46.92954,8.719519 v 0"
         style="fill:#fff3cf;fill-opacity:1;fill-rule:evenodd;stroke:none;stroke-width:0.0139646"
         id="path58" />
      <path
         d="m 130.57153,78.298268 c 1.46908,-8.65109 29.39136,-9.431707 54.04592,3.429721 3.85284,2.00951 -0.71918,4.024609 -2.8027,4.884827 1.76932,0.590701 4.84294,3.061047 -0.69404,4.633464 2.53737,3.834682 1.87405,5.401519 -1.90477,5.44481 -17.7714,0.189917 -46.85693,-11.386765 -48.64441,-18.392822 v 0"
         style="fill:#fff3cf;fill-opacity:1;fill-rule:evenodd;stroke:none;stroke-width:0.0139646"
         id="path60" />
      <path
         d="m 122.71782,86.121261 c 4.20336,-7.268589 29.52124,1.340602 47.35966,21.101949 2.78455,3.09177 -1.98996,3.37386 -4.14191,3.45345 1.38948,1.11858 3.31939,4.36396 -2.1743,3.92128 1.00127,4.28853 -0.1173,5.47553 -3.52187,4.25223 -16.01325,-5.75762 -38.25192,-25.845744 -37.52158,-32.728909 v 0"
         style="fill:#fff3cf;fill-opacity:1;fill-rule:evenodd;stroke:none;stroke-width:0.0139646"
         id="path62" />
      <path
         d="m 121.29903,96.481616 c 7.71824,-3.280289 24.81373,18.447284 27.21007,44.908854 0.47898,5.30936 -5.79531,-4.40583 -9.05746,3.00381 -1.7763,4.01902 -3.78022,3.40456 -5.7646,0.38123 -9.32837,-14.18807 -9.61046,-32.5013 -12.38801,-48.293894 v 0"
         style="fill:#fff3cf;fill-opacity:1;fill-rule:evenodd;stroke:none;stroke-width:0.0139646"
         id="path64" />
      <path
         d="m 117.24229,99.425363 c -7.99476,-0.724763 -17.19885,24.094577 -11.61299,48.915307 1.11717,4.97699 3.28029,-10.34221 8.43046,-4.54828 2.79571,3.14623 5.14316,6.61785 6.06483,3.28169 4.33881,-15.66971 -0.77364,-32.44542 -2.8823,-47.648717 v 0"
         style="fill:#fff3cf;fill-opacity:1;fill-rule:evenodd;stroke:none;stroke-width:0.0139646"
         id="path66" />
      <path
         d="m 105.84994,98.153181 c -4.05532,-5.548146 -25.384904,12.339149 -39.610678,38.363639 -2.224563,4.06789 1.917346,2.55693 3.773247,1.83217 -1.131127,1.6157 -2.605801,5.51183 2.107263,3.0345 -0.614446,4.57203 0.417545,5.31634 3.287272,2.84599 13.470283,-11.62136 31.469306,-39.60509 30.442896,-46.076299 v 0"
         style="fill:#fff3cf;fill-opacity:1;fill-rule:evenodd;stroke:none;stroke-width:0.0139646"
         id="path68" />
      <path
         d="m 94.229978,87.817963 c -4.579006,-7.042365 -29.410917,2.862743 -46.204781,23.529007 -2.623954,3.22583 2.163119,3.26353 4.319264,3.22583 -1.332226,1.19258 -3.090372,4.53571 2.372592,3.80955 -0.773645,4.33323 0.399381,5.46296 3.736927,4.06231 15.693455,-6.57454 36.856858,-27.793807 35.775998,-34.626697 v 0"
         style="fill:#fff3cf;fill-opacity:1;fill-rule:evenodd;stroke:none;stroke-width:0.0139646"
         id="path70" />
      <path
         d="m 93.485665,77.819288 c 0.798776,7.761536 -27.099767,16.69053 -54.955019,11.263874 -5.585857,-1.087847 6.427914,-3.86541 -0.06704,-8.867547 -3.521877,-2.709135 -2.224565,-4.30669 1.523544,-5.204618 17.605218,-4.203356 36.428148,0.762474 53.498512,2.808291 v 0"
         style="fill:#fff3cf;fill-opacity:1;fill-rule:evenodd;stroke:none;stroke-width:0.0139646"
         id="path72" />
      <path
         d="m 95.403007,69.235224 c -4.86668,6.845464 -29.268472,-4.086055 -45.183964,-25.428202 -2.488499,-3.337547 2.29159,-3.171364 4.442144,-3.048473 -1.277763,-1.247045 -2.89347,-4.657209 2.531792,-3.704818 -0.594899,-4.362555 0.627009,-5.44481 3.90311,-3.9087 15.405784,7.226691 35.67126,29.306174 34.306918,36.090193 v 0"
         style="fill:#fff3cf;fill-opacity:1;fill-rule:evenodd;stroke:none;stroke-width:0.0139646"
         id="path74" />
      <path
         d="m 105.58601,55.452133 c -20.807301,11.860164 -18.239201,33.207893 -6.827299,41.810112 10.243049,7.725235 32.611599,7.613515 36.513319,-8.012911 5.82605,-23.32652 -10.53772,-44.710566 -29.68602,-33.797201 v 0"
         style="fill:#f5c747;fill-opacity:1;fill-rule:evenodd;stroke:none;stroke-width:0.0139646"
         id="path76" />
      <path
         d="m 106.20046,89.993654 c -1.79446,1.019417 -1.57381,2.862744 -0.5907,3.607064 0.88535,0.663317 2.82085,0.656334 3.1532,-0.695438 0.50414,-2.00952 -0.9091,-3.858437 -2.5625,-2.911626 v 0"
         style="fill:#f2c13a;fill-opacity:1;fill-rule:evenodd;stroke:none;stroke-width:0.0139646"
         id="path78" />
      <path
         d="m 116.09998,90.957206 c -1.79445,1.0264 -1.5738,2.869737 -0.5893,3.607064 0.88396,0.670311 2.81386,0.657737 3.15181,-0.687052 0.50413,-2.016493 -0.9091,-3.859829 -2.56251,-2.920012 v 0"
         style="fill:#f2c13a;fill-opacity:1;fill-rule:evenodd;stroke:none;stroke-width:0.0139646"
         id="path80" />
      <path
         d="m 112.29043,82.624515 c -1.79446,1.0264 -1.57381,2.869737 -0.5907,3.607064 0.88536,0.670301 2.81526,0.657737 3.15322,-0.687063 0.50273,-2.016492 -0.91051,-3.859818 -2.56252,-2.920001 v 0"
         style="fill:#f2c13a;fill-opacity:1;fill-rule:evenodd;stroke:none;stroke-width:0.0139646"
         id="path82" />
      <path
         d="m 127.09295,81.660952 c -1.79447,1.019418 -1.57242,2.862754 -0.58932,3.607065 0.88397,0.668907 2.81388,0.656334 3.15182,-0.688455 0.50413,-2.016492 -0.9091,-3.85983 -2.5625,-2.91861 v 0"
         style="fill:#f2c13a;fill-opacity:1;fill-rule:evenodd;stroke:none;stroke-width:0.0139646"
         id="path84" />
      <path
         d="m 123.28339,73.328262 c -1.79445,1.024997 -1.57241,2.862743 -0.5893,3.607064 0.88396,0.668897 2.81386,0.656334 3.15181,-0.688466 0.50412,-2.016492 -0.9091,-3.859818 -2.56251,-2.918598 v 0"
         style="fill:#f2c13a;fill-opacity:1;fill-rule:evenodd;stroke:none;stroke-width:0.0139646"
         id="path86" />
      <path
         d="m 114.36138,72.368888 c -1.79445,1.0264 -1.57381,2.869737 -0.5907,3.607063 0.88536,0.670301 2.82086,0.657738 3.15321,-0.688454 0.50274,-2.0151 -0.91049,-3.858427 -2.56251,-2.918609 v 0"
         style="fill:#f2c13a;fill-opacity:1;fill-rule:evenodd;stroke:none;stroke-width:0.0139646"
         id="path88" />
      <path
         d="m 110.55043,64.036186 c -1.79445,1.026411 -1.57241,2.869738 -0.58371,3.607064 0.87978,0.670311 2.81526,0.657737 3.15321,-0.688444 0.49714,-2.0151 -0.91608,-3.858437 -2.5695,-2.91862 v 0"
         style="fill:#f2c13a;fill-opacity:1;fill-rule:evenodd;stroke:none;stroke-width:0.0139646"
         id="path90" />
      <path
         d="m 103.41032,79.613733 c -1.79445,1.020819 -1.57241,2.864157 -0.58931,3.607074 0.88397,0.6703 2.81388,0.657737 3.15183,-0.688455 0.50411,-2.0151 -0.9091,-3.86542 -2.56252,-2.918619 v 0"
         style="fill:#f2c13a;fill-opacity:1;fill-rule:evenodd;stroke:none;stroke-width:0.0139646"
         id="path92" />
      <path
         d="m 99.600781,71.281041 c -1.79446,1.020821 -1.57383,2.864147 -0.59071,3.607065 0.88536,0.6703 2.820859,0.657736 3.153219,-0.688455 0.50411,-2.01509 -0.9091,-3.858427 -2.562509,-2.91861 v 0"
         style="fill:#f2c13a;fill-opacity:1;fill-rule:evenodd;stroke:none;stroke-width:0.0139646"
         id="path94" />
      <path
         d="m 107.86505,71.355061 c -1.80005,1.019417 -1.5794,2.864137 -0.58933,3.607064 0.88537,0.6703 2.81389,0.657727 3.15184,-0.688465 0.50411,-2.01509 -0.9091,-3.858427 -2.56251,-2.918599 v 0"
         style="fill:#f2c13a;fill-opacity:1;fill-rule:evenodd;stroke:none;stroke-width:0.0139646"
         id="path96" />
      <path
         d="m 121.00437,63.918886 c -1.79446,1.0264 -1.57382,2.869737 -0.59071,3.608466 0.88537,0.668898 2.81388,0.656335 3.15181,-0.688465 0.50413,-2.016492 -0.90909,-3.859818 -2.5611,-2.920001 v 0"
         style="fill:#f2c13a;fill-opacity:1;fill-rule:evenodd;stroke:none;stroke-width:0.0139646"
         id="path98" />
      <path
         d="m 120.32707,84.106161 c -1.79444,1.0264 -1.5724,2.869738 -0.58929,3.612655 0.88535,0.66471 2.81386,0.657727 3.15181,-0.694045 0.50412,-2.009509 -0.9091,-3.858427 -2.56252,-2.91861 v 0"
         style="fill:#f2c13a;fill-opacity:1;fill-rule:evenodd;stroke:none;stroke-width:0.0139646"
         id="path100" />
    </g>
  </g>
</svg>
