<?xml version="1.0" encoding="UTF-8" standalone="no"?>
<!-- Created with Inkscape (http://www.inkscape.org/) -->

<svg
   width="210mm"
   height="297mm"
   viewBox="0 0 210 297"
   version="1.1"
   id="svg415"
   inkscape:version="1.2.1 (9c6d41e410, 2022-07-14)"
   sodipodi:docname="3.svg"
   xmlns:inkscape="http://www.inkscape.org/namespaces/inkscape"
   xmlns:sodipodi="http://sodipodi.sourceforge.net/DTD/sodipodi-0.dtd"
   xmlns="http://www.w3.org/2000/svg"
   xmlns:svg="http://www.w3.org/2000/svg">
  <sodipodi:namedview
     id="namedview417"
     pagecolor="#505050"
     bordercolor="#eeeeee"
     borderopacity="1"
     inkscape:showpageshadow="0"
     inkscape:pageopacity="0"
     inkscape:pagecheckerboard="0"
     inkscape:deskcolor="#505050"
     inkscape:document-units="mm"
     showgrid="false"
     inkscape:zoom="0.12819038"
     inkscape:cx="1146.7319"
     inkscape:cy="-764.48794"
     inkscape:window-width="1920"
     inkscape:window-height="986"
     inkscape:window-x="-11"
     inkscape:window-y="-11"
     inkscape:window-maximized="1"
     inkscape:current-layer="layer1" />
  <defs
     id="defs412" />
  <g
     inkscape:label="Layer 1"
     inkscape:groupmode="layer"
     id="layer1">
    <g
       id="g1147"
       transform="matrix(-0.3687829,0,0,0.3687829,180.5449,112.19658)">
      <path
         d="m 166.76664,-185.45254 c 33.40805,45.82583 48.01658,86.296499 63.16838,133.723939 26.79347,83.87292 30.92097,169.329801 27.56959,248.440221 -1.6757,39.53933 -13.34912,205.51774 -48.18592,266.97869 -2.99508,5.29166 -20.21064,-2.39184 -23.99947,-6.03956 21.14197,-50.99755 72.9615,-226.61738 56.896,-379.013851 -4.96711,-47.22283 -18.70781,-98.48144 -31.85584,-136.93422 C 185.1005,-132.20426 163.49286,-167.13279 166.76664,-185.45254 v 0"
         style="fill:#8a8f27;fill-opacity:1;fill-rule:evenodd;stroke:none;stroke-width:0.0352778"
         id="path102" />
      <path
         d="m 256.69674,87.392839 c -21.21958,-40.53064 49.44534,-187.434349 98.09692,-211.169239 8.02569,-3.91231 -32.74131,25.428219 -55.97878,78.909329 -30.80102,70.866 -35.50355,131.65666 -42.11814,132.25991 v 0"
         style="fill:#8a8f27;fill-opacity:1;fill-rule:evenodd;stroke:none;stroke-width:0.0352778"
         id="path104" />
      <path
         d="m 331.7996,-102.30635 c -8.92527,-16.87336 49.98861,-41.94527 49.97098,-41.86766 -11.28537,44.629909 -38.51275,48.295269 -49.97098,41.86766 v 0"
         style="fill:#8a8f27;fill-opacity:1;fill-rule:evenodd;stroke:none;stroke-width:0.0352778"
         id="path106" />
      <path
         d="m 292.04508,-39.543651 c 12.573,-10.8197 17.10619,-15.50812 33.90547,-18.9865 11.31358,-2.34245 6.50169,-30.099 48.44697,-30.03903 7.48242,0.0176 -23.93597,28.29983 -40.9963,31.66886 -18.11867,3.57011 -41.1092,25.52347 -41.1092,25.3365 -0.0282,-1.4605 -2.10961,-6.38175 -0.24694,-7.97983 v 0"
         style="fill:#8a8f27;fill-opacity:1;fill-rule:evenodd;stroke:none;stroke-width:0.0352778"
         id="path108" />
      <path
         d="M 268.63474,19.119759 C 281.19363,8.3000694 285.74094,3.6116494 302.54022,0.13325942 313.85733,-2.2091806 309.04191,-29.965741 350.98719,-29.902241 346.56335,-4.5375206 327.0371,-1.6024106 309.97677,1.7666194 c -18.10103,3.57011 -41.09155,25.5199496 -41.10919,25.3329696 -0.0141,-1.4605 -2.0955,-6.38175 -0.23284,-7.97983 v 0"
         style="fill:#8a8f27;fill-opacity:1;fill-rule:evenodd;stroke:none;stroke-width:0.0352778"
         id="path110" />
      <path
         d="m 283.53608,-14.270661 c 5.15761,-15.12005 7.79639,-20.91266 3.94405,-36.38902 -2.59291,-10.414 26.65589,-18.39384 8.49136,-53.230639 -22.92702,14.622639 -17.37077,32.120419 -13.30325,47.751999 4.31448,16.59467 -7.23194,45.19083 -7.06261,45.11322 1.44286,-0.60678 7.15786,-1.00894 7.93045,-3.24556 v 0"
         style="fill:#8a8f27;fill-opacity:1;fill-rule:evenodd;stroke:none;stroke-width:0.0352778"
         id="path112" />
      <path
         d="m 269.7848,20.114589 c 1.25589,-15.8044396 2.37419,-21.9992196 -5.21758,-36.2338 -5.12234,-9.59203 21.36069,-23.53381 -4.99886,-53.60106 -18.67253,19.07823 -8.91117,34.925 -1.05481,49.28659 8.33614,15.2294104 4.20864,45.50127 4.36386,45.39191 1.25589,-0.90311 6.72042,-2.48355 6.90739,-4.84364 v 0"
         style="fill:#8a8f27;fill-opacity:1;fill-rule:evenodd;stroke:none;stroke-width:0.0352778"
         id="path114" />
      <path
         d="M 244.91397,248.97917 C 266.13708,208.4309 195.48627,61.530699 146.83469,37.795819 c -8.02569,-3.91231 32.74131,25.42822 55.97878,78.905801 30.78339,70.866 35.50355,131.6743 42.1005,132.27755 v 0"
         style="fill:#8a8f27;fill-opacity:1;fill-rule:evenodd;stroke:none;stroke-width:0.0352778"
         id="path116" />
      <path
         d="m 174.51364,61.174399 c -14.85548,0.80786 -31.97931,-12.44953 -37.27098,-28.84311 -6.0713,-18.78542 0.83961,-41.0598096 0.762,-40.9363296 -0.17286,0.24694 0.0282,3.51013 5.49275,12.20258 11.02431,17.5083596 9.88836,14.7919696 23.5197,29.0124396 9.76489,10.19881 4.953,16.93686 7.49653,28.56442 v 0"
         style="fill:#8a8f27;fill-opacity:1;fill-rule:evenodd;stroke:none;stroke-width:0.0352778"
         id="path118" />
      <path
         d="m 211.86575,116.25359 c 1.27352,-15.80444 2.3883,-21.999221 -5.21759,-36.247911 -5.10469,-9.57792 21.3607,-23.53381 -4.99886,-53.60459 -18.65842,19.09586 -8.89353,34.94264 -1.04069,49.28659 8.33966,15.24705 4.20864,45.515381 4.36386,45.391911 1.24178,-0.88547 6.7063,-2.48355 6.89328,-4.826 v 0"
         style="fill:#8a8f27;fill-opacity:1;fill-rule:evenodd;stroke:none;stroke-width:0.0352778"
         id="path120" />
      <path
         d="m 228.84847,194.92656 c -15.0742,-7.63764 -21.31484,-10.15294 -30.13075,-23.78075 -5.94784,-9.17575 -33.06586,3.69359 -46.07631,-33.05175 27.54136,-4.03577 36.65361,12.13909 45.43778,26.035 9.31333,14.732 39.11953,28.03525 38.93255,28.09522 -1.48872,0.48331 -5.92666,3.8347 -8.16327,2.70228 v 0"
         style="fill:#8a8f27;fill-opacity:1;fill-rule:evenodd;stroke:none;stroke-width:0.0352778"
         id="path122" />
      <path
         d="m 144.92616,-117.0701 c 1.97203,21.283089 9.2075,25.925639 9.60967,58.868029 0.43392,34.74155 -1.55222,102.34789 -35.12961,100.65455 -63.507059,-3.18205 8.95703,-147.055409 25.51994,-159.522579 v 0"
         style="fill:#fff3cf;fill-opacity:1;fill-rule:evenodd;stroke:none;stroke-width:0.0352778"
         id="path124" />
      <path
         d="m 212.28555,-142.90049 c 22.42961,5.38692 29.58747,0.65264 63.42944,11.28536 35.687,11.20775 104.17881,35.471809 91.26361,64.082089 -24.43339,54.09847 -147.47522,-56.832499 -154.69305,-75.367449 v 0"
         style="fill:#fff3cf;fill-opacity:1;fill-rule:evenodd;stroke:none;stroke-width:0.0352778"
         id="path126" />
      <path
         d="m 196.59047,-188.6346 c 10.12119,-13.0563 8.4455,-18.93711 25.61166,-37.95536 18.11867,-20.0413 54.98748,-57.77794 73.27195,-41.7583 34.61808,30.33183 -82.83222,80.02411 -98.88361,79.71366 v 0"
         style="fill:#fff3cf;fill-opacity:1;fill-rule:evenodd;stroke:none;stroke-width:0.0352778"
         id="path128" />
      <path
         d="m 116.7498,-161.5589 c -16.46766,-5.18584 -18.827755,-10.8832 -44.799251,-17.13795 -27.386138,-6.60047 -81.1882756,-17.54363 -85.954303,5.29167 -9.020528,43.2188 117.884224,20.70806 130.753554,11.84628 v 0"
         style="fill:#fff3cf;fill-opacity:1;fill-rule:evenodd;stroke:none;stroke-width:0.0352778"
         id="path130" />
      <path
         d="m 134.2758,-178.99318 c -5.69736,-15.1518 -2.26483,-20.36586 -12.89755,-43.07769 -11.20775,-23.97125 -19.685,-51.96064 -42.164007,-41.35614 -42.520304,20.0413 39.571087,80.53564 55.061557,84.43383 v 0"
         style="fill:#fff3cf;fill-opacity:1;fill-rule:evenodd;stroke:none;stroke-width:0.0352778"
         id="path132" />
      <path
         d="M 108.56889,-123.37071 C 109.16155,-80.621101 58.086383,-20.744131 35.236967,-3.9025206 6.9971063,16.886679 -26.407421,5.7071494 5.321412,-32.992571 c 24.451027,-29.78856 76.796192,-72.619309 82.772248,-75.134609 12.51303,-5.26345 11.98387,-15.58572 20.47523,-15.24353 v 0"
         style="fill:#ffe4bd;fill-opacity:1;fill-rule:evenodd;stroke:none;stroke-width:0.0352778"
         id="path134" />
      <path
         d="m 171.09875,-124.48901 c 35.93747,27.058049 66.50566,98.636659 65.80716,125.6029894 -0.85372,33.2986996 -45.19083,52.6556096 -56.98772,5.36928 -2.56117,-10.29053 -14.76375,-124.9821094 -8.81944,-130.9722694 v 0"
         style="fill:#ffe4bd;fill-opacity:1;fill-rule:evenodd;stroke:none;stroke-width:0.0352778"
         id="path136" />
      <path
         d="m 219.40813,-173.39107 c 33.02,30.03903 115.26661,37.61669 144.27906,34.10656 35.84575,-4.34623 50.24966,-34.27589 -2.01789,-40.01911 -40.23783,-4.42384 -110.03139,0.66675 -116.14856,2.88572 -12.79172,4.6743 -20.49286,-2.83986 -26.11261,3.02683 v 0"
         style="fill:#ffe4bd;fill-opacity:1;fill-rule:evenodd;stroke:none;stroke-width:0.0352778"
         id="path138" />
      <path
         d="m 175.0428,-196.98485 c 12.51303,-23.86188 25.84803,-76.79619 -6.36411,-89.58791 -27.35439,12.3578 -23.02228,72.03016 2.26483,92.00797 0.38806,0.31044 3.78884,-1.83092 4.09928,-2.42006 v 0"
         style="fill:#fff3cf;fill-opacity:1;fill-rule:evenodd;stroke:none;stroke-width:0.0352778"
         id="path140" />
      <path
         d="m 216.27547,-142.32546 c -32.04281,27.3685 -104.24231,46.273859 -117.471475,23.85836 -9.870724,-16.71814 -4.794252,-84.37033 44.136025,-87.57002 51.14925,-3.33728 119.17539,24.54275 73.33545,63.71166 v 0"
         style="fill:#f5c747;fill-opacity:1;fill-rule:evenodd;stroke:none;stroke-width:0.0352778"
         id="path142" />
      <path
         d="m 189.78891,-172.87601 c 0.28222,6.13127 -8.91116,13.08452 -15.24352,4.26861 -9.48267,-13.22564 14.77786,-14.36159 15.24352,-4.26861 v 0"
         style="fill:#dfab57;fill-opacity:1;fill-rule:evenodd;stroke:none;stroke-width:0.0352778"
         id="path144" />
      <path
         d="m 185.94011,-196.81551 c 0.20108,4.30036 -6.25475,9.18986 -10.69622,2.99508 -6.64281,-9.28158 10.37166,-10.0718 10.69622,-2.99508 v 0"
         style="fill:#dfab57;fill-opacity:1;fill-rule:evenodd;stroke:none;stroke-width:0.0352778"
         id="path146" />
      <path
         d="m 159.31597,-187.26935 c 0.20461,4.30036 -6.24064,9.19339 -10.69622,2.99861 -6.64281,-9.28511 10.37166,-10.07533 10.69622,-2.99861 v 0"
         style="fill:#dfab57;fill-opacity:1;fill-rule:evenodd;stroke:none;stroke-width:0.0352778"
         id="path148" />
      <path
         d="m 148.46452,-168.62504 c -3.90877,2.36008 -4.4838,10.02947 3.57364,9.76489 12.06148,-0.40217 2.87161,-13.62781 -3.57364,-9.76489 v 0"
         style="fill:#dfab57;fill-opacity:1;fill-rule:evenodd;stroke:none;stroke-width:0.0352778"
         id="path150" />
      <path
         d="m 171.75139,-149.00001 c -3.91231,2.34244 -4.4697,10.01183 3.57011,9.74725 12.06147,-0.40217 2.88925,-13.63134 -3.57011,-9.74725 v 0"
         style="fill:#dfab57;fill-opacity:1;fill-rule:evenodd;stroke:none;stroke-width:0.0352778"
         id="path152" />
      <path
         d="m 203.62133,-183.69571 c -3.92642,2.34245 -4.48733,10.02595 3.57011,9.74725 12.04736,-0.38805 2.87161,-13.61369 -3.57011,-9.74725 v 0"
         style="fill:#dfab57;fill-opacity:1;fill-rule:evenodd;stroke:none;stroke-width:0.0352778"
         id="path154" />
      <path
         d="m 112.68228,-154.90199 c -3.90878,2.34598 -4.48381,10.02948 3.57363,9.76489 12.06148,-0.40216 2.87162,-13.6278 -3.57363,-9.76489 v 0"
         style="fill:#dfab57;fill-opacity:1;fill-rule:evenodd;stroke:none;stroke-width:0.0352778"
         id="path156" />
    </g>
  </g>
</svg>
