<?xml version="1.0" encoding="UTF-8" standalone="no"?>
<!-- Created with Inkscape (http://www.inkscape.org/) -->

<svg
   width="154.96181mm"
   height="242.33038mm"
   viewBox="0 0 154.96181 242.33038"
   version="1.1"
   id="svg5"
   xml:space="preserve"
   inkscape:version="1.2.1 (9c6d41e410, 2022-07-14)"
   sodipodi:docname="drawing.svg"
   xmlns:inkscape="http://www.inkscape.org/namespaces/inkscape"
   xmlns:sodipodi="http://sodipodi.sourceforge.net/DTD/sodipodi-0.dtd"
   xmlns="http://www.w3.org/2000/svg"
   xmlns:svg="http://www.w3.org/2000/svg"><sodipodi:namedview
     id="namedview7"
     pagecolor="#505050"
     bordercolor="#eeeeee"
     borderopacity="1"
     inkscape:showpageshadow="0"
     inkscape:pageopacity="0"
     inkscape:pagecheckerboard="0"
     inkscape:deskcolor="#505050"
     inkscape:document-units="mm"
     showgrid="false"
     inkscape:zoom="1.0255231"
     inkscape:cx="-2671.3197"
     inkscape:cy="1254.9693"
     inkscape:window-width="3840"
     inkscape:window-height="1526"
     inkscape:window-x="2869"
     inkscape:window-y="-11"
     inkscape:window-maximized="1"
     inkscape:current-layer="g2018"
     showguides="true" /><defs
     id="defs2" /><g
     inkscape:label="Layer 1"
     inkscape:groupmode="layer"
     id="layer1"
     style="display:inline"
     transform="translate(103.62313,-373.00927)"><g
       id="g12374"
       transform="matrix(2.2040458,0,0,2.2040458,-592.24467,-423.3803)"><path
         style="fill:#f6f9fb;stroke-width:0.524184"
         d="m 254.41788,407.12396 c -0.15667,0.0155 -0.29642,0.34987 -0.51263,0.89348 -0.32279,0.8116 -0.60344,1.87327 -0.62374,2.35903 -0.0203,0.48576 -0.24758,1.35507 -0.50539,1.93167 -0.30869,0.69038 -0.36245,0.10848 -0.15762,-1.70377 0.17105,-1.51358 0.12787,-2.75177 -0.0956,-2.75177 -0.22347,0 -1.54101,1.06116 -2.92798,2.35851 -1.38697,1.29736 -2.88575,2.35903 -3.33055,2.35903 -0.95375,0 -1.01826,0.81507 -0.24081,3.04529 0.62529,1.7937 1.82107,2.40628 3.75119,1.92185 0.82097,-0.20605 1.50064,-0.0302 1.94303,0.50281 1.09693,1.32172 3.46605,1.01737 4.74597,-0.60978 1.23559,-1.5708 1.21708,-1.76376 -0.68937,-7.2192 -0.78731,-2.25293 -1.09538,-3.11294 -1.3565,-3.08715 z"
         id="path10465" /><path
         style="fill:#f6f9fb;stroke-width:0.524184"
         d="m 265.70453,406.64957 c -0.52853,-0.0413 -0.19268,0.50271 0.94568,1.69809 1.48967,1.56428 5.02461,7.31409 4.99401,8.12301 -0.0115,0.30526 -0.40171,-0.1526 -0.86662,-1.0175 -1.18404,-2.20278 -3.24336,-4.96431 -5.08186,-6.81458 l -1.56218,-1.57251 1.71204,3.02256 c 1.24904,2.20468 1.76205,3.83342 1.8955,6.0203 0.14086,2.30834 0.44545,3.21108 1.32498,3.92327 2.34329,1.89748 4.98257,0.89907 6.21874,-2.35231 0.3485,-0.91663 0.93387,-1.44074 1.6092,-1.44074 1.27779,0 1.30881,-0.40816 0.23565,-3.09025 -0.92549,-2.31301 -4.01078,-4.76568 -6.0172,-4.78368 -0.70526,-0.006 -2.28459,-0.46651 -3.50987,-1.02268 -0.95274,-0.43247 -1.58096,-0.66819 -1.89807,-0.69298 z"
         id="path10463" /><path
         style="fill:#f6f9fb;stroke-width:0.524184"
         d="m 253.49545,405.95555 c -0.0472,-0.001 -0.10865,0.0197 -0.18293,0.0656 -0.285,0.17613 -0.51832,0.54262 -0.51832,0.81391 0,0.754 0.37604,0.58771 0.72451,-0.3204 0.13425,-0.34983 0.11842,-0.55556 -0.0233,-0.55914 z"
         id="path10455" /><path
         style="fill:#f6f9fb;stroke-width:0.524184"
         d="m 260.28884,405.87185 c 0.17953,-0.0741 0.69321,0.83623 1.23765,2.22984 0.62222,1.59268 1.03941,2.89594 0.92759,2.89594 -0.45946,0 -2.37065,-4.33026 -2.22105,-5.03225 0.0111,-0.0522 0.0302,-0.0829 0.0558,-0.0935 z"
         id="path10453" /><path
         style="fill:#f6f9fb;stroke-width:0.524184"
         d="m 257.88537,405.83565 c 0.1383,0.0622 0.31611,0.35289 0.44958,0.76223 0.17796,0.54579 0.56912,1.64843 0.8692,2.4505 0.30011,0.80208 0.42235,1.58166 0.27182,1.73219 -0.15053,0.15054 -0.65321,-0.84058 -1.11725,-2.20245 -0.46403,-1.36187 -0.73183,-2.58786 -0.59531,-2.72438 0.0341,-0.0341 0.0759,-0.0388 0.12196,-0.0181 z"
         id="path10451" /><path
         style="fill:#f6f9fb;stroke-width:0.524184"
         d="m 285.03823,404.76647 c -0.53614,0.0253 -1.18687,0.24054 -2.27738,0.66094 -1.34587,0.51884 -3.46505,1.12371 -4.70927,1.34411 -1.24423,0.22041 -2.62061,0.75922 -3.05873,1.19734 -0.71266,0.71266 -0.6125,0.92787 0.95033,2.0407 0.96078,0.68414 3.28098,1.64463 5.15576,2.13424 1.87476,0.48961 3.43228,0.90375 3.46128,0.92035 0.0291,0.0166 0.79585,-0.22868 1.70378,-0.54518 1.17761,-0.41052 1.65054,-0.90664 1.65054,-1.73013 0,-0.63489 0.27681,-1.43074 0.61495,-1.76888 0.86857,-0.86858 -0.11303,-2.81853 -1.90014,-3.77497 -0.63351,-0.33904 -1.05498,-0.50382 -1.59112,-0.47852 z"
         id="path10445" /><path
         style="fill:#f6f9fb;stroke-width:0.524184"
         d="m 260.8087,404.28487 c -0.11143,-0.0172 -0.22294,-0.016 -0.33848,5.2e-4 -0.93138,0.1328 -1.10354,0.47404 -1.00614,1.99522 l 0.11731,1.83452 -0.64131,-1.57252 c -0.48975,-1.20025 -0.98286,-1.57738 -2.08308,-1.59318 -1.69748,-0.0243 -1.82606,0.81348 -0.69556,4.53822 1.53732,5.0651 3.47946,7.77111 6.85436,9.55032 v 5.2e-4 c 2.01854,1.06372 2.59362,1.06518 3.47162,0.007 1.43836,-1.7331 0.71285,-5.12236 -2.17712,-10.1725 -1.95609,-3.41821 -2.72157,-4.4676 -3.5016,-4.58835 z"
         id="path10439" /><path
         style="fill:#f6f9fb;stroke-width:0.524184"
         d="m 271.62148,403.72422 c 0.1821,0.007 0.33872,0.0555 0.42581,0.14263 0.17418,0.17418 -0.13576,0.29823 -0.68833,0.27543 -0.61065,-0.0251 -0.73442,-0.14945 -0.31626,-0.31678 0.1892,-0.0757 0.39668,-0.10878 0.57878,-0.10128 z"
         id="path10435" /><path
         style="fill:#f6f9fb;stroke-width:0.524184"
         d="m 264.62087,402.14447 c 0.28382,-0.004 0.9449,0.2384 1.80248,0.72864 0.83997,0.48017 1.01675,0.75601 0.49299,0.76791 -0.44942,0.0102 -1.27488,-0.32809 -1.83451,-0.75138 -0.65154,-0.4928 -0.74478,-0.74164 -0.46096,-0.74517 z"
         id="path10431" /><path
         style="fill:#f6f9fb;stroke-width:0.524184"
         d="m 247.1377,400.82676 c -0.79675,-0.12664 -1.56178,0.59058 -3.64784,2.51509 -2.00452,1.8493 -2.30429,4.15283 -0.65526,5.03536 0.68647,0.36738 1.04852,1.09748 1.04852,2.11511 0,1.26772 0.21719,1.55051 1.17926,1.53531 0.64868,-0.0102 1.69727,-0.30602 2.33009,-0.65784 1.51235,-0.84079 4.62847,-4.51204 5.10098,-6.00946 0.53684,-1.70127 -0.99811,-2.14056 -2.51148,-0.71881 -0.6526,0.61307 -1.36138,1.11466 -1.5751,1.11466 -0.21372,0 0.24095,-0.54129 1.01028,-1.20303 l 1.39836,-1.20303 -1.91719,-1.46244 c -0.79305,-0.60489 -1.28257,-0.98493 -1.76062,-1.06092 z"
         id="path10423" /><path
         style="fill:#f6f9fb;stroke-width:0.524184"
         d="m 286.52083,400.02371 c -0.45942,0.0303 -1.07042,0.0986 -1.88258,0.19017 -1.80187,0.2031 -6.93218,0.53507 -11.40085,0.73794 -6.60951,0.30005 -8.39368,0.54928 -9.56634,1.33635 -0.79283,0.53214 -1.44126,1.14435 -1.44126,1.36012 0,0.47477 5.92739,3.18702 8.12457,3.71761 2.24373,0.54184 2.14809,0.54445 3.76618,-0.10904 0.8116,-0.32777 2.41918,-0.78246 3.57239,-1.01079 2.70003,-0.53459 8.71807,-2.57689 9.56634,-3.24631 0.36038,-0.28439 0.65526,-1.11058 0.65526,-1.83607 0,-0.981 -0.0155,-1.2309 -1.39371,-1.13998 z"
         id="path10419" /><path
         style="fill:#f6f9fb;stroke-width:0.524184"
         d="m 274.24251,396.38527 c 0.1821,0.007 0.33872,0.0555 0.42581,0.14263 0.17418,0.17418 -0.13576,0.29813 -0.68833,0.27543 -0.61065,-0.0251 -0.73494,-0.14945 -0.31678,-0.31678 0.1892,-0.0757 0.3972,-0.10878 0.5793,-0.10128 z"
         id="path10399" /><path
         style="fill:#f6f9fb;stroke-width:0.524184"
         d="m 282.89418,390.93547 c -4.42973,0.0847 -14.5365,2.6006 -16.35249,4.07056 -0.0788,0.0638 0.005,0.50349 0.18706,0.9772 0.24886,0.64851 1.06151,0.87455 3.28869,0.91415 l 2.95796,0.0527 -2.09651,0.49455 c -1.1532,0.27191 -2.50976,0.38814 -3.01429,0.25838 -0.67809,-0.17439 -0.91725,0.0817 -0.91725,0.98185 0,0.66973 0.29488,1.3537 0.65525,1.52032 0.36038,0.1666 3.41959,0.1982 6.79804,0.0703 5.9051,-0.22359 6.24965,-0.30118 8.91108,-2.00711 3.34265,-2.14258 4.30349,-3.22773 3.86643,-4.36666 -0.18138,-0.47267 -0.0784,-1.16197 0.22893,-1.53221 0.9051,-1.09059 -0.42188,-1.51232 -4.5129,-1.43402 z"
         id="path10391" /><path
         style="fill:#f6f9fb;stroke-width:0.524184"
         d="m 268.84697,389.82081 c 0.0273,0.0231 0.0195,0.0733 -0.0294,0.15245 -0.37398,0.60512 -2.39417,1.8256 -2.39417,1.44642 0,-0.12113 0.61834,-0.62587 1.37459,-1.12138 0.56719,-0.37163 0.96716,-0.54669 1.04903,-0.47749 z"
         id="path10389" /><path
         style="fill:#f6f9fb;stroke-width:0.524184"
         d="m 228.27735,389.5061 c -3.57023,0 -4.76542,0.79601 -3.82715,2.5492 0.30727,0.57414 0.4184,1.40959 0.24701,1.85622 -0.34769,0.90605 0.60454,1.41541 4.77077,2.55126 l 2.62103,0.71469 -2.88303,1.46451 c -3.67527,1.86747 -6.29006,3.82821 -6.29006,4.71599 0,0.38154 0.64843,1.42263 1.44126,2.31355 0.79283,0.89092 1.71188,1.52672 2.04225,1.41335 0.33037,-0.11336 1.56907,-0.49609 2.75229,-0.85059 1.4139,-0.42361 2.15129,-0.94749 2.15129,-1.52859 0,-0.48629 0.4714,-1.31113 1.048,-1.83296 0.57661,-0.52182 1.04851,-1.24558 1.04851,-1.60869 0,-1.21207 4.80501,-3.44878 7.86257,-3.65972 l 2.88303,-0.19896 -2.47117,0.45992 c -3.01559,0.561 -7.25484,2.61184 -7.63054,3.69125 -0.15166,0.43571 -0.73736,1.30537 -1.30121,1.9327 -2.00207,2.2275 -0.0523,2.79527 5.66063,1.64796 2.50033,-0.50214 3.45643,-1.01277 5.06843,-2.70733 1.09267,-1.14864 1.86307,-2.21213 1.71204,-2.36316 -0.15102,-0.15102 -1.35974,0.25241 -2.68563,0.89658 -1.32588,0.64417 -2.53605,1.04565 -2.68924,0.89246 -0.15319,-0.15319 1.05272,-0.88773 2.67943,-1.63246 l 2.95744,-1.35392 -0.79427,-1.53635 c -0.94046,-1.81863 -2.22184,-1.94568 -7.82381,-0.77359 -4.2601,0.89133 -5.16231,0.68823 -1.51619,-0.34158 l 2.5244,-0.71314 -2.87321,-1.16633 c -1.99279,-0.8091 -2.35101,-1.07292 -1.16944,-0.86093 2.27565,0.40828 2.16364,-0.374 -0.33745,-2.3549 -1.76574,-1.39849 -2.46463,-1.61644 -5.17798,-1.61644 z"
         id="path10385" /><path
         style="fill:#f6f9fb;stroke-width:0.524184"
         d="m 287.67786,386.36107 c -0.33263,0 -1.63502,0.75733 -2.89388,1.68311 l -2.28875,1.6831 2.84066,0.54467 c 2.78616,0.53407 2.83832,0.57762 2.70784,2.24844 -0.1572,2.01299 -0.0214,2.04626 2.34973,0.58084 1.58838,-0.98168 1.77683,-1.31831 1.50327,-2.68614 -0.17204,-0.86019 -0.31265,-1.86525 -0.31265,-2.23345 0,-0.6268 -2.56117,-1.82057 -3.90622,-1.82057 z"
         id="path10381" /><path
         style="fill:#f6f9fb;stroke-width:0.524184"
         d="m 233.95298,385.90581 c 0.17392,0.079 0.99318,0.75229 2.59157,2.08152 1.87396,1.5584 4.11515,3.35576 4.98006,3.99407 0.8649,0.63832 1.3363,1.16227 1.048,1.16427 -0.82579,0.006 -5.03537,-3.29438 -7.33857,-5.75313 -0.98363,-1.05006 -1.45499,-1.56572 -1.28106,-1.48673 z"
         id="path10379" /><path
         style="fill:#f6f9fb;stroke-width:0.524184"
         d="m 236.81792,382.69258 c 0.28212,5.2e-4 1.92836,1.27247 3.65817,2.82671 1.72981,1.55424 3.02718,2.94364 2.88303,3.08715 -0.14415,0.14352 -1.7904,-1.12843 -3.65817,-2.82671 -1.86778,-1.69827 -3.16516,-3.08767 -2.88303,-3.08715 z"
         id="path10367" /><path
         style="fill:#f6f9fb;stroke-width:0.524184"
         d="m 244.53683,381.86317 c 0.11374,-0.11374 0.59903,0.61617 1.07848,1.6216 0.47946,1.00543 0.76357,1.8278 0.63149,1.8278 -0.35868,0 -1.94976,-3.20961 -1.70997,-3.4494 z"
         id="path10359" /><path
         style="fill:#f6f9fb;stroke-width:0.524184"
         d="m 286.74355,379.12486 c -0.46277,-0.027 -1.04771,0.026 -1.7849,0.13385 -1.40131,0.20508 -3.96339,0.9547 -5.69319,1.66553 -1.72981,0.71083 -4.34295,1.75482 -5.8074,2.32027 -1.98135,0.76503 -3.43905,1.90703 -5.69681,4.46278 l -3.03392,3.43441 1.22938,1.30897 c 0.67744,0.72109 1.58766,1.1894 2.02726,1.04283 2.01447,-0.67169 8.36675,-2.46484 10.49549,-2.96261 2.52129,-0.58958 5.06411,-2.0768 8.08529,-4.72943 1.51118,-1.32684 1.87204,-2.01633 1.86604,-3.55741 -0.009,-2.23304 -0.29893,-3.03806 -1.68724,-3.11919 z"
         id="path10351" /><path
         style="fill:#f6f9fb;stroke-width:0.524184"
         d="m 230.01988,375.87752 c -1.08025,0 -3.96028,2.92045 -3.95428,4.0106 0.008,1.64709 2.9772,6.25348 5.87871,9.12193 3.52926,3.48901 6.24143,5.28873 8.68836,5.7645 3.09391,0.60157 3.13564,0.58768 3.01067,-1.00097 -0.0789,-1.00325 -0.83875,-2.15014 -2.29805,-3.46852 -1.19899,-1.08322 -2.17971,-2.22667 -2.17971,-2.54145 0,-0.31478 1.01122,0.42027 2.24741,1.6335 2.09826,2.05928 3.49093,2.90915 2.71818,1.65881 -0.18599,-0.30093 -0.0559,-0.88771 0.28938,-1.3038 1.11513,-1.34364 0.0732,-3.21287 -3.77961,-6.77995 -3.67147,-3.3992 -9.2037,-7.09465 -10.62106,-7.09465 z"
         id="path10333" /><path
         style="fill:#f6f9fb;stroke-width:0.524184"
         d="m 224.97368,373.49622 c -0.7604,0.0125 -1.3689,0.3283 -2.21072,1.07332 -1.67991,1.48672 -1.42238,2.54642 1.06195,4.36821 1.27702,0.93644 1.4723,0.96222 1.63815,0.21445 0.10355,-0.46687 0.8862,-1.54714 1.73942,-2.40037 1.76649,-1.76649 1.38465,-2.62987 -1.40353,-3.1719 -0.30155,-0.0586 -0.5718,-0.0879 -0.82527,-0.0837 z"
         id="path10317" /><path
         style="fill:#f6f9fb;stroke-width:0.524184"
         d="m 247.14029,373.27711 c 0.22119,-0.10994 0.76092,1.4471 1.53995,4.4881 0.57423,2.24156 1.39838,4.76072 1.83142,5.5981 0.9657,1.86748 0.5663,2.50733 -0.50902,0.81546 -0.81066,-1.27548 -2.97449,-8.717 -2.97449,-10.22935 0,-0.41388 0.0384,-0.63567 0.11214,-0.67231 z"
         id="path10313" /><path
         style="fill:#f6f9fb;stroke-width:0.524184"
         d="m 266.56597,364.52162 c -0.5009,0.0132 -0.97512,0.0684 -1.35444,0.17415 -0.8296,0.23121 -0.90454,0.63931 -0.59531,3.23339 0.19463,1.63271 0.52793,3.1574 0.74052,3.38843 0.3594,0.39058 2.56,-1.83743 4.08813,-4.13928 0.36445,-0.54902 0.31974,-0.27112 -0.0992,0.61753 -0.41896,0.88865 -1.60163,2.62108 -2.62827,3.84989 -1.20754,1.44534 -1.86706,2.77697 -1.86706,3.77187 0,1.59247 -2.42919,6.87303 -4.36925,9.49709 -0.92909,1.25667 -0.98773,1.57534 -0.36018,1.96319 0.56072,0.34655 1.20185,-0.22071 2.54765,-2.25464 2.2763,-3.44023 3.08329,-4.27575 1.93631,-2.00453 -1.48143,2.93348 0.27385,1.70617 2.19573,-1.53531 2.51083,-4.23479 2.85003,-4.6356 1.96423,-2.32286 -0.98777,2.57895 -4.23583,7.39909 -5.65599,8.39381 -1.0386,0.72747 -1.03617,0.7461 0.21497,1.77043 l 1.26453,1.0356 1.99729,-1.93063 c 1.09849,-1.0619 2.81453,-3.15879 3.8132,-4.65967 0.99867,-1.50088 2.08678,-2.89643 2.41794,-3.1011 0.33116,-0.20467 0.20738,0.19148 -0.27491,0.88005 -1.39196,1.98729 -1.08226,2.07221 2.39933,0.65991 1.80188,-0.73093 5.11744,-1.91168 7.36803,-2.62413 4.01986,-1.27253 5.00837,-2.3275 2.52232,-2.69234 -0.65486,-0.0961 -1.37839,-0.72869 -1.64951,-1.44178 -0.5746,-1.51131 -1.4946,-1.57976 -4.88549,-0.36431 -1.99511,0.71513 -2.75782,1.33552 -3.54862,2.88561 -1.52307,2.98546 -1.63096,2.36523 -0.15089,-0.86765 1.53014,-3.34228 2.15356,-7.54697 1.34358,-9.06043 -0.40347,-0.75389 -1.32237,-1.16169 -3.16879,-1.40663 -1.43031,-0.18974 -2.6892,-0.61015 -2.79725,-0.93431 -0.16088,-0.48266 -1.90587,-0.82094 -3.40858,-0.78135 z"
         id="path10287" /><path
         style="fill:#f6f9fb;stroke-width:0.524184"
         d="m 239.19038,362.85144 c -0.72925,0.0289 -1.42807,0.49623 -2.30425,1.41077 -1.89203,1.97484 -1.95285,1.80906 4.21835,11.4918 1.05369,1.6535 1.53138,2.69168 1.06092,2.30684 -0.47047,-0.38484 -1.43912,-1.69549 -2.15233,-2.91249 -1.00941,-1.72244 -2.05766,-2.5839 -4.73046,-3.8871 -4.25294,-2.07366 -5.60066,-2.12696 -6.46989,-0.25528 -1.08637,2.33922 -0.79461,3.02193 1.83503,4.29845 5.76618,2.79909 14.80788,10.17149 14.80788,12.07368 0,0.78992 0.60535,0.67148 1.98076,-0.38706 l 1.19373,-0.91881 -2.33784,-5.19141 c -2.06816,-4.59166 -2.38072,-5.78664 -2.70423,-10.34976 -0.34491,-4.86492 -0.45351,-5.23299 -1.90996,-6.45852 -0.99853,-0.8402 -1.75845,-1.25003 -2.48771,-1.22111 z"
         id="path10281" /><path
         style="fill:#f6f9fb;stroke-width:0.524184"
         d="m 245.72022,361.95124 c -0.59506,0.07 -1.33321,1.18378 -1.61282,2.67425 -0.52744,2.8115 0.61339,11.29263 1.90531,14.16503 0.64082,1.42479 1.66203,3.70192 2.26962,5.06015 1.06701,2.38518 2.00204,3.07913 2.67736,1.98645 0.17818,-0.2883 0.80752,-0.52452 1.39836,-0.52452 0.85176,0 1.01297,-0.24416 0.7798,-1.17926 -1.01618,-4.07511 -1.44913,-11.20364 -0.86765,-14.28543 0.52163,-2.76456 0.49381,-3.51669 -0.18035,-4.82038 -1.18141,-2.28461 -2.17227,-2.92133 -3.94187,-2.53266 -0.92209,0.20253 -1.68855,0.10522 -1.90273,-0.24133 -0.14425,-0.2334 -0.32668,-0.32563 -0.52503,-0.3023 z"
         id="path10277" /><path
         style="fill:#f6f9fb;stroke-width:0.524184"
         d="m 258.71581,361.33215 c -0.91819,0.0445 -1.89944,1.17524 -3.78065,4.06177 -1.85342,2.8439 -1.87896,2.95732 -1.87896,8.38657 0,6.69967 0.987,11.67124 2.26757,11.42462 0.47842,-0.0921 1.04037,-0.87185 1.24901,-1.73322 0.33105,-1.36675 0.35312,-1.3199 0.17312,0.36845 -0.12478,1.17032 0.0375,2.03415 0.41083,2.18643 0.33948,0.13845 0.77416,0.2703 0.96583,0.293 0.63424,0.0753 3.96186,-4.89139 5.16609,-7.71064 1.08777,-2.54659 1.15412,-3.24855 0.81442,-8.61704 -0.40202,-6.35334 -0.83692,-7.74372 -2.4231,-7.74372 -0.57037,0 -1.48677,-0.28069 -2.03606,-0.62373 -0.32303,-0.20174 -0.62204,-0.30731 -0.9281,-0.29249 z"
         id="path10273" /><path
         style="fill:#f3cb46;stroke-width:0.524184"
         d="m 243.40038,393.39365 c 0.0251,-0.61065 0.14937,-0.73486 0.3167,-0.3167 0.15142,0.3784 0.1328,0.8305 -0.0414,1.00469 -0.17418,0.17418 -0.29807,-0.13542 -0.27531,-0.68799 z"
         id="path11563" /><path
         style="fill:#f3cb46;stroke-width:0.524184"
         d="m 243.92457,395.49039 c 0.0251,-0.61065 0.14936,-0.73486 0.31669,-0.3167 0.15143,0.37839 0.1328,0.8305 -0.0414,1.00469 -0.17418,0.17418 -0.29807,-0.13542 -0.27531,-0.68799 z"
         id="path11559" /><path
         style="fill:#f3cb46;stroke-width:0.524184"
         d="m 245.38888,398.54813 c -0.65202,-0.83139 -0.63348,-0.84993 0.1979,-0.19792 0.50453,0.39568 0.91733,0.80848 0.91733,0.91733 0,0.43142 -0.43046,0.15375 -1.11523,-0.71941 z"
         id="path11555" /><path
         style="fill:#f3cb46;stroke-width:0.524184"
         d="m 257.37001,389.18925 c -0.17419,-0.17418 -0.62629,-0.1928 -1.00469,-0.0414 -0.41815,0.16733 -0.29395,0.29154 0.3167,0.31669 0.55257,0.0228 0.86217,-0.10113 0.68799,-0.27531 z"
         id="path11549" /><path
         style="fill:#f3cb46;stroke-width:0.524184"
         d="m 253.59474,389.00465 c -0.17039,-0.27571 -0.65608,-0.36841 -1.0793,-0.20601 -1.08355,0.4158 -0.95586,0.70731 0.30982,0.70731 0.59361,0 0.93988,-0.22559 0.76948,-0.5013 z"
         id="path11547" /><path
         style="fill:#f3cb46;stroke-width:0.524184"
         d="m 249.85558,391.82098 c 0.1959,-0.51051 0.0788,-0.75015 -0.3043,-0.62247 -0.78357,0.26119 -1.215,1.45254 -0.52602,1.45254 0.28149,0 0.65513,-0.37353 0.83032,-0.83007 z"
         id="path11545" /><path
         style="fill:#f3cb46;stroke-width:0.524184"
         d="m 262.75382,392.48033 c 0,-0.85817 -2.49734,-3.2727 -2.93366,-2.83638 -0.17427,0.17428 0.17862,0.84871 0.78421,1.49874 0.60559,0.65002 1.10108,1.37326 1.10108,1.6072 0,0.23394 0.23588,0.42535 0.52418,0.42535 0.28831,0 0.52419,-0.31271 0.52419,-0.69491 z"
         id="path11543" /><path
         style="fill:#f3cb46;stroke-width:0.524184"
         d="m 263.55382,402.06416 c 0.19261,-0.31165 0.917,-0.78214 1.60975,-1.04552 0.94677,-0.35997 1.25954,-0.87259 1.25954,-2.0644 0,-1.34177 -0.20147,-1.58553 -1.31046,-1.58553 -0.72076,0 -1.31046,-0.23185 -1.31046,-0.51523 0,-0.28337 -0.88456,-0.0107 -1.96569,0.60591 -2.5749,1.4686 -5.48981,1.29839 -8.518,-0.49738 -1.29735,-0.76936 -2.50442,-1.35685 -2.68239,-1.30554 -0.17795,0.0513 -0.82133,-0.43656 -1.42973,-1.08418 -0.7486,-0.79684 -1.17586,-2.06959 -1.32174,-3.93725 -0.11857,-1.51788 -0.32835,-2.87256 -0.4662,-3.01041 -0.13785,-0.13785 -0.98967,0.59109 -1.89294,1.61986 -0.90327,1.02877 -1.64231,1.65385 -1.64231,1.38906 0,-0.97677 4.22299,-4.27271 5.4745,-4.27271 0.70291,0 1.4238,-0.23588 1.60198,-0.52418 0.47905,-0.77512 4.39248,-0.6222 6.95938,0.27194 2.96235,1.03189 6.37917,3.21997 6.77256,4.33705 0.17334,0.49222 0.72159,1.36671 1.21834,1.94331 0.68337,0.79323 0.88761,1.93001 0.83922,4.67099 -0.0624,3.53225 -0.10739,3.64691 -1.80477,4.59673 -0.95743,0.53578 -1.5832,0.71914 -1.39058,0.40748 z"
         id="path11541" /><path
         style="fill:#f3cb46;stroke-width:0.524184"
         d="m 248.66076,401.79731 c -1.2644,-0.99422 -2.13481,-1.80768 -1.93424,-1.80768 0.20056,0 1.44591,0.82559 2.76743,1.83465 1.32151,1.00905 2.19192,1.82251 1.93424,1.80768 -0.25768,-0.0148 -1.50303,-0.84043 -2.76743,-1.83465 z"
         id="path11539" /><path
         style="fill:#f3cb46;stroke-width:0.524184"
         d="m 261.18127,403.98519 c 0,-0.10884 0.41279,-0.52164 0.91732,-0.91732 0.83139,-0.65201 0.84993,-0.63347 0.19791,0.19791 -0.68478,0.87316 -1.11523,1.15084 -1.11523,0.71941 z"
         id="path11535" /><path
         style="fill:#e7a314;stroke-width:0.524184"
         d="m 256.36532,389.14792 c 0.3784,-0.15142 0.8305,-0.1328 1.00469,0.0414 0.17418,0.17418 -0.13542,0.29807 -0.68799,0.27531 -0.61065,-0.0252 -0.73485,-0.14936 -0.3167,-0.31669 z"
         id="path11667" /><path
         style="fill:#e7a314;stroke-width:0.524184"
         d="m 251.74595,389.29999 c 0,-0.49726 1.56908,-0.74787 1.84879,-0.29529 0.1704,0.27571 -0.17587,0.5013 -0.76948,0.5013 -0.59362,0 -1.07931,-0.0927 -1.07931,-0.20601 z"
         id="path11665" /><path
         style="fill:#e7a314;stroke-width:0.524184"
         d="m 248.60084,392.183 c 0,-0.25746 0.34182,-0.59927 0.75958,-0.75958 0.50769,-0.19482 0.66292,-0.0396 0.46811,0.4681 -0.31817,0.82912 -1.22769,1.04506 -1.22769,0.29148 z"
         id="path11663" /><path
         style="fill:#e7a314;stroke-width:0.524184"
         d="m 260.99483,391.59493 c -0.81,-0.90908 -1.35074,-1.77485 -1.20165,-1.92394 0.4445,-0.4445 3.10429,2.28707 2.88055,2.95829 -0.11873,0.35618 -0.83084,-0.0825 -1.6789,-1.03435 z"
         id="path11661" /><path
         style="fill:#e7a314;stroke-width:0.524184"
         d="m 255.17342,404.84273 c -1.81304,-0.26438 -6.32532,-3.14282 -8.64319,-5.51359 -3.07443,-3.14461 -3.30174,-7.97333 -0.50162,-10.65602 0.83813,-0.80297 1.53516,-1.35685 1.54895,-1.23083 0.0138,0.12601 0.13704,1.5169 0.27387,3.09087 0.16845,1.93783 0.60591,3.24192 1.35495,4.03923 0.6084,0.64762 1.25178,1.1355 1.42973,1.08418 0.17797,-0.0513 1.38504,0.53618 2.68239,1.30554 3.02819,1.79577 5.9431,1.96598 8.518,0.49738 1.08113,-0.61662 1.96569,-0.88928 1.96569,-0.60591 0,0.28338 0.5897,0.51523 1.31046,0.51523 1.10962,0 1.31046,0.24352 1.31046,1.589 0,1.03713 -0.3186,1.70457 -0.91732,1.92174 -0.50453,0.183 -1.74292,0.96704 -2.75197,1.74231 -1.00906,0.77527 -2.42435,1.53134 -3.14511,1.68015 -0.72075,0.14881 -1.66428,0.38228 -2.09673,0.51882 -0.43246,0.13655 -1.48481,0.1464 -2.33856,0.0219 z"
         id="path11655" /><path
         style="fill:#90a334;stroke-width:0.524184"
         d="m 282.67282,430.68978 c 0,-1.03618 1.83244,-1.52411 3.12531,-0.83219 1.69078,0.90488 1.25011,1.58315 -1.02857,1.58315 -1.47048,0 -2.09674,-0.2243 -2.09674,-0.75096 z"
         id="path11959" /><path
         style="fill:#90a334;stroke-width:0.524184"
         d="m 279.29156,430.95851 c -0.16391,-0.26521 0.32995,-0.97617 1.09746,-1.57989 0.76751,-0.60373 1.24794,-1.24522 1.06763,-1.42553 -0.18032,-0.18032 -1.16479,0.31051 -2.18771,1.09073 -1.02291,0.78022 -2.35024,1.34385 -2.9496,1.25251 l -1.08975,-0.16607 1.13873,-1.44151 c 1.4125,-1.78804 4.5264,-2.02165 5.87971,-0.4411 0.80004,0.93438 0.77956,1.07275 -0.31043,2.09673 -1.25201,1.1762 -2.16736,1.38865 -2.64604,0.61413 z"
         id="path11957" /><path
         style="fill:#90a334;stroke-width:0.524184"
         d="m 272.20211,430.62032 c 0.28116,-0.73952 0.51121,-1.91893 0.51121,-2.62092 0,-1.05201 0.26103,-1.27634 1.48519,-1.27634 2.11343,0 2.30894,0.44583 1.00844,2.29966 -2.04367,2.91321 -3.87529,3.88704 -3.00484,1.5976 z"
         id="path11955" /><path
         style="fill:#90a334;stroke-width:0.524184"
         d="m 268.71823,430.84195 c 0.2998,-1.49905 1.56485,-3.01192 2.55358,-3.05385 0.82683,-0.0351 0.34468,2.65271 -0.65523,3.65262 -1.56157,1.56157 -2.2848,1.33345 -1.89835,-0.59877 z"
         id="path11953" /><path
         style="fill:#90a334;stroke-width:0.524184"
         d="m 263.03545,433.1404 c 0.21495,-0.50239 0.49814,-1.53462 0.62931,-2.29383 0.27116,-1.56955 2.32658,-2.75868 3.90338,-2.25822 0.91307,0.2898 0.78294,0.54826 -1.19589,2.3751 -1.22126,1.12746 -2.04711,2.22328 -1.83523,2.43516 0.21188,0.21188 0.82474,-0.19742 1.3619,-0.90956 0.53717,-0.71214 1.15568,-1.1158 1.37446,-0.89701 0.6594,0.65941 -1.16258,2.05822 -2.95229,2.26661 -1.42846,0.16632 -1.61864,0.0601 -1.28564,-0.71825 z"
         id="path11939" /><path
         style="fill:#90a334;stroke-width:0.524184"
         d="m 260.65708,432.73425 c 0,-1.43845 0.26314,-1.95108 1.17942,-2.29773 0.64867,-0.24541 1.24825,-0.38519 1.33239,-0.31063 0.31751,0.28136 -1.59805,4.4599 -2.04454,4.4599 -0.257,0 -0.46727,-0.8332 -0.46727,-1.85154 z"
         id="path11937" /><path
         style="fill:#90a334;stroke-width:0.524184"
         d="m 281.3315,435.92828 c -0.9678,-0.71739 -0.97288,-0.79952 -0.10393,-1.68113 0.71356,-0.72396 1.05211,-0.78836 1.54634,-0.29413 0.34802,0.34802 1.47015,0.61619 2.49362,0.59592 1.51726,-0.03 1.66728,-0.12002 0.81249,-0.48734 -0.57661,-0.24778 -0.72464,-0.46708 -0.32896,-0.48734 0.55156,-0.0283 0.57942,-0.20553 0.11942,-0.75979 -0.47883,-0.57697 -0.32967,-0.77462 0.73873,-0.97886 0.99144,-0.18952 1.60635,0.0843 2.37045,1.05573 1.641,2.0862 1.32471,2.51816 -1.84379,2.51816 -1.58154,0 -3.16195,0.28643 -3.51203,0.63651 -0.8125,0.8125 -1.05417,0.80008 -2.29234,-0.11773 z"
         id="path11923" /><path
         style="fill:#90a334;stroke-width:0.524184"
         d="m 255.41524,438.55231 c 0,-0.57034 3.53383,-5.91767 4.17099,-6.31146 0.40994,-0.25335 0.48379,0.0872 0.24321,1.1216 -0.2996,1.28817 -4.4142,6.12578 -4.4142,5.18986 z"
         id="path11913" /><path
         style="fill:#90a334;stroke-width:0.524184"
         d="m 274.9024,438.17603 c -1.44959,-1.7739 -1.31911,-3.26373 0.30615,-3.4956 1.02797,-0.14666 1.17406,0.0653 1.17406,1.7036 0,1.0291 0.21169,1.8711 0.47043,1.8711 0.25873,0 0.43564,-0.76662 0.39314,-1.7036 -0.0634,-1.39615 0.13555,-1.73383 1.10212,-1.8711 0.64927,-0.0922 1.17941,0.10949 1.17941,0.44874 0,0.33894 0.62379,1.10692 1.3862,1.70663 1.28918,1.01407 1.31669,1.11766 0.39314,1.48011 -0.54618,0.21434 -1.85796,0.4063 -2.91507,0.42656 -1.0571,0.0203 -2.00063,0.2365 -2.09674,0.48052 -0.0961,0.24403 -0.72288,-0.22711 -1.39284,-1.04696 z"
         id="path11909" /><path
         style="fill:#90a334;stroke-width:0.524184"
         d="m 267.73357,441.01261 c -0.99327,-0.7554 -2.82615,-3.68799 -2.50545,-4.00869 0.60257,-0.60256 1.81399,-0.32285 3.14869,0.72702 0.73303,0.57661 1.71377,1.03893 2.17942,1.02738 0.50507,-0.0125 0.21222,-0.3691 -0.72593,-0.88387 l -1.57255,-0.86289 1.9781,-0.42097 c 1.80985,-0.38516 2.10949,-0.27655 3.52288,1.27701 1.81317,1.99299 1.98389,2.73244 0.52714,2.28331 -0.5766,-0.17778 -1.49753,-0.46277 -2.04649,-0.63332 -0.74636,-0.23187 -0.97775,-0.0666 -0.91733,0.65523 0.0598,0.71489 -0.32715,1.00075 -1.49175,1.10188 -0.8649,0.0751 -1.80843,-0.0428 -2.09673,-0.26209 z"
         id="path11905" /><path
         style="fill:#90a334;stroke-width:0.524184"
         d="m 263.16013,441.63151 c -1.33877,-0.72653 -2.83417,-2.69581 -2.38681,-3.14317 0.11065,-0.11065 1.00139,-0.26736 1.97942,-0.34824 1.50512,-0.12448 1.94365,0.11148 2.85534,1.53634 0.59242,0.92588 1.3859,1.6925 1.76329,1.7036 0.37739,0.0111 0.54038,0.25608 0.3622,0.54438 -0.47056,0.76138 -2.91973,0.60451 -4.57344,-0.29291 z"
         id="path11899" /><path
         style="fill:#90a334;stroke-width:0.524184"
         d="m 258.43485,442.47125 -2.48431,-0.88555 1.46463,-1.40321 c 1.80526,-1.72955 2.51248,-1.76813 2.91632,-0.1591 0.18104,0.72128 0.97311,1.51784 1.88481,1.89548 0.86491,0.35825 1.4437,0.85988 1.28619,1.11473 -0.40781,0.65985 -2.19534,0.4615 -5.06764,-0.56235 z"
         id="path11893" /><path
         style="fill:#778c2b;stroke-width:0.524184"
         d="m 250.78034,422.00538 c 0,-0.72075 0.11898,-1.0156 0.2644,-0.65523 0.14541,0.36038 0.14541,0.95009 0,1.31046 -0.14542,0.36038 -0.2644,0.0655 -0.2644,-0.65523 z"
         id="path12261" /><path
         style="fill:#778c2b;stroke-width:0.524184"
         d="m 276.51365,431.05689 c -1.22528,-0.11036 -2.22778,-0.32759 -2.22778,-0.48274 0,-0.61144 2.19942,-3.32692 2.69466,-3.32692 0.2896,0 0.0141,0.64867 -0.61221,1.4415 l -1.13873,1.44151 1.08975,0.16607 c 0.59936,0.0913 1.92669,-0.47229 2.9496,-1.25251 1.02292,-0.78022 2.00739,-1.27105 2.18771,-1.09073 0.18031,0.18031 -0.30012,0.8218 -1.06763,1.42552 -0.76751,0.60373 -1.26137,1.31468 -1.09746,1.5799 0.16392,0.26521 0.10719,0.441 -0.12605,0.39063 -0.23324,-0.0504 -1.42658,-0.18187 -2.65186,-0.29223 z"
         id="path12253" /><path
         style="fill:#778c2b;stroke-width:0.524184"
         d="m 270.65181,431.40544 c 0.55723,-0.55723 1.01314,-1.70687 1.01314,-2.55476 0,-0.84789 0.23588,-1.6874 0.52418,-1.86558 0.68286,-0.42203 0.67541,1.7686 -0.0127,3.74257 -0.3216,0.92254 -0.93809,1.5704 -1.53733,1.61554 -0.97931,0.0738 -0.97905,0.054 0.0127,-0.93777 z"
         id="path12249" /><path
         style="fill:#778c2b;stroke-width:0.524184"
         d="m 264.689,432.67128 c 0.42008,-0.64113 1.61011,-1.8112 2.64449,-2.60017 l 1.8807,-1.43448 -0.34001,1.27098 c -0.18701,0.69905 -0.34324,1.5091 -0.34718,1.80013 -0.004,0.29103 -0.53789,0.85966 -1.18657,1.26363 -1.08484,0.67559 -1.12088,0.66367 -0.44949,-0.14867 0.40146,-0.48573 0.55909,-1.054 0.35028,-1.2628 -0.42108,-0.42109 -1.95464,1.41082 -1.62608,1.94243 0.11375,0.18405 -0.21995,0.33464 -0.74156,0.33464 -0.8597,0 -0.87695,-0.10899 -0.18458,-1.16569 z"
         id="path12243" /><path
         style="fill:#778c2b;stroke-width:0.524184"
         d="m 262.64129,431.89391 c 0.46832,-1.19224 0.94476,-1.8879 1.05875,-1.54591 0.25796,0.77385 -0.923,3.71362 -1.49183,3.71362 -0.23013,0 -0.0352,-0.97547 0.43308,-2.16771 z"
         id="path12241" /><path
         style="fill:#778c2b;stroke-width:0.524184"
         d="m 258.56938,435.95328 c 0.42748,-0.54526 1.03033,-1.84261 1.33967,-2.88302 l 0.56243,-1.89165 0.24964,1.96569 c 0.13875,1.0926 0.0237,1.96569 -0.25907,1.96569 -0.27978,0 -0.99497,0.41279 -1.58931,0.91732 -1.04304,0.88543 -1.05359,0.88286 -0.30336,-0.074 z"
         id="path12227" /><path
         style="fill:#778c2b;stroke-width:0.524184"
         d="m 251.87814,439.56559 c 0.006,-1.1532 0.11316,-1.56325 0.23854,-0.91121 0.12538,0.65204 0.12062,1.59557 -0.0106,2.09674 -0.1312,0.50117 -0.23379,-0.0323 -0.22797,-1.18553 z"
         id="path12219" /><path
         style="fill:#778c2b;stroke-width:0.524184"
         d="m 261.8251,441.80376 c -0.65494,-0.31565 -1.32919,-1.12527 -1.49833,-1.79917 -0.40081,-1.59696 -1.10368,-1.54612 -2.9893,0.21623 l -1.54233,1.44151 0.91742,-1.43955 c 1.45,-2.27522 4.95472,-4.58857 6.95168,-4.58857 0.96375,0 2.677,-0.47177 3.80724,-1.04837 1.13023,-0.5766 2.71304,-1.04982 3.51736,-1.0516 0.80431,-0.002 2.14416,-0.35878 2.97743,-0.79334 1.14389,-0.59655 2.36382,-0.70352 4.97975,-0.43667 3.05219,0.31135 3.38691,0.25926 2.81133,-0.43755 -0.53485,-0.6475 -0.46295,-0.96333 0.39635,-1.74099 0.57735,-0.52249 1.20554,-0.79418 1.39597,-0.60375 0.19043,0.19043 0.071,0.34624 -0.2653,0.34624 -0.33635,0 -0.61155,0.35383 -0.61155,0.78628 0,0.57854 0.65783,0.80513 2.48987,0.85766 1.36943,0.0393 1.94537,0.17541 1.27987,0.30256 -0.97919,0.18707 -1.09194,0.37345 -0.59105,0.97698 0.48379,0.58294 0.46186,0.75386 -0.10045,0.78266 -0.39568,0.0202 -0.24765,0.23956 0.32896,0.48734 0.85479,0.36731 0.70477,0.4573 -0.81249,0.48734 -1.02347,0.0203 -2.1456,-0.2479 -2.49362,-0.59592 -0.49423,-0.49424 -0.83278,-0.43138 -1.54634,0.2871 -0.86906,0.87503 -0.8501,0.96799 0.38905,1.90737 0.71644,0.54313 1.14537,1.14476 0.95317,1.33697 -0.47946,0.47945 -3.00522,-1.4238 -3.02561,-2.27991 -0.01,-0.41432 -0.48942,-0.62451 -1.19588,-0.52418 -0.96657,0.13727 -1.16547,0.47495 -1.10212,1.8711 0.0425,0.93698 -0.13441,1.7036 -0.39314,1.7036 -0.25874,0 -0.47043,-0.842 -0.47043,-1.8711 0,-1.63828 -0.14609,-1.85026 -1.17406,-1.7036 -1.6125,0.23005 -1.7833,1.83855 -0.3565,3.3573 0.65188,0.6939 1.05844,1.38843 0.90347,1.5434 -0.15497,0.15497 -1.01197,-0.5499 -1.90445,-1.56638 -1.5081,-1.71763 -1.76287,-1.8183 -3.608,-1.42566 l -1.98532,0.42247 1.57255,0.86289 c 0.93815,0.51478 1.231,0.87136 0.72593,0.88388 -0.46565,0.0115 -1.44639,-0.45078 -2.17942,-1.02738 -1.3347,-1.04988 -2.54612,-1.32959 -3.14869,-0.72703 -0.32343,0.32344 1.52954,3.27816 2.50545,3.99515 0.30648,0.22517 0.19764,0.38006 -0.26209,0.37295 -0.43246,-0.007 -1.27098,-0.7697 -1.8634,-1.69558 -0.91169,-1.42486 -1.35022,-1.66082 -2.85534,-1.53634 -0.97803,0.0809 -1.86877,0.23759 -1.97942,0.34825 -0.44736,0.44736 1.04804,2.41663 2.38681,3.14316 1.63739,0.88857 0.46515,1.03982 -1.33503,0.17225 z"
         id="path12213" /><path
         style="fill:#778c2b;stroke-width:0.524184"
         d="m 249.16641,443.1912 c 0.0251,-0.61065 0.14936,-0.73485 0.3167,-0.3167 0.15142,0.3784 0.13279,0.8305 -0.0414,1.00469 -0.17418,0.17418 -0.29807,-0.13542 -0.27531,-0.68799 z"
         id="path12205" /><path
         style="fill:#778c2b;stroke-width:0.524184"
         d="m 249.6906,450.52978 c 0.0252,-0.61065 0.14936,-0.73486 0.31669,-0.3167 0.15142,0.3784 0.1328,0.83051 -0.0414,1.00469 -0.17419,0.17418 -0.29807,-0.13542 -0.27531,-0.68799 z"
         id="path12193" /><path
         style="fill:#778c2b;stroke-width:0.524184"
         d="m 254.40825,465.73112 c 0.0252,-0.61065 0.14937,-0.73485 0.3167,-0.3167 0.15142,0.3784 0.1328,0.83051 -0.0414,1.00469 -0.17419,0.17419 -0.29807,-0.13541 -0.27531,-0.68799 z"
         id="path12175" /><path
         style="fill:#778c2b;stroke-width:0.524184"
         d="m 251.78733,468.87623 c 0.0252,-0.61065 0.14936,-0.73486 0.31669,-0.3167 0.15143,0.37839 0.13281,0.83051 -0.0414,1.00469 -0.17419,0.17418 -0.29808,-0.13542 -0.27532,-0.68799 z"
         id="path12169" /><path
         style="fill:#526028;stroke-width:0.524184"
         d="m 252.59109,470.8498 c -0.41582,-0.67281 -1.8891,-12.62376 -2.69347,-21.84889 -0.4022,-4.61282 -0.74058,-13.49217 -0.75194,-19.73188 -0.0175,-9.61385 0.0993,-11.39096 0.76562,-11.64664 0.57824,-0.22189 0.79041,0.0753 0.80187,1.12333 0.0417,3.81134 1.46934,24.83835 1.70223,25.07124 0.14651,0.14652 1.01028,-1.03378 1.91947,-2.62289 2.31473,-4.04573 6.47176,-7.13241 9.60566,-7.13241 0.94882,0 2.19041,-0.32356 2.75908,-0.71902 0.56868,-0.39546 2.13332,-0.85206 3.477,-1.01468 1.34366,-0.16261 2.89588,-0.57846 3.44936,-0.92412 1.19375,-0.74551 7.78686,-0.2054 8.33584,0.68287 0.24304,0.39325 -0.68419,0.45793 -3.06605,0.2139 -2.56758,-0.26305 -3.79022,-0.15385 -4.92949,0.44029 -0.83327,0.43457 -2.17312,0.79157 -2.97743,0.79334 -0.80432,0.002 -2.38713,0.475 -3.51736,1.0516 -1.13024,0.5766 -2.81831,1.04837 -3.75128,1.04837 -3.37071,0 -7.05366,3.65796 -9.81983,9.75319 l -1.21475,2.6767 0.81393,7.2828 c 0.44766,4.00554 0.97435,9.22883 1.1704,11.60732 0.34116,4.13868 0.30984,4.32452 -0.72864,4.32452 -0.59682,0 -1.20442,-0.19303 -1.35022,-0.42894 z"
         id="path12301" /></g></g></svg>
