<?xml version="1.0" encoding="UTF-8" standalone="no"?>
<!-- Created with Inkscape (http://www.inkscape.org/) -->

<svg
   width="210.20386mm"
   height="276.54443mm"
   viewBox="0 0 210.20386 276.54443"
   version="1.1"
   id="svg5"
   xml:space="preserve"
   inkscape:version="1.2.1 (9c6d41e410, 2022-07-14)"
   sodipodi:docname="drawing.svg"
   xmlns:inkscape="http://www.inkscape.org/namespaces/inkscape"
   xmlns:sodipodi="http://sodipodi.sourceforge.net/DTD/sodipodi-0.dtd"
   xmlns="http://www.w3.org/2000/svg"
   xmlns:svg="http://www.w3.org/2000/svg"><sodipodi:namedview
     id="namedview7"
     pagecolor="#505050"
     bordercolor="#eeeeee"
     borderopacity="1"
     inkscape:showpageshadow="0"
     inkscape:pageopacity="0"
     inkscape:pagecheckerboard="0"
     inkscape:deskcolor="#505050"
     inkscape:document-units="mm"
     showgrid="false"
     inkscape:zoom="1.0255231"
     inkscape:cx="-2671.3197"
     inkscape:cy="1254.9693"
     inkscape:window-width="3840"
     inkscape:window-height="1526"
     inkscape:window-x="2869"
     inkscape:window-y="-11"
     inkscape:window-maximized="1"
     inkscape:current-layer="g2018"
     showguides="true" /><defs
     id="defs2" /><g
     inkscape:label="Layer 1"
     inkscape:groupmode="layer"
     id="layer1"
     style="display:inline"
     transform="translate(-1456.826,-373.00927)"><g
       id="g12646"
       transform="matrix(2.2040458,0,0,2.2040458,-389.80871,-147.05877)"><path
         style="fill:#f6f9fb;stroke-width:0.524184"
         d="m 872.01757,298.09498 c 0.0169,0.007 0.0273,0.03 0.03,0.0713 0.0121,0.18474 -0.44466,1.36426 -1.01493,2.62103 -0.57027,1.25675 -1.03229,1.93106 -1.02629,1.49861 0.01,-0.72156 1.75715,-4.2926 2.01124,-4.19096 z"
         id="path10491" /><path
         style="fill:#f6f9fb;stroke-width:0.524184"
         d="m 879.18458,293.60379 c 0.0229,-0.005 0.0402,0.008 0.0517,0.0429 0.0941,0.28295 -0.28928,1.6937 -0.85214,3.1352 -0.56287,1.44151 -1.0344,2.36833 -1.048,2.05931 -0.0385,-0.88123 1.50448,-5.16017 1.84847,-5.23741 z"
         id="path10483" /><path
         style="fill:#f6f9fb;stroke-width:0.524184"
         d="m 875.52227,292.32635 c -0.46401,0 -1.28108,1.1126 -1.93683,2.63705 -0.62392,1.45028 -1.23912,2.5317 -1.36736,2.40347 -0.12823,-0.12823 0.0407,-0.74498 0.37569,-1.37097 0.84084,-1.57111 0.32552,-1.86051 -1.25936,-0.70694 -1.45301,1.05759 -4.06621,7.19807 -5.32009,12.50105 -1.3352,5.64691 -0.75933,11.26939 1.37201,13.40073 1.30445,1.30445 1.63172,1.278 3.0639,-0.2465 1.14499,-1.21877 1.15428,-1.30666 0.27647,-2.64635 -2.3903,-3.64806 0.34627,-16.66722 5.37641,-25.57828 0.12203,-0.21622 -0.13937,-0.39326 -0.58084,-0.39326 z"
         id="path10479" /><path
         style="fill:#f6f9fb;stroke-width:0.524184"
         d="m 884.51914,291.01584 0.0134,2.88303 h 5.2e-4 c 0.008,1.58565 -0.16578,4.1804 -0.38499,5.76605 l -0.39843,2.88303 -0.0351,-3.40703 c -0.0192,-1.87395 0.15414,-4.46869 0.38499,-5.76605 z"
         id="path10477" /><path
         style="fill:#f6f9fb;stroke-width:0.524184"
         d="m 864.4692,290.76727 -2.88251,0.83871 c -6.84628,1.99167 -13.23984,5.49634 -16.22124,8.89197 -1.84643,2.10297 -1.90253,2.41376 -0.75499,4.16512 0.70517,1.07624 1.26654,1.29191 3.36259,1.29191 2.44166,0 2.60531,-0.10123 5.51852,-3.41943 1.65125,-1.8808 2.85652,-3.5653 2.67839,-3.74344 -0.17813,-0.17813 -1.74493,0.29259 -3.48196,1.04593 -4.64797,2.01576 -3.84295,1.19251 1.16634,-1.19269 2.6874,-1.27962 5.51536,-3.16067 7.46983,-4.96869 z"
         id="path10475" /><path
         style="fill:#f6f9fb;stroke-width:0.524184"
         d="m 881.59218,290.36265 c -0.43621,0.0232 -1.00724,0.0858 -1.60817,0.1819 -2.14218,0.34255 -2.22775,0.43813 -4.34288,4.86585 -3.03172,6.34654 -4.6226,11.67566 -4.9811,16.68477 -0.25073,3.50331 -0.14546,4.5541 0.56534,5.63893 0.77895,1.18883 1.11324,1.29776 3.08664,1.00511 1.21721,-0.18052 2.48583,-0.66864 2.81895,-1.08469 0.33312,-0.41605 0.87101,-2.80548 1.19527,-5.31027 0.32426,-2.50479 0.83016,-6.37408 1.12397,-8.59792 0.29386,-2.22384 1.12521,-6.08281 1.84794,-8.57571 0.7227,-2.4929 1.21431,-4.63236 1.09244,-4.75423 -0.0609,-0.0609 -0.36218,-0.0769 -0.7984,-0.0537 z"
         id="path10473" /><path
         style="fill:#f6f9fb;stroke-width:0.524184"
         d="m 871.74162,287.3819 c -1.53549,-0.0539 -2.77583,0.77375 -7.15408,4.36149 -3.20871,2.62937 -12.8054,13.30853 -14.38414,16.00678 -0.99725,1.70442 -0.79726,3.22708 0.50591,3.85558 0.64868,0.31285 1.31593,0.58459 1.4826,0.60409 0.16667,0.0195 3.94042,-3.56459 8.38657,-7.96488 4.44614,-4.40031 10.04066,-9.41048 12.43232,-11.13369 3.73208,-2.68899 4.20625,-3.19666 3.34449,-3.58118 -0.72075,-0.3216 -1.57816,-0.0867 -3.03805,0.83303 -1.11867,0.70471 -2.85944,1.6822 -3.8685,2.17196 -2.83374,1.37537 -0.41391,-0.4698 2.73523,-2.08567 2.80323,-1.43836 2.89562,-2.57647 0.2434,-2.99619 -0.24142,-0.0382 -0.46639,-0.0636 -0.68575,-0.0713 z"
         id="path10461" /><path
         style="fill:#f6f9fb;stroke-width:0.524184"
         d="m 902.63069,287.14424 c -0.59668,-0.0184 -1.31134,0.009 -2.25671,0.047 l -3.82819,0.15554 5.30511,3.29851 c 2.9178,1.81415 5.44605,3.52697 5.61877,3.80648 0.17277,0.27951 -2.03337,-0.90997 -4.90254,-2.64325 -2.86918,-1.73327 -5.4633,-3.15122 -5.76502,-3.15122 -1.18183,0 5.05526,8.9028 7.57628,10.81432 1.40214,1.06316 3.36968,2.6031 4.37234,3.42202 2.07918,1.69813 2.07688,1.69768 4.78524,0.88625 1.60023,-0.47944 2.13244,-0.96912 2.60243,-2.39314 1.32916,-4.02748 -0.61304,-6.8218 -8.28735,-11.92485 -2.70306,-1.79742 -3.43032,-2.26236 -5.22036,-2.31769 z"
         id="path10457" /><path
         style="fill:#f6f9fb;stroke-width:0.524184"
         d="m 893.14652,286.04146 -1.19941,0.971 -1.1989,0.97151 1.84382,2.30219 c 3.03089,3.7837 4.93691,6.46522 4.33824,6.10298 -0.30921,-0.18708 -1.9572,-2.12105 -3.66231,-4.29792 -1.70517,-2.17688 -3.3979,-3.95842 -3.76205,-3.95842 -0.96088,0 -0.89256,0.20191 1.66347,4.89944 2.3064,4.23872 3.61148,7.15719 3.20083,7.15719 -0.11742,0 -1.07902,-1.7101 -2.13682,-3.80029 -3.04692,-6.02057 -3.96783,-7.36377 -4.60953,-6.72207 -0.30943,0.30941 -1.06012,0.56276 -1.66812,0.56276 -2.00228,0 -2.92479,1.27909 -4.16925,5.78208 -1.8747,6.7836 -3.59111,20.78122 -2.91559,23.77632 0.51181,2.26916 0.86618,2.73022 2.37195,3.08819 0.5766,0.13707 2.19802,0.22557 3.60288,0.19637 3.31028,-0.0688 3.77544,-0.79523 4.77955,-7.45743 1.24374,-8.25178 1.06967,-12.73725 -0.6289,-16.20056 -0.78082,-1.59204 -1.59521,-2.89491 -1.80971,-2.89491 -0.21449,0 -0.4733,1.4744 -0.57567,3.27628 -0.14672,2.58278 -0.20926,2.22206 -0.29456,-1.70377 -0.0595,-2.73886 -0.22759,-5.56931 -0.37362,-6.29006 -0.16119,-0.79556 0.024,-0.58978 0.47181,0.524 1.62617,4.04526 5.10315,10.73537 6.16913,11.87008 0.62231,0.66243 1.91218,1.46185 2.86598,1.77664 1.50817,0.49774 1.95944,0.41406 3.46128,-0.64028 2.29069,-1.60811 2.49576,-1.94356 2.50476,-4.09535 0.01,-2.38136 -2.32676,-7.21527 -5.63635,-11.66027 z"
         id="path10449" /><path
         style="fill:#f6f9fb;stroke-width:0.524184"
         d="m 853.9856,277.41573 c -5.51484,-0.0247 -6.55651,0.11432 -8.45065,1.12758 -1.18825,0.63565 -2.28207,1.61996 -2.43034,2.18694 -0.14827,0.56699 -1.19677,1.50386 -2.33009,2.08205 -3.64924,1.86169 -3.79447,2.53979 -1.00252,4.68395 1.8556,1.42508 4.1408,1.48284 11.78739,0.29817 3.26096,-0.50521 9.06197,-0.88555 13.98933,-0.91725 8.37866,-0.0539 8.41698,-0.0597 8.1995,-1.2082 -0.26094,-1.37796 -2.66757,-1.97035 -11.11405,-2.73627 l -5.50354,-0.49919 7.07657,0.22841 c 3.89206,0.12561 7.84284,0.37365 8.77982,0.55087 2.91053,0.5505 2.01937,-0.99193 -1.31051,-2.26808 -6.93908,-2.65937 -11.15141,-3.49968 -17.69091,-3.52898 z"
         id="path10403" /><path
         style="fill:#f6f9fb;stroke-width:0.524184"
         d="m 908.81688,275.74461 c -1.2697,0.0433 -2.73474,0.5271 -5.79138,1.78749 -2.72308,1.12285 -5.05404,2.34954 -5.17953,2.72593 -0.16685,0.50065 0.1424,0.59172 1.15135,0.33848 0.75854,-0.19038 2.49927,-0.45201 3.8685,-0.58136 1.87626,-0.17723 1.58566,-0.0482 -1.17977,0.524 -5.50252,1.13852 -6.02806,1.28868 -6.02806,1.72392 0,0.22019 1.71011,0.35361 3.80029,0.29611 l 3.80028,-0.1049 -3.78065,0.38189 c -2.53841,0.25624 -4.13599,0.70277 -4.8612,1.35909 -1.37325,1.24276 -0.86549,1.7236 2.0898,1.97869 8.26984,0.71382 18.56696,-0.53085 22.27771,-2.69235 1.35029,-0.78655 1.5754,-1.2306 1.5906,-3.14192 0.0228,-2.85707 -0.67625,-3.39616 -4.94699,-3.81734 -1.90179,-0.18756 -4.40149,-0.49641 -5.5547,-0.68626 -0.43149,-0.071 -0.83302,-0.10589 -1.25625,-0.0915 z"
         id="path10397" /><path
         style="fill:#f6f9fb;stroke-width:0.524184"
         d="m 918.69741,270.52322 c -2.1952,0.0703 -4.29896,0.32954 -4.98006,0.73587 -1.36407,0.8138 -4.02,3.30615 -3.77961,3.54656 0.142,0.142 2.02278,0.45627 4.17959,0.69815 2.15681,0.24188 4.60591,0.79854 5.44256,1.23713 1.99132,1.04391 2.72592,1.03817 4.92838,-0.0388 1.63986,-0.80183 1.83452,-1.1192 1.83452,-2.98689 0,-1.97113 -0.11857,-2.12928 -2.09652,-2.7926 -1.04664,-0.35099 -3.33366,-0.46976 -5.52886,-0.39946 z"
         id="path10387" /><path
         style="fill:#f6f9fb;stroke-width:0.524184"
         d="m 923.0465,266.11729 c -3.55209,0 -4.02758,0.1333 -5.9278,1.66036 -1.13633,0.91316 -2.06603,1.79781 -2.06603,1.96578 0,0.16797 2.34712,0.3054 5.21571,0.3054 3.47361,0 5.43457,0.21887 5.87096,0.65526 1.14507,1.1451 1.87127,0.71357 2.20555,-1.31051 0.44607,-2.70137 -0.48371,-3.27629 -5.29839,-3.27629 z"
         id="path10377" /><path
         style="fill:#f6f9fb;stroke-width:0.524184"
         d="m 850.55894,264.60007 c -1.2157,-0.0407 -2.16066,0.17943 -2.44482,0.67283 -0.23055,0.40031 -0.89049,0.81469 -1.46709,0.92139 -0.81666,0.15112 -1.08396,0.67764 -1.2082,2.38228 -0.15446,2.11951 -0.0527,2.27658 3.24115,4.99349 3.30616,2.72708 3.50047,2.80898 6.97425,2.93368 1.96524,0.0706 4.75244,0.45391 6.19394,0.85214 1.44151,0.39823 2.66566,0.74521 2.72076,0.77101 0.0551,0.0258 0.22971,-0.16283 0.38809,-0.41909 0.15837,-0.25625 -1.24285,-1.46342 -3.11402,-2.68253 -1.87117,-1.21911 -3.40186,-2.32061 -3.40186,-2.44791 0,-0.25008 0.2738,-0.10215 3.31453,1.79007 3.49271,2.1735 3.19645,1.02714 -0.91726,-3.54862 -2.76566,-3.07629 -4.67191,-4.71243 -6.20841,-5.32836 -1.36878,-0.54869 -2.85537,-0.84971 -4.07106,-0.89038 z"
         id="path10373" /><path
         style="fill:#f6f9fb;stroke-width:0.524184"
         d="m 899.04021,262.97227 c 0.12282,0 -0.13828,1.06167 -0.58032,2.35903 -0.7553,2.21664 -1.22938,2.94875 -1.22938,1.89859 0,-0.6415 1.53702,-4.25762 1.8097,-4.25762 z"
         id="path10363" /><path
         style="fill:#f6f9fb;stroke-width:0.524184"
         d="m 857.78433,257.16387 c -2.39928,-0.007 -4.58525,0.87894 -4.58525,2.35955 0,1.13206 2.64865,4.65786 8.05739,10.72596 5.60153,6.28438 8.73908,9.10239 11.44375,10.27741 2.10775,0.91568 2.36203,0.93831 2.78898,0.24753 0.18498,-0.29938 -1.52646,-2.40704 -3.80339,-4.68396 -2.27691,-2.2769 -3.6525,-3.88315 -3.05718,-3.56929 0.59532,0.31385 2.53493,2.06797 4.31033,3.89796 2.95375,3.04459 4.37235,3.99007 4.37235,2.91403 0,-0.80335 -6.81644,-8.91894 -9.72034,-11.57294 -1.61949,-1.48011 -2.6305,-2.69114 -2.24689,-2.6913 0.89409,-3.8e-4 9.3408,8.65694 11.2267,11.50679 0.88917,1.34362 1.57565,1.94329 1.80351,1.57458 0.20239,-0.32746 0.93088,-0.88108 1.61851,-1.2299 0.71027,-0.3603 1.23688,-1.08465 1.22008,-1.67742 -0.0572,-2.0009 -6.63784,-11.80222 -9.40511,-14.00793 -3.38527,-2.69828 -6.97529,-4.33925 -7.7649,-3.54965 -0.41999,0.41999 -0.36934,0.76867 0.18655,1.28106 0.4201,0.38722 2.41521,2.20198 4.43332,4.03282 2.01811,1.83084 4.49449,4.43375 5.50354,5.78415 1.00906,1.35041 2.75285,3.54965 3.8747,4.88755 1.12186,1.33791 1.93482,2.53777 1.80661,2.66599 -0.12822,0.12822 -1.51794,-1.3523 -3.08819,-3.28972 -3.59076,-4.43042 -12.69011,-13.52382 -14.8518,-14.84199 -1.1671,-0.71167 -2.68369,-1.03714 -4.12327,-1.04128 z"
         id="path10337" /><path
         style="fill:#f6f9fb;stroke-width:0.524184"
         d="m 878.84506,255.45126 c -1.90482,-0.12777 -4.15426,1.51398 -4.15426,3.28714 0,2.34965 1.27526,5.86872 3.24373,8.95139 1.01256,1.58565 2.46893,3.88552 3.23649,5.1108 1.03353,1.64982 1.73398,2.22777 2.69958,2.22777 1.57276,0 1.57843,-0.0864 0.25425,-3.93516 -1.39889,-4.066 -0.98159,-4.28761 0.51883,-0.27543 0.65041,1.7392 1.2525,3.1626 1.3379,3.1626 0.0854,0 0.48511,-0.12691 0.88832,-0.28164 0.90144,-0.3459 0.46206,-4.68649 -1.10226,-10.88461 -1.3492,-5.34586 -2.43502,-7.01453 -4.37544,-6.72465 -0.20621,0.0308 -0.99816,-0.18075 -1.75959,-0.47026 -0.25048,-0.0952 -0.51543,-0.14969 -0.78755,-0.16795 z"
         id="path10323" /><path
         style="fill:#f6f9fb;stroke-width:0.524184"
         d="m 923.48007,253.53717 c -1.16903,0 -2.95847,1.39057 -8.47907,6.59081 -2.2119,2.08355 -5.59174,4.60209 -7.60057,5.66374 -1.98965,1.05149 -5.37074,3.36534 -7.51324,5.14129 -3.11638,2.5832 -3.70901,3.2939 -2.96519,3.55482 0.58347,0.20467 2.91237,-0.7009 6.25388,-2.43189 2.92846,-1.51702 5.67828,-2.76496 6.11074,-2.77296 0.43245,-0.008 -1.69039,1.2454 -4.71754,2.78484 -5.24913,2.66941 -5.50431,2.87701 -5.52111,4.48086 -0.016,1.53783 0.0957,1.65408 1.30999,1.35961 3.80516,-0.92276 9.99965,-4.56587 13.27103,-7.80521 1.87836,-1.86 4.36978,-3.98437 5.53609,-4.72064 2.5824,-1.63018 7.41971,-7.32031 7.41971,-8.72763 0,-1.30992 -1.80024,-3.11764 -3.10472,-3.11764 z"
         id="path10311" /><path
         style="fill:#f6f9fb;stroke-width:0.524184"
         d="m 893.8674,252.09594 c -0.17707,-0.17706 -1.08477,0.41403 -2.01744,1.31362 -0.93263,0.89959 -2.33216,1.87523 -3.10989,2.16834 -0.77773,0.29312 -1.82184,1.15519 -2.31976,1.91513 -0.86449,1.31934 -0.85325,1.59838 0.2434,6.18257 0.63164,2.64047 1.14498,5.78724 1.13998,6.99337 -0.008,2.00511 0.11498,2.20737 1.43299,2.35903 1.82804,0.21034 1.99145,-0.21745 2.41122,-6.31538 0.18582,-2.69974 0.8337,-7.02027 1.43971,-9.60148 0.606,-2.5812 0.95686,-4.83814 0.77979,-5.0152 z"
         id="path10305" /><path
         style="fill:#f6f9fb;stroke-width:0.524184"
         d="m 914.17417,241.02429 c -1.67143,-0.17268 -3.29207,1.54518 -6.44353,5.97948 -2.52882,3.5582 -3.29442,5.12389 -3.89692,7.97057 -2.4722,11.68094 -2.47978,13.28441 -0.0455,9.43147 0.86187,-1.36413 1.75789,-2.48048 1.9911,-2.48099 0.48571,-0.001 0.26655,0.41371 -1.93115,3.65663 h 5.2e-4 l -1.59112,2.34766 1.81126,-1.20975 c 0.996,-0.66527 2.63619,-1.56002 3.64525,-1.98851 1.67183,-0.70994 2.19774,-1.54891 5.92264,-9.4542 5.08484,-10.79138 5.15735,-11.10464 2.99672,-12.92273 -0.9294,-0.78203 -1.69954,-1.25114 -2.45929,-1.32963 z"
         id="path10269" /><path
         style="fill:#f6f9fb;stroke-width:0.524184"
         d="m 904.83573,235.96932 c -0.74326,0.0703 -1.73238,0.56841 -3.14348,1.54461 -2.31768,1.6034 -2.65452,2.17018 -4.69119,7.89822 -3.55977,10.01163 -6.26157,27.51977 -4.24677,27.51977 0.44378,0 0.80719,-0.38382 0.80719,-0.85266 0,-1.44382 2.24569,-10.45311 2.45463,-9.84746 0.10809,0.31338 -0.28219,2.62222 -0.86713,5.13095 -0.58499,2.50873 -1.0635,4.90604 -1.0635,5.32733 0,1.16618 1.10816,0.91358 1.43247,-0.3266 0.19783,-0.75663 0.40755,-0.8952 0.68264,-0.4501 0.71274,1.15322 3.55648,-1.39206 4.16202,-3.72536 1.13077,-4.35724 1.50141,-6.0864 1.84847,-8.62273 0.19731,-1.4415 1.27757,-6.39529 2.40037,-11.00811 2.20372,-9.05367 2.45215,-11.33603 1.3348,-12.26333 -0.30708,-0.25486 -0.66457,-0.36669 -1.11052,-0.32453 z"
         id="path10259" /><path
         style="fill:#f3cb46;stroke-width:0.524184"
         d="m 896.05114,274.68118 c 0.36038,-0.14542 0.95009,-0.14542 1.31046,0 0.36038,0.14541 0.0655,0.26439 -0.65523,0.26439 -0.72075,0 -1.0156,-0.11898 -0.65523,-0.26439 z"
         id="path11565" /><path
         style="fill:#f3cb46;stroke-width:0.524184"
         d="m 893.56127,284.54489 c 0,-0.33298 0.2417,-0.60542 0.53718,-0.60542 0.29543,0 0.76133,-0.58971 1.03537,-1.31046 0.27404,-0.72076 0.73543,-1.31046 1.02536,-1.31046 0.28992,0 1.11032,-1.12045 1.82322,-2.48988 0.71283,-1.36943 1.30705,-2.30356 1.32047,-2.07585 0.0514,0.87139 -2.1556,4.63059 -2.88228,4.90944 -0.4194,0.16095 -0.76258,0.58466 -0.76258,0.94159 0,0.35692 -0.47177,1.07589 -1.04837,1.59771 -0.59453,0.53804 -1.04837,0.68667 -1.04837,0.34333 z"
         id="path11537" /><path
         style="fill:#f3cb46;stroke-width:0.524184"
         d="m 890.41616,287.93503 c 0,-0.10885 0.4128,-0.52164 0.91733,-0.91732 0.8314,-0.65202 0.84991,-0.63348 0.19793,0.19791 -0.6848,0.87316 -1.11526,1.15083 -1.11526,0.71941 z"
         id="path11533" /><path
         style="fill:#f3cb46;stroke-width:0.524184"
         d="m 878.35993,285.31106 c 0,-0.11052 -0.47177,-0.32432 -1.04837,-0.47511 -0.57661,-0.15078 -1.04837,-0.0603 -1.04837,0.20096 0,0.26131 0.47176,0.47511 1.04837,0.47511 0.5766,0 1.04837,-0.0904 1.04837,-0.20096 z"
         id="path11531" /><path
         style="fill:#f3cb46;stroke-width:0.524184"
         d="m 874.52112,288.78817 c -0.86706,-1.47322 -0.89295,-4.02341 -0.0587,-5.79207 0.83214,-1.76431 4.50929,-5.87103 5.25694,-5.87103 0.17041,0 0.90961,-0.47176 1.64263,-1.04837 0.73307,-0.5766 1.75927,-1.04836 2.28052,-1.04836 0.52125,0 1.72781,-0.45246 2.68125,-1.00547 1.86987,-1.08451 6.90335,-1.42489 8.2894,-0.56057 0.6621,0.41287 0.60417,0.61392 -0.37574,1.30423 -0.63714,0.44887 -1.31208,1.63493 -1.49984,2.6357 -0.19044,1.01528 -0.65586,1.81958 -1.05283,1.81958 -0.3913,0 -0.58929,0.3185 -0.43989,0.70777 0.32012,0.83427 -7.72968,5.05826 -9.6397,5.05826 -0.7814,0 -1.07783,0.21447 -0.83634,0.60517 0.24192,0.39142 0.14263,0.46216 -0.28112,0.20026 -0.36037,-0.2227 -1.24352,-0.09 -1.96259,0.2948 -1.12181,0.60037 -1.52402,0.57539 -2.83301,-0.17589 -1.68562,-0.96741 -1.74134,-0.88323 -1.03804,1.56899 0.45651,1.59182 0.39439,2.20292 -0.13293,1.307 z"
         id="path11529" /><path
         style="fill:#f3cb46;stroke-width:0.524184"
         d="m 885.9606,289.85266 c 0.5766,-0.14047 1.52013,-0.64384 2.09673,-1.11861 1.03978,-0.85611 1.0402,-0.85352 0.0498,0.31621 -0.54919,0.64868 -1.49272,1.15205 -2.09674,1.11861 -1.05617,-0.0585 -1.05806,-0.0706 -0.0498,-0.31621 z"
         id="path11525" /><path
         style="fill:#f3cb46;stroke-width:0.524184"
         d="m 882.94654,290.4067 c 0.36037,-0.14541 0.95008,-0.14541 1.31046,0 0.36038,0.14542 0.0655,0.2644 -0.65523,0.2644 -0.72076,0 -1.01561,-0.11898 -0.65523,-0.2644 z"
         id="path11523" /><path
         style="fill:#f3cb46;stroke-width:0.524184"
         d="m 877.83574,290.20573 c -0.57424,-0.38859 -0.36216,-0.43721 0.78628,-0.18033 1.92737,0.43113 2.34577,0.73115 1.0047,0.72044 -0.55259,-0.004 -1.35853,-0.24747 -1.79098,-0.54011 z"
         id="path11521" /><path
         style="fill:#e7a314;stroke-width:0.524184"
         d="m 876.26319,285.03701 c 0,-0.26131 0.47176,-0.35174 1.04837,-0.20096 0.5766,0.15079 1.04837,0.36459 1.04837,0.47511 0,0.11053 -0.47177,0.20096 -1.04837,0.20096 -0.57661,0 -1.04837,-0.2138 -1.04837,-0.47511 z"
         id="path11657" /><path
         style="fill:#e7a314;stroke-width:0.524184"
         d="m 876.80105,289.49077 c -1.17191,-0.42204 -1.94734,-1.10783 -2.17552,-1.92407 -0.66629,-2.38325 -0.54127,-2.57717 1.06656,-1.65442 1.30899,0.75128 1.7112,0.77626 2.83301,0.17589 0.71907,-0.38484 1.60222,-0.51749 1.96259,-0.29479 0.42375,0.26189 0.52304,0.19116 0.28112,-0.20027 -0.24149,-0.3907 0.0549,-0.60517 0.83634,-0.60517 1.91002,0 9.95982,-4.22399 9.6397,-5.05826 -0.1494,-0.38927 0.0487,-0.70777 0.43989,-0.70777 0.39408,0 0.86061,-0.7949 1.0458,-1.78198 0.18383,-0.98008 0.63783,-2.03387 1.00879,-2.34176 1.01655,-0.84366 4.45337,-0.11886 4.81327,1.01509 0.33669,1.06081 -1.56946,5.20539 -2.39405,5.20539 -0.28956,0 -0.75069,0.5897 -1.02473,1.31046 -0.27404,0.72075 -0.73994,1.31046 -1.03537,1.31046 -0.29548,0 -0.53718,0.32582 -0.53718,0.72406 0,0.81539 -3.24984,3.46941 -4.24825,3.46941 -0.35692,0 -1.0782,0.38845 -1.6028,0.86322 -1.22502,1.1086 -8.31189,1.42986 -10.90917,0.49451 z"
         id="path11651" /><path
         style="fill:#90a334;stroke-width:0.524184"
         d="m 926.58414,306.9023 c 0,-0.50528 2.19827,-1.99541 2.9423,-1.99541 0.33637,0 1.16337,0.44681 1.83779,0.99291 l 1.22617,0.99291 -3.00347,0.1865 c -1.65191,0.10258 -3.00316,0.023 -3.00279,-0.17691 z"
         id="path11979" /><path
         style="fill:#90a334;stroke-width:0.524184"
         d="m 923.14481,306.54296 c 0.84865,-1.64106 1.76063,-2.16026 3.79462,-2.16026 1.23944,0 1.18754,0.10833 -0.87874,1.83465 -2.8134,2.35054 -4.03344,2.48678 -2.91588,0.32561 z"
         id="path11977" /><path
         style="fill:#90a334;stroke-width:0.524184"
         d="m 931.30253,308.31408 c -0.69129,-0.83295 -0.1788,-1.02312 1.2646,-0.46926 0.45436,0.17437 0.69559,0.52819 0.53608,0.78628 -0.42448,0.68689 -1.06042,0.57493 -1.80068,-0.31702 z"
         id="path11971" /><path
         style="fill:#90a334;stroke-width:0.524184"
         d="m 929.10751,309.26647 c 0.37841,-0.15142 0.83052,-0.1328 1.0047,0.0414 0.17419,0.17418 -0.13544,0.29807 -0.68799,0.27531 -0.61067,-0.0252 -0.73485,-0.14936 -0.31671,-0.31669 z"
         id="path11969" /><path
         style="fill:#90a334;stroke-width:0.524184"
         d="m 919.02955,308.18304 c 0.35675,-1.57077 2.00054,-3.27615 3.15784,-3.27615 0.95281,0 0.91905,0.52844 -0.13477,2.11114 -1.83139,2.75048 -3.53201,3.40585 -3.02307,1.16501 z"
         id="path11967" /><path
         style="fill:#90a334;stroke-width:0.524184"
         d="m 916.5187,309.62786 c 0.8441,-1.48341 1.67923,-2.06444 1.67923,-1.16832 0,0.66376 -1.59242,2.73756 -2.10209,2.73756 -0.25852,0 -0.0682,-0.70616 0.42286,-1.56924 z"
         id="path11965" /><path
         style="fill:#90a334;stroke-width:0.524184"
         d="m 925.28783,311.21885 c -0.18807,-0.30434 0.0372,-0.69876 0.50013,-0.87649 1.15315,-0.4425 1.5119,0.0438 0.59416,0.8055 -0.51664,0.42875 -0.8594,0.45099 -1.09429,0.071 z"
         id="path11963" /><path
         style="fill:#90a334;stroke-width:0.524184"
         d="m 921.40992,313.42483 c 0.39565,-0.50453 0.95527,-1.09063 1.24357,-1.30244 0.68773,-0.50527 2.35978,-0.51096 2.35553,-0.008 -0.005,0.46615 -2.98717,2.22778 -3.77266,2.22778 -0.31226,0 -0.23803,-0.39254 0.17356,-0.91732 z"
         id="path11947" /><path
         style="fill:#90a334;stroke-width:0.524184"
         d="m 911.82615,313.14742 c 0.82685,-0.89959 1.11977,-1.68075 0.89541,-2.38769 -0.25234,-0.79512 -0.0414,-1.13938 0.86784,-1.4153 0.66074,-0.20054 1.75586,-0.86825 2.43363,-1.48379 l 1.23231,-1.11916 -1.18974,2.09673 c -1.44995,2.55538 -3.02271,4.36971 -4.41998,5.09903 -0.91035,0.47514 -0.88655,0.37116 0.18053,-0.78982 z"
         id="path11945" /><path
         style="fill:#90a334;stroke-width:0.524184"
         d="m 907.63829,315.40192 c -0.81081,-0.89294 -0.72589,-1.08345 1.423,-3.19244 1.99746,-1.96032 2.33136,-2.12278 2.65101,-1.28974 0.24223,0.63111 0.0419,1.18982 -0.59259,1.65384 -0.52707,0.38541 -0.98935,1.12207 -1.0273,1.63701 -0.0818,1.11064 -0.72091,2.24598 -1.22968,2.18461 -0.19924,-0.024 -0.75021,-0.471 -1.22444,-0.99328 z"
         id="path11933" /><path
         style="fill:#90a334;stroke-width:0.524184"
         d="m 916.99057,317.93289 c -1.20614,-0.67499 -0.57314,-1.63065 0.79294,-1.19708 0.76358,0.24235 0.95684,0.15664 0.67499,-0.29937 -0.48838,-0.79023 0.62907,-1.55134 2.29346,-1.56208 1.04633,-0.007 1.1401,0.11673 0.59107,0.77825 -0.35891,0.43245 -0.96413,0.78627 -1.3449,0.78627 -0.38082,0 -1.00821,0.45092 -1.39422,1.00204 -0.52969,0.75618 -0.9255,0.87689 -1.61334,0.49197 z"
         id="path11921" /><path
         style="fill:#90a334;stroke-width:0.524184"
         d="m 910.07307,321.1566 c 0.52183,-0.57661 1.54121,-1.04837 2.26537,-1.04837 0.72411,0 1.1608,-0.15576 0.97042,-0.34613 -0.64344,-0.64346 1.71676,-1.8299 2.8958,-1.45567 1.10194,0.34974 1.10729,0.38665 0.15642,1.08194 -0.54143,0.39592 -1.31497,0.71986 -1.7189,0.71986 -0.40394,0 -1.33421,0.47176 -2.06723,1.04837 -0.73307,0.5766 -1.80933,1.04836 -2.3917,1.04836 -1.02572,0 -1.02918,-0.0329 -0.11018,-1.04836 z"
         id="path11907" /><path
         style="fill:#90a334;stroke-width:0.524184"
         d="m 902.99658,322.26344 c 0,-0.75344 1.89566,-4.7291 2.86472,-6.00804 0.79299,-1.0466 1.85294,-0.76185 1.85294,0.49779 0,0.42711 -0.52969,1.49301 -1.17711,2.36867 -1.17684,1.59182 -1.17716,1.59189 -1.52029,0.37191 -0.30161,-1.07236 -0.34952,-1.02157 -0.39544,0.41923 -0.0482,1.51221 -1.62482,3.79293 -1.62482,2.35044 z"
         id="path11903" /><path
         style="fill:#90a334;stroke-width:0.524184"
         d="m 908.89366,324.44925 c -1.47537,-0.52901 -0.63725,-1.72013 1.21034,-1.72013 1.10351,0 1.73395,0.21297 1.54335,0.52136 -0.49226,0.79649 -2.02036,1.46172 -2.75369,1.19877 z"
         id="path11891" /><path
         style="fill:#90a334;stroke-width:0.524184"
         d="m 905.53704,325.55032 c 1.25307,-0.43893 2.40627,-0.67015 2.56258,-0.51383 0.39346,0.39347 -2.29881,1.36741 -3.69565,1.33689 -0.72076,-0.0157 -0.30078,-0.32083 1.13307,-0.82306 z"
         id="path11885" /><path
         style="fill:#90a334;stroke-width:0.524184"
         d="m 870.69069,330.36088 c -0.90262,-0.3928 -3.02556,-1.01094 -4.71766,-1.37365 -2.90684,-0.62308 -7.4713,-2.91244 -7.51297,-3.76821 -0.0105,-0.21622 1.44558,-0.39313 3.23579,-0.39313 3.18741,0 3.29986,0.049 5.42058,2.35883 1.47495,1.60653 2.5897,2.35882 3.49528,2.35882 0.7313,0 1.62329,0.35383 1.98219,0.78628 0.7976,0.96107 0.25423,0.96994 -1.90321,0.031 z"
         id="path11877" /><path
         style="fill:#90a334;stroke-width:0.524184"
         d="m 852.81729,330.59191 c -2.02194,-0.93946 -2.06,-1.13837 -0.53553,-2.79829 1.87681,-2.04355 4.14028,-2.54631 6.09951,-1.35482 1.73307,1.05394 2.14761,2.05638 0.85037,2.05638 -0.43001,0 -1.07645,0.47176 -1.43655,1.04836 -0.36009,0.57661 -1.16803,1.04837 -1.7954,1.04837 -0.62738,0 -1.21932,0.17691 -1.31542,0.39314 -0.0961,0.21623 -0.93624,0.0393 -1.86698,-0.39314 z"
         id="path11875" /><path
         style="fill:#90a334;stroke-width:0.524184"
         d="m 873.93786,330.85401 c -0.92428,-1.00906 -2.09204,-1.83465 -2.59506,-1.83465 -1.3227,0 -2.83451,-0.91575 -3.46898,-2.10127 -0.50603,-0.94551 -0.44054,-0.987 0.80839,-0.51216 0.74746,0.28418 1.8871,0.51669 2.53252,0.51669 1.0668,0 2.47933,1.22773 5.27695,4.58662 0.92272,1.10784 0.92608,1.17941 0.0545,1.17941 -0.51035,0 -1.6841,-0.82559 -2.60834,-1.83464 z"
         id="path11873" /><path
         style="fill:#90a334;stroke-width:0.524184"
         d="m 857.91674,332.79434 c -2.61603,-0.31361 -2.96148,-0.68094 -1.31046,-1.39345 1.27631,-0.55081 1.70745,-0.5525 2.28863,-0.009 1.0105,0.94497 0.56258,1.58717 -0.97817,1.40247 z"
         id="path11871" /><path
         style="fill:#90a334;stroke-width:0.524184"
         d="m 879.11533,333.97019 c -0.97708,-0.78281 -0.97063,-0.79249 0.16192,-0.24365 0.64868,0.31435 1.17941,0.68119 1.17941,0.8152 0,0.40111 -0.27184,0.28528 -1.34133,-0.57155 z"
         id="path11869" /><path
         style="fill:#90a334;stroke-width:0.524184"
         d="m 881.29787,334.87241 c -0.75818,-1.20107 -1.70076,-2.18376 -2.09458,-2.18376 -0.39382,0 -1.8651,-1.34539 -3.26955,-2.98976 l -2.55356,-2.98976 2.18469,1.22742 c 1.20159,0.67509 3.52755,2.58446 5.16888,4.24304 2.44123,2.46698 2.8894,3.18489 2.4634,3.94609 -0.45725,0.81703 -0.68883,0.66421 -1.89928,-1.25327 z"
         id="path11867" /><path
         style="fill:#90a334;stroke-width:0.524184"
         d="m 874.64477,341.80659 c -0.38417,-0.46286 -1.88731,-1.37686 -3.34035,-2.0311 -1.45305,-0.65423 -3.4548,-2.04465 -4.44833,-3.08982 -1.43827,-1.51301 -2.1997,-1.90028 -3.73615,-1.90028 -2.0694,0 -3.65865,-1.23004 -2.75578,-2.13291 0.33845,-0.33845 1.45574,-0.31437 3.2479,0.07 2.36907,0.50807 2.68838,0.7232 2.40389,1.61956 -0.29109,0.91715 -0.21152,0.96087 0.70594,0.3879 1.21387,-0.75807 3.11799,-0.13971 5.55603,1.80432 1.31555,1.04899 1.42835,1.34559 0.89248,2.34687 -0.71349,1.33317 -0.25355,1.49071 1.01104,0.3463 0.79519,-0.71967 1.00334,-0.70303 2.07672,0.16616 1.01728,0.82376 1.10278,1.13449 0.58053,2.11029 -0.72924,1.36261 -1.25421,1.43505 -2.19392,0.30273 z"
         id="path11865" /><path
         style="fill:#90a334;stroke-width:0.524184"
         d="m 886.60597,340.35003 c -2.0634,-1.91506 -2.92274,-3.07027 -2.70536,-3.63675 0.2601,-0.6778 0.50248,-0.71535 1.32031,-0.20458 0.55097,0.34409 1.00177,1.05232 1.00177,1.57386 0,0.52155 0.82559,1.79835 1.83464,2.83734 1.66031,1.70956 2.08369,2.26739 1.7036,2.24457 -0.0721,-0.004 -1.49183,-1.27083 -3.15496,-2.81444 z"
         id="path11863" /><path
         style="fill:#90a334;stroke-width:0.524184"
         d="m 892.91526,345.5507 c -4.94546,-5.17163 -6.16839,-6.63579 -6.16839,-7.38508 0,-0.66842 0.19888,-0.65319 1.35402,0.1037 2.23528,1.46463 8.43895,9.62067 7.31767,9.62067 -0.14646,0 -1.27298,-1.05268 -2.5033,-2.33929 z"
         id="path11861" /><path
         style="fill:#90a334;stroke-width:0.524184"
         d="m 888.87003,348.7143 c -0.70623,-0.39111 -1.59132,-0.59319 -1.9669,-0.44908 -1.32063,0.50678 -3.25539,-0.3977 -4.17277,-1.95077 -0.50997,-0.86326 -1.31287,-1.56956 -1.78432,-1.56956 -1.2701,0 -4.15867,-1.08756 -4.15867,-1.56576 0,-0.22816 0.49153,-0.9717 1.09225,-1.65232 0.77878,-0.88234 1.00444,-0.97423 0.78627,-0.32017 -0.87816,2.63284 -0.87879,2.73817 -0.009,1.57256 1.10734,-1.48471 2.03457,-1.54852 1.25196,-0.0861 -0.3218,0.60129 -0.45363,1.22476 -0.29292,1.38548 0.16077,0.16072 0.441,-0.0954 0.62279,-0.56908 0.18173,-0.47371 0.56638,-0.8613 0.85468,-0.8613 0.2883,0 0.38842,0.35382 0.22246,0.78628 -0.35759,0.93184 0.25628,1.03404 1.10619,0.18417 0.90721,-0.90725 3.1666,0.77852 3.37197,2.51591 0.0918,0.7769 0.48472,1.51699 0.87308,1.64466 0.58169,0.19121 0.58966,0.0136 0.0451,-1.00794 -0.62629,-1.17515 -0.60842,-1.19956 0.34224,-0.46622 4.0542,3.12752 4.72867,4.0224 1.81583,2.40929 z"
         id="path11859" /><path
         style="fill:#778c2b;stroke-width:0.524184"
         d="m 926.06069,306.21731 c 0.67709,-0.72075 1.53308,-1.31046 1.90221,-1.31046 0.37479,0 0.0925,0.57854 -0.6394,1.31046 -0.72075,0.72075 -1.57674,1.31046 -1.90221,1.31046 -0.32541,0 -0.0377,-0.58971 0.6394,-1.31046 z"
         id="path12257" /><path
         style="fill:#778c2b;stroke-width:0.524184"
         d="m 921.35467,308.183 c 0.0184,-0.61533 2.06135,-3.0783 2.06544,-2.48987 0,0.2883 -0.21622,0.87178 -0.48487,1.29662 -0.32216,0.50944 -0.27483,0.90828 0.13907,1.17139 0.39455,0.25084 0.1897,0.40193 -0.55186,0.40697 -0.64868,0.004 -1.17418,-0.16888 -1.16778,-0.38511 z"
         id="path12255" /><path
         style="fill:#778c2b;stroke-width:0.524184"
         d="m 914.0229,311.91832 c 0.71059,-0.90065 1.69621,-2.37901 2.1902,-3.28525 0.87497,-1.60517 2.26065,-2.57678 2.8436,-1.99385 0.52402,0.52404 -0.38255,3.41568 -1.165,3.71594 -0.6102,0.23414 -0.65707,0.0898 -0.23007,-0.70802 0.65141,-1.21721 0.67421,-1.59522 0.0962,-1.59522 -0.48287,0 -1.89476,2.64601 -1.74815,3.27615 0.0503,0.21623 -0.18483,0.39314 -0.52251,0.39314 -0.33768,0 -1.09596,0.4128 -1.68514,0.91732 -0.80908,0.69288 -0.75504,0.51665 0.22083,-0.72021 z"
         id="path12251" /><path
         style="fill:#778c2b;stroke-width:0.524184"
         d="m 909.81098,314.36255 c 0,-0.27707 0.50206,-0.97151 1.11573,-1.5432 0.63447,-0.59111 0.98347,-1.38401 0.80913,-1.83828 -0.16858,-0.43936 -0.0979,-0.92776 0.15704,-1.08533 0.25496,-0.15757 0.62074,0.20877 0.81285,0.81409 0.24286,0.76524 -0.0252,1.51202 -0.87958,2.45096 -0.67588,0.74272 -0.89761,1.15797 -0.49268,0.92278 0.49541,-0.28773 0.61387,-0.22965 0.36221,0.17757 -0.4519,0.73119 -1.8847,0.80829 -1.8847,0.10141 z"
         id="path12247" /><path
         style="fill:#778c2b;stroke-width:0.524184"
         d="m 907.37043,316.17272 c -0.67583,-1.45714 0.007,-1.81446 0.7912,-0.41381 0.43969,0.78567 0.61545,0.80244 1.46756,0.14008 0.89321,-0.6943 0.89085,-0.66198 -0.0304,0.4179 -1.25941,1.47613 -1.48349,1.46163 -2.22826,-0.14417 z"
         id="path12229" /><path
         style="fill:#778c2b;stroke-width:0.524184"
         d="m 906.14169,319.3861 c 0,-0.10885 0.41279,-0.52164 0.91732,-0.91733 0.83141,-0.65201 0.84991,-0.63347 0.19793,0.19792 -0.68479,0.87316 -1.11525,1.15083 -1.11525,0.71941 z"
         id="path12225" /><path
         style="fill:#778c2b;stroke-width:0.524184"
         d="m 904.6713,319.84614 c 0.0105,-0.86491 0.12816,-1.15527 0.2611,-0.64526 0.13288,0.51002 0.12418,1.21767 -0.0194,1.57255 -0.14357,0.35489 -0.25229,-0.0624 -0.24165,-0.92729 z"
         id="path12221" /><path
         style="fill:#778c2b;stroke-width:0.524184"
         d="m 902.99658,323.05542 c 0,-0.10884 0.4128,-0.52164 0.91733,-0.91732 0.83141,-0.65202 0.84991,-0.63348 0.19793,0.19791 -0.6848,0.87316 -1.11526,1.15084 -1.11526,0.71941 z"
         id="path12217" /><path
         style="fill:#778c2b;stroke-width:0.524184"
         d="m 903.52077,325.59621 c 0,-0.54984 3.46491,-4.73166 6.12268,-7.38951 3.80374,-3.80389 10.12907,-7.68211 15.24191,-9.34519 1.51579,-0.49306 2.62234,-1.11279 2.4589,-1.37718 -0.16638,-0.26923 0.97126,-0.48071 2.58596,-0.48071 1.58566,0 3.03461,0.24534 3.21996,0.5452 0.22178,0.35886 -0.17073,0.41872 -1.14849,0.17514 -1.34149,-0.33419 -1.41572,-0.28543 -0.76604,0.50318 0.64244,0.77975 0.55547,0.87322 -0.81249,0.87322 -0.84252,0 -1.75596,0.21591 -2.02985,0.4798 -0.27389,0.26389 -1.08768,0.55874 -1.80844,0.65523 -0.86013,0.11514 -1.26317,0.46611 -1.17286,1.02132 0.10285,0.63199 -0.1788,0.7854 -1.11373,0.60667 -1.52816,-0.29212 -3.91409,1.87889 -2.82494,2.57044 0.42674,0.27096 0.19799,0.42212 -0.65449,0.43257 -1.7286,0.0212 -2.85466,0.77025 -2.36035,1.5701 0.28185,0.45601 0.0886,0.54172 -0.67499,0.29938 -1.25773,-0.39919 -2.13275,0.61149 -0.92928,1.07331 0.45075,0.17296 0.81951,0.53342 0.81951,0.80102 0,0.2676 -0.50122,0.21828 -1.11389,-0.10959 -0.84624,-0.45288 -1.40874,-0.43833 -2.34095,0.0606 -0.67484,0.36118 -1.1032,0.85703 -0.95192,1.10187 0.15133,0.24486 -0.29192,0.44519 -0.985,0.44519 -0.69307,0 -1.70952,0.50778 -2.25871,1.12839 l -0.99857,1.1284 1.72965,-0.33422 c 1.08202,-0.20909 1.61019,-0.14092 1.41058,0.18206 -0.17549,0.28396 -1.13077,0.51629 -2.12279,0.51629 -1.25384,0 -1.80371,0.2397 -1.80371,0.78628 0,0.43245 0.27519,0.78627 0.61156,0.78627 1.03396,0 -0.022,0.69821 -1.27057,0.8401 -0.64663,0.0735 -1.82432,0.29584 -2.61714,0.49414 -0.79283,0.19829 -1.44151,0.18041 -1.44151,-0.0397 z"
         id="path12203" /><path
         style="fill:#778c2b;stroke-width:0.524184"
         d="m 864.10867,328.66129 c 0.37839,-0.15143 0.8305,-0.13281 1.00469,0.0414 0.17418,0.17418 -0.13542,0.29807 -0.688,0.27531 -0.61064,-0.0252 -0.73485,-0.14936 -0.31669,-0.31669 z"
         id="path12197" /><path
         style="fill:#778c2b;stroke-width:0.524184"
         d="m 872.92427,330.77907 c -1.05541,-1.1382 -1.59698,-1.33159 -3.03528,-1.08384 -0.96286,0.16586 -1.49358,0.19251 -1.17938,0.0592 0.32031,-0.13587 -0.20846,-1.06908 -1.2037,-2.12434 -0.97624,-1.03511 -1.64287,-2.01414 -1.4814,-2.17561 0.16147,-0.16147 1.08878,0.57456 2.06068,1.63563 1.14985,1.25535 2.23344,1.92921 3.10221,1.92921 0.88517,0 1.71248,0.52996 2.45487,1.57255 1.384,1.94363 1.00281,2.04299 -0.718,0.18716 z"
         id="path12195" /><path
         style="fill:#778c2b;stroke-width:0.524184"
         d="m 901.46539,333.95543 c 0.0252,-0.61065 0.14939,-0.73485 0.31671,-0.3167 0.15144,0.3784 0.13283,0.83051 -0.0414,1.00469 -0.17419,0.17418 -0.2981,-0.13542 -0.27535,-0.68799 z"
         id="path12191" /><path
         style="fill:#778c2b;stroke-width:0.524184"
         d="m 881.70815,336.31251 c -2.25619,-1.79143 -2.90115,-2.41458 -1.90672,-1.84232 0.36038,0.20739 0.65523,0.25351 0.65523,0.10248 0,-0.15102 -0.50023,-0.5423 -1.11163,-0.8695 -0.63762,-0.34126 -0.97263,-0.37003 -0.7856,-0.0675 0.19054,0.30833 -0.20218,0.27823 -0.94526,-0.0725 -0.69916,-0.32996 -1.05891,-0.73116 -0.79938,-0.89155 0.25952,-0.1604 -0.60229,-1.51955 -1.91516,-3.02035 -1.31287,-1.5008 -2.15109,-2.72873 -1.86273,-2.72873 0.28839,0 1.63266,1.29735 2.98737,2.88301 1.35465,1.58566 2.7852,2.88302 3.17902,2.88302 0.39382,0 1.32555,0.96555 2.07052,2.14568 1.26989,2.01158 1.40047,2.08529 2.08961,1.17941 0.6839,-0.899 0.72804,-0.86592 0.63447,0.47524 -0.0553,0.79283 -0.13466,1.44151 -0.17628,1.44151 -0.0414,0 -0.9927,-0.72809 -2.11346,-1.61799 z"
         id="path12189" /><path
         style="fill:#778c2b;stroke-width:0.524184"
         d="m 901.5068,339.50304 c 0,-0.72075 0.11899,-1.0156 0.2644,-0.65522 0.14541,0.36037 0.14541,0.95008 0,1.31045 -0.14541,0.36038 -0.2644,0.0655 -0.2644,-0.65523 z"
         id="path12187" /><path
         style="fill:#778c2b;stroke-width:0.524184"
         d="m 899.89284,342.86656 c 0.0252,-0.61065 0.14939,-0.73485 0.31671,-0.31669 0.15144,0.37839 0.13283,0.8305 -0.0414,1.00468 -0.17419,0.17419 -0.2981,-0.13541 -0.27536,-0.68799 z"
         id="path12183" /><path
         style="fill:#778c2b;stroke-width:0.524184"
         d="m 888.31943,341.40187 c 0,-0.10885 -0.4128,-0.52164 -0.91733,-0.91732 -0.8314,-0.65202 -0.84991,-0.63348 -0.19793,0.19791 0.6848,0.87316 1.11526,1.15084 1.11526,0.71941 z"
         id="path12179" /><path
         style="fill:#778c2b;stroke-width:0.524184"
         d="m 890.72486,344.18048 c -0.74639,-0.88702 -1.35707,-1.83055 -1.35707,-2.09673 0,-0.26619 -0.24982,-0.48397 -0.55511,-0.48397 -0.30533,0 -0.39078,0.29485 -0.18996,0.65523 0.20087,0.36038 -0.17581,0.14014 -0.83707,-0.48941 -0.66362,-0.63184 -1.27618,-1.92345 -1.36728,-2.88302 l -0.16507,-1.73836 0.71268,1.62514 c 0.39199,0.89384 1.06347,1.75975 1.49215,1.92426 0.69244,0.26572 4.31487,5.09964 3.82156,5.09964 -0.10877,0 -0.80845,-0.72575 -1.55483,-1.61278 z"
         id="path12177" /><path
         style="fill:#778c2b;stroke-width:0.524184"
         d="m 894.54275,347.49685 c -0.65198,-0.83138 -0.63348,-0.84992 0.19793,-0.19791 0.50453,0.39568 0.91733,0.80848 0.91733,0.91733 0,0.43142 -0.43046,0.15374 -1.11526,-0.71942 z"
         id="path12173" /><path
         style="fill:#778c2b;stroke-width:0.524184"
         d="m 890.34629,348.84101 c -0.68233,-0.53925 -1.91658,-1.4811 -2.74274,-2.093 l -1.50221,-1.11253 0.63578,1.1879 c 0.51785,0.96763 0.50479,1.14487 -0.0704,0.95579 -0.38837,-0.12767 -0.78125,-0.86776 -0.87309,-1.64465 -0.20537,-1.7374 -2.46476,-3.42317 -3.37197,-2.51592 -0.84991,0.84987 -1.46378,0.74767 -1.10618,-0.18417 0.16595,-0.43245 0.0658,-0.78628 -0.22247,-0.78628 -0.2883,0 -0.67295,0.38759 -0.85468,0.8613 -0.18179,0.47372 -0.46202,0.7298 -0.62278,0.56908 -0.16072,-0.16072 -0.0288,-0.78419 0.29291,-1.38548 0.78261,-1.46237 -0.14462,-1.39856 -1.25196,0.0861 -0.86978,1.16612 -0.86936,1.07233 0.007,-1.57255 0.16763,-0.50566 -0.30167,-0.21161 -1.04575,0.65522 -1.41981,1.65396 -1.76194,1.47752 -0.76117,-0.39247 0.49939,-0.93313 0.40404,-1.26363 -0.59898,-2.07583 -1.07337,-0.86919 -1.28153,-0.88583 -2.07672,-0.16616 -1.26459,1.14441 -1.72453,0.98687 -1.01104,-0.3463 0.53587,-1.00128 0.42307,-1.29788 -0.89248,-2.34687 -2.43804,-1.94403 -4.34216,-2.56239 -5.55603,-1.80432 -0.91746,0.57297 -0.99703,0.52925 -0.70594,-0.3879 0.28449,-0.89636 -0.0348,-1.11149 -2.40389,-1.61956 -1.8185,-0.39 -2.90697,-0.41091 -3.25535,-0.0625 -0.34837,0.34837 -0.72667,0.13396 -1.13138,-0.64128 -0.33441,-0.64055 -0.94256,-1.07343 -1.35144,-0.96195 -2.26283,0.61697 -3.10225,0.64957 -3.10225,0.12051 0,-0.32191 0.53296,-0.5853 1.18436,-0.5853 0.65141,0 1.479,-0.47176 1.83909,-1.04836 0.3601,-0.57661 1.00654,-1.04837 1.43655,-1.04837 1.31532,0 0.87341,-1.00795 -0.92176,-2.10249 -0.93698,-0.57128 -1.34977,-1.0387 -0.91732,-1.0387 0.43245,0 1.59246,0.49148 2.5778,1.09218 1.37061,0.83557 1.62038,1.19795 1.06306,1.54239 -0.61399,0.37947 -0.60722,0.49062 0.0431,0.70729 12.08191,4.02523 17.37491,6.87661 23.63823,12.73397 2.21604,2.07242 5.48396,4.83899 7.262,6.14793 l 3.2329,2.37991 -1.81137,-0.0681 c -0.99626,-0.0375 -2.36968,-0.5093 -3.05201,-1.04855 z"
         id="path12171" /><path
         style="fill:#778c2b;stroke-width:0.524184"
         d="m 897.16367,351.69033 c -0.65198,-0.83139 -0.63347,-0.84993 0.19793,-0.19791 0.87314,0.68478 1.15085,1.11523 0.71939,1.11523 -0.10882,0 -0.52161,-0.41279 -0.91732,-0.91732 z"
         id="path12167" /><path
         style="fill:#526028;stroke-width:0.524184"
         d="m 896.77646,361.04901 c -0.58594,-0.3712 -0.46679,-1.07706 0.65502,-3.88111 0.75414,-1.88506 1.22696,-3.8032 1.05067,-4.26252 -0.17623,-0.45933 -2.30546,-2.26812 -4.73155,-4.01954 -2.42608,-1.75142 -6.37324,-5.00227 -8.77149,-7.2241 -6.03928,-5.59504 -11.74523,-8.86037 -20.77216,-11.88719 -2.99871,-1.0055 -5.00105,-2.2283 -2.62092,-1.60056 0.72075,0.19009 2.37193,0.56339 3.66929,0.82954 6.47355,1.32806 13.07195,4.45916 17.54413,8.32509 11.67741,10.09453 15.4041,13.18229 15.91009,13.18229 0.9807,0 1.38668,-3.63197 1.37704,-12.31833 -0.01,-9.02494 -1.03752,-17.89057 -3.08556,-26.62278 -0.74188,-3.16309 -0.98337,-5.05784 -0.62955,-4.9399 0.87539,0.2918 2.57018,6.99217 4.24642,16.78814 0.18813,1.09964 0.52408,1.92523 0.74644,1.83464 0.22241,-0.0906 1.69961,-1.69794 3.28265,-3.5719 5.5118,-6.52478 8.40692,-8.95697 13.55095,-11.3842 4.17738,-1.97111 7.36169,-2.94815 8.69307,-2.66728 0.659,0.13901 0.0131,0.54143 -1.87868,1.17028 -8.12134,2.6998 -16.16076,8.89513 -21.38399,16.47887 l -1.94221,2.81998 -0.11505,9.24055 c -0.1387,11.13972 -0.92047,18.34009 -2.35501,21.68993 -1.11981,2.615 -1.28488,2.75165 -2.4396,2.0201 z"
         id="path12297" /></g></g></svg>
