<?xml version="1.0" encoding="UTF-8" standalone="no"?>
<!-- Created with Inkscape (http://www.inkscape.org/) -->

<svg
   width="166.05127mm"
   height="281.60889mm"
   viewBox="0 0 166.05127 281.60889"
   version="1.1"
   id="svg5"
   xml:space="preserve"
   inkscape:version="1.2.1 (9c6d41e410, 2022-07-14)"
   sodipodi:docname="drawing.svg"
   xmlns:inkscape="http://www.inkscape.org/namespaces/inkscape"
   xmlns:sodipodi="http://sodipodi.sourceforge.net/DTD/sodipodi-0.dtd"
   xmlns="http://www.w3.org/2000/svg"
   xmlns:svg="http://www.w3.org/2000/svg"><sodipodi:namedview
     id="namedview7"
     pagecolor="#505050"
     bordercolor="#eeeeee"
     borderopacity="1"
     inkscape:showpageshadow="0"
     inkscape:pageopacity="0"
     inkscape:pagecheckerboard="0"
     inkscape:deskcolor="#505050"
     inkscape:document-units="mm"
     showgrid="false"
     inkscape:zoom="1.0255231"
     inkscape:cx="-2671.3197"
     inkscape:cy="1254.9693"
     inkscape:window-width="3840"
     inkscape:window-height="1526"
     inkscape:window-x="2869"
     inkscape:window-y="-11"
     inkscape:window-maximized="1"
     inkscape:current-layer="g2018"
     showguides="true" /><defs
     id="defs2" /><g
     inkscape:label="Layer 1"
     inkscape:groupmode="layer"
     id="layer1"
     style="display:inline"
     transform="translate(-1276.9108,-373.00927)"><g
       id="g13049"
       transform="matrix(2.2040458,0,0,2.2040458,-592.24467,-442.49267)"><path
         style="fill:#f6f9fb;stroke-width:0.524184"
         d="m 898.96732,446.44219 c 0.30461,0.0723 0.96009,1.0302 1.32963,2.09031 0.3015,0.86543 0.44883,1.57355 0.32712,1.57355 -0.25523,0 -1.82108,-2.934 -1.82108,-3.4122 0,-0.20173 0.0628,-0.27577 0.16433,-0.25166 z"
         id="path10785" /><path
         style="fill:#f6f9fb;stroke-width:0.524184"
         d="m 890.3694,445.75903 c -0.80993,0.0663 -1.80081,0.31384 -3.36052,0.77411 -5.4434,1.60634 -6.47787,3.14612 -2.60243,3.87315 3.19753,0.59987 5.19232,-0.0925 6.16913,-2.14096 0.47963,-1.0057 1.08635,-1.82831 1.34824,-1.82831 0.26188,0 0.0298,0.87508 -0.51573,1.9451 -1.20462,2.36281 -1.27165,4.76123 -0.17621,6.3252 1.02273,1.46015 2.82358,1.48972 4.6209,0.076 2.18952,-1.72228 2.52779,-2.75114 1.83555,-5.58053 -0.75315,-3.07836 -0.66164,-2.97447 -1.98541,-2.26602 -0.6013,0.32181 -1.09347,0.39896 -1.09347,0.17105 0,-0.2279 -0.88465,-0.69428 -1.96577,-1.03611 -0.83555,-0.26418 -1.46436,-0.37895 -2.27428,-0.31264 z"
         id="path10783" /><path
         style="fill:#f6f9fb;stroke-width:0.524184"
         d="m 899.85047,445.75203 c -0.21851,0.0146 -0.43522,0.0999 -0.6904,0.23254 -0.62871,0.32682 -1.21311,0.65141 -1.29811,0.72141 -0.0851,0.07 0.12523,1.27648 0.46716,2.68097 0.6699,2.75191 1.69513,4.26064 3.3569,4.94078 2.47792,1.0142 3.93487,0.34993 3.92017,-1.788 -0.009,-1.2581 -0.63673,-2.29794 -2.6572,-4.3987 -1.77179,-1.84217 -2.443,-2.43269 -3.09852,-2.389 z"
         id="path10781" /><path
         style="fill:#f6f9fb;stroke-width:0.524184"
         d="m 903.26628,442.64214 c -0.31497,-0.0323 -0.60538,0.12283 -1.048,0.44649 -0.9886,0.7229 -0.98529,0.75668 0.16692,1.56373 0.73638,0.51576 1.07133,1.16098 0.89349,1.72134 -0.45232,1.42527 3.38356,4.80152 6.36601,5.60327 1.38872,0.37332 2.56877,0.69467 2.62207,0.71417 0.0533,0.0195 0.67908,-0.1858 1.39061,-0.4563 1.0664,-0.40546 1.2838,-0.82804 1.2392,-2.40606 -0.046,-1.62163 -0.3785,-2.13615 -2.17661,-3.3662 -1.16741,-0.79859 -3.2268,-1.61472 -4.57595,-1.81384 -1.34914,-0.19912 -3.00676,-0.79797 -3.68401,-1.33067 -0.53934,-0.42424 -0.87876,-0.64367 -1.19373,-0.67593 z"
         id="path10779" /><path
         style="fill:#f6f9fb;stroke-width:0.524184"
         d="m 885.10253,442.3326 c -0.49989,0.023 -1.12285,0.0845 -1.93114,0.17105 -1.88203,0.20155 -3.73432,0.48638 -4.11655,0.63304 -1.00455,0.38549 -0.85393,1.56814 0.35347,2.77554 1.54803,1.548 3.26247,1.40513 9.29865,-0.77618 0.43025,-0.15549 0.18308,-0.70218 -0.73173,-1.61696 -0.9792,-0.97923 -1.37301,-1.25562 -2.8727,-1.18649 z"
         id="path10777" /><path
         style="fill:#f6f9fb;stroke-width:0.524184"
         d="m 920.12417,436.62752 c -1.04505,0.0841 -2.85873,0.59203 -6.64404,1.62109 -2.73886,0.74459 -5.74633,1.35874 -6.68331,1.36374 -1.14571,0.007 -1.70378,0.26213 -1.70378,0.78083 0,0.4242 0.7668,0.99295 1.70378,1.26349 l 1.70377,0.49196 -1.80868,0.047 c -2.39965,0.0627 -1.52263,0.94009 1.87172,1.87224 5.20572,1.42959 9.78678,0.85149 13.17233,-1.66192 2.06145,-1.53042 2.20424,-3.1794 0.42013,-4.85552 -0.71032,-0.6673 -0.98688,-1.00703 -2.03192,-0.92294 z"
         id="path10775" /><path
         style="fill:#f6f9fb;stroke-width:0.524184"
         d="m 873.38025,432.27327 -0.45268,2.02985 c -0.57092,2.56139 0.47832,4.33056 3.84472,6.4828 1.74417,1.11511 2.77356,1.44006 3.8809,1.22525 0.82884,-0.16078 2.53894,-0.29249 3.80029,-0.29249 1.68902,0 2.2934,-0.20689 2.2934,-0.78599 0,-0.49326 -0.53746,-0.80963 -1.44177,-0.84853 l -1.44126,-0.062 1.57251,-0.33952 c 1.553,-0.33534 1.52882,-0.36363 -1.92649,-2.30012 -1.92444,-1.07848 -4.99058,-2.66949 -6.81406,-3.53518 z"
         id="path10769" /><path
         style="fill:#f6f9fb;stroke-width:0.524184"
         d="m 921.1086,428.19499 c -1.03318,-0.0163 -2.54243,0.48464 -4.56871,1.50224 -3.6857,1.85094 -11.41818,6.84693 -11.43548,7.38869 -0.022,0.67943 6.59481,-1.16817 9.68623,-2.70474 2.98402,-1.48318 3.06456,-1.49654 1.57252,-0.25425 -1.708,1.42215 -6.41508,3.37635 -8.27547,3.43545 -0.63788,0.0203 -1.63153,0.23953 -2.20813,0.48731 -2.19135,0.94166 4.04337,0.51804 8.27443,-0.56224 6.08519,-1.55369 7.16466,-2.22952 7.18096,-4.49275 0.004,-0.61783 0.3776,-1.26481 0.8294,-1.43816 0.53561,-0.20555 0.76361,-0.81759 0.65526,-1.75958 -0.12095,-1.05159 -0.67782,-1.58562 -1.71101,-1.60197 z"
         id="path10757" /><path
         style="fill:#f6f9fb;stroke-width:0.524184"
         d="m 904.4843,425.73623 c 0.0974,0.0963 -0.45539,1.25466 -1.22887,2.57452 -0.77349,1.31986 -1.61531,2.52882 -1.87069,2.68666 -0.25543,0.15783 0.29749,-1.00055 1.22887,-2.57452 0.93137,-1.57398 1.77319,-2.78296 1.87069,-2.68666 z"
         id="path10751" /><path
         style="fill:#f6f9fb;stroke-width:0.524184"
         d="m 873.83552,425.66443 c -0.59874,-0.0366 -0.88104,0.17523 -1.07073,0.70951 -0.18164,0.5116 -0.65451,1.30913 -1.05059,1.77251 -1.18682,1.38849 0.51055,2.80532 7.43211,6.2053 6.68182,3.28225 7.07657,3.4336 7.07657,2.71301 0,-0.25331 -0.70015,-0.75055 -1.55546,-1.10484 -0.85536,-0.3543 -1.85556,-1.00617 -2.22312,-1.449 -0.46778,-0.56369 -0.008,-0.46836 1.53427,0.31832 2.61987,1.33657 2.57614,1.33132 2.95434,0.34572 0.2026,-0.52801 -1.05758,-1.8323 -3.92534,-4.06229 -5.11288,-3.97585 -6.56655,-4.89176 -8.45943,-5.33145 -0.27819,-0.0646 -0.51304,-0.10459 -0.71262,-0.11679 z"
         id="path10749" /><path
         style="fill:#f6f9fb;stroke-width:0.524184"
         d="m 920.43526,420.29008 c -0.27023,2.2e-4 -0.60086,0.0452 -1.02578,0.1142 -2.73382,0.44364 -10.50091,7.27671 -10.31461,9.07438 0.0387,0.37311 -1.03411,1.71152 -2.38435,2.9745 -1.35025,1.26298 -2.36494,2.56712 -2.25465,2.89801 0.28866,0.86594 0.30139,0.86042 4.63435,-2.06344 2.17232,-1.46586 5.95969,-3.62933 8.41602,-4.80797 5.2605,-2.52416 6.01074,-3.56712 4.64209,-6.45129 -0.63582,-1.33984 -0.90238,-1.73905 -1.71307,-1.73839 z"
         id="path10741" /><path
         style="fill:#f6f9fb;stroke-width:0.524184"
         d="m 912.79387,418.13879 c -0.86018,0.006 -1.47728,0.68559 -2.45877,2.70733 -0.72075,1.48468 -2.313,4.46989 -3.53828,6.6337 -1.22528,2.16382 -2.22777,4.04157 -2.22777,4.17236 0,0.13079 2.18201,-1.9104 4.8488,-4.53565 2.66678,-2.62523 5.37937,-5.1445 6.02805,-5.59862 1.44816,-1.01382 1.53973,-2.33888 0.16175,-2.33888 -0.55956,0 -1.16284,-0.23569 -1.34101,-0.52399 -0.17818,-0.2883 -0.84113,-0.52125 -1.47277,-0.51625 z"
         id="path10731" /><path
         style="fill:#f6f9fb;stroke-width:0.524184"
         d="m 878.58045,417.16729 c -0.51469,0.10032 -1.25964,1.1351 -1.71411,2.38228 -0.76369,2.09558 -0.74374,2.33072 0.39636,4.71806 0.92299,1.93277 2.24599,3.30919 5.73505,5.96656 2.49444,1.89983 4.70038,3.36725 4.90203,3.2613 0.20166,-0.10595 -0.56514,-1.52268 -1.70377,-3.14812 -2.63487,-3.76142 -2.72368,-4.8533 -0.10439,-1.28313 1.08113,1.47361 2.12645,2.68317 2.32286,2.68717 0.19641,0.004 -0.24981,-1.82019 -0.99167,-4.05453 -1.16091,-3.49652 -1.80728,-4.5249 -4.64055,-7.38456 -2.04636,-2.06546 -3.63606,-3.2553 -4.20181,-3.14503 z"
         id="path10727" /><path
         style="fill:#f6f9fb;stroke-width:0.524184"
         d="m 908.94139,413.45236 c -0.84271,0.11063 -1.81739,0.63142 -2.77968,1.5937 -2.34315,2.34317 -3.68636,5.23264 -5.24309,11.2789 l -1.36736,5.31131 1.32964,0.47284 c 1.18115,0.42008 1.54846,0.20864 3.29489,-1.89446 1.08113,-1.30193 1.96577,-2.51825 1.96577,-2.70268 0,-0.18444 1.17952,-2.47306 2.62103,-5.08599 1.44151,-2.61294 2.62103,-5.42676 2.62103,-6.25285 0,-1.94993 -1.03772,-2.90514 -2.44223,-2.72077 z"
         id="path10701" /><path
         style="fill:#f6f9fb;stroke-width:0.524184"
         d="m 896.96227,410.94296 c -0.53199,0.006 -1.10223,0.0958 -1.69602,0.2744 -2.58978,0.77911 -3.39598,2.0894 -2.69389,4.37854 0.46234,1.50743 0.9121,7.72254 0.971,13.41159 0.0119,1.15701 0.27011,1.70377 0.80409,1.70377 0.64559,0 0.79969,-1.00851 0.85989,-5.63532 l 0.0734,-5.6348 0.61857,4.98006 c 0.67966,5.47054 0.87818,5.3942 2.05155,-0.78651 l 0.79582,-4.19355 -0.27543,3.66955 c -0.15154,2.0181 -0.46501,4.54204 -0.6966,5.60896 -0.23159,1.06691 -0.29169,2.06941 -0.13333,2.22777 0.97346,0.97344 1.24557,0.39242 2.73834,-5.84926 1.10597,-4.62457 1.08453,-9.06458 -0.0584,-12.08453 -0.51116,-1.35031 -1.76299,-2.08788 -3.35897,-2.07067 z"
         id="path10685" /><path
         style="fill:#f6f9fb;stroke-width:0.524184"
         d="m 888.79688,408.85884 c -0.29262,-0.007 -0.68479,0.20943 -1.41852,0.64286 -2.55639,1.51008 -3.43845,3.55918 -3.06596,7.12308 0.17723,1.69526 0.88234,4.20186 1.56735,5.5702 0.685,1.36835 1.76948,4.08048 2.40967,6.02651 0.6969,2.11856 1.45713,3.53828 1.89446,3.53828 0.51038,0 0.65179,-0.43425 0.46974,-1.44177 -0.14326,-0.79283 -0.60567,-3.31231 -1.02785,-5.59862 -0.42223,-2.28633 -0.67765,-4.24714 -0.56741,-4.35736 0.22791,-0.22793 2.40606,8.96744 2.40606,10.15752 0,0.42766 0.23621,0.6319 0.52451,0.45372 0.30056,-0.18578 0.524,-2.91127 0.524,-6.38928 0,-6.19475 -1.27565,-12.81522 -2.89594,-15.03112 -0.33477,-0.45782 -0.52748,-0.68734 -0.82011,-0.69402 z"
         id="path10683" /><path
         style="fill:#f6f9fb;stroke-width:0.524184"
         d="m 886.86576,405.81252 c -2.2977,0 -2.76746,0.17524 -3.24011,1.20923 -0.57944,1.26757 -0.22678,3.77031 0.53123,3.77031 0.24275,0 0.65685,-0.38488 0.92036,-0.85576 0.26356,-0.47087 1.19691,-1.15814 2.07429,-1.52704 1.43789,-0.6046 1.69753,-0.55892 2.63188,0.46302 0.57016,0.62356 1.19751,1.66436 1.39423,2.31304 0.40923,1.34956 1.2278,1.5456 1.6676,0.39946 0.16658,-0.43417 -0.49704,-1.88666 -1.49655,-3.27629 -1.74117,-2.42085 -1.87658,-2.49597 -4.48293,-2.49597 z"
         id="path10675" /><path
         style="fill:#f6f9fb;stroke-width:0.524184"
         d="m 890.35082,405.55052 1.72496,2.40192 c 2.14061,2.98077 2.05181,2.93056 3.95066,2.21382 1.28771,-0.48606 1.79414,-0.436 2.8143,0.27853 0.68422,0.47925 1.42744,0.87179 1.65158,0.87179 0.66477,0 0.46352,-2.44834 -0.24753,-3.01119 -1.17239,-0.928 -6.68221,-2.75487 -8.30854,-2.75487 z"
         id="path10671" /><path
         style="fill:#f6f9fb;stroke-width:0.524184"
         d="m 879.97058,405.04567 c -0.24767,0.0338 -0.80193,0.47699 -1.64641,1.42214 -0.83702,0.93678 -1.68464,1.70325 -1.88309,1.70325 -0.19846,0 0.19264,-0.58831 0.86868,-1.30793 0.67604,-0.71961 1.08887,-1.44896 0.91725,-1.62057 -0.69003,-0.69 -2.41291,0.45073 -3.98373,2.63808 -1.82819,2.54573 -2.47379,4.78948 -1.96319,6.82387 0.28073,1.11851 0.63657,1.32964 2.23966,1.32964 1.53161,0 2.27599,-0.39436 3.79046,-2.00712 1.03653,-1.10372 2.52378,-3.28103 3.30523,-4.83898 1.28195,-2.55582 1.33634,-2.88015 0.55552,-3.31711 -0.65172,-0.36473 -1.06734,-0.17814 -1.6831,0.75551 -1.37824,2.08973 -3.29288,4.22344 -3.55482,3.96152 -0.13655,-0.13657 0.60255,-1.36259 1.64279,-2.7249 1.36832,-1.79206 1.80753,-2.87369 1.39475,-2.8174 z"
         id="path10665" /><path
         style="fill:#f6f9fb;stroke-width:0.524184"
         d="m 890.37253,404.04263 c -0.18211,-0.008 -0.38958,0.0256 -0.57878,0.10129 -0.41814,0.16733 -0.2939,0.29167 0.31678,0.31677 0.55254,0.0228 0.86199,-0.10125 0.68781,-0.27543 -0.0871,-0.0871 -0.24371,-0.13513 -0.42581,-0.14263 z"
         id="path10661" /><path
         style="fill:#f6f9fb;stroke-width:0.524184"
         d="m 873.13895,401.11623 c -0.65639,0.0475 -1.4984,0.20675 -2.5492,0.47905 -4.64425,1.20343 -6.64025,2.17635 -8.15454,3.97598 -1.53237,1.82111 -1.67954,2.38922 -0.7183,2.77709 1.52682,0.61609 3.58935,0.24741 8.78034,-1.56993 6.54643,-2.29188 7.16905,-2.67065 6.11953,-3.72018 -0.6471,-0.64711 -0.95245,-0.64119 -2.27428,0.0424 -1.69014,0.87399 -7.09689,1.99762 -6.72621,1.39785 0.12892,-0.20859 1.01998,-0.50666 1.98024,-0.66249 0.96027,-0.15583 2.67629,-0.67402 3.81321,-1.15136 1.75712,-0.73773 1.93189,-0.94413 1.16427,-1.37769 -0.30799,-0.17394 -0.77867,-0.2382 -1.43506,-0.19069 z"
         id="path10657" /><path
         style="fill:#f6f9fb;stroke-width:0.524184"
         d="m 902.67875,401.09663 c -0.74253,0.0285 -1.39195,0.28145 -2.56057,0.78238 -1.67287,0.71708 -3.64238,1.0557 -6.20737,1.0666 -3.00452,0.0128 -3.55637,0.13222 -2.75694,0.59635 0.63646,0.36952 2.82634,0.48404 6.02806,0.31574 2.7657,-0.14537 4.43887,-0.0832 3.71812,0.13798 -0.72076,0.22113 -2.31301,0.42553 -3.53829,0.45423 -1.22528,0.0287 -2.22777,0.24149 -2.22777,0.47284 0,0.23134 1.17997,0.84497 2.62258,1.36374 1.44266,0.51876 2.754,1.15493 2.91404,1.41387 0.44508,0.72015 8.81984,0.58163 9.55962,-0.15813 0.92581,-0.92583 0.76514,-3.27958 -0.28836,-4.22507 -0.50453,-0.4528 -2.36996,-1.19786 -4.14548,-1.65571 -1.53968,-0.39704 -2.37511,-0.59331 -3.11764,-0.56482 z"
         id="path10655" /><path
         style="fill:#f6f9fb;stroke-width:0.524184"
         d="m 856.03199,394.20244 c -0.79174,-0.0194 -1.06608,0.22066 -1.4578,0.61237 -0.46812,0.46812 -0.85111,1.14684 -0.85111,1.50844 0,1.07592 2.20647,2.71544 4.55218,3.38273 1.20612,0.34312 3.18016,1.1848 4.38681,1.87018 l 2.19367,1.24591 3.59719,-1.25677 c 1.97842,-0.69121 3.95515,-1.25677 4.39302,-1.25677 0.43784,0 0.79633,-0.17839 0.79633,-0.39636 0,-0.21798 -1.47441,-0.44744 -3.27628,-0.51004 -1.80189,-0.0626 -3.9839,-0.35307 -4.8488,-0.64544 -1.23382,-0.41708 -0.797,-0.46611 2.02675,-0.22789 4.38526,0.36997 4.25571,-0.31455 -0.29766,-1.57148 -7.13702,-1.97017 -9.89475,-2.72255 -11.2143,-2.75488 z"
         id="path10623" /><path
         style="fill:#f6f9fb;stroke-width:0.524184"
         d="m 907.37252,392.30285 c -0.45539,-0.003 -0.94317,0.058 -1.43505,0.19379 -2.21573,0.61179 -5.29582,1.98304 -7.13445,3.17603 -0.72075,0.46765 -2.35604,1.41822 -3.63389,2.11253 -4.43276,2.40849 -2.60973,2.99142 3.6096,1.15445 1.28394,-0.37922 2.42703,-0.59655 2.54041,-0.48317 0.32044,0.32047 -6.66548,2.37608 -8.07495,2.37608 -0.81364,0 -1.25523,0.30256 -1.25523,0.85938 0,1.34944 5.31472,0.64206 9.52759,-1.26814 3.41469,-1.54829 8.29458,-5.4363 8.29458,-6.60838 0,-0.90983 -1.07243,-1.50237 -2.43861,-1.51257 z"
         id="path10611" /><path
         style="fill:#f6f9fb;stroke-width:0.524184"
         d="m 873.29036,391.61659 c -0.15444,0.0551 -0.0552,0.50642 0.44184,1.30224 0.37762,0.60468 0.87096,1.09968 1.09657,1.09968 0.22561,0 0.0193,-0.59729 -0.45888,-1.32705 -0.51682,-0.78875 -0.92509,-1.12996 -1.07953,-1.07487 z"
         id="path10607" /><path
         style="fill:#f6f9fb;stroke-width:0.524184"
         d="m 855.1447,388.59041 c -0.97073,0.0557 -1.2083,0.30563 -1.29346,0.97255 -0.0736,0.5766 0.16259,1.60385 0.52452,2.28307 0.54109,1.01544 1.82275,1.54214 7.21041,2.96209 9.3289,2.45869 10.20886,2.41091 5.6348,-0.30644 -1.51358,-0.89919 -2.28037,-1.46725 -1.70377,-1.26194 0.57661,0.2053 1.52043,0.50165 2.09703,0.65836 1.02664,0.27901 1.02825,0.26189 0.0718,-0.82165 -1.40201,-1.58833 -8.47489,-4.3943 -11.30474,-4.485 -0.50809,-0.0163 -0.91304,-0.0196 -1.23662,-0.001 z"
         id="path10595" /><path
         style="fill:#f6f9fb;stroke-width:0.524184"
         d="m 910.14238,386.23451 c -0.61037,-0.0593 -1.72472,0.27651 -3.73879,0.96945 -1.67592,0.5766 -3.55005,1.04851 -4.1646,1.04851 -0.99086,0 -5.00848,4.01101 -5.00848,5.00021 0,0.1898 0.88464,-0.15705 1.96577,-0.77101 l 1.96577,-1.11673 -1.83452,1.57458 c -1.00904,0.86603 -2.01154,1.58105 -2.22777,1.58905 -0.21622,0.008 -0.39325,0.24966 -0.39325,0.53795 0,0.77473 0.20186,0.71026 4.91804,-1.57251 2.38252,-1.15321 4.88908,-2.09651 5.57021,-2.09651 1.74201,0 3.66437,-1.97288 3.66437,-3.7605 0,-0.88857 -0.10638,-1.3432 -0.71675,-1.40249 z"
         id="path10583" /><path
         style="fill:#f6f9fb;stroke-width:0.524184"
         d="m 857.93265,385.45936 c -0.28551,0.0228 -0.53284,0.0696 -0.72761,0.14366 -1.55144,0.58986 -1.88539,2.11739 -0.46767,2.13889 0.50452,0.008 2.45033,0.57474 4.32428,1.25987 1.87396,0.68514 3.56942,1.26856 3.76773,1.29656 0.52507,0.0741 0.32697,-2.19421 -0.25941,-2.96881 -0.77128,-1.01885 -4.63878,-2.03008 -6.63732,-1.87017 z"
         id="path10581" /><path
         style="fill:#f6f9fb;stroke-width:0.524184"
         d="m 908.42775,383.93439 c -0.35571,-0.013 -0.7683,-0.008 -1.23765,0.017 -2.96672,0.15929 -5.21488,1.49938 -4.48809,2.67529 0.51076,0.8265 1.76052,0.71628 4.75009,-0.4191 3.16628,-1.20247 3.46569,-2.18211 0.97565,-2.27324 z"
         id="path10575" /><path
         style="fill:#f6f9fb;stroke-width:0.524184"
         d="m 865.38697,376.7204 c -1.11552,0 -3.8031,2.21533 -3.776,3.11247 0.0581,1.9222 3.17898,6.6202 7.51944,11.31869 3.30106,3.57333 4.78367,4.84792 5.08083,4.36717 0.26854,-0.43455 -0.26366,-1.53447 -1.47898,-3.05562 -3.04051,-3.80572 -3.00555,-3.74803 -2.0469,-3.38016 1.22006,0.46818 1.06755,-0.3459 -0.45011,-2.40295 -0.72075,-0.97693 -1.30297,-1.90737 -1.29397,-2.06758 0.0195,-0.34077 0.48846,0.23186 3.61683,4.41575 1.27776,1.7089 2.41019,2.84695 2.51613,2.52905 0.10598,-0.31789 -0.89395,-2.78383 -2.22209,-5.47977 -2.33806,-4.74595 -6.01704,-9.35705 -7.46518,-9.35705 z"
         id="path10553" /><path
         style="fill:#f6f9fb;stroke-width:0.524184"
         d="m 870.78406,373.17436 c -1.36425,0.0414 -3.87065,1.40346 -4.05298,2.35025 -0.0995,0.51657 0.75793,1.74244 2.05362,2.93677 1.52953,1.40989 3.04498,3.74337 4.85138,7.46983 1.44486,2.98058 2.62723,5.66583 2.62723,5.96707 0,0.30124 0.2357,0.54777 0.524,0.54777 0.2883,0 0.524,-0.0592 0.524,-0.13126 -1e-4,-0.15519 -2.3262,-7.52905 -2.85254,-9.04234 -0.24558,-0.70601 -0.0981,-0.61999 0.45165,0.26252 0.44902,0.72075 1.31379,2.90225 1.92185,4.84828 0.60805,1.94604 1.34904,3.53829 1.64641,3.53829 1.00874,0 -0.10067,-5.05779 -1.85674,-8.4646 -0.94399,-1.8313 -2.35023,-4.80925 -3.12487,-6.6182 -0.77462,-1.80894 -1.76868,-3.42734 -2.20865,-3.59617 -0.13818,-0.053 -0.30947,-0.0741 -0.50436,-0.0682 z"
         id="path10543" /><path
         style="fill:#f6f9fb;stroke-width:0.524184"
         d="m 898.49554,371.86915 c -0.80791,-0.13153 -1.277,0.12775 -2.28099,0.97255 -2.13998,1.80066 -4.7501,5.90723 -4.7501,7.47345 v 1.31878 l 1.67328,-1.53996 1.67328,-1.53944 -0.88676,1.42317 c -0.48786,0.78268 -0.88729,1.54948 -0.88729,1.70377 0,0.63933 0.66171,0.11421 3.99252,-3.16776 2.45486,-2.41887 3.79003,-3.37235 4.47157,-3.19412 0.74974,0.19606 0.97151,-0.0376 0.97151,-1.02371 0,-0.70281 -0.29487,-1.35296 -0.65525,-1.44436 -0.36038,-0.0914 -1.42607,-0.41864 -2.36834,-0.7276 -0.37692,-0.1236 -0.68412,-0.21092 -0.95343,-0.25477 z"
         id="path10537" /><path
         style="fill:#f6f9fb;stroke-width:0.524184"
         d="m 889.75241,371.54617 c -0.37026,0.002 -0.77305,0.0472 -1.11828,0.13385 -1.22376,0.30714 -1.26477,0.49694 -1.63814,7.52615 -0.21067,3.96609 -0.67406,8.33791 -1.0294,9.71517 -0.71908,2.78674 -0.72798,2.77138 1.83245,3.2396 1.72241,0.31496 1.91448,0.20142 3.2458,-1.91823 0.77826,-1.23908 2.14491,-3.07855 3.03702,-4.08761 1.19996,-1.3572 0.98118,-0.84401 -0.84078,1.97197 -1.35453,2.09364 -2.28835,3.98077 -2.0748,4.19355 0.21355,0.21277 2.15015,-1.45012 4.30361,-3.69539 2.1534,-2.24526 3.6309,-3.55016 3.283,-2.90008 -0.3479,0.65008 -2.24799,2.83285 -4.22248,4.85087 -3.75572,3.83851 -4.0053,4.23543 -2.9347,4.66742 1.34883,0.54425 1.8091,0.26955 4.90771,-2.92903 5.28822,-5.45888 8.06566,-10.00322 8.06566,-13.19609 0,-4.0405 -4.65511,-3.62694 -8.12457,0.72192 -0.5766,0.72276 -2.41091,2.8502 -4.07624,4.72736 -1.80304,2.0324 -3.24849,4.23154 -3.57291,5.43636 -0.29962,1.1128 -0.64668,1.92164 -0.77101,1.79731 -0.12434,-0.12433 0.597,-3.39163 1.60249,-7.26054 1.98382,-7.6332 2.36964,-12.36725 1.05006,-12.87363 -0.21656,-0.0831 -0.55423,-0.12327 -0.92449,-0.12093 z"
         id="path10535" /><path
         style="fill:#f6f9fb;stroke-width:0.524184"
         d="m 882.22212,370.0095 c -0.44245,0.0404 -0.76455,0.25087 -1.21026,0.65422 -0.56103,0.50774 -1.17919,1.66537 -1.37356,2.57245 -0.49289,2.29994 -0.71661,2.5483 -1.54823,1.71669 -0.72956,-0.72959 -4.3523,-1.64787 -4.78679,-1.21336 -0.12748,0.12752 0.48651,1.79966 1.36426,3.71605 0.87775,1.91641 1.59577,3.71455 1.59577,3.99563 0,0.28107 0.2357,0.51108 0.524,0.51108 0.2883,0 0.52727,-0.29489 0.53227,-0.65526 0.005,-0.43682 0.17751,-0.39344 0.51624,0.13074 0.36069,0.55811 0.51025,-0.0884 0.51625,-2.22777 0.004,-1.65773 0.18479,-3.01479 0.40101,-3.01532 0.21835,-6.5e-4 0.31232,1.70945 0.21342,3.80028 -0.0989,2.09083 -0.0199,5.51194 0.1757,7.60212 0.32767,3.5027 0.44908,3.80029 1.55081,3.80029 1.12448,0 1.1697,-0.13214 0.7643,-2.22777 -0.23704,-1.22528 -0.41879,-3.05323 -0.40359,-4.06229 0.0254,-1.69376 0.0761,-1.63366 0.6599,0.786 l 0.63252,2.62103 0.49661,-3.93154 0.49713,-3.93103 0.14935,5.3728 c 0.15269,5.49264 0.62822,6.60644 1.61385,3.7791 0.66,-1.89331 1.88276,-16.9459 1.46503,-18.03456 -0.15961,-0.41588 -1.24511,-1.04231 -2.41278,-1.39216 -0.92759,-0.27791 -1.49076,-0.40784 -1.93321,-0.36742 z"
         id="path10527" /><path
         style="fill:#f3cb46;stroke-width:0.524184"
         d="m 890.20701,402.86719 c 1.16789,-1.32381 1.9744,-3.08296 1.41341,-3.08296 -0.18451,0 -0.76683,0.39038 -1.29405,0.86752 -0.89274,0.80793 -0.95858,0.80666 -0.95858,-0.0184 0,-0.70275 -0.20254,-0.77756 -0.97943,-0.36178 -0.53871,0.2883 -1.12842,0.37524 -1.31046,0.19318 -0.18205,-0.18206 -0.33103,0.0896 -0.33103,0.60373 0,0.75769 -0.27304,0.86645 -1.4415,0.57415 -0.79283,-0.19833 -2.21065,-0.48781 -3.15066,-0.64329 -0.96492,-0.1596 -2.47127,-1.04475 -3.4592,-2.0327 -1.62544,-1.62546 -1.72457,-1.91776 -1.39229,-4.10714 0.32877,-2.16651 0.28081,-2.31597 -0.59343,-1.84811 -0.52308,0.27997 -1.29992,1.15178 -1.72624,1.93736 -0.42632,0.78558 -0.78455,1.18596 -0.79613,0.88973 -0.0419,-1.0822 1.73285,-2.99783 3.43791,-3.71024 2.09202,-0.87412 6.48448,-0.94478 9.38364,-0.15095 2.40673,0.659 6.00626,3.90649 6.01931,5.43063 0.0157,1.81392 -1.5866,5.28411 -2.77346,6.00737 l -1.14912,0.70026 1.10131,-1.24832 z"
         id="path11489" /><path
         style="fill:#f3cb46;stroke-width:0.524184"
         d="m 875.55449,402.15053 c -1.11048,-0.98094 -1.89576,-2.09156 -1.74495,-2.46805 0.20333,-0.50763 0.29181,-0.48134 0.3426,0.10175 0.0377,0.43245 1.02531,1.5529 2.19481,2.48988 1.16946,0.93698 1.92392,1.69378 1.6765,1.68177 -0.24736,-0.012 -1.35842,-0.8244 -2.46896,-1.80535 z"
         id="path11487" /><path
         style="fill:#f3cb46;stroke-width:0.524184"
         d="m 887.79524,405.34425 c 0,-0.11331 0.36609,-0.34649 0.81348,-0.51818 0.46653,-0.17901 0.67693,-0.0911 0.49326,0.20601 -0.3078,0.49808 -1.30674,0.73671 -1.30674,0.31217 z"
         id="path11483" /><path
         style="fill:#f3cb46;stroke-width:0.524184"
         d="m 885.31533,405.71119 c 0.51003,-0.13291 1.21768,-0.12417 1.57255,0.0195 0.35492,0.14359 -0.0624,0.25232 -0.92728,0.24164 -0.86491,-0.0107 -1.15525,-0.12816 -0.64527,-0.26106 z"
         id="path11481" /><path
         style="fill:#f3cb46;stroke-width:0.524184"
         d="m 880.8498,405.25044 c -0.79283,-0.43012 -1.44151,-0.8985 -1.44151,-1.04085 0,-0.14234 0.64868,0.0687 1.44151,0.46901 0.79283,0.4003 1.79533,0.8595 2.22778,1.02045 0.6989,0.26011 0.6989,0.29489 0,0.31302 -0.43245,0.0112 -1.43495,-0.33152 -2.22778,-0.76163 z"
         id="path11479" /><path
         style="fill:#f3cb46;stroke-width:0.524184"
         d="m 904.65191,437.00131 c 0,-0.72075 0.11899,-1.01561 0.26439,-0.65523 0.14541,0.36038 0.14541,0.95008 0,1.31046 -0.1454,0.36038 -0.26439,0.0655 -0.26439,-0.65523 z"
         id="path11407" /><path
         style="fill:#f3cb46;stroke-width:0.524184"
         d="m 904.34075,441.04113 c 0.19683,-0.51696 0.48995,-0.80788 0.65135,-0.64649 0.1614,0.16139 3.2e-4,0.58435 -0.35791,0.93993 -0.51769,0.51384 -0.57791,0.45363 -0.29344,-0.29344 z"
         id="path11405" /><path
         style="fill:#f3cb46;stroke-width:0.524184"
         d="m 896.32047,440.92419 c -0.64469,-0.45488 -1.47029,-0.79038 -1.83465,-0.74555 -1.07892,0.13275 -3.02129,-0.63731 -3.02129,-1.19781 0,-0.28552 -0.33768,-0.38956 -0.75037,-0.23119 -0.55175,0.21174 -0.73868,-0.12217 -0.70628,-1.26177 0.0581,-2.04196 -0.49766,-2.52774 -1.0934,-0.9558 -0.46238,1.22016 -0.49011,1.20384 -0.98421,-0.57913 -0.60396,-2.17945 0.15013,-3.33632 2.93239,-4.49883 3.82361,-1.59762 11.09221,-0.0521 12.92738,2.74874 0.48833,0.74524 0.6275,1.19408 0.30927,0.99742 -0.33778,-0.20876 -0.57854,0.0242 -0.57854,0.55983 0,0.83154 -0.0776,0.82218 -0.82905,-0.10011 -0.70791,-0.8688 -0.78691,-0.88344 -0.54064,-0.10019 0.15861,0.50453 0.06,0.91733 -0.21932,0.91733 -0.27924,0 -0.50773,0.70764 -0.50773,1.57255 0,1.41942 -0.45609,1.8445 -1.7406,1.62228 -0.23662,-0.0409 -0.82633,0.41017 -1.31047,1.00245 -0.81788,1.00052 -0.96339,1.01822 -2.05249,0.24978 z"
         id="path11403" /><path
         style="fill:#f3cb46;stroke-width:0.524184"
         d="m 886.50496,439.33998 c -0.2028,-1.62312 -0.25989,-3.05998 -0.1268,-3.19305 0.13304,-0.13306 0.40787,1.08607 0.61062,2.70919 0.20281,1.62311 0.25989,3.05998 0.1268,3.19304 -0.13303,0.13307 -0.40786,-1.08607 -0.61062,-2.70918 z"
         id="path11401" /><path
         style="fill:#f3cb46;stroke-width:0.524184"
         d="m 901.42403,443.08551 c 0,-0.11331 0.36609,-0.34648 0.81348,-0.51818 0.46653,-0.179 0.67693,-0.0911 0.49326,0.20601 -0.3078,0.49808 -1.30674,0.73671 -1.30674,0.31217 z"
         id="path11399" /><path
         style="fill:#f3cb46;stroke-width:0.524184"
         d="m 888.24646,443.7846 -1.23749,-1.07948 1.57255,0.92083 c 2.06969,1.21194 2.10051,1.23812 1.45592,1.23812 -0.30445,0 -1.11038,-0.48576 -1.79098,-1.07947 z"
         id="path11397" /><path
         style="fill:#f3cb46;stroke-width:0.524184"
         d="m 898.84678,445.77581 c 0.12014,-0.0751 0.80813,-0.60589 1.52888,-1.17942 l 1.31046,-1.04278 -0.99857,1.17942 c -0.54918,0.64868 -1.23718,1.17941 -1.52889,1.17941 -0.29165,0 -0.43198,-0.0615 -0.31188,-0.13663 z"
         id="path11395" /><path
         style="fill:#f3cb46;stroke-width:0.524184"
         d="m 891.20616,445.39426 c -0.18367,-0.29714 0.0267,-0.38501 0.49326,-0.20601 0.9081,0.34847 1.07421,0.72419 0.32022,0.72419 -0.27126,0 -0.63735,-0.23318 -0.81348,-0.51818 z"
         id="path11393" /><path
         style="fill:#f3cb46;stroke-width:0.524184"
         d="m 897.13227,446.07855 c 0.37841,-0.15142 0.83052,-0.1328 1.00471,0.0414 0.17418,0.17418 -0.13545,0.29807 -0.68799,0.27531 -0.61068,-0.0252 -0.73486,-0.14936 -0.31672,-0.31669 z"
         id="path11391" /><path
         style="fill:#f3cb46;stroke-width:0.524184"
         d="m 895.03554,446.60274 c 0.37841,-0.15143 0.83051,-0.13281 1.0047,0.0414 0.17419,0.17418 -0.13545,0.29807 -0.68799,0.27531 -0.61068,-0.0252 -0.73486,-0.14936 -0.31671,-0.31669 z"
         id="path10128" /><path
         style="fill:#e7a314;stroke-width:0.524184"
         d="m 879.87597,404.32722 c -3.9719,-1.86775 -5.70952,-3.64679 -5.70952,-5.84564 0,-2.20839 1.17444,-4.7376 2.53894,-5.46787 0.87979,-0.47084 0.92718,-0.32445 0.59783,1.84574 -0.33228,2.18938 -0.23315,2.48169 1.39229,4.10714 0.98793,0.98796 2.49428,1.87311 3.4592,2.0327 0.94001,0.15548 2.35783,0.44496 3.15066,0.64329 1.16846,0.2923 1.4415,0.18354 1.4415,-0.57414 0,-0.51411 0.14898,-0.7858 0.33103,-0.60374 0.18204,0.18206 0.77175,0.0951 1.31046,-0.19317 0.77689,-0.41578 0.97943,-0.34097 0.97943,0.36177 0,0.82511 0.0658,0.82638 0.95858,0.0184 2.33645,-2.11446 1.7719,0.25983 -0.7045,2.963 -1.63237,1.78179 -1.99384,1.93205 -4.55186,1.89188 -1.67624,-0.0263 -3.73702,-0.49426 -5.19404,-1.17941 z"
         id="path11623" /><path
         style="fill:#e7a314;stroke-width:0.524184"
         d="m 890.89065,444.73303 -3.3575,-1.7036 -0.42925,-3.09664 c -0.23604,-1.70315 -0.26341,-3.70816 -0.0608,-4.45557 0.36405,-1.34259 0.37463,-1.33687 0.88204,0.47572 0.48142,1.71996 0.54154,1.76092 0.9612,0.65523 0.57047,-1.50289 1.00114,-1.53743 0.61193,-0.0491 -0.18938,0.72421 -0.0952,1.00646 0.26225,0.78556 0.35199,-0.21753 0.45589,0.0453 0.28149,0.7121 -0.21256,0.81289 -0.0803,0.98162 0.57309,0.73091 0.46721,-0.17927 0.84944,-0.0924 0.84944,0.19317 0,0.55467 1.93576,1.33 3.00174,1.2023 0.35362,-0.0423 1.216,0.29847 1.91637,0.75738 1.19493,0.78293 1.32094,0.76664 2.04285,-0.26401 0.42312,-0.60414 0.97608,-1.06055 1.22874,-1.01427 1.30684,0.2394 1.7698,-0.18242 1.7698,-1.61255 0,-0.86491 0.22849,-1.57255 0.50773,-1.57255 0.27928,0 0.37793,-0.4128 0.21932,-0.91733 -0.24627,-0.78325 -0.16727,-0.76861 0.54064,0.10019 0.80389,0.98665 0.82905,0.98744 0.82905,0.0262 0,-1.70374 0.91659,-0.14241 1.29935,2.2134 0.32211,1.98211 0.20663,2.34917 -1.12543,3.57725 -0.81641,0.75267 -2.07702,1.94104 -2.80129,2.64081 -1.25909,1.21641 -4.01944,2.31897 -5.80581,2.31897 -0.4617,0 -2.35034,-0.76662 -4.19694,-1.7036 z"
         id="path10122" /><path
         style="fill:#90a334;stroke-width:0.524184"
         d="m 851.66817,429.74057 c -0.34013,-0.63555 -0.84247,-1.01707 -1.11631,-0.84783 -0.65183,0.40285 -0.62912,-0.26963 0.0776,-2.29687 0.73179,-2.09919 1.78252,-2.11083 2.50868,-0.0278 0.43247,1.2406 0.39881,1.94166 -0.14288,2.97551 l -0.70865,1.3525 z"
         id="path11841" /><path
         style="fill:#90a334;stroke-width:0.524184"
         d="m 854.38277,437.2449 c -1.25142,-2.35958 -1.58974,-4.76764 -0.90022,-6.40752 0.37265,-0.88628 0.5203,-1.78292 0.32809,-1.99253 -0.1922,-0.20962 0.29921,0.0338 1.09204,0.54078 1.66239,1.06315 1.85269,2.77991 0.72593,6.54881 -0.62017,2.07444 -0.7617,2.22331 -1.24584,1.31046 z"
         id="path11813" /><path
         style="fill:#90a334;stroke-width:0.524184"
         d="m 855.82578,439.33396 c 0.003,-0.56219 0.15244,-1.9096 0.33171,-2.99425 0.25119,-1.51979 0.47912,-1.84497 0.99381,-1.41782 0.50234,0.41691 0.53797,1.03555 0.14375,2.49628 -0.61898,2.29357 -1.47773,3.41329 -1.46927,1.91579 z"
         id="path11801" /><path
         style="fill:#90a334;stroke-width:0.524184"
         d="m 848.48079,438.30913 c -0.66915,-2.7893 -0.64303,-2.98302 0.78198,-5.79949 0.94917,-1.876 1.61538,-2.68545 1.87051,-2.27265 0.45138,0.73036 0.0497,2.15841 -0.50982,1.8126 -0.20297,-0.12544 -0.3162,1.10292 -0.25162,2.72969 0.089,2.24268 -0.0936,3.11827 -0.75546,3.62162 -0.78628,0.59799 -0.75588,0.66549 0.30655,0.68051 1.31007,0.0185 1.50109,0.53369 0.5504,1.48438 -1.03184,1.03183 -1.26774,0.76465 -1.99254,-2.25666 z"
         id="path11795" /><path
         style="fill:#90a334;stroke-width:0.524184"
         d="m 850.36847,444.54954 c -0.88892,-2.31648 0.67898,-4.36782 1.77425,-2.3213 0.76553,1.43041 0.66342,2.00455 -0.46379,2.60782 -0.76303,0.40836 -1.06953,0.34135 -1.31046,-0.28652 z"
         id="path11783" /><path
         style="fill:#90a334;stroke-width:0.524184"
         d="m 864.20695,448.89992 c 0,-0.44564 -0.59119,-1.51284 -1.31376,-2.37155 -1.18979,-1.41399 -1.3497,-3.23679 -0.28395,-3.23679 0.67213,0 1.95239,1.77181 2.53335,3.50602 0.44277,1.3217 0.40347,1.8012 -0.18786,2.29196 -0.59273,0.49192 -0.74778,0.4526 -0.74778,-0.18964 z"
         id="path11759" /><path
         style="fill:#90a334;stroke-width:0.524184"
         d="m 861.68222,447.93068 c -1.46425,-1.78696 -2.21535,-4.17806 -1.80514,-5.74667 0.20744,-0.79326 0.1122,-1.03608 -0.30522,-0.7781 -0.33371,0.20624 -0.6162,1.00975 -0.62774,1.78556 l -0.021,1.41057 -0.82365,-1.52094 c -0.54008,-0.99732 -0.72756,-2.23731 -0.54456,-3.60172 0.45405,-3.38521 1.20705,-3.44507 2.15868,-0.17159 0.46934,1.61448 1.10138,2.93542 1.40454,2.93542 0.34298,0 0.41716,0.61022 0.19638,1.61545 -0.27628,1.25788 -0.10096,1.88568 0.79206,2.83626 0.63079,0.67143 1.06657,1.55759 0.9684,1.96922 -0.12495,0.52394 -0.5427,0.30395 -1.39276,-0.73346 z"
         id="path11757" /><path
         style="fill:#90a334;stroke-width:0.524184"
         d="m 889.97475,451.15432 c 0,-0.72076 0.11899,-1.01561 0.2644,-0.65523 0.1454,0.36037 0.1454,0.95008 0,1.31046 -0.14541,0.36037 -0.2644,0.0655 -0.2644,-0.65523 z"
         id="path11745" /><path
         style="fill:#90a334;stroke-width:0.524184"
         d="m 855.29582,452.72886 c 0,-0.63547 1.47008,-1.32756 1.90214,-0.8955 0.15642,0.15642 -0.20758,0.54768 -0.80888,0.86948 -0.75807,0.40571 -1.09326,0.41369 -1.09326,0.026 z"
         id="path11741" /><path
         style="fill:#90a334;stroke-width:0.524184"
         d="m 853.72327,452.54129 c 0,-0.45425 -0.47177,-1.07839 -1.04837,-1.38697 -0.8275,-0.44287 -1.04837,-1.09755 -1.04837,-3.10747 0,-2.28876 0.51019,-3.18274 1.81638,-3.18274 0.5178,0 0.63591,2.40141 0.19639,3.99321 -0.58776,2.12869 -0.17612,3.09139 0.51871,1.2131 0.44193,-1.19464 0.4758,-1.20146 1.01008,-0.20314 0.4313,0.80589 0.33326,1.30408 -0.44601,2.26643 -0.73668,0.90976 -0.99881,1.01673 -0.99881,0.40758 z"
         id="path11739" /><path
         style="fill:#90a334;stroke-width:0.524184"
         d="m 865.59391,453.03209 c -0.77921,-1.18923 -0.8103,-1.58248 -0.22211,-2.80971 0.37616,-0.78482 0.91663,-1.42694 1.20104,-1.42694 0.69335,0 0.94066,2.87946 0.37795,4.40058 l -0.45087,1.21883 z"
         id="path11735" /><path
         style="fill:#90a334;stroke-width:0.524184"
         d="m 855.10081,454.93212 c -0.42281,-0.68413 2.06081,-1.88188 3.08625,-1.48838 0.47588,0.18261 0.76848,0.62675 0.65023,0.98697 -0.25475,0.77601 -3.31311,1.18642 -3.73648,0.50141 z"
         id="path11727" /><path
         style="fill:#90a334;stroke-width:0.524184"
         d="m 868.03033,455.60665 c -0.32929,-0.59875 -0.45395,-2.15496 -0.28949,-3.61399 0.28119,-2.49472 0.30713,-2.52747 0.98189,-1.23966 0.47851,0.91328 0.56813,2.03204 0.28949,3.61399 -0.35901,2.03821 -0.46743,2.17511 -0.98189,1.23966 z"
         id="path11723" /><path
         style="fill:#90a334;stroke-width:0.524184"
         d="m 870.62821,457.85194 c -1.201,-1.28437 -1.43033,-2.28874 -0.86124,-3.77177 0.44222,-1.1524 1.43563,-1.03488 2.61464,0.30932 0.54921,0.62617 0.71754,0.97461 0.37406,0.77433 -0.43233,-0.25209 -0.67429,0.29955 -0.78628,1.79264 l -0.16177,2.15678 z"
         id="path11711" /><path
         style="fill:#90a334;stroke-width:0.524184"
         d="m 858.77415,458.75123 c -0.47157,-0.47158 -0.85741,-1.07644 -0.85741,-1.34415 0,-0.26771 -0.35382,-0.48675 -0.78628,-0.48675 -0.43245,0 -0.78627,-0.23588 -0.78627,-0.52418 0,-0.65416 0.88518,-0.68811 1.28011,-0.0491 0.16148,0.26129 1.42507,0.63069 2.80797,0.82089 3.31599,0.45606 4.72024,1.30595 2.17592,1.31693 -1.02347,0.004 -2.1119,0.25907 -2.41874,0.56591 -0.39438,0.39438 -0.80916,0.3066 -1.4153,-0.29954 z"
         id="path11703" /><path
         style="fill:#90a334;stroke-width:0.524184"
         d="m 861.45498,460.75095 c -1.77926,-0.46206 -0.88835,-1.20972 1.44151,-1.20972 1.29736,0 2.35883,0.23588 2.35883,0.52419 0,0.2883 -0.33453,0.52418 -0.7434,0.52418 -0.40888,0 -1.05756,0.0899 -1.44151,0.19979 -0.38396,0.10988 -1.1109,0.0926 -1.61543,-0.0384 z"
         id="path11693" /><path
         style="fill:#90a334;stroke-width:0.524184"
         d="m 873.29793,460.6955 c -0.38108,-0.61817 -0.45824,-1.64869 -0.20762,-2.77265 0.3969,-1.78012 0.40068,-1.78212 0.77841,-0.41065 0.20878,0.758 0.30219,2.00569 0.20762,2.77266 -0.15888,1.28835 -0.21811,1.3196 -0.77841,0.41064 z"
         id="path11689" /><path
         style="fill:#90a334;stroke-width:0.524184"
         d="m 870.0713,464.14754 c -0.33993,-0.33993 -1.51967,-0.56486 -2.62165,-0.49984 -1.45342,0.0858 -2.2688,-0.17482 -2.96939,-0.94897 -0.53119,-0.58695 -0.81675,-1.21623 -0.63458,-1.3984 0.44726,-0.44726 5.07893,0.87881 5.07893,1.45413 0,0.25083 0.3399,0.45606 0.75534,0.45606 0.41544,0 0.91082,0.25158 1.10086,0.55906 0.50981,0.82489 0.006,1.09334 -0.70951,0.37796 z"
         id="path11683" /><path
         style="fill:#778c2b;stroke-width:0.524184"
         d="m 881.13794,412.88884 c 0,-1.58566 0.0982,-2.23434 0.21838,-1.44151 0.12009,0.79283 0.12009,2.09018 0,2.88301 -0.12014,0.79283 -0.21838,0.14415 -0.21838,-1.4415 z"
         id="path12161" /><path
         style="fill:#778c2b;stroke-width:0.524184"
         d="m 881.71733,419.048 -0.99858,-1.17941 1.17942,0.99856 c 0.64868,0.54921 1.17941,1.07995 1.17941,1.17942 0,0.41947 -0.42186,0.10979 -1.36025,-0.99857 z"
         id="path12159" /><path
         style="fill:#778c2b;stroke-width:0.524184"
         d="m 852.71628,433.55043 c 0.0252,-0.61064 0.14936,-0.73485 0.31669,-0.31669 0.15143,0.37839 0.13281,0.8305 -0.0413,1.00468 -0.17418,0.17419 -0.29808,-0.13541 -0.27532,-0.68799 z"
         id="path12137" /><path
         style="fill:#778c2b;stroke-width:0.524184"
         d="m 889.40915,436.69554 c 0.0252,-0.61065 0.1494,-0.73486 0.31671,-0.3167 0.15144,0.3784 0.13283,0.83051 -0.0414,1.00469 -0.17418,0.17418 -0.2981,-0.13542 -0.27535,-0.68799 z"
         id="path12125" /><path
         style="fill:#778c2b;stroke-width:0.524184"
         d="m 856.9371,442.06408 c -0.3211,-0.3869 -0.42861,-0.85867 -0.23891,-1.04837 0.1897,-0.1897 0.087,-0.34491 -0.22824,-0.34491 -0.31524,0 -0.94732,-0.75002 -1.40463,-1.66672 -0.4573,-0.91669 -0.6595,-1.49475 -0.44933,-1.28457 0.21018,0.21017 0.67261,-0.51408 1.02763,-1.60944 0.6269,-1.93424 0.63672,-1.90267 0.34129,1.09647 -0.33533,3.40418 0.5698,3.83462 1.18359,0.56286 0.1874,-0.99894 0.56626,-1.81626 0.8419,-1.81626 0.29638,0 0.32727,0.48195 0.0756,1.17942 -0.23407,0.64867 -0.42688,2.18191 -0.42846,3.40719 -0.002,1.22528 -0.033,2.22779 -0.0697,2.22779 -0.0368,0 -0.32958,-0.31656 -0.65068,-0.70346 z"
         id="path12103" /><path
         style="fill:#778c2b;stroke-width:0.524184"
         d="m 859.31457,445.039 c -0.50756,-0.50756 -0.42873,-3.20897 0.10325,-3.53775 0.24898,-0.15388 0.4527,0.65779 0.4527,1.80371 0,2.2205 -0.0169,2.27312 -0.55595,1.73404 z"
         id="path12097" /><path
         style="fill:#778c2b;stroke-width:0.524184"
         d="m 879.44965,447.70359 c 0.0252,-0.61065 0.14939,-0.73485 0.31671,-0.31669 0.15144,0.37839 0.13283,0.8305 -0.0414,1.00468 -0.17418,0.17418 -0.2981,-0.13542 -0.27535,-0.68799 z"
         id="path12083" /><path
         style="fill:#778c2b;stroke-width:0.524184"
         d="m 861.51917,448.14041 c -0.65202,-0.83139 -0.63348,-0.84993 0.19791,-0.19791 0.87316,0.68478 1.15083,1.11523 0.71941,1.11523 -0.10885,0 -0.52164,-0.41279 -0.91732,-0.91732 z"
         id="path12081" /><path
         style="fill:#778c2b;stroke-width:0.524184"
         d="m 881.54639,449.80031 c 0.0252,-0.61065 0.14939,-0.73486 0.31671,-0.3167 0.15144,0.37839 0.13283,0.83051 -0.0414,1.00469 -0.17419,0.17418 -0.2981,-0.13542 -0.27535,-0.68799 z"
         id="path12079" /><path
         style="fill:#778c2b;stroke-width:0.524184"
         d="m 863.68277,450.71746 c -0.43245,-0.4805 -0.71692,-1.35842 -0.63216,-1.95092 0.0848,-0.59252 -0.32803,-1.51364 -0.91732,-2.04694 -1.18307,-1.07067 -1.34997,-2.2294 -0.49376,-3.42808 0.44431,-0.62203 0.5029,-0.52179 0.28045,0.47988 -0.19343,0.87104 0.11953,1.74236 1.0029,2.79218 0.70624,0.83932 1.28407,1.90893 1.28407,2.37693 0,0.66181 0.13979,0.71111 0.62902,0.22187 1.11924,-1.11923 1.40714,-0.66866 0.60287,0.94353 -0.43146,0.86491 -0.82618,1.5529 -0.87714,1.52888 -0.0509,-0.024 -0.44648,-0.43683 -0.87893,-0.91733 z"
         id="path12073" /><path
         style="fill:#778c2b;stroke-width:0.524184"
         d="m 867.16736,451.94056 c 0.18281,-1.44151 0.4171,-2.7192 0.52064,-2.83933 0.44882,-0.52075 0.12216,3.96444 -0.34042,4.67398 -0.34996,0.53678 -0.40714,-0.0454 -0.18022,-1.83465 z"
         id="path12067" /><path
         style="fill:#778c2b;stroke-width:0.524184"
         d="m 868.93264,454.46141 c -0.004,-0.63166 0.22785,-1.29426 0.51615,-1.47244 0.66739,-0.41247 0.66739,0.80194 0,1.83464 -0.4131,0.63924 -0.50963,0.5715 -0.51615,-0.3622 z"
         id="path12059" /><path
         style="fill:#778c2b;stroke-width:0.524184"
         d="m 870.18527,457.8376 -0.99857,-1.17941 1.17942,0.99857 c 0.64867,0.5492 1.17941,1.07994 1.17941,1.17941 0,0.41948 -0.42186,0.10979 -1.36026,-0.99857 z"
         id="path12045" /><path
         style="fill:#778c2b;stroke-width:0.524184"
         d="m 872.06972,457.18237 c 0,-1.48032 0.20363,-2.29484 0.52418,-2.09673 0.2883,0.17818 0.52418,1.12171 0.52418,2.09673 0,0.97503 -0.23588,1.91856 -0.52418,2.09674 -0.32055,0.19811 -0.52418,-0.61641 -0.52418,-2.09674 z"
         id="path12043" /><path
         style="fill:#778c2b;stroke-width:0.524184"
         d="m 857.19796,451.8333 c -0.43206,-0.43206 -1.90214,0.26003 -1.90214,0.8955 0,0.38766 0.33519,0.37969 1.09326,-0.026 0.6013,-0.3218 0.9653,-0.71306 0.80888,-0.86948 z"
         id="path12033" /><path
         style="fill:#778c2b;stroke-width:0.524184"
         d="m 870.80897,463.9373 c -0.2005,-0.52249 -0.70782,-0.74552 -1.32733,-0.58352 -0.70196,0.18357 -0.91909,0.0441 -0.72382,-0.46471 0.15342,-0.39982 0.0768,-0.73736 -0.17027,-0.75008 -1.29071,-0.0665 -5.51463,-1.48396 -4.51164,-1.51404 2.43889,-0.0732 1.06585,-1.08375 -1.47245,-1.08375 -1.63442,0 -2.52756,-0.20111 -2.32789,-0.52418 0.17818,-0.28831 1.19461,-0.53136 2.25872,-0.54013 2.42541,-0.02 1.3397,-0.75319 -1.90842,-1.28881 -1.24885,-0.20593 -2.87068,-0.68573 -3.60407,-1.06622 l -1.33343,-0.6918 1.4669,-0.17221 c 0.80679,-0.0947 1.56368,-0.46694 1.68196,-0.82717 0.31171,-0.9493 -1.41748,-1.44885 -2.55537,-0.73823 -0.5345,0.3338 -1.2109,0.60691 -1.50311,0.60691 -0.80932,0 -0.63337,-1.88366 0.24396,-2.61178 0.61053,-0.50669 0.64961,-0.8782 0.18391,-1.74837 -0.59125,-1.10477 -0.59143,-1.10475 -1.04861,0.13115 -0.69483,1.87829 -1.10647,0.91558 -0.51871,-1.2131 0.4691,-1.69892 0.31182,-3.99322 -0.27372,-3.99322 -0.12948,0 -0.69168,0.24418 -1.24933,0.54263 -1.25373,0.67098 -1.33925,0.0729 -0.11732,-0.82056 0.75952,-0.55537 0.79993,-0.8677 0.26437,-2.04314 -0.53736,-1.17938 -0.78984,-1.30318 -1.68286,-0.82526 -1.2249,0.65555 -1.41391,-0.0931 -0.26437,-1.04714 1.12711,-0.93542 0.97013,-1.56995 -0.39314,-1.58922 -1.06243,-0.015 -1.09283,-0.0825 -0.30655,-0.68052 0.66184,-0.50334 0.84449,-1.37894 0.75546,-3.62161 -0.0646,-1.62677 0.0486,-2.85514 0.25162,-2.7297 0.60375,0.37315 0.94437,-1.11093 0.43841,-1.91017 -0.87352,-1.37987 -0.46543,-1.79366 0.51331,-0.52048 l 0.97371,1.26663 0.36284,-1.1432 c 0.19956,-0.62875 0.56086,-1.02081 0.80289,-0.87122 0.24203,0.14958 0.17886,0.96397 -0.14039,1.80975 -0.31925,0.84578 -0.77181,1.41951 -1.00568,1.27497 -0.8091,-0.50005 -1.00953,1.27558 -0.40062,3.54903 0.85334,3.18603 4.50734,10.59849 6.53228,13.2513 0.93095,1.21961 4.26096,4.80871 7.40003,7.97577 3.13906,3.16706 6.15673,6.27418 6.70595,6.90471 0.99333,1.14043 0.99155,1.14643 -0.33706,1.14643 -0.7454,0 -1.47904,-0.37374 -1.66016,-0.84574 z"
         id="path12031" /><path
         style="fill:#778c2b;stroke-width:0.524184"
         d="m 878.13154,467.77453 c 0.19683,-0.51697 0.48995,-0.80789 0.65135,-0.6465 0.1614,0.16139 3.1e-4,0.58436 -0.35791,0.93993 -0.51769,0.51384 -0.57792,0.45363 -0.29344,-0.29343 z"
         id="path12019" /><path
         style="fill:#778c2b;stroke-width:0.524184"
         d="m 877.35292,471.81592 c 0.0252,-0.61065 0.14939,-0.73486 0.31671,-0.3167 0.15143,0.37839 0.13283,0.83051 -0.0414,1.00469 -0.17419,0.17418 -0.29811,-0.13542 -0.27536,-0.68799 z"
         id="path12015" /><path
         style="fill:#778c2b;stroke-width:0.524184"
         d="m 880.57827,473.17002 c 0,-1.00905 0.10788,-1.42185 0.23971,-0.91732 0.13189,0.50453 0.13189,1.33012 0,1.83465 -0.13183,0.50452 -0.23971,0.0917 -0.23971,-0.91733 z"
         id="path12009" /><path
         style="fill:#526028;stroke-width:0.524184"
         d="m 881.89696,418.80137 c -0.75126,-0.83262 -0.86448,-1.6307 -0.62163,-4.38259 0.39293,-4.45232 0.67374,-5.72342 1.26428,-5.72342 0.83665,0 1.15017,3.23955 0.70335,7.26878 -0.41279,3.72297 -0.45897,3.82031 -1.346,2.83723 z"
         id="path12289" /><path
         style="fill:#526028;stroke-width:0.524184"
         d="m 875.40468,497.02124 c -0.16575,-0.43199 0.22142,-5.79832 0.8604,-11.92519 0.63903,-6.12686 1.18743,-11.96534 1.21872,-12.9744 0.0826,-2.66117 -3.10301,-7.03829 -10.73886,-14.75556 -7.81065,-7.89395 -9.1488,-9.61143 -11.87173,-15.23699 -2.60119,-5.37405 -3.65103,-9.12659 -2.7933,-9.98432 0.44386,-0.44386 0.59499,-0.29382 0.59499,0.59068 0,3.09239 6.37106,12.98752 13.32823,20.70056 1.00194,1.1108 1.93326,2.29021 2.0696,2.62092 0.16865,0.40908 0.42562,0.34995 0.80395,-0.185 0.46926,-0.66354 0.55866,-0.62262 0.57274,0.26209 0.009,0.57661 1.05904,2.0549 2.33303,3.28511 1.27398,1.2302 2.91013,3.49195 3.63591,5.0261 1.34957,2.85276 2.6541,4.38639 3.09573,3.63944 0.13613,-0.23023 0.40435,-4.4286 0.59605,-9.32972 0.4161,-10.63761 0.61036,-11.91184 1.78181,-11.68624 0.75299,0.145 0.84341,0.93619 0.70733,6.18834 -0.0858,3.31215 -0.27593,6.43487 -0.42255,6.9394 -0.65617,2.25837 1.07694,0.50246 4.24212,-4.29791 1.89136,-2.86839 3.67149,-5.35908 3.95597,-5.53488 1.27434,-0.78759 0.33086,2.13735 -1.48811,4.61333 -1.10288,1.50127 -3.01998,4.445 -4.26015,6.5416 -2.45633,4.15253 -2.17625,2.65837 -3.7065,19.77628 -0.78083,8.73444 -1.95595,15.58126 -2.76214,16.09365 -0.94794,0.60249 -1.41897,0.50381 -1.75324,-0.36729 z"
         id="path12277" /></g></g></svg>
