<?xml version="1.0" encoding="UTF-8" standalone="no"?>
<!-- Created with Inkscape (http://www.inkscape.org/) -->

<svg
   width="192.74707mm"
   height="251.5509mm"
   viewBox="0 0 192.74707 251.5509"
   version="1.1"
   id="svg5"
   xml:space="preserve"
   inkscape:version="1.2.1 (9c6d41e410, 2022-07-14)"
   sodipodi:docname="drawing.svg"
   xmlns:inkscape="http://www.inkscape.org/namespaces/inkscape"
   xmlns:sodipodi="http://sodipodi.sourceforge.net/DTD/sodipodi-0.dtd"
   xmlns="http://www.w3.org/2000/svg"
   xmlns:svg="http://www.w3.org/2000/svg"><sodipodi:namedview
     id="namedview7"
     pagecolor="#505050"
     bordercolor="#eeeeee"
     borderopacity="1"
     inkscape:showpageshadow="0"
     inkscape:pageopacity="0"
     inkscape:pagecheckerboard="0"
     inkscape:deskcolor="#505050"
     inkscape:document-units="mm"
     showgrid="false"
     inkscape:zoom="1.0255231"
     inkscape:cx="-2671.3197"
     inkscape:cy="1254.9693"
     inkscape:window-width="3840"
     inkscape:window-height="1526"
     inkscape:window-x="2869"
     inkscape:window-y="-11"
     inkscape:window-maximized="1"
     inkscape:current-layer="g2018"
     showguides="true" /><defs
     id="defs2" /><g
     inkscape:label="Layer 1"
     inkscape:groupmode="layer"
     id="layer1"
     style="display:inline"
     transform="translate(588.6855,-373.00927)"><g
       id="g12496"
       transform="matrix(2.2040458,0,0,2.2040458,-1920.5884,-159.46595)"><path
         style="fill:#f6f9fb;stroke-width:0.524184"
         d="m 613.04113,288.66818 c -0.36433,-0.001 -0.67559,1.38854 -0.61753,3.65817 0.0829,3.24057 0.18342,3.49052 2.0531,5.1108 1.0812,0.93698 2.15639,1.70377 2.38952,1.70377 0.50029,0 -0.11142,-1.71845 -1.71927,-4.83071 -0.63808,-1.2351 -1.29527,-3.04662 -1.46089,-4.02559 -0.18837,-1.11343 -0.42632,-1.61555 -0.64493,-1.61644 z"
         id="path10467" /><path
         style="fill:#f6f9fb;stroke-width:0.524184"
         d="m 617.56437,287.3556 c -1.01428,0.027 -3.39307,1.87243 -3.39307,2.81843 0,0.43751 0.8531,2.61347 1.89601,4.83588 l 1.896,4.0411 2.06448,-0.72864 c 1.13528,-0.40055 2.26595,-0.85292 2.51302,-1.00562 0.4248,-0.26253 -3.60073,-8.81799 -4.63641,-9.85367 -0.0783,-0.0783 -0.19513,-0.11134 -0.34003,-0.10748 z"
         id="path10459" /><path
         style="fill:#f6f9fb;stroke-width:0.524184"
         d="m 611.42418,284.55785 c -0.0779,-0.0135 -0.14458,0.001 -0.19431,0.0512 -0.18133,0.18176 -0.1791,0.93135 0.005,1.66553 h -5.1e-4 c 0.33617,1.33939 1.9024,1.90818 1.8712,0.67954 -0.0206,-0.80898 -1.1364,-2.30206 -1.68155,-2.39623 z"
         id="path10437" /><path
         style="fill:#f6f9fb;stroke-width:0.524184"
         d="m 608.26313,283.80031 c -0.35096,0.19462 -0.38959,1.1773 0.0388,2.86288 0.31538,1.24105 0.72096,3.20001 0.90123,4.35322 0.18028,1.1532 0.66951,2.6276 1.08728,3.27628 1.29084,2.00426 1.65477,1.32841 1.37666,-2.5585 -0.18838,-2.63286 -0.65225,-4.42675 -1.5689,-6.06681 -0.82053,-1.4681 -1.48407,-2.06168 -1.83503,-1.86707 z"
         id="path10433" /><path
         style="fill:#f6f9fb;stroke-width:0.524184"
         d="m 614.89942,282.2082 c -0.28958,-0.0488 -0.66653,0.11839 -1.33997,0.46664 -1.30922,0.67702 -1.39654,0.88565 -0.86248,2.05775 0.6918,1.51835 0.78178,1.54728 1.76423,0.56483 0.40671,-0.40671 1.0119,-0.83012 1.34462,-0.94103 0.44122,-0.14707 0.41604,-0.50398 -0.0925,-1.31827 -0.32232,-0.51612 -0.52432,-0.7811 -0.8139,-0.82992 z"
         id="path10425" /><path
         style="fill:#f6f9fb;stroke-width:0.524184"
         d="m 617.24346,280.27085 c -1.24923,0 -1.75178,1.17022 -1.05885,2.46497 0.71011,1.32685 2.70423,1.44964 2.70423,0.1664 0,-1.67449 -0.59846,-2.63137 -1.64538,-2.63137 z"
         id="path10415" /><path
         style="fill:#f6f9fb;stroke-width:0.524184"
         d="m 619.6459,279.67451 c -0.60839,-0.13773 -0.83219,0.16199 -0.48938,0.9896 0.20898,0.50452 0.4503,1.45741 0.5364,2.1177 0.0861,0.6603 0.77215,1.68458 1.52446,2.27635 1.55982,1.22695 5.76713,7.21088 5.35781,7.6202 -0.14872,0.14872 -0.61809,-0.40046 -1.04283,-1.22008 -1.09361,-2.11035 -5.02949,-6.46989 -5.84099,-6.46989 -0.87925,0 -1.43736,2.11865 -0.76998,2.92282 0.28226,0.3401 1.35242,2.34172 2.37764,4.44831 1.23247,2.53248 2.00376,3.60397 2.27686,3.16208 0.22717,-0.36757 0.97119,-0.94676 1.65313,-1.28674 1.68054,-0.83784 2.55415,-2.74433 2.56315,-5.59501 0.007,-2.18226 -0.21723,-2.59565 -2.74402,-5.05086 -2.30593,-2.2406 -4.38827,-3.68494 -5.40225,-3.91448 z"
         id="path10413" /><path
         style="fill:#f6f9fb;stroke-width:0.524184"
         d="m 649.93966,264.60059 c -0.89285,0.0512 -4.27711,4.26458 -5.77226,7.28276 -1.67369,3.3786 -1.81076,7.07255 -0.39894,10.76936 0.74581,1.95286 1.12099,2.33653 2.2903,2.34353 0.76899,0.004 1.75191,0.23626 2.18436,0.51573 1.2265,0.79263 2.901,0.61446 3.82561,-0.40721 0.46366,-0.51235 1.45099,-2.34029 2.19418,-4.06228 0.74321,-1.72199 1.80678,-4.0355 2.36368,-5.14077 l 1.01285,-2.00918 -1.31516,-1.39785 c -0.72326,-0.76867 -1.83469,-2.22331 -2.47013,-3.23236 l -1.15549,-1.83452 -0.262,3.93155 -0.26251,3.93102 -0.35657,-2.65203 c -0.19611,-1.45875 -0.22782,-3.60992 -0.0708,-4.78059 0.4243,-3.16339 -0.64488,-3.25134 -1.67897,-0.13797 -0.48574,1.46241 -0.97643,2.56598 -1.09037,2.45204 -0.11394,-0.11393 0.17263,-1.32168 0.63666,-2.68355 0.46356,-1.36186 0.675,-2.64006 0.46922,-2.84066 -0.0361,-0.0352 -0.0841,-0.0504 -0.14366,-0.047 z"
         id="path10375" /><path
         style="fill:#f6f9fb;stroke-width:0.524184"
         d="m 672.37498,264.56857 c -0.42373,-0.0131 0.39717,1.19972 1.83503,2.71198 1.43069,1.50467 2.06897,2.29271 1.41852,1.75079 -1.46092,-1.21742 -1.90555,-0.84692 -1.45314,1.21285 0.2478,1.12827 0.99178,1.95883 2.5988,2.9006 1.31479,0.77052 2.52626,1.98204 2.91145,2.91196 0.83549,2.01706 1.60097,2.01118 2.75798,-0.0217 1.08006,-1.8977 0.91297,-2.3209 -2.50063,-6.32261 -2.25578,-2.64443 -5.85547,-5.09097 -7.56801,-5.14387 z"
         id="path10371" /><path
         style="fill:#f6f9fb;stroke-width:0.524184"
         d="m 663.51816,264.38667 c 0.15178,-4e-4 0.87051,1.02741 2.0469,3.08353 0.91353,1.59667 1.54161,3.02245 1.39578,3.16828 -0.14584,0.14584 -1.08495,-1.27874 -2.08721,-3.16621 -1.09191,-2.05653 -1.50726,-3.08521 -1.35547,-3.0856 z"
         id="path10369" /><path
         style="fill:#f6f9fb;stroke-width:0.524184"
         d="m 666.17949,262.81414 c -0.17849,-0.009 -0.34887,0.0406 -0.5271,0.13746 -1.08706,0.59062 -4.75375,1.28283 -5.97173,1.12758 -0.667,-0.085 -0.23634,1.04419 1.77406,4.64933 1.46028,2.61866 2.55751,4.85806 2.43861,4.97696 -0.11891,0.11891 -1.46822,-2.02874 -2.99879,-4.77284 -1.92966,-3.45962 -3.01038,-4.90205 -3.52485,-4.70462 -0.40806,0.15659 -1.8028,0.0867 -3.09955,-0.15555 -1.65448,-0.30908 -2.35683,-0.26554 -2.35283,0.14676 0.0105,1.25921 3.18745,6.03784 6.29006,9.46144 3.34708,3.69337 4.71289,6.11788 4.71289,8.36487 0,0.70644 0.14538,1.66263 0.32298,2.12545 0.25106,0.65424 0.74678,0.76558 2.22777,0.49868 1.04768,-0.1888 2.06799,-0.4358 2.26756,-0.54881 0.86648,-0.49064 1.01039,-5.03488 0.2744,-8.6589 -0.42899,-2.11233 -0.70835,-3.91916 -0.62115,-4.01526 0.0872,-0.0961 1.15028,0.81645 2.36213,2.0283 1.32596,1.32596 2.99851,3.92505 4.20026,6.52622 1.09832,2.37731 2.34043,4.45369 2.76004,4.6147 0.4371,0.16773 1.37882,-0.34995 2.20503,-1.21233 1.26624,-1.32166 1.39951,-1.77075 1.09348,-3.68453 -0.51447,-3.21732 -1.53578,-4.82211 -3.92328,-6.16396 -1.63033,-0.9163 -2.26096,-1.66785 -2.66805,-3.17965 -0.3206,-1.19064 -1.03082,-2.24575 -1.78129,-2.64739 -0.68631,-0.3673 -2.11219,-1.70218 -3.1688,-2.96622 -1.14421,-1.36883 -1.75636,-1.92071 -2.29185,-1.94769 z"
         id="path10361" /><path
         style="fill:#f6f9fb;stroke-width:0.524184"
         d="m 645.99209,261.59458 c 0.14782,0.14781 -0.26459,1.01756 -0.91622,1.9327 -0.65164,0.91514 -1.85248,2.87483 -2.66857,4.35477 -1.56267,2.83382 -2.11953,2.5312 -0.64286,-0.34933 1.32302,-2.58079 3.92722,-6.23857 4.22765,-5.93814 z"
         id="path10357" /><path
         style="fill:#f6f9fb;stroke-width:0.524184"
         d="m 641.86366,260.87579 c -0.70232,0 -2.10501,1.05308 -3.66437,2.75177 -1.38944,1.51358 -2.3854,2.33904 -2.2133,1.83451 0.47727,-1.39912 -0.15603,-1.13748 -3.92845,1.62213 -3.7881,2.77109 -4.78162,3.40732 -4.78162,3.06234 0,-0.12433 2.11435,-1.84842 4.69894,-3.83129 2.58459,-1.98288 4.70744,-3.78199 4.71754,-3.9982 0.0323,-0.68989 -5.46317,-0.4221 -8.14214,0.39687 -2.62314,0.80191 -4.70334,2.90609 -6.74325,6.82077 -0.93148,1.78754 -0.62988,4.69874 0.63665,6.14898 1.27434,1.45918 3.07503,1.08781 6.98459,-1.44125 2.0055,-1.29736 3.72679,-2.35903 3.82509,-2.35903 0.0983,0 0.32309,0.90358 0.49971,2.00814 0.33746,2.11031 1.46457,3.47754 3.21996,3.90519 0.5766,0.14047 1.17761,0.28286 1.33532,0.31626 0.64439,0.13664 4.13594,-4.03009 5.22035,-6.22959 0.63962,-1.29736 2.05298,-3.55093 3.14038,-5.00797 l 1.97714,-2.64893 -1.42007,-1.73995 c -1.87049,-2.29181 -3.00702,-1.90824 -5.50923,1.86036 -1.06536,1.60455 -2.06718,2.7873 -2.22622,2.62826 -0.15903,-0.15903 0.56589,-1.47927 1.61076,-2.93367 1.04489,-1.4544 1.89962,-2.76177 1.89962,-2.90525 0,-0.14348 -0.51162,-0.26045 -1.1374,-0.26045 z"
         id="path10353" /><path
         style="fill:#f6f9fb;stroke-width:0.524184"
         d="m 673.40386,259.36787 c -3.46728,0.0521 -7.54003,0.63979 -6.81457,0.9834 0.14415,0.0683 1.91343,0.4367 3.93154,0.81856 l 3.66954,0.69453 -3.32693,-0.26407 c -3.95652,-0.31393 -3.93347,0.35989 0.0569,1.66812 1.51019,0.49512 4.75055,1.89376 7.20111,3.10834 2.45056,1.21456 5.34884,2.34727 6.44043,2.51715 1.09159,0.16988 2.62466,0.78656 3.40703,1.37046 1.55817,1.16289 3.78168,1.44975 3.78168,0.48783 0,-0.92249 -7.09653,-7.77989 -8.05119,-7.77989 -0.45968,0 -1.21953,-0.58531 -1.68827,-1.30069 -1.10013,-1.67902 -3.70908,-2.37734 -8.60722,-2.30374 z"
         id="path10349" /><path
         style="fill:#f6f9fb;stroke-width:0.524184"
         d="m 634.1308,258.47955 c 0.35747,0.0211 0.34757,0.10057 -0.0661,0.23668 -1.89675,0.62402 -7.83526,1.21367 -6.52674,0.64802 0.57661,-0.24926 2.58159,-0.59611 4.45555,-0.77049 1.05525,-0.0982 1.77987,-0.13534 2.13733,-0.11421 z"
         id="path10343" /><path
         style="fill:#f6f9fb;stroke-width:0.524184"
         d="m 683.041,258.14779 c -0.55502,-0.11208 -0.85393,0.0106 -1.15859,0.31523 -1.13883,1.13883 0.59816,3.31847 3.2427,4.06952 2.5121,0.71344 3.63788,1.48828 2.16317,1.48828 -0.79977,0 -0.63567,0.30638 0.81235,1.51618 l 1.81488,1.51619 0.72192,-1.80454 c 0.67447,-1.68636 0.64027,-1.89369 -0.524,-3.15795 -0.6853,-0.74414 -2.6559,-2.0266 -4.37906,-2.84995 -1.32739,-0.63425 -2.13836,-0.98088 -2.69337,-1.09296 z"
         id="path10341" /><path
         style="fill:#f6f9fb;stroke-width:0.524184"
         d="m 616.1996,257.26877 c 0.38003,0.002 0.74108,0.0357 0.99167,0.10129 0.50117,0.13117 -0.0322,0.23441 -1.18546,0.22841 -1.1532,-0.006 -1.56309,-0.11337 -0.91105,-0.23875 0.32601,-0.0627 0.7248,-0.0929 1.10484,-0.091 z"
         id="path10339" /><path
         style="fill:#f6f9fb;stroke-width:0.524184"
         d="m 632.13403,255.70298 c -1.43278,-0.0769 -3.22666,0.26617 -5.91747,0.99942 -6.93029,1.88849 -8.89823,2.66589 -9.47436,3.74241 -0.45689,0.85371 -0.33887,1.29377 0.62063,2.3151 1.52829,1.62674 3.32535,1.61684 9.07594,-0.0496 2.48716,-0.72076 5.59345,-1.31051 6.90293,-1.31051 1.30949,0 3.43355,-0.26514 4.72013,-0.58911 1.89657,-0.47756 2.2259,-0.7256 1.74046,-1.31052 -0.32931,-0.39679 -0.88152,-0.7214 -1.22731,-0.7214 -0.34579,0 -1.55521,-0.70116 -2.6877,-1.55804 -1.24833,-0.94454 -2.32048,-1.44089 -3.75325,-1.51774 z"
         id="path10327" /><path
         style="fill:#f6f9fb;stroke-width:0.524184"
         d="m 608.97575,254.63891 c -1.13543,-0.0226 -1.60882,0.35567 -2.913,1.65985 -2.22727,2.22727 -2.32374,3.22211 -0.4098,4.23023 0.86427,0.45523 3.0755,0.78164 5.52163,0.81494 3.99413,0.0544 4.11829,0.0174 5.91437,-1.77871 1.00905,-1.00904 2.18062,-1.83503 2.60346,-1.83503 0.42285,0 0.76894,-0.19229 0.76894,-0.42788 0,-0.4669 -6.11822,-2.00137 -10.0738,-2.52646 -0.58082,-0.0771 -1.03333,-0.1294 -1.4118,-0.13694 z"
         id="path10319" /><path
         style="fill:#f6f9fb;stroke-width:0.524184"
         d="m 678.5007,252.12744 c -3.30097,0.14552 -10.82652,2.80126 -11.37553,4.24987 -0.52841,1.39422 -0.424,1.48146 1.09502,0.91674 0.68866,-0.25601 2.19595,-0.60833 3.34915,-0.78342 2.41589,-0.3668 1.04985,0.23451 -2.75228,1.21181 -1.22528,0.31494 -2.22789,0.74057 -2.22829,0.94568 -4.1e-4,0.20486 3.24277,0.29511 7.20731,0.20051 5.64816,-0.13483 7.40682,-0.35078 8.1256,-0.99839 0.50453,-0.45457 0.91778,-1.00937 0.91778,-1.233 0,-0.8414 -2.39346,-4.12222 -3.21531,-4.40748 -0.26648,-0.0925 -0.65188,-0.12311 -1.12345,-0.10232 z"
         id="path10307" /><path
         style="fill:#f6f9fb;stroke-width:0.524184"
         d="m 629.11044,250.40767 c 0.2883,0 0.87806,0.22903 1.31051,0.5085 0.43245,0.27947 0.5503,0.50798 0.262,0.50798 -0.2883,0 -0.87806,-0.22851 -1.31051,-0.50798 -0.43245,-0.27947 -0.5503,-0.5085 -0.262,-0.5085 z"
         id="path10303" /><path
         style="fill:#f6f9fb;stroke-width:0.524184"
         d="m 665.47773,246.72265 c -1.94668,0 -6.75101,1.14046 -6.75101,1.60248 0,0.20563 0.63473,0.78945 1.41025,1.2976 1.16433,0.76289 1.68927,0.82163 3.01377,0.33796 1.46308,-0.53427 1.51463,-0.51778 0.58652,0.185 -0.55962,0.42378 -1.22204,0.7705 -1.47226,0.7705 -0.2502,0 -0.31888,0.22006 -0.15244,0.48938 0.16645,0.2692 1.18292,0.38859 2.25877,0.26458 l 1.95596,-0.22583 -1.70326,0.53744 c -0.93698,0.29539 -1.70377,0.62465 -1.70377,0.73225 0,0.10759 0.76679,0.68669 1.70377,1.28675 2.08352,1.33427 1.65519,1.3374 4.96921,-0.0362 2.64782,-1.09747 3.29729,-2.01255 2.36109,-3.32744 -0.97179,-1.36487 -5.19033,-3.91449 -6.4766,-3.91449 z"
         id="path10293" /><path
         style="fill:#f6f9fb;stroke-width:0.524184"
         d="m 631.74128,246.02967 c 0.19654,-0.0391 0.86143,0.2017 1.73427,0.64699 1.16377,0.59372 2.26357,1.31833 2.44429,1.61075 0.42663,0.69029 0.35511,0.67053 -1.92701,-0.53485 -1.06245,-0.56116 -2.08958,-1.27579 -2.28255,-1.58802 -0.0483,-0.0781 -0.0345,-0.12183 0.031,-0.13487 z"
         id="path10291" /><path
         style="fill:#f6f9fb;stroke-width:0.524184"
         d="m 623.71903,244.28972 c 0.50798,0.0425 2.6151,1.1845 3.81889,2.11408 0.57659,0.44525 0.8123,0.8033 0.524,0.7953 -0.62562,-0.0169 -4.45554,-2.47248 -4.45554,-2.85667 0,-0.0426 0.0401,-0.0588 0.11265,-0.0527 z"
         id="path10285" /><path
         style="fill:#f6f9fb;stroke-width:0.524184"
         d="m 625.82537,241.59014 c -0.61711,-0.004 -1.20347,0.0445 -1.70429,0.15452 -1.28324,0.28182 -1.54033,0.55508 -1.28416,1.36219 0.30195,0.9514 0.04,1.0039 -4.56561,0.9157 -6.08193,-0.11646 -7.06399,0.1772 -7.36131,2.20297 -0.31217,2.12695 0.61872,2.75266 4.48448,3.01377 5.50612,0.37191 4.63876,1.15238 -1.28054,1.15238 -3.91229,0 -5.80126,0.21418 -6.51899,0.73898 -0.99159,0.72511 -0.99217,0.75982 -0.0191,1.83503 0.54538,0.60265 1.54711,1.09554 2.22622,1.09554 1.4079,0 9.79502,1.80903 11.73211,2.53059 0.85457,0.31834 2.05019,0.25023 3.56515,-0.2036 3.60662,-1.0804 3.63894,-1.05289 -2.71404,-2.32906 -4.15328,-0.83431 -3.42557,-1.24698 0.87746,-0.49764 1.89671,0.33035 3.74799,0.50061 4.11345,0.37879 0.93746,-0.31249 -1.758,-1.9843 -5.01313,-3.10938 -2.12599,-0.73479 -2.38329,-0.93269 -1.22939,-0.94619 1.30711,-0.0153 2.60353,0.56743 8.41654,3.78271 1.79227,0.99133 3.74983,1.23606 3.23598,0.40463 -0.17449,-0.28235 -0.0569,-1.00038 0.26148,-1.59525 0.48093,-0.89861 0.3742,-1.25188 -0.63096,-2.0898 -1.44549,-1.20498 -0.62666,-1.38965 1.02681,-0.23151 1.10625,0.77486 1.26822,0.70081 3.52485,-1.62109 1.30081,-1.33843 2.25037,-2.61893 2.11046,-2.8453 -0.51208,-0.82857 -3.8847,-2.11235 -5.59242,-2.12855 -0.96548,-0.009 -2.18965,-0.34584 -2.72077,-0.74828 -0.95706,-0.72518 -3.08893,-1.21038 -4.94026,-1.22215 z"
         id="path10271" /><path
         style="fill:#f3cb46;stroke-width:0.524184"
         d="m 633.82799,251.44007 c 0.52182,-0.57661 1.0667,-1.04837 1.21085,-1.04837 0.14415,0 -0.16485,0.47176 -0.68667,1.04837 -0.52182,0.5766 -1.0667,1.04836 -1.21086,1.04836 -0.14415,0 0.16486,-0.47176 0.68668,-1.04836 z"
         id="path11591" /><path
         style="fill:#f3cb46;stroke-width:0.524184"
         d="m 638.5028,258.85297 c -0.88847,-0.47332 -2.30377,-1.41714 -3.14511,-2.09737 -1.00117,-0.80947 -1.07692,-0.9402 -0.21924,-0.37838 0.72075,0.47213 2.06095,1.20202 2.97821,1.62199 0.91727,0.41996 1.81575,1.00303 1.99663,1.2957 0.39184,0.63402 0.42758,0.64383 -1.61049,-0.44194 z"
         id="path11581" /><path
         style="fill:#f3cb46;stroke-width:0.524184"
         d="m 666.28057,260.08912 c -0.1809,-0.72075 -0.1956,-1.84119 -0.0327,-2.48987 0.29579,-1.17762 0.28654,-1.17929 -6.06208,-1.10171 -4.9414,0.0604 -6.52811,-0.0921 -7.12024,-0.68421 -0.66641,-0.66642 -0.91716,-0.61604 -2.00076,0.40194 -1.05437,0.99053 -1.43324,1.07528 -2.54417,0.5691 -0.79141,-0.36058 -1.1938,-0.88533 -1.02208,-1.33284 0.19608,-0.51095 -0.21041,-0.81056 -1.32079,-0.97353 -0.88222,-0.12948 -1.60403,5.2e-4 -1.60403,0.28935 0,0.28862 -0.54594,0.0119 -1.2132,-0.61497 -0.66726,-0.62686 -1.57423,-1.13974 -2.01549,-1.13974 -0.89283,0 -2.53733,-1.60665 -2.53733,-2.47894 0,-0.30895 -0.69051,-0.51393 -1.53445,-0.4555 l -1.53445,0.10623 1.05441,-1.48078 c 3.18244,-4.46932 11.77302,-4.91896 19.84986,-1.03895 3.40555,1.63598 5.75292,3.38695 5.75292,4.29127 0,0.26128 0.99994,1.16776 2.2221,2.01442 2.16524,1.49999 2.22224,1.61472 2.22778,4.48426 0.003,1.61969 -0.0488,2.94489 -0.11538,2.94491 -0.0666,10e-6 -0.26906,-0.58968 -0.44996,-1.31044 z"
         id="path11579" /><path
         style="fill:#f3cb46;stroke-width:0.524184"
         d="m 645.91508,261.12082 c -0.55963,-0.42328 -0.76542,-0.7696 -0.45732,-0.7696 0.3081,0 0.85384,0.35382 1.21274,0.78627 0.81626,0.98354 0.55948,0.97787 -0.75542,-0.0167 z"
         id="path11577" /><path
         style="fill:#f3cb46;stroke-width:0.524184"
         d="m 661.52402,263.66941 c 0.16845,-0.16844 1.27812,-0.48397 2.46594,-0.70118 1.18782,-0.21721 1.96379,-0.21797 1.72438,-0.002 -0.511,0.46162 -4.64199,1.15454 -4.19032,0.70286 z"
         id="path11575" /><path
         style="fill:#f3cb46;stroke-width:0.524184"
         d="m 653.10173,263.65721 c 0.51002,-0.1329 1.21767,-0.12416 1.57255,0.0194 0.35489,0.14359 -0.0624,0.25232 -0.92729,0.24164 -0.86491,-0.0107 -1.15527,-0.12816 -0.64526,-0.26106 z"
         id="path11573" /><path
         style="fill:#f3cb46;stroke-width:0.524184"
         d="m 647.652,263.10314 c -0.65086,-0.82991 -0.63264,-0.84929 0.19124,-0.20344 0.50085,0.39263 1.27972,0.57224 1.73082,0.39914 0.47175,-0.18103 0.68413,-0.0946 0.49993,0.20344 -0.49503,0.80098 -1.6271,0.61441 -2.42199,-0.39914 z"
         id="path11571" /><path
         style="fill:#f3cb46;stroke-width:0.524184"
         d="m 656.36791,263.98244 c 1.36852,-0.53843 3.80429,-0.59359 4.10817,-0.093 0.13126,0.21623 -0.97526,0.41842 -2.45894,0.44932 -1.80272,0.0375 -2.34983,-0.0806 -1.64923,-0.3563 z"
         id="path11569" /><path
         style="fill:#f3cb46;stroke-width:0.524184"
         d="m 613.36525,288.62548 c -0.62255,-1.00729 0.83381,-3.45682 2.53856,-4.26974 1.50714,-0.7187 4.03329,-0.50784 4.03329,0.33666 0,0.14439 -0.33661,0.13336 -0.74803,-0.0245 -0.53677,-0.20599 -0.67191,0.004 -0.47852,0.74356 0.14824,0.56684 0.0351,1.17551 -0.25145,1.35259 -0.30773,0.19019 -0.40868,-0.10741 -0.24662,-0.72712 0.15089,-0.57698 0.12383,-1.04906 -0.0601,-1.04906 -0.63516,0 -4.50547,2.76155 -4.50547,3.21476 0,0.67216 0.65637,0.55596 2.11115,-0.37376 l 1.29605,-0.82827 -1.23748,1.09037 c -1.38879,1.22368 -1.94984,1.34602 -2.45136,0.53454 z"
         id="path11527" /><path
         style="fill:#e7a314;stroke-width:0.524184"
         d="m 653.2228,263.42814 c -1.1532,-0.22378 -2.71998,-0.28682 -3.48173,-0.1401 -1.09716,0.21133 -1.61266,-0.053 -2.48048,-1.27169 -0.99444,-1.39657 -1.3092,-1.51437 -3.41288,-1.27726 -2.01821,0.22748 -2.47152,0.084 -3.51112,-1.1117 -0.65655,-0.75509 -1.41544,-1.3729 -1.68642,-1.3729 -0.27099,0 -1.52461,-0.64868 -2.78583,-1.44151 -2.94687,-1.85246 -3.42799,-3.43324 -1.60097,-5.26026 1.44406,-1.44406 4.54437,-2.07712 4.54437,-0.92793 0,0.87356 1.71985,2.38786 2.71199,2.38786 0.43715,0 1.2268,0.47734 1.75478,1.06075 0.73329,0.81028 1.06003,0.90311 1.38368,0.39314 0.2615,-0.41204 0.42678,-0.44461 0.43173,-0.0851 0.005,0.34739 0.57165,0.47479 1.40431,0.31562 1.14518,-0.21892 1.33558,-0.10871 1.05871,0.61282 -0.23656,0.61646 0.053,1.05772 0.96772,1.47447 1.11093,0.50618 1.4898,0.42143 2.54417,-0.5691 1.05576,-0.99184 1.3462,-1.0565 1.96519,-0.43752 0.39948,0.39948 1.05191,0.6178 1.44984,0.48516 0.39793,-0.13264 0.59521,-0.0336 0.43841,0.21997 -0.27364,0.44259 2.35815,0.46363 8.52612,0.0682 l 2.88302,-0.18485 -0.0116,2.64775 c -0.006,1.45626 -0.18108,2.91654 -0.38828,3.24506 -0.68558,1.08704 -9.12537,1.8637 -12.70476,1.16914 z"
         id="path11669" /><path
         style="fill:#e7a314;stroke-width:0.524184"
         d="m 613.64689,288.18769 c 0,-0.65671 5.20809,-3.93242 5.61123,-3.52928 0.18124,0.18124 0.0543,0.32953 -0.28202,0.32953 -0.33635,0 -0.61155,0.33 -0.61155,0.73335 0,0.40334 -0.9508,1.22893 -2.11288,1.83464 -2.37721,1.23907 -2.60478,1.29427 -2.60478,0.63176 z"
         id="path11653" /><path
         style="fill:#90a334;stroke-width:0.524184"
         d="m 627.90206,288.39508 c 0.0107,-0.8649 0.12816,-1.15527 0.26106,-0.64525 0.1329,0.51001 0.12416,1.21766 -0.0195,1.57255 -0.14359,0.35489 -0.25232,-0.0624 -0.24164,-0.9273 z"
         id="path11997" /><path
         style="fill:#778c2b;stroke-width:0.524184"
         d="m 646.71188,293.06902 c 0.0252,-0.61065 0.14936,-0.73485 0.31669,-0.3167 0.15143,0.3784 0.13281,0.83051 -0.0413,1.00469 -0.17418,0.17418 -0.29808,-0.13542 -0.27532,-0.68799 z"
         id="path12269" /><path
         style="fill:#778c2b;stroke-width:0.524184"
         d="m 642.51841,299.88342 c 0.0252,-0.61065 0.14936,-0.73486 0.31669,-0.3167 0.15142,0.37839 0.1328,0.8305 -0.0414,1.00469 -0.17418,0.17418 -0.29807,-0.13542 -0.27531,-0.68799 z"
         id="path12267" /><path
         style="fill:#778c2b;stroke-width:0.524184"
         d="m 648.28444,341.81819 c 0.0252,-0.61065 0.14936,-0.73485 0.31669,-0.31669 0.15142,0.37839 0.1328,0.8305 -0.0414,1.00469 -0.17418,0.17418 -0.29807,-0.13542 -0.27531,-0.688 z"
         id="path12185" /><path
         style="fill:#778c2b;stroke-width:0.524184"
         d="m 644.61515,342.86656 c 0.0252,-0.61065 0.14936,-0.73485 0.31669,-0.31669 0.15142,0.37839 0.1328,0.8305 -0.0414,1.00468 -0.17418,0.17419 -0.29807,-0.13541 -0.27531,-0.68799 z"
         id="path12181" /><path
         style="fill:#526028;stroke-width:0.524184"
         d="m 645.71239,354.83543 c -0.25895,-0.50452 -0.61853,-4.84165 -0.79908,-9.63806 -0.18054,-4.7964 -0.59407,-10.57553 -0.91893,-12.84251 -0.5431,-3.78974 -0.77167,-4.3118 -2.83746,-6.48061 -1.23572,-1.29735 -3.24419,-4.01 -4.46325,-6.02811 -1.21905,-2.01811 -2.88289,-4.4323 -3.69741,-5.36485 -0.81453,-0.93256 -2.93602,-4.29389 -4.71443,-7.46963 -1.77842,-3.17574 -3.40374,-5.77406 -3.61183,-5.77406 -0.2081,0 -1.12428,0.37211 -2.03597,0.82693 -2.25058,1.12273 -4.14049,0.61738 -7.81939,-2.09087 -2.68266,-1.97487 -5.43152,-5.02627 -4.52792,-5.02627 0.18331,0 1.74536,1.06147 3.47122,2.35882 1.72586,1.29736 3.29147,2.35864 3.47913,2.35841 0.18767,-2.4e-4 1.52062,-0.4433 2.96213,-0.98458 1.74748,-0.65618 2.85347,-1.45184 3.31873,-2.38756 0.38379,-0.77188 1.27976,-1.62468 1.99104,-1.89511 1.4606,-0.55532 2.78721,-3.26136 2.87004,-5.8544 l 0.055,-1.72044 0.69102,2.09674 c 0.38007,1.1532 0.70785,2.68644 0.7284,3.40719 0.059,2.06991 -0.97956,5.21625 -2.08757,6.32425 -0.55788,0.55788 -1.01433,1.27175 -1.01433,1.58638 0,1.26404 4.51924,9.03184 6.87694,11.82026 1.38195,1.63442 3.09758,4.20707 3.8125,5.71701 1.18449,2.50169 4.41803,6.79595 4.81692,6.39705 0.091,-0.091 0.26903,-6.40881 0.39557,-14.03953 0.21318,-12.85559 0.62366,-17.58902 1.96455,-22.65412 0.45316,-1.71181 0.72087,-1.96569 2.07272,-1.96569 1.73645,0 1.90746,0.61421 1.02255,3.67275 -2.74656,9.49308 -3.16335,29.88184 -0.87859,42.97965 0.72922,4.18036 1.72847,10.88409 2.22057,14.89716 0.86088,7.02059 0.85865,7.32286 -0.0589,7.99381 -1.32045,0.96554 -2.7237,0.87152 -3.28392,-0.22001 z"
         id="path12299" /></g></g></svg>
