<?xml version="1.0" encoding="UTF-8" standalone="no"?>
<!-- Created with Inkscape (http://www.inkscape.org/) -->

<svg
   width="176.83228mm"
   height="293.25989mm"
   viewBox="0 0 176.83228 293.25989"
   version="1.1"
   id="svg5"
   xml:space="preserve"
   inkscape:version="1.2.1 (9c6d41e410, 2022-07-14)"
   sodipodi:docname="drawing.svg"
   xmlns:inkscape="http://www.inkscape.org/namespaces/inkscape"
   xmlns:sodipodi="http://sodipodi.sourceforge.net/DTD/sodipodi-0.dtd"
   xmlns="http://www.w3.org/2000/svg"
   xmlns:svg="http://www.w3.org/2000/svg"><sodipodi:namedview
     id="namedview7"
     pagecolor="#505050"
     bordercolor="#eeeeee"
     borderopacity="1"
     inkscape:showpageshadow="0"
     inkscape:pageopacity="0"
     inkscape:pagecheckerboard="0"
     inkscape:deskcolor="#505050"
     inkscape:document-units="mm"
     showgrid="false"
     inkscape:zoom="1.0255231"
     inkscape:cx="-2671.3197"
     inkscape:cy="1254.9693"
     inkscape:window-width="3840"
     inkscape:window-height="1526"
     inkscape:window-x="2869"
     inkscape:window-y="-11"
     inkscape:window-maximized="1"
     inkscape:current-layer="g2018"
     showguides="true" /><defs
     id="defs2" /><g
     inkscape:label="Layer 1"
     inkscape:groupmode="layer"
     id="layer1"
     style="display:inline"
     transform="translate(-1697.867,-373.00927)"><g
       id="g12567"
       transform="matrix(2.2040458,0,0,2.2040458,95.810141,-138.59835)"><path
         style="fill:#f6f9fb;stroke-width:0.524184"
         d="m 746.68982,318.01939 c 0.76387,0.007 0.77734,0.0783 0.0997,0.51625 -1.02655,0.6634 -1.72052,0.6634 -1.31052,0 0.17818,-0.2883 0.72326,-0.52025 1.21078,-0.51625 z"
         id="path10523" /><path
         style="fill:#f6f9fb;stroke-width:0.524184"
         d="m 762.2589,317.39255 c 0.0299,0.031 0.0624,0.10814 0.0956,0.23565 0.13292,0.51001 0.12395,1.21762 -0.0196,1.57251 -0.14354,0.35489 -0.25254,-0.0622 -0.24184,-0.92707 0.008,-0.64868 0.0763,-0.97404 0.16588,-0.88109 z"
         id="path10521" /><path
         style="fill:#f6f9fb;stroke-width:0.524184"
         d="m 762.5948,313.65531 c -0.31218,0.009 -0.70974,0.0582 -1.22887,0.12868 -2.15222,0.29236 -2.18894,0.33337 -2.85202,3.17913 -0.82933,3.55928 -0.87936,5.53002 -0.17363,6.84868 0.63809,1.1923 0.70076,1.20086 2.93987,0.39119 1.90118,-0.68747 2.13065,-1.07835 2.84995,-4.85448 0.32436,-1.70281 0.30887,-3.15502 -0.045,-4.22714 -0.38502,-1.16665 -0.55381,-1.49422 -1.49034,-1.46606 z"
         id="path10519" /><path
         style="fill:#f6f9fb;stroke-width:0.524184"
         d="m 754.85987,313.2419 c -0.9628,-0.0782 -1.65334,0.11592 -2.56625,0.64699 -0.8649,0.50315 -3.3418,1.31138 -5.50406,1.79627 -4.93428,1.10651 -6.15688,1.73369 -8.5571,4.39043 -2.2085,2.44455 -2.46134,4.0451 -0.74724,4.73408 1.8642,0.74932 2.42346,0.63603 4.75423,-0.9617 1.20515,-0.82612 3.48897,-2.15454 5.07462,-2.95227 1.58566,-0.79773 4.26259,-2.49644 5.949,-3.77497 1.68641,-1.27852 3.1687,-2.22217 3.29385,-2.09702 0.3023,0.3023 -3.37113,3.51193 -4.01939,3.51193 -0.27827,0 -0.50591,0.58543 -0.50591,1.30069 0,0.95995 0.35343,1.38924 1.34927,1.63918 2.51767,0.6319 3.67368,-0.42293 4.37596,-3.99252 0.35087,-1.7834 0.54846,-3.33193 0.43925,-3.44114 -0.10921,-0.1092 -1.12836,-0.39449 -2.26446,-0.63355 -0.39972,-0.0841 -0.75084,-0.14032 -1.07177,-0.1664 z"
         id="path10517" /><path
         style="fill:#f6f9fb;stroke-width:0.524184"
         d="m 752.39594,312.3479 c -0.37257,0.003 -0.87718,0.13483 -1.27796,0.34933 -0.63757,0.34123 -3.48578,0.34914 -8.28477,0.0222 -4.02234,-0.27398 -8.20237,-0.35333 -9.28884,-0.17621 -3.21423,0.52396 -5.40825,4.26423 -4.25865,7.26002 0.43796,1.14131 1.42692,1.03807 2.61327,-0.27285 1.38083,-1.52579 3.20903,-2.38143 5.97948,-2.79828 7.62234,-1.14685 16.55677,-3.76187 14.83734,-4.34289 -0.0861,-0.0291 -0.19569,-0.0425 -0.31987,-0.0413 z"
         id="path10515" /><path
         style="fill:#f6f9fb;stroke-width:0.524184"
         d="m 766.98884,311.97014 c -0.15777,0.008 -0.28816,0.0737 -0.40411,0.18966 -0.33546,0.33546 -1.02043,0.60978 -1.52187,0.60978 -0.85012,0 -0.85718,0.15928 -0.108,2.35799 0.73658,2.16175 2.32419,3.83173 4.37493,4.60231 1.45591,0.54708 3.0122,0.3837 3.64887,-0.38344 0.828,-0.99769 -0.35438,-2.94534 -3.48816,-5.74539 -1.30936,-1.16991 -2.02834,-1.6563 -2.50166,-1.63091 z"
         id="path10513" /><path
         style="fill:#f6f9fb;stroke-width:0.524184"
         d="m 770.47649,311.31385 c -0.25633,0.005 -0.42926,0.0391 -0.49558,0.10542 -0.096,0.096 0.91595,0.81406 2.24896,1.59526 1.33302,0.78119 2.30804,1.53616 2.16627,1.67793 -0.14177,0.14177 -0.87563,-0.14677 -1.63039,-0.64131 -2.04238,-1.33821 -2.22596,-0.52244 -0.3607,1.60197 0.90327,1.02877 1.64228,2.09128 1.64228,2.3611 0,0.48286 4.77698,2.88445 7.33857,3.68918 0.72076,0.22644 1.38488,0.4315 1.47588,0.4563 0.091,0.0248 0.60672,-0.19084 1.14618,-0.47955 0.78413,-0.41964 0.92228,-0.91894 0.68885,-2.48977 -0.42904,-2.88712 -1.37865,-4.0719 -4.47105,-5.57641 -2.07038,-1.00727 -7.95502,-2.33849 -9.74927,-2.30012 z"
         id="path10511" /><path
         style="fill:#f6f9fb;stroke-width:0.524184"
         d="m 744.62897,309.68295 c 0.57005,9.2e-4 1.1208,0.0317 1.51463,0.0915 0.78767,0.11962 0.0172,0.21539 -1.71255,0.21239 -1.72981,-0.003 -2.37461,-0.10088 -1.43247,-0.21755 0.47107,-0.0585 1.06034,-0.0872 1.63039,-0.0863 z"
         id="path10509" /><path
         style="fill:#f6f9fb;stroke-width:0.524184"
         d="m 736.00727,307.18749 c -1.68781,0.0266 -3.07005,0.1237 -3.75481,0.31109 -2.55608,0.69949 -5.38158,2.44476 -5.38158,3.32383 0,0.37903 0.29381,0.98318 0.65319,1.34256 0.41988,0.41987 1.12251,0.50928 1.96577,0.25011 0.72175,-0.22183 5.32203,-0.42182 10.22315,-0.44442 10.24003,-0.0472 12.17929,-0.50392 9.9596,-2.34611 -0.43245,-0.3589 -0.786,-0.94235 -0.786,-1.29656 0,-0.66458 -7.81587,-1.22037 -12.87932,-1.1405 z"
         id="path10507" /><path
         style="fill:#f6f9fb;stroke-width:0.524184"
         d="m 776.73295,306.97097 c -2.31522,-0.0525 -4.05954,0.0546 -4.32583,0.37568 -0.3608,0.43501 0.13086,0.70772 1.74821,0.96842 3.28418,0.52936 9.91692,2.33034 10.86704,2.95073 0.67506,0.44075 0.68049,0.49374 0.0326,0.30179 -0.43245,-0.12812 -3.54721,-0.8745 -6.92205,-1.6583 -5.62492,-1.30636 -6.23268,-1.35708 -7.29517,-0.61288 l -1.1591,0.81183 1.43196,0.54416 c 0.7877,0.29948 2.18391,0.5425 3.10213,0.5395 0.9182,-0.003 3.08437,0.45601 4.81418,1.02009 1.7298,0.56408 4.79646,1.23879 6.81457,1.49913 5.29026,0.68247 7.01456,0.70095 8.15919,0.0884 1.32252,-0.70779 1.27998,-1.15786 -0.28732,-3.02049 -0.96191,-1.14317 -2.22729,-1.78524 -4.8488,-2.46031 -2.8285,-0.72838 -8.27286,-1.26015 -12.13156,-1.34772 z"
         id="path10505" /><path
         style="fill:#f6f9fb;stroke-width:0.524184"
         d="m 737.83507,304.97161 c 0.1821,0.007 0.33872,0.0555 0.42581,0.14262 0.17418,0.17418 -0.13575,0.29814 -0.68833,0.27544 -0.61065,-0.0251 -0.73442,-0.14945 -0.31626,-0.31678 0.1892,-0.0757 0.39668,-0.10879 0.57878,-0.10128 z"
         id="path10503" /><path
         style="fill:#f6f9fb;stroke-width:0.524184"
         d="m 742.38983,303.42441 c 0.27433,0 1.18536,0.31933 2.56522,0.95808 1.1532,0.53384 1.74296,0.97854 1.31051,0.98754 -0.43245,0.009 -1.61197,-0.43511 -2.62103,-0.98754 -1.16674,-0.63875 -1.52904,-0.95808 -1.2547,-0.95808 z"
         id="path10501" /><path
         style="fill:#f6f9fb;stroke-width:0.524184"
         d="m 730.27325,302.38365 c -1.49014,-0.039 -2.67179,0.092 -2.89439,0.45217 -0.67151,1.08652 0.38478,2.51967 2.25567,3.06028 0.93033,0.26881 3.25867,0.50988 5.17385,0.53588 2.77542,0.0377 3.54925,-0.12741 3.81269,-0.8139 0.18213,-0.47372 0.26586,-0.89865 0.18706,-0.94465 -0.0789,-0.046 -0.76468,-0.47186 -1.52445,-0.94619 -1.18595,-0.7404 -4.52685,-1.27852 -7.01043,-1.34359 z"
         id="path10499" /><path
         style="fill:#f6f9fb;stroke-width:0.524184"
         d="m 778.40107,302.34485 c -0.26069,0 -0.74931,0.15509 -1.47072,0.46509 -1.01074,0.43434 -1.00701,0.45181 0.10026,0.48731 0.63166,0.0203 1.29408,-0.19901 1.47226,-0.48731 0.19159,-0.31 0.15888,-0.46509 -0.1018,-0.46509 z"
         id="path10497" /><path
         style="fill:#f6f9fb;stroke-width:0.524184"
         d="m 791.5336,301.8808 c -3.18382,0.053 -8.08081,0.72909 -14.4725,2.02416 -2.86357,0.58022 -3.53777,0.90498 -3.53777,1.70481 0,0.92546 0.34145,0.96772 5.3728,0.65836 13.65496,-0.83957 16.28984,-1.25809 16.83308,-2.67374 0.45908,-1.19635 -1.01179,-1.76657 -4.19561,-1.71359 z"
         id="path10495" /><path
         style="fill:#f6f9fb;stroke-width:0.524184"
         d="m 741.15889,300.90101 c 0.34023,0.0187 1.50385,0.49881 5.36867,2.12959 1.72981,0.72989 2.67311,1.33245 2.09651,1.33945 -1.07571,0.0123 -7.60057,-2.87172 -7.60057,-3.35948 0,-0.0708 0.022,-0.11579 0.13539,-0.10956 z"
         id="path10493" /><path
         style="fill:#f6f9fb;stroke-width:0.524184"
         d="m 732.99247,296.51989 c -1.80548,0 -3.23992,1.04497 -2.88716,2.10323 0.10373,0.31122 3.48711,2.31441 7.51892,4.45192 8.92012,4.7291 10.55245,4.98394 11.86801,1.85105 l 0.86816,-2.06706 -2.44068,-0.88831 c -1.34227,-0.48856 -4.84511,-1.9146 -7.78402,-3.16932 -2.93891,-1.25471 -6.1533,-2.28151 -7.14323,-2.28151 z"
         id="path10489" /><path
         style="fill:#f6f9fb;stroke-width:0.524184"
         d="m 746.14929,295.26363 c -0.0464,-0.17588 1.02062,0.62384 2.97088,2.2748 1.13761,0.96303 2.10093,2.18909 2.14043,2.7249 0.0395,0.53581 -0.066,0.96818 -0.23409,0.96118 -0.55404,-0.0236 -5.00733,-3.46312 -5.80946,-4.48707 -0.74281,-0.94823 -0.72843,-0.96167 0.26199,-0.24236 0.5766,0.41878 1.57817,1.22578 2.22571,1.79317 2.1139,1.85226 1.91806,0.40074 -0.21963,-1.6278 -0.87927,-0.83439 -1.30796,-1.29129 -1.33583,-1.39682 z"
         id="path10487" /><path
         style="fill:#f6f9fb;stroke-width:0.524184"
         d="m 792.79089,295.18303 c -1.67162,-0.0679 -3.2398,0.35646 -6.01101,1.37717 -6.54159,2.40943 -13.25655,5.74131 -13.25655,6.57738 v 5.2e-4 c 0,0.94003 1.90132,0.93681 2.26239,-0.004 0.15293,-0.39853 1.71149,-1.2088 3.46336,-1.80041 3.45936,-1.16824 4.19921,-1.08867 1.48156,0.15917 -1.67646,0.76977 -1.64916,0.7783 1.70377,0.52916 6.2546,-0.46474 10.20933,-1.07795 11.53211,-1.788 3.05879,-1.6419 4.18776,-3.8817 2.22778,-4.41937 -1.35985,-0.37304 -2.40044,-0.59073 -3.40341,-0.63148 z"
         id="path10485" /><path
         style="fill:#f6f9fb;stroke-width:0.524184"
         d="m 753.31526,292.85035 c 0.14415,0 0.62761,0.70812 1.07487,1.57303 0.44726,0.8649 0.69554,1.57252 0.55139,1.57252 -0.14415,0 -0.62813,-0.70762 -1.07539,-1.57252 -0.44726,-0.86491 -0.69502,-1.57303 -0.55087,-1.57303 z"
         id="path10481" /><path
         style="fill:#f6f9fb;stroke-width:0.524184"
         d="m 790.81219,289.97301 c -1.53994,-0.21631 -4.12194,0.45779 -6.9205,2.13837 -3.1138,1.86988 -11.41688,7.98259 -11.41688,8.40517 0,0.39722 0.55664,0.15922 3.82561,-1.63763 3.63425,-1.99762 4.52016,-2.26211 3.51296,-1.04851 -0.84514,1.01834 -1.11826,1.08435 5.20537,-1.26142 3.83006,-1.42078 5.76476,-2.43632 6.46059,-3.39153 1.37035,-1.88118 0.8728,-2.98814 -0.66715,-3.20445 z"
         id="path10471" /><path
         style="fill:#f6f9fb;stroke-width:0.524184"
         d="m 739.86388,289.11518 c -0.64653,-0.0184 -1.34814,0.0893 -2.37866,0.27698 -2.4554,0.44712 -2.82608,1.32231 -1.41439,3.33779 0.74544,1.06426 11.51373,8.46703 13.33976,9.1705 0.43245,0.1666 1.0072,0.32136 1.27692,0.34416 0.72444,0.0611 2.91662,-2.13031 2.91662,-2.91558 0,-1.21234 -7.00691,-7.61249 -9.6976,-8.85786 -2.04033,-0.94436 -2.96509,-1.32524 -4.04265,-1.35599 z"
         id="path10469" /><path
         style="fill:#f6f9fb;stroke-width:0.524184"
         d="m 765.40393,285.9412 c 0.0299,0.031 0.0624,0.10866 0.0956,0.23616 0.13292,0.51001 0.12394,1.21763 -0.0196,1.57252 -0.14355,0.35489 -0.25203,-0.0627 -0.24133,-0.92759 0.008,-0.64868 0.0758,-0.97404 0.16537,-0.88109 z"
         id="path10447" /><path
         style="fill:#f6f9fb;stroke-width:0.524184"
         d="m 748.17139,285.2932 c -0.80452,-0.005 -1.38183,0.3926 -1.38183,1.29295 0,0.52875 -0.2357,1.10701 -0.524,1.28519 -1.12992,0.69833 -0.35945,2.0223 3.80028,6.53087 2.37848,2.57794 4.67835,4.69514 5.1108,4.70514 2.63825,0.0598 2.58192,-2.3349 -0.15658,-6.66523 -0.92299,-1.45952 -2.07029,-3.36307 -2.54971,-4.23023 -0.98554,-1.78261 -2.9581,-2.91011 -4.29896,-2.91869 z"
         id="path10441" /><path
         style="fill:#f6f9fb;stroke-width:0.524184"
         d="m 784.13457,280.27085 c -2.17926,0 -3.11083,0.52563 -6.45077,3.64009 -2.92573,2.7282 -9.56124,13.18723 -8.82685,13.91284 0.36505,0.36068 0.72736,0.19453 1.12706,-0.51676 0.32402,-0.5766 1.63505,-2.11019 2.91352,-3.40754 l 2.3244,-2.35852 -1.61592,2.14716 c -0.88879,1.18093 -1.97872,2.4479 -2.42207,2.81585 -0.95925,0.7961 -1.0302,1.67921 -0.20154,2.50786 0.76127,0.76127 1.74859,0.27903 5.94795,-2.90732 3.46917,-2.6323 8.88499,-9.08469 9.77977,-11.65149 0.90538,-2.59715 -0.0707,-4.18217 -2.57555,-4.18217 z"
         id="path10417" /><path
         style="fill:#f6f9fb;stroke-width:0.524184"
         d="m 769.66878,279.35721 c -0.97508,-0.11573 -2.18116,0.91609 -3.09283,2.7926 -0.61846,1.27297 -1.2758,2.31458 -1.46038,2.31458 -0.18457,0 -0.60384,-0.58976 -0.93224,-1.31051 -0.64879,-1.42394 -2.01981,-1.69038 -3.37189,-0.65526 -0.66041,0.50559 -0.97255,2.21118 -1.36684,7.46931 l -0.51108,6.81457 0.10594,-6.93239 c 0.10832,-7.0752 -0.11043,-7.88396 -1.9451,-7.17992 -1.0294,0.39501 -2.96623,4.07916 -2.96623,5.64255 0,0.74089 0.7076,2.54734 1.57251,4.01422 0.8649,1.46688 1.57252,2.75948 1.57252,2.87218 0,0.11269 0.2239,0.79292 0.49712,1.51153 0.42559,1.11939 0.70731,1.25057 1.96578,0.91623 1.31136,-0.34839 1.49331,-0.66759 1.69912,-2.97605 l 0.23047,-2.58589 0.32246,2.62103 c 0.3079,2.50433 0.35086,2.56267 0.96377,1.31052 0.58867,-1.20265 0.62247,-1.21365 0.41341,-0.13126 -0.1453,0.75225 0.0281,1.17925 0.47853,1.17925 1.09693,0 1.47411,-0.99556 1.88308,-4.97023 l 0.37879,-3.67885 -0.13591,4.3248 c -0.13264,4.22048 -0.10654,4.32428 1.08779,4.32428 1.15619,0 1.6999,-0.75685 0.81546,-1.13533 -0.22456,-0.0961 0.008,-1.5904 0.51624,-3.32021 l 0.9245,-3.14503 -0.31368,2.88303 c -0.17239,1.58566 -0.19957,2.76518 -0.0605,2.62103 0.13911,-0.14415 1.2596,-1.91343 2.48977,-3.93154 1.49788,-2.45728 2.31982,-4.47431 2.48874,-6.10661 0.23183,-2.24031 0.13103,-2.51266 -1.25057,-3.37033 -0.82674,-0.51322 -1.78109,-1.26607 -2.12029,-1.67277 -0.25416,-0.30472 -0.55347,-0.47095 -0.8785,-0.50953 z"
         id="path10411" /><path
         style="fill:#f6f9fb;stroke-width:0.524184"
         d="m 771.25628,258.82579 c -0.31596,0.0109 -0.84543,0.1992 -1.61385,0.54932 -1.45896,0.66474 -2.40967,2.84517 -2.40967,5.52679 0,1.34907 0.28252,1.88675 1.17977,2.24741 1.71487,0.68929 2.8058,0.6363 3.47369,-0.16847 0.64969,-0.78283 1.46707,-7.15357 0.91777,-7.15357 -0.18946,0 -0.81209,0.7668 -1.38338,1.70378 -1.21822,1.99801 -1.40921,1.04984 -0.24288,-1.20561 0.53909,-1.04248 0.60516,-1.51778 0.0785,-1.49965 z"
         id="path10347" /><path
         style="fill:#f6f9fb;stroke-width:0.524184"
         d="m 781.28978,256.88275 c -0.16885,-0.008 -0.36594,0.0325 -0.60668,0.10645 -1.65117,0.50686 -1.6357,0.46609 -1.83762,4.91237 l -0.18551,4.0876 2.3213,2.42311 c 2.43161,2.53777 2.56764,2.60137 4.46691,2.09238 1.67401,-0.44861 1.51669,-2.16603 -0.58291,-6.36602 -0.96923,-1.93884 -2.05188,-4.41899 -2.40605,-5.51129 -0.41082,-1.26704 -0.6629,-1.72129 -1.16944,-1.7446 z"
         id="path10335" /><path
         style="fill:#f6f9fb;stroke-width:0.524184"
         d="m 775.46843,256.24816 c -0.83626,-0.0464 -0.96803,0.34326 -1.37925,1.82418 -0.63234,2.27731 -0.76188,8.19879 -0.19171,8.76898 0.20592,0.2059 1.20841,0.30439 2.22777,0.21859 l 1.85363,-0.15606 0.30024,-4.98006 c 0.16519,-2.73886 0.283,-5.01748 0.262,-5.06378 -0.021,-0.0464 -0.90544,-0.24647 -1.96526,-0.44441 -0.47166,-0.0881 -0.82867,-0.15198 -1.10742,-0.16744 z"
         id="path10331" /><path
         style="fill:#f6f9fb;stroke-width:0.524184"
         d="m 785.86004,255.34946 c -0.27356,0.0257 -0.54273,0.10488 -0.74155,0.23151 -0.60317,0.38413 -0.54754,0.9696 0.33641,3.5326 1.73758,5.03811 1.77727,5.28878 0.40308,2.54817 -0.72281,-1.44151 -1.46326,-3.39802 -1.64538,-4.34754 -0.37442,-1.95207 -1.60129,-2.0057 -1.35961,-0.0594 0.30359,2.44492 3.99833,9.80328 5.34128,10.6376 1.8396,1.14286 2.7818,1.04453 4.17235,-0.43564 1.74801,-1.86067 1.14559,-3.31925 -3.1228,-7.56233 -2.01541,-2.00344 -3.66438,-3.8105 -3.66438,-4.01577 0,-0.20526 0.3595,-0.0748 0.79892,0.2899 0.43942,0.36463 0.94023,0.52118 1.11311,0.3483 0.17288,-0.17288 1.25182,0.16391 2.39727,0.74828 1.14544,0.58436 1.96175,1.18327 1.81436,1.33067 -0.1474,0.14738 -0.7442,0.013 -1.32654,-0.29869 -1.711,-0.9157 -2.45379,-0.69346 -1.43712,0.42994 0.49598,0.54806 1.77113,1.15434 2.83342,1.34772 1.06228,0.19338 3.16595,1.04248 4.67517,1.88671 1.50922,0.84422 3.20621,1.53479 3.77083,1.53479 0.91891,0 2.65875,-1.76135 2.65875,-2.69182 0,-0.19911 -1.72473,-1.29197 -3.83233,-2.4288 -3.18388,-1.71737 -4.49168,-2.11388 -7.73182,-2.34249 -2.14484,-0.15133 -4.25357,-0.4184 -4.68602,-0.59376 -0.21623,-0.0877 -0.49384,-0.11559 -0.7674,-0.0899 z"
         id="path10321" /><path
         style="fill:#f6f9fb;stroke-width:0.524184"
         d="m 772.06967,254.24875 c 0.13737,-0.0189 0.23255,-0.0108 0.27285,0.0295 0.16121,0.16121 -0.56101,0.65001 -1.60507,1.08624 -2.68734,1.12285 -3.08896,0.94229 -0.70332,-0.31626 0.83126,-0.43853 1.62344,-0.74259 2.03554,-0.79944 z"
         id="path10315" /><path
         style="fill:#f6f9fb;stroke-width:0.524184"
         d="m 770.11578,252.54705 c 0.57661,0.006 -0.0131,0.3462 -1.31051,0.75499 -2.9103,0.91706 -3.37788,0.90064 -1.31051,-0.046 0.8649,-0.39604 2.04442,-0.715 2.62102,-0.709 z"
         id="path10309" /><path
         style="fill:#f6f9fb;stroke-width:0.524184"
         d="m 789.70219,249.96377 c -2.25208,0.0833 -2.11815,0.6724 0.92087,1.43764 1.33242,0.33551 2.31887,0.7135 2.19263,0.83974 -0.12624,0.12624 -1.03766,-0.002 -2.02572,-0.28577 -2.46566,-0.70715 -2.4634,-0.70807 -3.35173,1.00976 -0.77631,1.50124 -0.7629,1.53438 0.85111,2.09703 0.90184,0.31439 2.84287,0.57908 4.31343,0.58808 2.09644,0.013 3.46626,0.45193 6.34329,2.03243 4.46653,2.45369 5.61375,2.57439 7.05383,0.74363 l 1.10174,-1.40043 -1.71876,-1.77767 c -2.80624,-2.90213 -7.39352,-4.78254 -12.65246,-5.18677 -1.26159,-0.097 -2.27754,-0.12543 -3.02823,-0.0977 z"
         id="path10301" /><path
         style="fill:#f6f9fb;stroke-width:0.524184"
         d="m 770.42378,248.94626 c -0.11865,0.007 -0.26299,0.0456 -0.4377,0.11266 -0.50389,0.19336 -2.09614,0.59052 -3.53829,0.88315 -1.44215,0.29262 -3.80158,1.08229 -5.24309,1.75441 -1.4415,0.67214 -3.79868,1.66327 -5.23792,2.20245 -2.62179,0.98221 -3.6362,2.38367 -2.14096,2.95745 0.43859,0.1683 2.60175,-0.16654 4.80694,-0.74414 2.20521,-0.5776 4.12679,-0.93337 4.27003,-0.79014 0.14324,0.14324 -0.35979,0.41645 -1.11776,0.60668 -2.65712,0.6669 -4.5276,5.24545 -2.83446,6.9386 0.87275,0.87275 1.21747,0.8077 3.44475,-0.65061 1.07495,-0.70381 3.25178,-1.76048 4.83744,-2.34817 1.58565,-0.58768 3.78198,-1.80967 4.88032,-2.7156 1.99211,-1.64313 1.99405,-1.64989 0.98237,-2.76262 -1.39378,-1.533 -2.19315,-3.18999 -2.19315,-4.54443 0,-0.65156 -0.12258,-0.91957 -0.47852,-0.89969 z"
         id="path10299" /><path
         style="fill:#f6f9fb;stroke-width:0.524184"
         d="m 759.8792,247.56134 c -1.49125,0.0158 -3.34545,0.74017 -5.31234,2.10323 -2.11056,1.46262 -2.42507,2.20048 -1.38234,3.24321 0.34596,0.34596 0.8992,0.62942 1.22886,0.62942 1.02036,0 6.63477,-2.05629 7.44038,-2.7249 0.65773,-0.54587 0.6293,-0.68603 -0.20516,-1.01441 -0.87917,-0.34592 -0.88368,-0.38404 -0.0506,-0.41754 1.34007,-0.0538 1.12049,-1.0338 -0.3576,-1.59577 -0.40728,-0.15485 -0.86408,-0.22851 -1.36116,-0.22324 z"
         id="path10297" /><path
         style="fill:#f6f9fb;stroke-width:0.524184"
         d="m 769.59178,246.73865 c -0.2883,0 -0.17045,0.22851 0.262,0.50798 0.43245,0.27947 1.02222,0.50849 1.31052,0.50849 0.2883,0 0.17045,-0.22902 -0.262,-0.50849 -0.43245,-0.27947 -1.02222,-0.50798 -1.31052,-0.50798 z"
         id="path10295" /><path
         style="fill:#f6f9fb;stroke-width:0.524184"
         d="m 791.6075,245.69015 c 0.28829,0 0.17046,0.22903 -0.262,0.5085 -0.43245,0.27947 -1.02221,0.50798 -1.31052,0.50798 -0.2883,0 -0.17046,-0.22851 0.262,-0.50798 0.43245,-0.27947 1.02222,-0.5085 1.31052,-0.5085 z"
         id="path10289" /><path
         style="fill:#f6f9fb;stroke-width:0.524184"
         d="m 803.01145,243.17196 c -1.21364,-0.0947 -2.89174,0.73977 -4.75061,2.52594 -1.18645,1.14005 -2.61911,2.07326 -3.18327,2.07326 -2.64941,0 -3.60678,1.34652 -1.2423,1.74718 1.97053,0.3339 7.35925,-0.10151 9.43508,-0.76222 1.528,-0.48635 1.70377,-0.74764 1.70377,-2.53422 0,-1.93121 -0.74903,-2.95525 -1.96267,-3.04994 z"
         id="path10279" /><path
         style="fill:#f6f9fb;stroke-width:0.524184"
         d="m 803.07811,238.3614 c -2.03863,0.13324 -5.18134,1.53078 -8.92348,4.0628 -1.68931,1.14303 -4.07565,2.58335 -5.30304,3.20084 -2.16914,1.09129 -2.20919,1.15712 -1.42472,2.35438 l 0.80719,1.23197 4.16563,-1.44229 c 2.33334,-0.80797 4.98145,-2.15906 6.02083,-3.07165 1.02048,-0.896 2.44042,-1.75027 3.15588,-1.89859 0.71545,-0.14832 1.86489,-0.38544 2.55384,-0.5271 1.50066,-0.30857 1.90856,-1.16339 1.3162,-2.75694 -0.31913,-0.85854 -1.14515,-1.23336 -2.36833,-1.15342 z"
         id="path10267" /><path
         style="fill:#f6f9fb;stroke-width:0.524184"
         d="m 763.56631,237.32891 c 0.59034,-0.031 7.08523,4.39884 8.86458,6.04614 0.12012,0.1112 10e-4,0.20257 -0.26459,0.20257 -0.26569,0 -2.17293,-1.27126 -4.2385,-2.82515 -2.06556,-1.5539 -4.06937,-2.95104 -4.45295,-3.1042 -0.5266,-0.21025 -0.50416,-0.28816 0.0915,-0.31936 z"
         id="path10265" /><path
         style="fill:#f6f9fb;stroke-width:0.524184"
         d="m 792.21211,234.94509 c -2.14315,-0.0975 -3.79688,1.19487 -4.30258,3.57601 -0.19264,0.90708 -0.97255,2.77577 -1.73323,4.15272 -1.18153,2.13877 -1.26975,2.57426 -0.60461,2.99 0.55185,0.34492 1.77314,-0.0614 4.19354,-1.39527 5.63114,-3.10333 6.82181,-4.17148 6.82181,-6.12055 0,-1.4875 -0.26938,-1.82608 -2.09342,-2.63085 -0.79875,-0.35241 -1.56713,-0.53957 -2.28151,-0.57206 z"
         id="path10255" /><path
         style="fill:#f6f9fb;stroke-width:0.524184"
         d="m 786.31221,234.88979 c -1.69256,-0.0984 -2.47804,1.40033 -3.67523,6.32881 -0.19655,0.80918 0.0495,0.68976 1.07901,-0.524 1.61798,-1.90754 1.72098,-1.4937 0.24908,1.00097 -0.59948,1.01605 -0.93904,2.09122 -0.755,2.38901 0.18404,0.29779 0.49739,0.53943 0.6966,0.53743 0.54945,-0.006 2.83114,-4.20313 3.26544,-6.00635 0.21069,-0.87482 0.54167,-1.9725 0.73535,-2.43913 0.24863,-0.59902 0.0101,-0.93769 -0.8108,-1.15238 -0.28267,-0.0739 -0.54265,-0.1203 -0.78445,-0.13436 z"
         id="path10253" /><path
         style="fill:#f6f9fb;stroke-width:0.524184"
         d="m 779.96738,232.6615 c -0.66079,-0.08 -1.32916,0.23032 -2.20865,0.90641 -1.19544,0.91894 -1.22712,1.07691 -0.54932,2.7404 0.39558,0.97085 1.32009,2.77623 2.05465,4.01164 l 1.33532,2.24586 0.31471,-2.24586 c 0.17292,-1.23541 0.34996,-1.9515 0.39326,-1.59112 0.15454,1.28622 1.0557,0.62358 1.66553,-1.22421 0.57784,-1.75087 0.52054,-1.98342 -0.84336,-3.40703 -0.84827,-0.88541 -1.50135,-1.35604 -2.16214,-1.43609 z"
         id="path10251" /><path
         style="fill:#f6f9fb;stroke-width:0.524184"
         d="m 772.00404,232.12562 c -0.25287,-0.008 -0.50186,-0.003 -0.73277,0.0196 -1.38222,0.13371 -1.70852,0.41111 -1.84227,1.5689 -0.23571,2.0404 1.0675,4.18443 4.07314,6.70088 1.45293,1.21647 2.63465,2.48439 2.62465,2.81792 -0.01,0.33353 -0.42346,0.13477 -0.91933,-0.44183 -0.49588,-0.5766 -1.78726,-1.71074 -2.87011,-2.52026 -1.08284,-0.80953 -2.43813,-2.39073 -3.01118,-3.514 -1.17009,-2.29357 -3.07685,-2.97258 -6.90759,-2.45877 -3.05816,0.41018 -3.57582,1.18751 -1.418,2.12856 0.97734,0.42623 1.50763,0.79453 1.17874,0.81803 -0.32889,0.0235 -1.62626,-0.42397 -2.88303,-0.99425 -2.95264,-1.33979 -4.48292,-1.34466 -4.90461,-0.016 -0.38527,1.21387 0.0359,2.10116 0.99684,2.10116 0.37075,0 1.12355,0.51434 1.67276,1.14309 l 0.99839,1.1436 -1.29604,-0.88109 c -1.3849,-0.94149 -3.1595,-1.17903 -3.1595,-0.42271 0,3.63132 1.74926,5.20929 9.17308,8.27443 4.59973,1.89913 4.88746,1.9586 6.01359,1.24643 0.64524,-0.40805 0.60242,-0.54228 -0.262,-0.82165 -0.56852,-0.18374 -1.50543,-0.55603 -2.08204,-0.82734 -0.82374,-0.3876 -0.68331,-0.43728 0.65525,-0.23151 0.93698,0.14403 1.70326,0.0606 1.70326,-0.185 0,-0.40835 -3.48839,-2.07825 -6.02806,-2.88561 -0.5766,-0.1833 -1.87397,-1.05536 -2.88302,-1.93839 -2.00915,-1.75822 -1.21054,-1.5167 1.36012,0.41135 0.89212,0.6691 1.95327,1.21863 2.35851,1.22163 0.40524,0.003 1.99865,0.59258 3.54087,1.31051 2.98473,1.38947 3.74861,1.56684 3.74861,0.87075 0,-0.23902 -1.17881,-0.98714 -2.61948,-1.66191 -1.44066,-0.67477 -2.52403,-1.32174 -2.4076,-1.43816 0.11643,-0.11643 1.54677,0.41967 3.17861,1.19166 2.05379,0.97159 2.87802,1.63517 2.67839,2.15542 -0.16437,0.42833 0.45522,0.1843 1.44074,-0.5674 0.95111,-0.72544 2.3037,-1.42489 3.0055,-1.55391 0.7018,-0.12903 1.35444,-0.25197 1.45004,-0.27337 0.0956,-0.0214 -0.3442,-0.87697 -0.9772,-1.90118 -0.633,-1.02422 -1.05558,-1.95767 -0.93896,-2.07429 0.11662,-0.11662 0.78889,0.72158 1.49397,1.86242 0.70507,1.14084 1.66064,2.07429 2.12338,2.07429 0.65633,0 0.27288,-1.15435 -1.74253,-5.24826 -1.42095,-2.88638 -3.04543,-5.49485 -3.61011,-5.79706 -0.42351,-0.22666 -1.21439,-0.38124 -1.97301,-0.40669 z"
         id="path10249" /><path
         style="fill:#f3cb46;stroke-width:0.524184"
         d="m 779.35337,252.01758 c -0.3971,-0.25291 -1.64025,-0.33668 -2.76254,-0.18615 -1.65825,0.22242 -1.98452,0.12772 -1.74154,-0.50548 0.18418,-0.47996 -0.23333,-1.12798 -1.08723,-1.68747 -1.3651,-0.89445 -1.38063,-0.89064 -1.01854,0.2502 0.26678,0.84055 0.19234,1.05011 -0.27126,0.76359 -0.35686,-0.22055 -0.84094,-0.076 -1.09649,0.3275 -0.30661,0.48407 -0.46021,0.0511 -0.46558,-1.31246 -0.0233,-5.89674 10.34891,-8.23285 15.16596,-3.4158 1.69406,1.69407 2.37763,3.43525 1.96922,5.01605 -0.16721,0.64721 -0.26746,0.49569 -0.30851,-0.46628 -0.0481,-1.12805 -0.25199,-1.35331 -0.97813,-1.08085 -0.50452,0.18932 -1.1532,0.62453 -1.4415,0.96714 -0.28831,0.34262 -1.23184,0.75351 -2.09674,0.9131 -0.8649,0.15959 -1.92638,0.42215 -2.35883,0.58345 -0.43245,0.16132 -1.11118,0.0864 -1.50829,-0.16654 z"
         id="path11593" /><path
         style="fill:#f3cb46;stroke-width:0.524184"
         d="m 785.09881,254.96103 c 0.12013,-0.0816 0.69018,-0.49438 1.26678,-0.91733 0.96975,-0.71132 0.99442,-0.7002 0.32896,0.14833 -0.39568,0.50453 -0.96573,0.91732 -1.26678,0.91732 -0.30105,0 -0.44908,-0.0667 -0.32896,-0.14832 z"
         id="path11589" /><path
         style="fill:#f3cb46;stroke-width:0.524184"
         d="m 773.9081,255.04313 c -0.7973,-0.59477 -1.69769,-1.5898 -2.00087,-2.21117 -0.51884,-1.06336 -0.49425,-1.0593 0.41825,0.0692 0.53323,0.65943 1.6695,1.66038 2.52506,2.22434 0.85555,0.56395 1.31967,1.01945 1.03137,1.01221 -0.2883,-0.007 -1.17652,-0.49978 -1.97381,-1.09455 z"
         id="path11587" /><path
         style="fill:#f3cb46;stroke-width:0.524184"
         d="m 782.20298,255.91232 c 0.55963,-0.42328 1.23951,-0.7771 1.51083,-0.78628 0.27133,-0.009 0.0354,0.32966 -0.52418,0.75294 -0.55963,0.42328 -1.23951,0.77711 -1.51083,0.78628 -0.27133,0.009 -0.0354,-0.32966 0.52418,-0.75294 z"
         id="path11585" /><path
         style="fill:#f3cb46;stroke-width:0.524184"
         d="m 777.06132,256.33477 c 0.36038,-0.14541 0.95009,-0.14541 1.31047,0 0.36037,0.14541 0.0655,0.26439 -0.65524,0.26439 -0.72075,0 -1.0156,-0.11898 -0.65523,-0.26439 z"
         id="path11583" /><path
         style="fill:#f3cb46;stroke-width:0.524184"
         d="m 772.29344,307.00357 c 0.33275,-0.43245 0.71342,-1.37598 0.84594,-2.09674 l 0.24093,-1.31046 0.0714,1.37733 c 0.0394,0.7592 -0.3403,1.70019 -0.84594,2.09674 -0.79812,0.62592 -0.83871,0.61723 -0.31232,-0.0669 z"
         id="path11519" /><path
         style="fill:#f3cb46;stroke-width:0.524184"
         d="m 762.92555,300.78002 c 0.514,-0.25165 1.71672,-0.62933 2.67274,-0.83931 1.14883,-0.25233 1.56198,-0.55799 1.21848,-0.90149 -0.3435,-0.3435 -0.89426,-0.31927 -1.62436,0.0715 -0.60756,0.32516 -1.10464,0.45665 -1.10464,0.29221 0,-0.16443 -0.47734,-0.0435 -1.06075,0.26872 -0.82006,0.43889 -1.24395,0.38449 -1.8682,-0.23976 -0.72367,-0.72367 -0.96713,-0.72488 -2.34645,-0.0116 -0.84645,0.43772 -1.539,1.01827 -1.539,1.29012 0,0.51406 1.41312,0.16299 2.40706,-0.59802 0.86917,-0.66547 1.29402,0.0863 0.68833,1.21808 -0.47866,0.8944 -0.4197,0.94386 0.54263,0.45527 0.5938,-0.30148 1.50018,-0.75404 2.01416,-1.00568 z"
         id="path11517" /><path
         style="fill:#f3cb46;stroke-width:0.524184"
         d="m 755.70082,301.96774 c 0,-0.1133 -0.35383,-0.20601 -0.78628,-0.20601 -0.43245,0 -0.78628,0.22848 -0.78628,0.50773 0,0.27925 0.35383,0.37196 0.78628,0.20601 0.43245,-0.16595 0.78628,-0.39442 0.78628,-0.50773 z"
         id="path11515" /><path
         style="fill:#f3cb46;stroke-width:0.524184"
         d="m 757.05574,308.12388 c -0.15373,-0.24874 -1.12093,-0.38549 -2.14933,-0.30389 -1.38278,0.10972 -2.03357,-0.11383 -2.49845,-0.85821 -0.34574,-0.55362 -0.89682,-1.00658 -1.22461,-1.00658 -0.32781,0 -0.88222,-0.34486 -1.23203,-0.76635 -0.52143,-0.6283 -0.22609,-1.19731 1.63942,-3.1585 1.7262,-1.81474 3.16112,-2.70256 5.94472,-3.67816 4.02178,-1.40955 8.72696,-1.69956 11.11425,-0.68505 1.75465,0.74567 4.3524,3.0193 4.34116,3.79952 -0.004,0.30644 -0.21085,0.23706 -0.45874,-0.15416 -0.64306,-1.01488 -2.67834,-0.24833 -2.67834,1.00874 0,0.55717 -0.2498,1.01304 -0.55512,1.01304 -0.30532,0 -0.40934,0.23589 -0.23115,0.52419 0.17818,0.2883 -0.13422,0.52418 -0.69421,0.52418 -0.55999,0 -1.13084,0.43087 -1.26855,0.95748 -0.39213,1.49949 -4.25348,3.236 -7.19568,3.236 -1.41561,0 -2.69961,-0.20351 -2.85334,-0.45225 z"
         id="path11513" /><path
         style="fill:#f3cb46;stroke-width:0.524184"
         d="m 770.37798,309.42658 c 0,-0.10884 0.41279,-0.52164 0.91732,-0.91732 0.83139,-0.65202 0.84993,-0.63348 0.19791,0.19791 -0.68478,0.87316 -1.11523,1.15084 -1.11523,0.71941 z"
         id="path11511" /><path
         style="fill:#f3cb46;stroke-width:0.524184"
         d="m 749.40009,309.34978 c -0.36468,-0.43942 -0.56155,-0.90045 -0.43748,-1.02453 0.12408,-0.12407 0.51351,0.23546 0.86542,0.79895 0.76102,1.21858 0.50722,1.35237 -0.42794,0.22558 z"
         id="path11509" /><path
         style="fill:#f3cb46;stroke-width:0.524184"
         d="m 765.78985,312.01202 c 0.792,-0.41315 1.73553,-0.90393 2.09674,-1.09063 0.36121,-0.1867 0.067,0.14754 -0.65372,0.74275 -0.72075,0.59521 -1.66428,1.08599 -2.09674,1.09062 -0.43245,0.005 -0.13828,-0.3296 0.65372,-0.74274 z"
         id="path11507" /><path
         style="fill:#f3cb46;stroke-width:0.524184"
         d="m 759.93797,313.63012 c 0.12013,-0.10334 1.16195,-0.33254 2.31515,-0.50933 1.42786,-0.21889 1.84591,-0.16151 1.31046,0.17987 -0.71619,0.45661 -4.13447,0.76724 -3.62561,0.32946 z"
         id="path11505" /><path
         style="fill:#f3cb46;stroke-width:0.524184"
         d="m 755.43873,313.29383 c -1.45074,-0.36915 -1.47104,-0.40433 -0.2621,-0.45413 0.72076,-0.0297 1.66429,0.17466 2.09674,0.45413 0.89213,0.57654 0.43112,0.57654 -1.83464,0 z"
         id="path11503" /><path
         style="fill:#e7a314;stroke-width:0.524184"
         d="m 777.4435,256.19486 c -0.87094,-0.20887 -2.21088,-0.79082 -2.97764,-1.29323 -2.33202,-1.528 -4.14445,-5.04607 -2.21896,-4.30719 0.63776,0.24473 0.74352,0.0722 0.47474,-0.77467 -0.33767,-1.0639 -0.31317,-1.06817 1.04042,-0.18126 0.8539,0.55949 1.27141,1.20751 1.08723,1.68747 -0.24265,0.63233 0.0817,0.72811 1.72136,0.50819 1.11119,-0.14904 2.35434,-0.0842 2.76254,0.14411 0.85233,0.47668 5.628,-0.6077 6.15589,-1.39779 0.19378,-0.29003 0.76513,-0.67963 1.26965,-0.86578 0.74561,-0.27509 0.91733,-0.0427 0.91733,1.24148 0,1.77082 -1.99933,4.14303 -3.51442,4.16986 -0.51764,0.009 -1.39903,0.363 -1.95866,0.78628 -1.08679,0.822 -2.22764,0.88972 -4.75948,0.28253 z"
         id="path11671" /><path
         style="fill:#e7a314;stroke-width:0.524184"
         d="m 757.27337,300.67785 c 0,-0.2539 0.72361,-0.83584 1.60801,-1.29318 1.54969,-0.80138 1.58832,-0.79474 1.06497,0.18315 -0.56167,1.04949 -2.67298,1.92627 -2.67298,1.11003 z"
         id="path11649" /><path
         style="fill:#e7a314;stroke-width:0.524184"
         d="m 760.33551,301.39266 c 0.48354,-0.9035 0.58818,-1.25963 0.62309,-2.1207 0.009,-0.21623 0.25637,0.0197 0.55023,0.52418 0.29386,0.50453 0.77238,0.91732 1.06337,0.91732 0.29099,0 0.36076,-0.27233 0.15505,-0.60517 -0.23173,-0.37495 -0.14379,-0.46289 0.23115,-0.23116 0.33285,0.20571 0.60518,0.0849 0.60518,-0.26847 0,-0.35336 0.14896,-0.49352 0.33101,-0.31147 0.18206,0.18207 0.79709,0.0816 1.36674,-0.22328 0.74622,-0.39937 1.20314,-0.38375 1.63468,0.0559 0.32942,0.3356 0.36307,0.55589 0.0748,0.48952 -0.2883,-0.0664 -0.99595,0.0561 -1.57255,0.27219 -1.81409,0.67977 -3.63484,1.45077 -4.61789,1.95545 -0.80453,0.41305 -0.87208,0.34405 -0.44483,-0.45429 z"
         id="path11647" /><path
         style="fill:#e7a314;stroke-width:0.524184"
         d="m 754.12826,302.26957 c 0,-0.27926 0.35383,-0.50774 0.78628,-0.50774 0.43245,0 0.78628,0.0927 0.78628,0.20601 0,0.11331 -0.35383,0.34178 -0.78628,0.50774 -0.43245,0.16594 -0.78628,0.0732 -0.78628,-0.20601 z"
         id="path11645" /><path
         style="fill:#e7a314;stroke-width:0.524184"
         d="m 757.27337,313.30748 c -0.43245,-0.28695 -1.32873,-0.52534 -1.99172,-0.52976 -3.14839,-0.021 -6.76213,-3.86759 -6.1025,-6.49578 0.2951,-1.17577 0.45534,-1.2521 1.45458,-0.69294 0.61761,0.34562 1.44072,1.05072 1.82911,1.5669 0.47025,0.62497 1.06346,0.8251 1.77563,0.59907 0.75823,-0.24065 0.95567,-0.15533 0.67846,0.29321 -0.2991,0.48395 -0.13721,0.49682 0.68882,0.0547 0.71183,-0.38096 1.19051,-0.39879 1.40465,-0.0523 0.17867,0.28907 1.48307,0.5256 2.89868,0.5256 2.9422,0 6.80355,-1.7365 7.19568,-3.236 0.13771,-0.52661 0.70856,-0.95748 1.26855,-0.95748 0.55999,0 0.87239,-0.23588 0.69421,-0.52418 -0.17819,-0.2883 -0.0742,-0.52419 0.23115,-0.52419 0.30532,3e-5 0.55512,-0.44651 0.55512,-0.99226 0,-0.88342 0.94052,-1.62864 2.05547,-1.62864 0.75355,0 1.50399,2.43511 1.22267,3.96742 -0.41614,2.26666 -1.93122,4.14591 -4.73172,5.86907 -3.89201,2.39478 -9.5575,3.79884 -11.12684,2.75753 z"
         id="path11643" /><path
         style="fill:#90a334;stroke-width:0.524184"
         d="m 784.43267,255.27549 c 0.37839,-0.15142 0.8305,-0.1328 1.00468,0.0414 0.17418,0.17419 -0.13541,0.29807 -0.68799,0.27531 -0.61065,-0.0252 -0.73485,-0.14936 -0.31669,-0.31669 z"
         id="path12001" /><path
         style="fill:#778c2b;stroke-width:0.524184"
         d="m 777.79932,269.7865 c 0,-0.72075 0.11898,-1.0156 0.26439,-0.65523 0.14542,0.36038 0.14542,0.95009 0,1.31046 -0.14541,0.36038 -0.26439,0.0655 -0.26439,-0.65523 z"
         id="path12273" /><path
         style="fill:#778c2b;stroke-width:0.524184"
         d="m 777.23376,281.53697 c 0.0252,-0.61065 0.14936,-0.73486 0.31669,-0.3167 0.15142,0.37839 0.1328,0.8305 -0.0414,1.00469 -0.17418,0.17418 -0.29807,-0.13542 -0.27531,-0.68799 z"
         id="path12271" /><path
         style="fill:#778c2b;stroke-width:0.524184"
         d="m 776.18539,322.94756 c 0.0252,-0.61065 0.14936,-0.73485 0.31669,-0.31669 0.15142,0.37839 0.1328,0.8305 -0.0414,1.00468 -0.17418,0.17419 -0.29807,-0.13541 -0.27531,-0.68799 z"
         id="path12211" /><path
         style="fill:#526028;stroke-width:0.524184"
         d="m 777.55319,279.615 c 0.54492,-12.57184 0.96935,-14.70532 2.33095,-11.71695 1.14466,2.51227 -0.84158,16.04147 -2.35508,16.04147 -0.0898,0 -0.079,-1.94604 0.0241,-4.32452 z"
         id="path12303" /><path
         style="fill:#526028;stroke-width:0.524184"
         d="m 773.89831,364.79493 c -0.36124,-0.67363 -2.3416,-7.53483 -3.44199,-11.92519 -0.57807,-2.30641 -1.64203,-6.43436 -2.36436,-9.17322 -0.72232,-2.73886 -1.80825,-7.57446 -2.41317,-10.74578 -0.60491,-3.17131 -1.32789,-6.44872 -1.60661,-7.28312 -0.55385,-1.65804 0.42166,-8.52623 1.10774,-7.79919 0.63998,0.67819 2.37971,6.85744 3.87738,13.77185 0.78059,3.60377 1.63295,6.77639 1.89414,7.05028 0.2612,0.27389 0.47686,0.39183 0.47926,0.26209 0.003,-0.12973 0.36486,-2.83059 0.80547,-6.00191 0.44062,-3.17131 0.94413,-7.59412 1.11892,-9.82845 0.32562,-4.16249 0.69695,-4.68304 2.43042,-3.4072 1.05427,0.77596 0.79021,3.5296 -1.69268,17.65065 -1.42987,8.13218 -1.4711,8.77023 -0.74533,11.53205 1.9742,7.51251 3.26298,14.94193 2.70799,15.61065 -0.61901,0.74586 -1.82495,0.90602 -2.15718,0.28649 z"
         id="path12293" /></g></g></svg>
