<?xml version="1.0" encoding="UTF-8" standalone="no"?>
<!-- Created with Inkscape (http://www.inkscape.org/) -->

<svg
   width="180.90298mm"
   height="288.22522mm"
   viewBox="0 0 180.90298 288.22522"
   version="1.1"
   id="svg5"
   xml:space="preserve"
   inkscape:version="1.2.1 (9c6d41e410, 2022-07-14)"
   sodipodi:docname="drawing.svg"
   xmlns:inkscape="http://www.inkscape.org/namespaces/inkscape"
   xmlns:sodipodi="http://sodipodi.sourceforge.net/DTD/sodipodi-0.dtd"
   xmlns="http://www.w3.org/2000/svg"
   xmlns:svg="http://www.w3.org/2000/svg"><sodipodi:namedview
     id="namedview7"
     pagecolor="#505050"
     bordercolor="#eeeeee"
     borderopacity="1"
     inkscape:showpageshadow="0"
     inkscape:pageopacity="0"
     inkscape:pagecheckerboard="0"
     inkscape:deskcolor="#505050"
     inkscape:document-units="mm"
     showgrid="false"
     inkscape:zoom="1.0255231"
     inkscape:cx="-2671.3197"
     inkscape:cy="1254.9693"
     inkscape:window-width="3840"
     inkscape:window-height="1526"
     inkscape:window-x="2869"
     inkscape:window-y="-11"
     inkscape:window-maximized="1"
     inkscape:current-layer="g2018"
     showguides="true" /><defs
     id="defs2" /><g
     inkscape:label="Layer 1"
     inkscape:groupmode="layer"
     id="layer1"
     style="display:inline"
     transform="translate(-478.6262,-373.00927)"><g
       id="g12794"
       transform="matrix(2.2040458,0,0,2.2040458,-592.24467,-439.16007)"><path
         style="fill:#f6f9fb;stroke-width:0.524184"
         d="m 506.27449,433.88867 c -0.14856,0.003 -0.37962,0.0645 -0.68729,0.14676 -0.67811,0.18123 -3.18545,0.72057 -5.57227,1.19838 -3.90787,0.7823 -4.48686,1.05671 -5.81618,2.75952 -3.18487,4.07964 -5.72377,9.74833 -5.09737,11.3807 0.2435,0.63456 0.81523,0.72244 2.79983,0.43098 3.94985,-0.58008 4.60083,-0.98509 5.2927,-3.29437 0.72958,-2.43512 2.75972,-5.04592 4.96869,-6.38927 0.83724,-0.50915 2.22804,-2.1609 3.09025,-3.67058 1.17364,-2.05496 1.46733,-2.57122 1.02164,-2.56212 z"
         id="path10773" /><path
         style="fill:#f6f9fb;stroke-width:0.524184"
         d="m 516.35036,432.57506 c -0.70016,-0.0441 -1.30728,0.37541 -1.01802,1.08675 0.78086,1.92023 0.79984,2.40957 0.0429,1.10433 -0.69202,-1.1933 -1.01542,-1.35507 -1.83348,-0.91726 -0.5463,0.29237 -1.74648,0.53123 -2.66702,0.53123 h -1.6738 l 0.25838,2.69286 c 0.17434,1.81417 0.0999,2.40867 -0.22841,1.82211 -0.26794,-0.47878 -0.49983,-1.81172 -0.51573,-2.96209 -0.0159,-1.15037 -0.2226,-2.21113 -0.4594,-2.35748 -0.76706,-0.47407 -4.21466,6.13263 -4.77284,9.14621 -0.58008,3.13184 -0.22164,8.2339 0.72451,10.31049 0.66157,1.45197 0.72707,1.46701 2.95486,0.69039 1.73604,-0.60518 1.88415,-0.9368 2.43344,-5.45134 0.17539,-1.44151 0.56786,-3.40934 0.87178,-4.37286 0.39612,-1.2559 0.38792,-1.91634 -0.0284,-2.33268 -0.31942,-0.31943 -0.58085,-0.7941 -0.58085,-1.05523 0,-0.26113 0.68442,0.25751 1.52084,1.1529 1.76304,1.88734 2.67303,2.02743 3.95738,0.60823 0.5122,-0.56597 1.77361,-1.09137 2.83342,-1.17977 1.63217,-0.13618 1.93378,-0.36342 2.07223,-1.56115 0.15431,-1.33502 -1.1299,-4.34459 -2.70475,-6.33914 -0.31346,-0.397 -0.7669,-0.59007 -1.18701,-0.6165 z"
         id="path10771" /><path
         style="fill:#f6f9fb;stroke-width:0.524184"
         d="m 504.0922,431.82316 c 0.33253,0 0.665,0.0333 0.91725,0.0992 0.50453,0.13184 0.0918,0.23978 -0.91725,0.23978 -1.00902,0 -1.42179,-0.10794 -0.91726,-0.23978 0.25227,-0.0659 0.58473,-0.0992 0.91726,-0.0992 z"
         id="path10767" /><path
         style="fill:#f6f9fb;stroke-width:0.524184"
         d="m 520.40541,430.32509 c -0.24052,-0.042 -0.4483,0.037 -0.6444,0.23307 -0.3922,0.39219 0.11405,1.20939 1.71617,2.77089 l 2.27222,2.21485 -2.46755,-1.93735 c -1.35711,-1.0653 -2.69904,-1.79353 -2.98225,-1.61851 -0.58576,0.36203 0.94538,3.06274 3.38894,5.97742 0.88469,1.05525 2.16098,2.86257 2.83652,4.01577 0.67553,1.15321 1.67102,2.59265 2.21175,3.19929 1.32624,1.4879 3.32004,1.06882 4.30465,-0.90486 1.63159,-3.27059 -1.92541,-9.20781 -7.03006,-11.73468 -1.00905,-0.49949 -2.25284,-1.27488 -2.76418,-1.72341 -0.32776,-0.2875 -0.60128,-0.45051 -0.84181,-0.49248 z"
         id="path10763" /><path
         style="fill:#f6f9fb;stroke-width:0.524184"
         d="m 525.16481,428.64199 c -2.01056,0.10649 -2.77831,0.65448 -0.60564,1.55443 1.92329,0.79665 1.73273,1.28182 -0.21291,0.54209 -2.39481,-0.91051 -1.5132,0.34714 1.36891,1.95285 1.51358,0.84326 4.08197,2.0571 5.70766,2.69699 1.66003,0.6534 4.18779,2.28561 5.76606,3.72329 3.06648,2.79333 3.84101,3.08052 4.55372,1.68982 1.53497,-2.99515 1.32421,-3.78443 -1.85001,-6.92981 -2.52412,-2.5012 -3.65299,-3.20122 -6.66523,-4.13412 -2.79875,-0.86679 -6.05199,-1.20203 -8.06256,-1.09554 z"
         id="path10761" /><path
         style="fill:#f6f9fb;stroke-width:0.524184"
         d="m 533.49454,420.05237 c -4.54789,-0.0401 -5.92656,0.12823 -7.04557,0.86144 -1.58796,1.04047 -4.33148,4.93307 -3.83025,5.4343 0.18324,0.18324 1.32107,-0.0549 2.52852,-0.52917 1.20746,-0.4743 2.28093,-0.77675 2.3859,-0.67179 0.35053,0.35053 -4.04885,1.89445 -5.39812,1.89445 -0.76849,0 -1.19123,0.22547 -1.00097,0.5333 0.45449,0.73538 8.07206,0.33382 9.64592,-0.50849 0.82221,-0.44 2.19353,-0.56397 3.95377,-0.35709 1.97073,0.23162 3.00037,0.10358 3.82922,-0.47697 1.01414,-0.71028 1.33983,-0.70774 3.0918,0.0243 2.3626,0.98715 3.32383,0.71161 3.32383,-0.95188 0,-1.35897 -0.78336,-2.17748 -3.83232,-4.00492 -1.73239,-1.03833 -2.74889,-1.20417 -7.65173,-1.24747 z"
         id="path10739" /><path
         style="fill:#f6f9fb;stroke-width:0.524184"
         d="m 521.6627,416.03412 c -1.53402,0 -6.80982,3.23961 -7.28276,4.47208 -0.18052,0.47044 -0.32814,1.42568 -0.32814,2.12286 0,1.83893 -0.63361,1.56956 -2.48409,-1.05575 -2.32498,-3.29845 -3.46917,-3.88015 -7.99951,-4.06693 -3.91133,-0.16127 -3.9321,-0.15501 -4.09226,1.22886 -0.13683,1.18218 0.11551,1.48218 1.68104,1.99885 2.27879,0.75207 8.17728,4.2132 8.17728,4.79816 0,0.23633 -0.77337,-0.0938 -1.71876,-0.73381 -1.63709,-1.10824 -5.72988,-3.22348 -7.97884,-4.12378 -1.15674,-0.46304 -3.80194,-0.68664 -6.41305,-0.54157 -1.03021,0.0572 -2.35957,0.68842 -3.38894,1.60817 -1.46306,1.30724 -1.59859,1.62846 -0.9927,2.35851 0.46632,0.56187 1.54168,0.84543 3.20755,0.84543 2.88414,0 12.05162,1.74594 13.45551,2.56264 0.52045,0.30277 1.26986,0.55737 1.66553,0.56637 1.30752,0.029 -0.28011,-1.29905 -2.93057,-2.45153 -5.40335,-2.3495 -5.33059,-2.30923 -3.55482,-1.98489 0.86491,0.15797 2.93466,0.97466 4.5992,1.81436 3.20309,1.61585 4.03976,1.57935 7.70651,-0.33435 0.72758,-0.37973 2.18741,-0.6915 3.24373,-0.6935 1.81653,-0.003 2.02321,-0.18658 3.8132,-3.38739 1.04089,-1.86128 2.12271,-3.52671 2.40399,-3.70055 0.95152,-0.58807 0.51857,-1.30224 -0.7891,-1.30224 z"
         id="path10717" /><path
         style="fill:#f6f9fb;stroke-width:0.524184"
         d="m 534.82779,411.84057 c -2.65252,0 -8.78019,2.82448 -11.04842,5.09272 -1.42932,1.42932 -5.01003,7.14798 -5.01003,8.00158 0,0.25171 0.41273,0.56527 0.91726,0.69711 0.50452,0.13185 1.07439,0.26736 1.26607,0.30076 0.19167,0.0335 1.18727,-1.08156 2.21227,-2.47789 2.23587,-3.04586 4.71017,-4.77587 9.10228,-6.36395 1.80189,-0.65151 3.27629,-1.48078 3.27629,-1.84278 0,-0.362 0.35355,-0.95213 0.786,-1.31103 1.51874,-1.26044 0.92001,-2.09652 -1.50172,-2.09652 z"
         id="path10691" /><path
         style="fill:#f6f9fb;stroke-width:0.524184"
         d="m 529.18992,398.47405 1.06867,1.31051 c 0.58755,0.72075 1.07352,1.48703 1.07952,1.70326 0.0254,0.8581 -0.52678,0.30834 -1.31672,-1.31052 z"
         id="path10653" /><path
         style="fill:#f6f9fb;stroke-width:0.524184"
         d="m 531.50451,397.35835 c 0.12507,-0.12507 0.61894,0.36941 1.09709,1.09916 0.47819,0.72975 0.68449,1.32705 0.45889,1.32705 -0.51036,0 -1.86693,-2.11527 -1.55598,-2.42621 z"
         id="path10649" /><path
         style="fill:#f6f9fb;stroke-width:0.524184"
         d="m 537.06489,397.25555 c -0.11549,-0.0234 -0.19482,-0.0212 -0.22686,0.0109 -0.12813,0.12813 0.51411,1.27785 1.42679,2.55488 l 1.65933,2.32183 -2.00711,-1.83452 c -1.31944,-1.20613 -1.88954,-1.50376 -1.66398,-0.86868 0.18871,0.53131 0.48744,1.54016 0.66352,2.24172 0.17609,0.70157 0.70582,1.48365 1.17719,1.73788 0.47136,0.25423 2.48147,1.6631 4.46691,3.13108 3.6821,2.72244 5.03897,3.24348 5.03897,1.93425 0,-0.40425 0.70761,-0.98162 1.57251,-1.28313 1.17733,-0.41041 1.57252,-0.87499 1.57252,-1.84846 0,-1.84999 -0.92952,-2.57197 -5.86114,-4.55115 -2.39827,-0.96248 -5.13716,-2.20386 -6.08645,-2.759 -0.71196,-0.41636 -1.38571,-0.71732 -1.7322,-0.78755 z"
         id="path10645" /><path
         style="fill:#f6f9fb;stroke-width:0.524184"
         d="m 519.33368,396.97232 c -0.82055,0.0682 -2.27396,0.30459 -4.80385,0.74673 -3.01973,0.52775 -13.84995,5.87696 -16.02796,7.91631 -1.20884,1.13187 -1.98264,3.30506 -1.47123,4.13256 0.16999,0.27504 1.08248,0.50023 2.02727,0.50023 1.27591,0 2.55577,-0.67242 4.97541,-2.61431 1.7917,-1.43794 4.32414,-3.23973 5.62808,-4.00389 1.30395,-0.76417 3.90524,-2.41824 5.78052,-3.67574 1.87529,-1.25752 3.7449,-2.28669 4.15479,-2.28669 0.40989,0 0.74517,-0.20281 0.74517,-0.45113 0,-0.23186 -0.18766,-0.33227 -1.0082,-0.26407 z"
         id="path10639" /><path
         style="fill:#f6f9fb;stroke-width:0.524184"
         d="m 533.14989,395.67057 -3.38998,1.53583 c -2.38619,1.08106 -3.88104,1.45284 -5.0493,1.25522 -1.35898,-0.22987 -2.5257,0.24446 -6.43992,2.61792 -6.01902,3.64978 -6.89346,3.76098 -1.35599,0.1726 2.29534,-1.48741 3.90371,-2.79429 3.57394,-2.90421 -0.64491,-0.21497 -3.5789,1.1347 -4.8643,2.23759 -0.43245,0.37105 -2.79098,1.89887 -5.24154,3.39514 -2.45056,1.49626 -5.45803,3.53851 -6.68331,4.53874 -1.92019,1.56751 -2.22777,2.09764 -2.22777,3.83698 0,1.1239 0.28981,2.13477 0.65474,2.28203 1.87125,0.75507 3.16743,0.21748 5.79344,-2.40451 3.00466,-3.00003 15.9811,-12.97898 16.85892,-12.96458 0.2988,0.005 1.72861,1.70893 3.17758,3.78736 1.44899,2.07843 3.24494,4.12207 3.99098,4.54081 1.20453,0.67609 1.5672,0.66104 3.24011,-0.13281 1.03611,-0.49168 2.01811,-1.11153 2.18229,-1.37717 0.3979,-0.64382 -1.40588,-5.69759 -2.96932,-8.31939 z"
         id="path10629" /><path
         style="fill:#f6f9fb;stroke-width:0.524184"
         d="m 511.4308,395.16776 c 1.00905,-0.0128 2.89619,0.16552 4.19354,0.39636 v -5.2e-4 l 2.35903,0.42013 -2.62103,0.004 c -1.44151,0.002 -3.32864,-0.17628 -4.19354,-0.39636 l -1.57252,-0.39997 z"
         id="path10627" /><path
         style="fill:#f6f9fb;stroke-width:0.524184"
         d="m 537.30829,393.65106 c 0.24953,-0.24954 8.19485,2.94903 8.19485,3.29902 0,0.38141 -0.72727,0.14914 -4.60541,-1.47226 -2.10047,-0.87819 -3.71585,-1.70035 -3.58944,-1.82676 z"
         id="path10617" /><path
         style="fill:#f6f9fb;stroke-width:0.524184"
         d="m 511.59616,388.29069 c 0.62486,-0.0559 8.22172,3.50947 8.22172,3.85868 0,0.16291 -0.0701,0.29662 -0.15554,0.29662 -0.42981,0 -8.43237,-4.1225 -8.06618,-4.1553 z"
         id="path10593" /><path
         style="fill:#f6f9fb;stroke-width:0.524184"
         d="m 543.14411,388.26849 c 0.28831,0 0.17045,0.22851 -0.262,0.50798 -0.43245,0.27948 -1.02222,0.50798 -1.31052,0.50798 -0.2883,0 -0.17045,-0.2285 0.262,-0.50798 0.43246,-0.27947 1.02222,-0.50798 1.31052,-0.50798 z"
         id="path10591" /><path
         style="fill:#f6f9fb;stroke-width:0.524184"
         d="m 495.48759,383.09206 c -3.67802,0.18573 -4.10327,0.33012 -5.67924,1.92443 l -1.70378,1.72289 1.125,0.9276 c 0.71861,0.59237 3.55874,1.33225 7.8636,2.04845 3.70624,0.61661 8.15371,1.56564 9.88312,2.10943 l 3.14399,0.98909 -1.83451,0.30592 c -1.00905,0.16838 -5.28198,0.53239 -9.49554,0.80874 -8.34317,0.5472 -12.10948,1.63964 -12.76408,3.7021 -0.47502,1.49663 0.13188,2.2956 1.48518,1.95595 0.61962,-0.15552 1.47835,-0.0605 1.90841,0.21136 1.03184,0.65235 1.16285,0.64407 4.82503,-0.30489 1.73051,-0.44842 4.00553,-0.74423 5.0555,-0.65733 3.1461,0.26029 21.20774,-2.55213 20.78478,-3.23649 -0.13414,-0.21704 -1.25138,-0.55057 -2.48305,-0.74104 -2.46616,-0.38136 -5.81457,-1.37103 -5.54643,-1.63918 0.0938,-0.0938 1.58347,0.16214 3.31091,0.56844 4.08463,0.96074 4.25636,0.95003 5.54694,-0.34054 l 1.09554,-1.09554 -1.22679,-1.3162 c -1.51234,-1.62315 -6.90124,-4.36627 -11.44788,-5.82704 -5.25139,-1.6872 -9.49552,-2.33587 -13.8467,-2.11615 z"
         id="path10573" /><path
         style="fill:#f6f9fb;stroke-width:0.524184"
         d="m 556.5221,377.97303 c -2.88103,0.0485 -8.09583,1.45093 -11.44323,3.16674 -2.93874,1.50634 -8.14588,6.58822 -6.75049,6.58822 0.50089,0 2.49707,-0.79829 4.43591,-1.77405 3.83277,-1.92892 10.04207,-4.0086 11.83597,-3.9641 0.61831,0.0153 -0.88051,0.61652 -3.33107,1.33584 -4.0265,1.1819 -9.70738,3.70096 -11.40137,5.0555 -0.95702,0.76525 -0.80039,1.45203 0.262,1.14877 0.50452,-0.14402 0.37687,0.0219 -0.2837,0.36845 -0.66058,0.34659 -1.09521,0.90619 -0.96583,1.24334 0.35358,0.92144 -0.28162,1.61464 -1.99368,2.17558 -0.84689,0.27747 -1.61324,0.72551 -1.70274,0.9958 -0.23321,0.704 4.0826,3.31485 9.26817,5.6069 2.45187,1.08372 5.16574,2.31712 6.03064,2.7404 3.32336,1.62644 4.99201,0.74175 4.593,-2.43448 -0.4437,-3.53199 -3.81834,-5.44044 -12.28142,-6.94686 l -3.84369,-0.6842 1.92339,-0.85008 c 4.27962,-1.89137 11.50741,-3.13365 18.5198,-3.18275 6.76819,-0.0474 6.81457,-0.056 6.81457,-1.26607 0,-0.67009 0.43339,-1.5367 0.96325,-1.92598 1.32934,-0.97664 0.90133,-2.46528 -0.96996,-3.37447 -1.7612,-0.85569 -4.116,-0.99511 -7.59386,-0.44959 -1.50753,0.23647 -1.98053,0.20262 -1.31051,-0.0941 0.5766,-0.25531 1.69695,-0.48096 2.48977,-0.50126 2.80126,-0.0716 1.08397,-2.36012 -2.1854,-2.91248 -0.30406,-0.0514 -0.66794,-0.072 -1.07952,-0.0651 z"
         id="path10557" /><path
         style="fill:#f6f9fb;stroke-width:0.524184"
         d="m 540.27503,368.50985 c -1.27625,0.0962 -1.8131,0.58879 -3.49591,2.34507 -2.89457,3.02095 -5.20174,7.62456 -6.1836,12.33878 -0.4113,1.97479 -0.88146,3.72417 -1.0449,3.88762 -0.55801,0.55799 -0.29814,-1.24803 0.81184,-5.63738 1.06649,-4.21743 1.0726,-4.41325 0.16175,-5.07928 -1.43588,-1.04993 -3.11766,-0.83565 -4.84467,0.61754 -0.90804,0.76406 -2.21683,1.31051 -3.13883,1.31051 -2.2205,0 -4.29534,2.53485 -4.29534,5.24774 0,2.61941 0.77816,4.62111 2.49804,6.4239 1.77904,1.86479 2.50403,1.56695 2.39262,-0.98289 -0.0841,-1.92469 -0.06,-1.95932 0.43201,-0.61184 0.50446,1.38153 0.56344,1.40048 1.81436,0.58084 1.45151,-0.95107 3.19604,-1.34998 6.11436,-1.39888 1.44897,-0.0243 1.9079,-0.22526 1.70739,-0.74776 -0.31801,-0.82873 1.11159,-3.84742 1.73271,-3.65869 0.23028,0.07 1.05246,-0.58049 1.82728,-1.44539 1.13351,-1.26529 0.99663,-0.85531 -0.70177,2.09703 -2.08479,3.62402 -2.09624,3.67107 -0.89917,3.82457 0.8952,0.11479 2.08331,-0.70723 4.54443,-3.14503 2.65253,-2.62743 3.58095,-3.99525 4.55269,-6.7076 1.23826,-3.45628 1.49885,-6.23164 0.76274,-8.1163 -0.32515,-0.83248 -0.95385,-1.05935 -3.15588,-1.13895 -0.65956,-0.0238 -1.16673,-0.0357 -1.59215,-0.004 z"
         id="path10525" /><path
         style="fill:#f3cb46;stroke-width:0.524184"
         d="m 534.4554,394.41134 c 0.69894,-0.79283 1.64247,-1.42288 2.09674,-1.40012 0.70726,0.0354 0.71297,0.0827 0.0397,0.32881 -0.43245,0.15808 -1.37599,0.78814 -2.09674,1.40012 l -1.31046,1.1127 1.27078,-1.44151 z"
         id="path11501" /><path
         style="fill:#f3cb46;stroke-width:0.524184"
         d="m 531.22859,396.02664 c 0.30461,-0.3046 0.86324,-0.45069 1.24141,-0.32463 0.39259,0.13086 0.15497,0.36847 -0.55383,0.55383 -0.8719,0.228 -1.07656,0.15978 -0.68758,-0.2292 z"
         id="path11499" /><path
         style="fill:#f3cb46;stroke-width:0.524184"
         d="m 525.58394,394.37997 c -2.44884,-1.27097 -3.1451,-1.41351 -3.1451,-0.64387 0,0.6985 1.10634,1.10628 3.4072,1.25586 0.88441,0.0575 0.84342,-0.0382 -0.2621,-0.61199 z"
         id="path11497" /><path
         style="fill:#f3cb46;stroke-width:0.524184"
         d="m 520.44694,396.0101 c -0.71321,-0.71321 -0.84506,-1.9919 -0.20539,-1.9919 0.233,0 1.11756,-0.92587 1.96569,-2.0575 2.99078,-3.99045 5.17546,-4.66213 13.71357,-4.21619 l 3.26039,0.17028 -1.94993,1.31072 c -1.07245,0.7209 -2.36514,1.77923 -2.87262,2.35185 -1.0942,1.23461 -5.10542,3.1322 -5.10542,2.41522 0,-0.27421 -0.35382,-0.49856 -0.78627,-0.49856 -0.43246,0 -0.78628,0.34933 -0.78628,0.77629 0,0.95078 -1.57234,1.32769 -4.81832,1.155 -1.95086,-0.10378 -2.34409,0.008 -1.9015,0.54149 0.70494,0.8494 0.32425,0.88147 -0.51392,0.0433 z"
         id="path11495" /><path
         style="fill:#f3cb46;stroke-width:0.524184"
         d="m 529.11345,397.09826 c 0.35557,-0.35823 0.77854,-0.51929 0.93993,-0.3579 0.16139,0.16139 -0.12953,0.4545 -0.64649,0.65134 -0.74707,0.28447 -0.80728,0.22426 -0.29344,-0.29344 z"
         id="path11493" /><path
         style="fill:#f3cb46;stroke-width:0.524184"
         d="m 523.22883,397.6935 c -0.18365,-0.29714 0.0268,-0.38502 0.49324,-0.20601 0.90811,0.34847 1.07426,0.72419 0.32026,0.72419 -0.27129,0 -0.63737,-0.23319 -0.8135,-0.51818 z"
         id="path11491" /><path
         style="fill:#f3cb46;stroke-width:0.524184"
         d="m 506.23051,430.33918 c -0.0403,-1.12844 2.30131,-3.80376 3.36046,-3.83934 0.29124,-0.01 1.47307,-0.47354 2.62628,-1.03058 1.1532,-0.55704 2.82711,-1.0208 3.7198,-1.03059 1.49682,-0.0164 4.92924,1.29703 4.92924,1.88619 0,0.14005 -0.21117,0.12413 -0.46926,-0.0354 -0.25809,-0.15951 -0.60299,0.0585 -0.76644,0.48441 -0.16881,0.43994 -0.64535,0.64082 -1.10329,0.4651 -0.49728,-0.19083 -0.80612,-0.0177 -0.80612,0.45177 0,0.41862 -0.47177,1.18806 -1.04837,1.70988 -0.5766,0.52182 -1.04837,0.77742 -1.04837,0.56799 0,-0.20943 -0.33111,-0.0496 -0.7358,0.35503 -0.4047,0.40469 -1.71401,0.77414 -2.90958,0.82099 -1.68652,0.0661 -2.46569,-0.20676 -3.47616,-1.21722 -0.8518,-0.8518 -1.37231,-1.07755 -1.50446,-0.6525 -0.62867,2.02196 -0.72876,2.16067 -0.76793,1.06425 z"
         id="path11415" /><path
         style="fill:#f3cb46;stroke-width:0.524184"
         d="m 517.24068,432.15261 c 0.12012,-0.0721 0.92606,-0.72076 1.79096,-1.44151 l 1.57255,-1.31046 -1.27078,1.44151 c -0.69894,0.79282 -1.50487,1.4415 -1.79097,1.4415 -0.28609,0 -0.42189,-0.059 -0.30176,-0.13104 z"
         id="path11413" /><path
         style="fill:#f3cb46;stroke-width:0.524184"
         d="m 514.28312,433.09885 c 0.55963,-0.44836 1.24763,-0.8152 1.52888,-0.8152 0.66599,0 0.36862,0.24212 -1.23593,1.00628 -1.23564,0.58848 -1.25237,0.57757 -0.29295,-0.19108 z"
         id="path11411" /><path
         style="fill:#f3cb46;stroke-width:0.524184"
         d="m 508.219,433.46307 c -0.62766,-0.80033 -0.61828,-0.83874 0.0735,-0.30115 0.43611,0.33889 1.73346,0.71203 2.88301,0.8292 l 2.09009,0.21303 -2.1636,0.0881 c -1.51439,0.0617 -2.37946,-0.18713 -2.88301,-0.8292 z"
         id="path11409" /><path
         style="fill:#e7a314;stroke-width:0.524184"
         d="m 524.53557,394.50711 c 0,-0.32096 -0.44696,-0.41764 -1.04836,-0.22676 -0.73777,0.23415 -1.04837,0.0942 -1.04837,-0.47241 0,-0.84695 0.63275,-0.73185 3.1451,0.57208 1.28478,0.66681 1.28735,0.68021 0.13105,0.68337 -0.64868,0.002 -1.17942,-0.24854 -1.17942,-0.55628 z"
         id="path11637" /><path
         style="fill:#e7a314;stroke-width:0.524184"
         d="m 524.53557,398.27532 c 0,-0.25332 -0.69982,-0.75047 -1.55517,-1.10476 -2.79899,-1.15938 -2.84844,-1.89045 -0.11804,-1.7452 3.24598,0.17269 4.81832,-0.20422 4.81832,-1.155 0,-0.42696 0.35382,-0.77629 0.78628,-0.77629 0.43245,0 0.78627,0.22435 0.78627,0.49856 0,0.7102 4.00286,-1.17361 5.10542,-2.40271 1.0901,-1.21521 4.32146,-3.53428 4.54778,-3.26383 0.0866,0.10353 0.0459,1.08411 -0.0905,2.17908 -0.20934,1.68064 -0.47791,2.03684 -1.72354,2.28596 -0.81155,0.16232 -2.00495,0.85864 -2.652,1.5474 -0.64705,0.68875 -1.4362,1.25228 -1.75367,1.25228 -0.31746,0 -1.98649,0.70024 -3.70895,1.5561 -3.24677,1.61325 -4.44223,1.91692 -4.44223,1.12841 z"
         id="path11633" /><path
         style="fill:#e7a314;stroke-width:0.524184"
         d="m 507.6566,432.76643 c -0.77854,-0.58111 -1.30928,-1.39923 -1.17941,-1.81804 0.12986,-0.41881 0.34574,-1.1129 0.47971,-1.54242 0.19291,-0.61842 0.51464,-0.5099 1.546,0.52145 1.01047,1.01047 1.78964,1.28331 3.47616,1.21722 1.19557,-0.0469 2.50488,-0.41629 2.90958,-0.82098 0.40469,-0.4047 0.7358,-0.56446 0.7358,-0.35503 0,0.20942 0.47177,-0.0462 1.04837,-0.56799 0.5766,-0.52182 1.04837,-1.29127 1.04837,-1.70988 0,-0.46952 0.30884,-0.6426 0.80612,-0.45178 0.45794,0.17573 0.93448,-0.0252 1.10329,-0.46509 0.4227,-1.10153 1.2357,-0.42333 1.2357,1.03083 0,1.40232 -3.18431,4.47893 -4.63572,4.47893 -0.51146,0 -1.38782,0.34633 -1.94745,0.76961 -1.48074,1.11998 -4.94249,0.97013 -6.62652,-0.28683 z"
         id="path11597" /><path
         style="fill:#778c2b;stroke-width:0.524184"
         d="m 533.07244,439.36034 c 0.004,-1.44151 0.10574,-1.969 0.22623,-1.17221 0.12049,0.79679 0.11726,1.97621 -0.007,2.62092 -0.12442,0.64472 -0.223,-0.007 -0.21907,-1.44871 z"
         id="path12105" /><path
         style="fill:#778c2b;stroke-width:0.524184"
         d="m 535.06064,445.60687 c 0.0252,-0.61065 0.14936,-0.73485 0.31669,-0.3167 0.15143,0.3784 0.13281,0.83051 -0.0414,1.00469 -0.17418,0.17418 -0.29808,-0.13542 -0.27532,-0.68799 z"
         id="path12091" /><path
         style="fill:#778c2b;stroke-width:0.524184"
         d="m 526.8446,472.51479 -0.99856,-1.17941 1.17941,0.99856 c 1.10836,0.93841 1.41804,1.36027 0.99857,1.36027 -0.0995,0 -0.63021,-0.53074 -1.17942,-1.17942 z"
         id="path12011" /><path
         style="fill:#778c2b;stroke-width:0.524184"
         d="m 530.42321,473.69421 c 0,-1.00906 0.10788,-1.42185 0.23973,-0.91733 0.13184,0.50453 0.13184,1.33012 0,1.83465 -0.13185,0.50453 -0.23973,0.0917 -0.23973,-0.91732 z"
         id="path12007" /><path
         style="fill:#526028;stroke-width:0.524184"
         d="m 531.73368,410.13687 c -0.30675,-2.01419 -0.26808,-2.08957 0.85172,-1.65986 0.52431,0.2012 0.86131,0.92386 0.86131,1.84699 0,2.1254 -1.38385,1.97423 -1.71303,-0.18713 z"
         id="path12291" /><path
         style="fill:#526028;stroke-width:0.524184"
         d="m 531.96874,418.52917 c 0.24857,-1.74225 2.00215,-1.89538 2.00215,-0.17483 0,1.01455 -0.26889,1.34889 -1.08482,1.34889 -0.82394,0 -1.04455,-0.28235 -0.91733,-1.17406 z"
         id="path12287" /><path
         style="fill:#526028;stroke-width:0.524184"
         d="m 532.74685,428.5234 c -0.35537,-1.35893 -0.0352,-2.00577 0.99289,-2.00577 0.4898,0 0.75534,0.55281 0.75534,1.57255 0,1.85109 -1.29362,2.17165 -1.74823,0.43322 z"
         id="path12285" /><path
         style="fill:#526028;stroke-width:0.524184"
         d="m 525.67462,498.70221 c -0.44411,-0.53511 -0.20932,-3.17586 0.94531,-10.63219 2.15936,-13.9446 2.15948,-13.87468 -0.0291,-16.2984 -1.75052,-1.9386 -2.82563,-4.28038 -4.10006,-8.93061 -0.33223,-1.21229 -1.22947,-2.94743 -1.99388,-3.85587 -1.49437,-1.77596 -5.38805,-12.42115 -5.3934,-14.74536 -0.004,-1.6559 0.80937,-2.39089 1.18758,-1.07341 2.79944,9.75167 3.55303,11.7544 5.26822,14.00071 1.0332,1.35315 2.26631,3.79411 2.74023,5.42435 0.95412,3.28207 1.98833,5.4908 3.44809,7.36401 1.13929,1.46197 1.01938,1.74148 2.50004,-5.8276 0.60627,-3.09923 1.59364,-8.05278 2.19416,-11.00786 0.81412,-4.00619 1.04746,-6.80655 0.91733,-11.00898 -0.096,-3.09985 -0.0448,-5.63559 0.11377,-5.63498 2.03248,0.008 2.19149,10.1575 0.28334,18.08546 -1.90031,7.89538 -2.84718,13.51049 -3.40311,20.18109 -0.27631,3.31547 -0.98321,9.21254 -1.57089,13.10461 -0.58769,3.89207 -1.13492,8.00179 -1.21609,9.13271 -0.15721,2.19037 -0.92381,2.88838 -1.89155,1.72232 z"
         id="path10116" /></g></g></svg>
