<?xml version="1.0" encoding="UTF-8" standalone="no"?>
<!-- Created with Inkscape (http://www.inkscape.org/) -->

<svg
   width="144.98975mm"
   height="264.33813mm"
   viewBox="0 0 144.98975 264.33813"
   version="1.1"
   id="svg5"
   xml:space="preserve"
   inkscape:version="1.2 (dc2aedaf03, 2022-05-15)"
   sodipodi:docname="drawing.svg"
   xmlns:inkscape="http://www.inkscape.org/namespaces/inkscape"
   xmlns:sodipodi="http://sodipodi.sourceforge.net/DTD/sodipodi-0.dtd"
   xmlns="http://www.w3.org/2000/svg"
   xmlns:svg="http://www.w3.org/2000/svg"><sodipodi:namedview
     id="namedview7"
     pagecolor="#505050"
     bordercolor="#eeeeee"
     borderopacity="1"
     inkscape:showpageshadow="0"
     inkscape:pageopacity="0"
     inkscape:pagecheckerboard="0"
     inkscape:deskcolor="#505050"
     inkscape:document-units="mm"
     showgrid="false"
     inkscape:zoom="0.36257717"
     inkscape:cx="-1249.3892"
     inkscape:cy="-20.685252"
     inkscape:window-width="1920"
     inkscape:window-height="1001"
     inkscape:window-x="-9"
     inkscape:window-y="-9"
     inkscape:window-maximized="1"
     inkscape:current-layer="layer12"
     showguides="true" /><defs
     id="defs2" /><g
     inkscape:groupmode="layer"
     id="layer3"
     inkscape:label="Daisy1"
     style="display:inline"
     transform="translate(1369.4374,-111.34047)"><g
       inkscape:groupmode="layer"
       id="layer19"
       inkscape:label="caule 1"><path
         d="m -1298.0218,375.28153 c -14.4945,2.08119 -5.2533,-3.72335 0.5149,-24.44955 6.9846,-25.08517 13.3918,-40.97477 14.9369,-58.66233 0.088,-1.02536 0.2118,-2.10109 0.3607,-3.21887 -0.4472,-1.69491 -0.9891,-3.73978 -1.633,-5.79989 -3.3628,-2.78111 -6.1029,-4.08974 -6.5664,-4.18221 -9.6473,-1.91146 -15.411,-2.96138 -18.9038,-15.60169 11.6923,-3.15805 13.537,8.02969 19.8565,12.19198 1.3951,0.92122 2.6886,1.83887 3.8884,2.74488 -0.082,-0.18488 -0.1593,-0.37108 -0.2423,-0.55136 -2.9357,-6.6028 -6.7621,-10.41982 -7.324,-10.74405 -8.5035,-4.92435 -13.6233,-7.78271 -12.8404,-20.87132 12.0832,0.78891 10.2139,11.97543 14.8492,17.95089 5.9074,7.62352 8.5868,14.04025 9.8169,19.03129 5.9392,-35.27675 3.5491,-40.30408 -6.5465,-71.66669 -6.7938,-21.10777 -7.7254,-25.75936 -5.9123,-22.32858 3.3945,6.42255 16.2091,34.92677 18.5888,49.221 1.0044,6.03044 2.1947,13.19515 2.0554,21.34888 1.7358,-4.16113 4.5533,-9.02929 9.1674,-14.48386 4.8881,-5.77409 3.4975,-17.02735 15.6017,-17.30126 0.2223,13.1085 -5.011,15.74565 -13.7207,20.30479 -0.5771,0.29839 -4.5638,3.95047 -7.7781,10.41986 -0.7,1.40578 -1.3448,2.99181 -1.937,4.58955 1.6797,-0.89192 3.5138,-1.77217 5.5223,-2.62194 6.9634,-2.95201 10.8003,-13.62939 21.7306,-8.41123 -5.7167,11.79986 -11.5741,11.79518 -21.4064,11.93448 -0.474,0.0109 -3.3686,0.78774 -7.1435,2.88879 -0.1499,0.45419 -0.289,0.89661 -0.4285,1.32974 -2.5903,36.58067 -16.874,85.29603 -24.5068,106.9387 v 0"
         style="display:inline;fill:#b4ba3d;fill-opacity:1;fill-rule:evenodd;stroke:none;stroke-width:0.0117051"
         id="path35117" /></g><g
       inkscape:groupmode="layer"
       id="layer5"
       inkscape:label="petalas"
       style="display:inline"><path
         style="display:inline;fill:#fff3cf;fill-opacity:1;stroke:none;stroke-width:0.406148"
         d="m -1305.0276,163.78382 c -4.6095,-7.44225 -11.9037,-20.19358 -18.0503,-29.81249 -4.592,-7.18625 -8.9278,-12.33056 -4.6526,-14.59251 0.5284,-0.18818 3.4828,0.35788 5.5502,-0.44432 2.2557,-0.87529 3.6324,-3.08483 4.0907,-2.79596 10.2185,3.63695 14.171,20.63548 15.7787,30.96719 1.0937,5.09096 1.6338,10.32806 3.1327,15.33689"
         id="path1987"
         sodipodi:nodetypes="cscsccc" /><path
         style="display:inline;fill:#fff3cf;fill-opacity:1;stroke:none;stroke-width:0.478822"
         d="m -1310.7447,170.91063 c -12.2315,-7.09441 -25.9148,-12.04267 -36.6946,-21.28321 -6.4878,-5.56158 -9.1022,-8.65806 -9.5278,-11.16464 -0.3689,-2.17182 2.3272,-2.16979 4.1485,-4.67567 0.4215,-0.57982 2.2962,-5.56798 3.008,-5.7473 10.7173,0.83555 23.3161,15.09185 31.0276,22.66027 3.5247,3.38394 6.9776,6.83462 10.5249,10.19589 2.1857,2.07101 5.399,6.64693 8.5917,6.54529"
         id="path1989"
         sodipodi:nodetypes="csssccsc" /><path
         style="display:inline;fill:#fff3cf;fill-opacity:1;stroke:none;stroke-width:0.467088"
         d="m -1316.7663,179.76724 c -20.3903,-3.44968 -35.3955,3.14204 -50.9174,-0.37579 -2.7183,-0.61608 -1.1644,-4.20446 -1.0134,-8.04152 0.1193,-3.0279 -1.6422,-6.23703 -0.1124,-8.08058 1.2346,-1.48759 6.997,-0.91991 8.8411,-1.12254 6.162,-0.67706 11.8157,-0.19212 17.824,0.40565 2.4241,0.24118 7.6181,0.71399 9.6239,1.22177 3.8632,0.97803 9.356,3.02252 13.4703,4.43884 2.401,0.82649 5.0398,2.20924 7.6614,2.59032"
         id="path1991"
         sodipodi:nodetypes="cssssccsc" /><path
         style="display:inline;fill:#fff3cf;fill-opacity:1;stroke:none;stroke-width:0.490793"
         d="m -1300.3287,166.44348 c -0.4715,-11.85481 -3.5019,-24.00146 -1.4148,-35.56448 1.3452,-4.11851 2.6249,-15.006 6.4799,-18.76554 1.3963,-1.36166 3.0066,-0.73732 5.204,0.43131 0.6661,1.61312 7.2667,1.88067 7.7867,2.1892 4.8204,5.65651 -0.4387,18.07919 -2.6794,23.2156 -4.419,9.90789 -9.9171,20.87984 -8.7483,31.55745"
         id="path1993"
         sodipodi:nodetypes="ccscccc" /><path
         style="display:inline;fill:#fff3cf;fill-opacity:1;stroke:none;stroke-width:0.428672"
         d="m -1281.0027,164.84575 c 0.2665,-0.73734 0.3909,-1.55432 0.7994,-2.21201 0.4168,-0.67107 1.0778,-1.15245 1.6364,-1.71049 3.8703,-3.86692 4.7079,-4.79847 8.5013,-7.96584 6.6292,-5.53502 14.2835,-11.27791 23.1198,-13.6488 1.5182,-0.40739 3.1817,-0.41621 4.7982,-0.52061 1.7953,-0.11589 3.6921,-0.18711 5.4064,0.2767 1.5297,0.41395 0.9359,3.23228 1.9728,4.84696 0.9881,1.53894 5.0794,8.02805 3.4608,8.87491 -13.285,6.95094 -26.9063,7.71046 -32.6752,11.72033 -3.4614,2.40591 -7.7561,4.70324 -11.6832,6.19054 -1.6321,0.61821 -3.4019,1.06674 -4.7842,2.0573 -1.7514,1.25499 0.9903,1.3185 1.2466,1.34905"
         id="path1995"
         sodipodi:nodetypes="cscsssssssssc" /><path
         style="display:inline;fill:#fff3cf;fill-opacity:1;stroke:none;stroke-width:0.424334"
         d="m -1294.2345,168.66206 c 4.0982,-10.57304 6.2903,-22.11661 12.2945,-31.71905 8.0002,-12.42243 11.2797,-17.28774 14.9876,-17.93537 2.1054,-0.36774 2.1235,1.92266 5.4481,3.66334 1.3615,0.71278 5.1297,0.25285 6.9184,1.17469 6.2697,7.74564 -23.2333,29.88591 -29.5986,43.17946"
         id="path1997"
         sodipodi:nodetypes="ccsscc" /><path
         style="display:inline;fill:#fff3cf;fill-opacity:1;stroke:none;stroke-width:0.467088"
         d="m -1272.2131,169.75184 c 18.5569,-1.66883 28.641,-9.16405 46.3976,-5.5629 3.0164,0.61174 0.2068,4.65265 -0.5093,8.78592 -0.444,2.56367 1.9715,5.2009 0.8663,6.96233 -1.0276,1.63761 -3.5745,1.06983 -5.3757,1.51419 -16.0017,-1.91713 -22.0736,-3.11944 -37.59,-0.54803 -2.489,-0.50223 -5.2873,-1.52438 -7.9364,-1.55594"
         id="path1999"
         sodipodi:nodetypes="csssccc" /><path
         style="display:inline;fill:#fff3cf;fill-opacity:1;stroke:none;stroke-width:0.428672"
         d="m -1316.0651,180.05284 c -0.6924,-0.36787 -1.3329,-0.89011 -2.077,-1.10368 -0.7594,-0.21786 -1.5726,-0.13108 -2.3611,-0.17004 -5.4644,-0.26987 -6.7105,-0.39859 -11.6486,-0.20135 -8.6291,0.34463 -16.1174,4.87556 -24.2599,9.0472 -1.3991,0.71681 -2.6383,1.82652 -3.9069,2.83386 -2.6661,2.11711 -3.5302,3.70097 -2.8626,7.7148 0.2999,1.80412 -0.9485,5.69362 0.7221,6.43212 9.2513,4.08916 24.1536,-5.33391 34.8809,-11.17234 3.7025,-2.01514 7.5733,-3.92838 11.483,-5.46084 1.6249,-0.6369 3.2381,-1.49191 4.9277,-1.68505 2.1406,-0.24479 0.1506,1.64205 -0.019,1.83673"
         id="path2001"
         sodipodi:nodetypes="cscssssssssc" /><path
         style="display:inline;fill:#fff3cf;fill-opacity:1;stroke:none;stroke-width:0.406018"
         d="m -1301.7582,188.12489 c -4.8016,9.42063 -11.5084,17.97841 -14.4048,28.26194 -3.7767,13.40928 -4.7574,21.15298 2.8135,25.32108 0.3575,0.19683 1.5406,0.97186 2.0779,0.95932 1.9531,-0.0456 5.2736,-6.61256 5.7563,-7.47738 4.6042,-9.87698 6.619,-16.87259 8.1015,-26.49649 0.5996,-3.74536 1.4478,-7.4328 2.1105,-11.17062 0.379,-2.13713 0.2668,-5.88084 1.7721,-7.4615"
         id="path2003"
         sodipodi:nodetypes="csssccsc" /><path
         style="display:inline;fill:#fff3cf;fill-opacity:1;stroke:none;stroke-width:0.479099"
         d="m -1309.2907,186.6304 c -9.3808,6.2656 -20.5014,10.62623 -28.1421,18.79681 -4.6954,5.021 -7.7976,14.60234 -6.2095,17.35689 0.22,0.38154 2.6123,0.75697 4.5082,2.07744 1.942,1.35277 3.3921,3.64919 3.9142,3.87124 8.2595,-0.70151 8.2651,-10.05148 11.9711,-14.21123 2.1185,-3.79932 4.4678,-8.10407 6.9188,-11.62078 2.7887,-4.00124 8.8753,-10.21491 13.3186,-12.62945"
         id="path2005"
         sodipodi:nodetypes="csssccsc" /><path
         style="display:inline;fill:#fff3cf;fill-opacity:1;stroke:none;stroke-width:0.410595"
         d="m -1282.3148,194.48403 c -4.4705,-23.30132 36.7923,20.43493 34.8594,32.63186 -0.159,1.00268 -2.8077,0.68943 -4.6834,1.66156 -2.1474,1.11305 -3.6073,3.42183 -4.7292,2.95925 -7.4532,-3.07335 -11.8185,-5.60565 -15.8844,-12.73036 -1.8507,-3.24288 -3.2589,-6.73213 -5.0843,-10.00469 -2.3491,-4.21159 -4.7377,-8.53225 -7.5196,-12.49895 -0.6668,-0.951 -1.6676,-2.33328 -1.6555,-0.73551"
         id="path2007"
         sodipodi:nodetypes="csscsssc" /><path
         style="display:inline;fill:#fff3cf;fill-opacity:1;stroke:none;stroke-width:0.474153"
         d="m -1273.3015,179.99846 c 13.1827,5.06877 20.7978,4.01232 32.8711,11.37339 13.5626,8.26912 11.4965,8.14672 8.4379,13.95234 -0.3285,0.62359 -0.5905,4.38242 -1.2676,4.66095 -2.5751,1.05933 -7.2952,-1.40342 -9.69,-2.22083 -9.1549,-3.12503 -11.3362,-3.87785 -19.318,-9.37706 -4.003,-2.75794 -7.945,-5.5911 -11.9671,-8.32378 -2.478,-1.68369 -6.3546,-5.64192 -9.4979,-5.07313"
         id="path2009"
         sodipodi:nodetypes="cssscssc" /><path
         style="display:inline;fill:#fff3cf;fill-opacity:1;stroke:none;stroke-width:0.422735"
         d="m -1288.8726,195.41105 c 13.9682,27.90267 13.3297,16.2268 15.605,43.13795 0.064,0.75176 -3.8994,2.17017 -4.7677,2.27734 -1.3078,0.16138 -6.0337,-1.51624 -6.8922,-2.20336 -6.3355,-5.07141 -4.8425,-8.94743 -6.8499,-15.84726 -1.1697,-4.01994 -2.3474,-8.00798 -2.4727,-12.16593 -0.1505,-4.99868 0.3436,-10.03021 -0.2734,-15.02822 -0.013,-0.10193 -0.8226,-6.94815 -1.7526,-4.26271"
         id="path2011"
         sodipodi:nodetypes="csscsscc" /></g><g
       inkscape:groupmode="layer"
       id="layer6"
       inkscape:label="petalas detalhes"
       style="display:inline"><path
         style="fill:#e6c78a;fill-opacity:1;stroke:none;stroke-width:0.256797;stroke-opacity:1"
         id="path2013"
         d="m -1301.0232,160.56145 c -1.5775,-5.24094 -4.7374,-20.87922 -6.1748,-20.59065 -2.7254,2.40851 4.2965,17.45224 3.6314,20.27823 2.1152,1.32748 3.3003,4.34775 2.5434,0.31242 z"
         sodipodi:nodetypes="cccc" /><path
         style="fill:#e6c78a;fill-opacity:1;stroke:none;stroke-width:0.281665;stroke-opacity:1"
         id="path2015"
         d="m -1303.6137,160.67977 c -1.0531,-7.00797 -8.8899,-24.43387 -11.2933,-23.25518 -1.0243,1.47762 2.3947,5.32417 4.2759,9.8974 2.2541,5.47992 4.5143,11.46457 4.441,13.3466 2.3407,1.27812 4.0745,4.69975 2.5764,0.0109 z"
         sodipodi:nodetypes="ccsccc" /><path
         style="fill:#e6c78a;fill-opacity:1;stroke:none;stroke-width:0.358638;stroke-opacity:1"
         id="path2017"
         d="m -1304.2206,167.23496 c -2.1432,-1.98611 -5.53,-6.53887 -9.2723,-10.01284 -4.3267,-4.01613 -8.9615,-6.80449 -10.0119,-5.9699 0.1553,1.93654 4.7886,4.93609 8.8676,8.50477 4.7114,4.12194 8.8316,8.85378 6.8643,11.16163 3.6619,-0.40197 6.4456,0.009 3.5523,-3.68366 z"
         sodipodi:nodetypes="cscscc" /><path
         style="fill:#e6c78a;fill-opacity:1;stroke:none;stroke-width:0.358638;stroke-opacity:1"
         id="path2019"
         d="m -1309.4276,165.33705 c -2.4933,-1.52353 -6.7129,-5.31741 -11.0679,-7.98348 -5.0347,-3.08217 -12.0734,-6.54362 -12.9381,-5.51794 0.5349,1.86766 7.6137,5.53647 12.3172,8.22891 5.433,3.10984 10.4069,6.93433 8.9345,9.58536 3.5103,-1.11755 6.3203,-1.26363 2.7543,-4.31285 z"
         sodipodi:nodetypes="cscscc" /><path
         style="fill:#e6c78a;fill-opacity:1;stroke:none;stroke-width:0.358638;stroke-opacity:1"
         id="path2021"
         d="m -1314.2629,171.22916 c -5.2077,-0.76835 -26.4684,-4.0176 -27.6091,-0.86546 6.952,2.80955 26.6384,-2.2245 27.3395,5.97567 2.5028,-2.70305 4.8755,-4.21571 0.2696,-5.11018 z"
         sodipodi:nodetypes="ccccc" /><path
         style="fill:#e6c78a;fill-opacity:1;stroke:none;stroke-width:0.376151;stroke-opacity:1"
         id="path2023"
         d="m -1298.4749,159.91282 c 1.1443,-2.86068 0.663,-8.57346 2.6588,-13.57439 2.3072,-5.7814 6.8419,-13.78054 8.2007,-13.45228 0.7081,1.92296 -3.466,9.24971 -5.7372,14.49203 -2.6236,6.05507 -3.0207,13.1415 -0.1476,14.46911 -3.63,1.2554 -6.0728,2.89642 -4.9747,-1.93446 z"
         sodipodi:nodetypes="cscsccc" /><path
         style="fill:#e6c78a;fill-opacity:1;stroke:none;stroke-width:0.358638;stroke-opacity:1"
         id="path2025"
         d="m -1280.6623,167.46561 c 2.4291,-1.62389 5.0804,-6.35819 9.3231,-9.19954 4.9049,-3.28484 12.7585,-7.10609 13.6644,-6.11651 -0.4582,1.88793 -7.6681,5.37691 -12.258,8.25885 -5.3016,3.32872 -9.381,8.66541 -7.8017,11.25422 -3.5529,-0.97352 -6.3666,-1.00494 -2.9278,-4.197 z"
         sodipodi:nodetypes="cscsccc" /><path
         style="fill:#e6c78a;fill-opacity:1;stroke:none;stroke-width:0.368847;stroke-opacity:1"
         id="path2027"
         d="m -1286.7365,162.02401 c 1.8396,-2.39006 2.9295,-7.94281 6.141,-12.12233 3.7127,-4.83182 10.1033,-11.13877 11.2839,-10.44452 0.1431,2.02301 -5.7295,7.794 -9.2634,12.12478 -4.0817,5.00219 -6.3624,11.60985 -4.0366,13.67863 -3.7286,0.1672 -6.4523,1.03476 -4.1249,-3.23655 z"
         sodipodi:nodetypes="cscsccc" /><path
         style="fill:#e6c78a;fill-opacity:1;stroke:none;stroke-width:0.264108;stroke-opacity:1"
         id="path2029"
         d="m -1289.8315,162.8253 c 2.586,-5.05486 11.4188,-19.00484 10.1761,-19.84294 -3.6795,-0.20409 -9.3017,16.13209 -11.7903,17.74763 0.5836,2.53698 -0.7072,5.65219 1.6142,2.0953 z"
         sodipodi:nodetypes="cccc" /><path
         style="fill:#e6c78a;fill-opacity:1;stroke:none;stroke-width:0.328032;stroke-opacity:1"
         id="path2031"
         d="m -1275.5888,173.73478 c 2.5927,-0.19807 6.7283,-2.8355 11.2587,-3.18556 5.2376,-0.40465 12.9899,0.12322 13.2536,1.35358 -1.1864,1.33028 -8.2949,0.83005 -13.1115,1.05177 -5.5635,0.25612 -11.0679,2.72202 -10.989,5.57279 -2.3156,-2.44794 -4.4758,-3.782 -0.4118,-4.79255 z"
         sodipodi:nodetypes="cscsccc" /><path
         style="fill:#e6c78a;fill-opacity:1;stroke:none;stroke-width:0.310192;stroke-opacity:1"
         id="path2033"
         d="m -1274.893,176.32151 c 8.0216,-2.35108 31.079,-3.5803 31.2682,-0.90157 -0.9482,1.59858 -7.045,0.37529 -12.9915,0.85313 -7.1253,0.57261 -14.787,1.3764 -16.729,2.32286 -2.7439,-1.47244 -7.3875,-1.40362 -1.5477,-2.27443 z"
         sodipodi:nodetypes="ccsccc" /><path
         style="fill:#e6c78a;fill-opacity:1;stroke:none;stroke-width:0.376294;stroke-opacity:1"
         id="path2035"
         d="m -1316.1945,180.52672 c -2.9873,0.47811 -8.7662,0.28623 -13.9871,1.11728 -6.0359,0.96073 -11.3697,3.00453 -11.4816,4.45041 1.5575,1.1664 7.048,-0.73451 12.5757,-1.78622 6.3848,-1.21474 12.8115,-1.5219 13.1591,1.6849 2.2655,-3.36012 4.5243,-5.43351 -0.2661,-5.46637 z"
         sodipodi:nodetypes="cscscc" /><path
         style="fill:#e6c78a;fill-opacity:1;stroke:none;stroke-width:0.344504;stroke-opacity:1"
         id="path2037"
         d="m -1319.8252,183.7592 c -2.5926,1.16533 -8.0456,2.53769 -12.5784,4.57071 -5.2403,2.35027 -9.4025,5.37061 -8.9397,6.54177 1.9065,0.5103 6.2708,-2.43856 11.0025,-4.72665 5.4653,-2.64288 11.3254,-4.58015 12.9061,-2.1397 0.7909,-3.25061 2.0802,-5.4834 -2.3905,-4.24613 z"
         sodipodi:nodetypes="cscscc" /><path
         style="fill:#e6c78a;fill-opacity:1;stroke:none;stroke-width:0.330116;stroke-opacity:1"
         id="path2039"
         d="m -1299.6446,190.44125 c -0.9321,2.51607 -3.2418,6.16922 -4.8743,10.565 -1.887,5.08182 -4.9999,12.68322 -3.8985,13.23282 1.6122,-0.86014 3.3677,-7.51796 4.9594,-12.22677 1.8383,-5.43886 5.5755,-10.78586 8.2796,-10.03819 -1.6782,-2.86396 -8.7389,-1.56624 -10.8694,2.21324 z"
         sodipodi:nodetypes="cscsccc" /><path
         style="fill:#e6c78a;fill-opacity:1;stroke:none;stroke-width:0.330116;stroke-opacity:1"
         id="path2041"
         d="m -1300.6807,195.5522 c -0.3753,2.63295 -1.4903,6.96702 -2.1501,11.56782 -0.7629,5.31884 -2.5611,13.01573 -1.3586,13.32693 1.4019,-1.16178 3.1831,-8.20202 3.7356,-13.09869 0.6376,-5.65584 1.6769,-11.38965 4.5003,-11.21026 -2.2694,-2.44293 -3.444,-4.68865 -4.7272,-0.58581 z"
         sodipodi:nodetypes="cscsccc" /><path
         style="fill:#e6c78a;fill-opacity:1;stroke:none;stroke-width:0.386846;stroke-opacity:1"
         d="m -1313.0332,192.37176 0.9145,2.16458 c -7.3519,5.33022 -13.9343,11.08209 -16.1927,11.83989 0.555,-3.78919 8.0691,-8.74149 15.2782,-14.00447 z"
         id="path2043"
         sodipodi:nodetypes="cccc" /><path
         style="fill:#e6c78a;fill-opacity:1;stroke:none;stroke-width:0.333035;stroke-opacity:1"
         id="path2045"
         d="m -1282.8425,187.29879 c 2.0435,2.01162 6.6944,3.55372 10.2678,7.06612 4.1312,4.06054 9.5707,10.87971 9.0294,11.98187 -1.6779,-0.0305 -6.6559,-6.29486 -10.365,-10.1371 -4.284,-4.43798 -9.8483,-7.24039 -11.4978,-5.12835 -0.2527,-3.68112 -1.0571,-6.4332 2.5656,-3.78257 z"
         sodipodi:nodetypes="cscsccc" /><path
         style="fill:#e6c78a;fill-opacity:1;stroke:none;stroke-width:0.283831;stroke-opacity:1"
         id="path2047"
         d="m -1279.1738,191.76825 c 1.1183,2.22473 4.4055,4.73525 6.362,8.62112 2.262,4.4923 4.8799,11.64549 4.1837,12.43087 -1.3147,-0.46368 -3.7046,-7.02988 -5.6873,-11.22848 -2.2901,-4.84957 -5.9889,-8.65817 -7.8053,-7.31298 0.7014,-3.16091 0.7408,-5.68476 2.9471,-2.51054 z"
         sodipodi:nodetypes="cscsccc" /><path
         style="fill:#e6c78a;fill-opacity:1;stroke:none;stroke-width:0.358638;stroke-opacity:1"
         id="path2049"
         d="m -1282.6754,182.61672 c 2.7905,0.86691 8.1385,-0.0499 13.0161,1.46109 5.6389,1.74674 13.5496,5.44848 13.3502,6.77518 -1.756,0.83121 -9.0035,-2.57896 -14.131,-4.33436 -5.9225,-2.02761 -12.6371,-1.842 -13.6563,1.01412 -1.4781,-3.3743 -3.2235,-5.58141 1.421,-4.91602 z"
         sodipodi:nodetypes="cscsccc" /><path
         style="fill:#e6c78a;fill-opacity:1;stroke:none;stroke-width:0.346211;stroke-opacity:1"
         d="m -1290.1758,197.51435 -1.5704,1.1877 c 3.1973,8.69132 5.3171,18.25524 5.9626,19.5542 3.0661,-3.38064 -1.4741,-11.89264 -4.3925,-20.74242 z"
         id="path2051"
         sodipodi:nodetypes="ccccc" /><path
         style="fill:#e6c78a;fill-opacity:1;stroke:none;stroke-width:0.346211;stroke-opacity:1"
         d="m -1287.1557,198.56883 -1.403,1.3683 c 3.4955,8.45866 6.9036,18.64497 8.2785,20.49025 1.6066,-3.81238 -3.4383,-13.54224 -6.8757,-21.85903 z"
         id="path2053"
         sodipodi:nodetypes="ccccc" /></g><g
       inkscape:groupmode="layer"
       id="layer4"
       inkscape:label="Miolo"
       style="display:inline"><g
         id="g2087"
         transform="matrix(1.3554842,0,0,1.3554842,-1193.3345,67.092147)"
         style="display:inline"><g
           id="g2059"
           transform="translate(44.70346,6.5206166)"><path
             style="fill:#f5cd44;fill-opacity:1;stroke-width:0.78494"
             d="m -137.20659,80.036649 c -0.73948,-2.554381 -1.45441,-5.613171 -1.18429,-8.287291 1.70448,-4.389268 3.76573,-7.853649 6.9236,-9.907004 1.73739,-1.129712 3.26687,-2.191221 5.48999,-2.626852 1.71289,-0.33565 4.05996,-0.151482 5.8583,-0.255924 1.42295,-0.008 2.88415,-0.126482 4.1932,0.08745 1.13402,0.185323 2.61221,1.108728 3.51035,1.526074 1.4734,0.684656 2.23418,1.01013 3.63513,1.904704 1.32287,0.844714 2.93151,1.494924 3.98026,2.559901 1.23696,1.256112 1.74509,2.933738 2.49553,4.431101 2.712324,5.411924 2.538133,11.770115 -3.04709,17.049667 -3.91908,5.501885 -14.62474,8.551308 -19.96569,6.604649 -6.74968,-2.287595 -11.00586,-7.552907 -11.88929,-13.08647 z"
             id="path2055"
             sodipodi:nodetypes="ccsscssssscccc" /><path
             style="fill:#f1a60e;fill-opacity:1;stroke-width:0.78494"
             d="m -137.13016,80.036649 c -0.73948,-2.554381 -1.45441,-5.613171 -1.18429,-8.287291 0.69161,1.056692 1.25077,2.288471 2.17923,3.053593 0.85539,0.704912 2.07941,0.95166 2.76404,1.701328 0.72852,0.797729 0.71804,1.694569 1.10033,2.747329 0.46073,1.268743 1.96823,1.720401 2.9217,2.372922 1.26281,0.864227 2.19024,2.014979 3.60435,1.895586 1.37544,-0.116128 2.44095,-0.194443 4.06636,-0.107018 0.90798,0.04884 2.0719,0.377758 3.16432,0.821985 1.172,0.476589 2.45578,0.260893 3.67439,0.507213 1.17999,0.238516 1.79433,0.741975 2.85976,0.706429 0.61844,-0.02063 1.86332,-0.727874 2.80028,-1.345307 0.66723,-0.439694 1.49632,-0.507234 2.161,-1.003087 0.80489,-0.600449 1.55787,-1.166902 2.13774,-1.517304 1.81563,-1.097137 1.82396,-0.243799 3.89293,-1.130435 -6.01705,12.434317 -18.9119,14.617186 -24.25285,12.670527 -6.74968,-2.287595 -11.00586,-7.552907 -11.88929,-13.08647 z"
             id="path2057"
             sodipodi:nodetypes="ccssssssssssssccc" /></g><path
           d="m -72.686288,92.186332 c -0.845525,-0.482892 -2.445743,0.206853 -1.622958,1.67472 1.230967,2.195887 3.019043,-0.878208 1.622958,-1.67472 v 0"
           style="fill:#b9841f;fill-opacity:1;fill-rule:evenodd;stroke:none;stroke-width:0.0073614"
           id="path2061" /><path
           d="m -59.825548,84.151433 c -0.845525,-0.482892 -2.445743,0.206852 -1.622958,1.67472 1.230967,2.195886 3.019043,-0.878208 1.622958,-1.67472 v 0"
           style="fill:#cf9423;fill-opacity:1;fill-rule:evenodd;stroke:none;stroke-width:0.0073614"
           id="path2063" /><path
           d="m -61.193505,90.592503 c -0.845525,-0.482892 -2.445743,0.206853 -1.622958,1.67472 1.230967,2.195887 3.019043,-0.878208 1.622958,-1.67472 v 0"
           style="fill:#b9841f;fill-opacity:1;fill-rule:evenodd;stroke:none;stroke-width:0.0073614"
           id="path2065" /><path
           d="m -64.34403,76.856868 c -0.845525,-0.482892 -2.445743,0.206853 -1.622958,1.67472 1.230967,2.195887 3.019043,-0.878208 1.622958,-1.67472 v 0"
           style="fill:#cf9423;fill-opacity:1;fill-rule:evenodd;stroke:none;stroke-width:0.0073614"
           id="path2067" /><path
           d="m -63.623699,81.601223 c -0.845525,-0.482892 -2.445743,0.206853 -1.622958,1.67472 1.230967,2.195887 3.019043,-0.878208 1.622958,-1.67472 v 0"
           style="fill:#cf9423;fill-opacity:1;fill-rule:evenodd;stroke:none;stroke-width:0.0073614"
           id="path2069" /><path
           d="m -83.499435,74.120382 c -0.845525,-0.482892 -2.445743,0.206853 -1.622958,1.67472 1.230967,2.195887 3.019043,-0.878208 1.622958,-1.67472 v 0"
           style="fill:#cf9423;fill-opacity:1;fill-rule:evenodd;stroke:none;stroke-width:0.0073614"
           id="path2071" /><path
           d="m -67.20034,95.357598 c -0.908374,0.519946 -2.627398,-0.222513 -1.743441,-1.797322 1.323436,-2.358884 3.242668,0.94499 1.743441,1.797322 v 0"
           style="fill:#b9841f;fill-opacity:1;fill-rule:evenodd;stroke:none;stroke-width:0.00554902"
           id="path2073" /><path
           d="m -76.961741,87.055248 c 0.85327,-0.606151 2.636571,-0.03508 1.910594,1.618514 -1.086804,2.476827 -3.319439,-0.623878 -1.910594,-1.618514 v 0"
           style="fill:#cf9423;fill-opacity:1;fill-rule:evenodd;stroke:none;stroke-width:0.00554902"
           id="path2075" /><path
           d="m -66.335005,89.680355 c -1.207004,0.683903 -3.491157,-0.292679 -2.3166,-2.364081 1.758516,-3.102723 4.308697,1.242979 2.3166,2.364081 v 0"
           style="fill:#cf9423;fill-opacity:1;fill-rule:evenodd;stroke:none;stroke-width:0.00733595"
           id="path2077" /><path
           d="m -58.988162,79.108078 c -0.908374,0.519946 -2.627398,-0.222513 -1.743442,-1.797322 1.323436,-2.358884 3.242668,0.94499 1.743442,1.797322 v 0"
           style="fill:#cf9423;fill-opacity:1;fill-rule:evenodd;stroke:none;stroke-width:0.00554902"
           id="path2079" /><path
           d="m -71.278013,87.165262 c -0.908374,0.519945 -2.627398,-0.222513 -1.743442,-1.797322 1.323436,-2.358884 3.242668,0.94499 1.743442,1.797322 v 0"
           style="fill:#cf9423;fill-opacity:1;fill-rule:evenodd;stroke:none;stroke-width:0.00554902"
           id="path2081" /><path
           d="m -88.534975,78.296806 c -0.824864,0.472145 -2.385852,-0.202057 -1.583161,-1.632088 1.201768,-2.142023 2.944558,0.858114 1.583161,1.632088 v 0"
           style="fill:#cf9423;fill-opacity:1;fill-rule:evenodd;stroke:none;stroke-width:0.00503888"
           id="path2083" /><path
           d="m -85.58574,80.007288 c -0.640012,0.366337 -1.851182,-0.156776 -1.228374,-1.266337 0.932451,-1.661995 2.284682,0.665811 1.228374,1.266337 v 0"
           style="fill:#cf9423;fill-opacity:1;fill-rule:evenodd;stroke:none;stroke-width:0.00390967"
           id="path2085" /></g></g></g></svg>
