<?xml version="1.0" encoding="UTF-8" standalone="no"?>
<!-- Created with Inkscape (http://www.inkscape.org/) -->

<svg
   width="168.85339mm"
   height="147.35539mm"
   viewBox="0 0 168.85339 147.35539"
   version="1.1"
   id="svg5"
   xml:space="preserve"
   inkscape:version="1.2.1 (9c6d41e410, 2022-07-14)"
   sodipodi:docname="drawing.svg"
   xmlns:inkscape="http://www.inkscape.org/namespaces/inkscape"
   xmlns:sodipodi="http://sodipodi.sourceforge.net/DTD/sodipodi-0.dtd"
   xmlns="http://www.w3.org/2000/svg"
   xmlns:svg="http://www.w3.org/2000/svg"><sodipodi:namedview
     id="namedview7"
     pagecolor="#505050"
     bordercolor="#eeeeee"
     borderopacity="1"
     inkscape:showpageshadow="0"
     inkscape:pageopacity="0"
     inkscape:pagecheckerboard="0"
     inkscape:deskcolor="#505050"
     inkscape:document-units="mm"
     showgrid="false"
     inkscape:zoom="1.0255231"
     inkscape:cx="-2671.3197"
     inkscape:cy="1254.9693"
     inkscape:window-width="3840"
     inkscape:window-height="1526"
     inkscape:window-x="2869"
     inkscape:window-y="-11"
     inkscape:window-maximized="1"
     inkscape:current-layer="g2018"
     showguides="true" /><defs
     id="defs2" /><g
     inkscape:groupmode="layer"
     id="layer7"
     inkscape:label="multipleQualitiesDaisy"
     transform="translate(873.49648,-226.20805)"><path
       style="display:inline;fill:#fff3cf;fill-opacity:1;stroke:none;stroke-width:0.519494"
       d="m -799.06849,284.08942 c -11.90171,-11.52631 -19.14871,-27.29406 -21.76116,-43.53772 1.96864,-11.79832 20.16234,-8.19705 21.84997,2.18059 5.18158,12.64922 1.78853,27.10951 7.3936,39.64168"
       id="path2979-3"
       sodipodi:nodetypes="cscsccc"
       inkscape:export-filename="path2979.svg"
       inkscape:export-xdpi="96"
       inkscape:export-ydpi="96" /><path
       style="display:inline;fill:#fff3cf;fill-opacity:1;stroke:none;stroke-width:0.612452"
       d="m -806.38125,293.20518 c -16.70747,-9.41839 -36.73808,-14.85058 -48.96598,-30.61152 -5.96073,-8.75081 4.89529,-23.11329 14.8023,-17.68522 21.52739,8.16726 26.51967,36.16076 48.33334,43.85915"
       id="path2981-2"
       sodipodi:nodetypes="csssccsc" /><path
       style="display:inline;fill:#fff3cf;fill-opacity:1;stroke:none;stroke-width:0.597439"
       d="m -814.08347,304.53359 c -18.43046,-2.28367 -37.70591,4.01555 -55.51935,-3.10614 -8.568,-6.47302 -1.79245,-22.36525 8.67792,-21.30086 19.01161,-2.45664 35.76973,9.16188 53.72066,12.94139"
       id="path2983-4"
       sodipodi:nodetypes="cssssccsc" /><path
       style="display:inline;fill:#fff3cf;fill-opacity:1;stroke:none;stroke-width:0.627764"
       d="m -793.05814,287.49134 c -6.5423,-18.53456 -4.76606,-39.40883 3.1204,-57.24594 6.51407,-8.84788 22.8878,-1.9094 21.56658,8.82483 -0.81885,18.30887 -19.75632,31.47451 -16.59446,50.49263 l 0.17472,0.91914 0.21092,0.92844"
       id="path2985-0"
       sodipodi:nodetypes="ccscccc" /><path
       style="display:inline;fill:#fff3cf;fill-opacity:1;stroke:none;stroke-width:0.548308"
       d="m -768.3387,285.44775 c 7.90321,-16.30249 24.5227,-27.34141 42.13213,-30.45613 9.7418,-0.10539 16.88023,14.33787 8.58806,20.84409 -13.802,11.16361 -35.68888,5.16617 -47.32942,19.90624 l -0.55727,0.76508 -0.53245,0.78267"
       id="path2987-6"
       sodipodi:nodetypes="cscsssssssssc" /><path
       style="display:inline;fill:#fff3cf;fill-opacity:1;stroke:none;stroke-width:0.542756"
       d="m -785.26338,290.32908 c 6.32217,-18.70506 10.19836,-39.83223 25.41256,-53.77256 7.39505,-5.85228 21.89019,-0.93259 21.04032,9.47038 -2.91031,15.91127 -19.77441,22.15187 -28.98023,33.71818 -2.01735,2.53046 -3.62619,5.40366 -4.6146,8.49026"
       id="path2989-4"
       sodipodi:nodetypes="ccsscc" /><path
       style="display:inline;fill:#fff3cf;fill-opacity:1;stroke:none;stroke-width:0.597439"
       d="m -757.0962,291.72309 c 15.60843,-3.2542 31.64717,-9.94713 47.7253,-5.52298 9.42832,5.20919 3.51732,21.83767 -6.88224,20.82682 -15.55394,1.8359 -30.66817,-7.40259 -46.14809,-3.03045"
       id="path2991-0"
       sodipodi:nodetypes="csssccc" /><path
       style="display:inline;fill:#fff3cf;fill-opacity:1;stroke:none;stroke-width:0.548308"
       d="m -813.18647,304.89887 c -16.35738,-8.3785 -36.3761,-1.8177 -49.69839,9.30941 -6.62159,7.06699 -2.90494,21.97125 7.82526,21.87829 12.46651,0.28019 20.33478,-11.05753 30.38241,-16.57429 5.26004,-3.17758 11.51657,-5.47325 17.73081,-4.28933"
       id="path2993-4"
       sodipodi:nodetypes="cscssssssssc" /><path
       style="display:inline;fill:#fff3cf;fill-opacity:1;stroke:none;stroke-width:0.519329"
       d="m -794.88679,315.22367 c -9.51796,14.60525 -20.78765,30.17832 -19.95174,48.48719 2.07638,10.4253 19.93084,10.7517 21.97527,0.12614 5.99805,-14.74845 1.28804,-31.72793 8.49946,-46.13714"
       id="path2995-1"
       sodipodi:nodetypes="csssccsc" /><path
       style="display:inline;fill:#fff3cf;fill-opacity:1;stroke:none;stroke-width:0.612808"
       d="m -804.52138,313.31209 c -17.24487,3.41105 -32.19896,16.50732 -38.40617,32.82635 -1.59851,9.608 12.97221,16.89656 18.99528,8.64781 9.38034,-10.54812 9.86637,-27.56576 22.88148,-35.052 1.42078,-0.81057 2.96419,-1.40795 4.56104,-1.76506"
       id="path2997-4"
       sodipodi:nodetypes="csssccsc" /><path
       style="display:inline;fill:#fff3cf;fill-opacity:1;stroke:none;stroke-width:0.525183"
       d="m -770.01712,323.35754 c 12.73864,-5.94717 26.87967,3.00957 33.91191,13.62253 5.78466,7.4698 8.75112,20.24515 0.45079,27.04643 -8.88179,5.80637 -20.25094,-1.45324 -23.99416,-10.09238 -5.53611,-9.59736 -8.92781,-20.51893 -16.3759,-28.93536"
       id="path2999-9"
       sodipodi:nodetypes="csscsssc" /><path
       style="display:inline;fill:#fff3cf;fill-opacity:1;stroke:none;stroke-width:0.606481"
       d="m -758.48835,304.82929 c 15.99843,2.88219 33.14984,6.59957 45.07843,18.50127 5.48906,8.7658 -6.41978,21.08829 -15.30384,15.59438 -16.69558,-5.50282 -25.35716,-24.39336 -43.11734,-27.71062"
       id="path3001-8"
       sodipodi:nodetypes="cssscssc" /><path
       style="display:inline;fill:#fff3cf;fill-opacity:1;stroke:none;stroke-width:0.540713"
       d="m -778.40503,324.54322 c 9.11835,12.27546 17.80226,26.50033 17.17241,42.36362 -3.27166,10.36854 -20.88307,7.9577 -21.83022,-2.6263 -5.00044,-14.57785 1.78958,-30.73239 -4.81206,-44.97163"
       id="path3003-2"
       sodipodi:nodetypes="csscsscc" /><path
       style="fill:#f5cd44;fill-opacity:1;stroke-width:1.19526"
       d="m -813.22358,309.16824 c -5.76884,-13.90582 5.99857,-29.88935 20.22281,-31.68636 14.00021,-3.98226 32.56766,3.25388 34.98006,18.90284 3.56269,17.99447 -13.6764,35.87582 -31.76876,33.52464 -11.1205,-0.83436 -22.58477,-8.91778 -23.43411,-20.74112 z"
       id="path3005-6"
       sodipodi:nodetypes="ccsscssssscccc" /><path
       style="fill:#f1a60e;fill-opacity:1;stroke-width:1.19526"
       d="m -813.10717,309.16824 c 13.51987,0.854 27.0118,4.94265 38.1412,12.79355 -0.62449,9.32151 -12.41039,10.79968 -19.54428,8.35358 -9.52074,-2.50907 -18.94616,-10.5531 -18.59692,-21.14713 z"
       id="path3007-4"
       sodipodi:nodetypes="ccssssssssssssccc" /></g></svg>
