<?xml version="1.0" encoding="UTF-8" standalone="no"?>
<!-- Created with Inkscape (http://www.inkscape.org/) -->

<svg
   width="165.98917mm"
   height="281.7005mm"
   viewBox="0 0 165.98917 281.7005"
   version="1.1"
   id="svg5"
   xml:space="preserve"
   xmlns="http://www.w3.org/2000/svg"
   xmlns:svg="http://www.w3.org/2000/svg"><defs
     id="defs2" /><g
     id="layer1"
     style="display:inline;opacity:1"
     transform="translate(4165.5361,340.72122)"><g
       id="g141354"><g
         id="g132706"
         transform="matrix(2.2040458,0,0,2.2040458,-6034.283,-1156.2391)"><path
           style="fill:#f6f9fb;stroke-width:0.524184"
           d="m 898.96732,446.44219 c 3.54123,3.59936 0.11732,4.24205 0,0 z"
           id="path132526" /><path
           style="fill:#f6f9fb;stroke-width:0.524184"
           d="m 890.3694,445.75903 c -7.34006,-1.68502 -9.17498,8.78479 -1.10331,3.7752 4.40447,-6.64656 -1.66586,10.72268 6.50504,5.02787 6.10016,-4.87994 0.003,-9.13565 -5.40173,-8.80307 z"
           id="path132528" /><path
           style="fill:#f6f9fb;stroke-width:0.524184"
           d="m 899.85047,445.75203 c -8.26139,5.02644 10.55457,13.84289 4.09517,3.32433 -1.13698,-1.35953 -2.57522,-2.43209 -4.09517,-3.32433 z"
           id="path132530" /><path
           style="fill:#f6f9fb;stroke-width:0.524184"
           d="m 903.26628,442.64214 c -5.27772,8.07262 17.00929,14.27412 9.32162,3.65824 -2.86071,-1.83109 -6.61225,-1.52109 -9.32162,-3.65824 z"
           id="path132532" /><path
           style="fill:#f6f9fb;stroke-width:0.524184"
           d="m 885.10253,442.3326 c -8.5149,-2.3137 -5.44293,8.57338 1.50332,3.65948 4.30392,-1.09246 0.89268,-3.88236 -1.50332,-3.65948 z"
           id="path132534" /><path
           style="fill:#f6f9fb;stroke-width:0.524184"
           d="m 920.12417,436.62752 c -7.03831,0.45121 -21.05941,5.64889 -8.73603,8.27075 4.35385,0.85516 17.76316,-3.18028 8.73603,-8.27075 z"
           id="path132536" /><path
           style="fill:#f6f9fb;stroke-width:0.524184"
           d="m 873.38025,432.27327 c -4.71207,8.85795 14.0173,13.1232 12.3211,6.74467 -2.78242,-2.81262 -8.4913,-4.59304 -12.3211,-6.74467 z"
           id="path132538" /><path
           style="fill:#f6f9fb;stroke-width:0.524184"
           d="m 921.1086,428.19499 c -5.33783,0.0512 -21.62626,11.91952 -8.57829,7.12271 11.82048,-3.22969 -15.98331,5.58378 -0.77985,2.79003 4.40915,0.0834 14.68294,-5.44829 9.35814,-9.91274 z"
           id="path132540" /><path
           style="fill:#f6f9fb;stroke-width:0.524184"
           d="m 904.4843,425.73623 c -1.58571,4.63903 -4.13131,4.88395 -0.27892,0.35405 z"
           id="path132542" /><path
           style="fill:#f6f9fb;stroke-width:0.524184"
           d="m 873.83552,425.66443 c -5.60312,8.15325 14.80561,12.56673 10.83205,9.46571 5.25302,-0.55028 -7.72784,-8.95786 -10.83205,-9.46571 z"
           id="path132544" /><path
           style="fill:#f6f9fb;stroke-width:0.524184"
           d="m 920.43526,420.29008 c -6.4404,0.87355 -14.69248,11.73217 -13.98526,14.22243 3.66626,-3.55092 22.09167,-7.45339 13.98526,-14.22243 z"
           id="path132546" /><path
           style="fill:#f6f9fb;stroke-width:0.524184"
           d="m 912.79387,418.13879 c -4.01144,3.70578 -11.38361,18.11258 -2.7003,8.36698 2.55691,-1.90981 9.26676,-7.33726 2.7003,-8.36698 z"
           id="path132548" /><path
           style="fill:#f6f9fb;stroke-width:0.524184"
           d="m 878.58045,417.16729 c -7.63872,4.83792 7.31441,17.85798 8.1563,13.9434 -2.50725,-5.19495 -2.10802,-2.27352 1.16312,-0.87087 -0.20407,-5.46392 -4.5658,-10.58721 -9.31942,-13.07253 z"
           id="path132550" /><path
           style="fill:#f6f9fb;stroke-width:0.524184"
           d="m 908.94139,413.45236 c -6.00527,2.34568 -10.94037,15.68992 -7.00763,17.98401 3.61055,-2.06354 12.9251,-15.55098 7.00763,-17.98401 z"
           id="path132552" /><path
           style="fill:#f6f9fb;stroke-width:0.524184"
           d="m 896.96227,410.94296 c -8.13008,0.38678 -2.94777,19.02142 -1.89198,17.01637 0.43569,-4.47431 0.0289,-11.26617 0.88285,-2.57101 2.04797,6.19748 3.55333,-14.04633 2.23122,-0.58967 -0.59498,12.92806 5.48544,-7.65447 2.17247,-11.57517 l -1.30866,-1.45805 z"
           id="path132554" /><path
           style="fill:#f6f9fb;stroke-width:0.524184"
           d="m 888.79688,408.85884 c -9.61524,2.47372 -1.04417,22.3274 1.8374,20.22092 -1.87752,-3.88216 -1.12207,-11.86756 -0.19179,-2.72439 3.30698,9.23603 2.03245,-8.89026 1.18034,-11.43493 -0.51445,-2.18009 -1.38729,-4.31889 -2.82595,-6.0616 z"
           id="path132556" /><path
           style="fill:#f6f9fb;stroke-width:0.524184"
           d="m 886.86576,405.81252 c -6.98335,1.81909 -0.0202,5.82559 2.24246,2.96778 6.63247,8.01651 2.01665,-4.74924 -2.24246,-2.96778 z"
           id="path132558" /><path
           style="fill:#f6f9fb;stroke-width:0.524184"
           d="m 890.35082,405.55052 c 0.96463,7.85225 16.92413,4.76804 5.75798,0.86703 -1.87097,-0.54438 -3.81829,-0.76281 -5.75798,-0.86703 z"
           id="path132560" /><path
           style="fill:#f6f9fb;stroke-width:0.524184"
           d="m 879.97058,405.04567 c -3.78527,5.21251 -2.5553,-2.32647 -6.40503,3.19622 -5.95343,12.54511 11.36427,5.93557 7.82379,-2.07408 -4.69415,3.272 -4.27311,6.02896 -1.41876,-1.12214 z"
           id="path132562" /><path
           style="fill:#f6f9fb;stroke-width:0.524184"
           d="m 890.37253,404.04263 c -3.33545,0.0124 1.65191,0.9252 0,0 z"
           id="path132564" /><path
           style="fill:#f6f9fb;stroke-width:0.524184"
           d="m 873.13895,401.11623 c -5.18118,-1.57797 -17.09487,8.62759 -5.94238,6.67546 6.51997,0.0706 12.49799,-7.29882 2.65092,-3.5482 -5.10492,0.53783 10.13524,-2.4402 3.29146,-3.12726 z"
           id="path132566" /><path
           style="fill:#f6f9fb;stroke-width:0.524184"
           d="m 902.67875,401.09663 c -4.67024,1.52946 -16.03866,3.02078 -4.56071,2.68712 3.52835,0.26054 -6.44839,1.41975 0.92587,3.39116 4.98693,4.24882 17.32539,-2.14053 7.13216,-5.44661 l -1.7535,-0.32902 z"
           id="path132568" /><path
           style="fill:#f6f9fb;stroke-width:0.524184"
           d="m 856.03199,394.20244 c -5.75941,7.83777 17.52974,9.98472 15.08756,5.17879 -4.47591,-0.0378 -6.75762,-0.8676 -0.79906,-1.31425 -4.59671,-1.83008 -9.44448,-2.92308 -14.2885,-3.86454 z"
           id="path132570" /><path
           style="fill:#f6f9fb;stroke-width:0.524184"
           d="m 907.37252,392.30285 c -8.98597,1.0723 -15.9092,9.09291 -8.54115,7.18405 -5.27839,-0.79017 -7.74592,4.52454 -1.23017,2.31475 2.73332,-0.88004 16.57526,-6.21586 9.77132,-9.4988 z"
           id="path132572" /><path
           style="fill:#f6f9fb;stroke-width:0.524184"
           d="m 873.29036,391.61659 c -0.29446,2.70548 4.07466,2.17097 0,0 z"
           id="path132574" /><path
           style="fill:#f6f9fb;stroke-width:0.524184"
           d="m 855.1447,388.59041 c -3.81557,7.37364 18.41468,9.41018 11.0673,4.82077 5.82806,0.76861 -8.30595,-5.97729 -11.0673,-4.82077 z"
           id="path132576" /><path
           style="fill:#f6f9fb;stroke-width:0.524184"
           d="m 910.14238,386.23451 c -6.15362,-0.0587 -13.24787,5.58445 -11.51243,7.27825 -5.80271,3.84832 16.64021,-3.14229 11.51243,-7.27825 z"
           id="path132578" /><path
           style="fill:#f6f9fb;stroke-width:0.524184"
           d="m 857.93265,385.45936 c -4.96929,5.47053 14.76093,4.6837 3.73427,0.20686 -1.23973,-0.18693 -2.4956,-0.006 -3.73427,-0.20686 z"
           id="path132580" /><path
           style="fill:#f6f9fb;stroke-width:0.524184"
           d="m 908.42775,383.93439 c -10.14788,-0.14227 -0.22459,6.34524 1.00698,0.0901 z"
           id="path132582" /><path
           style="fill:#f6f9fb;stroke-width:0.524184"
           d="m 865.38697,376.7204 c -8.96212,4.471 5.79038,17.41255 7.99635,17.11647 -2.45171,-3.68162 -5.68349,-12.75068 -0.47447,-4.16374 5.05599,3.61369 -3.45681,-11.14544 -7.52188,-12.95273 z"
           id="path132584" /><path
           style="fill:#f6f9fb;stroke-width:0.524184"
           d="m 870.78406,373.17436 c -7.91115,4.21527 5.61546,12.66195 5.9312,18.2607 -0.47288,-4.83732 -3.10567,-10.2595 0.3244,-2.41091 3.97567,3.99177 -1.81415,-10.21439 -4.15595,-13.01444 l -0.67787,-0.99321 z"
           id="path132586" /><path
           style="fill:#f6f9fb;stroke-width:0.524184"
           d="m 898.49554,371.86915 c -4.19634,-1.33226 -9.79431,13.08335 -3.84141,6.93716 -5.59847,6.8115 16.02298,-8.21653 3.84141,-6.93716 z"
           id="path132588" /><path
           style="fill:#f6f9fb;stroke-width:0.524184"
           d="m 889.75241,371.54617 c -4.12334,5.23081 -4.60487,16.24591 -1.81471,20.61516 6.40725,-2.94679 5.5519,-7.77935 4.4008,-0.66651 2.66011,-2.76913 9.08456,-7.82075 2.77549,-2.01872 -6.23402,5.19437 -0.16486,7.22749 3.01653,0.98768 7.49184,-3.27562 7.53742,-19.92906 -1.64501,-10.67991 -4.5457,3.01081 -10.36947,17.58402 -7.10401,5.25743 1.0385,-4.26272 3.90929,-9.62002 0.37091,-13.49513 z"
           id="path132590" /><path
           style="fill:#f6f9fb;stroke-width:0.524184"
           d="m 882.22212,370.0095 c -1.99471,4.40746 -5.68996,4.9547 -8.32899,4.86998 -0.81498,5.44402 5.88602,8.12321 5.03288,3.0366 -1.60823,4.50512 2.5211,19.46746 2.43816,7.25994 1.36217,7.975 2.31164,-10.58375 2.00603,1.73321 1.56196,8.86682 6.74524,-15.70952 0.25327,-16.77098 z"
           id="path132592" /><path
           style="fill:#f3cb46;stroke-width:0.524184"
           d="m 890.20701,402.86719 c 2.61137,-6.4658 -13.20158,3.4164 -12.67935,-6.53462 -0.0146,-6.35192 -6.14654,2.06151 -0.0726,-3.97925 8.07721,-4.43315 21.07853,4.561 12.75193,10.51387 z"
           id="path132594" /><path
           style="fill:#f3cb46;stroke-width:0.524184"
           d="m 875.55449,402.15053 c -4.85986,-5.8636 5.7204,4.74634 0,0 z"
           id="path132596" /><path
           style="fill:#f3cb46;stroke-width:0.524184"
           d="m 887.79524,405.34425 c 1.32378,-2.07784 1.54466,0.9288 0,0 z"
           id="path132598" /><path
           style="fill:#f3cb46;stroke-width:0.524184"
           d="m 885.31533,405.71119 c 2.93539,-1.41365 0.96052,1.22108 0,0 z"
           id="path132600" /><path
           style="fill:#f3cb46;stroke-width:0.524184"
           d="m 880.8498,405.25044 c -3.45095,-2.84843 6.16268,2.79115 0,0 z"
           id="path132602" /><path
           style="fill:#f3cb46;stroke-width:0.524184"
           d="m 904.65191,437.00131 c 0.45098,-3.34117 0.32341,2.87265 0,0 z"
           id="path132604" /><path
           style="fill:#f3cb46;stroke-width:0.524184"
           d="m 904.34075,441.04113 c 1.87398,-3.11759 -0.27573,2.17678 0,0 z"
           id="path132606" /><path
           style="fill:#f3cb46;stroke-width:0.524184"
           d="m 896.32047,440.92419 c -8.5694,-0.11186 -10.67046,-11.5367 -0.7898,-10.28806 10.11012,-0.15924 9.16094,8.92643 0.7898,10.28806 z"
           id="path132608" /><path
           style="fill:#f3cb46;stroke-width:0.524184"
           d="m 886.50496,439.33998 c -0.17256,-7.66855 1.41293,7.74004 0,0 z"
           id="path132610" /><path
           style="fill:#f3cb46;stroke-width:0.524184"
           d="m 901.42403,443.08551 c 1.32378,-2.07784 1.54466,0.9288 0,0 z"
           id="path132612" /><path
           style="fill:#f3cb46;stroke-width:0.524184"
           d="m 888.24646,443.7846 c -2.1284,-2.62116 4.45428,3.36461 0,0 z"
           id="path132614" /><path
           style="fill:#f3cb46;stroke-width:0.524184"
           d="m 898.84678,445.77581 c 1.33978,-2.12187 3.72714,-1.31706 0,0 z"
           id="path132616" /><path
           style="fill:#f3cb46;stroke-width:0.524184"
           d="m 891.20616,445.39426 c 1.22198,-1.14294 1.13464,2.06609 0,0 z"
           id="path132618" /><path
           style="fill:#f3cb46;stroke-width:0.524184"
           d="m 897.13227,446.07855 c 2.05445,-1.3025 0.29455,1.32728 0,0 z"
           id="path132620" /><path
           style="fill:#f3cb46;stroke-width:0.524184"
           d="m 895.03554,446.60274 c 2.05448,-1.3025 0.29452,1.32728 0,0 z"
           id="path132622" /><path
           style="fill:#e7a314;stroke-width:0.524184"
           d="m 879.87597,404.32722 c -8.96683,0.0561 -3.6859,-18.04895 -1.17828,-5.1509 3.2816,5.26367 18.58355,-2.47296 9.9377,5.30508 -2.67321,1.5496 -6.10007,1.26629 -8.75942,-0.15418 z"
           id="path132624" /><path
           style="fill:#e7a314;stroke-width:0.524184"
           d="m 890.89065,444.73303 c -7.54139,-2.52723 -3.10511,-14.79927 1.45203,-4.73241 5.38366,6.06806 14.19219,-11.44929 11.7401,1.06352 -2.63668,4.01503 -8.92604,7.18548 -13.19213,3.66889 z"
           id="path132626" /><path
           style="fill:#90a334;stroke-width:0.524184"
           d="m 851.66817,429.74057 c -6.08489,-5.1192 7.78463,-5.14412 0,0 z"
           id="path132628" /><path
           style="fill:#90a334;stroke-width:0.524184"
           d="m 854.38277,437.2449 c -4.81761,-4.05095 3.17878,-11.558 1.6271,-2.964 -0.18438,0.85625 -0.0409,3.37985 -1.6271,2.964 z"
           id="path132630" /><path
           style="fill:#90a334;stroke-width:0.524184"
           d="m 855.82578,439.33396 c -0.88541,-6.0478 3.80397,-1.91533 0.11763,0.54674 z"
           id="path132632" /><path
           style="fill:#90a334;stroke-width:0.524184"
           d="m 848.48079,438.30913 c -2.73405,-3.90458 4.79009,-10.91656 1.80121,-2.65133 0.52028,2.36259 -0.18294,8.74799 -1.80121,2.65133 z"
           id="path132634" /><path
           style="fill:#90a334;stroke-width:0.524184"
           d="m 850.36847,444.54954 c -1.94436,-7.58707 6.2492,1.33972 0,0 z"
           id="path132636" /><path
           style="fill:#90a334;stroke-width:0.524184"
           d="m 864.20695,448.89992 c -6.51372,-10.24966 4.75786,-2.32202 0,0 z"
           id="path132638" /><path
           style="fill:#90a334;stroke-width:0.524184"
           d="m 861.68222,447.93068 c -1.33539,-6.323 -5.15484,-3.02117 -3.76428,-9.56997 1.88387,-3.53628 5.79421,12.16815 3.76428,9.56997 z"
           id="path132640" /><path
           style="fill:#90a334;stroke-width:0.524184"
           d="m 889.97475,451.15432 c 0.45098,-3.34138 0.32343,2.87266 0,0 z"
           id="path132642" /><path
           style="fill:#90a334;stroke-width:0.524184"
           d="m 855.29582,452.72886 c 1.38541,-3.20097 2.65646,0.9609 0,0 z"
           id="path132644" /><path
           style="fill:#90a334;stroke-width:0.524184"
           d="m 853.72327,452.54129 c -5.43925,-2.59759 1.5627,-11.48882 -0.0493,-2.35841 3.03811,-1.4356 1.39476,3.26099 0.0493,2.35841 z"
           id="path132646" /><path
           style="fill:#90a334;stroke-width:0.524184"
           d="m 865.59391,453.03209 c -1.30471,-8.03244 4.60911,2.27642 0.0859,0.14258 z"
           id="path132648" /><path
           style="fill:#90a334;stroke-width:0.524184"
           d="m 855.10081,454.93212 c 2.51129,-4.38937 5.26831,2.35547 0,0 z"
           id="path132650" /><path
           style="fill:#90a334;stroke-width:0.524184"
           d="m 868.03033,455.60665 c -2.27121,-8.76247 3.96207,-2.06093 0,0 z"
           id="path132652" /><path
           style="fill:#90a334;stroke-width:0.524184"
           d="m 870.62821,457.85194 c -4.29624,-4.98227 5.51445,-4.17876 0.83865,1.23424 z"
           id="path132654" /><path
           style="fill:#90a334;stroke-width:0.524184"
           d="m 858.77415,458.75123 c -7.7858,-6.3426 13.01344,1.73264 0,0 z"
           id="path132656" /><path
           style="fill:#90a334;stroke-width:0.524184"
           d="m 861.45498,460.75095 c 0.61133,-4.01432 6.12641,2.13003 0,0 z"
           id="path132658" /><path
           style="fill:#90a334;stroke-width:0.524184"
           d="m 873.29793,460.6955 c -2.13342,-6.68554 3.04214,-2.66289 0,0 z"
           id="path132660" /><path
           style="fill:#90a334;stroke-width:0.524184"
           d="m 870.0713,464.14754 c -6.21377,0.59572 -6.64709,-5.3329 -0.44501,-1.05401 0.62484,-0.61553 1.60068,1.47956 0.44501,1.05401 z"
           id="path132662" /><path
           style="fill:#778c2b;stroke-width:0.524184"
           d="m 881.13794,412.88884 c 0.41659,-4.9431 0.13146,4.50897 0,0 z"
           id="path132664" /><path
           style="fill:#778c2b;stroke-width:0.524184"
           d="m 881.71733,419.048 c -2.94125,-3.54384 4.26442,4.17896 0,0 z"
           id="path132666" /><path
           style="fill:#778c2b;stroke-width:0.524184"
           d="m 852.71628,433.55043 c 0.75467,-1.90861 0.0612,2.51701 0,0 z"
           id="path132668" /><path
           style="fill:#778c2b;stroke-width:0.524184"
           d="m 889.40915,436.69554 c 0.75478,-1.90868 0.0611,2.51695 0,0 z"
           id="path132670" /><path
           style="fill:#778c2b;stroke-width:0.524184"
           d="m 856.9371,442.06408 c -3.05414,-1.89631 -1.07837,-9.64489 -0.43701,-2.80752 2.03073,-8.80131 1.97041,3.45066 0.43701,2.80752 z"
           id="path132672" /><path
           style="fill:#778c2b;stroke-width:0.524184"
           d="m 859.31457,445.039 c -2.16749,-3.51626 2.36095,-5.04209 0,0 z"
           id="path132674" /><path
           style="fill:#778c2b;stroke-width:0.524184"
           d="m 879.44965,447.70359 c 0.75478,-1.90867 0.0611,2.51695 0,0 z"
           id="path132676" /><path
           style="fill:#778c2b;stroke-width:0.524184"
           d="m 861.51917,448.14041 c -0.96018,-2.23937 2.96887,3.75461 0,0 z"
           id="path132678" /><path
           style="fill:#778c2b;stroke-width:0.524184"
           d="m 881.54639,449.80031 c 0.75478,-1.90868 0.0611,2.51695 0,0 z"
           id="path132680" /><path
           style="fill:#778c2b;stroke-width:0.524184"
           d="m 863.68277,450.71746 c -1.75257,-4.06242 -3.25207,-9.06619 0.71506,-2.7836 1.6165,0.51497 1.24045,5.09912 -0.71506,2.7836 z"
           id="path132682" /><path
           style="fill:#778c2b;stroke-width:0.524184"
           d="m 867.16736,451.94056 c 1.28961,-7.17017 0.0806,6.11412 0,0 z"
           id="path132684" /><path
           style="fill:#778c2b;stroke-width:0.524184"
           d="m 868.93264,454.46141 c 0.35061,-4.3163 1.56588,1.87438 0,0 z"
           id="path132686" /><path
           style="fill:#778c2b;stroke-width:0.524184"
           d="m 870.18527,457.8376 c -2.94123,-3.54383 4.26445,4.17899 0,0 z"
           id="path132688" /><path
           style="fill:#778c2b;stroke-width:0.524184"
           d="m 872.06972,457.18237 c 0.8084,-5.18257 0.88915,5.06582 0,0 z"
           id="path132690" /><path
           style="fill:#778c2b;stroke-width:0.524184"
           d="m 857.19796,451.8333 c -2.65439,-0.63121 -1.17636,3.00657 0,0 z"
           id="path132692" /><path
           style="fill:#778c2b;stroke-width:0.524184"
           d="m 870.80897,463.9373 c -5.09049,-2.56379 -9.21941,-4.84828 -9.64897,-6.6765 -3.71666,-0.29913 -6.43014,-2.02015 -3.22835,-3.44358 -6.88124,0.55344 -2.7955,-10.06299 -7.61819,-13.15356 -2.82102,-5.49644 4.94253,-16.98498 1.63046,-5.43164 2.67332,12.2827 14.49543,20.39878 21.15825,29.61159 -0.84092,0.1043 -1.79121,-0.18914 -2.2932,-0.90631 z"
           id="path132694" /><path
           style="fill:#778c2b;stroke-width:0.524184"
           d="m 878.13154,467.77453 c 1.87398,-3.11765 -0.27572,2.17675 0,0 z"
           id="path132696" /><path
           style="fill:#778c2b;stroke-width:0.524184"
           d="m 877.35292,471.81592 c 0.75479,-1.90867 0.0611,2.51695 0,0 z"
           id="path132698" /><path
           style="fill:#778c2b;stroke-width:0.524184"
           d="m 880.57827,473.17002 c 0.2742,-3.88993 0.33203,3.79537 0,0 z"
           id="path132700" /><path
           style="fill:#526028;stroke-width:0.524184"
           d="m 881.89696,418.80137 c -3.29094,-4.21654 2.5479,-13.52017 1.48958,-4.0271 -10e-4,1.29716 0.30336,3.69876 -1.48958,4.0271 z"
           id="path132702" /><path
           style="fill:#526028;stroke-width:0.524184"
           d="m 875.40468,497.02124 c -0.94593,-11.1088 6.43761,-24.57012 -3.11486,-33.66016 -7.71069,-9.12463 -19.44031,-17.35455 -19.9537,-30.30774 4.9437,13.23506 16.70695,21.85791 24.46563,33.26465 5.64461,0.76535 -0.62175,-18.16908 4.52701,-16.88919 0.02,4.49988 -0.38931,15.66796 4.47259,5.94895 7.65826,-10.02565 -1.23907,4.7944 -3.16469,8.18707 -4.28987,10.82572 -1.05966,23.19622 -5.75917,33.99106 -0.48407,0.60631 -1.35147,0.0589 -1.47281,-0.53464 z"
           id="path132704" /></g></g></g></svg>
