<?xml version="1.0" encoding="UTF-8" standalone="no"?>
<!-- Created with Inkscape (http://www.inkscape.org/) -->

<svg
   width="163.46057mm"
   height="280.00412mm"
   viewBox="0 0 163.46057 280.00412"
   version="1.1"
   id="svg5"
   xml:space="preserve"
   xmlns="http://www.w3.org/2000/svg"
   xmlns:svg="http://www.w3.org/2000/svg"><defs
     id="defs2" /><g
     id="layer1"
     style="display:inline;opacity:1"
     transform="translate(4164.1925,699.91945)"><g
       id="g134174"
       transform="matrix(2.2040458,0,0,2.2040458,-6034.283,-1515.3729)"><path
         style="fill:#f6f9fb;stroke-width:0.524184"
         d="m 898.96732,446.44219 c 3.65946,3.19182 -0.28175,4.05002 0,0 z"
         id="path133994" /><path
         style="fill:#f6f9fb;stroke-width:0.524184"
         d="m 890.3694,445.75903 c -13.53139,3.51189 3.81929,4.49295 5.40173,8.80307 6.4108,-3.93456 -0.66321,-9.88864 -5.40173,-8.80307 z"
         id="path133996" /><path
         style="fill:#f6f9fb;stroke-width:0.524184"
         d="m 899.85047,445.75203 c -7.4249,10.23452 15.44348,9.55494 0,0 z"
         id="path133998" /><path
         style="fill:#f6f9fb;stroke-width:0.524184"
         d="m 903.26628,442.64214 c -5.0816,12.97466 22.81394,8.89292 4.60406,1.94389 z"
         id="path134000" /><path
         style="fill:#f6f9fb;stroke-width:0.524184"
         d="m 885.10253,442.3326 c -15.29114,2.04621 11.04225,7.54186 0,0 z"
         id="path134002" /><path
         style="fill:#f6f9fb;stroke-width:0.524184"
         d="m 920.12417,436.62752 c -27.91071,0.24507 -0.61168,17.09783 2.39497,1.85198 z"
         id="path134004" /><path
         style="fill:#f6f9fb;stroke-width:0.524184"
         d="m 873.38025,432.27327 c -1.76239,16.74387 26.79542,5.93956 0,0 z"
         id="path134006" /><path
         style="fill:#f6f9fb;stroke-width:0.524184"
         d="m 921.1086,428.19499 c -6.97746,0.439 -20.54194,11.76008 -5.85136,6.589 -25.19544,7.8926 15.59474,2.99809 5.85136,-6.589 z"
         id="path134008" /><path
         style="fill:#f6f9fb;stroke-width:0.524184"
         d="m 904.4843,425.73623 c -4.09554,7.59886 -1.71335,2.03956 0,0 z"
         id="path134010" /><path
         style="fill:#f6f9fb;stroke-width:0.524184"
         d="m 873.83552,425.66443 c 0.7798,17.52751 24.75585,7.5609 0,0 z"
         id="path134012" /><path
         style="fill:#f6f9fb;stroke-width:0.524184"
         d="m 920.43526,420.29008 c -18.36323,7.8314 -14.18396,20.90953 1.75026,4.5786 l 0.12661,-2.16967 z"
         id="path134014" /><path
         style="fill:#f6f9fb;stroke-width:0.524184"
         d="m 912.79387,418.13879 c -19.51316,21.11835 6.98569,8.67332 0,0 z"
         id="path134016" /><path
         style="fill:#f6f9fb;stroke-width:0.524184"
         d="m 878.58045,417.16729 c -5.85627,22.24984 23.30003,14.40096 0,0 z"
         id="path134018" /><path
         style="fill:#f6f9fb;stroke-width:0.524184"
         d="m 908.94139,413.45236 c -20.47345,15.26883 0.85351,29.66394 0,0 z"
         id="path134020" /><path
         style="fill:#f6f9fb;stroke-width:0.524184"
         d="m 896.96227,410.94296 c -9.53408,10.48648 1.59809,12.59353 0.38941,15.07544 0.57376,-3.40631 4.21227,6.471 3.83858,-10.64163 -0.37865,-2.21585 -1.96097,-4.0958 -4.22799,-4.43381 z"
         id="path134022" /><path
         style="fill:#f6f9fb;stroke-width:0.524184"
         d="m 888.79688,408.85884 c -12.41422,1.88371 4.73235,32.49609 1.01909,13.51901 3.80927,20.05888 3.85358,-12.32078 -1.01909,-13.51901 z"
         id="path134024" /><path
         style="fill:#f6f9fb;stroke-width:0.524184"
         d="m 886.86576,405.81252 c -8.26755,5.88697 15.22394,5.26841 0,0 z"
         id="path134026" /><path
         style="fill:#f6f9fb;stroke-width:0.524184"
         d="m 890.35082,405.55052 c 4.92546,10.55362 17.14141,0.17764 0,0 z"
         id="path134028" /><path
         style="fill:#f6f9fb;stroke-width:0.524184"
         d="m 879.97058,405.04567 c -18.36675,3.03171 1.59353,22.44987 0,0 z"
         id="path134030" /><path
         style="fill:#f6f9fb;stroke-width:0.524184"
         d="m 890.37253,404.04263 c -3.50016,-0.50245 1.20566,1.25735 0,0 z"
         id="path134032" /><path
         style="fill:#f6f9fb;stroke-width:0.524184"
         d="m 873.13895,401.11623 c -24.82198,9.67913 9.32282,3.73312 -0.99366,2.02296 2.56854,1.93412 3.93865,-3.31118 0.99366,-2.02296 z"
         id="path134034" /><path
         style="fill:#f6f9fb;stroke-width:0.524184"
         d="m 902.67875,401.09663 c -26.5442,3.03696 21.78929,11.03077 0,0 z"
         id="path134036" /><path
         style="fill:#f6f9fb;stroke-width:0.524184"
         d="m 856.03199,394.20244 c 5.3574,19.37892 28.94262,-0.47802 0,0 z"
         id="path134038" /><path
         style="fill:#f6f9fb;stroke-width:0.524184"
         d="m 907.37252,392.30285 c -18.58731,1.40421 -12.60503,21.60984 0,0 z"
         id="path134040" /><path
         style="fill:#f6f9fb;stroke-width:0.524184"
         d="m 873.29036,391.61659 c -0.46425,3.02074 4.19786,1.36899 0,0 z"
         id="path134042" /><path
         style="fill:#f6f9fb;stroke-width:0.524184"
         d="m 855.1447,388.59041 c 5.57347,15.69485 22.96828,0.42004 0,0 z"
         id="path134044" /><path
         style="fill:#f6f9fb;stroke-width:0.524184"
         d="m 910.14238,386.23451 c -20.45408,2.79282 -10.75776,18.68555 0,0 z"
         id="path134046" /><path
         style="fill:#f6f9fb;stroke-width:0.524184"
         d="m 857.93265,385.45936 c -1.19933,8.69316 14.88086,-0.75305 0,0 z"
         id="path134048" /><path
         style="fill:#f6f9fb;stroke-width:0.524184"
         d="m 908.42775,383.93439 c -11.94518,0.92978 3.79574,4.74183 0,0 z"
         id="path134050" /><path
         style="fill:#f6f9fb;stroke-width:0.524184"
         d="m 865.38697,376.7204 c -4.84715,16.6918 9.75066,12.25834 9.05123,12.70754 -1.80316,-4.9225 -4.7566,-9.58938 -9.05123,-12.70754 z"
         id="path134052" /><path
         style="fill:#f6f9fb;stroke-width:0.524184"
         d="m 870.78406,373.17436 c -3.17992,17.93361 16.24345,23.65983 1.42178,1.84214 l -1.13455,-1.46999 z"
         id="path134054" /><path
         style="fill:#f6f9fb;stroke-width:0.524184"
         d="m 898.49554,371.86915 c -20.39716,13.42649 9.25768,7.37808 0,0 z"
         id="path134056" /><path
         style="fill:#f6f9fb;stroke-width:0.524184"
         d="m 889.75241,371.54617 c -11.42899,18.87192 2.47522,20.05314 5.36158,17.92993 -2.41846,17.17232 18.74684,-28.28306 -2.1154,-5.86714 -9.78705,16.72147 2.42187,-7.68942 -3.24618,-12.06279 z"
         id="path134058" /><path
         style="fill:#f6f9fb;stroke-width:0.524184"
         d="m 882.22212,370.0095 c -13.74447,10.38464 -1.3543,6.00808 -1.43008,19.81573 1.28761,-11.97349 6.14001,6.8936 5.75031,-15.37181 0.112,-2.26362 -1.95219,-4.77293 -4.32023,-4.44392 z"
         id="path134060" /><path
         style="fill:#f3cb46;stroke-width:0.524184"
         d="m 890.20701,402.86719 c -15.7477,1.19577 -18.30358,-20.47383 1.75407,-7.11156 1.84932,2.25575 0.69104,5.816 -1.75407,7.11156 z"
         id="path134062" /><path
         style="fill:#f3cb46;stroke-width:0.524184"
         d="m 875.55449,402.15053 c -4.9215,-5.89142 5.71718,4.71452 0,0 z"
         id="path134064" /><path
         style="fill:#f3cb46;stroke-width:0.524184"
         d="m 887.79524,405.34425 c 0.95527,-2.26958 1.68274,1.05866 0,0 z"
         id="path134066" /><path
         style="fill:#f3cb46;stroke-width:0.524184"
         d="m 885.31533,405.71119 c 2.48889,-1.8722 1.24204,1.40747 0,0 z"
         id="path134068" /><path
         style="fill:#f3cb46;stroke-width:0.524184"
         d="m 880.8498,405.25044 c -2.93778,-3.03626 6.56157,3.58061 0,0 z"
         id="path134070" /><path
         style="fill:#f3cb46;stroke-width:0.524184"
         d="m 904.65191,437.00131 c 0.3746,-3.46716 0.39916,2.76868 0,0 z"
         id="path134072" /><path
         style="fill:#f3cb46;stroke-width:0.524184"
         d="m 904.34075,441.04113 c 1.60281,-3.53359 0.20142,1.95298 0,0 z"
         id="path134074" /><path
         style="fill:#f3cb46;stroke-width:0.524184"
         d="m 896.32047,440.92419 c -25.74951,-11.67022 22.6518,-12.947 0,0 z"
         id="path134076" /><path
         style="fill:#f3cb46;stroke-width:0.524184"
         d="m 886.50496,439.33998 c -0.14207,-7.64094 1.38977,7.80636 0,0 z"
         id="path134078" /><path
         style="fill:#f3cb46;stroke-width:0.524184"
         d="m 901.42403,443.08551 c 0.95527,-2.26958 1.68274,1.05866 0,0 z"
         id="path134080" /><path
         style="fill:#f3cb46;stroke-width:0.524184"
         d="m 888.24646,443.7846 c -1.60383,-2.6419 4.69157,4.15832 0,0 z"
         id="path134082" /><path
         style="fill:#f3cb46;stroke-width:0.524184"
         d="m 898.84678,445.77581 c 0.63336,-0.42987 0.63336,-0.42987 0,0 z"
         id="path134084" /><path
         style="fill:#f3cb46;stroke-width:0.524184"
         d="m 891.20616,445.39426 c 1.41323,-1.19427 0.78064,2.25307 0,0 z"
         id="path134086" /><path
         style="fill:#f3cb46;stroke-width:0.524184"
         d="m 897.13227,446.07855 c 1.74055,-1.69987 0.62047,1.43548 0,0 z"
         id="path134088" /><path
         style="fill:#f3cb46;stroke-width:0.524184"
         d="m 895.03554,446.60274 c 1.74057,-1.69988 0.62046,1.43548 0,0 z"
         id="path134090" /><path
         style="fill:#e7a314;stroke-width:0.524184"
         d="m 879.87597,404.32722 c -20.33475,-16.20813 23.10647,-0.58887 4.37451,1.19087 z"
         id="path134092" /><path
         style="fill:#e7a314;stroke-width:0.524184"
         d="m 890.89065,444.73303 c -11.63779,-15.17889 8.8042,1.02933 13.6125,-7.05825 0.82491,6.31976 -8.83785,11.02512 -13.6125,7.05825 z"
         id="path134094" /><path
         style="fill:#90a334;stroke-width:0.524184"
         d="m 851.66817,429.74057 c -5.7917,-5.11448 7.4757,-3.91545 0,0 z"
         id="path134096" /><path
         style="fill:#90a334;stroke-width:0.524184"
         d="m 854.38277,437.2449 c -6.35757,-8.6721 7.62314,-8.74572 0,0 z"
         id="path134098" /><path
         style="fill:#90a334;stroke-width:0.524184"
         d="m 855.82578,439.33396 c -0.23582,-8.46719 3.64034,1.77326 0,0 z"
         id="path134100" /><path
         style="fill:#90a334;stroke-width:0.524184"
         d="m 848.48079,438.30913 c 1.99377,-21.27981 3.82876,10.30219 0,0 z"
         id="path134102" /><path
         style="fill:#90a334;stroke-width:0.524184"
         d="m 850.36847,444.54954 c -2.54868,-7.6049 6.49833,1.47986 0,0 z"
         id="path134104" /><path
         style="fill:#90a334;stroke-width:0.524184"
         d="m 864.20695,448.89992 c -8.10399,-9.06696 5.16751,-3.58595 0,0 z"
         id="path134106" /><path
         style="fill:#90a334;stroke-width:0.524184"
         d="m 861.68222,447.93068 c -8.3439,-9.1921 0.0977,-16.31754 0,0 z"
         id="path134108" /><path
         style="fill:#90a334;stroke-width:0.524184"
         d="m 889.97475,451.15432 c 0.37456,-3.46741 0.39921,2.76864 0,0 z"
         id="path134110" /><path
         style="fill:#90a334;stroke-width:0.524184"
         d="m 855.29582,452.72886 c 0.89192,-3.4035 2.80388,1.19554 0,0 z"
         id="path134112" /><path
         style="fill:#90a334;stroke-width:0.524184"
         d="m 853.72327,452.54129 c -6.13605,-8.42441 4.74233,-4.02049 0,0 z"
         id="path134114" /><path
         style="fill:#90a334;stroke-width:0.524184"
         d="m 865.59391,453.03209 c -2.17697,-8.27498 5.06955,2.4754 0,0 z"
         id="path134116" /><path
         style="fill:#90a334;stroke-width:0.524184"
         d="m 855.10081,454.93212 c 2.27567,-4.85833 4.9727,3.113 0,0 z"
         id="path134118" /><path
         style="fill:#90a334;stroke-width:0.524184"
         d="m 868.03033,455.60665 c -3.75596,-7.80722 4.63015,-2.66899 0,0 z"
         id="path134120" /><path
         style="fill:#90a334;stroke-width:0.524184"
         d="m 870.62821,457.85194 c -3.03261,-8.85061 5.8376,3.10786 0,0 z"
         id="path134122" /><path
         style="fill:#90a334;stroke-width:0.524184"
         d="m 858.77415,458.75123 c -7.86963,-7.09796 13.70852,2.90426 0,0 z"
         id="path134124" /><path
         style="fill:#90a334;stroke-width:0.524184"
         d="m 861.45498,460.75095 c 1.09109,-4.49104 5.59476,3.25401 0,0 z"
         id="path134126" /><path
         style="fill:#90a334;stroke-width:0.524184"
         d="m 873.29793,460.6955 c -3.09736,-5.92933 3.55393,-2.83036 0,0 z"
         id="path134128" /><path
         style="fill:#90a334;stroke-width:0.524184"
         d="m 870.0713,464.14754 c -11.23506,-0.52485 -0.60228,-5.71608 0,0 z"
         id="path134130" /><path
         style="fill:#778c2b;stroke-width:0.524184"
         d="m 881.13794,412.88884 c 0.3857,-5.05622 0.16796,4.40256 0,0 z"
         id="path134132" /><path
         style="fill:#778c2b;stroke-width:0.524184"
         d="m 881.71733,419.048 c -2.73308,-3.48739 4.4973,4.60726 0,0 z"
         id="path134134" /><path
         style="fill:#778c2b;stroke-width:0.524184"
         d="m 852.71628,433.55043 c 0.87161,-1.83113 -0.10168,2.63762 0,0 z"
         id="path134136" /><path
         style="fill:#778c2b;stroke-width:0.524184"
         d="m 889.40915,436.69554 c 0.87168,-1.83122 -0.10173,2.63751 0,0 z"
         id="path134138" /><path
         style="fill:#778c2b;stroke-width:0.524184"
         d="m 856.9371,442.06408 c -5.93023,-7.95186 4.9598,-5.77739 0,0 z"
         id="path134140" /><path
         style="fill:#778c2b;stroke-width:0.524184"
         d="m 859.31457,445.039 c -2.58732,-3.38278 2.88415,-4.47775 0,0 z"
         id="path134142" /><path
         style="fill:#778c2b;stroke-width:0.524184"
         d="m 879.44965,447.70359 c 0.87168,-1.83121 -0.10174,2.63751 0,0 z"
         id="path134144" /><path
         style="fill:#778c2b;stroke-width:0.524184"
         d="m 861.51917,448.14041 c 0.25109,0.1894 0.25109,0.1894 0,0 z"
         id="path134146" /><path
         style="fill:#778c2b;stroke-width:0.524184"
         d="m 881.54639,449.80031 c 0.87168,-1.83122 -0.10173,2.63751 0,0 z"
         id="path134148" /><path
         style="fill:#778c2b;stroke-width:0.524184"
         d="m 863.68277,450.71746 c -7.68534,-13.60044 6.17111,1.39588 0,0 z"
         id="path134150" /><path
         style="fill:#778c2b;stroke-width:0.524184"
         d="m 867.16736,451.94056 c 1.16536,-7.47247 0.24879,5.8502 0,0 z"
         id="path134152" /><path
         style="fill:#778c2b;stroke-width:0.524184"
         d="m 868.93264,454.46141 c -0.45273,-4.49124 2.0834,1.4047 0,0 z"
         id="path134154" /><path
         style="fill:#778c2b;stroke-width:0.524184"
         d="m 870.18527,457.8376 c -2.73305,-3.48738 4.49734,4.60731 0,0 z"
         id="path134156" /><path
         style="fill:#778c2b;stroke-width:0.524184"
         d="m 872.06972,457.18237 c 0.78039,-5.24827 0.90309,5.08425 0,0 z"
         id="path134158" /><path
         style="fill:#778c2b;stroke-width:0.524184"
         d="m 857.19796,451.8333 c -2.76724,-0.89122 -0.7309,3.17405 0,0 z"
         id="path134160" /><path
         style="fill:#778c2b;stroke-width:0.524184"
         d="m 870.80897,463.9373 c -17.04949,0.7388 -22.55858,-34.20973 -18.86505,-28.70528 0.57502,10.90764 20.62645,25.23747 18.86505,28.70528 z"
         id="path134162" /><path
         style="fill:#778c2b;stroke-width:0.524184"
         d="m 878.13154,467.77453 c 1.60279,-3.53366 0.20146,1.95292 0,0 z"
         id="path134164" /><path
         style="fill:#778c2b;stroke-width:0.524184"
         d="m 877.35292,471.81592 c 0.87169,-1.83121 -0.10174,2.63751 0,0 z"
         id="path134166" /><path
         style="fill:#778c2b;stroke-width:0.524184"
         d="m 880.57827,473.17002 c 0.26413,-3.9186 0.34057,3.78061 0,0 z"
         id="path134168" /><path
         style="fill:#526028;stroke-width:0.524184"
         d="m 881.89696,418.80137 c -4.07647,-11.03981 6.09489,-9.33329 0,0 z"
         id="path134170" /><path
         style="fill:#526028;stroke-width:0.524184"
         d="m 875.40468,497.02124 c 15.20122,-23.6629 -25.98536,-55.36123 -20.91615,-59.2065 9.10113,12.59811 28.03969,43.84895 26.84023,11.61406 -2.92942,21.37079 15.10124,-8.98699 1.3079,14.13602 -4.93611,9.53005 0.17587,28.12605 -7.23198,33.45642 z"
         id="path134172" /></g></g></svg>
