<?xml version="1.0" encoding="UTF-8" standalone="no"?>
<!-- Created with Inkscape (http://www.inkscape.org/) -->

<svg
   width="186.33255mm"
   height="249.83215mm"
   viewBox="0 0 186.33255 249.83215"
   version="1.1"
   id="svg5"
   xml:space="preserve"
   xmlns="http://www.w3.org/2000/svg"
   xmlns:svg="http://www.w3.org/2000/svg"><defs
     id="defs2" /><g
     id="layer1"
     style="display:inline;opacity:1"
     transform="translate(3980.2479,670.04681)"><g
       id="g133082"
       transform="matrix(2.2040458,0,0,2.2040458,-5316.9603,-1202.2882)"><path
         style="fill:#f6f9fb;stroke-width:0.524184"
         d="m 613.04113,288.66818 c -3.62366,8.66556 7.99767,11.784 0,0 z"
         id="path132998" /><path
         style="fill:#f6f9fb;stroke-width:0.524184"
         d="m 617.56437,287.3556 c -11.33514,8.66685 14.60531,15.66551 0,0 z"
         id="path133000" /><path
         style="fill:#f6f9fb;stroke-width:0.524184"
         d="m 611.42418,284.55785 c -2.14758,4.09954 4.92579,1.99716 0,0 z"
         id="path133002" /><path
         style="fill:#f6f9fb;stroke-width:0.524184"
         d="m 608.26313,283.80031 c -1.42836,13.68668 9.06677,10.2682 0,0 z"
         id="path133004" /><path
         style="fill:#f6f9fb;stroke-width:0.524184"
         d="m 614.89942,282.2082 c -8.57021,1.98896 5.63778,6.26271 0,0 z"
         id="path133006" /><path
         style="fill:#f6f9fb;stroke-width:0.524184"
         d="m 617.24346,280.27085 c -5.51602,4.23626 6.90168,2.98368 0,0 z"
         id="path133008" /><path
         style="fill:#f6f9fb;stroke-width:0.524184"
         d="m 619.6459,279.67451 c 7.54279,8.47084 -6.08582,9.92296 6.76168,14.36152 4.04035,-5.55095 -1.23724,-12.57806 -6.76168,-14.36152 z"
         id="path133010" /><path
         style="fill:#f6f9fb;stroke-width:0.524184"
         d="m 649.93966,264.60059 c -25.03055,20.23907 18.3126,26.79494 2.32911,5.04095 1.05753,4.88243 -3.20973,-2.41051 -2.32911,-5.04095 z"
         id="path133012" /><path
         style="fill:#f6f9fb;stroke-width:0.524184"
         d="m 672.37498,264.56857 c 5.15023,19.44409 19.62109,9.33759 0,0 z"
         id="path133014" /><path
         style="fill:#f6f9fb;stroke-width:0.524184"
         d="m 663.51816,264.38667 c 4.99015,4.86874 0.49353,5.57364 0,0 z"
         id="path133016" /><path
         style="fill:#f6f9fb;stroke-width:0.524184"
         d="m 666.17949,262.81414 c -10.49307,5.72308 1.44749,7.75075 -12.91302,2.50858 4.37688,9.24206 15.51187,28.89179 16.57229,8.12819 14.68956,24.23437 11.05255,-4.1402 -3.65927,-10.63677 z"
         id="path133018" /><path
         style="fill:#f6f9fb;stroke-width:0.524184"
         d="m 645.99209,261.59458 c -4.17674,9.75769 -5.95503,5.52676 0,0 z"
         id="path133020" /><path
         style="fill:#f6f9fb;stroke-width:0.524184"
         d="m 641.86366,260.87579 c -13.64615,8.01219 -9.6111,9.20924 -9.83082,1.24046 -34.7494,16.41052 29.50223,18.48111 10.87623,0.64626 -7.24498,7.08267 3.70046,-2.54787 -1.04541,-1.88672 z"
         id="path133022" /><path
         style="fill:#f6f9fb;stroke-width:0.524184"
         d="m 673.40386,259.36787 c -18.30276,2.11776 37.27729,18.62616 4.03164,0.034 l -2.65458,-0.0192 z"
         id="path133024" /><path
         style="fill:#f6f9fb;stroke-width:0.524184"
         d="m 634.1308,258.47955 c -6.11272,2.9575 -5.52987,-1.29128 0,0 z"
         id="path133026" /><path
         style="fill:#f6f9fb;stroke-width:0.524184"
         d="m 683.041,258.14779 c -0.23342,11.16623 18.0742,6.53212 0,0 z"
         id="path133028" /><path
         style="fill:#f6f9fb;stroke-width:0.524184"
         d="m 616.1996,257.26877 c 3.60513,0.6988 -4.90179,0.0166 0,0 z"
         id="path133030" /><path
         style="fill:#f6f9fb;stroke-width:0.524184"
         d="m 632.13403,255.70298 c -27.99371,3.14649 -2.24789,13.59082 5.89116,2.92705 -1.67873,-1.53399 -3.84602,-2.12622 -5.89116,-2.92705 z"
         id="path133032" /><path
         style="fill:#f6f9fb;stroke-width:0.524184"
         d="m 608.97575,254.63891 c -12.4734,12.97256 27.30585,1.31843 0,0 z"
         id="path133034" /><path
         style="fill:#f6f9fb;stroke-width:0.524184"
         d="m 678.5007,252.12744 c -28.04836,6.85731 14.51079,11.32323 0,0 z"
         id="path133036" /><path
         style="fill:#f6f9fb;stroke-width:0.524184"
         d="m 629.11044,250.40767 c 2.90165,-0.51112 0.73227,2.24015 0,0 z"
         id="path133038" /><path
         style="fill:#f6f9fb;stroke-width:0.524184"
         d="m 665.47773,246.72265 c -15.981,5.21049 19.58504,11.62566 0,0 z"
         id="path133040" /><path
         style="fill:#f6f9fb;stroke-width:0.524184"
         d="m 631.74128,246.02967 c 6.50174,1.28234 2.11613,3.99606 0,0 z"
         id="path133042" /><path
         style="fill:#f6f9fb;stroke-width:0.524184"
         d="m 623.71903,244.28972 c 3.96323,0.31061 5.27818,5.82949 0,0 z"
         id="path133044" /><path
         style="fill:#f6f9fb;stroke-width:0.524184"
         d="m 625.82537,241.59014 c -20.93089,2.2511 -4.67704,8.5704 -17.7144,11.02984 17.69096,8.34266 18.28661,-0.85444 17.7403,-0.92519 8.07482,5.40556 23.21502,-11.70654 -0.0259,-10.10465 z"
         id="path133046" /><path
         style="fill:#f3cb46;stroke-width:0.524184"
         d="m 633.82799,251.44007 c 3.45824,-3.24678 -2.20453,3.10706 0,0 z"
         id="path133048" /><path
         style="fill:#f3cb46;stroke-width:0.524184"
         d="m 638.5028,258.85297 c -8.45157,-4.21901 3.05984,0.10974 0,0 z"
         id="path133050" /><path
         style="fill:#f3cb46;stroke-width:0.524184"
         d="m 666.28057,260.08912 c -9.63543,-1.37149 -46.50245,-13.288 -14.82969,-14.74946 5.15857,2.74658 17.50566,7.07056 14.82969,14.74946 z"
         id="path133052" /><path
         style="fill:#f3cb46;stroke-width:0.524184"
         d="m 645.91508,261.12082 c -1.22752,-2.59679 3.80882,3.89105 0,0 z"
         id="path133054" /><path
         style="fill:#f3cb46;stroke-width:0.524184"
         d="m 661.52402,263.66941 c 2.27691,-2.04076 5.72908,0.66122 0,0 z"
         id="path133056" /><path
         style="fill:#f3cb46;stroke-width:0.524184"
         d="m 653.10173,263.65721 c 2.48883,-1.87187 1.24204,1.40704 0,0 z"
         id="path133058" /><path
         style="fill:#f3cb46;stroke-width:0.524184"
         d="m 647.652,263.10314 c 2.03807,-1.49691 2.08431,3.09319 0,0 z"
         id="path133060" /><path
         style="fill:#f3cb46;stroke-width:0.524184"
         d="m 656.36791,263.98244 c 4.4951,-2.07407 3.11514,1.91138 0,0 z"
         id="path133062" /><path
         style="fill:#f3cb46;stroke-width:0.524184"
         d="m 613.36525,288.62548 c 4.58102,-10.24942 6.24433,0.32708 0,0 z"
         id="path133064" /><path
         style="fill:#e7a314;stroke-width:0.524184"
         d="m 653.2228,263.42814 c -19.34922,1.0395 -24.51542,-21.87268 -3.11773,-6.96266 12.97618,-3.31136 28.0468,7.44841 3.11773,6.96266 z"
         id="path133066" /><path
         style="fill:#e7a314;stroke-width:0.524184"
         d="m 613.64689,288.18769 c 2.34243,-5.36647 8.73836,-0.88574 0,0 z"
         id="path133068" /><path
         style="fill:#90a334;stroke-width:0.524184"
         d="m 627.90206,288.39508 c 0.66129,-2.76311 -0.0555,3.925 0,0 z"
         id="path133070" /><path
         style="fill:#778c2b;stroke-width:0.524184"
         d="m 646.71188,293.06902 c 0.8716,-1.83116 -0.10158,2.63759 0,0 z"
         id="path133072" /><path
         style="fill:#778c2b;stroke-width:0.524184"
         d="m 642.51841,299.88342 c 0.87162,-1.83124 -0.10172,2.63751 0,0 z"
         id="path133074" /><path
         style="fill:#778c2b;stroke-width:0.524184"
         d="m 648.28444,341.81819 c 0.87163,-1.8312 -0.10174,2.63756 0,0 z"
         id="path133076" /><path
         style="fill:#778c2b;stroke-width:0.524184"
         d="m 644.61515,342.86656 c 0.87162,-1.83122 -0.10173,2.63753 0,0 z"
         id="path133078" /><path
         style="fill:#526028;stroke-width:0.524184"
         d="m 645.71239,354.83543 c 9.87478,-22.25589 -32.83803,-64.30086 -30.75903,-56.25454 11.90022,2.16169 16.6741,-19.87811 13.70872,3.56167 1.81561,11.23546 19.49733,31.49371 13.97927,5.86016 -3.05101,-14.68924 8.85238,-31.17882 2.70228,-6.85123 -4.31743,15.63897 9.29081,45.00864 0.36876,53.68394 z"
         id="path133080" /></g></g></svg>
