<?xml version="1.0" encoding="UTF-8" standalone="no"?>
<!-- Created with Inkscape (http://www.inkscape.org/) -->

<svg
   width="171.57071mm"
   height="292.66284mm"
   viewBox="0 0 171.57071 292.66284"
   version="1.1"
   id="svg5"
   xml:space="preserve"
   xmlns="http://www.w3.org/2000/svg"
   xmlns:svg="http://www.w3.org/2000/svg"><defs
     id="defs2" /><g
     id="layer1"
     style="display:inline;opacity:1"
     transform="translate(2311.9364,352.63392)"><g
       id="g142451"><g
         id="g131754"
         transform="matrix(2.2040458,0,0,2.2040458,-3917.0712,-863.9958)"><path
           style="fill:#f6f9fb;stroke-width:0.524184"
           d="m 746.68982,318.01939 c 1.40753,1.6355 -4.20658,0.0683 0,0 z"
           id="path131616" /><path
           style="fill:#f6f9fb;stroke-width:0.524184"
           d="m 762.2589,317.39255 c 1.11473,2.65118 -1.14818,1.73749 0,0 z"
           id="path131618" /><path
           style="fill:#f6f9fb;stroke-width:0.524184"
           d="m 762.5948,313.65531 c -10.10848,-0.18855 -1.27793,19.06163 1.7093,5.60519 0.39671,-1.9195 0.25347,-4.55999 -1.7093,-5.60519 z"
           id="path131620" /><path
           style="fill:#f6f9fb;stroke-width:0.524184"
           d="m 754.85987,313.2419 c -5.20815,1.7972 -22.17228,4.34738 -15.51895,11.54504 5.19165,0.44507 20.83319,-15.55465 12.95633,-4.05128 4.39685,4.75456 9.21093,-8.78887 2.56262,-7.49376 z"
           id="path131622" /><path
           style="fill:#f6f9fb;stroke-width:0.524184"
           d="m 752.39594,312.3479 c -6.99702,2.83571 -23.53285,-5.16181 -22.63646,7.05889 6.97214,-3.10992 15.99573,-2.84992 22.63646,-7.05889 z"
           id="path131624" /><path
           style="fill:#f6f9fb;stroke-width:0.524184"
           d="m 766.98884,311.97014 c -9.17281,5.03477 12.75968,12.09278 3.43346,2.43155 -1.06061,-0.92142 -2.21831,-1.72794 -3.43346,-2.43155 z"
           id="path131626" /><path
           style="fill:#f6f9fb;stroke-width:0.524184"
           d="m 770.47649,311.31385 c 5.84659,3.43444 -1.80361,3.19473 4.20829,7.51472 7.7252,7.40396 14.61321,-3.40373 3.61825,-6.00879 -2.53868,-0.8225 -5.20686,-1.07199 -7.82654,-1.50593 z"
           id="path131628" /><path
           style="fill:#f6f9fb;stroke-width:0.524184"
           d="m 744.62897,309.68295 c 5.26849,0.4954 -6.42184,0.18447 0,0 z"
           id="path131630" /><path
           style="fill:#f6f9fb;stroke-width:0.524184"
           d="m 736.00727,307.18749 c -10.28715,-1.03551 -8.83581,8.52874 0.83068,4.68615 4.63333,1.93582 18.85134,-1.68981 8.07827,-4.56034 -2.96663,-0.29998 -5.95583,0.40318 -8.90895,-0.12581 z"
           id="path131632" /><path
           style="fill:#f6f9fb;stroke-width:0.524184"
           d="m 776.73295,306.97097 c -11.66467,0.24293 16.12044,5.51699 3.8623,3.54015 -5.74075,-3.0683 -14.14604,0.0566 -3.76891,1.01744 4.20543,2.88708 23.02921,4.41484 14.08997,-2.53065 -4.45774,-2.00967 -9.46341,-1.41094 -14.18336,-2.02694 z"
           id="path131634" /><path
           style="fill:#f6f9fb;stroke-width:0.524184"
           d="m 737.83507,304.97161 c 1.5866,0.99526 -2.55476,-0.13512 0,0 z"
           id="path131636" /><path
           style="fill:#f6f9fb;stroke-width:0.524184"
           d="m 742.38983,303.42441 c 2.06023,-0.25976 5.01443,3.01746 1.40435,1.01755 z"
           id="path131638" /><path
           style="fill:#f6f9fb;stroke-width:0.524184"
           d="m 730.27325,302.38365 c -9.26274,5.19249 17.33361,5.01021 3.74979,0.3696 l -1.87144,-0.24339 z"
           id="path131640" /><path
           style="fill:#f6f9fb;stroke-width:0.524184"
           d="m 778.40107,302.34485 c -2.80316,-0.47065 -1.93399,2.54606 0,0 z"
           id="path131642" /><path
           style="fill:#f6f9fb;stroke-width:0.524184"
           d="m 791.5336,301.8808 c -4.55632,0.65682 -16.96833,0.59447 -15.52235,4.27007 3.16105,0.89415 27.71616,-1.50281 15.52235,-4.27007 z"
           id="path131644" /><path
           style="fill:#f6f9fb;stroke-width:0.524184"
           d="m 741.15889,300.90101 c 6.67449,1.39242 8.7084,6.04475 0,0 z"
           id="path131646" /><path
           style="fill:#f6f9fb;stroke-width:0.524184"
           d="m 732.99247,296.51989 c -5.12164,5.20367 9.70974,7.9485 12.80742,10.41028 12.59229,-4.70585 -9.83828,-8.78762 -12.80742,-10.41028 z"
           id="path131648" /><path
           style="fill:#f6f9fb;stroke-width:0.524184"
           d="m 746.14929,295.26363 c 5.7855,1.78244 4.66007,8.84951 -0.34579,1.9341 1.59812,1.24354 4.87654,1.58738 0.34579,-1.9341 z"
           id="path131650" /><path
           style="fill:#f6f9fb;stroke-width:0.524184"
           d="m 792.79089,295.18303 c -5.98055,0.86852 -16.02715,4.47533 -18.02692,7.91333 6.83618,-4.04041 13.75097,1.97915 21.3437,-5.00981 2.32311,-2.9136 -1.96581,-2.63797 -3.31678,-2.90352 z"
           id="path131652" /><path
           style="fill:#f6f9fb;stroke-width:0.524184"
           d="m 753.31526,292.85035 c 2.73561,3.0988 0.38434,3.59052 0,0 z"
           id="path131654" /><path
           style="fill:#f6f9fb;stroke-width:0.524184"
           d="m 790.81219,289.97301 c -6.27447,-0.36041 -16.16733,8.72266 -16.66182,9.73372 3.99831,-2.73269 21.02985,-2.80326 16.66182,-9.73372 z"
           id="path131656" /><path
           style="fill:#f6f9fb;stroke-width:0.524184"
           d="m 739.86388,289.11518 c -11.27739,1.51254 12.20085,19.06916 12.59,9.21004 -1.68582,-4.83343 -7.99965,-7.76193 -12.59,-9.21004 z"
           id="path131658" /><path
           style="fill:#f6f9fb;stroke-width:0.524184"
           d="m 765.40393,285.9412 c 1.11137,2.65386 -1.14516,1.7371 0,0 z"
           id="path131660" /><path
           style="fill:#f6f9fb;stroke-width:0.524184"
           d="m 748.17139,285.2932 c -8.43892,6.7576 14.80862,20.04688 6.38088,6.24291 -1.33164,-2.68041 -3.22229,-5.58638 -6.38088,-6.24291 z"
           id="path131662" /><path
           style="fill:#f6f9fb;stroke-width:0.524184"
           d="m 784.13457,280.27085 c -7.1358,1.4592 -13.75835,11.85104 -13.92233,16.52553 3.95531,-3.75109 4.87482,-5.69957 1.19625,-0.25609 1.24811,6.78353 22.23311,-13.76539 12.72608,-16.26944 z"
           id="path131664" /><path
           style="fill:#f6f9fb;stroke-width:0.524184"
           d="m 769.66878,279.35721 c -3.64837,6.52659 -11.43379,0.56455 -10.36149,9.98623 -0.25861,8.79444 0.0942,4.37798 -0.15734,-1.35733 -3.28028,-13.94474 -8.25221,12.30155 1.80053,8.21279 0.6167,-9.04527 0.95396,4.72635 4.44461,-2.08875 0.42554,-8.33173 0.7255,9.60266 3.42115,-1.43911 0.12419,-6.12055 0.14188,6.97098 2.84499,-1.77487 2.52203,-3.51694 3.65382,-10.29496 -1.99245,-11.53896 z"
           id="path131666" /><path
           style="fill:#f6f9fb;stroke-width:0.524184"
           d="m 771.25628,258.82579 c -9.37166,1.16849 2.01658,15.43162 1.77155,3.05794 -2.11959,-3.81102 -3.05606,3.71653 -1.77155,-3.05794 z"
           id="path131668" /><path
           style="fill:#f6f9fb;stroke-width:0.524184"
           d="m 781.28978,256.88275 c -10.45826,4.589 7.78915,21.46205 3.85706,7.45718 -1.12443,-2.5691 -2.79568,-4.85814 -3.85706,-7.45718 z"
           id="path131670" /><path
           style="fill:#f6f9fb;stroke-width:0.524184"
           d="m 775.46843,256.24816 c -6.90824,5.12909 3.38219,16.72389 2.9108,5.08592 0.56812,-2.12067 0.4313,-5.98293 -2.9108,-5.08592 z"
           id="path131672" /><path
           style="fill:#f6f9fb;stroke-width:0.524184"
           d="m 785.86004,255.34946 c -2.04723,4.05911 1.68006,7.74354 -2.39077,1.74483 -2.62295,6.64679 11.28385,16.9482 8.7713,6.20595 -3.21656,-2.34837 -7.17382,-9.48061 -1.76046,-5.00523 -2.79168,1.69218 16.78594,8.65865 9.56553,0.31008 -4.35186,-2.34237 -9.38001,-2.66184 -14.1856,-3.25563 z"
           id="path131674" /><path
           style="fill:#f6f9fb;stroke-width:0.524184"
           d="m 772.06967,254.24875 c -1.80834,2.42517 -5.61639,1.56955 0,0 z"
           id="path131676" /><path
           style="fill:#f6f9fb;stroke-width:0.524184"
           d="m 770.11578,252.54705 c -2.41066,2.04676 -4.20585,0.35026 0,-1e-5 z"
           id="path131678" /><path
           style="fill:#f6f9fb;stroke-width:0.524184"
           d="m 789.70219,249.96377 c -3.34272,1.19172 6.83832,3.05816 -0.18136,1.56418 -4.75533,6.27145 10.97196,3.5154 13.57133,7.8585 10.53876,-4.56328 -9.60137,-10.67848 -13.38997,-9.42268 z"
           id="path131680" /><path
           style="fill:#f6f9fb;stroke-width:0.524184"
           d="m 770.42378,248.94626 c -4.53706,1.39789 -17.34553,3.68069 -14.61676,7.78008 5.75305,-1.24745 7.22123,-2.20963 2.77698,3.05225 1.54757,7.76491 20.92903,-3.87515 11.83978,-10.83233 z"
           id="path131682" /><path
           style="fill:#f6f9fb;stroke-width:0.524184"
           d="m 759.8792,247.56134 c -8.12785,-1.11409 -6.84165,10.18667 0.43808,4.02678 2.37715,-0.85235 2.66751,-4.49794 -0.43808,-4.02678 z"
           id="path131684" /><path
           style="fill:#f6f9fb;stroke-width:0.524184"
           d="m 769.59178,246.73865 c 0.35483,2.04309 3.53184,-0.20777 0,0 z"
           id="path131686" /><path
           style="fill:#f6f9fb;stroke-width:0.524184"
           d="m 791.6075,245.69015 c -0.35411,2.04351 -3.53246,-0.20758 0,0 z"
           id="path131688" /><path
           style="fill:#f6f9fb;stroke-width:0.524184"
           d="m 803.01145,243.17196 c -5.19743,1.12442 -13.65336,8.00757 -3.31824,6.60287 3.20117,0.12354 8.14412,-4.5194 3.31824,-6.60287 z"
           id="path131690" /><path
           style="fill:#f6f9fb;stroke-width:0.524184"
           d="m 803.07811,238.3614 c -4.61557,1.07549 -18.25116,7.66187 -13.11191,9.86158 2.95317,-0.24759 21.22719,-7.70861 13.11191,-9.86158 z"
           id="path131692" /><path
           style="fill:#f6f9fb;stroke-width:0.524184"
           d="m 763.56631,237.32891 c 5.73952,2.36226 10.10595,8.22147 2.30738,1.93629 l -1.17956,-0.93677 z"
           id="path131694" /><path
           style="fill:#f6f9fb;stroke-width:0.524184"
           d="m 792.21211,234.94509 c -7.22356,0.78929 -8.24793,16.10693 0.46502,8.03769 3.7157,-1.71745 5.76518,-8.44104 -0.46502,-8.03769 z"
           id="path131696" /><path
           style="fill:#f6f9fb;stroke-width:0.524184"
           d="m 786.31221,234.88979 c -5.51343,1.78453 -1.77471,7.41461 -2.28541,6.08893 -1.85955,8.6288 7.21468,-6.38236 2.28541,-6.08893 z"
           id="path131698" /><path
           style="fill:#f6f9fb;stroke-width:0.524184"
           d="m 779.96738,232.6615 c -7.42976,2.44583 2.97097,14.77863 3.31499,3.76301 -0.26991,-1.70586 -1.56442,-3.4209 -3.31499,-3.76301 z"
           id="path131700" /><path
           style="fill:#f6f9fb;stroke-width:0.524184"
           d="m 772.00404,232.12562 c -7.6695,2.43365 8.87072,15.93347 -0.74555,6.00213 -2.28655,-4.8612 -11.0758,-4.39276 -10.43546,-1.75467 -3.83123,-1.78555 -9.47102,0.20409 -3.62827,3.45444 -11.40031,0.24262 12.98626,14.12899 10.98014,6.73835 -3.35508,-1.61631 -13.33967,-7.80479 -3.53322,-2.48107 2.37092,1.68566 8.68697,1.78553 2.45533,-0.67613 3.76871,3.30263 12.08927,2.02122 9.48697,-2.48886 6.38334,7.27507 -1.38872,-10.49203 -4.57994,-8.79419 z"
           id="path131702" /><path
           style="fill:#f3cb46;stroke-width:0.524184"
           d="m 779.35337,252.01758 c -6.19881,-0.16321 -12.17379,-3.3215 -4.39853,-7.54111 7.18807,-4.19293 19.37524,6.93172 8.26682,7.08479 -1.1004,0.69644 -2.64416,1.32438 -3.86829,0.45632 z"
           id="path131704" /><path
           style="fill:#f3cb46;stroke-width:0.524184"
           d="m 785.09881,254.96103 c 1.84985,-2.28362 3.0923,-0.68329 0,0 z"
           id="path131706" /><path
           style="fill:#f3cb46;stroke-width:0.524184"
           d="m 773.9081,255.04313 c -5.47078,-5.16927 3.89137,1.96575 0.44127,0.26328 z"
           id="path131708" /><path
           style="fill:#f3cb46;stroke-width:0.524184"
           d="m 782.20298,255.91232 c 4.43441,-3.17828 -1.71944,2.47528 0,0 z"
           id="path131710" /><path
           style="fill:#f3cb46;stroke-width:0.524184"
           d="m 777.06132,256.33477 c 1.85508,-0.68449 1.43428,1.01568 0,0 z"
           id="path131712" /><path
           style="fill:#f3cb46;stroke-width:0.524184"
           d="m 772.29344,307.00357 c 1.396,-5.99014 0.81529,1.24008 0,0 z"
           id="path131714" /><path
           style="fill:#f3cb46;stroke-width:0.524184"
           d="m 762.92555,300.78002 c 9.93006,-3.15324 -12.81092,-0.38198 -2.15947,0.10536 -2.23598,2.58748 1.54987,0.0287 2.15947,-0.10536 z"
           id="path131716" /><path
           style="fill:#f3cb46;stroke-width:0.524184"
           d="m 755.70082,301.96774 c -1.61855,-1.26137 -1.55345,2.11925 0,0 z"
           id="path131718" /><path
           style="fill:#f3cb46;stroke-width:0.524184"
           d="m 757.05574,308.12388 c -13.79833,-1.12301 0.35947,-13.94196 8.3021,-10.99861 15.38666,0.85691 -2.20569,13.97622 -8.3021,10.99861 z"
           id="path131720" /><path
           style="fill:#f3cb46;stroke-width:0.524184"
           d="m 770.37798,309.42658 c 0.86712,-1.8074 2.62695,-1.13621 0,0 z"
           id="path131722" /><path
           style="fill:#f3cb46;stroke-width:0.524184"
           d="m 749.40009,309.34978 c -1.72876,-3.5198 2.5045,2.71857 0,0 z"
           id="path131724" /><path
           style="fill:#f3cb46;stroke-width:0.524184"
           d="m 765.78985,312.01202 c 3.74921,-2.83783 2.35494,-0.31485 -0.32374,0.52345 z"
           id="path131726" /><path
           style="fill:#f3cb46;stroke-width:0.524184"
           d="m 759.93797,313.63012 c 3.30561,-1.25915 4.39308,0.34371 0,0 z"
           id="path131728" /><path
           style="fill:#f3cb46;stroke-width:0.524184"
           d="m 755.43873,313.29383 c -2.94108,-1.78501 5.78554,1.76806 0,0 z"
           id="path131730" /><path
           style="fill:#e7a314;stroke-width:0.524184"
           d="m 777.4435,256.19486 c -6.84703,-0.34903 -5.74918,-10.11098 0.0254,-3.84301 4.54441,-1.73143 14.6194,-2.38132 6.25509,3.18976 -1.95224,0.87299 -4.18928,1.14415 -6.28051,0.65325 z"
           id="path131732" /><path
           style="fill:#e7a314;stroke-width:0.524184"
           d="m 757.27337,300.67785 c 2.93052,-4.29208 4.03508,0.77904 0,0 z"
           id="path131734" /><path
           style="fill:#e7a314;stroke-width:0.524184"
           d="m 760.33551,301.39266 c 2.97113,-3.85931 9.65103,-1.50727 0.90718,0.20465 l -0.6979,0.0677 z"
           id="path131736" /><path
           style="fill:#e7a314;stroke-width:0.524184"
           d="m 754.12826,302.26957 c 1.26856,-2.13815 1.86468,1.34112 0,0 z"
           id="path131738" /><path
           style="fill:#e7a314;stroke-width:0.524184"
           d="m 757.27337,313.30748 c -6.82544,2.25661 -10.76292,-12.2284 -2.22729,-5.08989 7.02204,4.9098 20.99346,-13.83384 16.71349,-0.37012 -3.39218,4.09029 -9.28509,6.02639 -14.4862,5.46001 z"
           id="path131740" /><path
           style="fill:#90a334;stroke-width:0.524184"
           d="m 784.43267,255.27549 c 2.05449,-1.30247 0.29448,1.32727 0,0 z"
           id="path131742" /><path
           style="fill:#778c2b;stroke-width:0.524184"
           d="m 777.79932,269.7865 c 0.45096,-3.3416 0.32346,2.87265 0,0 z"
           id="path131744" /><path
           style="fill:#778c2b;stroke-width:0.524184"
           d="m 777.23376,281.53697 c 0.75472,-1.9087 0.0611,2.51695 0,0 z"
           id="path131746" /><path
           style="fill:#778c2b;stroke-width:0.524184"
           d="m 776.18539,322.94756 c 0.75472,-1.90868 0.0611,2.51696 0,0 z"
           id="path131748" /><path
           style="fill:#526028;stroke-width:0.524184"
           d="m 777.55319,279.615 c -1.04368,-5.0025 2.55469,-17.71734 2.49891,-5.67087 0.66421,2.181 -3.27838,14.71329 -2.49891,5.67087 z"
           id="path131750" /><path
           style="fill:#526028;stroke-width:0.524184"
           d="m 773.89831,364.79493 c -4.11813,-14.21425 -8.42438,-28.60742 -10.01682,-43.32435 4.00448,-6.35264 4.35537,11.46143 6.20987,14.50193 4.71973,3.7045 0.47868,-18.66126 5.66853,-14.6428 1.30913,11.54368 -6.0566,23.11554 -0.7384,34.46832 0.52827,2.72595 2.93118,7.98279 -1.12318,8.9969 z"
           id="path131752" /></g></g></g></svg>
