<?xml version="1.0" encoding="UTF-8" standalone="no"?>
<!-- Created with Inkscape (http://www.inkscape.org/) -->

<svg
   width="203.13213mm"
   height="262.9191mm"
   viewBox="0 0 203.13213 262.9191"
   version="1.1"
   id="svg5"
   xml:space="preserve"
   xmlns="http://www.w3.org/2000/svg"
   xmlns:svg="http://www.w3.org/2000/svg"><defs
     id="defs2" /><g
     id="layer1"
     style="display:inline;opacity:1"
     transform="translate(3168.3784,0.96632814)"><g
       id="g141962"><g
         id="g12751"
         transform="matrix(2.2040458,0,0,2.2040458,-3967.6883,-822.26792)"><path
           style="fill:#f6f9fb;stroke-width:0.524184"
           d="m 392.3631,425.29442 c -0.36814,-0.16689 -2.05555,0.89785 -5.49062,3.44837 -2.96619,2.20238 -4.58764,5.34811 -4.29483,8.33283 0.17205,1.75381 0.23398,1.79235 4.88394,3.05924 0.8649,0.23564 1.72933,0.45264 1.92133,0.48214 0.192,0.0295 1.09723,-0.89079 2.01125,-2.04483 1.4064,-1.77572 1.68339,-2.6015 1.80195,-5.3728 0.077,-1.80106 0.32839,-4.31618 0.55914,-5.58933 0.36863,-2.03394 0.31477,-2.27462 -0.447,-1.9823 -0.47683,0.18298 -0.86713,0.0988 -0.86713,-0.18707 0,-0.0734 -0.0254,-0.1224 -0.078,-0.14625 z"
           id="path10747" /><path
           style="fill:#f6f9fb;stroke-width:0.524184"
           d="m 376.74958,421.94734 c -0.91507,-0.0141 -2.91376,0.5015 -4.25452,1.18598 -1.8912,0.96549 -5.63951,5.16385 -6.04201,6.76754 -0.39051,1.5559 0.49693,2.9068 1.90893,2.9068 0.52429,0 1.09875,0.23622 1.27693,0.52452 0.36045,0.58322 2.34927,0.69585 3.62665,0.20567 0.58063,-0.22281 0.82889,-1.00317 0.82889,-2.60346 0,-1.96552 0.33023,-2.65646 2.35903,-4.94078 3.53074,-3.97543 3.10453,-4.1999 -1.87121,-0.98392 -1.83938,1.18886 -3.03277,1.78592 -2.65151,1.32653 0.38126,-0.45939 1.73156,-1.49083 3.00033,-2.29237 1.26878,-0.80153 2.30736,-1.65325 2.30787,-1.89239 2.9e-4,-0.13572 -0.18435,-0.19942 -0.48938,-0.20412 z"
           id="path10745" /><path
           style="fill:#f6f9fb;stroke-width:0.524184"
           d="m 418.38839,420.62598 1.57251,1.72289 1.57251,1.72341 -2.48925,-1.74873 c -1.36895,-0.96177 -2.63305,-1.60442 -2.80913,-1.42834 -0.17608,0.17608 0.19594,1.10057 0.82682,2.05414 1.12009,1.69302 1.10513,1.68745 -0.65319,-0.23203 -0.99036,-1.08113 -1.95269,-1.96577 -2.13837,-1.96577 -0.18567,0 -0.33745,1.38843 -0.33745,3.08508 0,3.40158 0.5573,4.07167 4.6359,5.57175 3.01581,1.10921 5.37025,0.93763 7.56078,-0.55087 2.24982,-1.52879 2.4538,-2.72121 0.8971,-5.23999 -1.24521,-2.01478 -1.49034,-2.13083 -5.5423,-2.61896 z"
           id="path10743" /><path
           style="fill:#f6f9fb;stroke-width:0.524184"
           d="m 399.40195,419.90147 c 0.0551,-0.0551 0.12821,0.0188 0.21187,0.22789 0.1514,0.37839 0.13232,0.83041 -0.0419,1.00459 -0.17418,0.17418 -0.29772,-0.13576 -0.27492,-0.68833 0.0126,-0.30532 0.0498,-0.48903 0.10491,-0.54415 z"
           id="path10737" /><path
           style="fill:#f6f9fb;stroke-width:0.524184"
           d="m 400.72641,418.77958 c -0.25801,-0.01 -0.57835,-0.002 -0.9679,0.0202 -1.86736,0.10569 -2.13516,0.30046 -2.6789,1.95182 -0.33225,1.00905 -0.9012,2.30643 -1.26452,2.88303 -0.98025,1.55567 -2.42533,9.37872 -2.02624,10.96884 0.19042,0.75866 0.96753,1.71692 1.72703,2.12958 0.7595,0.41265 1.7616,0.76003 2.22725,0.77153 1.41593,0.0351 3.41722,-1.91304 5.1878,-5.05034 1.58133,-2.80193 1.63406,-3.05957 0.88574,-4.32686 -1.03749,-1.75698 -2.60431,-7.82758 -2.25516,-8.73746 0.15298,-0.39863 -0.0611,-0.58124 -0.8351,-0.61029 z"
           id="path10735" /><path
           style="fill:#f6f9fb;stroke-width:0.524184"
           d="m 407.28725,417.18949 c 0.10806,0.0137 0.26307,0.11528 0.45114,0.30334 0.34146,0.34116 0.49881,0.74247 0.34985,0.89142 -0.34984,0.34983 -0.96997,-0.2703 -0.96997,-0.96997 0,-0.16424 0.0609,-0.23848 0.16898,-0.22479 z"
           id="path10729" /><path
           style="fill:#f6f9fb;stroke-width:0.524184"
           d="m 386.15108,416.07902 c 0.51845,0.019 0.42926,0.18199 -0.262,0.47904 -1.44103,0.61923 -2.26871,0.61923 -1.31052,0 0.43245,-0.27948 1.14007,-0.49484 1.57252,-0.47904 z"
           id="path10721" /><path
           style="fill:#f6f9fb;stroke-width:0.524184"
           d="m 407.24385,416.03412 c -1.38814,0 -2.21044,1.02128 -2.30064,2.85667 -0.0738,1.50293 -0.0913,1.5157 -0.29145,0.21394 -0.16474,-1.07148 -0.44344,-1.32449 -1.23197,-1.11828 -0.77774,0.20338 -1.01906,0.72611 -1.01906,2.2071 0,2.48913 1.36165,7.08688 2.40916,8.13439 0.86421,0.86421 3.8809,1.12848 3.8809,0.34003 0,-0.25873 0.75358,-0.43524 1.67431,-0.39274 1.29853,0.06 1.82558,-0.21702 2.35076,-1.23352 0.72418,-1.40167 0.93117,-7.21409 0.29146,-8.18554 -0.5471,-0.83079 -4.61409,-2.82205 -5.76347,-2.82205 z"
           id="path10715" /><path
           style="fill:#f6f9fb;stroke-width:0.524184"
           d="m 391.9285,415.51012 c -0.89922,0 -11.57489,7.36947 -13.57953,9.3741 -3.22819,3.22819 -3.89994,4.49589 -3.50315,6.61097 0.25646,1.36706 0.61065,1.8371 1.38493,1.8371 1.71092,0 7.44657,-2.61096 9.13381,-4.15789 0.86491,-0.79298 2.39798,-2.00327 3.40703,-2.68924 2.7385,-1.86167 8.636,-7.83001 7.73699,-7.83001 -0.42967,0 -1.34332,0.42818 -2.03088,0.95188 -0.68756,0.52369 -2.19387,1.61358 -3.34708,2.42207 -1.66599,1.16799 -1.82214,1.21482 -0.75965,0.22738 0.73547,-0.68351 2.15069,-1.8805 3.14503,-2.65979 1.63895,-1.28449 1.69904,-1.41896 0.63821,-1.44126 -0.6436,-0.0135 -2.76694,0.94675 -4.71806,2.13424 -1.95111,1.18749 -3.7241,2.26316 -3.94033,2.39004 -0.21623,0.12693 -0.39326,0.11206 -0.39326,-0.0326 0,-0.14462 1.71657,-1.3968 3.81476,-2.78278 2.70899,-1.78945 3.76147,-2.7856 3.63078,-3.437 -0.10123,-0.50452 -0.37995,-0.91725 -0.6196,-0.91725 z"
           id="path10713" /><path
           style="fill:#f6f9fb;stroke-width:0.524184"
           d="m 385.44879,414.55824 c -4.24149,0.05 -11.2252,0.6767 -13.71285,1.50017 -6.39508,2.11688 -9.78049,5.05762 -8.12251,7.05538 0.95637,1.15235 3.94446,0.78721 10.31359,-1.25987 2.56108,-0.82315 5.88116,-1.66478 7.37836,-1.87069 2.88391,-0.39665 7.87935,-3.37455 6.45645,-3.84886 -0.46895,-0.15631 -0.18618,-0.49773 0.79633,-0.96067 0.99282,-0.46778 -0.56447,-0.64544 -3.10937,-0.61546 z"
           id="path10705" /><path
           style="fill:#f6f9fb;stroke-width:0.524184"
           d="m 426.31245,413.92675 c -1.13906,-0.0608 -2.58894,0.0474 -5.04104,0.28732 -4.43085,0.43348 -5.15541,0.61296 -3.71657,0.92088 2.61467,0.55955 1.77491,0.85066 -1.15083,0.39894 -1.3797,-0.21317 -2.61383,-0.21745 -2.74247,-0.009 -0.27481,0.44465 3.01043,1.38505 7.08536,2.0283 1.98256,0.31295 2.36183,0.47466 1.21388,0.51676 -2.12427,0.078 -8.49114,-1.25269 -10.99055,-2.29702 -1.05379,-0.44027 -2.03745,-0.67968 -2.18539,-0.53175 -0.35452,0.35454 -0.46314,0.2924 4.36149,2.50011 2.30641,1.0554 5.83778,2.17736 7.84758,2.49339 2.00981,0.31602 3.75919,0.67978 3.88762,0.80822 0.44256,0.44256 3.57597,0.232 5.35368,-0.35967 2.81925,-0.93832 3.36607,-1.67383 2.60707,-3.50625 -0.48592,-1.1731 -1.29674,-1.78357 -3.3538,-2.52439 -1.20874,-0.43531 -2.03698,-0.66474 -3.17603,-0.72554 z"
           id="path10703" /><path
           style="fill:#f6f9fb;stroke-width:0.524184"
           d="m 415.50536,411.90827 c 0.23752,0 0.47506,0.0363 0.65525,0.10904 0.36037,0.14542 0.0655,0.26458 -0.65525,0.26458 -0.72073,0 -1.01564,-0.11916 -0.65526,-0.26458 0.18019,-0.0727 0.41774,-0.10904 0.65526,-0.10904 z"
           id="path10697" /><path
           style="fill:#f6f9fb;stroke-width:0.524184"
           d="m 388.24759,411.90827 c 0.23752,0 0.47507,0.0363 0.65526,0.10904 0.36037,0.14542 0.0655,0.26458 -0.65526,0.26458 -0.72073,0 -1.01564,-0.11916 -0.65526,-0.26458 0.18019,-0.0727 0.41774,-0.10904 0.65526,-0.10904 z"
           id="path10695" /><path
           style="fill:#f6f9fb;stroke-width:0.524184"
           d="m 412.82128,411.38324 c 0.28503,0.004 0.55068,0.0419 0.72812,0.11369 v -5.2e-4 c 0.35489,0.14354 -0.0622,0.25255 -0.92707,0.24185 -0.8649,-0.0107 -1.15546,-0.12807 -0.64544,-0.26097 0.25501,-0.0664 0.55937,-0.0976 0.84439,-0.0941 z"
           id="path10689" /><path
           style="fill:#f6f9fb;stroke-width:0.524184"
           d="m 422.15663,411.05406 c 0.26668,0.0257 0.23802,0.11224 -0.0992,0.25838 -1.00147,0.43393 -4.86626,0.7319 -4.41161,0.34003 0.12013,-0.10353 1.39759,-0.32485 2.8391,-0.49144 0.84308,-0.0974 1.40506,-0.13265 1.67173,-0.10697 z"
           id="path10687" /><path
           style="fill:#f6f9fb;stroke-width:0.524184"
           d="m 416.51153,405.65077 c -0.41198,-0.004 -1.37766,0.22325 -2.57866,0.68575 -1.1905,0.45847 -1.4668,0.71245 -0.78651,0.72295 0.5766,0.009 1.75612,-0.30779 2.62103,-0.70383 1.01427,-0.46442 1.15612,-0.70062 0.74414,-0.70487 z"
           id="path10673" /><path
           style="fill:#f6f9fb;stroke-width:0.524184"
           d="m 387.64042,405.22031 c 0.12977,0.0205 0.33282,0.0657 0.6072,0.13177 0.72075,0.17369 1.5348,0.52546 1.80867,0.78135 0.67943,0.63481 0.30598,0.55283 -1.54667,-0.33951 -0.98775,-0.47576 -1.25849,-0.63527 -0.8692,-0.57361 z"
           id="path10669" /><path
           style="fill:#f6f9fb;stroke-width:0.524184"
           d="m 435.1662,404.62089 c -0.0638,-0.0788 -2.0957,0.70425 -4.51548,1.74046 -5.42985,2.3252 -9.88693,3.3885 -15.36082,3.66438 -3.75469,0.18924 -4.25172,0.33551 -4.63228,1.36426 -0.55159,1.49109 -0.0733,1.90675 2.48874,2.16214 7.16917,0.71463 14.14635,-0.17902 18.17925,-2.32854 3.93891,-2.09941 5.35639,-3.7653 4.54029,-5.33611 -0.32101,-0.61787 -0.6359,-1.18779 -0.6997,-1.26659 z"
           id="path10663" /><path
           style="fill:#f6f9fb;stroke-width:0.524184"
           d="m 384.75739,397.16355 c 0.42052,0 7.15977,5.22552 7.15977,5.5516 0,0.11779 -0.0592,0.21284 -0.13126,0.21084 -0.68523,-0.0181 -7.69172,-5.76244 -7.02851,-5.76244 z"
           id="path10643" /><path
           style="fill:#f6f9fb;stroke-width:0.524184"
           d="m 437.25755,392.31315 c -0.65604,0.0511 -1.6614,0.31707 -3.406,0.82786 -3.19183,0.93453 -5.23793,2.07703 -10.87685,6.07405 -3.81999,2.7077 -6.94531,5.12071 -6.94531,5.36246 0,0.37695 6.01774,-1.61773 7.3334,-2.43086 0.25144,-0.15539 0.60338,-0.0457 0.78238,0.24392 0.19683,0.31848 1.55796,-0.0956 3.44372,-1.04749 1.71488,-0.86566 3.11764,-1.46382 3.11764,-1.32963 0,0.45123 -6.51902,3.80394 -10.2216,5.25704 -2.01811,0.79201 -4.24643,1.66668 -4.95215,1.94407 -1.03357,0.40626 -1.13586,0.5982 -0.52452,0.98495 0.55077,0.34846 0.29169,0.48183 -0.94465,0.48783 -0.93697,0.004 -1.70325,0.24397 -1.70325,0.53227 0,1.49603 11.11413,-0.63923 18.06195,-3.47008 6.44199,-2.62473 9.32354,-4.80923 8.17262,-6.196 -0.37307,-0.44952 -1.17979,-0.82179 -1.79317,-0.82579 -0.61338,-0.004 -1.46924,-0.24414 -1.90169,-0.5333 -0.68121,-0.4555 -0.65609,-0.60264 0.18707,-1.09812 0.53526,-0.31455 1.71479,-1.23913 2.62103,-2.05518 1.46397,-1.31827 1.56004,-1.57127 0.86144,-2.26756 -0.34891,-0.34776 -0.65603,-0.51152 -1.31206,-0.46044 z"
           id="path10613" /><path
           style="fill:#f6f9fb;stroke-width:0.524184"
           d="m 409.15797,391.12153 c 0.0189,-0.009 0.0298,0.005 0.0315,0.0429 0.0141,0.30422 -0.54662,2.19135 -1.24591,4.19354 -0.69929,2.00219 -1.28912,3.25633 -1.31052,2.78691 -0.0215,-0.46943 0.53926,-2.35656 1.24592,-4.19354 0.61834,-1.60736 1.14701,-2.76845 1.27899,-2.8298 z"
           id="path10605" /><path
           style="fill:#f6f9fb;stroke-width:0.524184"
           d="m 369.97483,389.97999 c -1.83621,0.10353 -2.65589,0.93991 -3.0024,2.78691 -0.55806,2.97476 1.43469,4.58145 7.64656,6.16604 2.73886,0.69865 6.27691,1.74875 7.86257,2.33319 1.58566,0.58445 3.35495,1.07217 3.93155,1.08417 0.87536,0.0181 0.78903,-0.16191 -0.524,-1.09141 -0.86491,-0.61226 -3.6979,-3.2874 -6.29523,-5.94486 -4.45216,-4.55524 -4.87691,-4.85301 -7.42383,-5.20329 -0.85818,-0.11803 -1.58315,-0.16525 -2.19522,-0.13075 z"
           id="path10601" /><path
           style="fill:#f6f9fb;stroke-width:0.524184"
           d="m 423.41447,389.82496 c 0.21275,0 -1.18468,1.46768 -3.10576,3.26182 -5.75971,5.37914 -7.06373,6.24238 -2.00194,1.32498 2.5967,-2.52262 4.89495,-4.5868 5.1077,-4.5868 z"
           id="path10599" /><path
           style="fill:#f6f9fb;stroke-width:0.524184"
           d="m 432.82939,383.07446 c -0.74937,0.0518 -1.58653,0.46415 -2.64686,1.24644 -0.97692,0.72075 -2.19548,1.31051 -2.70785,1.31051 -1.24361,0 -6.69416,2.43406 -7.97057,3.55947 -1.87572,1.65385 -9.24078,11.16317 -9.24078,11.93106 0,0.41764 0.33416,0.75913 0.74259,0.75913 0.40842,0 0.84363,0.29487 0.96687,0.65525 0.14425,0.42183 1.32665,-0.19915 3.31969,-1.74304 3.30416,-2.55953 4.40645,-3.29765 4.40645,-2.95176 0,0.18999 -5.66425,4.80696 -6.97373,5.68441 -0.27459,0.18399 -0.32756,0.61324 -0.11731,0.95343 0.56401,0.91259 1.22252,0.53783 9.79475,-5.57486 11.27339,-8.03884 15.07443,-12.55718 12.54601,-14.91278 -0.70857,-0.66012 -1.36988,-0.96901 -2.11926,-0.91726 z"
           id="path10571" /><path
           style="fill:#f6f9fb;stroke-width:0.524184"
           d="m 380.85634,377.8547 c -0.75519,0.006 -1.26743,0.49167 -1.76837,1.46037 -1.20127,2.32301 -0.98003,3.30587 1.05782,4.69377 2.26219,1.54068 10.36325,10.02001 9.95908,10.42417 -0.15997,0.15997 -1.12731,-0.68612 -2.14922,-1.87999 -5.13507,-5.99917 -11.62212,-10.80814 -14.12317,-10.47016 -1.45259,0.19629 -1.69215,3.10755 -0.42116,5.11493 1.93873,3.06202 9.91767,11.24565 13.671,14.02137 2.12475,1.57134 3.74748,2.97252 3.60598,3.11402 -0.1415,0.1415 -3.87425,-0.918 -8.29459,-2.35438 -12.29452,-3.99508 -15.13717,-4.62544 -17.13177,-3.79925 -2.28612,0.94695 -2.17789,2.58345 0.31936,4.81986 1.08371,0.97053 2.55812,2.15028 3.27629,2.62155 l 1.30586,0.85679 -2.35903,0.5886 c -3.38397,0.84376 -4.95664,1.76832 -5.13818,3.02049 -0.21774,1.50188 2.99396,3.35632 6.7107,3.8747 2.87118,0.40045 18.30385,0.12002 20.04994,-0.36432 0.53679,-0.1489 0.91777,-0.75884 0.91777,-1.4702 0,-1.06552 -0.37239,-1.28483 -3.01429,-1.7756 l -3.01428,-0.55966 3.01428,0.24288 c 2.31456,0.18651 3.01429,0.0766 3.01429,-0.47232 0,-0.49738 -1.07636,-0.82463 -3.53829,-1.0759 -14.72025,-1.50242 -16.62239,-1.75997 -13.23588,-1.79317 1.87396,-0.0184 6.23798,0.26662 9.6976,0.63303 5.61962,0.59518 6.35829,0.57774 6.92877,-0.16175 0.3512,-0.45525 0.64626,-1.13225 0.65526,-1.5043 0.009,-0.37205 0.54712,-1.39497 1.19579,-2.27324 l 1.17978,-1.5968 -1.98128,-1.59009 c -1.08958,-0.87461 -2.23783,-2.09288 -2.55178,-2.70681 -0.31394,-0.61394 0.63666,0.0548 2.11253,1.4857 2.53375,2.4566 2.73368,2.55179 3.5817,1.70377 0.49395,-0.49396 0.6616,-0.89814 0.37258,-0.89814 -0.28903,0 -1.44789,-1.12034 -2.57503,-2.48977 l -2.04949,-2.49028 2.70216,2.49028 c 2.85005,2.62614 3.10357,2.74591 4.25866,2.01435 0.58856,-0.37276 0.47801,-0.79136 -0.58602,-2.22002 -1.92949,-2.59074 -3.18502,-4.64313 -2.84013,-4.64313 0.16657,0 1.26392,1.41522 2.43861,3.14503 1.17469,1.7298 2.48096,3.14503 2.90266,3.14503 0.98375,0 0.96813,-0.17137 -0.23151,-2.52285 -2.50615,-4.91249 -10.6853,-14.33618 -14.69884,-16.9354 -1.47302,-0.95395 -2.47097,-1.4288 -3.22616,-1.42316 z"
           id="path10555" /><path
           style="fill:#f6f9fb;stroke-width:0.524184"
           d="m 424.54825,375.19801 c -0.82446,-0.1007 -2.24779,0.96671 -5.06326,3.64112 -3.06398,2.91049 -4.1642,4.37964 -5.20123,6.94531 -0.72341,1.78973 -1.92108,4.61063 -2.66134,6.26836 -1.55489,3.48198 -0.96566,3.98127 1.06919,0.9064 1.96464,-2.96878 2.16034,-2.22096 0.21962,0.83923 -0.87966,1.38708 -1.59939,2.71163 -1.59939,2.94348 0,0.95578 0.88989,0.25022 2.62103,-2.07894 3.53021,-4.74965 5.74311,-6.7816 8.96018,-8.22534 3.55959,-1.59743 4.48148,-3.0031 5.03535,-7.67963 0.29406,-2.48293 0.26179,-2.5616 -1.04903,-2.5616 -0.7439,0 -1.49871,-0.23622 -1.6769,-0.52452 -0.17109,-0.27683 -0.3794,-0.4403 -0.65422,-0.47387 z"
           id="path10549" /><path
           style="fill:#f6f9fb;stroke-width:0.524184"
           d="m 391.57765,374.83576 c -0.52751,-0.0474 -0.90086,0.3381 -1.8216,1.34617 -1.15907,1.26903 -1.50827,2.15982 -1.50791,3.84679 4e-4,1.88659 0.3059,2.49047 2.17144,4.29225 1.19401,1.1532 3.1093,3.33522 4.25607,4.8488 2.0977,2.76865 3.22107,3.5358 2.68614,1.83451 -0.24822,-0.78941 -0.17397,-0.77625 0.53485,0.093 0.45301,0.55555 0.91756,0.90911 1.03198,0.786 0.11441,-0.1231 0.0579,-2.47075 -0.12557,-5.21726 -0.31652,-4.73714 -0.43755,-5.13521 -2.35541,-7.74733 -1.11195,-1.51445 -2.73302,-3.12128 -3.60237,-3.57084 -0.57888,-0.29935 -0.95112,-0.48366 -1.26762,-0.51211 z"
           id="path10547" /><path
           style="fill:#f6f9fb;stroke-width:0.524184"
           d="m 416.08468,372.63848 c -0.33641,-0.0318 -0.76795,0.0928 -1.29553,0.37517 -0.6939,0.37137 -2.40456,2.23183 -3.80132,4.13411 -2.36735,3.22419 -2.58176,3.78001 -3.15949,8.19898 -0.74597,5.70577 -1.5282,10.52927 -2.0159,12.42974 -0.30436,1.18602 -0.17237,1.43423 0.86661,1.63194 0.67407,0.12827 1.32371,0.26559 1.44384,0.30489 0.12016,0.0393 0.0823,-0.0649 -0.0842,-0.23151 -0.16656,-0.16656 0.35952,-1.75882 1.16892,-3.53829 6.90983,-15.19128 9.23194,-23.08274 6.8771,-23.30503 z"
           id="path10541" /><path
           style="fill:#f6f9fb;stroke-width:0.524184"
           d="m 403.55056,372.63448 c -0.66101,0.012 -0.95513,0.50417 -1.65881,2.09496 -2.52312,5.70393 -2.77855,9.51618 -1.60197,23.91896 0.008,0.0961 0.30884,0.0767 0.66921,-0.0434 0.36038,-0.12008 0.93805,-1.85008 1.28364,-3.84421 l 0.62839,-3.62562 -0.21549,3.53828 c -0.21125,3.46855 -0.18996,3.53829 1.07538,3.53829 0.7099,0 1.30297,-0.0592 1.31827,-0.13126 0.30181,-1.42401 1.6783,-9.44322 2.09186,-12.18737 0.61903,-4.10748 0.2205,-10.75735 -0.7183,-11.98273 -0.33808,-0.44129 -1.26537,-0.95911 -2.06034,-1.15083 -0.3306,-0.0797 -0.5915,-0.12907 -0.81184,-0.12506 z"
           id="path10539" /><path
           style="fill:#f3cb46;stroke-width:0.524184"
           d="m 410.7876,409.86854 c 0,-0.26084 0.16166,-0.63593 0.35924,-0.83351 0.72195,-0.72195 1.60716,-4.02764 1.1536,-4.30796 -0.25546,-0.15788 -0.461,-0.68593 -0.45675,-1.17344 0.005,-0.62427 0.21308,-0.49887 0.70217,0.42408 0.42669,0.80517 0.52477,1.65087 0.25437,2.19332 -0.24204,0.48557 -0.44008,1.26904 -0.44008,1.74104 0,0.472 -0.35382,1.212 -0.78628,1.64445 -0.43245,0.43246 -0.78627,0.57286 -0.78627,0.31202 z"
           id="path11465" /><path
           style="fill:#f3cb46;stroke-width:0.524184"
           d="m 395.31618,403.5329 c -0.39599,-0.39599 -1.30248,0.55207 -1.30248,1.36221 0,0.71549 0.12169,0.68911 0.74342,-0.16117 0.40888,-0.55917 0.66046,-1.09964 0.55906,-1.20104 z"
           id="path11441" /><path
           style="fill:#f3cb46;stroke-width:0.524184"
           d="m 406.06994,406.01257 c 0,-0.2883 -0.23588,-0.3784 -0.52418,-0.20022 -0.28831,0.17818 -0.52419,0.55984 -0.52419,0.84815 0,0.2883 0.23588,0.3784 0.52419,0.20022 0.2883,-0.17818 0.52418,-0.55985 0.52418,-0.84815 z"
           id="path11439" /><path
           style="fill:#f3cb46;stroke-width:0.524184"
           d="m 393.48952,408.95745 c 0,-0.72075 -0.23588,-1.31046 -0.52419,-1.31046 -0.2883,0 -0.52418,0.58971 -0.52418,1.31046 0,0.72076 0.23588,1.31047 0.52418,1.31047 0.28831,0 0.52419,-0.58971 0.52419,-1.31047 z"
           id="path11437" /><path
           style="fill:#f3cb46;stroke-width:0.524184"
           d="m 402.80483,410.89003 c 0.12768,-0.38305 -0.11196,-0.5002 -0.62247,-0.3043 -0.45654,0.1752 -0.83008,0.54883 -0.83008,0.83032 0,0.68898 1.19136,0.25755 1.45255,-0.52602 z"
           id="path11435" /><path
           style="fill:#f3cb46;stroke-width:0.524184"
           d="m 398.46927,412.88884 c 0.17818,-0.28831 -0.0438,-0.52419 -0.49325,-0.52419 -0.44947,0 -0.81721,0.23589 -0.81721,0.52419 0,0.2883 0.22196,0.52418 0.49325,0.52418 0.27128,0 0.63903,-0.23588 0.81721,-0.52418 z"
           id="path11433" /><path
           style="fill:#f3cb46;stroke-width:0.524184"
           d="m 395.18316,413.98554 c -0.33009,-0.89822 -1.15188,-1.59993 -1.88887,-1.61286 -0.25153,-0.004 -0.21167,0.28796 0.0886,0.64973 0.41835,0.50408 0.15779,0.65717 -1.11523,0.65523 -1.64273,-0.003 -1.66488,-0.0374 -2.00044,-3.14763 -0.18662,-1.72981 -0.12765,-3.3692 0.13105,-3.64308 0.2587,-0.27389 0.47036,-0.88505 0.47036,-1.35813 0,-1.38634 4.27673,-5.51786 6.45638,-6.23715 1.10044,-0.36315 2.11885,-0.54223 2.26313,-0.39795 0.14428,0.14428 1.06919,0.0395 2.05536,-0.23277 2.00108,-0.55252 6.32965,0.57739 7.35704,1.92045 0.31446,0.41108 1.14005,0.97465 1.83464,1.25237 0.91179,0.36456 1.00787,0.51419 0.34559,0.53817 -0.69075,0.025 -0.91733,0.48183 -0.91733,1.84944 0,1.35063 -0.30233,1.97484 -1.17941,2.4351 -1.15988,0.60865 -1.16353,0.60099 -0.21997,-0.46252 0.52769,-0.59478 0.88152,-1.58906 0.78628,-2.20952 -0.1477,-0.96218 -0.32553,-0.83362 -1.20901,0.87409 -0.56971,1.10121 -1.81042,3.04169 -2.75715,4.31217 -1.78323,2.39302 -1.91206,3.48866 -0.23138,1.96766 1.03526,-0.93689 1.91642,-1.17626 1.42944,-0.38829 -0.47618,0.77047 -5.05057,3.18715 -6.03277,3.18715 -0.49224,0 -1.06466,0.16968 -1.27203,0.37706 -0.77502,0.77501 -4.07948,0.52782 -4.39425,-0.32872 z"
           id="path11431" /><path
           style="fill:#f3cb46;stroke-width:0.524184"
           d="m 407.11831,415.66206 c 1.36731,-0.50275 2.62092,-1.85326 2.62092,-2.82353 0,-0.51491 0.21591,-1.06963 0.47979,-1.23271 0.64605,-0.39929 -0.0215,1.76914 -1.00022,3.24871 -0.42907,0.64867 -1.25412,1.16079 -1.83345,1.13803 -0.75188,-0.0295 -0.82831,-0.12412 -0.26704,-0.3305 z"
           id="path11429" /><path
           style="fill:#f3cb46;stroke-width:0.524184"
           d="m 402.96852,417.97203 c 0.12012,-0.0873 0.92606,-0.57302 1.79096,-1.07948 l 1.57255,-0.92083 -1.23748,1.07948 c -0.68062,0.59371 -1.48656,1.07948 -1.79097,1.07948 -0.30441,0 -0.45519,-0.0714 -0.33506,-0.15865 z"
           id="path11423" /><path
           style="fill:#f3cb46;stroke-width:0.524184"
           d="m 392.89847,417.21336 c -0.66546,-0.84853 -0.64079,-0.85966 0.32896,-0.14833 0.5766,0.42295 1.14665,0.83574 1.26678,0.91732 0.12012,0.0816 -0.0279,0.14833 -0.32896,0.14833 -0.30105,0 -0.8711,-0.4128 -1.26678,-0.91732 z"
           id="path11421" /><path
           style="fill:#f3cb46;stroke-width:0.524184"
           d="m 395.72728,418.29161 c 0.51001,-0.1329 1.21766,-0.12417 1.57255,0.0195 0.35489,0.14359 -0.0624,0.25232 -0.9273,0.24164 -0.8649,-0.0107 -1.15527,-0.12816 -0.64525,-0.26106 z"
           id="path11419" /><path
           style="fill:#f3cb46;stroke-width:0.524184"
           d="m 398.99345,418.65486 c 0.57661,-0.24777 1.52014,-0.44356 2.09674,-0.43509 0.84278,0.0124 0.79138,0.0977 -0.26209,0.43509 -1.79228,0.57399 -3.17039,0.57399 -1.83465,0 z"
           id="path11417" /><path
           style="fill:#e7a314;stroke-width:0.524184"
           d="m 394.0137,404.89511 c 0,-0.47055 0.25158,-1.01101 0.55906,-1.20105 0.89898,-0.5556 0.98719,-0.058 0.18436,1.03988 -0.62173,0.85028 -0.74342,0.87666 -0.74342,0.16117 z"
           id="path11621" /><path
           style="fill:#e7a314;stroke-width:0.524184"
           d="m 408.01309,406.25001 c -0.1527,-0.24707 0.0327,-0.87353 0.41184,-1.39213 0.48137,-0.6583 0.80249,-0.76004 1.06391,-0.33706 0.20594,0.33322 0.0206,0.95968 -0.41184,1.39213 -0.43245,0.43245 -0.91121,0.58413 -1.06391,0.33706 z"
           id="path11619" /><path
           style="fill:#e7a314;stroke-width:0.524184"
           d="m 405.02157,406.6605 c 0,-0.28831 0.23588,-0.66997 0.52419,-0.84815 0.2883,-0.17818 0.52418,-0.0881 0.52418,0.20022 0,0.2883 -0.23588,0.66997 -0.52418,0.84815 -0.28831,0.17818 -0.52419,0.0881 -0.52419,-0.20022 z"
           id="path11617" /><path
           style="fill:#e7a314;stroke-width:0.524184"
           d="m 392.5722,408.95745 c 0,-0.72075 0.20639,-1.31046 0.45866,-1.31046 0.25226,0 0.45866,0.58971 0.45866,1.31046 0,0.72076 -0.2064,1.31047 -0.45866,1.31047 -0.25227,0 -0.45866,-0.58971 -0.45866,-1.31047 z"
           id="path11609" /><path
           style="fill:#e7a314;stroke-width:0.524184"
           d="m 401.35228,411.41605 c 0,-0.28149 0.37354,-0.65512 0.83008,-0.83032 0.51051,-0.1959 0.75015,-0.0788 0.62247,0.3043 -0.26119,0.78357 -1.45255,1.215 -1.45255,0.52602 z"
           id="path11607" /><path
           style="fill:#e7a314;stroke-width:0.524184"
           d="m 397.15881,412.88884 c 0,-0.2883 0.36774,-0.52419 0.81721,-0.52419 0.44947,0 0.67143,0.23589 0.49325,0.52419 -0.17818,0.2883 -0.54593,0.52418 -0.81721,0.52418 -0.27129,0 -0.49325,-0.23588 -0.49325,-0.52418 z"
           id="path11605" /><path
           style="fill:#e7a314;stroke-width:0.524184"
           d="m 406.8199,409.27059 c -0.13791,-0.1379 -0.65791,0.17438 -1.15558,0.69397 -0.86453,0.90261 -0.85336,0.91378 0.25073,0.25073 0.63557,-0.38168 1.04275,-0.8068 0.90485,-0.9447 z"
           id="path11601" /><path
           style="fill:#e7a314;stroke-width:0.524184"
           d="m 396.00686,418.16295 c -2.05491,-0.40552 -3.56571,-1.37281 -3.56571,-2.28296 0,-0.30238 -0.41279,-1.01321 -0.91732,-1.57964 -0.89365,-1.00327 -0.87368,-1.02364 0.77357,-0.78915 1.35862,0.1934 1.57777,0.1044 1.11523,-0.45292 -0.31662,-0.3815 -0.36987,-0.69002 -0.11834,-0.6856 0.73699,0.0129 1.55878,0.71464 1.88887,1.61286 0.22,0.59866 0.87608,0.79936 2.3206,0.70992 1.10763,-0.0686 2.01388,-0.16683 2.01388,-0.21833 0,-0.0515 0.48622,-0.18579 1.0805,-0.2984 1.28294,-0.24312 5.85804,-2.73936 6.28407,-3.42868 0.48698,-0.78797 -0.39418,-0.5486 -1.42944,0.38829 -1.74687,1.5809 -1.52186,0.38409 0.40133,-2.13463 1.0402,-1.36231 2.01708,-2.35113 2.17085,-2.19736 0.15376,0.15377 0.72032,0.0437 1.25902,-0.24461 0.66716,-0.35705 0.97944,-1.10326 0.97944,-2.34038 0,-1.26495 0.23865,-1.81621 0.78628,-1.81621 0.43245,0 0.78628,0.45784 0.78628,1.01743 0,0.55959 0.22698,1.15772 0.50441,1.32918 0.31819,0.19665 0.2941,0.83703 -0.0653,1.73454 -0.31333,0.78253 -0.7762,1.95352 -1.0286,2.6022 -0.85674,2.2018 -1.62761,4.06003 -1.9983,4.81699 -0.60462,1.23466 -6.40404,4.06307 -8.94431,4.36219 -1.29735,0.15276 -3.23102,0.10563 -4.29705,-0.10473 z"
           id="path11599" /><path
           style="fill:#90a334;stroke-width:0.524184"
           d="m 442.76284,435.00479 c 0,-2.05864 3.28434,-2.81979 7.75249,-1.79662 3.38934,0.77612 3.27807,1.19309 -0.236,0.88439 -2.23539,-0.19637 -3.56828,-0.0458 -4.66747,0.52745 -1.69423,0.88349 -2.84902,1.03946 -2.84902,0.38478 z"
           id="path11823" /><path
           style="fill:#90a334;stroke-width:0.524184"
           d="m 450.18258,435.89942 c -0.96296,-0.19695 -2.02385,-0.64415 -2.35751,-0.99377 -0.47149,-0.49404 -0.25627,-0.56687 0.96588,-0.32687 0.86491,0.16985 2.57506,0.35876 3.80034,0.4198 1.22528,0.061 2.22778,0.27398 2.22778,0.4732 0,0.57089 -2.71271,0.82109 -4.63649,0.42764 z"
           id="path11821" /><path
           style="fill:#90a334;stroke-width:0.524184"
           d="m 435.94844,437.50908 c 0,-0.29736 0.35383,-0.67642 0.78628,-0.84236 0.43245,-0.16595 0.78627,-0.8501 0.78627,-1.52035 0,-1.01745 0.23796,-1.19307 1.44151,-1.06388 0.97234,0.10437 2.03485,-0.33378 3.26454,-1.34622 1.73235,-1.4263 4.11417,-2.10188 3.41353,-0.96822 -0.18109,0.293 -0.54686,0.39825 -0.81283,0.23387 -0.61711,-0.3814 -3.11327,2.08793 -3.11327,3.07981 0,0.41194 -0.48146,0.87487 -1.0699,1.02875 -0.89134,0.23309 -1.01804,0.0902 -0.75914,-0.85618 0.30003,-1.09673 0.28325,-1.10162 -0.48586,-0.14143 -0.43814,0.54701 -0.69364,1.16119 -0.56776,1.36486 0.12587,0.20367 -0.36455,0.64069 -1.08983,0.97114 -1.61784,0.73714 -1.79354,0.74304 -1.79354,0.0602 z"
           id="path11811" /><path
           style="fill:#90a334;stroke-width:0.524184"
           d="m 448.13572,439.08174 c -0.64867,-0.26074 -1.17941,-0.63892 -1.17941,-0.84041 0,-0.20149 0.1357,-0.23065 0.30155,-0.0648 0.16585,0.16585 0.99144,0.10369 1.83464,-0.13814 1.6656,-0.47769 1.68357,-0.46653 1.21492,0.75472 -0.35818,0.93341 -0.51555,0.95432 -2.1717,0.28863 z"
           id="path11803" /><path
           style="fill:#90a334;stroke-width:0.524184"
           d="m 443.8112,440.2331 c -0.72075,-0.0965 -1.54634,-0.42062 -1.83464,-0.72031 -0.73788,-0.76702 5.96983,-0.15849 6.73976,0.61144 0.57733,0.57733 -1.12375,0.61509 -4.90512,0.10887 z"
           id="path11797" /><path
           style="fill:#90a334;stroke-width:0.524184"
           d="m 426.84555,441.49068 c -0.73814,-1.12655 -0.70942,-1.29976 0.38617,-2.32902 1.4357,-1.34877 3.87605,-1.44599 4.88574,-0.19463 0.68509,0.84907 0.71699,0.83264 0.42866,-0.22093 -0.21442,-0.78357 0.063,-1.50179 0.89018,-2.30488 0.66093,-0.64163 0.87038,-0.97754 0.46546,-0.74644 -0.46717,0.26662 -0.61119,0.21788 -0.3941,-0.13339 0.18816,-0.30446 1.0502,-0.8004 1.91563,-1.10209 1.90986,-0.66578 2.1752,0.26248 0.50666,1.7725 -0.58676,0.53102 -0.94832,1.27437 -0.80345,1.6519 0.15881,0.41383 -0.55412,1.10348 -1.79527,1.73667 -2.51878,1.28498 -2.44099,1.28493 -2.77651,0.002 -0.15079,-0.5766 -0.54042,-1.04837 -0.86586,-1.04837 -0.42256,0 -0.43659,0.28982 -0.0491,1.01391 0.79786,1.49082 0.68082,1.89995 -0.72708,2.54143 -1.09466,0.49877 -1.37964,0.41073 -2.06716,-0.63855 z"
           id="path11791" /><path
           style="fill:#90a334;stroke-width:0.524184"
           d="m 440.8966,442.81847 c 0.17366,-0.28097 -0.10202,-0.74654 -0.61262,-1.03461 -1.42742,-0.80532 -0.1855,-1.53934 2.10936,-1.2467 2.34129,0.29857 2.30161,1.11346 -0.10199,2.09423 -0.94076,0.38387 -1.56839,0.46806 -1.39475,0.18708 z"
           id="path11789" /><path
           style="fill:#90a334;stroke-width:0.524184"
           d="m 438.04518,442.50527 c -0.39512,-0.47607 -0.43735,-0.78627 -0.10706,-0.78627 0.96291,0 2.20379,0.62188 2.20379,1.10445 0,0.75001 -1.3846,0.5399 -2.09673,-0.31818 z"
           id="path11787" /><path
           style="fill:#90a334;stroke-width:0.524184"
           d="m 435.51216,444.74723 c -1.95525,-1.20712 -1.43747,-2.07323 0.87064,-1.45634 3.41368,0.91236 3.80636,1.14677 3.18179,1.89933 -0.80794,0.97351 -1.96244,0.84731 -4.05243,-0.44299 z"
           id="path11775" /><path
           style="fill:#90a334;stroke-width:0.524184"
           d="m 424.04512,444.8609 c 0.4925,-0.70313 0.89545,-1.71737 0.89545,-2.25385 0,-0.54723 0.28763,-0.87964 0.65523,-0.75725 1.29011,0.42956 0.94328,1.87607 -0.73665,3.07228 l -1.70948,1.21726 z"
           id="path11773" /><path
           style="fill:#90a334;stroke-width:0.524184"
           d="m 432.27915,445.93654 -1.83464,-0.98035 1.38505,-0.35079 c 1.45345,-0.36812 4.64307,0.89914 4.64307,1.84472 0,0.81916 -2.20467,0.54915 -4.19348,-0.51358 z"
           id="path11769" /><path
           style="fill:#90a334;stroke-width:0.524184"
           d="m 369.11726,448.00551 c 0.17944,-0.29035 0.95998,-0.83703 1.73453,-1.21485 1.14357,-0.55782 1.75311,-0.56268 3.24291,-0.0258 l 1.83465,0.66108 -2.19685,0.0296 c -1.20827,0.0163 -2.34263,0.26548 -2.52081,0.55378 -0.17818,0.2883 -0.79573,0.52418 -1.37233,0.52418 -0.57661,0 -0.90155,-0.23756 -0.7221,-0.52791 z"
           id="path11763" /><path
           style="fill:#90a334;stroke-width:0.524184"
           d="m 379.07445,448.44589 c -0.5766,-0.3189 -1.52013,-1.00049 -2.09673,-1.51463 -0.57661,-0.51415 -1.75602,-1.02494 -2.62093,-1.13511 -1.54986,-0.19741 -1.5434,-0.20657 0.44788,-0.63476 1.90802,-0.4103 2.14088,-0.314 4.18576,1.73088 2.12658,2.12658 2.15762,2.70049 0.084,1.55362 z"
           id="path11761" /><path
           style="fill:#90a334;stroke-width:0.524184"
           d="m 427.2994,449.05074 -1.57255,-0.29201 2.2802,-1.52746 c 2.1377,-1.432 2.36701,-1.47873 3.66929,-0.74778 2.06872,1.16114 1.76724,2.26268 -0.70765,2.58564 -1.1532,0.15049 -2.80438,0.14222 -3.66929,-0.0184 z"
           id="path11755" /><path
           style="fill:#90a334;stroke-width:0.524184"
           d="m 382.15916,449.70481 c -0.76989,-0.50719 -1.45662,-2.74394 -0.84244,-2.74394 0.48504,0 1.74642,1.29426 2.4266,2.48988 0.40819,0.71751 -0.62832,0.88375 -1.58416,0.25406 z"
           id="path11753" /><path
           style="fill:#90a334;stroke-width:0.524184"
           d="m 418.86111,448.22159 c 1.06172,-2.04547 2.7771,-4.52224 3.81196,-5.50393 l 1.88156,-1.78491 -0.36959,1.5546 c -0.42685,1.7955 -3.114,5.60156 -5.56394,7.88072 l -1.69039,1.57255 z"
           id="path11747" /><path
           style="fill:#90a334;stroke-width:0.524184"
           d="m 374.34849,451.83337 c -1.14864,-0.40214 -3.20888,-0.97486 -4.57831,-1.27272 -3.09184,-0.67251 -3.22951,-1.2731 -0.26227,-1.14418 2.64719,0.11501 8.78027,1.69741 8.78027,2.26541 0,0.79387 -1.89653,0.8668 -3.93969,0.15149 z"
           id="path11743" /><path
           style="fill:#90a334;stroke-width:0.524184"
           d="m 422.90987,452.54429 c -0.87594,-1.05544 1.1936,-2.70049 3.39735,-2.70049 2.04149,0 2.28906,0.79986 0.73009,2.35883 -1.20445,1.20445 -3.26952,1.3754 -4.12744,0.34166 z"
           id="path11737" /><path
           style="fill:#90a334;stroke-width:0.524184"
           d="m 419.69873,453.83129 c 0,-0.63858 1.54297,-1.18461 2.2,-0.77854 0.33426,0.20659 0.2678,0.49727 -0.17835,0.77995 -0.93173,0.59038 -2.02165,0.58961 -2.02165,-10e-4 z"
           id="path11731" /><path
           style="fill:#90a334;stroke-width:0.524184"
           d="m 391.66648,452.73896 c -0.82224,-0.85825 -2.23744,-1.80547 -3.14487,-2.10495 -1.02371,-0.33786 -1.86497,-1.08848 -2.2166,-1.97781 -0.50674,-1.28158 -0.57263,-1.31241 -0.62249,-0.29133 -0.0665,1.3613 1.2244,2.78942 2.52136,2.78942 0.51132,0 1.34952,0.46391 1.86266,1.03092 0.88289,0.97558 0.78598,0.96883 -1.80502,-0.12584 -1.71419,-0.72423 -3.00566,-1.67438 -3.45383,-2.54104 -0.39371,-0.76135 -1.45005,-2.00208 -2.34743,-2.75717 -2.15747,-1.81539 -0.96977,-1.72934 2.84723,0.20629 1.69836,0.86125 3.65831,1.56591 4.35545,1.56591 0.69714,0 1.15095,0.18863 1.00847,0.41918 -0.14249,0.23054 0.55124,1.44316 1.54161,2.69469 0.99038,1.25153 1.80068,2.36026 1.80068,2.46384 0,0.59808 -1.0448,-0.0127 -2.34722,-1.37211 z"
           id="path11729" /><path
           style="fill:#90a334;stroke-width:0.524184"
           d="m 394.94129,454.15137 c -0.94262,-1.03112 -2.13999,-2.59906 -2.66082,-3.48429 -1.18365,-2.01184 -0.308,-2.17414 2.28871,-0.42423 1.26762,0.85426 1.87719,1.75478 2.1825,3.22423 0.23299,1.1214 0.30659,2.15594 0.16355,2.29898 -0.14304,0.14304 -1.03131,-0.58357 -1.97394,-1.61469 z"
           id="path11725" /><path
           style="fill:#90a334;stroke-width:0.524184"
           d="m 379.77816,456.52717 c -0.42309,-0.50452 -1.16943,-1.56097 -1.65856,-2.34765 -0.87354,-1.40496 -0.86592,-1.43619 0.42973,-1.76138 1.3547,-0.34001 3.07412,0.47944 5.36282,2.55584 l 1.1684,1.06002 -1.35937,0.70525 c -1.83338,0.95117 -3.02113,0.88728 -3.94302,-0.21208 z"
           id="path11717" /><path
           style="fill:#90a334;stroke-width:0.524184"
           d="m 399.93769,457.56388 c -1.05302,-0.82749 -2.2547,-3.14428 -2.2547,-4.34698 0,-0.79342 1.37125,-0.56241 2.53625,0.42726 1.08722,0.9236 2.16307,4.85875 1.32242,4.83705 -0.24831,-0.006 -0.97009,-0.41921 -1.60397,-0.91733 z"
           id="path11713" /><path
           style="fill:#90a334;stroke-width:0.524184"
           d="m 385.09206,458.2181 c -0.79291,-0.95539 -0.6801,-1.10449 1.191,-1.5741 1.57389,-0.39502 1.78595,0.0393 0.71074,1.45573 -0.85113,1.12122 -1.05873,1.13414 -1.90174,0.11837 z"
           id="path11705" /><path
           style="fill:#90a334;stroke-width:0.524184"
           d="m 403.8227,459.66456 c -0.46045,-0.50879 -1.05874,-1.9112 -1.32955,-3.11647 l -0.49237,-2.1914 1.26959,0.83187 c 1.56269,1.02392 2.27539,2.29437 2.27539,4.05614 0,1.57426 -0.55578,1.70969 -1.72306,0.41986 z"
           id="path11699" /><path
           style="fill:#90a334;stroke-width:0.524184"
           d="m 391.83423,459.74986 c 0.6594,-0.46186 1.35373,-0.68492 1.54296,-0.49569 0.42058,0.42059 -0.90885,1.31637 -1.97,1.32741 -0.49743,0.005 -0.3456,-0.29054 0.42704,-0.83172 z"
           id="path11697" /><path
           style="fill:#90a334;stroke-width:0.524184"
           d="m 388.29914,460.01964 -1.259,-0.50351 1.18398,-1.26029 c 0.84767,-0.9023 1.47691,-1.15193 2.2152,-0.87882 1.17744,0.43556 1.21617,0.7094 0.30638,2.16621 -0.73322,1.17407 -0.71229,1.16999 -2.44656,0.47641 z"
           id="path11695" /><path
           style="fill:#90a334;stroke-width:0.524184"
           d="m 395.27124,463.33354 c -0.31741,-0.21181 -0.69265,-1.00844 -0.83387,-1.77028 -0.25193,-1.35918 -0.22428,-1.37393 1.47312,-0.78628 0.95143,0.32939 1.73946,0.77581 1.75119,0.99204 0.0857,1.58029 -0.0903,1.96471 -0.89601,1.95766 -0.50453,-0.004 -1.17702,-0.18132 -1.49443,-0.39314 z"
           id="path11685" /><path
           style="fill:#90a334;stroke-width:0.524184"
           d="m 398.06752,464.46869 c -0.36945,-0.36945 0.66605,-2.83072 1.19092,-2.83072 0.19734,0 0.75081,0.43316 1.22993,0.96259 0.82026,0.90637 0.79296,0.9982 -0.4676,1.57255 -1.55584,0.70888 -1.54203,0.7068 -1.95325,0.29558 z"
           id="path11681" /><path
           style="fill:#90a334;stroke-width:0.524184"
           d="m 409.60818,464.20805 c -1.72334,-1.51915 -3.01406,-3.09304 -3.01406,-3.67533 0,-0.94246 0.1076,-0.96277 1.44275,-0.27234 1.91573,0.99067 3.06303,2.31501 4.04823,4.67293 0.44732,1.07057 0.75117,1.94316 0.67522,1.93909 -0.0759,-0.004 -1.4944,-1.20303 -3.15214,-2.66435 z"
           id="path11679" /><path
           style="fill:#90a334;stroke-width:0.524184"
           d="m 400.09877,465.89437 c -0.84927,-0.93843 -0.82574,-1.00203 0.49308,-1.33304 0.82687,-0.20753 1.70058,-0.0856 2.16836,0.30264 0.68905,0.57186 0.67093,0.73252 -0.15032,1.33303 -1.22327,0.89448 -1.45279,0.86682 -2.51112,-0.30263 z"
           id="path11677" /><path
           style="fill:#90a334;stroke-width:0.524184"
           d="m 404.4107,468.57159 c -1.71341,-0.22112 -2.34488,-1.51486 -0.95473,-1.95608 1.61407,-0.51228 4.16321,1.30384 2.74502,1.95568 -0.21623,0.0994 -1.02185,0.0996 -1.79029,4e-4 z"
           id="path11675" /><path
           style="fill:#90a334;stroke-width:0.524184"
           d="m 407.14777,470.07996 c -0.94658,-1.7687 0.47692,-2.16275 2.97092,-0.82243 1.60233,0.86113 1.98878,1.27637 1.39864,1.50283 -1.68951,0.64832 -3.83745,0.31386 -4.36956,-0.6804 z"
           id="path10120" /><path
           style="fill:#778c2b;stroke-width:0.524184"
           d="m 409.21505,428.61436 c -0.47245,-0.30531 -0.5371,-0.51133 -0.16199,-0.51616 0.34336,-0.004 0.77008,0.22786 0.94826,0.51616 0.40221,0.65079 0.22075,0.65079 -0.78627,0 z"
           id="path12147" /><path
           style="fill:#778c2b;stroke-width:0.524184"
           d="m 451.14978,434.85596 c -1.58565,-0.19052 -3.44893,-0.22312 -4.14061,-0.0725 -0.89627,0.19524 -1.14497,0.0917 -0.86561,-0.36029 0.27722,-0.44855 1.47955,-0.54488 4.10646,-0.32901 3.39436,0.27893 4.58161,0.56356 4.00119,0.95926 -0.12013,0.0819 -1.51577,-0.007 -3.10143,-0.19751 z"
           id="path12133" /><path
           style="fill:#778c2b;stroke-width:0.524184"
           d="m 441.71447,435.22473 c 0,-1.33782 1.81538,-2.98897 3.59407,-3.2689 1.1813,-0.18592 1.64479,-0.0914 1.41057,0.28755 -0.19187,0.31045 -0.94513,0.56446 -1.67391,0.56446 -0.99093,0 -1.47474,0.39654 -1.91863,1.57255 -0.61679,1.63405 -1.4121,2.10959 -1.4121,0.84434 z"
           id="path12131" /><path
           style="fill:#778c2b;stroke-width:0.524184"
           d="m 439.07792,435.45795 c 0.84457,-1.57809 1.68064,-1.854 0.98383,-0.32468 -0.33676,0.73912 -0.81862,1.34386 -1.07079,1.34386 -0.25217,0 -0.21303,-0.45863 0.087,-1.01918 z"
           id="path12127" /><path
           style="fill:#778c2b;stroke-width:0.524184"
           d="m 435.0555,438.13075 c -0.0106,-0.47704 0.39182,-1.33911 0.89429,-1.91572 0.50247,-0.5766 1.04293,-1.40219 1.20101,-1.83464 0.16685,-0.45643 0.30479,-0.20509 0.32881,0.59915 0.0244,0.81678 -0.30366,1.51783 -0.79928,1.70802 -0.46236,0.17742 -0.71314,0.6549 -0.55728,1.06106 0.15586,0.40617 -0.0162,0.85346 -0.38244,0.99398 -0.36962,0.14184 -0.67439,-0.13035 -0.68511,-0.61185 z"
           id="path12115" /><path
           style="fill:#778c2b;stroke-width:0.524184"
           d="m 431.931,438.80072 c -0.17338,-0.45183 -0.107,-1.0295 0.1475,-1.28371 0.26737,-0.26706 0.49466,0.0798 0.53834,0.82151 0.0862,1.46311 -0.22205,1.67081 -0.68584,0.4622 z"
           id="path12113" /><path
           style="fill:#778c2b;stroke-width:0.524184"
           d="m 429.73215,439.83744 c -0.47218,-1.03635 -0.47293,-1.30902 -0.003,-1.15242 0.72188,0.24062 1.66656,2.50997 1.04484,2.50997 -0.23273,0 -0.70149,-0.6109 -1.04169,-1.35755 z"
           id="path12107" /><path
           style="fill:#778c2b;stroke-width:0.524184"
           d="m 422.47208,445.83689 c 0.73618,-0.96739 1.49609,-2.3905 1.68871,-3.16247 0.44901,-1.79955 1.83955,-2.35946 2.76864,-1.11483 0.38833,0.52022 0.92529,0.88688 1.19324,0.81481 0.85969,-0.23124 0.52267,0.24932 -0.76786,1.09491 -1.17287,0.76849 -1.23853,0.75915 -1.0027,-0.14265 0.13879,-0.53074 -0.0198,-1.13317 -0.35238,-1.33873 -0.82228,-0.5082 -1.012,-0.22789 -1.26287,1.86587 -0.11841,0.98821 -0.47483,1.73778 -0.79206,1.6657 -0.31723,-0.0721 -0.57678,0.0965 -0.57678,0.3747 0,0.27816 -0.50275,0.7748 -1.11722,1.10366 -1.0263,0.54925 -1.00828,0.45477 0.22128,-1.16097 z"
           id="path12089" /><path
           style="fill:#778c2b;stroke-width:0.524184"
           d="m 384.57839,450.72446 c -0.43245,-0.19594 -0.86383,-0.71009 -0.95861,-1.14254 -0.21001,-0.9582 -1.65501,-2.62092 -2.27773,-2.62092 -0.24911,0 -0.29864,0.61471 -0.11007,1.36603 0.30502,1.21531 0.10719,1.1141 -1.79297,-0.91732 -1.1747,-1.25585 -1.90408,-2.36536 -1.62083,-2.46559 1.73081,-0.61244 5.66161,2.00652 7.05459,4.70024 0.4295,0.83056 0.71588,1.49353 0.6364,1.47326 -0.0795,-0.0203 -0.49833,-0.19717 -0.93078,-0.39313 z"
           id="path12075" /><path
           style="fill:#778c2b;stroke-width:0.524184"
           d="m 440.14191,442.82342 c 0,-0.48257 -1.24088,-1.10445 -2.20379,-1.10445 -0.33029,0 -0.28806,0.31019 0.10706,0.78627 0.71213,0.85808 2.09673,1.06819 2.09673,0.31818 z"
           id="path12065" /><path
           style="fill:#778c2b;stroke-width:0.524184"
           d="m 420.7471,450.62307 c 3.28514,-3.19688 8.71542,-7.33155 9.62892,-7.33155 0.13417,0 2.09102,-1.09202 4.34855,-2.4267 4.2531,-2.51451 11.15083,-5.51095 12.67123,-5.50452 0.47903,0.002 1.65995,0.19736 2.62425,0.43406 1.70747,0.41913 1.72698,0.45416 0.74689,1.34113 -0.55351,0.50092 -1.63733,0.96298 -2.40851,1.0268 -1.75307,0.14509 -1.75618,0.30291 -0.019,0.9634 1.94659,0.74009 1.27424,1.10834 -0.89023,0.48758 -2.36489,-0.67825 -5.89383,-0.67246 -5.47268,0.009 0.17818,0.2883 0.89975,0.52418 1.60349,0.52418 0.70374,0 1.27952,0.20421 1.27952,0.4538 0,0.24959 -1.0025,0.26738 -2.22778,0.0395 -2.52141,-0.46886 -3.73972,0.17094 -2.3126,1.21447 0.80049,0.58533 0.81878,0.78428 0.15556,1.69129 -0.63248,0.86497 -0.94697,0.93325 -1.98374,0.43072 -3.13034,-1.51729 -6.12921,-0.95791 -3.14309,0.58628 0.90689,0.46897 1.64889,1.07454 1.64889,1.34571 0,0.27118 -0.82829,0.004 -1.84065,-0.59296 -1.31398,-0.77526 -2.2514,-0.9787 -3.27615,-0.71099 l -1.4355,0.37501 1.7036,0.82378 c 0.93697,0.45307 1.70359,1.03651 1.70359,1.29654 0,0.26002 -0.17691,0.38657 -0.39313,0.28121 -0.21623,-0.10535 -1.03599,-0.51404 -1.82169,-0.90819 -1.31188,-0.65812 -1.61153,-0.59404 -3.66929,0.7847 l -2.24074,1.50135 1.57255,0.30931 c 1.41832,0.27898 1.46412,0.34621 0.46699,0.68551 -0.60807,0.20691 -1.50463,0.22306 -1.99237,0.0359 -1.256,-0.48197 -3.65212,1.80548 -2.87372,2.74339 0.44423,0.53526 0.24347,0.68259 -0.92386,0.67797 -2.5069,-0.01 -3.5539,0.16018 -4.37445,0.71063 -0.43245,0.2901 0.98285,-1.19413 3.14511,-3.29831 z"
           id="path12063" /><path
           style="fill:#778c2b;stroke-width:0.524184"
           d="m 391.7087,453.51323 c -0.547,-0.41404 -1.25465,-0.60461 -1.57256,-0.42347 -0.3179,0.18114 -0.40314,0.13632 -0.18941,-0.0996 0.55221,-0.60956 -0.60056,-1.83586 -1.7258,-1.83586 -1.31202,0 -2.60523,-1.42108 -2.53841,-2.78942 0.0499,-1.02108 0.11575,-0.99025 0.62249,0.29133 0.35163,0.88933 1.19289,1.63995 2.2166,1.97781 0.90743,0.29948 2.32263,1.2467 3.14487,2.10495 1.61279,1.68338 1.6287,1.97515 0.0422,0.77427 z"
           id="path12061" /><path
           style="fill:#778c2b;stroke-width:0.524184"
           d="m 394.53789,454.91778 c -0.43245,-0.19597 -0.86291,-0.71012 -0.95657,-1.14257 -0.0937,-0.43246 -0.57663,-1.25805 -1.07325,-1.83465 -1.75968,-2.04307 -2.28608,-2.88301 -1.80685,-2.88301 0.26685,0 1.48328,1.41529 2.70317,3.1451 1.21989,1.72981 2.15089,3.12853 2.06888,3.10826 -0.082,-0.0203 -0.50293,-0.19717 -0.93538,-0.39313 z"
           id="path12055" /><path
           style="fill:#778c2b;stroke-width:0.524184"
           d="m 396.9586,454.73985 c -0.31358,-1.56789 -0.0995,-2.48742 0.451,-1.93695 0.13793,0.13794 0.31485,0.82593 0.39314,1.52887 0.0783,0.70295 0.37823,1.45138 0.66653,1.66319 0.30153,0.22153 0.16238,0.38852 -0.32762,0.39314 -0.53948,0.005 -0.97325,-0.59926 -1.18305,-1.64825 z"
           id="path12051" /><path
           style="fill:#778c2b;stroke-width:0.524184"
           d="m 416.13163,457.1824 c 0.0107,-0.8649 0.12816,-1.15527 0.26107,-0.64525 0.1329,0.51001 0.12416,1.21766 -0.0195,1.57255 -0.14359,0.35489 -0.25233,-0.0624 -0.24165,-0.9273 z"
           id="path12047" /><path
           style="fill:#778c2b;stroke-width:0.524184"
           d="m 402.62043,459.35466 c -0.59988,-0.33437 -0.99771,-0.88688 -0.88406,-1.22782 0.11365,-0.34093 -0.0299,-1.47653 -0.319,-2.52355 -0.45091,-1.63307 -0.41838,-1.81466 0.22883,-1.27752 0.41495,0.34438 0.7559,1.128 0.75768,1.74137 0.002,0.61338 0.34161,1.76391 0.75519,2.55674 0.41358,0.79283 0.70698,1.41838 0.652,1.39011 -0.055,-0.0283 -0.59077,-0.32496 -1.19064,-0.65933 z"
           id="path12039" /><path
           style="fill:#778c2b;stroke-width:0.524184"
           d="m 406.58813,462.01451 c -1.03234,-0.91188 -1.25549,-1.50224 -1.03398,-2.7354 0.2316,-1.28934 0.35068,-1.39962 0.66123,-0.61236 0.20831,0.52811 0.37874,1.33513 0.37874,1.79337 0,0.45825 0.39039,1.26455 0.86752,1.79177 1.17796,1.30163 0.7314,1.18027 -0.87351,-0.23738 z"
           id="path12035" /><path
           style="fill:#778c2b;stroke-width:0.524184"
           d="m 416.65581,465.56935 c 0.0107,-0.8649 0.12817,-1.15527 0.26107,-0.64525 0.1329,0.51001 0.12416,1.21766 -0.0195,1.57255 -0.14359,0.35489 -0.25232,-0.0624 -0.24164,-0.9273 z"
           id="path12027" /><path
           style="fill:#778c2b;stroke-width:0.524184"
           d="m 411.27211,465.96249 -1.27079,-1.44151 1.44151,1.27079 c 1.3473,1.18774 1.68189,1.61223 1.27078,1.61223 -0.0939,0 -0.74257,-0.64868 -1.4415,-1.44151 z"
           id="path12023" /><path
           style="fill:#778c2b;stroke-width:0.524184"
           d="m 409.39119,468.9448 c -1.06191,-0.68028 -1.78013,-0.86566 -1.99663,-0.51535 -0.50787,0.82175 -1.33435,0.65819 -1.00542,-0.19898 0.39623,-1.03257 -1.55402,-1.96725 -3.3225,-1.59235 -1.23773,0.26239 -1.31246,0.21929 -0.50588,-0.29172 1.48507,-0.94086 0.12416,-2.21912 -1.94723,-1.82898 -1.56252,0.2943 -1.5774,0.28008 -0.41889,-0.39993 l 1.2012,-0.70507 -1.07336,-0.97137 c -0.59035,-0.53426 -1.15507,-0.87454 -1.25493,-0.75619 -0.0999,0.11836 -0.45887,0.68697 -0.7978,1.26357 -0.58689,0.99849 -0.60928,0.98875 -0.47044,-0.20454 0.12079,-1.03816 -0.20927,-1.37665 -1.9257,-1.97487 -1.13931,-0.39709 -2.23009,-0.9786 -2.42394,-1.29226 -0.23982,-0.38805 -0.79231,-0.28209 -1.72886,0.33156 -1.54767,1.01408 -1.81575,0.56304 -0.5178,-0.87118 0.80308,-0.88741 0.77767,-0.97963 -0.39314,-1.42657 -0.97673,-0.37285 -1.51039,-0.2402 -2.42908,0.60376 -1.30436,1.19826 -2.24495,0.87366 -1.18148,-0.40774 0.99753,-1.20196 0.31335,-1.49518 -1.83465,-0.78628 -1.04768,0.34577 -2.05569,0.47786 -2.24001,0.29354 -0.18432,-0.18431 0.19474,-0.47368 0.84235,-0.64304 1.12283,-0.29362 1.13553,-0.35427 0.27369,-1.30659 -1.63983,-1.812 -4.31456,-3.15513 -5.82015,-2.92265 -0.79355,0.12254 -1.14797,0.12411 -0.78759,0.004 0.36037,-0.12061 0.65523,-0.40885 0.65523,-0.64054 0,-0.64927 -6.30502,-2.24242 -8.55861,-2.16258 -1.25781,0.0446 -1.88183,-0.13032 -1.67266,-0.46876 0.1835,-0.29707 0.8955,-0.54 1.58223,-0.54 0.68672,0 1.39437,-0.23588 1.57255,-0.52418 0.17818,-0.2883 1.31254,-0.54546 2.52081,-0.57146 l 2.19685,-0.0473 -1.83465,-0.58728 -1.83464,-0.58727 1.78109,-0.19071 c 1.29523,-0.1387 2.08169,0.11321 2.88301,0.92345 0.89707,0.90703 0.93139,1.05003 0.1846,0.76918 -0.53649,-0.20176 -0.91732,-0.0987 -0.91732,0.24826 0,0.32628 0.64514,0.83852 1.43364,1.13831 0.78849,0.29978 2.14482,0.86432 3.01405,1.25451 3.54682,1.59217 7.03491,3.04735 10.82936,4.51785 2.20391,0.8541 5.49352,2.51363 7.31026,3.68784 3.12763,2.02149 14.10559,10.76925 14.10559,11.24001 0,0.58411 -2.01242,0.0888 -3.49315,-0.85979 z"
           id="path12017" /><path
           style="fill:#526028;stroke-width:0.524184"
           d="m 414.56,491.59866 c -0.54829,-0.35368 -0.57416,-1.50283 -0.13105,-5.82091 0.30367,-2.95913 0.55212,-7.21049 0.55212,-9.44747 0,-4.94723 -0.11109,-5.11285 -7.51264,-11.20046 -6.93231,-5.70168 -11.02793,-8.32623 -15.99994,-10.25307 -3.79445,-1.4705 -7.28254,-2.92568 -10.82936,-4.51785 -0.86923,-0.3902 -2.22556,-0.95473 -3.01405,-1.25452 -0.7885,-0.29979 -1.43364,-0.81203 -1.43364,-1.13831 0,-0.32628 0.29485,-0.46924 0.65523,-0.3177 0.36038,0.15156 3.72171,1.50246 7.46963,3.00201 3.74791,1.49956 8.28929,3.4058 10.09194,4.23611 1.80265,0.8303 3.4106,1.50964 3.57322,1.50964 0.16262,0 1.06881,0.5897 2.01377,1.31046 0.94495,0.72075 1.88922,1.31046 2.09836,1.31046 0.77163,0 5.17939,3.32567 8.39694,6.33553 1.82252,1.70488 3.46053,3.09978 3.64002,3.09978 1.15061,0 -0.58656,-17.72864 -2.59117,-26.44411 -3.00431,-13.06182 -3.20544,-14.50322 -1.82752,-13.09685 0.86782,0.88574 4.04482,12.43614 5.00063,18.18046 0.51569,3.09924 1.08194,5.63305 1.25833,5.63069 0.17639,-0.003 1.38219,-1.06689 2.67954,-2.36564 5.52711,-5.53301 17.8915,-12.96696 24.35365,-14.64235 3.03688,-0.78735 5.75554,-1.09303 3.9523,-0.44439 -4.45701,1.60322 -8.17222,3.25372 -11.00787,4.89027 -1.87396,1.08153 -4.58661,2.61213 -6.02812,3.40133 -3.39359,1.85795 -5.25678,3.265 -9.19525,6.94406 -4.70423,4.39437 -4.71162,4.41768 -4.11933,13.00182 0.27716,4.01695 0.43778,12.01814 0.35695,17.78042 -0.12379,8.82444 -0.27098,10.49852 -0.93325,10.61407 -0.43245,0.0755 -1.0937,-0.0611 -1.46944,-0.30348 z"
           id="path12281" /></g></g></g></svg>
