<?xml version="1.0" encoding="UTF-8" standalone="no"?>
<!-- Created with Inkscape (http://www.inkscape.org/) -->

<svg
   width="159.24724mm"
   height="277.27151mm"
   viewBox="0 0 159.24724 277.27151"
   version="1.1"
   id="svg5"
   xml:space="preserve"
   xmlns="http://www.w3.org/2000/svg"
   xmlns:svg="http://www.w3.org/2000/svg"><defs
     id="defs2" /><g
     id="layer1"
     style="display:inline;opacity:1"
     transform="translate(3331.2595,15.318734)"><g
       id="g142172"><g
         id="g12957"
         transform="matrix(2.2040458,0,0,2.2040458,-4941.5913,-832.91856)"><path
           style="fill:#f6f9fb;stroke-width:0.524184"
           d="m 765.06955,428.52727 c -0.0398,0.002 -0.0691,0.0305 -0.0863,0.0868 -0.13177,0.43246 -0.53868,2.08388 -0.90434,3.66954 -0.36567,1.58566 -0.76267,3.14816 -0.88263,3.47214 -0.11997,0.32398 0.56233,1.06959 1.51619,1.65726 2.07738,1.27986 2.55706,1.21443 3.51244,-0.47955 0.6662,-1.18125 0.56725,-1.63449 -1.13584,-5.19969 -0.93616,-1.95971 -1.74096,-3.22325 -2.01952,-3.20652 z"
           id="path10759" /><path
           style="fill:#f6f9fb;stroke-width:0.524184"
           d="m 758.06894,425.99358 c -0.1487,0 -1.80354,1.4504 -3.67781,3.22306 -3.09918,2.93118 -3.40806,3.41422 -3.40806,5.33869 0,1.45119 0.35836,2.49751 1.13998,3.32951 1.48097,1.57642 2.15837,1.52961 4.19303,-0.28835 1.52681,-1.3642 1.71607,-1.87762 2.07377,-5.6224 0.21653,-2.26661 0.30641,-4.20857 0.19948,-4.3155 -0.10693,-0.10693 -0.69937,0.79493 -1.3162,2.00401 -0.61683,1.20909 -1.23841,2.08129 -1.38183,1.93787 -0.14342,-0.14343 0.34848,-1.46401 1.09347,-2.93419 0.745,-1.47017 1.23287,-2.6727 1.08417,-2.6727 z"
           id="path10753" /><path
           style="fill:#f6f9fb;stroke-width:0.524184"
           d="m 763.34459,418.26126 c 0.11247,0.11248 -0.15058,2.05973 -0.58446,4.32739 -0.77065,4.02782 -1.29346,5.53458 -1.29346,3.7269 0,-1.29192 1.63364,-8.29856 1.87792,-8.05429 z"
           id="path10733" /><path
           style="fill:#f6f9fb;stroke-width:0.524184"
           d="m 767.75311,417.08259 c -0.19609,0 -0.74465,1.97546 -1.21905,4.38992 -0.82767,4.21238 -0.82133,4.50938 0.154,7.34425 0.55905,1.62489 1.43918,3.67011 1.95595,4.54494 0.75615,1.28005 1.23892,1.56013 2.47272,1.43557 1.22688,-0.12386 1.65708,-0.52136 2.15439,-1.98954 0.55683,-1.64396 0.43555,-2.3519 -1.16944,-6.81405 -2.69054,-7.48013 -3.29131,-7.6648 -2.0314,-0.62374 0.37715,2.10771 0.50039,3.6413 0.27388,3.40755 -0.22651,-0.23375 -0.82164,-2.96086 -1.32291,-6.0601 -0.50127,-3.09924 -1.07205,-5.6348 -1.26814,-5.6348 z"
           id="path10725" /><path
           style="fill:#f6f9fb;stroke-width:0.524184"
           d="m 741.02347,416.09402 1.31052,0.0444 -1.31052,0.41962 c -0.72075,0.23083 -1.66406,0.43975 -2.09651,0.46405 -0.69891,0.0393 -0.69891,-0.0124 0,-0.46405 0.43245,-0.27947 1.37576,-0.48836 2.09651,-0.46406 z"
           id="path10723" /><path
           style="fill:#f6f9fb;stroke-width:0.524184"
           d="m 781.86439,416.05632 c -0.40739,0.0123 0.32064,0.97917 1.61799,2.1487 1.3171,1.1873 1.71527,1.72472 0.90124,1.21698 -0.80182,-0.50013 -1.58939,-0.77739 -1.75028,-0.6165 -0.62256,0.62257 4.08944,7.7392 5.97069,9.01754 2.24302,1.52418 4.56884,1.72406 5.06326,0.43563 0.18567,-0.48384 -0.0579,-2.13787 -0.54157,-3.67574 -0.85342,-2.71323 -1.02238,-2.88133 -5.69991,-5.67252 -2.65126,-1.58206 -5.15403,-2.86639 -5.56142,-2.85409 z"
           id="path10719" /><path
           style="fill:#f6f9fb;stroke-width:0.524184"
           d="m 759.89777,415.39591 c -0.2939,0.007 -1.03752,0.65304 -2.23242,2.05673 -2.90126,3.4082 -9.75926,9.97647 -11.53108,11.04377 -1.99851,1.20385 -1.90586,2.95466 0.21188,4.01112 0.90918,0.45357 1.8855,0.82476 2.16989,0.82476 0.719,0 10.85361,-9.98399 11.44013,-11.27012 0.3531,-0.77428 0.40173,-0.56847 0.18655,0.78652 -0.49357,3.10808 -0.91257,11.45974 -0.61392,12.23801 0.30365,0.7913 2.76676,0.59712 3.29644,-0.25993 0.16209,-0.26226 0.7232,-2.53402 1.24695,-5.04827 0.52376,-2.51424 1.33533,-6.31647 1.80351,-8.44962 0.46818,-2.13316 0.78827,-3.9309 0.71107,-3.9951 -0.0772,-0.0642 -1.26037,-0.27977 -2.62981,-0.47852 -2.39807,-0.34806 -2.49029,-0.31335 -2.49029,0.93844 0,0.71484 -0.17328,1.7317 -0.38551,2.25981 -0.30183,0.75104 -0.44457,0.56367 -0.65525,-0.86093 l -0.26976,-1.82159 -2.09651,3.25354 c -1.1532,1.78938 -2.35247,3.35334 -2.66495,3.47524 -0.31248,0.1219 0.69226,-1.66179 2.23294,-3.96358 2.00058,-2.98893 2.75998,-4.75212 2.27014,-4.74028 z"
           id="path10711" /><path
           style="fill:#f6f9fb;stroke-width:0.524184"
           d="m 772.44998,415.21918 c -0.38769,0.0409 -0.85416,0.22171 -1.35496,0.54984 -1.60151,1.04935 -1.53828,1.44625 1.41335,8.83822 1.13455,2.84133 2.06293,5.6223 2.06293,6.17998 0,0.9958 1.71671,4.79524 2.74867,6.08335 0.73575,0.91839 2.49559,0.81541 3.6313,-0.21239 0.74159,-0.67113 0.9586,-1.64005 0.9586,-4.27881 0,-3.86093 -0.77536,-5.51494 -5.59656,-11.93622 -1.5345,-2.04378 -2.79001,-3.9761 -2.79001,-4.29379 0,-0.6776 -0.42718,-0.99839 -1.07332,-0.93018 z"
           id="path10709" /><path
           style="fill:#f6f9fb;stroke-width:0.524184"
           d="m 756.34864,414.88845 c 0.20544,-0.12321 -0.30727,0.43836 -1.43403,1.62161 -2.33564,2.45273 -5.50405,5.13468 -5.50405,4.65914 0,-0.0979 1.82795,-1.80538 4.06228,-3.7946 1.74647,-1.55487 2.67035,-2.36294 2.8758,-2.48615 z"
           id="path10707" /><path
           style="fill:#f6f9fb;stroke-width:0.524184"
           d="m 793.27455,413.1144 c -1.26646,-0.0665 -2.01001,0.006 -2.14302,0.22117 -0.16052,0.25973 0.58839,1.09085 1.66449,1.84692 1.60078,1.12429 2.36938,1.32782 4.22765,1.11724 2.65201,-0.30053 3.23288,-0.5851 3.23288,-1.58336 0,-0.42265 -0.7196,-0.8411 -1.70377,-0.99116 -2.22275,-0.33891 -4.01178,-0.54431 -5.27823,-0.61081 z"
           id="path10699" /><path
           style="fill:#f6f9fb;stroke-width:0.524184"
           d="m 776.36498,411.84057 c -0.1492,0 -0.82607,0.64502 -1.5043,1.43351 l -1.23351,1.4335 0.98547,1.93167 c 0.54199,1.06238 2.11511,3.42484 3.49539,5.24981 1.38028,1.82497 3.06287,4.21481 3.73931,5.31078 1.38373,2.24195 2.72311,2.393 3.21996,0.36329 0.2272,-0.92816 -0.21288,-2.29666 -1.51619,-4.71496 -2.0242,-3.75594 -6.75841,-11.0076 -7.18613,-11.0076 z"
           id="path10693" /><path
           style="fill:#f6f9fb;stroke-width:0.524184"
           d="m 753.91984,408.72397 c 0.23748,0.0238 0.18226,0.16785 -0.31574,0.45165 -0.43245,0.24644 -1.61198,0.59062 -2.62103,0.76533 l -1.83451,0.31781 1.83451,-0.74156 c 1.33149,-0.53837 2.54098,-0.83285 2.93677,-0.79323 z"
           id="path10681" /><path
           style="fill:#f6f9fb;stroke-width:0.524184"
           d="m 753.99274,407.69716 c -0.3336,0.0255 -0.77912,0.0867 -1.36684,0.17053 -1.33607,0.19056 -4.43378,0.48042 -6.88434,0.64389 -3.91193,0.26096 -4.79164,0.51467 -7.20783,2.08049 -2.28897,1.48338 -2.75177,2.04191 -2.75177,3.32073 0,0.88502 0.40419,1.82831 0.9524,2.2226 0.72592,0.52208 0.96074,1.41648 0.98754,3.76153 0.0353,3.08412 0.53849,3.97507 2.2536,3.99097 0.43245,0.004 2.90883,-1.76412 5.50354,-3.92947 5.46718,-4.56251 10.10692,-7.88322 10.48567,-7.50446 0.14507,0.14507 -1.61722,1.61818 -3.91656,3.27371 -4.48668,3.23043 -11.56461,9.00555 -12.19564,9.95081 -0.8242,1.23464 -0.41479,2.86046 0.77825,3.09025 3.66535,0.70598 3.77844,0.63926 11.20862,-6.59598 7.87591,-7.66927 7.78078,-7.4441 4.3248,-10.23813 l -1.5043,-1.21595 -5.77329,2.74143 c -3.17532,1.50782 -5.87422,2.64104 -5.99705,2.5182 -0.12284,-0.12284 2.45667,-1.51272 5.73195,-3.08819 4.77131,-2.29509 6.00264,-3.11317 6.19445,-4.11654 0.17375,-0.90894 0.17757,-1.15285 -0.8232,-1.07642 z"
           id="path10679" /><path
           style="fill:#f6f9fb;stroke-width:0.524184"
           d="m 782.1719,406.70342 c 0.57659,0 1.63828,0.18879 2.35902,0.41961 1.03766,0.33228 1.09214,0.41962 0.262,0.41962 -0.5766,0 -1.63775,-0.1888 -2.35851,-0.41962 -1.03766,-0.33228 -1.09264,-0.41961 -0.26251,-0.41961 z"
           id="path10677" /><path
           style="fill:#f6f9fb;stroke-width:0.524184"
           d="m 781.13578,405.15161 c -0.33935,-0.023 -0.54678,-0.0154 -0.58342,0.0305 -0.0465,0.0583 -0.24411,0.62463 -0.43874,1.25832 -0.28509,0.92818 -0.0429,1.31298 1.24541,1.9792 2.20733,1.14146 2.01159,1.51036 -0.29094,0.54829 -2.15083,-0.89867 -2.68466,-0.71603 -3.39876,1.1622 -0.66611,1.75199 0.17603,2.66374 4.9723,5.38417 2.04827,1.16177 5.13903,2.93533 6.86884,3.94136 3.96996,2.30888 5.18586,2.23043 5.40122,-0.34985 0.1569,-1.87999 0.0891,-1.95332 -4.59817,-4.92476 -4.53126,-2.87255 -6.09538,-4.30972 -2.84634,-2.61534 0.83572,0.43583 2.69881,0.79815 4.14032,0.80615 1.44149,0.008 4.14633,0.23437 6.011,0.50384 3.03466,0.43858 3.48856,0.38496 4.3248,-0.51263 0.51382,-0.55152 0.93431,-1.13405 0.93431,-1.29449 0,-0.62254 -3.47536,-2.36943 -4.71806,-2.37143 -0.72075,-10e-4 -2.48953,-0.4503 -3.93103,-0.99787 -1.88283,-0.71522 -10.71724,-2.38695 -13.09274,-2.54765 z"
           id="path10667" /><path
           style="fill:#f6f9fb;stroke-width:0.524184"
           d="m 738.07485,401.21283 c -0.38954,0.0307 -0.79439,0.10132 -1.25884,0.20567 -3.00334,0.67481 -4.17908,1.37035 -4.17908,2.47272 0,0.5088 -0.28345,1.20847 -0.62941,1.55443 -0.83769,0.83769 -0.0102,1.64992 2.28409,2.24224 1.78415,0.46061 15.01144,0.18249 18.16169,-0.38189 1.49954,-0.26864 1.71077,-0.4956 1.57251,-1.68827 -0.15247,-1.3153 -0.34462,-1.39608 -4.23902,-1.7818 -2.2437,-0.22223 -5.58097,-0.96912 -7.41608,-1.65985 -2.09579,-0.78885 -3.12725,-1.05543 -4.29586,-0.96325 z"
           id="path10659" /><path
           style="fill:#f6f9fb;stroke-width:0.524184"
           d="m 798.69957,397.28495 c -4.31771,-0.0509 -17.67697,0.76544 -18.38751,1.20458 -1.15566,0.71423 -0.45048,1.82103 1.20458,1.89033 1.23197,0.0516 1.37741,0.13441 0.52451,0.29869 -3.58167,0.68985 2.00326,1.67111 10.03867,1.76371 2.1602,0.0249 2.85705,0.1733 2.1487,0.45786 -0.5766,0.23163 -3.82028,0.29847 -7.20783,0.14831 -5.38834,-0.23887 -6.15879,-0.16916 -6.15879,0.5581 0,0.59692 0.70187,0.92251 2.48977,1.15445 3.2165,0.41727 9.11713,1.62639 12.44937,2.55127 2.35062,0.65243 2.6688,0.63969 3.0856,-0.12402 0.2556,-0.46834 0.93871,-1.37516 1.51825,-2.01539 1.49629,-1.65295 0.45741,-2.74497 -2.70268,-2.84117 l -2.42569,-0.0739 2.73937,-0.3328 c 1.50651,-0.18297 3.0105,-0.60445 3.34243,-0.93638 0.99033,-0.99032 0.10542,-3.24093 -1.42523,-3.6251 -0.18454,-0.0463 -0.61671,-0.0713 -1.23352,-0.0786 z"
           id="path10647" /><path
           style="fill:#f6f9fb;stroke-width:0.524184"
           d="m 754.00669,393.78593 c 0.0854,0.0179 0.22817,0.0761 0.42685,0.17209 0.60031,0.28996 1.39588,0.89385 1.76785,1.34203 1.05208,1.26769 0.24086,0.95978 -1.38855,-0.5271 -0.80313,-0.73288 -1.06222,-1.04083 -0.80615,-0.98702 z"
           id="path10619" /><path
           style="fill:#f6f9fb;stroke-width:0.524184"
           d="m 735.16081,392.51779 c -1.22846,0.14043 -1.99988,1.29201 -1.99988,3.29024 0,1.05978 0.56602,1.65897 2.75177,2.91249 1.51359,0.86802 3.05978,1.58036 3.43597,1.58336 0.37619,0.003 1.74076,0.48567 3.03186,1.07384 1.29109,0.58816 3.69569,1.26737 5.34386,1.50895 3.40237,0.49871 5.87974,0.65743 5.87974,0.37672 0,-0.1047 -2.13752,-0.95527 -4.7501,-1.88981 -2.61257,-0.93454 -4.64834,-1.80087 -4.52375,-1.92546 0.1246,-0.12459 2.19114,0.49013 4.59197,1.36632 2.84873,1.03962 4.54323,1.41506 4.87825,1.08004 0.33502,-0.33502 -0.20173,-0.79691 -1.54512,-1.32912 -2.99365,-1.18597 -12.83219,-6.0675 -14.45752,-7.1732 -0.99807,-0.67898 -1.89997,-0.95862 -2.63705,-0.87437 z"
           id="path10615" /><path
           style="fill:#f6f9fb;stroke-width:0.524184"
           d="m 737.73585,388.80487 c -0.80398,0.0523 -0.89988,0.40181 -1.13172,1.3255 -0.28267,1.12623 -0.14151,1.66193 0.58136,2.20297 0.98077,0.73406 13.95952,7.13897 15.37013,7.58507 0.43244,0.13674 1.00052,0.12569 1.26245,-0.0248 0.26192,-0.15051 -1.09411,-1.0657 -3.01377,-2.03347 -1.91966,-0.96777 -3.49023,-1.87917 -3.49023,-2.0252 0,-0.14604 0.96601,0.22787 2.14716,0.83044 2.76035,1.40823 3.33045,0.85147 0.98185,-0.95911 -1.00026,-0.77111 -3.02053,-2.52796 -4.48965,-3.90364 -2.40824,-2.25507 -2.98136,-2.53327 -5.82341,-2.83032 -1.17415,-0.12272 -1.91178,-0.1988 -2.39417,-0.16743 z"
           id="path10597" /><path
           style="fill:#f6f9fb;stroke-width:0.524184"
           d="m 759.48129,388.08762 c 0.12874,0.0468 0.40816,0.59499 0.72089,1.44901 0.41698,1.13869 0.68934,2.27586 0.60564,2.52698 -0.19568,0.58704 -1.44974,-2.85795 -1.40094,-3.84835 0.005,-0.10299 0.0315,-0.14324 0.0744,-0.12764 z"
           id="path10589" /><path
           style="fill:#f6f9fb;stroke-width:0.524184"
           d="m 794.90807,386.67996 c -2.01318,0 -7.2004,2.68014 -10.69341,5.52524 -1.56737,1.27664 -3.55306,2.68476 -4.41213,3.12901 -1.84299,0.95304 -2.12345,2.07588 -0.3824,1.53065 1.52966,-0.47903 2.33038,-0.63543 1.83451,-0.35811 -0.21623,0.12092 -0.39274,0.41719 -0.39274,0.65835 0,0.24117 2.29986,0.30147 5.1108,0.13385 l 5.1108,-0.30489 3.03599,-2.66702 c 1.66986,-1.467 3.39983,-3.22038 3.84472,-3.89641 0.75134,-1.14169 0.72496,-1.31926 -0.37517,-2.49029 -0.71437,-0.76041 -1.77858,-1.26038 -2.68097,-1.26038 z"
           id="path10585" /><path
           style="fill:#f6f9fb;stroke-width:0.524184"
           d="m 790.44271,382.56238 c -1.09463,-0.0498 -2.80097,0.70442 -5.57434,2.35489 -2.82193,1.67938 -4.50026,3.08976 -5.42964,4.562 -0.82104,1.30067 -1.11977,2.20609 -0.76636,2.32389 0.89214,0.29738 -0.49836,2.21537 -1.60611,2.21537 -1.15992,0 -1.17676,0.48433 -0.0455,1.31154 0.74348,0.54364 1.56082,0.13442 5.3728,-2.68975 2.47279,-1.83203 5.73455,-3.91955 7.24813,-4.639 2.87471,-1.36644 3.35881,-2.35288 2.20917,-4.50101 -0.31504,-0.58866 -0.75141,-0.90807 -1.40818,-0.93793 z"
           id="path10567" /><path
           style="fill:#f6f9fb;stroke-width:0.524184"
           d="m 742.05341,381.9113 c -0.69436,0.0933 -1.02991,0.60107 -1.02991,1.51877 0,0.8072 0.61762,2.39893 1.37201,3.53776 1.47176,2.22178 6.99524,7.2292 10.62623,9.63301 l 2.22518,1.47329 1.40612,-1.37252 1.40663,-1.37253 -2.49649,-3.72639 c -2.03329,-3.03465 -3.32162,-4.27489 -6.94066,-6.68331 -3.25794,-2.16812 -5.41183,-3.1636 -6.56911,-3.00808 z"
           id="path10561" /><path
           style="fill:#f6f9fb;stroke-width:0.524184"
           d="m 747.00402,376.45116 c -0.98678,-0.0437 -2.06482,0.42231 -2.4288,1.43402 -0.66678,1.85334 0.70508,4.03222 3.86798,6.14433 1.76928,1.18148 3.32342,2.04165 3.45406,1.911 0.13064,-0.13064 -0.49312,-1.6764 -1.38648,-3.43442 -0.89336,-1.75803 -1.62419,-3.75119 -1.62419,-4.4297 0,-1.02785 -0.89579,-1.58149 -1.88257,-1.62523 z"
           id="path10551" /><path
           style="fill:#f6f9fb;stroke-width:0.524184"
           d="m 752.52254,374.61355 -1.55598,0.80512 c -1.0943,0.56589 -1.55597,1.19252 -1.55597,2.11201 0,1.5478 4.03289,9.82777 6.69003,13.7356 1.02916,1.51358 1.9418,2.75229 2.0283,2.75229 0.0865,0 1.01262,-0.40802 2.05775,-0.90641 1.78229,-0.84992 1.88132,-1.02441 1.59577,-2.81016 -0.87394,-5.46531 -2.35069,-8.53832 -5.83582,-12.145 z"
           id="path10545" /><path
           style="fill:#f6f9fb;stroke-width:0.524184"
           d="m 766.25245,371.54217 c -0.51871,0.008 -1.18341,0.19649 -2.13475,0.52813 -1.90191,0.66302 -1.89869,0.20619 -0.0496,7.00888 0.62692,2.3064 1.27571,6.02149 1.44126,8.25582 h -5.2e-4 c 0.33536,4.52622 1.19993,5.54212 1.19993,1.41025 0,-1.78613 0.18687,-2.53622 0.57309,-2.29753 0.31559,0.19502 0.48612,1.26987 0.3793,2.39003 -0.15958,1.67339 -0.0281,2.03554 0.73743,2.03554 0.8515,0 0.93114,-0.68411 0.92914,-7.99383 -0.002,-7.04429 -0.12545,-8.19636 -1.04077,-9.6976 -0.71013,-1.1647 -1.16997,-1.65308 -2.0345,-1.63969 z"
           id="path10533" /><path
           style="fill:#f6f9fb;stroke-width:0.524184"
           d="m 758.92577,370.9882 c -0.65131,0.0594 -1.27069,0.29213 -1.5875,0.67386 -0.32322,0.38947 -0.73686,1.79733 -0.91932,3.12849 -0.30331,2.21288 -0.18458,2.58781 1.38544,4.37596 2.13996,2.43728 3.39179,5.25481 4.21163,9.47901 0.62045,3.19683 1.54789,4.45307 1.54771,2.09651 -1.1e-4,-1.40383 -1.31619,-8.29617 -2.07016,-10.84223 -0.29315,-0.98996 -0.43535,-1.89785 -0.31574,-2.01745 0.39202,-0.39203 1.89191,5.30461 2.48873,9.45265 0.6141,4.26807 1.46968,5.4683 1.46968,2.06189 0,-4.24648 -3.17106,-17.15864 -4.43073,-18.04179 -0.44539,-0.31225 -1.12843,-0.42627 -1.77974,-0.3669 z"
           id="path10531" /><path
           style="fill:#f6f9fb;stroke-width:0.524184"
           d="m 775.0452,370.9541 c -0.88578,0 -3.16453,2.24775 -4.07417,4.01888 -0.85158,1.65808 -1.46844,13.55831 -0.67748,13.06948 0.33485,-0.20695 0.60875,-0.70228 0.60875,-1.1007 0,-0.39842 0.24119,-0.87382 0.5364,-1.05627 0.29522,-0.18245 0.0775,0.8777 -0.48421,2.35593 l -1.02112,2.68769 1.34617,0.51211 c 0.74046,0.28152 1.52026,0.61924 1.73322,0.75086 0.46626,0.28817 5.73455,-7.61211 5.79345,-8.68784 0.0265,-0.48317 0.13262,-0.53254 0.29404,-0.13643 0.29342,0.71998 -0.88203,3.14962 -3.07475,6.35466 -0.84912,1.24113 -1.41353,2.59769 -1.25367,3.01428 0.15987,0.4166 0.47945,0.75706 0.71003,0.75706 0.72293,0 5.78998,-7.94498 7.68894,-12.05611 0.99876,-2.16226 1.83122,-3.64343 1.85002,-3.29127 0.0188,0.35215 -0.55865,1.98071 -1.28313,3.6189 -0.72449,1.6382 -1.22929,3.06656 -1.12189,3.17396 0.3492,0.3492 7.12795,-3.22363 7.14065,-3.76359 0.007,-0.2883 -0.45501,-1.29079 -1.0263,-2.22777 -0.80212,-1.31558 -1.39863,-1.70377 -2.61896,-1.70377 -1.0201,0 -1.58027,-0.26541 -1.58027,-0.74879 0,-1.33598 -1.53772,-2.45168 -2.59725,-1.88464 -1.05274,0.56341 -7.62187,10.00609 -9.39891,13.51028 -1.35155,2.66516 -1.95251,2.95985 -0.90021,0.44132 0.93772,-2.24428 3.95117,-6.9891 6.96185,-10.96161 1.51817,-2.00315 2.20937,-3.37619 2.01228,-3.99717 -0.29054,-0.91542 -3.93191,-2.64945 -5.56348,-2.64945 z"
           id="path10529" /><path
           style="fill:#f3cb46;stroke-width:0.524184"
           d="m 753.70627,403.19143 c 0.0107,-0.86491 0.12816,-1.15527 0.26107,-0.64526 0.1329,0.51002 0.12416,1.21767 -0.0195,1.57256 -0.14359,0.35488 -0.25233,-0.0624 -0.24165,-0.9273 z"
           id="path11485" /><path
           style="fill:#f3cb46;stroke-width:0.524184"
           d="m 754.32446,406.87801 c -0.1623,-0.42294 -0.19393,-1.07162 -0.0703,-1.44151 0.12364,-0.36988 0.34906,-0.0239 0.50094,0.76899 0.29655,1.54803 0.0519,1.93006 -0.43065,0.67252 z"
           id="path11473" /><path
           style="fill:#f3cb46;stroke-width:0.524184"
           d="m 777.23376,410.20108 c -0.0227,-0.46922 0.37141,-1.17687 0.87593,-1.57255 0.79713,-0.62515 0.84069,-0.61639 0.33248,0.0669 -0.32167,0.43245 -0.71584,1.1401 -0.87594,1.57255 -0.2435,0.65772 -0.29786,0.64679 -0.33247,-0.0669 z"
           id="path11463" /><path
           style="fill:#f3cb46;stroke-width:0.524184"
           d="m 766.33221,394.54242 c 0.42758,0 0.42551,-0.16064 -0.008,-0.59379 -0.6864,-0.68641 -2.23679,-0.24737 -2.23679,0.63342 0,0.32877 0.37231,0.45385 0.82914,0.27854 0.45603,-0.17499 1.09292,-0.31817 1.4153,-0.31817 z"
           id="path11461" /><path
           style="fill:#f3cb46;stroke-width:0.524184"
           d="m 772.9989,395.56404 c 0,-0.74704 -3.56917,-2.19374 -4.29916,-1.74258 -0.43206,0.26703 2.5989,1.91352 4.16811,2.26423 0.0721,0.0161 0.13105,-0.21864 0.13105,-0.52165 z"
           id="path11459" /><path
           style="fill:#f3cb46;stroke-width:0.524184"
           d="m 759.38996,398.21171 c 0.25118,0 1.04638,-0.58971 1.76714,-1.31046 0.77272,-0.77273 1.0266,-1.31046 0.6187,-1.31046 -1.11508,0 -3.45772,2.09512 -3.41268,3.0521 0.0256,0.54524 0.14183,0.63035 0.30578,0.22405 0.14541,-0.36038 0.46989,-0.65523 0.72106,-0.65523 z"
           id="path11457" /><path
           style="fill:#f3cb46;stroke-width:0.524184"
           d="m 777.19237,401.33078 c 0,-1.16675 -1.63843,-3.64325 -2.41033,-3.64325 -0.66198,0 -0.61138,0.2536 0.27555,1.38115 0.59753,0.75963 1.08641,1.70316 1.08641,2.09673 0,0.39358 0.23589,0.71559 0.52419,0.71559 0.2883,0 0.52418,-0.2476 0.52418,-0.55022 z"
           id="path11455" /><path
           style="fill:#f3cb46;stroke-width:0.524184"
           d="m 760.04617,401.35678 c -0.15078,-0.5766 -0.36458,-1.04836 -0.47511,-1.04836 -0.11052,0 -0.20095,0.47176 -0.20095,1.04836 0,0.57661 0.2138,1.04837 0.47511,1.04837 0.26131,0 0.35174,-0.47176 0.20095,-1.04837 z"
           id="path11453" /><path
           style="fill:#f3cb46;stroke-width:0.524184"
           d="m 762.51521,407.05187 c 0,-0.55362 -2.38595,-3.07416 -2.91002,-3.07416 -0.63348,0 -0.10592,1.32927 0.94433,2.37941 1.33916,1.33901 1.96569,1.56045 1.96569,0.69475 z"
           id="path11451" /><path
           style="fill:#f3cb46;stroke-width:0.524184"
           d="m 767.10182,408.36498 c 1.43999,-0.3859 1.55987,-1.24217 0.17392,-1.24217 -1.36951,0 -2.66379,0.53663 -2.66379,1.10445 0,0.54115 0.81603,0.58629 2.48987,0.13772 z"
           id="path11449" /><path
           style="fill:#f3cb46;stroke-width:0.524184"
           d="m 763.20136,409.56848 c -0.52821,-0.6715 -1.60632,-1.38304 -2.39582,-1.58118 -0.78949,-0.19816 -1.43543,-0.70961 -1.43543,-1.13657 0,-0.42696 -0.21032,-0.77629 -0.46736,-0.77629 -0.25705,0 -0.61537,-0.58971 -0.79626,-1.31046 -0.1809,-0.72075 -0.55479,-1.31046 -0.83087,-1.31046 -0.27608,0 -0.9505,-0.92837 -1.49872,-2.06304 -0.97685,-2.02185 -0.97703,-2.09548 -0.009,-3.6869 0.54314,-0.89311 1.34,-1.7591 1.7708,-1.92441 0.4308,-0.16532 0.78327,-0.64215 0.78327,-1.05962 0,-1.05033 4.89691,-3.10525 8.43808,-3.54093 4.02253,-0.49489 6.82065,0.65694 10.17523,4.18858 3.16412,3.33113 4.32392,6.49046 3.49369,9.51694 -0.51031,1.86028 -0.52497,1.81466 -0.24921,-0.77539 0.24537,-2.30456 0.15541,-2.75197 -0.55336,-2.75197 -0.4655,0 -1.47077,0.94353 -2.23392,2.09674 -1.31242,1.98319 -2.29661,2.67698 -2.29661,1.61893 0,-0.57504 -0.78286,-0.44175 -2.88301,0.49084 -1.45945,0.64808 -1.48894,0.71289 -0.41008,0.90106 1.0074,0.17571 1.07799,0.33803 0.52914,1.21688 -0.34834,0.55777 -1.04837,1.01413 -1.55562,1.01413 -0.50726,0 -0.92228,0.22848 -0.92228,0.50774 0,0.27925 -0.35683,0.3708 -0.79295,0.20344 -0.43612,-0.16735 -1.1065,-0.044 -1.48973,0.274 -0.38324,0.31806 -0.8318,0.44327 -0.9968,0.27826 -0.16501,-0.165 -0.77535,-0.0456 -1.3563,0.26529 -0.8701,0.46567 -1.22555,0.35012 -2.01665,-0.65561 z"
           id="path11447" /><path
           style="fill:#f3cb46;stroke-width:0.524184"
           d="m 773.94965,413.52779 c 0.77444,-0.80179 1.50729,-1.39056 1.62855,-1.30839 0.30219,0.20475 -2.13985,2.76617 -2.63725,2.76617 -0.21966,0 0.23426,-0.656 1.0087,-1.45778 z"
           id="path11445" /><path
           style="fill:#f3cb46;stroke-width:0.524184"
           d="m 756.86722,412.63203 c -1.33473,-1.41835 -2.19687,-2.82428 -2.16972,-3.53824 0.0373,-0.98092 0.12476,-0.91421 0.5084,0.38785 0.25483,0.8649 1.00876,2.04432 1.67539,2.62092 1.27617,1.10383 2.7628,2.88301 2.40894,2.88301 -0.11454,0 -1.20489,-1.05909 -2.42301,-2.35354 z"
           id="path11443" /><path
           style="fill:#f3cb46;stroke-width:0.524184"
           d="m 767.84821,416.70284 c 1.05918,-0.11179 2.20851,-0.5439 2.55405,-0.96026 0.34555,-0.41635 0.86708,-0.75701 1.15896,-0.75701 0.29188,0 -0.0691,0.47177 -0.80209,1.04837 -0.81297,0.63948 -2.0161,1.01401 -3.08475,0.96025 l -1.75197,-0.0881 z"
           id="path11427" /><path
           style="fill:#f3cb46;stroke-width:0.524184"
           d="m 762.64626,416.54179 c -1.75531,-0.70554 -1.42718,-1.06387 0.39314,-0.4293 0.8649,0.30151 1.57255,0.64306 1.57255,0.75901 0,0.31097 -0.63801,0.20395 -1.96569,-0.32971 z"
           id="path11425" /><path
           style="fill:#e7a314;stroke-width:0.524184"
           d="m 769.10231,394.56031 c -0.80416,-0.28658 -0.8647,-0.45323 -0.29303,-0.80654 0.43865,-0.2711 0.79717,-0.21546 0.9164,0.14222 0.10771,0.32315 0.53443,0.45762 0.94826,0.29881 0.41382,-0.15879 0.7524,-0.17078 0.7524,-0.0266 0,0.52069 -1.33245,0.74552 -2.32403,0.39214 z"
           id="path11641" /><path
           style="fill:#e7a314;stroke-width:0.524184"
           d="m 764.08777,394.58211 c 0,-0.88079 1.55039,-1.31983 2.2368,-0.63342 0.43315,0.43315 0.43522,0.59379 0.008,0.59379 -0.32239,0 -0.95927,0.14317 -1.4153,0.31817 -0.45685,0.17531 -0.82916,0.0502 -0.82916,-0.27854 z"
           id="path11639" /><path
           style="fill:#e7a314;stroke-width:0.524184"
           d="m 772.47471,395.69462 c 0,-0.32971 -0.40907,-0.4635 -0.91732,-0.30001 -0.76673,0.24665 -0.78897,0.2045 -0.13543,-0.25671 0.81997,-0.57868 2.07648,0.12809 1.41094,0.79363 -0.197,0.197 -0.35819,0.0904 -0.35819,-0.23691 z"
           id="path11635" /><path
           style="fill:#e7a314;stroke-width:0.524184"
           d="m 758.36312,398.68609 c -0.0484,-0.97748 1.71537,-2.73638 2.22894,-2.22281 0.19283,0.19283 0.3506,0.0754 0.3506,-0.26094 0,-0.33636 0.41279,-0.60438 0.91732,-0.59561 0.80375,0.0139 0.78753,0.0934 -0.13104,0.64154 -0.57661,0.34408 -1.22528,0.66125 -1.44151,0.70481 -0.21623,0.0436 -0.57005,0.11231 -0.78628,0.15276 -0.21622,0.0405 -0.0393,0.30221 0.39314,0.58168 0.68005,0.43949 0.66825,0.50922 -0.0874,0.51616 -0.4805,0.004 -0.99262,0.30288 -1.13803,0.66326 -0.17136,0.42465 -0.27896,0.36101 -0.30578,-0.18085 z"
           id="path11631" /><path
           style="fill:#e7a314;stroke-width:0.524184"
           d="m 776.144,401.09469 c 0,-0.43245 0.0103,-0.917 0.023,-1.07677 0.0126,-0.15977 -0.51808,-0.73397 -1.17941,-1.276 -1.04311,-0.85493 -1.0724,-0.96739 -0.22115,-0.8488 1.49461,0.20823 3.29706,3.98785 1.90174,3.98785 -0.2883,0 -0.52419,-0.35383 -0.52419,-0.78628 z"
           id="path11625" /><path
           style="fill:#e7a314;stroke-width:0.524184"
           d="m 760.54952,406.35712 c -1.21453,-1.21439 -1.55264,-2.37941 -0.69055,-2.37941 0.26887,0 0.63707,0.46697 0.81822,1.03772 0.18114,0.57074 0.59583,0.98353 0.92151,0.91732 0.32569,-0.0662 0.68243,0.29239 0.79277,0.79692 0.2647,1.21036 -0.39163,1.07761 -1.84195,-0.37255 z"
           id="path11615" /><path
           style="fill:#e7a314;stroke-width:0.524184"
           d="m 764.61195,408.22726 c 0,-0.25746 0.37311,-0.61128 0.82915,-0.78628 1.21164,-0.46495 2.84014,-0.3885 2.84014,0.13333 0,0.24832 -0.64868,0.34779 -1.44151,0.22105 -1.12673,-0.18012 -1.26981,-0.10877 -0.65523,0.32675 0.65148,0.46168 0.58408,0.55858 -0.39314,0.56523 -0.64867,0.004 -1.17941,-0.20263 -1.17941,-0.46008 z"
           id="path11613" /><path
           style="fill:#e7a314;stroke-width:0.524184"
           d="m 762.18743,415.84185 c -1.47763,-0.61511 -3.60214,-2.06198 -4.72113,-3.21529 -1.7682,-1.82245 -2.1278,-2.62193 -2.74714,-6.10762 -0.49323,-2.77592 -0.55558,-4.47034 -0.20251,-5.50374 l 0.51012,-1.49306 0.83446,1.96569 c 0.45895,1.08113 1.07789,1.96569 1.37541,1.96569 0.29752,0 0.68895,0.58971 0.86985,1.31046 0.18089,0.72075 0.53921,1.31046 0.79626,1.31046 0.25704,0 0.46736,0.34933 0.46736,0.77629 0,0.42696 0.64594,0.93841 1.43543,1.13657 0.7895,0.19814 1.86761,0.90968 2.39582,1.58118 0.7911,1.00573 1.14655,1.12128 2.01665,0.65561 0.58095,-0.31091 1.19129,-0.43029 1.3563,-0.26529 0.165,0.16501 0.61356,0.0398 0.9968,-0.27826 0.38323,-0.31805 1.05361,-0.44135 1.48973,-0.274 0.43612,0.16736 0.79295,0.0758 0.79295,-0.20344 0,-0.27926 0.41502,-0.50774 0.92228,-0.50774 0.50725,0 1.20728,-0.45636 1.55561,-1.01413 0.54971,-0.88022 0.47984,-1.03663 -0.52914,-1.18452 -1.05504,-0.15465 -1.00421,-0.2514 0.54995,-1.04683 0.98255,-0.50288 1.55407,-0.61242 1.34089,-0.25699 -0.21219,0.35378 0.009,0.31091 0.51536,-0.0999 0.57793,-0.4688 0.88689,-0.51445 0.88689,-0.13105 0,1.16372 0.93445,0.55 2.29661,-1.50837 1.53858,-2.32494 2.95234,-2.76715 2.93273,-0.91732 -0.0257,2.42901 -0.98473,5.23837 -2.04056,5.97789 -0.60062,0.4207 -1.09204,1.22329 -1.09204,1.78355 0,0.56026 -0.23406,1.01864 -0.52014,1.01864 -0.28608,0 -1.14628,0.70275 -1.91157,1.56165 -0.76529,0.85891 -1.88755,1.71239 -2.49392,1.89664 -0.60637,0.18425 -1.45631,0.62916 -1.88876,0.98869 -1.49809,1.24545 -5.29982,1.28193 -8.19055,0.0786 z"
           id="path11603" /><path
           style="fill:#90a334;stroke-width:0.524184"
           d="m 771.42634,395.06654 c -0.47244,-0.30531 -0.53709,-0.51133 -0.16198,-0.51616 0.34336,-0.004 0.77008,0.22786 0.94826,0.51616 0.40221,0.65079 0.22075,0.65079 -0.78628,0 z"
           id="path11857" /><path
           style="fill:#90a334;stroke-width:0.524184"
           d="m 733.59981,442.1121 c -0.44535,-0.36036 -1.19805,-1.23842 -1.67269,-1.95124 -0.73818,-1.10865 -0.86296,-1.15286 -0.86296,-0.30578 0,0.54466 -0.14039,0.84989 -0.31197,0.6783 -0.41744,-0.41744 0.28642,-3.53204 0.79819,-3.53204 0.22161,0 0.82326,0.93215 1.33701,2.07143 0.51376,1.1393 1.25102,2.1418 1.63837,2.22779 0.42132,0.0935 0.53944,0.41958 0.29402,0.81154 -0.32818,0.52413 -0.57222,0.52413 -1.21997,0 z"
           id="path11793" /><path
           style="fill:#90a334;stroke-width:0.524184"
           d="m 757.8676,443.55364 c -0.0297,-1.1532 0.17466,-2.45056 0.45414,-2.88301 0.39886,-0.61719 0.49652,-0.50446 0.45414,0.52419 -0.0297,0.72075 -0.23406,2.0181 -0.45414,2.88301 -0.38546,1.51483 -0.40213,1.49559 -0.45414,-0.52419 z"
           id="path11781" /><path
           style="fill:#90a334;stroke-width:0.524184"
           d="m 737.25984,444.19436 c -0.77274,-1.20941 -1.31981,-2.28411 -1.21571,-2.38822 0.10411,-0.10411 0.86479,0.20974 1.6904,0.69744 1.03402,0.61081 1.53722,1.36068 1.61717,2.4099 0.15873,2.08317 -0.43086,1.88048 -2.09186,-0.71912 z"
           id="path11771" /><path
           style="fill:#90a334;stroke-width:0.524184"
           d="m 755.8294,447.18172 c 0.19729,-0.1973 0.12208,-0.80087 -0.16714,-1.34128 -0.62936,-1.17599 0.31969,-4.83973 1.50947,-5.82715 0.66663,-0.55326 0.71044,-0.45928 0.3083,0.66145 -0.25781,0.71849 -0.44542,2.41524 -0.4169,3.77054 0.0376,1.78873 -0.17351,2.55065 -0.7703,2.77967 -0.45219,0.17352 -0.66073,0.15406 -0.46343,-0.0432 z"
           id="path11767" /><path
           style="fill:#90a334;stroke-width:0.524184"
           d="m 733.6454,447.09192 -1.27078,-1.44151 1.44151,1.27079 c 0.79282,0.69893 1.4415,1.34761 1.4415,1.4415 0,0.41111 -0.42448,0.0765 -1.61223,-1.27078 z"
           id="path11765" /><path
           style="fill:#90a334;stroke-width:0.524184"
           d="m 756.82645,449.27994 c -0.53119,-1.16583 -0.49707,-1.32689 0.24984,-1.17941 1.0924,0.21569 2.05343,2.52963 1.0506,2.52963 -0.37688,0 -0.96208,-0.6076 -1.30044,-1.35022 z"
           id="path11751" /><path
           style="fill:#90a334;stroke-width:0.524184"
           d="m 762.61414,450.79567 c -0.34272,-0.62973 -0.62311,-1.41319 -0.62311,-1.74104 0,-0.32785 -0.35383,-0.94992 -0.78628,-1.38237 -0.43245,-0.43245 -0.77132,-1.18222 -0.75305,-1.66615 0.0253,-0.66996 0.13956,-0.6168 0.47892,0.22284 0.24514,0.6065 1.02146,1.55003 1.72516,2.09673 0.99118,0.77006 1.20082,1.28928 0.93046,2.30448 l -0.349,1.31046 z"
           id="path11749" /><path
           style="fill:#90a334;stroke-width:0.524184"
           d="m 740.76528,453.78119 c -0.18364,-0.29714 0.0268,-0.38502 0.49325,-0.20601 0.9081,0.34847 1.07425,0.72419 0.32025,0.72419 -0.27129,0 -0.63737,-0.23318 -0.8135,-0.51818 z"
           id="path11733" /><path
           style="fill:#90a334;stroke-width:0.524184"
           d="m 764.43722,456.04667 c -0.1922,-0.1922 -0.33451,-0.84088 -0.31623,-1.44151 0.0306,-1.00412 0.0737,-0.99096 0.53545,0.16347 0.51334,1.28332 0.40685,1.90411 -0.21922,1.27804 z"
           id="path11721" /><path
           style="fill:#90a334;stroke-width:0.524184"
           d="m 752.9474,455.88023 c -0.72723,-0.57204 -1.4651,-1.60928 -1.63971,-2.30496 -0.17461,-0.6957 -1.14465,-1.75294 -2.15564,-2.34944 -1.14336,-0.6746 -1.83818,-1.48751 -1.83818,-2.1506 0,-0.58633 -0.23588,-1.06605 -0.52418,-1.06605 -1.40741,0 0.0969,3.0086 1.83464,3.66929 1.25168,0.47588 2.81716,2.62092 1.91279,2.62092 -0.26562,0 -1.95026,-1.41366 -3.74367,-3.14148 -1.7934,-1.72781 -3.41247,-3.05286 -3.59794,-2.94456 -0.86898,0.50745 -2.69586,-0.77509 -2.69343,-1.89088 0.003,-1.14723 0.0572,-1.13179 1.33262,0.37625 l 1.33001,1.57255 -1.08118,-2.22778 c -0.91148,-1.87813 -0.95529,-2.22778 -0.27912,-2.22778 0.44113,0 1.21255,0.49809 1.71426,1.10686 1.8426,2.23583 2.32795,2.56242 3.80798,2.56242 3.07,0 6.06883,2.61895 5.86189,5.11933 -0.0562,0.67944 0.2562,1.92849 0.6943,2.77566 0.94072,1.81916 0.822,1.88265 -0.93544,0.50025 z"
           id="path11719" /><path
           style="fill:#90a334;stroke-width:0.524184"
           d="m 746.62941,457.16584 c -0.8089,-0.71164 -1.26282,-1.2939 -1.0087,-1.2939 0.25413,0 1.01604,0.58971 1.69316,1.31046 1.56659,1.66756 1.22031,1.65918 -0.68446,-0.0166 z"
           id="path11715" /><path
           style="fill:#90a334;stroke-width:0.524184"
           d="m 757.25896,458.11585 c -2.06037,-1.43266 -3.09446,-2.91797 -3.11326,-4.47169 -0.0238,-1.96873 1.58449,-1.9188 3.28487,0.10198 0.71431,0.84892 1.38396,1.4608 1.4881,1.35973 0.10414,-0.10106 0.22475,0.7376 0.26802,1.86371 0.0886,2.30681 -0.0986,2.41814 -1.92773,1.14627 z"
           id="path11709" /><path
           style="fill:#90a334;stroke-width:0.524184"
           d="m 749.55163,458.65379 c 0.51001,-0.1329 1.21766,-0.12416 1.57255,0.0195 0.35489,0.14359 -0.0624,0.25233 -0.9273,0.24165 -0.8649,-0.0107 -1.15527,-0.12817 -0.64525,-0.26107 z"
           id="path11707" /><path
           style="fill:#90a334;stroke-width:0.524184"
           d="m 759.99766,457.59697 c -0.38472,-1.25352 -0.41397,-2.05722 -0.0823,-2.26218 0.28417,-0.17563 -0.0746,-0.87124 -0.8017,-1.55429 -1.643,-1.54352 -1.81935,-2.93243 -0.26683,-2.10155 1.30827,0.70017 2.62005,3.7501 2.62005,6.09167 0,2.33795 -0.72464,2.25231 -1.46918,-0.17365 z"
           id="path11701" /><path
           style="fill:#90a334;stroke-width:0.524184"
           d="m 763.17044,459.79479 c 0.50453,-0.60907 0.91733,-1.37313 0.91733,-1.69791 0,-0.32478 0.23588,-0.7363 0.52418,-0.91448 1.08043,-0.66774 0.4706,0.82457 -0.91732,2.24477 -0.79283,0.81126 -1.02871,0.97669 -0.52419,0.36762 z"
           id="path11691" /><path
           style="fill:#90a334;stroke-width:0.524184"
           d="m 755.60253,461.27989 c 0.3784,-0.15142 0.83051,-0.1328 1.00469,0.0414 0.17418,0.17419 -0.13542,0.29808 -0.68799,0.27532 -0.61065,-0.0252 -0.73485,-0.14936 -0.3167,-0.31669 z"
           id="path11687" /><path
           style="fill:#778c2b;stroke-width:0.524184"
           d="m 766.6104,407.8131 c 0.37839,-0.15142 0.83051,-0.1328 1.00469,0.0414 0.17418,0.17418 -0.13542,0.29807 -0.68799,0.27531 -0.61065,-0.0251 -0.73486,-0.14936 -0.3167,-0.31669 z"
           id="path12165" /><path
           style="fill:#778c2b;stroke-width:0.524184"
           d="m 769.37099,439.31666 c 0.0252,-0.61065 0.14936,-0.73485 0.31669,-0.3167 0.15142,0.3784 0.1328,0.83051 -0.0414,1.00469 -0.17418,0.17418 -0.29807,-0.13542 -0.27531,-0.68799 z"
           id="path12111" /><path
           style="fill:#778c2b;stroke-width:0.524184"
           d="m 756.77283,444.05179 c 0.013,-0.85049 0.34938,-2.25399 0.74751,-3.1189 0.70485,-1.53123 0.71622,-1.50369 0.43259,1.04837 -0.32697,2.94213 -1.21731,4.50426 -1.1801,2.07053 z"
           id="path12095" /><path
           style="fill:#778c2b;stroke-width:0.524184"
           d="m 769.89518,447.17942 c 0.0252,-0.61065 0.14936,-0.73485 0.31669,-0.31669 0.15142,0.37839 0.1328,0.8305 -0.0414,1.00468 -0.17418,0.17419 -0.29807,-0.13541 -0.27531,-0.68799 z"
           id="path12087" /><path
           style="fill:#778c2b;stroke-width:0.524184"
           d="m 756.07854,447.33543 c -0.15439,-0.40236 0.13986,-0.67395 0.7302,-0.67395 0.54385,0 0.98881,0.30327 0.98881,0.67395 0,0.37067 -0.32859,0.67395 -0.73019,0.67395 -0.40161,0 -0.84657,-0.30328 -0.98882,-0.67395 z"
           id="path12085" /><path
           style="fill:#778c2b;stroke-width:0.524184"
           d="m 744.3587,449.60794 c -0.90459,-0.84791 -1.82696,-1.37755 -2.04973,-1.17699 -0.22276,0.20057 -0.26771,0.12219 -0.0999,-0.17417 0.16782,-0.29637 -0.16617,-1.12195 -0.7422,-1.83465 l -1.04735,-1.2958 0.22049,1.395 c 0.18484,1.16952 0.0854,1.31064 -0.61526,0.87307 -0.45966,-0.28706 -0.83575,-1.20966 -0.83575,-2.05023 0,-2.2941 1.58177,-1.98222 2.88302,0.56844 0.58832,1.1532 1.2564,2.09673 1.48463,2.09673 0.22822,0 0.93814,0.70765 1.57759,1.57255 1.45489,1.96786 1.30155,1.97301 -0.77555,0.0261 z"
           id="path12077" /><path
           style="fill:#778c2b;stroke-width:0.524184"
           d="m 758.84592,451.67847 c -0.88498,-0.69225 -1.05357,-1.02884 -0.51923,-1.03671 0.43518,-0.006 1.08586,0.46011 1.44595,1.03671 0.80512,1.28919 0.72142,1.28919 -0.92672,0 z"
           id="path12071" /><path
           style="fill:#778c2b;stroke-width:0.524184"
           d="m 748.29537,452.85788 c -0.65201,-0.83139 -0.63347,-0.84992 0.19791,-0.19791 0.87316,0.68478 1.15084,1.11524 0.71942,1.11524 -0.10885,0 -0.52165,-0.4128 -0.91733,-0.91733 z"
           id="path12069" /><path
           style="fill:#778c2b;stroke-width:0.524184"
           d="m 758.83541,454.54881 c -1.01292,-1.22049 -0.29016,-1.45049 0.79388,-0.25263 0.52342,0.57837 0.70811,1.05158 0.41043,1.05158 -0.29769,0 -0.83963,-0.35952 -1.20431,-0.79895 z"
           id="path12057" /><path
           style="fill:#778c2b;stroke-width:0.524184"
           d="m 751.76944,455.44309 c -0.57661,-0.50499 -1.12673,-1.26295 -1.2225,-1.68436 -0.2535,-1.11544 -1.16118,-2.08026 -1.95707,-2.08026 -0.78493,0 -2.32437,-1.98667 -2.32437,-2.99965 0,-0.3683 0.23588,-0.66964 0.52419,-0.66964 0.2883,0 0.52418,0.47972 0.52418,1.06605 0,0.66009 0.68978,1.47302 1.8114,2.1348 0.99627,0.58781 1.96771,1.58236 2.15874,2.2101 0.19103,0.62775 0.70982,1.55415 1.15285,2.05868 1.02696,1.16949 0.68799,1.15135 -0.66742,-0.0357 z"
           id="path12053" /><path
           style="fill:#778c2b;stroke-width:0.524184"
           d="m 755.83186,457.8531 c -0.64867,-0.31285 -1.17941,-0.78257 -1.17941,-1.04383 0,-0.26125 -0.18534,-0.36047 -0.41186,-0.22047 -0.22652,0.13999 -0.44721,-0.14094 -0.4904,-0.6243 -0.0432,-0.48336 -0.23919,-1.52751 -0.43553,-2.32034 -0.22908,-0.92502 -0.14727,-1.44151 0.22831,-1.44151 0.32191,0 0.58529,0.66287 0.58529,1.47305 0,0.94227 0.58904,2.07551 1.63476,3.1451 0.89911,0.91963 1.54779,1.6561 1.4415,1.63659 -0.10628,-0.0195 -0.72398,-0.29144 -1.37266,-0.60429 z"
           id="path12049" /><path
           style="fill:#778c2b;stroke-width:0.524184"
           d="m 763.0021,458.62738 c 0.50071,-1.81751 -0.3422,-4.30497 -3.02065,-8.91407 -1.56781,-2.69789 -1.99701,-3.9313 -1.80622,-5.19053 0.24593,-1.62305 0.26756,-1.63442 1.24676,-0.65523 0.54807,0.54808 0.99649,1.45141 0.99649,2.00742 0,0.55601 0.35382,1.36475 0.78627,1.7972 0.43245,0.43245 0.78628,1.11187 0.78628,1.50981 0,0.39794 0.34632,1.18141 0.76961,1.74104 0.7485,0.98961 0.77006,0.98432 0.78627,-0.19284 0.009,-0.66569 0.24354,-1.07014 0.52083,-0.89877 0.2961,0.18301 0.32393,0.79064 0.0674,1.47245 -0.48441,1.28759 -0.16279,4.43486 0.49472,4.84123 0.44309,0.27385 -0.81287,3.17761 -1.57928,3.65128 -0.24562,0.1518 -0.26745,-0.37424 -0.0485,-1.16899 z"
           id="path12041" /><path
           style="fill:#778c2b;stroke-width:0.524184"
           d="m 755.37064,461.13918 c -0.90234,-0.2153 -2.1852,-0.8988 -2.8508,-1.51889 -0.6656,-0.6201 -1.83679,-1.12746 -2.60265,-1.12746 -0.76586,0 -1.81249,-0.46411 -2.32584,-1.03136 -0.51336,-0.56726 -2.4551,-1.79604 -4.31499,-2.73063 -1.85989,-0.9346 -3.60768,-2.12167 -3.88397,-2.63793 -0.27629,-0.51626 -0.80289,-0.93865 -1.17021,-0.93865 -0.9372,0 -5.4767,-5.37768 -6.39524,-7.57607 -0.41953,-1.00407 -0.76278,-2.47535 -0.76278,-3.26951 v -1.44393 l 0.86296,1.29605 c 1.35995,2.04243 2.39676,2.73757 2.91032,1.95124 0.31522,-0.48266 0.70689,-0.31011 1.48733,0.65527 1.99925,2.47298 2.31826,3.50518 0.57882,1.87285 -0.89926,-0.84388 -1.79023,-1.37912 -1.97994,-1.18941 -0.58152,0.58151 3.60089,4.81399 6.09282,6.16575 1.2934,0.70161 4.05333,2.69096 6.13317,4.42077 2.07985,1.72981 5.56236,4.04683 7.73892,5.14893 2.17655,1.10211 3.95736,2.10461 3.95736,2.22779 0,0.31102 -1.52551,0.1904 -3.47528,-0.27481 z"
           id="path12037" /><path
           style="fill:#778c2b;stroke-width:0.524184"
           d="m 768.76575,466.48667 -1.27079,-1.4415 1.44151,1.27078 c 0.79283,0.69894 1.44151,1.34762 1.44151,1.44151 0,0.41111 -0.42449,0.0765 -1.61223,-1.27079 z"
           id="path12021" /><path
           style="fill:#778c2b;stroke-width:0.524184"
           d="m 771.35948,471.72852 c -0.65202,-0.83139 -0.63348,-0.84993 0.19791,-0.19791 0.50453,0.39567 0.91732,0.80847 0.91732,0.91732 0,0.43142 -0.43045,0.15375 -1.11523,-0.71941 z"
           id="path12013" /><path
           style="fill:#778c2b;stroke-width:0.524184"
           d="m 775.19782,486.01254 c 0.0107,-0.86491 0.12817,-1.15528 0.26107,-0.64526 0.1329,0.51002 0.12416,1.21766 -0.0195,1.57255 -0.14359,0.35489 -0.25233,-0.0624 -0.24164,-0.92729 z"
           id="path10118-3" /><path
           style="fill:#526028;stroke-width:0.524184"
           d="m 774.05304,495.97899 c -0.55257,-0.66581 -0.55815,-1.09843 -0.029,-2.25026 1.1567,-2.51795 1.53166,-7.27631 1.01057,-12.82442 -0.60131,-6.40225 -1.14146,-7.36158 -7.54463,-13.39955 -3.37073,-3.1785 -5.57412,-4.698 -10.40749,-7.17725 -3.45502,-1.77224 -7.78648,-4.51798 -9.92292,-6.29021 -2.08529,-1.72981 -4.84968,-3.71916 -6.14308,-4.42077 -2.45728,-1.33297 -6.67743,-5.58114 -6.109,-6.14956 0.1808,-0.18081 1.3791,0.63947 2.66289,1.82283 1.28379,1.18336 3.21375,2.51907 4.2888,2.96825 1.07504,0.44919 3.15494,1.82083 4.62199,3.0481 1.46706,1.22727 3.49296,2.83097 4.50201,3.56377 2.67156,1.94015 9.82284,5.68162 10.17895,5.32551 0.16761,-0.16761 0.30474,-1.4093 0.30474,-2.7593 0,-1.77726 -0.48883,-3.38037 -1.77154,-5.80971 -0.97434,-1.84533 -1.9151,-4.18074 -2.09057,-5.18979 -0.17546,-1.00906 -0.17147,-1.48082 0.009,-1.04837 0.18035,0.43245 1.2496,2.37874 2.37611,4.32508 3.10655,5.36737 3.60396,7.09797 2.75222,9.57552 -0.38702,1.12579 -0.65534,2.07333 -0.59625,2.10566 1.69596,0.92779 4.52276,3.22454 7.31496,5.94333 4.00934,3.90394 3.95132,3.97377 2.77604,-3.34105 -0.82,-5.10357 -2.11916,-17.16907 -2.63406,-24.46278 -0.31014,-4.39323 -0.28524,-4.53449 0.75147,-4.26339 0.90839,0.23755 1.07224,0.70083 1.07224,3.03168 0,3.88027 1.73452,16.09585 3.94613,27.79123 1.34896,7.13346 1.95382,11.96747 2.13167,17.03598 0.36539,10.41371 -1.06197,15.7282 -3.4511,12.84947 z"
           id="path12279" /></g></g></g></svg>
