<?xml version="1.0" encoding="UTF-8" standalone="no"?>
<!-- Created with Inkscape (http://www.inkscape.org/) -->

<svg
   width="188.60675mm"
   height="236.72417mm"
   viewBox="0 0 188.60675 236.72417"
   version="1.1"
   id="svg5"
   xml:space="preserve"
   xmlns="http://www.w3.org/2000/svg"
   xmlns:svg="http://www.w3.org/2000/svg"><defs
     id="defs2" /><g
     id="layer1"
     style="display:inline;opacity:1"
     transform="translate(3567.3851,-25.228605)"><g
       id="g142083"><g
         id="g12869"
         transform="matrix(2.2040458,0,0,2.2040458,-4899.194,-812.60948)"><path
           style="fill:#f6f9fb;stroke-width:0.524184"
           d="m 628.3601,398.13247 c -0.80068,-0.0998 -0.65437,1.11879 0.93844,3.14916 0.82414,1.05054 1.76707,2.73542 2.09548,3.74447 0.3284,1.00906 1.65153,3.1771 2.94039,4.8178 2.12185,2.70108 2.55561,2.99835 4.58783,3.14503 1.23443,0.0891 2.32524,0.12066 2.42414,0.0698 0.0989,-0.0509 -0.70877,-1.7844 -1.79524,-3.85196 -1.45528,-2.7694 -2.67623,-4.28179 -4.63589,-5.74384 -1.46302,-1.09152 -3.35247,-2.71954 -4.19923,-3.61787 -1.0542,-1.11839 -1.87552,-1.65268 -2.35592,-1.71255 z"
           id="path10651" /><path
           style="fill:#f6f9fb;stroke-width:0.524184"
           d="m 666.77997,397.12115 -2.58537,2.0221 c -3.50384,2.7414 -7.6493,5.20321 -10.89701,6.4704 -3.44674,1.34486 -6.63265,3.52966 -7.13961,4.89686 -0.31213,0.84173 -0.10544,1.20115 0.97565,1.69757 0.75431,0.3464 2.19694,0.51383 3.206,0.37207 2.83177,-0.39783 8.42872,-3.40342 9.44284,-5.071 0.49246,-0.80979 1.93084,-2.14091 3.19618,-2.95796 1.26535,-0.81704 3.11622,-2.3448 4.11345,-3.39514 l 1.81332,-1.90945 -1.06298,-1.06298 z"
           id="path10641" /><path
           style="fill:#f6f9fb;stroke-width:0.524184"
           d="m 619.69809,396.23335 c -0.73337,0.0607 -1.33377,0.26369 -1.33377,0.45113 0,0.18745 1.65941,2.01326 3.68712,4.05712 2.0277,2.04386 4.01388,4.49284 4.4142,5.44205 0.96981,2.29956 3.68145,4.83154 6.57582,6.14019 3.30645,1.49497 3.44868,1.38283 1.44488,-1.13843 -2.27795,-2.86619 -3.54139,-4.90689 -3.54139,-5.71955 0,-2.53634 -8.44011,-9.4648 -11.24686,-9.23251 z"
           id="path10637" /><path
           style="fill:#f6f9fb;stroke-width:0.524184"
           d="m 645.88977,396.01993 c 0.0299,0.031 0.0624,0.10865 0.0956,0.23616 0.13283,0.51002 0.12395,1.21763 -0.0196,1.57251 -0.14364,0.35489 -0.25203,-0.0622 -0.24133,-0.92708 0.008,-0.64868 0.0758,-0.97455 0.16536,-0.88159 z"
           id="path10635" /><path
           style="fill:#f6f9fb;stroke-width:0.524184"
           d="m 611.21334,395.87368 c -3.08242,-0.0359 -6.40546,0.34362 -6.16035,0.98237 0.41111,1.07134 2.26274,1.88585 6.11074,2.68769 3.67687,0.76618 10.0425,3.45499 12.18065,5.14491 0.5766,0.45572 1.23349,0.83591 1.45986,0.84491 1.63971,0.0664 -6.43291,-7.99519 -9.12502,-9.11263 -0.85357,-0.35429 -2.61643,-0.52573 -4.46588,-0.54725 z"
           id="path10633" /><path
           style="fill:#f6f9fb;stroke-width:0.524184"
           d="m 652.24391,395.81268 c 0.0771,-0.0449 0.11885,0.0545 0.11885,0.30231 0,0.43245 -0.20283,1.2579 -0.45061,1.83451 -0.28396,0.6608 -0.45011,0.75812 -0.45011,0.26252 0,-0.43245 0.20233,-1.25842 0.45011,-1.83503 0.14198,-0.3304 0.25463,-0.51943 0.33176,-0.56431 z"
           id="path10631" /><path
           style="fill:#f6f9fb;stroke-width:0.524184"
           d="m 685.67133,394.54248 c -1.59809,0 -10.62774,4.61379 -15.4833,7.91114 -1.73794,1.18021 -4.49722,2.75098 -6.13141,3.49074 -1.63419,0.73975 -3.74412,2.01343 -4.68912,2.83084 -0.94499,0.81741 -2.6551,1.96445 -3.80028,2.54868 -2.43503,1.24226 -2.68748,1.81731 -0.61598,1.40302 0.8064,-0.16129 1.8089,-0.0764 2.22777,0.18861 0.97581,0.61729 0.7486,0.63797 3.90364,-0.35656 1.49067,-0.4699 3.92144,-1.7086 5.40122,-2.75229 1.47976,-1.04369 4.15985,-2.94028 5.95622,-4.21473 1.79638,-1.27446 5.75578,-3.63299 8.79843,-5.24154 4.7783,-2.52616 5.55458,-3.12105 5.69784,-4.36614 0.1451,-1.26105 -0.0131,-1.44177 -1.26503,-1.44177 z"
           id="path10625" /><path
           style="fill:#f6f9fb;stroke-width:0.524184"
           d="m 632.68645,394.01848 c -1.07958,0 -0.81563,2.32355 0.44596,3.92741 1.73209,2.20199 6.28695,9.26754 7.86619,12.20183 1.20825,2.245 1.58678,2.57533 2.70474,2.36162 1.95646,-0.37399 1.96128,-1.70782 0.0217,-5.89525 -1.32469,-2.85992 -2.82343,-4.88989 -6.05286,-8.19847 -2.36069,-2.41855 -4.60443,-4.39714 -4.98574,-4.39714 z"
           id="path10621" /><path
           style="fill:#f6f9fb;stroke-width:0.524184"
           d="m 609.30699,392.14265 c -0.67971,-0.0662 -1.37409,0.0719 -2.53731,0.37001 -2.58836,0.66337 -3.08196,1.29658 -1.91771,2.46083 0.35226,0.35223 0.96135,0.51736 1.35341,0.3669 0.39207,-0.15045 2.47658,-0.27389 4.63227,-0.27389 2.1557,0 3.79086,-0.2082 3.63337,-0.46302 -0.15749,-0.25482 -1.37941,-0.97723 -2.71508,-1.60507 -1.10436,-0.51911 -1.76923,-0.78951 -2.44895,-0.85576 z"
           id="path10609" /><path
           style="fill:#f6f9fb;stroke-width:0.524184"
           d="m 650.73857,390.95978 c 0.0693,0.0917 0.10196,0.66915 0.0734,1.79162 -0.0287,1.12919 -0.24592,2.64287 -0.48214,3.36362 -0.26682,0.81409 -0.31863,0.1193 -0.13694,-1.83451 0.21166,-2.27614 0.43015,-3.47352 0.5457,-3.32073 z"
           id="path10603" /><path
           style="fill:#f6f9fb;stroke-width:0.524184"
           d="m 613.33931,387.73157 c -1.00226,-0.006 -1.96484,0.41241 -3.05356,1.20871 -1.43713,1.05114 -0.75318,2.24234 2.04122,3.55586 1.3155,0.61836 2.79936,1.63988 3.29747,2.26963 0.73431,0.92832 1.3188,1.10513 3.08922,0.93431 1.20091,-0.11588 2.61613,0.0408 3.14502,0.3483 0.52889,0.3075 1.28536,0.56616 1.68104,0.57516 0.97289,0.0216 0.23838,-0.89538 -4.09536,-5.11132 -2.65455,-2.58239 -4.43463,-3.77069 -6.10505,-3.78065 z"
           id="path10587" /><path
           style="fill:#f6f9fb;stroke-width:0.524184"
           d="m 617.21039,385.23922 c -0.12915,-1.9e-4 -0.21909,0.0186 -0.25838,0.0579 -0.8124,0.81238 0.83625,3.56448 4.26123,7.11274 2.10631,2.18211 4.10477,4.49829 4.44056,5.14697 0.79568,1.53706 1.4145,1.50233 1.3839,-0.0775 -0.0134,-0.69124 -0.83011,-2.2835 -1.8154,-3.53829 -2.76921,-3.52665 -3.01015,-4.13314 -0.48937,-1.233 1.25295,1.44151 3.93024,4.20771 5.94899,6.14691 2.01875,1.93921 3.86444,3.53077 4.10156,3.53777 0.57487,0.0166 -0.88518,-1.73809 -7.90443,-9.50226 -4.10985,-4.546 -6.46768,-6.73204 -7.77059,-7.20318 -0.7716,-0.27899 -1.51062,-0.44747 -1.89807,-0.44803 z"
           id="path10579" /><path
           style="fill:#f6f9fb;stroke-width:0.524184"
           d="m 664.40957,384.08373 c -0.67939,-0.0721 -1.52647,0.37505 -1.99006,1.24127 -0.37274,0.69647 -1.06132,1.36701 -1.53013,1.48983 -0.48743,0.1277 -1.82473,2.4472 -3.12384,5.41724 -1.24947,2.85655 -2.70526,6.16424 -3.23495,7.35046 -0.89089,1.99514 -0.89875,2.22096 -0.10697,3.01273 0.78749,0.78737 0.89363,0.78777 1.33015,0.008 0.36041,-0.64402 0.57187,-0.69025 0.87902,-0.19327 0.6926,1.12064 1.54863,0.0594 3.74086,-4.63796 3.37017,-7.22142 5.26457,-12.17934 4.95887,-12.97596 -0.16832,-0.43861 -0.51531,-0.66885 -0.92295,-0.7121 z"
           id="path10577" /><path
           style="fill:#f6f9fb;stroke-width:0.524184"
           d="m 642.5923,382.97786 c -0.59661,-0.0241 -1.22923,0.22703 -1.93218,0.74104 -1.09076,0.79759 -1.0132,2.40156 0.51831,10.73526 0.72908,3.96721 0.98383,4.58163 1.89963,4.58163 0.88192,0 1.00803,-0.24735 0.76016,-1.48673 -0.18222,-0.91109 -0.0974,-1.36245 0.21911,-1.16685 0.28396,0.1755 0.51625,0.86223 0.51625,1.526 0,1.01849 0.21395,1.16604 1.36942,0.94516 l 1.36943,-0.262 -0.22428,-5.35161 c -0.19467,-4.64869 -0.41206,-5.67162 -1.65364,-7.79022 -0.95346,-1.62695 -1.84785,-2.43159 -2.84221,-2.47168 z"
           id="path10569" /><path
           style="fill:#f6f9fb;stroke-width:0.524184"
           d="m 669.89761,382.0389 c -0.24864,0.005 -0.53106,0.0519 -0.84801,0.13849 -1.2138,0.33156 -1.9645,1.69514 -5.65547,10.26862 -1.17911,2.73886 -2.47922,5.74634 -2.88871,6.68332 -1.2301,2.81462 0.10718,1.9266 2.50889,-1.66605 1.23892,-1.85327 2.33844,-3.28395 2.44326,-3.17914 0.10481,0.10482 -0.18719,0.73019 -0.64905,1.38958 -1.68171,2.40098 -0.50334,2.81526 1.62884,0.57258 0.86761,-0.91258 1.24908,-1.10524 1.03973,-0.52452 -0.54546,1.51308 0.75162,1.05952 2.99568,-1.048 l 2.09341,-1.96577 -1.91203,2.41278 c -1.2591,1.58901 -1.73526,2.59005 -1.39423,2.93108 0.34103,0.34103 -0.20542,1.39332 -1.60041,3.08147 -1.16509,1.40992 -2.11822,2.75266 -2.11822,2.98431 0,0.49003 1.83063,-0.41059 3.55844,-1.7508 0.65997,-0.51192 1.80227,-2.06912 2.53834,-3.46025 0.73608,-1.39113 2.96194,-4.20783 4.94596,-6.25957 3.48423,-3.60316 5.01218,-6.05849 4.39353,-7.05951 -0.16323,-0.26411 -0.53675,-0.48008 -0.82993,-0.48008 -0.59722,0 -5.96197,4.02972 -8.97154,6.73913 -2.26321,2.03747 -2.36881,1.68375 -0.91726,-3.0701 1.45595,-4.76828 1.37929,-6.77447 -0.36122,-6.73757 z"
           id="path10565" /><path
           style="fill:#f6f9fb;stroke-width:0.524184"
           d="m 632.00742,381.9733 c -0.28208,-0.009 -0.47343,0.24197 -0.84129,0.74414 -1.10716,1.5114 -0.90525,3.81814 0.49919,5.70094 1.3981,1.87429 2.58597,4.02766 2.22157,4.02766 -0.13215,0 -1.31742,-1.62045 -2.63395,-3.60081 -2.93587,-4.41616 -3.20003,-4.63796 -5.79861,-4.86585 -2.72826,-0.23926 -2.95068,0.78221 -0.76636,3.52071 0.90488,1.13445 2.18533,3.12408 2.84582,4.42144 0.66049,1.29735 1.69856,2.80821 2.30632,3.35742 1.09153,0.98631 1.10484,0.98465 1.10484,-0.14832 0,-0.63087 -0.59369,-2.31875 -1.3193,-3.75067 -1.64279,-3.24191 -1.34212,-3.3965 0.49816,-0.25632 1.20236,2.05168 1.5695,2.32401 2.91972,2.1668 1.09215,-0.12716 1.62637,0.0776 1.82366,0.69918 0.3815,1.20202 3.8418,4.49569 4.27158,4.0659 0.1907,-0.1907 -0.16458,-1.68328 -0.78962,-3.31659 -0.62503,-1.63332 -1.04776,-3.05793 -0.93948,-3.16622 0.18252,-0.18252 2.39395,4.58376 3.17604,6.84506 0.74043,2.14081 0.71537,0.37036 -0.0537,-3.80132 -0.69869,-3.7897 -1.1347,-4.81059 -3.23133,-7.56078 -1.33321,-1.7488 -3.09141,-3.66907 -3.90673,-4.26744 -0.73161,-0.5369 -1.1044,-0.80602 -1.38648,-0.81493 z"
           id="path10563" /><path
           style="fill:#f6f9fb;stroke-width:0.524184"
           d="m 650.64246,380.14448 c -0.59408,-0.0654 -1.12163,0.26632 -1.24851,1.03146 -0.0956,0.5766 -0.51162,1.79162 -0.92449,2.70009 -0.5177,1.13915 -0.75034,3.60022 -0.75034,7.92975 0,6.90409 -0.007,6.88826 3.59926,8.57519 1.04745,0.49002 1.93456,0.91049 1.97146,0.93379 0.0369,0.0233 0.57875,-1.32571 1.20406,-2.99775 l 1.13688,-3.04012 -1.34203,-6.20738 c -0.73814,-3.41406 -1.63689,-6.82274 -1.9973,-7.57473 -0.39421,-0.82249 -1.05492,-1.28492 -1.64899,-1.3503 z"
           id="path10559" /><path
           style="fill:#f3cb46;stroke-width:0.524184"
           d="m 647.63213,401.01481 c 0.8706,-0.2331 1.03001,-0.44738 0.55243,-0.74254 -0.36921,-0.22819 -1.12164,-0.17388 -1.67206,0.1207 -0.55042,0.29458 -1.80151,0.38537 -2.78021,0.20177 -1.10117,-0.20659 -1.77945,-0.12497 -1.77945,0.21411 0,0.59715 3.7151,0.73188 5.67929,0.20596 z"
           id="path11477" /><path
           style="fill:#f3cb46;stroke-width:0.524184"
           d="m 652.60156,405.47191 c 0.90753,-0.70935 0.89058,-0.80912 -0.3681,-2.16726 -0.86103,-0.92907 -1.82893,-1.40983 -2.78596,-1.3838 -1.44956,0.0394 -1.4453,0.0485 0.3681,0.79026 1.69456,0.69309 1.71457,0.72577 0.2621,0.42807 -3.77524,-0.77377 -7.60052,-0.83676 -7.61233,-0.12536 -0.0146,0.87741 -2.05746,-1.67181 -2.07342,-2.58733 -0.0138,-0.79237 2.07354,-1.67789 3.46319,-1.46918 0.53939,0.081 1.67388,-0.0499 2.52109,-0.29094 1.08281,-0.30805 1.7835,-0.22552 2.35883,0.27782 0.45015,0.39382 1.36469,0.88269 2.03231,1.08639 1.54957,0.47277 4.81426,3.32253 4.81426,4.20238 0,0.36896 -0.41279,0.78953 -0.91732,0.9346 -0.50453,0.14506 -1.38909,0.44019 -1.96569,0.65584 -0.99362,0.3716 -0.99869,0.35325 -0.0971,-0.35149 z"
           id="path11475" /><path
           style="fill:#f3cb46;stroke-width:0.524184"
           d="m 643.60101,406.20549 c -0.57199,-1.33669 -0.55905,-1.36753 0.17796,-0.424 0.43714,0.55963 0.79479,1.20831 0.79479,1.44151 0,0.79671 -0.35557,0.42478 -0.97275,-1.01751 z"
           id="path11471" /><path
           style="fill:#f3cb46;stroke-width:0.524184"
           d="m 647.71887,408.49745 c 0,-0.10885 0.41279,-0.52164 0.91732,-0.91732 0.83139,-0.65202 0.84993,-0.63348 0.19791,0.19791 -0.68478,0.87316 -1.11523,1.15084 -1.11523,0.71941 z"
           id="path11469" /><path
           style="fill:#f3cb46;stroke-width:0.524184"
           d="m 644.89194,409.43877 c -0.49641,-1.2936 -0.34429,-1.62936 0.26426,-0.58329 0.46458,0.7986 0.6872,0.83952 1.42557,0.26209 0.78381,-0.61298 0.80003,-0.58869 0.15559,0.23302 -0.89168,1.13698 -1.43303,1.16285 -1.84542,0.0882 z"
           id="path11467" /><path
           style="fill:#e7a314;stroke-width:0.524184"
           d="m 645.18793,400.8532 c 0.77024,-0.23767 1.6521,-0.58766 1.95968,-0.77775 0.32417,-0.20035 0.44584,-0.0501 0.28947,0.35741 -0.14838,0.38668 -1.03025,0.73666 -1.95969,0.77775 -1.6426,0.0726 -1.6507,0.0626 -0.28946,-0.35741 z"
           id="path11629" /><path
           style="fill:#e7a314;stroke-width:0.524184"
           d="m 641.95284,400.8326 c 0,-0.2883 0.35383,-0.52418 0.78628,-0.52418 0.43245,0 0.78627,0.23588 0.78627,0.52418 0,0.2883 -0.35382,0.52418 -0.78627,0.52418 -0.43245,0 -0.78628,-0.23588 -0.78628,-0.52418 z"
           id="path11627" /><path
           style="fill:#e7a314;stroke-width:0.524184"
           d="m 644.10171,406.53735 c -0.89358,-1.7882 -1.62468,-3.47044 -1.62468,-3.7383 0,-0.48506 4.57298,-0.28042 7.60067,0.34013 1.45247,0.2977 1.43246,0.26502 -0.2621,-0.42807 -1.68397,-0.68876 -1.72448,-0.75366 -0.49332,-0.79026 1.3656,-0.0406 2.37479,0.56893 3.57199,2.15741 0.58558,0.77697 0.38758,1.02986 -1.59828,2.04132 -1.24666,0.63497 -3.00982,1.72027 -3.91813,2.41178 l -1.65146,1.25727 z"
           id="path11611" /><path
           style="fill:#90a334;stroke-width:0.524184"
           d="m 613.51585,424.59789 c 0.36037,-0.14542 0.95008,-0.14542 1.31046,0 0.36037,0.14541 0.0655,0.26439 -0.65523,0.26439 -0.72076,0 -1.01561,-0.11898 -0.65523,-0.26439 z"
           id="path11855" /><path
           style="fill:#90a334;stroke-width:0.524184"
           d="m 670.78297,427.159 c 0,-0.62374 1.24355,-1.16559 2.67504,-1.16559 0.57583,0 1.27565,-0.56827 1.61381,-1.31046 0.62774,-1.37773 0.98843,-1.49727 2.94012,-0.97447 1.27147,0.3406 1.31706,1.44995 0.0645,1.56924 -0.40764,0.0388 -1.03601,0.0978 -1.39638,0.13104 -0.36038,0.0332 -0.65523,0.41429 -0.65523,0.84674 0,0.50657 -0.51281,0.78883 -1.44151,0.79344 -0.79283,0.004 -1.97224,0.14939 -2.62092,0.32323 -0.65303,0.175 -1.17942,0.0799 -1.17942,-0.21317 z"
           id="path11853" /><path
           style="fill:#90a334;stroke-width:0.524184"
           d="m 621.93556,427.2079 c 0.37839,-0.15142 0.8305,-0.1328 1.00468,0.0414 0.17419,0.17418 -0.13541,0.29807 -0.68799,0.27531 -0.61065,-0.0252 -0.73485,-0.14936 -0.31669,-0.31669 z"
           id="path11851" /><path
           style="fill:#90a334;stroke-width:0.524184"
           d="m 668.02972,427.1166 c -0.1967,-0.75219 0.36755,-1.28864 2.48111,-2.35883 2.81085,-1.42326 3.94143,-1.70032 3.94143,-0.96587 0,0.80879 -1.26949,1.67739 -2.45158,1.67739 -0.69468,0 -1.55242,0.54773 -2.05219,1.31046 -1.02253,1.56059 -1.57346,1.65731 -1.91877,0.33685 z"
           id="path11849" /><path
           style="fill:#90a334;stroke-width:0.524184"
           d="m 605.06338,429.24459 c -1.03593,-1.67617 5.6788,-3.35231 7.7153,-1.92589 1.02565,0.71839 1.02658,0.74221 0.0414,1.05796 -0.55432,0.17766 -1.54969,0.53972 -2.21193,0.80456 -1.48009,0.59192 -5.19191,0.63435 -5.54479,0.0634 z"
           id="path11847" /><path
           style="fill:#90a334;stroke-width:0.524184"
           d="m 664.64493,428.63635 c 0.68137,-1.80516 2.46875,-2.5543 2.46875,-1.03471 0,0.55797 -0.66069,1.32749 -1.52228,1.77303 l -1.5223,0.78721 z"
           id="path11845" /><path
           style="fill:#90a334;stroke-width:0.524184"
           d="m 626.68463,429.26962 c -0.65201,-0.83138 -0.63347,-0.84993 0.19791,-0.19791 0.50453,0.39568 0.91733,0.80848 0.91733,0.91733 0,0.43142 -0.43046,0.15374 -1.11524,-0.71942 z"
           id="path11843" /><path
           style="fill:#90a334;stroke-width:0.524184"
           d="m 661.15868,431.39579 c -0.18436,-0.18436 -0.33521,-0.96396 -0.33521,-1.73245 0,-1.13 0.33802,-1.50098 1.76734,-1.93965 1.62092,-0.49747 1.74517,-0.45765 1.49981,0.4806 -0.14713,0.56266 -0.58861,1.14623 -0.98105,1.29682 -0.39245,0.1506 -0.71354,0.58848 -0.71354,0.97307 0,0.82944 -0.76198,1.39698 -1.23735,0.92161 z"
           id="path11839" /><path
           style="fill:#90a334;stroke-width:0.524184"
           d="m 611.18942,430.76696 -1.14701,-0.95767 1.99411,-0.59745 c 2.52864,-0.7576 3.54808,-0.75466 4.02167,0.0116 0.44711,0.72344 -1.62179,2.54377 -2.8625,2.51859 -0.47259,-0.01 -1.37541,-0.44839 -2.00627,-0.9751 z"
           id="path11837" /><path
           style="fill:#90a334;stroke-width:0.524184"
           d="m 680.87352,432.98489 c -1.01159,-0.40818 -0.78444,-1.24752 0.71325,-2.63553 1.29858,-1.20348 1.41906,-1.22248 2.35883,-0.372 0.93441,0.84563 0.99035,0.8455 0.99035,-0.002 0,-1.15741 0.83841,-0.64769 1.1983,0.72852 0.15206,0.5815 0.0941,0.94456 -0.12876,0.80681 -0.22289,-0.13775 -0.82715,0.21575 -1.34282,0.78555 -0.89529,0.98928 -2.37703,1.25866 -3.78915,0.68885 z"
           id="path11835" /><path
           style="fill:#90a334;stroke-width:0.524184"
           d="m 677.46632,432.60129 c -1.30625,-0.99006 -1.14387,-1.21766 0.67797,-0.95027 0.87741,0.12878 1.51135,0.48598 1.40875,0.79378 -0.28746,0.86237 -1.07725,0.9216 -2.08672,0.15649 z"
           id="path11833" /><path
           style="fill:#90a334;stroke-width:0.524184"
           d="m 674.22052,433.44977 c -0.16084,-0.16085 -0.29244,-0.7249 -0.29244,-1.25345 0,-1.25723 1.38773,-1.23741 2.06577,0.0295 0.42472,0.79358 0.33021,1.04278 -0.47539,1.25344 -0.55302,0.14462 -1.13709,0.13135 -1.29794,-0.0295 z"
           id="path11831" /><path
           style="fill:#90a334;stroke-width:0.524184"
           d="m 615.84847,433.7514 c -0.95823,-0.95823 -0.75855,-1.74543 0.63146,-2.48934 1.66793,-0.89265 2.28533,-0.42255 1.99982,1.52273 -0.24801,1.68979 -1.4621,2.13579 -2.63128,0.96661 z"
           id="path11827" /><path
           style="fill:#90a334;stroke-width:0.524184"
           d="m 669.78369,434.17747 c -0.53917,-0.64966 -0.37009,-0.92356 1.0109,-1.6377 1.88773,-0.97619 2.00936,-0.9307 2.20486,0.82466 0.11471,1.02992 -0.1208,1.30867 -1.21298,1.43563 -0.74543,0.0867 -1.64668,-0.19351 -2.00278,-0.62259 z"
           id="path11825" /><path
           style="fill:#90a334;stroke-width:0.524184"
           d="m 665.93427,436.59327 c -1.00592,-0.12962 -1.44151,-0.489 -1.44151,-1.18931 0,-1.77858 4.27529,-2.14719 4.61222,-0.39766 0.21015,1.09124 -1.26973,1.83194 -3.17071,1.58697 z"
           id="path11819" /><path
           style="fill:#90a334;stroke-width:0.524184"
           d="m 655.58163,436.81838 c 0,-0.84301 2.55507,-5.93075 3.27836,-6.52799 0.70101,-0.57883 0.87934,-0.51776 1.17094,0.40101 0.24267,0.76458 -0.12451,1.67535 -1.24657,3.09208 -1.67146,2.11039 -3.20273,3.56142 -3.20273,3.0349 z"
           id="path11817" /><path
           style="fill:#90a334;stroke-width:0.524184"
           d="m 661.56745,436.52389 c 1.21122,-1.33839 2.54363,-1.44119 2.30403,-0.17778 -0.10913,0.57547 -0.75553,0.98358 -1.73452,1.09511 -1.55176,0.17678 -1.55497,0.1716 -0.56951,-0.91733 z"
           id="path11815" /><path
           style="fill:#90a334;stroke-width:0.524184"
           d="m 658.19597,437.81503 c 1.34237,-0.74301 2.35249,-0.59256 1.81884,0.2709 -0.16587,0.26838 -0.93634,0.4796 -1.71215,0.46939 l -1.41057,-0.0186 1.30388,-0.72172 z"
           id="path11809" /><path
           style="fill:#90a334;stroke-width:0.524184"
           d="m 624.39267,437.52552 c -0.8649,-0.5728 -2.20731,-1.04301 -2.98312,-1.04491 -0.77582,-0.002 -1.59413,-0.29831 -1.81848,-0.65868 -0.35463,-0.56968 -0.31496,-3.02414 0.0552,-3.41485 0.0723,-0.0763 1.23866,0.48016 2.59199,1.23655 2.26412,1.26544 2.38558,1.4325 1.52122,2.0923 -0.82621,0.63067 -0.65521,0.68421 1.41946,0.44448 1.29735,-0.14991 2.7115,-0.0359 3.14255,0.25349 0.67533,0.45329 0.63908,0.63535 -0.26209,1.31635 -1.3751,1.03913 -1.79747,1.01324 -3.66674,-0.22473 z"
           id="path11807" /><path
           style="fill:#90a334;stroke-width:0.524184"
           d="m 639.78924,438.18075 c -0.65202,-0.83138 -0.63348,-0.84992 0.19791,-0.19791 0.50453,0.39568 0.91732,0.80848 0.91732,0.91733 0,0.43142 -0.43045,0.15375 -1.11523,-0.71942 z"
           id="path11805" /><path
           style="fill:#90a334;stroke-width:0.524184"
           d="m 627.86178,439.67162 c -0.5707,-0.36145 -0.44016,-0.64499 0.61529,-1.33655 1.25088,-0.81962 1.45156,-0.81991 3.02848,-0.004 1.29923,0.67186 1.52006,0.98019 0.95726,1.33655 -0.93992,0.59516 -3.6642,0.59779 -4.60103,0.004 z"
           id="path11799" /><path
           style="fill:#90a334;stroke-width:0.524184"
           d="m 630.01603,443.7951 c -1.36479,-0.54815 -2.06149,-1.91626 -1.34216,-2.63559 0.72662,-0.72663 6.10368,-0.71891 7.46701,0.0107 l 1.18337,0.63333 -1.71892,1.26818 c -1.78359,1.31589 -3.5461,1.54399 -5.5893,0.72337 z"
           id="path11785" /><path
           style="fill:#90a334;stroke-width:0.524184"
           d="m 641.16656,445.38829 c 0.17819,-0.2883 0.84079,-0.52057 1.47245,-0.51616 0.93369,0.007 1.00143,0.10305 0.3622,0.51616 -1.03271,0.66738 -2.24711,0.66738 -1.83465,0 z"
           id="path11779" /><path
           style="fill:#90a334;stroke-width:0.524184"
           d="m 635.58292,445.26148 c -0.78353,-0.53323 -0.7507,-0.68003 0.34477,-1.54173 1.39857,-1.10011 2.32346,-1.18351 4.10804,-0.3704 1.25248,0.57067 1.25805,0.60126 0.28676,1.57256 -1.09143,1.09143 -3.39253,1.25629 -4.73957,0.33957 z"
           id="path11777" /><path
           style="fill:#778c2b;stroke-width:0.524184"
           d="m 651.81406,412.53076 c 0.37839,-0.15142 0.8305,-0.1328 1.00468,0.0414 0.17419,0.17418 -0.13541,0.29807 -0.68799,0.27531 -0.61065,-0.0252 -0.73485,-0.14936 -0.31669,-0.31669 z"
           id="path12163" /><path
           style="fill:#778c2b;stroke-width:0.524184"
           d="m 648.28444,424.6393 c 0.0252,-0.61065 0.14936,-0.73485 0.31669,-0.3167 0.15142,0.3784 0.1328,0.83051 -0.0414,1.00469 -0.17418,0.17418 -0.29807,-0.13542 -0.27531,-0.68799 z"
           id="path12157" /><path
           style="fill:#778c2b;stroke-width:0.524184"
           d="m 676.02482,426.25553 c 0,-0.75021 0.57851,-1.00084 1.92616,-0.83448 0.33864,0.0418 0.76535,-0.16613 0.94826,-0.46208 0.1829,-0.29594 0.5834,-0.53808 0.88998,-0.53808 0.35152,0 0.31638,0.29045 -0.0951,0.78628 -0.35891,0.43245 -1.15441,0.78988 -1.76778,0.7943 -0.91217,0.007 -0.97207,0.10055 -0.32896,0.51616 0.63581,0.41089 0.56058,0.50966 -0.39314,0.51616 -0.70248,0.005 -1.17941,-0.30993 -1.17941,-0.77826 z"
           id="path12155" /><path
           style="fill:#778c2b;stroke-width:0.524184"
           d="m 672.78143,427.20792 c 0.37839,-0.15142 0.8305,-0.1328 1.00468,0.0414 0.17418,0.17418 -0.13541,0.29807 -0.68799,0.27531 -0.61065,-0.0252 -0.73485,-0.14936 -0.31669,-0.31669 z"
           id="path12153" /><path
           style="fill:#778c2b;stroke-width:0.524184"
           d="m 669.86117,426.91076 c 0.42825,-0.64867 1.39797,-1.2538 2.15495,-1.34472 0.75698,-0.0909 1.7273,-0.6664 2.15627,-1.27884 0.96464,-1.37721 1.62972,-0.8849 0.82809,0.61298 -0.35112,0.65607 -1.10383,1.09326 -1.88225,1.09326 -0.71343,0 -1.70109,0.47177 -2.19479,1.04837 -1.22354,1.42899 -2.02675,1.3299 -1.06227,-0.13105 z"
           id="path12151" /><path
           style="fill:#778c2b;stroke-width:0.524184"
           d="m 666.99454,427.78023 c 0.13275,-0.69443 0.44974,-1.2626 0.70444,-1.2626 0.74259,0 0.53304,1.95772 -0.24137,2.25489 -0.50455,0.19361 -0.63595,-0.0879 -0.46307,-0.99229 z"
           id="path12149" /><path
           style="fill:#778c2b;stroke-width:0.524184"
           d="m 650.90536,428.83278 c 0.0252,-0.61065 0.14936,-0.73486 0.31669,-0.3167 0.15142,0.37839 0.1328,0.83051 -0.0414,1.00469 -0.17418,0.17418 -0.29807,-0.13542 -0.27531,-0.68799 z"
           id="path12145" /><path
           style="fill:#778c2b;stroke-width:0.524184"
           d="m 662.22417,430.97319 c 0.19519,-0.5766 0.66753,-1.237 1.04965,-1.46755 0.38211,-0.23055 0.69476,-0.74737 0.69476,-1.14848 0,-0.40111 0.22705,-0.86962 0.50456,-1.04113 0.28762,-0.17776 0.45665,0.35041 0.39314,1.22845 -0.0613,0.84716 -0.28834,1.43141 -0.50456,1.29833 -0.21623,-0.13307 -0.39314,0.0472 -0.39314,0.40053 0,0.35337 -0.15359,0.4889 -0.34131,0.30118 -0.18772,-0.18772 -0.66007,0.0678 -1.04966,0.56786 -0.65407,0.83952 -0.68115,0.82885 -0.35344,-0.13919 z"
           id="path12143" /><path
           style="fill:#778c2b;stroke-width:0.524184"
           d="m 614.17108,431.97454 c 0,-0.6762 2.36847,-2.17463 3.03376,-1.91934 0.48867,0.18752 0.24952,0.57519 -0.76917,1.24684 -1.51288,0.99749 -2.26459,1.22072 -2.26459,0.6725 z"
           id="path12141" /><path
           style="fill:#778c2b;stroke-width:0.524184"
           d="m 659.40743,432.96453 c 0.63606,-0.72985 0.83541,-1.50956 0.61275,-2.3967 -0.1852,-0.7379 -0.0814,-1.46859 0.23663,-1.66512 0.33311,-0.20588 0.56666,0.077 0.56666,0.68622 0,0.57003 0.1116,1.35057 0.248,1.73453 0.1364,0.38396 -0.39433,1.15367 -1.17941,1.71047 l -1.42742,1.01238 z"
           id="path12139" /><path
           style="fill:#778c2b;stroke-width:0.524184"
           d="m 618.44463,432.82773 c 0.0875,-1.48235 0.29304,-1.93534 0.71818,-1.5825 0.681,0.56518 0.38099,3.65934 -0.3548,3.65934 -0.26726,0 -0.43078,-0.93457 -0.36338,-2.07684 z"
           id="path12135" /><path
           style="fill:#778c2b;stroke-width:0.524184"
           d="m 623.72929,435.7534 c 0.50005,-0.37972 0.73593,-0.86498 0.52419,-1.07837 -0.21175,-0.21339 0.29895,-0.0772 1.13488,0.30272 l 1.51988,0.6907 -1.25779,0.35209 c -2.22239,0.6221 -2.95758,0.51987 -1.92116,-0.26714 z"
           id="path12129" /><path
           style="fill:#778c2b;stroke-width:0.524184"
           d="m 655.58163,437.36147 c 0,-0.0902 0.76662,-0.85683 1.7036,-1.7036 l 1.7036,-1.53957 -1.53958,1.7036 c -1.4351,1.58799 -1.86762,1.94454 -1.86762,1.53957 z"
           id="path12123" /><path
           style="fill:#778c2b;stroke-width:0.524184"
           d="m 658.46464,436.50539 c 4.13861,-4.31903 9.4583,-7.02439 14.93925,-7.59745 1.58566,-0.16579 4.88802,-0.74743 7.33858,-1.29254 3.45262,-0.768 4.04259,-1.01708 2.62092,-1.10651 -1.00905,-0.0635 -2.07052,-0.0718 -2.35882,-0.0186 -0.28831,0.0533 -0.17036,-0.25056 0.26209,-0.67516 0.58305,-0.57245 1.52685,-0.69687 3.65151,-0.48137 2.27329,0.23057 2.62525,0.37939 1.7036,0.72033 -0.6389,0.23635 -1.16164,0.6658 -1.16164,0.95434 0,0.28855 0.30974,0.40577 0.68831,0.2605 0.37856,-0.14527 1.03656,0.15699 1.46221,0.67168 1.09766,1.32727 2.63524,4.86719 2.11409,4.86719 -0.23986,0 -0.86671,-0.95492 -1.39301,-2.12206 -1.28578,-2.85134 -2.00832,-3.19862 -1.7321,-0.83249 0.26621,2.28025 0.0856,2.39831 -0.71079,0.46468 -0.48879,-1.18675 -0.63359,-1.2724 -0.81936,-0.48462 -0.20936,0.88783 -0.29379,0.89521 -1.16994,0.1023 -0.87897,-0.79546 -1.03896,-0.76684 -2.31277,0.41369 -0.75266,0.69754 -1.37209,1.59504 -1.37651,1.99443 -0.005,0.48424 -0.13633,0.5339 -0.39313,0.14905 -0.45791,-0.6862 -3.26813,-1.29186 -3.26813,-0.70435 0,0.2243 0.29485,0.52679 0.65523,0.67221 0.41376,0.16695 0.33785,0.27964 -0.20601,0.30577 -0.47368,0.0227 -0.99701,-0.31244 -1.16297,-0.74489 -0.16594,-0.43245 -0.69044,-0.78628 -1.16555,-0.78628 -0.63877,0 -0.79857,0.34143 -0.61333,1.31046 0.29632,1.55009 -0.62626,1.78604 -1.02478,0.26209 -0.32943,-1.25974 -0.32099,-1.2589 -2.31174,-0.22945 -1.2904,0.66729 -1.46781,0.95846 -0.95816,1.57255 0.40646,0.48975 0.43028,0.75364 0.068,0.75364 -0.30658,0 -0.70321,-0.23588 -0.88139,-0.52418 -0.36045,-0.58323 -2.34903,-0.69619 -3.62642,-0.20601 -0.45603,0.17499 -0.84777,0.82367 -0.87053,1.4415 -0.0227,0.61783 -0.16036,0.82848 -0.30577,0.4681 -0.39046,-0.96764 -1.45836,-0.79748 -2.5474,0.4059 -0.52817,0.58361 -1.21341,0.96981 -1.52275,0.8582 -0.30935,-0.11161 -1.2701,0.14546 -2.135,0.57126 -1.51079,0.74378 -1.4902,0.68825 0.52418,-1.41395 z"
           id="path12121" /><path
           style="fill:#778c2b;stroke-width:0.524184"
           d="m 649.89837,438.04968 c 0,-0.72075 0.11898,-1.01561 0.26439,-0.65523 0.14542,0.36038 0.14542,0.95008 0,1.31046 -0.14541,0.36038 -0.26439,0.0655 -0.26439,-0.65523 z"
           id="path12119" /><path
           style="fill:#778c2b;stroke-width:0.524184"
           d="m 627.81089,437.8644 c 0.71469,-0.67851 1.38305,-1.01738 1.48524,-0.75306 0.20151,0.52121 -1.43781,1.94295 -2.27152,1.97004 -0.28223,0.009 0.0716,-0.53847 0.78628,-1.21698 z"
           id="path12117" /><path
           style="fill:#778c2b;stroke-width:0.524184"
           d="m 629.63451,440.3303 c 0.5766,-0.12348 1.58875,-0.34017 2.24922,-0.48155 0.76414,-0.16357 1.06497,-0.48975 0.82722,-0.89692 -0.2055,-0.35192 0.19765,-0.17061 0.89589,0.40292 0.69823,0.57353 1.33678,1.07325 1.41899,1.11048 0.0822,0.0372 -1.33309,0.0726 -3.1451,0.0786 -1.81203,0.006 -2.82282,-0.0901 -2.24622,-0.21357 z"
           id="path12109" /><path
           style="fill:#778c2b;stroke-width:0.524184"
           d="m 641.69075,442.76754 c -1.15321,-0.84129 -2.35319,-1.53929 -2.66664,-1.55109 -0.31344,-0.0118 -1.84668,-0.92629 -3.40719,-2.03218 -2.65688,-1.88286 -5.13809,-3.2498 -10.17588,-5.6061 -1.15321,-0.53938 -3.11143,-1.64121 -4.35161,-2.44851 -4.62586,-3.01123 -4.94896,-3.10062 -7.96718,-2.20431 -1.49813,0.4449 -2.84638,0.68639 -2.99611,0.53666 -0.14973,-0.14973 0.40427,-0.43427 1.23112,-0.63232 2.23501,-0.53531 2.44791,-0.76923 1.40368,-1.54223 -0.60116,-0.44501 -1.81281,-0.61469 -3.30752,-0.46321 l -2.35883,0.23906 2.35883,-0.8372 c 4.78279,-1.69752 6.05501,-1.76042 8.42131,-0.41633 1.19952,0.68134 3.15678,1.38596 4.34945,1.56581 1.9566,0.29505 4.54884,1.77818 6.59235,3.77175 0.83036,0.81006 3.71054,1.9632 4.39805,1.76084 0.71684,-0.21099 5.23465,3.34249 6.64152,5.22388 1.40398,1.87752 4.24876,6.22211 4.05089,6.18656 -0.0657,-0.0118 -1.06304,-0.70979 -2.21624,-1.55108 z"
           id="path12101" /><path
           style="fill:#778c2b;stroke-width:0.524184"
           d="m 635.55375,443.10995 c 0.91705,-0.67657 1.49361,-1.41518 1.28126,-1.64136 -0.21236,-0.22618 0.15387,-0.0854 0.81384,0.31281 1.12969,0.68165 1.13959,0.73356 0.16912,0.88656 -0.56696,0.0894 -1.31273,0.50218 -1.65727,0.91732 -0.34454,0.41515 -0.99721,0.75481 -1.45037,0.75481 -0.50952,0 -0.18767,-0.46942 0.84342,-1.23014 z"
           id="path12099" /><path
           style="fill:#778c2b;stroke-width:0.524184"
           d="m 639.98389,445.25741 c 0.11833,-0.36037 0.90461,-0.72464 1.74728,-0.80946 l 1.53213,-0.15425 -1.50142,0.80948 c -1.81792,0.98009 -2.05595,1.00074 -1.77799,0.15423 z"
           id="path12093" /><path
           style="fill:#778c2b;stroke-width:0.524184"
           d="m 652.04453,463.9968 c 0.006,-1.15321 0.11317,-1.56325 0.23855,-0.91121 0.12538,0.65204 0.12062,1.59557 -0.0106,2.09673 -0.1312,0.50117 -0.23379,-0.0323 -0.22797,-1.18552 z"
           id="path12029" /><path
           style="fill:#778c2b;stroke-width:0.524184"
           d="m 649.85699,466.57404 c 0.0252,-0.61065 0.14936,-0.73486 0.31669,-0.3167 0.15142,0.3784 0.1328,0.83051 -0.0414,1.00469 -0.17418,0.17418 -0.29807,-0.13542 -0.27531,-0.68799 z"
           id="path12025" /><path
           style="fill:#778c2b;stroke-width:0.524184"
           d="m 648.80862,477.58191 c 0.0252,-0.61065 0.14936,-0.73486 0.31669,-0.3167 0.15142,0.37839 0.1328,0.83051 -0.0414,1.00469 -0.17418,0.17418 -0.29807,-0.13542 -0.27531,-0.68799 z"
           id="path12005" /><path
           style="fill:#526028;stroke-width:0.524184"
           d="m 648.63976,487.19708 c -0.79218,-0.60404 -0.80319,-1.1298 -0.12899,-6.16429 1.41472,-10.56419 1.8391,-16.04186 1.83408,-23.67333 l -0.005,-7.6857 -3.27616,-2.30721 c -1.80188,-1.26897 -4.45556,-2.91268 -5.89707,-3.6527 -1.44151,-0.74002 -3.80033,-2.07776 -5.24184,-2.97274 -1.44151,-0.89499 -3.44651,-2.04361 -4.45557,-2.55248 -1.00905,-0.50887 -1.95258,-1.05919 -2.09673,-1.22293 -0.14415,-0.16373 -1.80505,-1.01285 -3.69088,-1.88692 -4.62547,-2.14398 -11.6997,-6.9886 -10.20473,-6.9886 0.49971,0 3.14087,1.43016 5.6128,3.03928 1.24018,0.8073 3.1984,1.90913 4.35161,2.44851 5.03779,2.3563 7.519,3.72324 10.17588,5.6061 1.56051,1.10589 3.02092,2.01072 3.24534,2.01072 0.22443,0 2.61998,1.41529 5.32346,3.1451 2.70348,1.72981 5.19411,3.14511 5.53474,3.14511 0.87828,0 0.80351,-7.67372 -0.13665,-14.02538 -0.41579,-2.80904 -0.91971,-7.40501 -1.11983,-10.21327 -0.20011,-2.80825 -0.62654,-5.30995 -0.94762,-5.55933 -0.32107,-0.24937 -1.65243,-0.71368 -2.95856,-1.03181 -3.88241,-0.9456 -7.58612,-2.75363 -6.73867,-3.28959 0.39959,-0.2527 1.43416,-0.33071 2.29907,-0.17335 0.8649,0.15736 2.63402,0.0711 3.93138,-0.1917 1.29735,-0.26279 4.8356,-0.32746 7.86276,-0.14371 4.9939,0.30312 5.35821,0.39291 3.93138,0.96899 -0.8649,0.3492 -1.92637,0.8795 -2.35883,1.17844 -0.43245,0.29894 -1.45401,0.82976 -2.27015,1.1796 -1.34329,0.5758 -1.46229,0.83473 -1.25608,2.73293 0.1253,1.15328 0.66068,6.63762 1.18974,12.18742 0.52906,5.5498 1.09429,10.08887 1.25607,10.08682 0.16178,-0.002 2.02308,-1.97163 4.13622,-4.37685 3.07531,-3.50038 4.65605,-4.80682 7.92077,-6.54633 3.55865,-1.89613 4.90672,-2.29047 10.57299,-3.09278 3.57186,-0.50576 7.31989,-0.82669 8.32894,-0.71317 1.54389,0.17367 1.12854,0.35996 -2.62092,1.17548 -2.45056,0.533 -5.75292,1.10474 -7.33858,1.27053 -7.53845,0.78818 -14.21008,5.31498 -19.05175,12.92688 l -1.7601,2.76716 -0.366,14.37232 c -0.6466,25.39081 -1.23434,30.01611 -3.58628,28.22278 z"
           id="path12283" /></g></g></g></svg>
