<?xml version="1.0" encoding="UTF-8" standalone="no"?>
<!-- Created with Inkscape (http://www.inkscape.org/) -->

<svg
   width="177.49522mm"
   height="279.43747mm"
   viewBox="0 0 177.49522 279.43747"
   version="1.1"
   id="svg5"
   xml:space="preserve"
   xmlns="http://www.w3.org/2000/svg"
   xmlns:svg="http://www.w3.org/2000/svg"><defs
     id="defs2" /><g
     id="layer1"
     style="display:inline;opacity:1"
     transform="translate(3766.4932,699.15247)"><g
       id="g132996"
       transform="matrix(2.2040458,0,0,2.2040458,-4832.5607,-1217.2772)"><path
         style="fill:#f6f9fb;stroke-width:0.524184"
         d="m 539.47508,285.42601 c 0.91802,0.68202 0.91802,0.68202 0,0 z"
         id="path132844" /><path
         style="fill:#f6f9fb;stroke-width:0.524184"
         d="m 533.04085,282.9234 c 4.74521,10.21473 2.26343,19.8184 0,0 z"
         id="path132846" /><path
         style="fill:#f6f9fb;stroke-width:0.524184"
         d="m 525.16329,282.40044 c 0.95675,5.24473 -4.12256,5.29886 0,0 z"
         id="path132848" /><path
         style="fill:#f6f9fb;stroke-width:0.524184"
         d="m 540.85898,280.92973 c 10.57439,5.23411 7.25495,6.36441 0,0 z"
         id="path132850" /><path
         style="fill:#f6f9fb;stroke-width:0.524184"
         d="m 519.97808,279.20167 c -2.52753,4.62232 -2.10643,1.24788 0,0 z"
         id="path132852" /><path
         style="fill:#f6f9fb;stroke-width:0.524184"
         d="m 512.27312,278.17382 c -16.23513,13.08731 16.19909,20.35254 -2.44042,4.82204 z"
         id="path132854" /><path
         style="fill:#f6f9fb;stroke-width:0.524184"
         d="m 518.69547,277.92526 c -1.54549,4.065 -5.68502,3.08063 0,0 z"
         id="path132856" /><path
         style="fill:#f6f9fb;stroke-width:0.524184"
         d="m 539.08854,277.193 c 2.36669,13.80243 11.66069,6.47762 -5.14126,5.39244 -19.79004,1.59648 8.84957,35.93907 -3.31452,4.67717 -2.68342,10.54413 19.28542,23.26344 9.83293,1.90709 16.90642,12.26664 24.19961,-5.69847 -1.37715,-11.9767 z"
         id="path132858" /><path
         style="fill:#f6f9fb;stroke-width:0.524184"
         d="m 542.7338,274.05634 c 13.43991,-0.78424 12.26082,3.23374 0,0 z"
         id="path132860" /><path
         style="fill:#f6f9fb;stroke-width:0.524184"
         d="m 511.63234,273.64913 c 10.92571,0.72574 -10.29556,0.68382 0,0 z"
         id="path132862" /><path
         style="fill:#f6f9fb;stroke-width:0.524184"
         d="m 549.94059,267.39163 c -0.89383,0.30033 -0.89383,0.30033 0,0 z"
         id="path132864" /><path
         style="fill:#f6f9fb;stroke-width:0.524184"
         d="m 509.74821,262.98727 c 4.47515,0.38912 3.40389,3.96535 0,0 z"
         id="path132866" /><path
         style="fill:#f6f9fb;stroke-width:0.524184"
         d="m 562.7548,261.55378 c -15.44538,-2.33982 -30.18146,16.60058 -5.39366,9.06661 -5.64362,1.2391 -23.11561,4.35703 -7.15101,7.31593 -27.08108,-4.07638 27.59024,15.01565 6.4711,0.61728 9.13187,4.39857 8.29717,-15.25411 6.07357,-16.99982 z"
         id="path132868" /><path
         style="fill:#f6f9fb;stroke-width:0.524184"
         d="m 545.18016,258.66042 c -7.12729,5.93237 -2.50638,1.31538 0,0 z"
         id="path132870" /><path
         style="fill:#f6f9fb;stroke-width:0.524184"
         d="m 557.74787,256.06368 c -20.31493,7.81562 -7.92308,13.16766 1.98302,2.08815 z"
         id="path132872" /><path
         style="fill:#f6f9fb;stroke-width:0.524184"
         d="m 497.60322,255.63368 c -10.2126,7.77073 13.25891,14.44497 -3.06042,19.76115 10.8983,6.62547 29.19127,-6.75821 16.65019,11.90904 15.96807,-7.22923 1.25706,3.72953 13.47442,9.73969 15.73052,-17.2362 -26.93524,-27.1747 -7.69444,-30.92611 -5.03377,-5.55555 -12.2204,-8.70254 -19.36975,-10.48377 z"
         id="path132874" /><path
         style="fill:#f6f9fb;stroke-width:0.524184"
         d="m 548.1531,244.20342 c -8.94436,16.38177 8.13961,-0.6653 -8.84139,17.38053 6.9201,7.37759 31.6371,-12.37658 8.84139,-17.38053 z"
         id="path132876" /><path
         style="fill:#f6f9fb;stroke-width:0.524184"
         d="m 507.54421,242.52911 c -0.33929,14.19693 17.71178,22.11358 -1.33338,6.3678 -22.53191,2.34334 25.77894,23.68834 12.06798,6.15621 -2.17432,-4.94641 -4.55368,-11.39093 -10.7346,-12.52401 z"
         id="path132878" /><path
         style="fill:#f6f9fb;stroke-width:0.524184"
         d="m 532.75715,236.36721 c -14.62635,6.40821 -2.42129,30.73373 -1.20634,16.19104 4.59756,27.68861 24.58961,-30.92682 4.05654,-2.63598 -9.09968,17.22475 17.3127,-21.78909 -2.8502,-13.55506 z"
         id="path132880" /><path
         style="fill:#f6f9fb;stroke-width:0.524184"
         d="m 513.92832,236.29281 c -6.95143,11.02452 13.8978,27.63544 8.91789,18.62522 9.21795,8.26639 -3.28608,-22.17558 -8.91789,-18.62522 z"
         id="path132882" /><path
         style="fill:#f6f9fb;stroke-width:0.524184"
         d="m 526.66449,235.07893 c -13.72872,4.08078 5.02197,17.05362 0,0 z"
         id="path132884" /><path
         style="fill:#f3cb46;stroke-width:0.524184"
         d="m 517.23838,266.8598 c 0.87162,-1.83123 -0.10172,2.6375 0,0 z"
         id="path132886" /><path
         style="fill:#f3cb46;stroke-width:0.524184"
         d="m 518.54275,274.54315 c -3.05398,-5.80896 3.26246,3.09301 0,0 z"
         id="path132888" /><path
         style="fill:#f3cb46;stroke-width:0.524184"
         d="m 521.6279,278.04309 c -3.87393,-4.7599 6.37462,6.11084 0,0 z"
         id="path132890" /><path
         style="fill:#f3cb46;stroke-width:0.524184"
         d="m 525.58394,280.79436 c -0.17695,-2.09311 3.78818,3.81298 0,0 z"
         id="path132892" /><path
         style="fill:#f3cb46;stroke-width:0.524184"
         d="m 530.3016,281.90021 c 26.54217,-6.76504 -32.05554,-19.31592 1.61136,-22.6948 12.81661,2.63758 12.60377,22.79382 -1.61136,22.6948 z"
         id="path132894" /><path
         style="fill:#e7a314;stroke-width:0.524184"
         d="m 526.8944,280.9325 c -13.40467,-8.65824 -10.48751,-22.83358 3.28048,-9.11881 15.99027,-1.2096 6.49049,13.116 -3.28048,9.11881 z"
         id="path132896" /><path
         style="fill:#90a334;stroke-width:0.524184"
         d="m 485.05672,285.47398 c -2.88454,-5.94475 4.75976,4.24704 0,0 z"
         id="path132898" /><path
         style="fill:#90a334;stroke-width:0.524184"
         d="m 485.41796,289.98493 c -1.29191,-4.00195 2.27087,2.49458 0,0 z"
         id="path132900" /><path
         style="fill:#90a334;stroke-width:0.524184"
         d="m 488.94535,289.30592 c -2.36373,-5.30347 5.20588,5.22089 0,0 z"
         id="path132902" /><path
         style="fill:#90a334;stroke-width:0.524184"
         d="m 485.34954,292.5024 c -0.85109,-3.29873 2.83122,2.14698 0,0 z"
         id="path132904" /><path
         style="fill:#90a334;stroke-width:0.524184"
         d="m 485.96205,295.59459 c -7.08354,-6.65362 5.10694,0.42794 0,0 z"
         id="path132906" /><path
         style="fill:#90a334;stroke-width:0.524184"
         d="m 483.88044,298.35458 c 1.6148,-5.83242 6.65695,5.41978 0,0 z"
         id="path132908" /><path
         style="fill:#90a334;stroke-width:0.524184"
         d="m 493.34355,299.66009 c -5.94856,-13.02133 7.1496,-8.55952 0,0 z"
         id="path132910" /><path
         style="fill:#90a334;stroke-width:0.524184"
         d="m 494.46413,302.01506 c 1.01412,-14.06654 5.06372,-2.29605 0,0 z"
         id="path132912" /><path
         style="fill:#90a334;stroke-width:0.524184"
         d="m 495.82941,303.72747 c 0.27108,-9.93824 7.5403,-0.43103 0,0 z"
         id="path132914" /><path
         style="fill:#90a334;stroke-width:0.524184"
         d="m 496.60971,307.03338 c 0.98386,-9.34836 5.09512,1.49193 0,0 z"
         id="path132916" /><path
         style="fill:#90a334;stroke-width:0.524184"
         d="m 488.62358,308.08214 c -9.40933,-13.52181 5.87303,-2.16655 0,0 z"
         id="path132918" /><path
         style="fill:#90a334;stroke-width:0.524184"
         d="m 489.93942,310.95064 c -5.68695,-3.60616 6.59122,0.58175 0,0 z"
         id="path132920" /><path
         style="fill:#90a334;stroke-width:0.524184"
         d="m 550.92563,312.85939 c 10.53314,-11.10097 11.34008,3.6712 0,0 z"
         id="path132922" /><path
         style="fill:#90a334;stroke-width:0.524184"
         d="m 491.33724,313.46853 c -1.90944,-3.51594 2.94624,1.16261 0,0 z"
         id="path132924" /><path
         style="fill:#90a334;stroke-width:0.524184"
         d="m 557.035,313.03169 c 3.98197,-4.09422 -1.71935,2.7628 0,0 z"
         id="path132926" /><path
         style="fill:#90a334;stroke-width:0.524184"
         d="m 498.08809,311.46827 c 0.3353,-9.99229 2.50266,7.31916 0,0 z"
         id="path132928" /><path
         style="fill:#90a334;stroke-width:0.524184"
         d="m 543.93039,314.89301 c 3.66421,-11.87872 10.86955,5.27384 0,0 z"
         id="path132930" /><path
         style="fill:#90a334;stroke-width:0.524184"
         d="m 537.9413,314.99738 c 9.57098,-12.41849 3.28398,8.85629 0,0 z"
         id="path132932" /><path
         style="fill:#90a334;stroke-width:0.524184"
         d="m 532.92252,315.12842 c 12.67208,-11.11701 1.53442,6.52329 0,0 z"
         id="path132934" /><path
         style="fill:#90a334;stroke-width:0.524184"
         d="m 528.33591,316.14582 c 5.87714,-10.26153 8.125,0.68204 0,0 z"
         id="path132936" /><path
         style="fill:#90a334;stroke-width:0.524184"
         d="m 523.48721,316.26816 c 3.35715,-9.06771 8.19737,2.65695 0,0 z"
         id="path132938" /><path
         style="fill:#90a334;stroke-width:0.524184"
         d="m 552.40955,317.74007 c -1.34985,-5.69738 8.3152,1.09944 0,0 z"
         id="path132940" /><path
         style="fill:#90a334;stroke-width:0.524184"
         d="m 502.03978,312.63855 c 0.74299,-4.10569 -3.59936,7.85836 0,0 z"
         id="path132942" /><path
         style="fill:#90a334;stroke-width:0.524184"
         d="m 500.13652,317.77177 c -3.434,-23.25727 10.98043,-0.87831 0,0 z"
         id="path132944" /><path
         style="fill:#90a334;stroke-width:0.524184"
         d="m 492.60243,318.92876 c -9.66234,-11.82091 7.33483,2.32358 0,0 z"
         id="path132946" /><path
         style="fill:#90a334;stroke-width:0.524184"
         d="m 502.59537,322.34614 c -2.45034,-9.44385 8.09348,-3.42821 0,0 z"
         id="path132948" /><path
         style="fill:#90a334;stroke-width:0.524184"
         d="m 546.66969,322.72716 c -7.12714,-5.20818 17.07447,-2.9566 0,0 z"
         id="path132950" /><path
         style="fill:#90a334;stroke-width:0.524184"
         d="m 524.47085,322.90039 c -6.59125,-4.11046 4.36656,-0.33049 0,0 z"
         id="path132952" /><path
         style="fill:#90a334;stroke-width:0.524184"
         d="m 535.69862,322.96902 c -0.91071,-5.83045 4.82705,6.83989 0,0 z"
         id="path132954" /><path
         style="fill:#90a334;stroke-width:0.524184"
         d="m 541.02769,324.71192 c -7.26733,-5.54218 0.70287,-2.36816 4.02952,0.14348 z"
         id="path132956" /><path
         style="fill:#90a334;stroke-width:0.524184"
         d="m 527.79602,325.48112 c -5.55234,-9.68744 18.18388,1.22845 0,0 z"
         id="path132958" /><path
         style="fill:#90a334;stroke-width:0.524184"
         d="m 504.32719,325.16587 c -1.44592,-7.61015 4.44053,0.79792 0,0 z"
         id="path132960" /><path
         style="fill:#90a334;stroke-width:0.524184"
         d="m 499.11264,327.24086 c -15.29999,-11.67639 5.86803,-2.68171 0,0 z"
         id="path132962" /><path
         style="fill:#778c2b;stroke-width:0.524184"
         d="m 493.40754,300.42104 c 0.6891,-14.85527 5.26758,0.43017 0,0 z"
         id="path132964" /><path
         style="fill:#778c2b;stroke-width:0.524184"
         d="m 517.23838,301.45597 c 0.87162,-1.83124 -0.10172,2.63751 0,0 z"
         id="path132966" /><path
         style="fill:#778c2b;stroke-width:0.524184"
         d="m 495.54322,304.4994 c -4.68348,-14.74128 7.14117,3.40944 0,0 z"
         id="path132968" /><path
         style="fill:#778c2b;stroke-width:0.524184"
         d="m 501.05526,313.42481 c 3.08229,-6.76133 -0.75796,4.4001 0,0 z"
         id="path132970" /><path
         style="fill:#778c2b;stroke-width:0.524184"
         d="m 542.88202,315.4152 c -1.24532,-8.21486 4.57282,1.70166 0,0 z"
         id="path132972" /><path
         style="fill:#778c2b;stroke-width:0.524184"
         d="m 536.69314,315.5053 c 5.53121,-11.84593 3.44985,1.40034 0,0 z"
         id="path132974" /><path
         style="fill:#778c2b;stroke-width:0.524184"
         d="m 531.88687,315.11491 c 7.30084,-6.86712 -1.02463,3.64541 0,0 z"
         id="path132976" /><path
         style="fill:#778c2b;stroke-width:0.524184"
         d="m 498.64682,315.61569 c -2.71743,-8.71542 4.9662,-17.20057 0,0 z"
         id="path132978" /><path
         style="fill:#778c2b;stroke-width:0.524184"
         d="m 526.63231,316.32658 c 2.30362,-4.68488 3.84746,1.92627 0,0 z"
         id="path132980" /><path
         style="fill:#778c2b;stroke-width:0.524184"
         d="m 500.92274,319.81654 c 2.26274,-10.9693 5.02656,1.61963 0,0 z"
         id="path132982" /><path
         style="fill:#778c2b;stroke-width:0.524184"
         d="m 517.98327,322.20497 c 3.44814,-3.25016 -2.19991,3.11307 0,0 z"
         id="path132984" /><path
         style="fill:#778c2b;stroke-width:0.524184"
         d="m 525.9334,324.47643 c -1.96226,-9.94464 33.63788,-13.19112 30.51544,-10.74269 -11.17996,15.70315 -21.97578,3.38479 -30.51544,10.74269 z"
         id="path132986" /><path
         style="fill:#778c2b;stroke-width:0.524184"
         d="m 503.08662,323.65093 c 0.71678,-5.66306 5.71474,-2.50152 0,0 z"
         id="path132988" /><path
         style="fill:#778c2b;stroke-width:0.524184"
         d="m 492.22571,313.03174 c -2.7126,-4.86593 -0.5859,3.39391 0,0 z"
         id="path132990" /><path
         style="fill:#778c2b;stroke-width:0.524184"
         d="m 502.14497,327.72136 c -11.4697,-8.83931 -13.97217,-24.48404 -14.41643,-29.20568 -5.38001,-34.02683 11.18864,20.03061 14.41643,29.20568 z"
         id="path132992" /><path
         style="fill:#526028;stroke-width:0.524184"
         d="m 506.99882,361.86281 c 11.41792,-19.81543 -19.32307,-57.14581 -14.01807,-63.03009 4.36254,15.5214 20.92681,55.83535 21.95686,17.22104 0.99463,-19.22303 8.89586,-29.65178 2.83388,-3.02195 -2.76284,12.25388 51.93775,-3.95945 20.66288,5.0763 -32.60356,-7.15299 -19.79576,30.31764 -31.43555,43.7547 z"
         id="path132994" /></g></g></svg>
