<?xml version="1.0" encoding="UTF-8" standalone="no"?>
<!-- Created with Inkscape (http://www.inkscape.org/) -->

<svg
   width="155.32005mm"
   height="241.44804mm"
   viewBox="0 0 155.32005 241.44804"
   version="1.1"
   id="svg5"
   xml:space="preserve"
   xmlns="http://www.w3.org/2000/svg"
   xmlns:svg="http://www.w3.org/2000/svg"><defs
     id="defs2" /><g
     id="layer1"
     style="display:inline;opacity:1"
     transform="translate(2912.8912,660.65552)"><g
       id="g132842"
       transform="matrix(2.2040458,0,0,2.2040458,-3402.0636,-1456.982)"><path
         style="fill:#f6f9fb;stroke-width:0.524184"
         d="m 254.41788,407.12396 c -4.31214,0.495 -12.40427,15.40584 1.96961,9.28691 1.4124,-3.1432 0.22753,-6.85304 -1.96961,-9.28691 z"
         id="path132708" /><path
         style="fill:#f6f9fb;stroke-width:0.524184"
         d="m 265.70453,406.64957 c 11.65719,16.37065 -7.28824,-7.40198 3.66699,13.27522 13.43524,0.86654 6.51773,-13.80139 -3.66699,-13.27522 z"
         id="path132710" /><path
         style="fill:#f6f9fb;stroke-width:0.524184"
         d="m 253.49545,405.95555 c -2.32826,0.60851 0.95622,2.08715 0,0 z"
         id="path132712" /><path
         style="fill:#f6f9fb;stroke-width:0.524184"
         d="m 260.28884,405.87185 c 3.80178,4.91741 -0.29821,4.79303 0,0 z"
         id="path132714" /><path
         style="fill:#f6f9fb;stroke-width:0.524184"
         d="m 257.88537,405.83565 c 3.59467,6.05907 -0.73758,4.147 0,0 z"
         id="path132716" /><path
         style="fill:#f6f9fb;stroke-width:0.524184"
         d="m 285.03823,404.76647 c -23.95852,4.79079 13.66871,12.723 0,0 z"
         id="path132718" /><path
         style="fill:#f6f9fb;stroke-width:0.524184"
         d="m 260.8087,404.28487 c -16.73962,8.91717 20.07438,24.17325 0,0 z"
         id="path132720" /><path
         style="fill:#f6f9fb;stroke-width:0.524184"
         d="m 271.62148,403.72422 c 1.44237,1.03582 -2.69646,-0.28951 0,0 z"
         id="path132722" /><path
         style="fill:#f6f9fb;stroke-width:0.524184"
         d="m 264.62087,402.14447 c 4.88375,0.346 0.45663,2.46925 0,0 z"
         id="path132724" /><path
         style="fill:#f6f9fb;stroke-width:0.524184"
         d="m 247.1377,400.82676 c -14.34197,14.24837 14.43919,8.44617 0,0 z"
         id="path132726" /><path
         style="fill:#f6f9fb;stroke-width:0.524184"
         d="m 286.52083,400.02371 c -19.31254,-4.41708 -31.08417,11.50725 -5.21212,5.30513 0.0812,1.8647 10.17948,-3.51515 5.21212,-5.30513 z"
         id="path132728" /><path
         style="fill:#f6f9fb;stroke-width:0.524184"
         d="m 274.24251,396.38527 c 1.44191,1.03651 -2.69803,-0.29099 0,0 z"
         id="path132730" /><path
         style="fill:#f6f9fb;stroke-width:0.524184"
         d="m 282.89418,390.93547 c -40.60231,-0.55182 8.7877,21.74995 0,0 z"
         id="path132732" /><path
         style="fill:#f6f9fb;stroke-width:0.524184"
         d="m 268.84697,389.82081 c -1.50795,3.10569 -2.4824,-0.0797 0,0 z"
         id="path132734" /><path
         style="fill:#f6f9fb;stroke-width:0.524184"
         d="m 228.27735,389.5061 c -4.87844,3.83656 1.47596,9.98808 -2.86075,16.92626 13.36349,-4.09158 20.58987,-17.50257 8.93091,-1.01708 20.04418,-5.77048 1.37754,-9.80955 -6.07015,-15.90918 z"
         id="path132736" /><path
         style="fill:#f6f9fb;stroke-width:0.524184"
         d="m 287.67786,386.36107 c -12.52764,7.25239 15.31638,9.64577 0,0 z"
         id="path132738" /><path
         style="fill:#f6f9fb;stroke-width:0.524184"
         d="m 233.95298,385.90581 c 7.2026,4.38988 10.0433,10.80807 0,0 z"
         id="path132740" /><path
         style="fill:#f6f9fb;stroke-width:0.524184"
         d="m 236.81792,382.69258 c 11.85093,9.91552 0.95352,2.50857 0,0 z"
         id="path132742" /><path
         style="fill:#f6f9fb;stroke-width:0.524184"
         d="m 244.53683,381.86317 c 3.15891,3.14016 -0.0659,3.26267 0,0 z"
         id="path132744" /><path
         style="fill:#f6f9fb;stroke-width:0.524184"
         d="m 286.74355,379.12486 c -18.21502,-1.37081 -28.48855,23.50355 -3.97813,9.32395 2.68707,-0.12468 8.82406,-7.3786 3.97813,-9.32395 z"
         id="path132746" /><path
         style="fill:#f6f9fb;stroke-width:0.524184"
         d="m 230.01988,375.87752 c -10.60954,18.87938 29.08226,23.50781 7.87061,4.23656 l -4.71906,-2.59493 z"
         id="path132748" /><path
         style="fill:#f6f9fb;stroke-width:0.524184"
         d="m 224.97368,373.49622 c -11.00867,7.67969 12.465,3.81831 0,0 z"
         id="path132750" /><path
         style="fill:#f6f9fb;stroke-width:0.524184"
         d="m 247.14029,373.27711 c 5.15558,10.2955 1.71964,14.46428 0,0 z"
         id="path132752" /><path
         style="fill:#f6f9fb;stroke-width:0.524184"
         d="m 266.56597,364.52162 c 4.46077,2.76425 -12.18324,29.1419 1.69109,14.77348 -20.36281,23.55652 34.82391,-13.19218 6.46589,-1.84973 3.7831,-6.80749 -0.1377,-13.71131 -8.15698,-12.92375 z"
         id="path132754" /><path
         style="fill:#f6f9fb;stroke-width:0.524184"
         d="m 239.19038,362.85144 c -5.57335,11.85672 7.58941,13.12286 -8.40705,7.46501 -2.55509,10.1403 28.40737,25.97635 13.29334,2.10982 -0.26662,-3.44859 -1.26805,-7.9983 -4.88629,-9.57483 z"
         id="path132756" /><path
         style="fill:#f6f9fb;stroke-width:0.524184"
         d="m 245.72022,361.95124 c -7.39875,17.07911 12.59428,33.92098 6.66311,6.09029 1.19699,-3.76671 -3.34534,-6.71512 -6.66311,-6.09029 z"
         id="path132758" /><path
         style="fill:#f6f9fb;stroke-width:0.524184"
         d="m 258.71581,361.33215 c -18.06579,12.83073 8.79247,37.62855 5.32356,6.56433 0.4601,-3.05141 -1.91243,-6.9768 -5.32356,-6.56433 z"
         id="path132760" /><path
         style="fill:#f3cb46;stroke-width:0.524184"
         d="m 243.40038,393.39365 c 0.87155,-1.83134 -0.1016,2.6375 0,0 z"
         id="path132762" /><path
         style="fill:#f3cb46;stroke-width:0.524184"
         d="m 243.92457,395.49039 c 0.87155,-1.83128 -0.10171,2.63753 0,0 z"
         id="path132764" /><path
         style="fill:#f3cb46;stroke-width:0.524184"
         d="m 245.38888,398.54813 c -0.29413,-1.98796 2.23983,3.48924 0,0 z"
         id="path132766" /><path
         style="fill:#f3cb46;stroke-width:0.524184"
         d="m 257.37001,389.18925 c -0.3363,0.0339 -0.3363,0.0339 0,0 z"
         id="path132768" /><path
         style="fill:#f3cb46;stroke-width:0.524184"
         d="m 253.59474,389.00465 c -2.20906,-1.63393 -1.14923,2.03929 0,0 z"
         id="path132770" /><path
         style="fill:#f3cb46;stroke-width:0.524184"
         d="m 249.85558,391.82098 c -1.07964,-2.3866 -1.05597,3.26418 0,0 z"
         id="path132772" /><path
         style="fill:#f3cb46;stroke-width:0.524184"
         d="m 262.75382,392.48033 c -1.87371,-7.18743 -4.024,2.07206 0,0 z"
         id="path132774" /><path
         style="fill:#f3cb46;stroke-width:0.524184"
         d="m 263.55382,402.06416 c 4.44229,-2.92107 -34.04711,-12.73262 -8.20439,-16.59862 7.20407,-0.28955 17.174,12.31044 8.20439,16.59862 z"
         id="path132776" /><path
         style="fill:#f3cb46;stroke-width:0.524184"
         d="m 248.66076,401.79731 c -4.35741,-4.65983 7.83342,5.95608 0,0 z"
         id="path132778" /><path
         style="fill:#f3cb46;stroke-width:0.524184"
         d="m 261.18127,403.98519 c 0.42217,-0.36308 0.42217,-0.36308 0,0 z"
         id="path132780" /><path
         style="fill:#e7a314;stroke-width:0.524184"
         d="m 256.36532,389.14792 c 1.91269,-1.68672 0.46142,1.4367 0,0 z"
         id="path132782" /><path
         style="fill:#e7a314;stroke-width:0.524184"
         d="m 251.74595,389.29999 c 1.33074,-2.0467 2.51091,1.86215 0,0 z"
         id="path132784" /><path
         style="fill:#e7a314;stroke-width:0.524184"
         d="m 248.60084,392.183 c 0.562,-2.95167 1.85631,1.37375 0,0 z"
         id="path132786" /><path
         style="fill:#e7a314;stroke-width:0.524184"
         d="m 260.99483,391.59493 c -3.32462,-4.45838 4.52779,3.198 0,0 z"
         id="path132788" /><path
         style="fill:#e7a314;stroke-width:0.524184"
         d="m 255.17342,404.84273 c -16.31368,-8.62288 -10.9736,-20.3305 1.32306,-6.87177 16.51262,-3.62123 7.32141,7.70878 -1.32306,6.87177 z"
         id="path132790" /><path
         style="fill:#90a334;stroke-width:0.524184"
         d="m 282.67282,430.68978 c 3.67412,-5.06203 5.22837,5.09007 0,0 z"
         id="path132792" /><path
         style="fill:#90a334;stroke-width:0.524184"
         d="m 279.29156,430.95851 c -9.5656,-3.2632 10.67979,-5.19185 0,0 z"
         id="path132794" /><path
         style="fill:#90a334;stroke-width:0.524184"
         d="m 272.20211,430.62032 c 1.10768,-10.60855 5.51314,2.96471 0,0 z"
         id="path132796" /><path
         style="fill:#90a334;stroke-width:0.524184"
         d="m 268.71823,430.84195 c 3.14963,-9.22784 2.82528,5.22542 0,0 z"
         id="path132798" /><path
         style="fill:#90a334;stroke-width:0.524184"
         d="m 263.03545,433.1404 c 3.65002,-9.19405 6.20155,3.33247 0,0 z"
         id="path132800" /><path
         style="fill:#90a334;stroke-width:0.524184"
         d="m 260.65708,432.73425 c 2.23855,-7.16951 2.34411,5.08478 0,0 z"
         id="path132802" /><path
         style="fill:#90a334;stroke-width:0.524184"
         d="m 281.3315,435.92828 c 5.09528,-6.78559 13.45033,1.34612 0,0 z"
         id="path132804" /><path
         style="fill:#90a334;stroke-width:0.524184"
         d="m 255.41524,438.55231 c 3.66529,-9.64519 5.81557,-2.3319 0,0 z"
         id="path132806" /><path
         style="fill:#90a334;stroke-width:0.524184"
         d="m 274.9024,438.17603 c -0.60848,-8.01373 12.27119,3.4511 0,0 z"
         id="path132808" /><path
         style="fill:#90a334;stroke-width:0.524184"
         d="m 267.73357,441.01261 c -6.86667,-8.08895 18.44475,-1.5238 0,0 z"
         id="path132810" /><path
         style="fill:#90a334;stroke-width:0.524184"
         d="m 263.16013,441.63151 c -6.45469,-7.14926 10.54471,2.28902 0,0 z"
         id="path132812" /><path
         style="fill:#90a334;stroke-width:0.524184"
         d="m 258.43485,442.47125 c -7.36897,-7.90897 16.67224,3.82885 0,0 z"
         id="path132814" /><path
         style="fill:#778c2b;stroke-width:0.524184"
         d="m 250.78034,422.00538 c 0.37458,-3.46727 0.3992,2.76865 0,0 z"
         id="path132816" /><path
         style="fill:#778c2b;stroke-width:0.524184"
         d="m 276.51365,431.05689 c -5.17659,-4.48878 11.06687,-0.86434 0,0 z"
         id="path132818" /><path
         style="fill:#778c2b;stroke-width:0.524184"
         d="m 270.65181,431.40544 c 3.06081,-12.01557 1.69116,4.32271 0,0 z"
         id="path132820" /><path
         style="fill:#778c2b;stroke-width:0.524184"
         d="m 264.689,432.67128 c 6.25555,-7.99009 1.95696,3.53224 0,0 z"
         id="path132822" /><path
         style="fill:#778c2b;stroke-width:0.524184"
         d="m 262.64129,431.89391 c 2.73506,-3.80065 -1.6979,5.39807 0,0 z"
         id="path132824" /><path
         style="fill:#778c2b;stroke-width:0.524184"
         d="m 258.56938,435.95328 c 4.07606,-11.26833 1.59067,4.26917 0,0 z"
         id="path132826" /><path
         style="fill:#778c2b;stroke-width:0.524184"
         d="m 251.87814,439.56559 c 0.56679,-3.44084 0.005,4.6381 0,0 z"
         id="path132828" /><path
         style="fill:#778c2b;stroke-width:0.524184"
         d="m 261.8251,441.80376 c -14.96348,-9.41598 44.53198,-12.8787 14.84291,-5.02107 -1.36153,0.36523 -16.94318,0.94506 -14.84291,5.02107 z"
         id="path132830" /><path
         style="fill:#778c2b;stroke-width:0.524184"
         d="m 249.16641,443.1912 c 0.87156,-1.83133 -0.10161,2.63751 0,0 z"
         id="path132832" /><path
         style="fill:#778c2b;stroke-width:0.524184"
         d="m 249.6906,450.52978 c 0.87162,-1.83124 -0.10172,2.63751 0,0 z"
         id="path132834" /><path
         style="fill:#778c2b;stroke-width:0.524184"
         d="m 254.40825,465.73112 c 0.87164,-1.83125 -0.10172,2.63752 0,0 z"
         id="path132836" /><path
         style="fill:#778c2b;stroke-width:0.524184"
         d="m 251.78733,468.87623 c 0.87163,-1.83123 -0.10173,2.63752 0,0 z"
         id="path132838" /><path
         style="fill:#526028;stroke-width:0.524184"
         d="m 252.59109,470.8498 c -4.72508,-14.30317 -3.57363,-75.57494 -0.96991,-32.82178 -0.27775,2.69307 47.65555,-13.91597 14.64947,-3.33208 -21.11575,3.02188 -7.91052,26.63505 -13.67956,36.15386 z"
         id="path132840" /></g></g></svg>
