<?xml version="1.0" encoding="UTF-8" standalone="no"?>
<!-- Created with Inkscape (http://www.inkscape.org/) -->

<svg
   width="210.2038mm"
   height="276.5444mm"
   viewBox="0 0 210.2038 276.5444"
   version="1.1"
   id="svg5"
   xml:space="preserve"
   xmlns="http://www.w3.org/2000/svg"
   xmlns:svg="http://www.w3.org/2000/svg"><defs
     id="defs2" /><g
     id="layer1"
     style="display:inline;opacity:1"
     transform="translate(2761.9181,14.591624)"><g
       id="g141707"><g
         id="g141550"><path
           style="fill:#f6f9fb;stroke-width:1.15533"
           d="m -2686.586,122.35532 c 0.037,0.0154 0.06,0.0661 0.066,0.15715 0.027,0.40717 -0.9801,3.00689 -2.237,5.77687 -1.2569,2.76993 -2.2752,4.25614 -2.262,3.303 0.022,-1.59035 3.8729,-9.46108 4.4329,-9.23707 z"
           id="path10491" /><path
           style="fill:#f6f9fb;stroke-width:1.15533"
           d="m -2670.7896,112.45653 c 0.051,-0.011 0.089,0.0176 0.1139,0.0945 0.2074,0.62364 -0.6376,3.733 -1.8781,6.91013 -1.2406,3.17715 -2.2799,5.21991 -2.3099,4.53881 -0.085,-1.94227 3.316,-11.37325 4.0741,-11.54349 z"
           id="path10483" /><path
           style="fill:#f6f9fb;stroke-width:1.15533"
           d="m -2678.8615,109.64099 c -1.0227,0 -2.8236,2.45223 -4.2689,5.81218 -1.3751,3.19649 -2.7311,5.57999 -3.0137,5.29736 -0.2826,-0.28262 0.09,-1.64197 0.828,-3.02168 1.8533,-3.4628 0.7175,-4.10065 -2.7757,-1.55813 -3.2025,2.33098 -8.9621,15.86488 -11.7257,27.55289 -2.9428,12.44605 -1.6736,24.83825 3.024,29.53582 2.8751,2.87507 3.5964,2.81677 6.753,-0.5433 2.5236,-2.68622 2.5441,-2.87993 0.6093,-5.83267 -5.2683,-8.04049 0.7632,-36.73532 11.8499,-56.3757 0.2689,-0.47656 -0.3072,-0.86677 -1.2802,-0.86677 z"
           id="path10479" /><path
           style="fill:#f6f9fb;stroke-width:1.15533"
           d="m -2659.032,106.75257 0.03,6.35433 v 0 c 0.018,3.49485 -0.3654,9.21379 -0.8486,12.70864 l -0.8781,6.35433 -0.077,-7.50925 c -0.042,-4.13027 0.3398,-9.8492 0.8486,-12.70864 z"
           id="path10477" /><path
           style="fill:#f6f9fb;stroke-width:1.15533"
           d="m -2703.223,106.20471 -6.3532,1.84856 c -15.0895,4.38973 -29.1812,12.11418 -35.7523,19.5983 -4.0696,4.63505 -4.1933,5.32004 -1.6641,9.18012 1.5543,2.37208 2.7915,2.84743 7.4113,2.84743 5.3816,0 5.7423,-0.22312 12.1631,-7.53658 3.6394,-4.14537 6.2959,-7.85809 5.9033,-8.25071 -0.3926,-0.39261 -3.8459,0.64488 -7.6744,2.30527 -10.2443,4.44283 -8.47,2.62835 2.5707,-2.62874 5.9231,-2.82034 12.1561,-6.96626 16.4638,-10.95122 z"
           id="path10475" /><path
           style="fill:#f6f9fb;stroke-width:1.15533"
           d="m -2665.4832,105.31291 c -0.9614,0.0511 -2.22,0.18911 -3.5444,0.40092 -4.7215,0.75499 -4.9101,0.96565 -9.5719,10.72455 -6.6821,13.98807 -10.1885,25.73369 -10.9786,36.774 -0.5526,7.72145 -0.3206,10.03744 1.246,12.42846 1.7169,2.62023 2.4536,2.86032 6.8031,2.21531 2.6828,-0.39788 5.4789,-1.47372 6.2131,-2.39071 0.7342,-0.91699 1.9198,-6.18341 2.6344,-11.70408 0.7147,-5.52067 1.8297,-14.04876 2.4773,-18.95021 0.6477,-4.90144 2.48,-13.40679 4.073,-18.90125 1.5928,-5.49447 2.6764,-10.20994 2.4078,-10.47855 -0.1343,-0.13422 -0.7983,-0.16949 -1.7598,-0.11835 z"
           id="path10473" /><path
           style="fill:#f6f9fb;stroke-width:1.15533"
           d="m -2687.1942,98.7432 c -3.3843,-0.118798 -6.1181,1.70538 -15.768,9.61292 -7.0721,5.79526 -28.2237,29.33261 -31.7033,35.27968 -2.198,3.75662 -1.7572,7.11263 1.1151,8.49787 1.4297,0.68954 2.9004,1.28847 3.2677,1.33145 0.3673,0.043 8.6849,-7.85652 18.4844,-17.55496 9.7995,-9.69849 22.1301,-20.74113 27.4014,-24.53917 8.2257,-5.92665 9.2708,-7.04558 7.3714,-7.89308 -1.5886,-0.70882 -3.4783,-0.19109 -6.696,1.83604 -2.4656,1.55321 -6.3023,3.70764 -8.5264,4.78709 -6.2456,3.03138 -0.9122,-1.03546 6.0286,-4.59691 6.1785,-3.17021 6.3821,-5.678656 0.5365,-6.603738 -0.5321,-0.08419 -1.028,-0.140177 -1.5114,-0.157148 z"
           id="path10461" /><path
           style="fill:#f6f9fb;stroke-width:1.15533"
           d="m -2619.1133,98.219386 c -1.3151,-0.04055 -2.8903,0.01984 -4.9739,0.10359 l -8.4375,0.342818 11.6927,7.270066 c 6.431,3.99847 12.0033,7.7736 12.384,8.38966 0.3808,0.61605 -4.4816,-2.00562 -10.8054,-5.82585 -6.3238,-3.8202 -12.0414,-6.94543 -12.7064,-6.94543 -2.6048,0 11.142,19.62218 16.6985,23.83526 3.0904,2.34325 7.4269,5.73735 9.6368,7.54229 4.5826,3.74275 4.5776,3.74176 10.5469,1.95333 3.527,-1.05671 4.7,-2.13598 5.7359,-5.27459 2.9295,-8.87675 -1.3512,-15.03556 -18.2657,-26.28292 -5.9577,-3.961591 -7.5606,-4.98634 -11.5059,-5.10829 z"
           id="path10457" /><path
           style="fill:#f6f9fb;stroke-width:1.15533"
           d="m -2640.0169,95.788809 -2.6435,2.140128 -2.6424,2.141253 4.0638,5.07413 c 6.6802,8.33945 10.8812,14.24964 9.5617,13.45125 -0.6815,-0.41233 -4.3138,-4.67489 -8.0719,-9.47281 -3.7583,-4.79795 -7.4891,-8.72454 -8.2917,-8.72454 -2.1179,0 -1.9673,0.44502 3.6663,10.79859 5.0834,9.34233 7.9599,15.77477 7.0548,15.77477 -0.2588,0 -2.3782,-3.76914 -4.7096,-8.37601 -6.7156,-13.26961 -8.7453,-16.23009 -10.1597,-14.81575 -0.682,0.68195 -2.3365,1.24035 -3.6766,1.24035 -4.4131,0 -6.4463,2.81917 -9.1892,12.74397 -4.1319,14.95136 -7.915,45.80276 -6.4261,52.4041 1.1281,5.00133 1.9091,6.01753 5.2279,6.80651 1.2709,0.30211 4.8445,0.49716 7.9409,0.43281 7.296,-0.15164 8.3213,-1.75273 10.5344,-16.43652 2.7412,-18.1873 2.3576,-28.07348 -1.3862,-35.70678 -1.7209,-3.50893 -3.5159,-6.38051 -3.9886,-6.38051 -0.4728,0 -1.0432,3.24964 -1.2688,7.22107 -0.3234,5.69256 -0.4613,4.89752 -0.6493,-3.75519 -0.1311,-6.03657 -0.5016,-12.27501 -0.8234,-13.86358 -0.3553,-1.75345 0.053,-1.2999 1.0398,1.15492 3.5842,8.91594 11.2476,23.66125 13.5971,26.1622 1.3716,1.46003 4.2145,3.22199 6.3167,3.9158 3.3241,1.09704 4.3187,0.91261 7.6289,-1.41121 5.0487,-3.54435 5.5007,-4.28369 5.5206,-9.02634 0.022,-5.24862 -5.1283,-15.90278 -12.4228,-25.69977 z"
           id="path10449" /><path
           style="fill:#f6f9fb;stroke-width:1.15533"
           d="m -2726.3293,76.777305 c -12.155,-0.05444 -14.4509,0.251966 -18.6256,2.485238 -2.619,1.401001 -5.0298,3.570466 -5.3566,4.820115 -0.3268,1.249672 -2.6378,3.314577 -5.1357,4.588934 -8.043,4.10325 -8.3631,5.597813 -2.2096,10.32364 4.0899,3.140938 9.1266,3.268248 25.98,0.657181 7.1873,-1.113506 19.973,-1.951793 30.8331,-2.021661 18.467,-0.118798 18.5514,-0.131582 18.0721,-2.662928 -0.5751,-3.037087 -5.8795,-4.342742 -24.4959,-6.030865 l -12.13,-1.100238 15.597,0.503427 c 8.5783,0.27685 17.286,0.823541 19.3512,1.214142 6.4149,1.213328 4.4508,-2.186259 -2.8884,-4.998952 -15.2941,-5.861373 -24.5783,-7.713455 -38.9916,-7.778033 z"
           id="path10403" /><path
           style="fill:#f6f9fb;stroke-width:1.15533"
           d="m -2605.4787,73.09408 c -2.7984,0.09543 -6.0275,1.161752 -12.7644,3.939709 -6.0018,2.474813 -11.1394,5.178494 -11.416,6.008075 -0.3677,1.103455 0.3139,1.304178 2.5377,0.746025 1.6718,-0.419606 5.5085,-0.99625 8.5263,-1.281344 4.1354,-0.390623 3.4949,-0.106235 -2.6002,1.15492 -12.1279,2.509351 -13.2862,2.84031 -13.2862,3.799599 0,0.485309 3.7692,0.779373 8.376,0.65264 l 8.376,-0.231204 -8.3327,0.841703 c -5.5948,0.564764 -9.1159,1.548937 -10.7143,2.995496 -3.0267,2.7391 -1.9076,3.798894 4.606,4.361124 18.2271,1.573292 40.9224,-1.170018 49.1011,-5.934063 2.9761,-1.733592 3.4723,-2.712299 3.5058,-6.924936 0.05,-6.297113 -1.4905,-7.485292 -10.9034,-8.413592 -4.1917,-0.413391 -9.7011,-1.09411 -12.2428,-1.512548 -0.9511,-0.156488 -1.8361,-0.233387 -2.7689,-0.201671 z"
           id="path10397" /><path
           style="fill:#f6f9fb;stroke-width:1.15533"
           d="m -2583.7015,61.585897 c -4.8384,0.154944 -9.4751,0.726321 -10.9763,1.621891 -3.0065,1.793652 -8.8603,7.286906 -8.3304,7.816781 0.3129,0.312974 4.4583,1.00564 9.212,1.538754 4.7537,0.533115 10.1516,1.760019 11.9956,2.726691 4.389,2.300826 6.0081,2.288175 10.8624,-0.08552 3.6143,-1.76727 4.0434,-2.466768 4.0434,-6.583242 0,-4.344461 -0.2614,-4.693031 -4.6209,-6.155018 -2.3068,-0.773598 -7.3475,-1.035373 -12.1858,-0.880428 z"
           id="path10387" /><path
           style="fill:#f6f9fb;stroke-width:1.15533"
           d="m -2574.1159,51.875025 c -7.829,0 -8.877,0.2938 -13.0652,3.65951 -2.5045,2.012646 -4.5536,3.962455 -4.5536,4.332669 0,0.370214 5.1732,0.673116 11.4957,0.673116 7.656,0 11.978,0.482399 12.9398,1.444223 2.5238,2.523852 4.1244,1.572741 4.8612,-2.888424 0.9831,-5.953944 -1.0662,-7.221094 -11.6779,-7.221094 z"
           id="path10377" /><path
           style="fill:#f6f9fb;stroke-width:1.15533"
           d="m -2733.8818,48.531003 c -2.6795,-0.0897 -4.7622,0.395472 -5.3885,1.482948 -0.5082,0.882302 -1.9627,1.795614 -3.2336,2.030786 -1.7999,0.333075 -2.3891,1.493549 -2.6629,5.250654 -0.3404,4.671497 -0.1162,5.017687 7.1436,11.005881 7.287,6.010609 7.7152,6.19112 15.3716,6.465965 4.3315,0.155605 10.4746,1.000438 13.6517,1.878155 3.1772,0.877718 5.8753,1.642477 5.9967,1.699342 0.1215,0.05686 0.5063,-0.358885 0.8554,-0.923694 0.349,-0.564787 -2.7393,-3.225444 -6.8635,-5.912419 -4.1241,-2.686974 -7.4978,-5.11473 -7.4978,-5.395306 0,-0.551187 0.6035,-0.225143 7.3054,3.945397 7.6981,4.790493 7.0451,2.263863 -2.0217,-7.821321 -6.0957,-6.780284 -10.2971,-10.386412 -13.6836,-11.74395 -3.0169,-1.209338 -6.2934,-1.872799 -8.9728,-1.962438 z"
           id="path10373" /><path
           style="fill:#f6f9fb;stroke-width:1.15533"
           d="m -2627.0269,44.943257 c 0.2707,0 -0.3048,2.33997 -1.2791,5.19941 -1.6647,4.885576 -2.7096,6.49918 -2.7096,4.18458 0,-1.413896 3.3877,-9.38399 3.9887,-9.38399 z"
           id="path10363" /><path
           style="fill:#f6f9fb;stroke-width:1.15533"
           d="m -2717.9568,32.141278 c -5.2881,-0.01543 -10.1061,1.937224 -10.1061,5.200556 0,2.495112 5.8378,10.266137 17.7589,23.640507 12.346,13.851061 19.2613,20.062084 25.2226,22.651882 4.6455,2.018201 5.206,2.068079 6.147,0.545568 0.4077,-0.659847 -3.3644,-5.305227 -8.3829,-10.323663 -5.0184,-5.018392 -8.0502,-8.55864 -6.7381,-7.866878 1.3121,0.69174 5.5871,4.5579 9.5001,8.591282 6.5102,6.710416 9.6369,8.794297 9.6369,6.422656 0,-1.77062 -15.0237,-19.657753 -21.4241,-25.50729 -3.5694,-3.26223 -5.7977,-5.931396 -4.9522,-5.931749 1.9706,-8.37e-4 20.5875,19.080293 24.7441,25.361493 1.9598,2.9614 3.4729,4.2831 3.9751,3.470446 0.446,-0.721737 2.0517,-1.941941 3.5672,-2.710756 1.5655,-0.794118 2.7262,-2.390618 2.6891,-3.69711 -0.126,-4.410076 -14.6301,-26.012634 -20.7292,-30.87412 -7.4613,-5.947132 -15.3739,-9.563905 -17.1142,-7.823591 -0.9257,0.925677 -0.8141,1.694184 0.4111,2.823515 0.9259,0.853451 5.3233,4.853265 9.7713,8.88852 4.448,4.035255 9.906,9.772188 12.13,12.748532 2.224,2.976365 6.0674,7.823591 8.54,10.772384 2.4727,2.948815 4.2645,5.593361 3.9819,5.875964 -0.2826,0.282602 -3.3456,-2.980531 -6.8065,-7.250694 -7.9142,-9.764848 -27.9696,-29.807119 -32.7341,-32.712426 -2.5723,-1.568553 -5.9149,-2.285904 -9.0879,-2.295028 z"
           id="path10337" /><path
           style="fill:#f6f9fb;stroke-width:1.15533"
           d="m -2671.5379,28.366607 c -4.1983,-0.281611 -9.1562,3.336881 -9.1562,7.245007 0,5.178736 2.8107,12.934927 7.1493,19.729273 2.2317,3.494846 5.4416,8.563864 7.1334,11.264438 2.2779,3.636278 3.8218,4.910107 5.95,4.910107 3.4664,0 3.4789,-0.19043 0.5604,-8.673273 -3.0833,-8.96165 -2.1635,-9.450089 1.1435,-0.60706 1.4335,3.833276 2.7606,6.970515 2.9488,6.970515 0.1882,0 1.0692,-0.279716 1.9579,-0.620748 1.9868,-0.762379 1.0184,-10.329238 -2.4295,-23.990179 -2.9737,-11.78252 -5.3668,-15.460345 -9.6436,-14.821436 -0.4545,0.06788 -2.2,-0.398382 -3.8782,-1.036475 -0.5521,-0.209825 -1.1361,-0.329923 -1.7358,-0.370169 z"
           id="path10323" /><path
           style="fill:#f6f9fb;stroke-width:1.15533"
           d="m -2573.1603,24.147865 c -2.5766,0 -6.5206,3.06488 -18.6883,14.526447 -4.8751,4.592239 -12.3244,10.143217 -16.752,12.483142 -4.3853,2.317532 -11.8374,7.417364 -16.5595,11.331639 -6.8687,5.693491 -8.1748,7.259906 -6.5354,7.834986 1.286,0.451102 6.419,-1.544816 13.7838,-5.359997 6.4545,-3.343582 12.5152,-6.094099 13.4684,-6.111731 0.9531,-0.01763 -3.7257,2.744919 -10.3977,6.137915 -11.5693,5.883502 -12.1318,6.341062 -12.1688,9.876021 -0.035,3.389447 0.2109,3.645668 2.8873,2.996642 8.3867,-2.033805 22.0397,-10.063386 29.2499,-17.20304 4.14,-4.099525 9.6312,-8.781734 12.2018,-10.404507 5.6918,-3.592991 16.3534,-16.134298 16.3534,-19.236096 0,-2.887124 -3.9678,-6.871421 -6.8429,-6.871421 z"
           id="path10311" /><path
           style="fill:#f6f9fb;stroke-width:1.15533"
           d="m -2638.428,20.971328 c -0.3903,-0.390249 -2.3909,0.912541 -4.4465,2.895278 -2.0556,1.982738 -5.1402,4.133093 -6.8544,4.779121 -1.7141,0.64605 -4.0154,2.546092 -5.1128,4.221034 -1.9054,2.907886 -1.8806,3.522903 0.5364,13.626668 1.3922,5.819717 2.5236,12.755342 2.5126,15.413708 -0.018,4.419354 0.2534,4.865144 3.1584,5.19941 4.0291,0.463599 4.3892,-0.47927 5.3144,-13.919387 0.4096,-5.950351 1.8375,-15.472997 3.1732,-21.162102 1.3356,-5.689083 2.109,-10.663482 1.7187,-11.05373 z"
           id="path10305" /><path
           style="fill:#f6f9fb;stroke-width:1.15533"
           d="m -2593.671,-3.4310959 c -3.6839,-0.3805947 -7.2558,3.40564746 -14.2018,13.1790478 -5.5736,7.8424361 -7.261,11.2932881 -8.589,17.5675011 -5.4488,25.745327 -5.4655,29.279448 -0.1003,20.787392 1.8996,-3.006605 3.8745,-5.467091 4.3885,-5.468216 1.0705,-0.0022 0.5875,0.911836 -4.2563,8.05938 v 0 l -3.5069,5.174351 3.9921,-2.666345 c 2.1952,-1.466285 5.8103,-3.438355 8.0343,-4.382767 3.6848,-1.56474 4.8439,-3.413869 13.0538,-20.83749 11.2072,-23.7846955 11.367,-24.4751349 6.6049,-28.48228851 -2.0485,-1.72362989 -3.7459,-2.75756989 -5.4204,-2.93056539 z"
           id="path10269" /><path
           style="fill:#f6f9fb;stroke-width:1.15533"
           d="m -2614.2533,-14.572481 c -1.6382,0.154944 -3.8183,1.252801 -6.9284,3.404391 -5.1083,3.5339669 -5.8507,4.783176 -10.3396,17.4080385 -7.8459,22.0660915 -13.8008,60.6548335 -9.3601,60.6548335 0.9782,0 1.7791,-0.845957 1.7791,-1.879302 0,-3.182245 4.9496,-23.039133 5.4101,-21.704253 0.2383,0.690704 -0.6219,5.779493 -1.9112,11.308849 -1.2893,5.529356 -2.344,10.813137 -2.344,11.74168 0,2.570314 2.4425,2.013572 3.1573,-0.719842 0.436,-1.667647 0.8982,-1.973062 1.5045,-0.992041 1.571,2.54175 7.8387,-3.068164 9.1733,-8.210864 2.4923,-9.603556 3.3092,-13.414704 4.0741,-19.004892 0.4349,-3.177132 2.8159,-14.095512 5.2906,-24.262378 4.8571,-19.9547037 5.4046,-24.98513 2.9419,-27.028941 -0.6768,-0.561723 -1.4647,-0.808202 -2.4476,-0.715279 z"
           id="path10259" /><path
           style="fill:#f3cb46;stroke-width:1.15533"
           d="m -2633.6149,70.750231 c 0.7942,-0.320512 2.094,-0.320512 2.8883,0 0.7943,0.32049 0.1443,0.582728 -1.4442,0.582728 -1.5886,0 -2.2384,-0.262238 -1.4441,-0.582728 z"
           id="path11565" /><path
           style="fill:#f3cb46;stroke-width:1.15533"
           d="m -2639.1027,92.4903 c 0,-0.733903 0.5327,-1.334374 1.1839,-1.334374 0.6512,0 1.678,-1.299748 2.282,-2.888314 0.604,-1.588588 1.621,-2.888313 2.26,-2.888313 0.639,0 2.4472,-2.469524 4.0184,-5.48781 1.5711,-3.018286 2.8808,-5.077152 2.9104,-4.575268 0.1133,1.920583 -4.751,10.206032 -6.3527,10.82063 -0.9243,0.354741 -1.6807,1.288618 -1.6807,2.075308 0,0.786668 -1.0398,2.37131 -2.3107,3.521426 -1.3104,1.185864 -2.3106,1.513452 -2.3106,0.756715 z"
           id="path11537" /><path
           style="fill:#f3cb46;stroke-width:1.15533"
           d="m -2646.0347,99.962324 c 0,-0.239911 0.9098,-1.149719 2.0218,-2.021816 1.8325,-1.437082 1.8733,-1.396219 0.4363,0.436203 -1.5093,1.924489 -2.4581,2.536479 -2.4581,1.585613 z"
           id="path11533" /><path
           style="fill:#f3cb46;stroke-width:1.15533"
           d="m -2672.6072,94.178973 c 0,-0.243591 -1.0398,-0.714816 -2.3106,-1.047164 -1.2709,-0.332326 -2.3107,-0.132904 -2.3107,0.442925 0,0.57594 1.0398,1.047165 2.3107,1.047165 1.2708,0 2.3106,-0.199246 2.3106,-0.442926 z"
           id="path11531" /><path
           style="fill:#f3cb46;stroke-width:1.15533"
           d="m -2681.0681,101.84268 c -1.911,-3.247041 -1.9681,-8.867777 -0.1294,-12.765984 1.8341,-3.88862 9.9387,-12.940019 11.5866,-12.940019 0.3756,0 2.0048,-1.039781 3.6204,-2.310656 1.6157,-1.270853 3.8775,-2.310633 5.0264,-2.310633 1.1488,0 3.8081,-0.997243 5.9096,-2.216102 4.1212,-2.39031 15.2153,-3.140523 18.2702,-1.235522 1.4593,0.909984 1.3316,1.353108 -0.8282,2.874582 -1.4043,0.98933 -2.8919,3.603461 -3.3057,5.809204 -0.4197,2.237724 -1.4455,4.010438 -2.3205,4.010438 -0.8624,0 -1.2988,0.701988 -0.9695,1.559957 0.7055,1.838769 -17.0366,11.148637 -21.2463,11.148637 -1.7223,0 -2.3756,0.472702 -1.8434,1.333822 0.5332,0.862708 0.3144,1.018622 -0.6196,0.441382 -0.7943,-0.490841 -2.7408,-0.198364 -4.3256,0.649753 -2.4725,1.323243 -3.359,1.268186 -6.2441,-0.38767 -3.7152,-2.132215 -3.838,-1.946679 -2.2879,3.458126 1.0062,3.508445 0.8693,4.855335 -0.293,2.880685 z"
           id="path11529" /><path
           style="fill:#f3cb46;stroke-width:1.15533"
           d="m -2655.855,104.18887 c 1.2709,-0.3096 3.3505,-1.41905 4.6213,-2.46547 2.2918,-1.886905 2.2927,-1.881197 0.1098,0.69694 -1.2105,1.42972 -3.29,2.53917 -4.6213,2.46547 -2.3279,-0.12894 -2.332,-0.15561 -0.1098,-0.69694 z"
           id="path11525" /><path
           style="fill:#f3cb46;stroke-width:1.15533"
           d="m -2662.4981,105.41 c 0.7943,-0.32049 2.094,-0.32049 2.8883,0 0.7943,0.32051 0.1444,0.58275 -1.4441,0.58275 -1.5886,0 -2.2385,-0.26224 -1.4442,-0.58275 z"
           id="path11523" /><path
           style="fill:#f3cb46;stroke-width:1.15533"
           d="m -2673.7625,104.96705 c -1.2657,-0.85647 -0.7982,-0.96363 1.733,-0.39746 4.248,0.95024 5.1702,1.61149 2.2144,1.58789 -1.218,-0.009 -2.9943,-0.54544 -3.9474,-1.19043 z"
           id="path11521" /><path
           style="fill:#e7a314;stroke-width:1.15533"
           d="m -2677.2285,93.574955 c 0,-0.575939 1.0398,-0.775251 2.3107,-0.442925 1.2708,0.332348 2.3106,0.803573 2.3106,1.047164 0,0.243613 -1.0398,0.442925 -2.3106,0.442925 -1.2709,0 -2.3107,-0.471225 -2.3107,-1.047164 z"
           id="path11657" /><path
           style="fill:#e7a314;stroke-width:1.15533"
           d="m -2676.043,103.39125 c -2.583,-0.9302 -4.2921,-2.44171 -4.795,-4.240743 -1.4685,-5.252792 -1.193,-5.6802 2.3508,-3.646417 2.885,1.655855 3.7715,1.710912 6.2441,0.38767 1.5848,-0.848205 3.5313,-1.140572 4.3256,-0.649731 0.934,0.577217 1.1528,0.421325 0.6196,-0.441404 -0.5323,-0.861121 0.121,-1.333823 1.8433,-1.333823 4.2098,0 21.9519,-9.309867 21.2464,-11.148637 -0.3293,-0.857968 0.1073,-1.559957 0.9695,-1.559957 0.8686,0 1.8968,-1.751996 2.305,-3.927566 0.4052,-2.160141 1.4058,-4.482742 2.2234,-5.161346 2.2405,-1.859465 9.8154,-0.261973 10.6087,2.237305 0.7421,2.338074 -3.4592,11.472918 -5.2766,11.472918 -0.6382,0 -1.6546,1.299726 -2.2586,2.888314 -0.604,1.588566 -1.6308,2.888314 -2.282,2.888314 -0.6512,0 -1.1839,0.718122 -1.1839,1.595861 0,1.797157 -7.1628,7.646742 -9.3634,7.646742 -0.7866,0 -2.3764,0.85616 -3.5326,1.90257 -2.7,2.44341 -18.3198,3.15148 -24.0443,1.08993 z"
           id="path11651" /><path
           style="fill:#90a334;stroke-width:1.15533"
           d="m -2566.3188,141.76706 c 0,-1.11366 4.8451,-4.39798 6.4849,-4.39798 0.7414,0 2.5642,0.98479 4.0506,2.18842 l 2.7026,2.18842 -6.6198,0.41105 c -3.6409,0.22609 -6.6191,0.0507 -6.6183,-0.38991 z"
           id="path11979" /><path
           style="fill:#90a334;stroke-width:1.15533"
           d="m -2573.8993,140.97505 c 1.8705,-3.61697 3.8806,-4.76131 8.3636,-4.76131 2.7317,0 2.6174,0.23877 -1.9368,4.04365 -6.2009,5.1807 -8.8899,5.48098 -6.4268,0.71766 z"
           id="path11977" /><path
           style="fill:#90a334;stroke-width:1.15533"
           d="m -2555.9193,144.87868 c -1.5236,-1.83586 -0.3941,-2.255 2.7873,-1.03427 1.0014,0.38432 1.5331,1.16416 1.1815,1.733 -0.9356,1.51394 -2.3372,1.26717 -3.9688,-0.69873 z"
           id="path11971" /><path
           style="fill:#90a334;stroke-width:1.15533"
           d="m -2560.7572,146.97779 c 0.834,-0.33373 1.8305,-0.29269 2.2144,0.0913 0.3839,0.3839 -0.2985,0.65696 -1.5164,0.6068 -1.3459,-0.0555 -1.6196,-0.3292 -0.698,-0.698 z"
           id="path11969" /><path
           style="fill:#90a334;stroke-width:1.15533"
           d="m -2582.9695,144.58986 c 0.7863,-3.46204 4.4093,-7.22078 6.96,-7.22078 2.1001,0 2.0257,1.16471 -0.297,4.65305 -4.0365,6.06218 -7.7847,7.50665 -6.663,2.56773 z"
           id="path11967" /><path
           style="fill:#90a334;stroke-width:1.15533"
           d="m -2588.5035,147.77431 c 1.8604,-3.2695 3.7011,-4.55012 3.7011,-2.57503 0,1.46296 -3.5098,6.03371 -4.6331,6.03371 -0.5698,0 -0.1503,-1.55641 0.932,-3.45868 z"
           id="path11965" /><path
           style="fill:#90a334;stroke-width:1.15533"
           d="m -2569.1759,151.28093 c -0.4146,-0.67078 0.082,-1.5401 1.1023,-1.93182 2.5416,-0.9753 3.3323,0.0965 1.3095,1.77535 -1.1387,0.94499 -1.8941,0.99401 -2.4118,0.15649 z"
           id="path11963" /><path
           style="fill:#90a334;stroke-width:1.15533"
           d="m -2577.723,156.14301 c 0.872,-1.11201 2.1054,-2.4038 2.7408,-2.87064 1.5158,-1.11364 5.2011,-1.12618 5.1917,-0.0176 -0.011,1.02742 -6.5838,4.91013 -8.3151,4.91013 -0.6882,0 -0.5246,-0.86518 0.3826,-2.02182 z"
           id="path11947" /><path
           style="fill:#90a334;stroke-width:1.15533"
           d="m -2598.8461,155.53159 c 1.8224,-1.98274 2.468,-3.70445 1.9735,-5.26258 -0.5561,-1.75248 -0.091,-2.51125 1.9128,-3.11939 1.4563,-0.442 3.87,-1.91366 5.3638,-3.27034 l 2.7161,-2.46668 -2.6223,4.62129 c -3.1957,5.63217 -6.6622,9.63104 -9.7418,11.2385 -2.0065,1.04723 -1.954,0.81805 0.3979,-1.7408 z"
           id="path11945" /><path
           style="fill:#90a334;stroke-width:1.15533"
           d="m -2608.0763,160.50061 c -1.7871,-1.96808 -1.5999,-2.38798 3.1363,-7.03629 4.4025,-4.32063 5.1384,-4.6787 5.843,-2.84264 0.5339,1.39099 0.092,2.62241 -1.3061,3.64514 -1.1617,0.84946 -2.1806,2.47309 -2.2642,3.60804 -0.1803,2.4479 -1.589,4.95024 -2.7103,4.81498 -0.4392,-0.0529 -1.6535,-1.0381 -2.6987,-2.18923 z"
           id="path11933" /><path
           style="fill:#90a334;stroke-width:1.15533"
           d="m -2587.4635,166.07898 c -2.6584,-1.48771 -1.2632,-3.59403 1.7477,-2.63842 1.683,0.53415 2.1089,0.34524 1.4877,-0.65982 -1.0764,-1.74171 1.3865,-3.41923 5.0549,-3.4429 2.3061,-0.0154 2.5128,0.25728 1.3027,1.7153 -0.791,0.95314 -2.125,1.73297 -2.9642,1.73297 -0.8393,0 -2.2221,0.99385 -3.0729,2.20855 -1.1675,1.66665 -2.0399,1.9327 -3.5559,1.08432 z"
           id="path11921" /><path
           style="fill:#90a334;stroke-width:1.15533"
           d="m -2602.71,173.18419 c 1.1502,-1.27088 3.3969,-2.31066 4.993,-2.31066 1.596,0 2.5585,-0.3433 2.1389,-0.76289 -1.4182,-1.41821 3.7838,-4.03318 6.3824,-3.20836 2.4288,0.77084 2.4406,0.85219 0.3448,2.38465 -1.1933,0.87262 -2.8983,1.5866 -3.7885,1.5866 -0.8903,0 -2.9407,1.03978 -4.5563,2.31066 -1.6157,1.27085 -3.9879,2.31063 -5.2714,2.31063 -2.2608,0 -2.2684,-0.0725 -0.2429,-2.31063 z"
           id="path11907" /><path
           style="fill:#90a334;stroke-width:1.15533"
           d="m -2618.3069,175.62371 c 0,-1.66061 4.1781,-10.42315 6.314,-13.24199 1.7478,-2.30676 4.084,-1.67916 4.084,1.09715 0,0.94137 -1.1675,3.29066 -2.5944,5.22066 -2.5939,3.50844 -2.5946,3.50859 -3.3508,0.8197 -0.6648,-2.36353 -0.7704,-2.25159 -0.8716,0.924 -0.1062,3.33298 -3.5812,8.3598 -3.5812,5.18048 z"
           id="path11903" /><path
           style="fill:#90a334;stroke-width:1.15533"
           d="m -2605.3094,180.44134 c -3.2518,-1.16597 -1.4046,-3.79125 2.6676,-3.79125 2.4322,0 3.8217,0.4694 3.4016,1.1491 -1.085,1.7555 -4.453,3.2217 -6.0692,2.64215 z"
           id="path11891" /><path
           style="fill:#90a334;stroke-width:1.15533"
           d="m -2612.7076,182.86815 c 2.7618,-0.96743 5.3035,-1.47705 5.6481,-1.13251 0.8672,0.86723 -5.0667,3.01383 -8.1454,2.94657 -1.5886,-0.0346 -0.663,-0.70713 2.4973,-1.81406 z"
           id="path11885" /><path
           style="fill:#90a334;stroke-width:1.15533"
           d="m -2689.5105,193.47084 c -1.9895,-0.86575 -6.6685,-2.22816 -10.398,-3.02759 -6.4068,-1.37329 -16.4671,-6.41915 -16.5589,-8.3053 -0.023,-0.47656 3.1861,-0.86648 7.1318,-0.86648 7.0252,0 7.2731,0.108 11.9472,5.19897 3.2509,3.54086 5.7078,5.19895 7.7038,5.19895 1.6118,0 3.5778,0.77985 4.3688,1.73299 1.758,2.11824 0.5604,2.13779 -4.1947,0.0683 z"
           id="path11877" /><path
           style="fill:#90a334;stroke-width:1.15533"
           d="m -2728.9043,193.98004 c -4.4565,-2.07061 -4.5404,-2.50902 -1.1804,-6.16756 4.1366,-4.50408 9.1254,-5.61218 13.4436,-2.98608 3.8198,2.32293 4.7335,4.53235 1.8743,4.53235 -0.9478,0 -2.3726,1.03978 -3.1662,2.31064 -0.7937,1.27087 -2.5744,2.31065 -3.9572,2.31065 -1.3828,0 -2.6874,0.38992 -2.8992,0.8665 -0.2118,0.47658 -2.0635,0.0866 -4.1149,-0.8665 z"
           id="path11875" /><path
           style="fill:#90a334;stroke-width:1.15533"
           d="m -2682.3536,194.55772 c -2.0372,-2.22401 -4.611,-4.04365 -5.7197,-4.04365 -2.9153,0 -6.2474,-2.01836 -7.6458,-4.6313 -1.1153,-2.08394 -0.9709,-2.17539 1.7818,-1.12882 1.6474,0.62634 4.1592,1.13881 5.5818,1.13881 2.3512,0 5.4645,2.70597 11.6306,10.10912 2.0337,2.44173 2.0411,2.59947 0.1201,2.59947 -1.1248,0 -3.7118,-1.81964 -5.7489,-4.04363 z"
           id="path11873" /><path
           style="fill:#90a334;stroke-width:1.15533"
           d="m -2717.6649,198.8343 c -5.7659,-0.69121 -6.5273,-1.50083 -2.8883,-3.07123 2.813,-1.21401 3.7633,-1.21774 5.0442,-0.0198 2.2272,2.08276 1.24,3.4982 -2.1559,3.09111 z"
           id="path11871" /><path
           style="fill:#90a334;stroke-width:1.15533"
           d="m -2670.9422,201.42592 c -2.1536,-1.72534 -2.1394,-1.74668 0.3568,-0.53701 1.4298,0.69284 2.5995,1.50137 2.5995,1.79674 0,0.88406 -0.5991,0.62877 -2.9563,-1.25973 z"
           id="path11869" /><path
           style="fill:#90a334;stroke-width:1.15533"
           d="m -2666.1318,203.41446 c -1.6711,-2.64721 -3.7486,-4.81311 -4.6166,-4.81311 -0.868,0 -4.1107,-2.9653 -7.2062,-6.58957 l -5.6282,-6.58956 4.8152,2.70529 c 2.6483,1.48792 7.7749,5.69626 11.3924,9.35185 5.3806,5.43734 6.3684,7.01964 5.4295,8.69736 -1.0078,1.80077 -1.5182,1.46395 -4.1861,-2.76226 z"
           id="path11867" /><path
           style="fill:#90a334;stroke-width:1.15533"
           d="m -2680.7956,218.69771 c -0.8467,-1.02017 -4.1597,-3.03466 -7.3623,-4.47664 -3.2025,-1.44195 -7.6145,-4.5065 -9.8043,-6.8101 -3.17,-3.33475 -4.8482,-4.18831 -8.2346,-4.18831 -4.5611,0 -8.0639,-2.71106 -6.0739,-4.70103 0.746,-0.74596 3.2085,-0.69288 7.1585,0.15428 5.2216,1.11981 5.9253,1.59397 5.2983,3.56959 -0.6416,2.02144 -0.4662,2.1178 1.5559,0.85495 2.6755,-1.67082 6.8722,-0.30793 12.2458,3.9768 2.8995,2.31202 3.1481,2.96574 1.9671,5.17261 -1.5726,2.93837 -0.5589,3.28559 2.2283,0.76326 1.7527,-1.58618 2.2114,-1.54951 4.5772,0.36623 2.2421,1.8156 2.4306,2.50046 1.2795,4.65117 -1.6072,3.00326 -2.7643,3.16292 -4.8355,0.66723 z"
           id="path11865" /><path
           style="fill:#90a334;stroke-width:1.15533"
           d="m -2654.4325,215.48738 c -4.5479,-4.22088 -6.4419,-6.76701 -5.9628,-8.01556 0.5733,-1.4939 1.1075,-1.57666 2.9101,-0.4509 1.2143,0.75839 2.2079,2.31936 2.2079,3.46886 0,1.14952 1.8196,3.96364 4.0436,6.25362 3.6594,3.76795 4.5926,4.99744 3.7548,4.94714 -0.1589,-0.009 -3.288,-2.80097 -6.9536,-6.20316 z"
           id="path11863" /><path
           style="fill:#90a334;stroke-width:1.15533"
           d="m -2640.5266,226.9499 c -10.9,-11.39851 -13.5954,-14.62559 -13.5954,-16.27706 0,-1.47322 0.4384,-1.43966 2.9843,0.22856 4.9267,3.22812 18.5999,21.2044 16.1285,21.2044 -0.3228,0 -2.8057,-2.32015 -5.5174,-5.1559 z"
           id="path11861" /><path
           style="fill:#90a334;stroke-width:1.15533"
           d="m -2649.4424,233.92262 c -1.5566,-0.86203 -3.5074,-1.30742 -4.3352,-0.98979 -2.9107,1.11696 -7.175,-0.87655 -9.197,-4.29959 -1.124,-1.90267 -2.8936,-3.45938 -3.9327,-3.45938 -2.7993,0 -9.1659,-2.39704 -9.1659,-3.45101 0,-0.50287 1.0834,-2.14167 2.4074,-3.64179 1.7165,-1.94472 2.2138,-2.14725 1.733,-0.70567 -1.9355,5.8029 -1.9369,6.03505 -0.02,3.466 2.4407,-3.27237 4.4843,-3.41301 2.7594,-0.18977 -0.7093,1.32527 -0.9998,2.69942 -0.6456,3.05366 0.3543,0.35423 0.972,-0.21027 1.3727,-1.25428 0.4005,-1.04408 1.2483,-1.89834 1.8837,-1.89834 0.6354,0 0.8561,0.77983 0.4903,1.73299 -0.7881,2.05382 0.5649,2.27907 2.4381,0.40592 1.9995,-1.99962 6.9793,1.7159 7.432,5.54518 0.2023,1.71233 1.0683,3.34352 1.9243,3.62491 1.2821,0.42143 1.2996,0.03 0.099,-2.22155 -1.3804,-2.59008 -1.341,-2.64388 0.7543,-1.02757 8.9357,6.8932 10.4222,8.86556 4.0022,5.31019 z"
           id="path11859" /><path
           style="fill:#778c2b;stroke-width:1.15533"
           d="m -2567.4725,140.25731 c 1.4923,-1.58857 3.379,-2.88832 4.1925,-2.88832 0.8261,0 0.2039,1.27513 -1.4092,2.88832 -1.5886,1.58856 -3.4752,2.88831 -4.1926,2.88831 -0.7172,0 -0.083,-1.29975 1.4093,-2.88831 z"
           id="path12257" /><path
           style="fill:#778c2b;stroke-width:1.15533"
           d="m -2577.8448,144.58978 c 0.041,-1.35622 4.5433,-6.78472 4.5523,-5.48779 0,0.63543 -0.4765,1.92144 -1.0687,2.85781 -0.71,1.12283 -0.6057,2.00189 0.3066,2.5818 0.8696,0.55286 0.4181,0.88587 -1.2164,0.89698 -1.4297,0.009 -2.5879,-0.37222 -2.5738,-0.8488 z"
           id="path12255" /><path
           style="fill:#778c2b;stroke-width:1.15533"
           d="m -2594.0044,152.82259 c 1.5662,-1.98507 3.7386,-5.24344 4.8273,-7.24084 1.9285,-3.53787 4.9826,-5.67934 6.2675,-4.39454 1.1549,1.15501 -0.8432,7.52832 -2.5678,8.19011 -1.3449,0.51605 -1.4482,0.19792 -0.507,-1.56051 1.4357,-2.68279 1.486,-3.51594 0.212,-3.51594 -1.0643,0 -4.1761,5.83193 -3.853,7.22079 0.1109,0.47658 -0.4074,0.86649 -1.1516,0.86649 -0.7443,0 -2.4156,0.90983 -3.7142,2.02182 -1.7832,1.52714 -1.6641,1.13872 0.4867,-1.58738 z"
           id="path12251" /><path
           style="fill:#778c2b;stroke-width:1.15533"
           d="m -2603.2876,158.20979 c 0,-0.61068 1.1065,-2.14125 2.4591,-3.40129 1.3984,-1.30283 2.1676,-3.05042 1.7833,-4.05165 -0.3715,-0.96837 -0.2157,-2.04482 0.3462,-2.39212 0.5619,-0.34729 1.3681,0.46014 1.7915,1.7943 0.5353,1.68662 -0.056,3.33256 -1.9386,5.40202 -1.4897,1.63699 -1.9784,2.55222 -1.0859,2.03385 1.0919,-0.63417 1.353,-0.50616 0.7983,0.39138 -0.996,1.61157 -4.1539,1.7815 -4.1539,0.22351 z"
           id="path12247" /><path
           style="fill:#778c2b;stroke-width:1.15533"
           d="m -2608.6667,162.19949 c -1.4896,-3.21161 0.015,-3.99916 1.7438,-0.91206 0.9691,1.73165 1.3565,1.76861 3.2346,0.30874 1.9687,-1.53027 1.9635,-1.45903 -0.067,0.92107 -2.7758,3.25346 -3.2697,3.2215 -4.9112,-0.31775 z"
           id="path12229" /><path
           style="fill:#778c2b;stroke-width:1.15533"
           d="m -2611.3749,169.28192 c 0,-0.23991 0.9098,-1.14972 2.0218,-2.02184 1.8325,-1.43705 1.8732,-1.39619 0.4362,0.43623 -1.5093,1.92448 -2.458,2.53648 -2.458,1.58561 z"
           id="path12225" /><path
           style="fill:#778c2b;stroke-width:1.15533"
           d="m -2614.6157,170.29587 c 0.023,-1.9063 0.2824,-2.54627 0.5755,-1.42218 0.2928,1.12411 0.2737,2.6838 -0.043,3.46597 -0.3164,0.78219 -0.5561,-0.13753 -0.5326,-2.04379 z"
           id="path12221" /><path
           style="fill:#778c2b;stroke-width:1.15533"
           d="m -2618.3069,177.36927 c 0,-0.23989 0.9098,-1.14972 2.0219,-2.02181 1.8324,-1.43709 1.8732,-1.39622 0.4362,0.4362 -1.5093,1.92448 -2.4581,2.5365 -2.4581,1.58561 z"
           id="path12217" /><path
           style="fill:#778c2b;stroke-width:1.15533"
           d="m -2617.1515,182.96929 c 0,-1.21187 7.6368,-10.4288 13.4946,-16.28682 8.3836,-8.38395 22.325,-16.93172 33.5939,-20.59723 3.3409,-1.08672 5.7798,-2.45264 5.4195,-3.03536 -0.3667,-0.5934 2.1407,-1.05951 5.6996,-1.05951 3.4949,0 6.6884,0.54074 7.0969,1.20165 0.4888,0.79094 -0.3763,0.92287 -2.5313,0.38601 -2.9567,-0.73657 -3.1203,-0.6291 -1.6884,1.10903 1.416,1.71861 1.2243,1.92462 -1.7907,1.92462 -1.857,0 -3.8703,0.47588 -4.4739,1.0575 -0.6037,0.58163 -2.3973,1.23149 -3.9859,1.44416 -1.8958,0.25377 -2.7841,1.02733 -2.585,2.25103 0.2266,1.39294 -0.3941,1.73106 -2.4548,1.33713 -3.3681,-0.64384 -8.6268,4.14116 -6.2263,5.66537 0.9406,0.59721 0.4364,0.93037 -1.4425,0.9534 -3.8099,0.0467 -6.2918,1.69767 -5.2023,3.46058 0.6212,1.00506 0.1953,1.19397 -1.4877,0.65984 -2.7721,-0.87983 -4.7007,1.34776 -2.0482,2.36563 0.9935,0.38121 1.8063,1.17568 1.8063,1.76548 0,0.58981 -1.1048,0.4811 -2.4551,-0.24154 -1.8652,-0.99817 -3.1049,-0.9661 -5.1596,0.13357 -1.4874,0.79605 -2.4315,1.88893 -2.098,2.42857 0.3335,0.53968 -0.6435,0.98122 -2.171,0.98122 -1.5276,0 -3.7679,1.11917 -4.9783,2.48702 l -2.2009,2.48705 3.8122,-0.73664 c 2.3848,-0.46084 3.5489,-0.31059 3.109,0.40127 -0.3868,0.62586 -2.4923,1.13793 -4.6787,1.13793 -2.7636,0 -3.9755,0.52831 -3.9755,1.73299 0,0.95314 0.6065,1.73298 1.3479,1.73298 2.2789,0 -0.049,1.53888 -2.8004,1.85162 -1.4252,0.16199 -4.0209,0.65204 -5.7683,1.0891 -1.7474,0.43704 -3.1771,0.39764 -3.1771,-0.0875 z"
           id="path12203" /><path
           style="fill:#778c2b;stroke-width:1.15533"
           d="m -2704.0176,189.72487 c 0.834,-0.33376 1.8304,-0.29272 2.2144,0.0912 0.3839,0.3839 -0.2985,0.65696 -1.5164,0.6068 -1.3459,-0.0555 -1.6197,-0.3292 -0.698,-0.698 z"
           id="path12197" /><path
           style="fill:#778c2b;stroke-width:1.15533"
           d="m -2684.5876,194.39255 c -2.3262,-2.50864 -3.5198,-2.93489 -6.6899,-2.38883 -2.1222,0.36556 -3.2919,0.4243 -2.5994,0.13048 0.7059,-0.29947 -0.4595,-2.3563 -2.653,-4.68215 -2.1517,-2.28143 -3.621,-4.43925 -3.2651,-4.79514 0.3559,-0.35589 2.3997,1.26636 4.5418,3.605 2.5343,2.76685 4.9226,4.25207 6.8374,4.25207 1.951,0 3.7744,1.16806 5.4107,3.46597 3.0504,4.28385 2.2102,4.50285 -1.5825,0.41251 z"
           id="path12195" /><path
           style="fill:#778c2b;stroke-width:1.15533"
           d="m -2621.6817,201.39339 c 0.055,-1.3459 0.3293,-1.61964 0.6981,-0.69802 0.3337,0.83401 0.2927,1.83048 -0.091,2.21438 -0.3839,0.38391 -0.657,-0.29847 -0.6069,-1.51636 z"
           id="path12191" /><path
           style="fill:#778c2b;stroke-width:1.15533"
           d="m -2665.2276,206.58851 c -4.9727,-3.9484 -6.3942,-5.32185 -4.2025,-4.06056 0.7943,0.45709 1.4442,0.55875 1.4442,0.22587 0,-0.33286 -1.1025,-1.19526 -2.4501,-1.91642 -1.4053,-0.75215 -2.1437,-0.81556 -1.7315,-0.14877 0.42,0.67957 -0.4456,0.61323 -2.0834,-0.1598 -1.541,-0.72724 -2.3339,-1.61151 -1.7618,-1.96501 0.5719,-0.35353 -1.3275,-3.34916 -4.2211,-6.65699 -2.8937,-3.30783 -4.7411,-6.01425 -4.1056,-6.01425 0.6356,0 3.5985,2.85942 6.5843,6.35429 2.9857,3.49486 6.1387,6.35431 7.0067,6.35431 0.868,0 2.9216,2.12811 4.5635,4.72917 2.7989,4.43362 3.0867,4.59608 4.6056,2.59948 1.5074,-1.98144 1.6047,-1.90853 1.3984,1.04745 -0.1218,1.74743 -0.2968,3.17715 -0.3885,3.17715 -0.091,0 -2.1879,-1.60474 -4.6582,-3.56612 z"
           id="path12189" /><path
           style="fill:#778c2b;stroke-width:1.15533"
           d="m -2621.5904,213.62058 c 0,-1.58857 0.2622,-2.23843 0.5827,-1.44414 0.3205,0.79428 0.3205,2.09402 0,2.8883 -0.3205,0.79429 -0.5827,0.14436 -0.5827,-1.44416 z"
           id="path12187" /><path
           style="fill:#778c2b;stroke-width:1.15533"
           d="m -2625.1477,221.03393 c 0.056,-1.3459 0.3293,-1.61964 0.6981,-0.698 0.3338,0.83399 0.2927,1.83046 -0.091,2.21436 -0.3839,0.38393 -0.657,-0.29845 -0.6069,-1.51636 z"
           id="path12183" /><path
           style="fill:#778c2b;stroke-width:1.15533"
           d="m -2650.656,217.80569 c 0,-0.23991 -0.9098,-1.14972 -2.0218,-2.02182 -1.8325,-1.43708 -1.8733,-1.39622 -0.4363,0.43621 1.5094,1.92448 2.4581,2.5365 2.4581,1.58561 z"
           id="path12179" /><path
           style="fill:#778c2b;stroke-width:1.15533"
           d="m -2645.3543,223.92987 c -1.6451,-1.95503 -2.9911,-4.03461 -2.9911,-4.62129 0,-0.58669 -0.5506,-1.06669 -1.2234,-1.06669 -0.673,0 -0.8613,0.64986 -0.4187,1.44416 0.4427,0.79429 -0.3875,0.30887 -1.845,-1.07868 -1.4626,-1.39261 -2.8127,-4.23938 -3.0135,-6.35431 l -0.3638,-3.83143 1.5707,3.58189 c 0.864,1.97006 2.344,3.87856 3.2888,4.24115 1.5262,0.58566 9.5102,11.23984 8.4229,11.23984 -0.2397,0 -1.7819,-1.59958 -3.4269,-3.55464 z"
           id="path12177" /><path
           style="fill:#778c2b;stroke-width:1.15533"
           d="m -2636.9395,231.2393 c -1.437,-1.8324 -1.3962,-1.87326 0.4362,-0.4362 1.112,0.8721 2.0219,1.78193 2.0219,2.02184 0,0.95087 -0.9488,0.33885 -2.4581,-1.58564 z"
           id="path12173" /><path
           style="fill:#778c2b;stroke-width:1.15533"
           d="m -2646.1887,234.20189 c -1.5039,-1.18853 -4.2242,-3.26441 -6.0451,-4.61306 l -3.311,-2.45207 1.4013,2.61818 c 1.1414,2.1327 1.1126,2.52335 -0.1551,2.10661 -0.856,-0.28139 -1.722,-1.91258 -1.9244,-3.62488 -0.4526,-3.82931 -5.4324,-7.54483 -7.4319,-5.54521 -1.8733,1.87315 -3.2263,1.6479 -2.4381,-0.40592 0.3657,-0.95314 0.145,-1.73299 -0.4904,-1.73299 -0.6354,0 -1.4832,0.85426 -1.8837,1.89834 -0.4007,1.0441 -1.0183,1.60851 -1.3726,1.25428 -0.3543,-0.35424 -0.064,-1.72839 0.6455,-3.05366 1.725,-3.22313 -0.3187,-3.08249 -2.7593,0.18977 -1.9171,2.57018 -1.9161,2.36346 0.015,-3.46598 0.3695,-1.11449 -0.6649,-0.46639 -2.3049,1.44414 -3.1293,3.6454 -3.8834,3.25652 -1.6776,-0.86502 1.1006,-2.05666 0.8905,-2.7851 -1.3202,-4.57523 -2.3658,-1.91573 -2.8246,-1.95241 -4.5772,-0.36622 -2.7872,2.52233 -3.8009,2.1751 -2.2284,-0.76326 1.1811,-2.20687 0.9325,-2.86059 -1.967,-5.17261 -5.3736,-4.28473 -9.5704,-5.64763 -12.2458,-3.97681 -2.0221,1.26286 -2.1975,1.1665 -1.5559,-0.85495 0.627,-1.97561 -0.077,-2.44977 -5.2983,-3.56958 -4.0081,-0.85958 -6.4071,-0.90566 -7.1749,-0.13775 -0.7679,0.76782 -1.6017,0.29525 -2.4937,-1.41341 -0.737,-1.4118 -2.0774,-2.36589 -2.9786,-2.12018 -4.9874,1.35983 -6.8375,1.43168 -6.8375,0.2656 0,-0.7095 1.1747,-1.29002 2.6104,-1.29002 1.4357,0 3.2598,-1.03978 4.0534,-2.31064 0.7937,-1.27087 2.2185,-2.31065 3.1663,-2.31065 2.899,0 1.925,-2.22157 -2.0316,-4.63399 -2.0652,-1.25912 -2.975,-2.28934 -2.0219,-2.28934 0.9532,0 3.5099,1.08325 5.6816,2.40722 3.0209,1.84163 3.5714,2.64033 2.3431,3.39949 -1.3533,0.83637 -1.3384,1.08135 0.095,1.5589 26.629,8.87179 38.2951,15.15637 52.0997,28.06626 4.8842,4.56771 12.0869,10.66535 16.0058,13.55032 l 7.1254,5.24543 -3.9923,-0.1501 c -2.1958,-0.0827 -5.2229,-1.12252 -6.7268,-2.31105 z"
           id="path12171" /><path
           style="fill:#778c2b;stroke-width:1.15533"
           d="m -2631.1629,240.48192 c -1.437,-1.83242 -1.3962,-1.87328 0.4363,-0.4362 1.9244,1.50929 2.5365,2.45802 1.5855,2.45802 -0.2398,0 -1.1496,-0.90981 -2.0218,-2.02182 z"
           id="path12167" /><path
           style="fill:#526028;stroke-width:1.15533"
           d="m -2632.0163,261.10888 c -1.2914,-0.81814 -1.0288,-2.37389 1.4437,-8.55414 1.6621,-4.15476 2.7043,-8.38243 2.3157,-9.39479 -0.3884,-1.01238 -5.0813,-4.99904 -10.4285,-8.85925 -5.3472,-3.86021 -14.047,-11.02523 -19.3328,-15.92225 -13.3109,-12.33172 -25.887,-19.52866 -45.7828,-26.19991 -6.6093,-2.21617 -11.0225,-4.91127 -5.7766,-3.52771 1.5885,0.41897 5.2278,1.24174 8.0873,1.82835 14.268,2.9271 28.8111,9.82819 38.668,18.34888 25.7376,22.2488 33.9514,29.05437 35.0666,29.05437 2.1615,0 3.0563,-8.00503 3.035,-27.15016 -0.022,-19.89139 -2.2867,-39.43164 -6.8007,-58.67783 -1.6351,-6.9716 -2.1674,-11.14771 -1.3875,-10.88777 1.9294,0.64314 5.6648,15.41107 9.3593,37.00183 0.4146,2.42366 1.1551,4.2433 1.6452,4.04363 0.4902,-0.19968 3.746,-3.74233 7.2351,-7.87263 12.1482,-14.38091 18.5292,-19.74157 29.8669,-25.0913 9.2071,-4.34441 16.2255,-6.49785 19.1599,-5.8788 1.4525,0.30638 0.029,1.19333 -4.1407,2.57935 -17.8998,5.95048 -35.619,19.60527 -47.1313,36.32018 l -4.2807,6.21537 -0.2536,20.36659 c -0.3057,24.55246 -2.0287,40.4224 -5.1905,47.8056 -2.4681,5.76358 -2.832,6.06476 -5.377,4.45239 z"
           id="path12297" /></g></g></g></svg>
