<?xml version="1.0" encoding="UTF-8" standalone="no"?>
<!-- Created with Inkscape (http://www.inkscape.org/) -->

<svg
   width="188.68369mm"
   height="251.70969mm"
   viewBox="0 0 188.68369 251.70969"
   version="1.1"
   id="svg5"
   xml:space="preserve"
   xmlns="http://www.w3.org/2000/svg"
   xmlns:svg="http://www.w3.org/2000/svg"><defs
     id="defs2" /><g
     id="layer1"
     style="display:inline;opacity:1"
     transform="translate(3982.7011,310.67868)"><g
       id="g141261"><g
         id="g131614"
         transform="matrix(2.2040458,0,0,2.2040458,-5316.9603,-843.1544)"><path
           style="fill:#f6f9fb;stroke-width:0.524184"
           d="m 613.04113,288.66818 c -5.14062,4.30802 7.40901,14.85424 1.79671,4.78033 -0.66988,-1.56503 -1.31547,-3.14508 -1.79671,-4.78033 z"
           id="path131530" /><path
           style="fill:#f6f9fb;stroke-width:0.524184"
           d="m 617.56437,287.3556 c -10.51662,3.22676 7.85898,18.79838 3.33708,5.14492 -1.00054,-1.78699 -2.25514,-3.40967 -3.33708,-5.14492 z"
           id="path131532" /><path
           style="fill:#f6f9fb;stroke-width:0.524184"
           d="m 611.42418,284.55785 c -1.73958,3.94098 4.54086,2.70706 0,0 z"
           id="path131534" /><path
           style="fill:#f6f9fb;stroke-width:0.524184"
           d="m 608.26313,283.80031 c -1.81391,4.98321 5.21913,15.86202 3.00467,4.83633 -0.42225,-1.86942 -1.31362,-3.78159 -3.00467,-4.83633 z"
           id="path131536" /><path
           style="fill:#f6f9fb;stroke-width:0.524184"
           d="m 614.89942,282.2082 c -8.0863,2.34778 5.10667,5.99312 0,0 z"
           id="path131538" /><path
           style="fill:#f6f9fb;stroke-width:0.524184"
           d="m 617.24346,280.27085 c -5.11588,4.13709 6.35771,3.50113 0,0 z"
           id="path131540" /><path
           style="fill:#f6f9fb;stroke-width:0.524184"
           d="m 619.6459,279.67451 c -1.61145,4.62622 11.73906,16.73447 3.01369,7.83683 -9.34186,-5.93495 2.58896,16.06112 5.05706,3.21951 0.9372,-5.19799 -3.90109,-9.10891 -8.07075,-11.05634 z"
           id="path131542" /><path
           style="fill:#f6f9fb;stroke-width:0.524184"
           d="m 649.93966,264.60059 c -7.07919,4.0814 -11.47206,20.14088 -0.33969,21.16703 6.94593,-1.68805 9.91337,-17.12692 2.6688,-16.12608 -0.62792,10.46972 0.6234,-1.93934 -1.64924,-3.27711 -2.79513,5.70784 -0.34857,1.83482 -0.67987,-1.76384 z"
           id="path131544" /><path
           style="fill:#f6f9fb;stroke-width:0.524184"
           d="m 672.37498,264.56857 c 3.16787,3.95085 2.96173,12.65012 10.09889,11.42279 0.66032,-5.39619 -5.6067,-9.83643 -10.09889,-11.42279 z"
           id="path131546" /><path
           style="fill:#f6f9fb;stroke-width:0.524184"
           d="m 663.51816,264.38667 c 4.59446,5.86945 1.57279,6.07013 0,0 z"
           id="path131548" /><path
           style="fill:#f6f9fb;stroke-width:0.524184"
           d="m 666.17949,262.81414 c -8.89698,-2.44305 -4.53172,9.27673 -3.8146,8.29557 -0.36761,-7.06649 -13.99061,-10.12373 -7.45348,-1.23808 6.52945,2.42996 6.05711,17.99424 13.33908,13.19891 -0.81305,-4.76426 0.0507,-15.70499 3.9851,-5.50901 0.88857,8.55655 11.9796,5.85061 6.24484,-1.21511 -3.44256,-5.06182 -7.82229,-9.39476 -12.30094,-13.53228 z"
           id="path131550" /><path
           style="fill:#f6f9fb;stroke-width:0.524184"
           d="m 645.99209,261.59458 c -1.95481,5.66383 -7.06297,9.23818 -1.5605,1.65527 z"
           id="path131552" /><path
           style="fill:#f6f9fb;stroke-width:0.524184"
           d="m 641.86366,260.87579 c -3.00424,2.60421 -19.72088,12.57183 -10.08275,5.72502 10.26801,-9.18403 -14.07637,-2.85722 -10.40758,5.77906 1.87901,10.20155 13.60951,-5.60227 15.05025,4.87364 6.81274,1.483 16.28436,-18.72261 6.48549,-14.491 -4.47763,5.31752 -1.72147,1.65252 0.0419,-1.72861 l -1.08726,-0.15811 z"
           id="path131554" /><path
           style="fill:#f6f9fb;stroke-width:0.524184"
           d="m 673.40386,259.36787 c -5.2139,-0.81009 -8.24379,2.3576 -0.74434,2.09963 -9.69787,0.51583 9.05433,5.67049 12.97829,7.98504 11.63675,4.18423 -4.89824,-12.10781 -10.85689,-10.0698 z"
           id="path131556" /><path
           style="fill:#f6f9fb;stroke-width:0.524184"
           d="m 634.1308,258.47955 c -6.94399,2.29311 -6.34837,-0.46124 0,0 z"
           id="path131558" /><path
           style="fill:#f6f9fb;stroke-width:0.524184"
           d="m 683.041,258.14779 c -3.15301,4.2663 13.22608,12.21991 6.13738,3.43465 -1.64743,-1.62262 -3.63146,-3.56441 -6.13738,-3.43465 z"
           id="path131560" /><path
           style="fill:#f6f9fb;stroke-width:0.524184"
           d="m 616.1996,257.26877 c 3.7316,0.57231 -4.62778,0.1701 0,0 z"
           id="path131562" /><path
           style="fill:#f6f9fb;stroke-width:0.524184"
           d="m 632.13403,255.70298 c -7.54998,-1.66452 -22.63057,9.11879 -7.53406,7.71219 3.74383,-2.69838 21.22899,-1.15758 10.71262,-6.48152 l -1.74125,-0.69216 z"
           id="path131564" /><path
           style="fill:#f6f9fb;stroke-width:0.524184"
           d="m 608.97575,254.63891 c -11.76102,5.51537 8.86988,11.30374 10.36923,2.22159 -2.99908,-1.68385 -6.99546,-1.53115 -10.36923,-2.22159 z"
           id="path131566" /><path
           style="fill:#f6f9fb;stroke-width:0.524184"
           d="m 678.5007,252.12744 c -3.68342,-0.94117 -15.80507,5.642 -6.79376,4.60318 -11.62927,4.66896 21.69983,2.51241 6.7938,-4.60318 z"
           id="path131568" /><path
           style="fill:#f6f9fb;stroke-width:0.524184"
           d="m 629.11044,250.40767 c 3.03319,-0.045 0.84638,2.0271 0,0 z"
           id="path131570" /><path
           style="fill:#f6f9fb;stroke-width:0.524184"
           d="m 665.47773,246.72265 c -7.28413,-1.50481 -4.45522,4.6982 -2.76482,4.1191 5.2255,0.40229 -1.80724,3.48524 4.5529,3.9952 8.44951,-2.022 3.74555,-7.26576 -1.78808,-8.1143 z"
           id="path131572" /><path
           style="fill:#f6f9fb;stroke-width:0.524184"
           d="m 631.74128,246.02967 c 6.47058,2.30431 3.15328,3.80915 0,0 z"
           id="path131574" /><path
           style="fill:#f6f9fb;stroke-width:0.524184"
           d="m 623.71903,244.28972 c 4.64494,0.95341 4.96661,5.56039 0,0 z"
           id="path131576" /><path
           style="fill:#f6f9fb;stroke-width:0.524184"
           d="m 625.82537,241.59014 c -2.73417,3.29039 -21.31435,1.72492 -11.61391,7.5922 11.38013,1.28739 -14.37705,0.47157 -3.64142,4.85048 4.07195,0.65943 15.20418,4.63271 14.94072,0.72097 -6.84048,-1.52727 -3.84147,-1.21204 1.18834,-1.00761 -2.75864,-2.91168 -7.91713,-5.1092 -0.84783,-2.05139 3.18847,2.92005 8.72563,3.29755 6.88274,-1.91353 14.76749,-2.13568 -1.20215,-8.19733 -6.90864,-8.19112 z"
           id="path131578" /><path
           style="fill:#f3cb46;stroke-width:0.524184"
           d="m 633.82799,251.44007 c 3.41033,-3.07093 -2.36425,3.16171 0,0 z"
           id="path131580" /><path
           style="fill:#f3cb46;stroke-width:0.524184"
           d="m 638.5028,258.85297 c -7.49497,-4.62142 4.16713,1.46095 0,0 z"
           id="path131582" /><path
           style="fill:#f3cb46;stroke-width:0.524184"
           d="m 666.28057,260.08912 c -4.76913,-8.44923 -19.46871,0.42225 -26.38341,-8.26065 -9.24483,-5.12645 9.15565,-9.29418 13.88853,-5.38883 5.78266,1.95602 15.87741,9.65981 12.49488,13.64948 z"
           id="path131584" /><path
           style="fill:#f3cb46;stroke-width:0.524184"
           d="m 645.91508,261.12082 c -1.6833,-2.57454 3.70769,3.19573 0,0 z"
           id="path131586" /><path
           style="fill:#f3cb46;stroke-width:0.524184"
           d="m 661.52402,263.66941 c 2.56612,-1.77336 6.14813,0.0957 0,0 z"
           id="path131588" /><path
           style="fill:#f3cb46;stroke-width:0.524184"
           d="m 653.10173,263.65721 c 2.93528,-1.41341 0.96062,1.22066 0,0 z"
           id="path131590" /><path
           style="fill:#f3cb46;stroke-width:0.524184"
           d="m 647.652,263.10314 c 1.69889,-1.34779 2.72515,2.70615 0,0 z"
           id="path131592" /><path
           style="fill:#f3cb46;stroke-width:0.524184"
           d="m 656.36791,263.98244 c 4.91006,-1.75632 3.34844,1.61758 0,0 z"
           id="path131594" /><path
           style="fill:#f3cb46;stroke-width:0.524184"
           d="m 613.36525,288.62548 c -1.07256,-6.85309 10.54174,-3.05476 2.82302,-2.78858 -4.94877,4.47619 3.86447,-0.0627 -2.10781,3.34557 l -0.41401,-0.10826 z"
           id="path131596" /><path
           style="fill:#e7a314;stroke-width:0.524184"
           d="m 653.2228,263.42814 c -6.79508,-1.41771 -19.41266,-3.73685 -18.96135,-11.76432 7.30875,-3.08015 13.40505,7.61614 21.71394,4.7923 4.78237,-0.94554 15.80278,1.25304 7.87506,6.56705 -3.48203,0.77024 -7.09581,0.8402 -10.62765,0.40497 z"
           id="path131598" /><path
           style="fill:#e7a314;stroke-width:0.524184"
           d="m 613.64689,288.18769 c 2.75926,-4.95406 9.16533,-2.03869 0,0 z"
           id="path131600" /><path
           style="fill:#90a334;stroke-width:0.524184"
           d="m 627.90206,288.39508 c 0.54109,-2.87607 0.0977,3.68459 0,0 z"
           id="path131602" /><path
           style="fill:#778c2b;stroke-width:0.524184"
           d="m 646.71188,293.06902 c 0.75465,-1.90863 0.0613,2.51699 0,0 z"
           id="path131604" /><path
           style="fill:#778c2b;stroke-width:0.524184"
           d="m 642.51841,299.88342 c 0.75472,-1.9087 0.0611,2.51695 0,0 z"
           id="path131606" /><path
           style="fill:#778c2b;stroke-width:0.524184"
           d="m 648.28444,341.81819 c 0.75472,-1.90867 0.0611,2.51698 0,0 z"
           id="path131608" /><path
           style="fill:#778c2b;stroke-width:0.524184"
           d="m 644.61515,342.86656 c 0.75472,-1.90868 0.0611,2.51696 0,0 z"
           id="path131610" /><path
           style="fill:#526028;stroke-width:0.524184"
           d="m 645.71239,354.83543 c -2.00295,-11.2215 1.52661,-24.48748 -7.84707,-33.28684 -7.36418,-7.7785 -9.04705,-22.18963 -20.8641,-20.10296 -4.10849,-1.45368 -8.4946,-8.9531 -2.04786,-2.86474 7.62107,4.00463 12.47131,-8.50324 14.41413,-9.35753 -1.22069,8.80977 -2.43046,17.5997 5.31016,24.12518 2.6385,7.10468 10.11925,13.76296 7.9333,1.89494 0.0405,-9.62544 -0.16443,-19.41406 2.332,-28.79503 6.87849,1.98542 -1.81678,14.1107 0.47371,20.07915 -0.91464,15.37527 2.45218,30.55286 4.16855,45.69152 -0.10909,1.82971 -1.9268,5.24365 -3.87282,2.61631 z"
           id="path131612" /></g></g></g></svg>
