<?xml version="1.0" encoding="UTF-8" standalone="no"?>
<!-- Created with Inkscape (http://www.inkscape.org/) -->

<svg
   width="197.71674mm"
   height="262.20251mm"
   viewBox="0 0 197.71674 262.20251"
   version="1.1"
   id="svg5"
   xml:space="preserve"
   xmlns="http://www.w3.org/2000/svg"
   xmlns:svg="http://www.w3.org/2000/svg"><defs
     id="defs2" /><g
     id="layer1"
     style="display:inline;opacity:1"
     transform="translate(3163.2585,681.17934)"><g
       id="g133586"
       transform="matrix(2.2040458,0,0,2.2040458,-3967.6883,-1502.4828)"><path
         style="fill:#f6f9fb;stroke-width:0.524184"
         d="m 392.3631,425.29442 c -25.40483,10.89936 8.49831,26.15363 0,0 z"
         id="path133380" /><path
         style="fill:#f6f9fb;stroke-width:0.524184"
         d="m 376.74958,421.94734 c -19.7866,7.03141 -1.9668,19.7778 0,0 z"
         id="path133382" /><path
         style="fill:#f6f9fb;stroke-width:0.524184"
         d="m 418.38839,420.62598 c -3.73107,-1.91822 -3.46274,16.70179 9.27315,5.95277 0.0344,-4.60358 -5.49104,-6.65696 -9.27315,-5.95277 z"
         id="path133384" /><path
         style="fill:#f6f9fb;stroke-width:0.524184"
         d="m 399.40195,419.90147 c 1.46942,1.05187 -1.46089,1.61027 0,0 z"
         id="path133386" /><path
         style="fill:#f6f9fb;stroke-width:0.524184"
         d="m 400.72641,418.77958 c -22.56242,16.62638 13.26298,28.49164 0,0 z"
         id="path133388" /><path
         style="fill:#f6f9fb;stroke-width:0.524184"
         d="m 407.28725,417.18949 c 2.72237,0.53535 -0.99572,2.11914 0,0 z"
         id="path133390" /><path
         style="fill:#f6f9fb;stroke-width:0.524184"
         d="m 386.15108,416.07902 c -0.73409,2.30541 -3.60351,-1.36091 0,0 z"
         id="path133392" /><path
         style="fill:#f6f9fb;stroke-width:0.524184"
         d="m 407.24385,416.03412 c -19.00995,20.19981 23.05365,12.12904 0,0 z"
         id="path133394" /><path
         style="fill:#f6f9fb;stroke-width:0.524184"
         d="m 391.9285,415.51012 c -24.87116,8.25091 -11.22514,27.45016 2.74063,3.95246 -8.6048,6.87307 7.00829,-8.13358 -7.79126,1.86041 0.59525,-1.80003 7.1957,-2.79457 5.05063,-5.81287 z"
         id="path133396" /><path
         style="fill:#f6f9fb;stroke-width:0.524184"
         d="m 385.44879,414.55824 c -13.54724,-4.56855 -31.54965,14.29905 -7.65758,6.59585 1.11289,0.97321 17.38634,-8.33901 7.65758,-6.59585 z"
         id="path133398" /><path
         style="fill:#f6f9fb;stroke-width:0.524184"
         d="m 426.31245,413.92675 c -19.34186,-0.43133 3.02305,6.90054 -15.78509,2.34784 4.00906,6.24606 33.0379,6.48423 15.78509,-2.34784 z"
         id="path133400" /><path
         style="fill:#f6f9fb;stroke-width:0.524184"
         d="m 415.50536,411.90827 c 3.19107,0.13598 -2.55806,0.57513 0,0 z"
         id="path133402" /><path
         style="fill:#f6f9fb;stroke-width:0.524184"
         d="m 388.24759,411.90827 c 3.19111,0.13596 -2.55807,0.57515 0,0 z"
         id="path133404" /><path
         style="fill:#f6f9fb;stroke-width:0.524184"
         d="m 412.82128,411.38324 c 2.82617,0.55451 -3.80801,0.12987 0,0 z"
         id="path133406" /><path
         style="fill:#f6f9fb;stroke-width:0.524184"
         d="m 422.15663,411.05406 c -1.01502,0.18423 -1.01502,0.18423 0,0 z"
         id="path133408" /><path
         style="fill:#f6f9fb;stroke-width:0.524184"
         d="m 416.51153,405.65077 c -3.186,-0.423 -5.01037,3.6132 0,0 z"
         id="path133410" /><path
         style="fill:#f6f9fb;stroke-width:0.524184"
         d="m 387.64042,405.22031 c 0.73534,0.32133 0.73534,0.32133 0,0 z"
         id="path133412" /><path
         style="fill:#f6f9fb;stroke-width:0.524184"
         d="m 435.1662,404.62089 c -13.21096,3.00776 -33.27375,10.82314 -8.73041,8.55677 3.6302,-0.60362 9.78131,-3.7087 8.73041,-8.55677 z"
         id="path133414" /><path
         style="fill:#f6f9fb;stroke-width:0.524184"
         d="m 384.75739,397.16355 c 10.65323,7.54354 2.05118,3.09356 0,0 z"
         id="path133416" /><path
         style="fill:#f6f9fb;stroke-width:0.524184"
         d="m 437.25755,392.31315 c -9.06925,0.51666 -28.27772,16.24694 -8.82276,9.28389 -31.81222,11.41892 12.7932,8.45989 10.12003,-7.44187 l 0.27228,-1.16528 z"
         id="path133418" /><path
         style="fill:#f6f9fb;stroke-width:0.524184"
         d="m 409.15797,391.12153 c -0.64204,1.71277 -0.64204,1.71277 0,0 z"
         id="path133420" /><path
         style="fill:#f6f9fb;stroke-width:0.524184"
         d="m 369.97483,389.97999 c -6.24907,14.51736 30.26303,13.62046 4.76819,1.10139 z"
         id="path133422" /><path
         style="fill:#f6f9fb;stroke-width:0.524184"
         d="m 423.41447,389.82496 c -5.23721,6.48723 -11.15505,9.10398 0,0 z"
         id="path133424" /><path
         style="fill:#f6f9fb;stroke-width:0.524184"
         d="m 432.82939,383.07446 c -25.84609,7.63706 -24.37095,32.40472 -3.30406,10.61611 2.08395,-1.68708 9.63032,-8.81008 3.30406,-10.61611 z"
         id="path133426" /><path
         style="fill:#f6f9fb;stroke-width:0.524184"
         d="m 380.85634,377.8547 c -4.62703,11.06675 19.30881,20.18261 -2.94965,6.13226 -14.17361,2.88975 28.49194,29.7966 -3.01162,15.2651 -23.33696,-0.73902 0.0522,27.23917 13.67256,11.77972 2.43912,-4.52161 -30.11051,-4.16936 -1.99647,-3.81025 8.08445,-11.31282 6.89972,-8.90092 11.47944,-12.20787 -4.60718,-6.63675 -9.43698,-13.87876 -17.19426,-17.15896 z"
         id="path133428" /><path
         style="fill:#f6f9fb;stroke-width:0.524184"
         d="m 424.54825,375.19801 c -21.25894,17.52613 -10.33684,27.2092 3.78005,4.86528 l -0.68133,-2.43235 z"
         id="path133430" /><path
         style="fill:#f6f9fb;stroke-width:0.524184"
         d="m 391.57765,374.83576 c -11.97356,12.75532 20.08208,22.36346 2.90778,1.74334 z"
         id="path133432" /><path
         style="fill:#f6f9fb;stroke-width:0.524184"
         d="m 416.08468,372.63848 c -13.26689,4.68855 -10.34505,40.37883 -2.43869,13.31918 -1.98523,-1.29757 7.2553,-12.09339 2.43869,-13.31918 z"
         id="path133434" /><path
         style="fill:#f6f9fb;stroke-width:0.524184"
         d="m 403.55056,372.63448 c -12.35478,23.69742 6.83754,33.04643 3.6508,4.74595 l -1.33205,-2.75265 z"
         id="path133436" /><path
         style="fill:#f3cb46;stroke-width:0.524184"
         d="m 410.7876,409.86854 c 1.60309,-7.60879 3.62565,-5.20618 0,0 z"
         id="path133438" /><path
         style="fill:#f3cb46;stroke-width:0.524184"
         d="m 395.31618,403.5329 c -2.71595,0.17294 0.63577,2.94308 0,0 z"
         id="path133440" /><path
         style="fill:#f3cb46;stroke-width:0.524184"
         d="m 406.06994,406.01257 c -1.82905,-0.88315 0.0394,2.48475 0,0 z"
         id="path133442" /><path
         style="fill:#f3cb46;stroke-width:0.524184"
         d="m 393.48952,408.95745 c -0.1807,-5.29463 -1.3148,3.91235 0,0 z"
         id="path133444" /><path
         style="fill:#f3cb46;stroke-width:0.524184"
         d="m 402.80483,410.89003 c -2.02114,-1.71617 -0.68657,3.13638 0,0 z"
         id="path133446" /><path
         style="fill:#f3cb46;stroke-width:0.524184"
         d="m 398.46927,412.88884 c -1.06337,-2.13184 -1.32459,2.20057 0,0 z"
         id="path133448" /><path
         style="fill:#f3cb46;stroke-width:0.524184"
         d="m 395.18316,413.98554 c -18.62044,-17.95246 32.52712,-18.16139 8.07648,-0.99957 l -3.95547,1.53986 z"
         id="path133450" /><path
         style="fill:#f3cb46;stroke-width:0.524184"
         d="m 407.11831,415.66206 c 3.37228,-6.32056 3.21379,0.94402 0,0 z"
         id="path133452" /><path
         style="fill:#f3cb46;stroke-width:0.524184"
         d="m 402.96852,417.97203 c 0.79875,-0.42423 0.79875,-0.42423 0,0 z"
         id="path133454" /><path
         style="fill:#f3cb46;stroke-width:0.524184"
         d="m 392.89847,417.21336 c 0.89403,-1.62339 3.42571,5.54595 0,0 z"
         id="path133456" /><path
         style="fill:#f3cb46;stroke-width:0.524184"
         d="m 395.72728,418.29161 c 2.38486,-1.82377 1.21565,1.40945 0,0 z"
         id="path133458" /><path
         style="fill:#f3cb46;stroke-width:0.524184"
         d="m 398.99345,418.65486 c 4.75448,-2.80809 -0.67559,2.42514 0,0 z"
         id="path133460" /><path
         style="fill:#e7a314;stroke-width:0.524184"
         d="m 394.0137,404.89511 c -0.68502,-4.09281 2.50426,0.65262 0,0 z"
         id="path133462" /><path
         style="fill:#e7a314;stroke-width:0.524184"
         d="m 408.01309,406.25001 c -0.82216,-4.228 3.90776,-0.19712 0,0 z"
         id="path133464" /><path
         style="fill:#e7a314;stroke-width:0.524184"
         d="m 405.02157,406.6605 c -0.13728,-2.93915 2.00853,0.88853 0,0 z"
         id="path133466" /><path
         style="fill:#e7a314;stroke-width:0.524184"
         d="m 392.5722,408.95745 c 1.04585,-4.36268 0.63115,3.71063 0,0 z"
         id="path133468" /><path
         style="fill:#e7a314;stroke-width:0.524184"
         d="m 401.35228,411.41605 c 0.55442,-2.83704 2.08285,1.13362 0,0 z"
         id="path133470" /><path
         style="fill:#e7a314;stroke-width:0.524184"
         d="m 397.15881,412.88884 c 1.18749,-2.43368 1.36738,1.81788 0,0 z"
         id="path133472" /><path
         style="fill:#e7a314;stroke-width:0.524184"
         d="m 406.8199,409.27059 c -0.46588,0.38838 -0.46588,0.38838 0,0 z"
         id="path133474" /><path
         style="fill:#e7a314;stroke-width:0.524184"
         d="m 396.00686,418.16295 c -9.04111,-6.41832 14.50485,-2.64888 15.90172,-14.02919 1.33522,8.59837 -7.75806,15.92117 -15.90172,14.02919 z"
         id="path133476" /><path
         style="fill:#90a334;stroke-width:0.524184"
         d="m 442.76284,435.00479 c 5.65588,-5.57201 11.8979,1.09232 0,0 z"
         id="path133478" /><path
         style="fill:#90a334;stroke-width:0.524184"
         d="m 450.18258,435.89942 c -6.61943,-3.85361 12.86691,1.87693 0,0 z"
         id="path133480" /><path
         style="fill:#90a334;stroke-width:0.524184"
         d="m 435.94844,437.50908 c 10.25846,-10.98403 8.58311,-1.79063 0,0 z"
         id="path133482" /><path
         style="fill:#90a334;stroke-width:0.524184"
         d="m 448.13572,439.08174 c -1.46556,-4.09104 5.11591,2.29348 0,0 z"
         id="path133484" /><path
         style="fill:#90a334;stroke-width:0.524184"
         d="m 443.8112,440.2331 c -2.5116,-3.94857 10.45642,3.45122 0,0 z"
         id="path133486" /><path
         style="fill:#90a334;stroke-width:0.524184"
         d="m 426.84555,441.49068 c 12.51029,-11.61028 9.58487,-1.69921 0,0 z"
         id="path133488" /><path
         style="fill:#90a334;stroke-width:0.524184"
         d="m 440.8966,442.81847 c -4.18554,-4.84716 9.27074,0.16148 0,0 z"
         id="path133490" /><path
         style="fill:#90a334;stroke-width:0.524184"
         d="m 438.04518,442.50527 c 0.98803,-3.27855 2.96357,3.90267 0,0 z"
         id="path133492" /><path
         style="fill:#90a334;stroke-width:0.524184"
         d="m 435.51216,444.74723 c -1.58042,-6.00917 9.90012,5.81831 0,0 z"
         id="path133494" /><path
         style="fill:#90a334;stroke-width:0.524184"
         d="m 424.04512,444.8609 c 2.83613,-7.83746 0.90715,3.27504 0,0 z"
         id="path133496" /><path
         style="fill:#90a334;stroke-width:0.524184"
         d="m 432.27915,445.93654 c -2.07061,-4.87419 9.93305,4.67975 0,0 z"
         id="path133498" /><path
         style="fill:#90a334;stroke-width:0.524184"
         d="m 369.11726,448.00551 c 3.9164,-4.53905 9.59329,2.32875 0,0 z"
         id="path133500" /><path
         style="fill:#90a334;stroke-width:0.524184"
         d="m 379.07445,448.44589 c -14.41431,-4.8515 3.78245,-3.15029 0,0 z"
         id="path133502" /><path
         style="fill:#90a334;stroke-width:0.524184"
         d="m 427.2994,449.05074 c 0.94074,-6.26418 9.76694,1.81963 0,0 z"
         id="path133504" /><path
         style="fill:#90a334;stroke-width:0.524184"
         d="m 382.15916,449.70481 c -7.05907,-5.77114 5.86278,-0.10439 0,0 z"
         id="path133506" /><path
         style="fill:#90a334;stroke-width:0.524184"
         d="m 418.86111,448.22159 c 14.88863,-18.99551 -5.29501,11.57142 0,0 z"
         id="path133508" /><path
         style="fill:#90a334;stroke-width:0.524184"
         d="m 374.34849,451.83337 c -15.07489,-4.61114 11.20303,0.62586 0,0 z"
         id="path133510" /><path
         style="fill:#90a334;stroke-width:0.524184"
         d="m 422.90987,452.54429 c 1.62368,-7.77793 9.26645,3.9141 0,0 z"
         id="path133512" /><path
         style="fill:#90a334;stroke-width:0.524184"
         d="m 419.69873,453.83129 c 1.9415,-3.76699 3.35435,2.52499 0,0 z"
         id="path133514" /><path
         style="fill:#90a334;stroke-width:0.524184"
         d="m 391.66648,452.73896 c -8.91276,-7.84887 0.29689,6.12277 -8.44234,-6.60451 2.48516,-2.47425 15.12474,10.23497 8.44234,6.60451 z"
         id="path133516" /><path
         style="fill:#90a334;stroke-width:0.524184"
         d="m 394.94129,454.15137 c -8.06516,-9.66686 7.45678,1.67338 0,0 z"
         id="path133518" /><path
         style="fill:#90a334;stroke-width:0.524184"
         d="m 379.77816,456.52717 c -6.46242,-10.42064 11.51745,3.76992 0,0 z"
         id="path133520" /><path
         style="fill:#90a334;stroke-width:0.524184"
         d="m 399.93769,457.56388 c -9.56796,-10.46518 8.85677,2.25572 0,0 z"
         id="path133522" /><path
         style="fill:#90a334;stroke-width:0.524184"
         d="m 385.09206,458.2181 c 0.28933,-6.06892 5.09734,3.48743 0,0 z"
         id="path133524" /><path
         style="fill:#90a334;stroke-width:0.524184"
         d="m 403.8227,459.66456 c -7.42872,-9.66 6.45651,-0.42269 0,0 z"
         id="path133526" /><path
         style="fill:#90a334;stroke-width:0.524184"
         d="m 391.83423,459.74986 c 4.05899,-2.82924 -1.36071,2.79436 0,0 z"
         id="path133528" /><path
         style="fill:#90a334;stroke-width:0.524184"
         d="m 388.29914,460.01964 c -2.13496,-5.96462 8.28214,1.16152 0,0 z"
         id="path133530" /><path
         style="fill:#90a334;stroke-width:0.524184"
         d="m 395.27124,463.33354 c -5.93384,-8.82181 7.8592,2.14138 0,0 z"
         id="path133532" /><path
         style="fill:#90a334;stroke-width:0.524184"
         d="m 398.06752,464.46869 c -1.37204,-7.25154 7.36814,2.2189 0,0 z"
         id="path133534" /><path
         style="fill:#90a334;stroke-width:0.524184"
         d="m 409.60818,464.20805 c -9.52481,-12.13955 9.12921,6.22322 0,0 z"
         id="path133536" /><path
         style="fill:#90a334;stroke-width:0.524184"
         d="m 400.09877,465.89437 c 1.46097,-5.88058 4.70652,4.95372 0,0 z"
         id="path133538" /><path
         style="fill:#90a334;stroke-width:0.524184"
         d="m 404.4107,468.57159 c -5.65531,-2.93267 5.81066,-0.82113 0,0 z"
         id="path133540" /><path
         style="fill:#90a334;stroke-width:0.524184"
         d="m 407.14777,470.07996 c 2.02864,-5.69124 7.05853,6.64896 0,0 z"
         id="path133542" /><path
         style="fill:#778c2b;stroke-width:0.524184"
         d="m 409.21505,428.61436 c -0.62509,-2.12215 3.04517,3.07141 0,0 z"
         id="path133544" /><path
         style="fill:#778c2b;stroke-width:0.524184"
         d="m 451.14978,434.85596 c -10.98079,-0.91962 8.37006,-0.58056 0,0 z"
         id="path133546" /><path
         style="fill:#778c2b;stroke-width:0.524184"
         d="m 441.71447,435.22473 c 5.43441,-8.24557 3.55419,1.94773 0,0 z"
         id="path133548" /><path
         style="fill:#778c2b;stroke-width:0.524184"
         d="m 439.07792,435.45795 c 2.18775,-5.96746 0.61254,2.66851 0,0 z"
         id="path133550" /><path
         style="fill:#778c2b;stroke-width:0.524184"
         d="m 435.0555,438.13075 c 0.4552,-6.85434 3.5575,0.59866 0,0 z"
         id="path133552" /><path
         style="fill:#778c2b;stroke-width:0.524184"
         d="m 431.931,438.80072 c -1.09379,-4.07315 1.92751,1.87366 0,0 z"
         id="path133554" /><path
         style="fill:#778c2b;stroke-width:0.524184"
         d="m 429.73215,439.83744 c -0.56784,-3.80789 2.50567,4.4969 0,0 z"
         id="path133556" /><path
         style="fill:#778c2b;stroke-width:0.524184"
         d="m 422.47208,445.83689 c 3.86788,-10.3596 6.29995,0.0973 0,0 z"
         id="path133558" /><path
         style="fill:#778c2b;stroke-width:0.524184"
         d="m 384.57839,450.72446 c -6.77053,-1.49828 -8.35707,-14.83078 0,0 z"
         id="path133560" /><path
         style="fill:#778c2b;stroke-width:0.524184"
         d="m 440.14191,442.82342 c -1.87924,-4.32795 -3.7322,1.92467 0,0 z"
         id="path133562" /><path
         style="fill:#778c2b;stroke-width:0.524184"
         d="m 420.7471,450.62307 c 12.05943,-12.61238 38.52016,-18.93592 19.81335,-6.94801 -1.89387,-4.59584 -24.42373,14.74454 -19.81335,6.94801 z"
         id="path133564" /><path
         style="fill:#778c2b;stroke-width:0.524184"
         d="m 391.7087,453.51323 c -13.52411,-8.52856 2.54153,-0.7438 0,0 z"
         id="path133566" /><path
         style="fill:#778c2b;stroke-width:0.524184"
         d="m 394.53789,454.91778 c -9.27554,-11.48964 3.88799,1.83092 0,0 z"
         id="path133568" /><path
         style="fill:#778c2b;stroke-width:0.524184"
         d="m 396.9586,454.73985 c -0.49905,-5.49042 2.76923,5.21285 0,0 z"
         id="path133570" /><path
         style="fill:#778c2b;stroke-width:0.524184"
         d="m 416.13163,457.1824 c 0.66131,-2.76311 -0.0555,3.925 0,0 z"
         id="path133572" /><path
         style="fill:#778c2b;stroke-width:0.524184"
         d="m 402.62043,459.35466 c -6.59319,-10.42494 3.77435,-0.55054 0,0 z"
         id="path133574" /><path
         style="fill:#778c2b;stroke-width:0.524184"
         d="m 406.58813,462.01451 c -4.9356,-10.40237 4.46414,3.95737 0,0 z"
         id="path133576" /><path
         style="fill:#778c2b;stroke-width:0.524184"
         d="m 416.65581,465.56935 c 0.66133,-2.76312 -0.0554,3.92496 0,0 z"
         id="path133578" /><path
         style="fill:#778c2b;stroke-width:0.524184"
         d="m 411.27211,465.96249 c -3.01522,-3.65013 3.48835,3.46029 0,0 z"
         id="path133580" /><path
         style="fill:#778c2b;stroke-width:0.524184"
         d="m 409.39119,468.9448 c -13.03116,-6.61822 -57.78052,-31.00793 -24.07732,-16.49906 6.41923,1.73759 29.48659,14.4265 24.07732,16.49906 z"
         id="path133582" /><path
         style="fill:#526028;stroke-width:0.524184"
         d="m 414.56,491.59866 c 11.82405,-27.15186 -28.44847,-36.3402 -30.69996,-41.64343 14.5693,6.08586 38.92716,27.88563 28.69409,-2.39458 -5.0494,-17.68859 -1.54431,-21.79171 1.84882,-1.23369 -0.15239,10.20081 49.76872,-23.85142 19.57248,-5.04356 -27.22216,7.98085 -11.59208,31.89072 -19.41543,50.31526 z"
         id="path133584" /></g></g></svg>
