<?xml version="1.0" encoding="UTF-8" standalone="no"?>
<!-- Created with Inkscape (http://www.inkscape.org/) -->

<svg
   width="186.16882mm"
   height="235.94884mm"
   viewBox="0 0 186.16882 235.94884"
   version="1.1"
   id="svg5"
   xml:space="preserve"
   xmlns="http://www.w3.org/2000/svg"
   xmlns:svg="http://www.w3.org/2000/svg"><defs
     id="defs2" /><g
     id="layer1"
     style="display:inline;opacity:1"
     transform="translate(3565.6066,295.83476)"><g
       id="g141137"><g
         id="g132350"
         transform="matrix(2.2040458,0,0,2.2040458,-4899.194,-1133.6906)"><path
           style="fill:#f6f9fb;stroke-width:0.524184"
           d="m 628.3601,398.13247 c 0.86652,5.27958 9.01832,19.21605 11.96348,12.39944 -2.35445,-5.36307 -7.53347,-8.93139 -11.96348,-12.39944 z"
           id="path132204" /><path
           style="fill:#f6f9fb;stroke-width:0.524184"
           d="m 666.77997,397.12115 c -4.96076,6.63903 -17.23082,6.76984 -19.4688,14.3857 8.25207,2.97383 16.7939,-7.14192 20.76328,-12.87826 l -1.20397,-1.41693 z"
           id="path132206" /><path
           style="fill:#f6f9fb;stroke-width:0.524184"
           d="m 619.69809,396.23335 c 3.26092,5.6976 8.72007,15.56889 15.44046,15.91077 -4.20126,-5.96697 -7.27461,-14.35819 -15.44046,-15.91077 z"
           id="path132208" /><path
           style="fill:#f6f9fb;stroke-width:0.524184"
           d="m 645.88977,396.01993 c 1.64962,2.52324 -1.41834,1.86245 0,0 z"
           id="path132210" /><path
           style="fill:#f6f9fb;stroke-width:0.524184"
           d="m 611.21334,395.87368 c -8.30256,-1.07319 -3.88042,4.519 1.92876,4.06637 4.35153,1.84799 15.92842,7.79941 7.06481,-0.22745 -2.38239,-2.29034 -5.55043,-4.22408 -8.99357,-3.83892 z"
           id="path132212" /><path
           style="fill:#f6f9fb;stroke-width:0.524184"
           d="m 652.24391,395.81268 c 0.47336,4.05748 -2.00998,1.90486 0,0 z"
           id="path132214" /><path
           style="fill:#f6f9fb;stroke-width:0.524184"
           d="m 685.67133,394.54248 c -10.55201,3.80802 -19.62678,10.702 -29.33569,16.1252 -2.53561,6.12094 11.52018,-0.51457 13.97888,-3.50361 3.06513,-4.82568 18.44915,-7.01045 15.35681,-12.62159 z"
           id="path132216" /><path
           style="fill:#f6f9fb;stroke-width:0.524184"
           d="m 632.68645,394.01848 c 0.80641,6.8707 6.50235,13.95333 11.26824,17.82703 2.31728,-7.15663 -6.41529,-13.52031 -11.26824,-17.82703 z"
           id="path132218" /><path
           style="fill:#f6f9fb;stroke-width:0.524184"
           d="m 609.30699,392.14265 c -9.60577,0.44151 1.41611,6.43691 4.05811,1.83825 -0.82027,-1.37329 -2.68193,-1.37662 -4.05811,-1.83825 z"
           id="path132220" /><path
           style="fill:#f6f9fb;stroke-width:0.524184"
           d="m 650.73857,390.95978 c 0.49751,5.37157 -1.88497,5.96713 0,0 z"
           id="path132222" /><path
           style="fill:#f6f9fb;stroke-width:0.524184"
           d="m 613.33931,387.73157 c -11.5432,3.55368 15.7648,13.92296 7.8754,5.28612 -2.29389,-2.14545 -4.74633,-4.48517 -7.8754,-5.28612 z"
           id="path132224" /><path
           style="fill:#f6f9fb;stroke-width:0.524184"
           d="m 617.21039,385.23922 c 1.01457,7.90158 13.85388,15.99733 7.23936,7.21987 2.64743,3.84143 14.38511,13.59046 5.81543,4.3403 -3.9485,-4.21771 -7.18735,-9.80512 -13.05479,-11.56017 z"
           id="path132226" /><path
           style="fill:#f6f9fb;stroke-width:0.524184"
           d="m 664.40957,384.08373 c -5.39528,3.35094 -11.42406,14.15553 -8.52159,18.15569 6.16659,-2.61797 8.46038,-12.53544 8.52159,-18.15569 z"
           id="path132228" /><path
           style="fill:#f6f9fb;stroke-width:0.524184"
           d="m 642.5923,382.97786 c -6.87955,5.34373 1.39708,21.05697 4.54735,13.42706 -0.004,-4.63028 0.42369,-11.06336 -4.54735,-13.42706 z"
           id="path132230" /><path
           style="fill:#f6f9fb;stroke-width:0.524184"
           d="m 669.89761,382.0389 c -5.48855,4.04231 -7.06925,12.3796 -9.12033,17.93141 1.19793,-0.73436 5.86206,-8.1629 3.50688,-2.5979 4.35308,-0.70271 10.82045,-7.13521 5.32681,-0.15476 -2.86019,3.98778 -4.25159,9.20092 0.67999,3.3819 2.0656,-4.11639 12.46801,-12.09443 8.30812,-14.50584 -4.16872,3.03434 -12.47772,10.57163 -7.5607,0.006 0.43757,-1.21351 0.8268,-3.90872 -1.14077,-4.06074 z"
           id="path132232" /><path
           style="fill:#f6f9fb;stroke-width:0.524184"
           d="m 632.00742,381.9733 c -4.24057,3.68414 4.65466,14.2742 -1.82719,4.74713 -3.914,-5.18106 -9.22959,-0.87245 -4.04769,3.31987 2.1479,5.0876 6.57869,6.13491 3.01185,-0.0786 3.75796,3.85147 11.8833,10.68273 9.14136,3.21361 1.48391,4.66352 4.05545,7.17609 2.13652,0.54046 -1.17897,-4.78076 -4.17524,-9.17597 -8.41485,-11.74252 z"
           id="path132234" /><path
           style="fill:#f6f9fb;stroke-width:0.524184"
           d="m 650.64246,380.14448 c -3.77781,5.32884 -6.23101,19.2586 2.5284,19.85523 4.41621,-4.74784 1.02295,-15.7341 -2.5284,-19.85523 z"
           id="path132236" /><path
           style="fill:#f3cb46;stroke-width:0.524184"
           d="m 647.63213,401.01481 c -5.4402,-2.17611 -7.01056,1.7894 0,0 z"
           id="path132238" /><path
           style="fill:#f3cb46;stroke-width:0.524184"
           d="m 652.60156,405.47191 c -0.82589,-6.88086 -7.87706,1.33019 -11.61524,-4.90186 3.30544,-6.76841 19.01566,3.4585 11.61524,4.90186 z"
           id="path132240" /><path
           style="fill:#f3cb46;stroke-width:0.524184"
           d="m 643.60101,406.20549 c -0.71531,-3.60465 2.33129,5.12256 0,0 z"
           id="path132242" /><path
           style="fill:#f3cb46;stroke-width:0.524184"
           d="m 647.71887,408.49745 c 0.85123,-1.93545 2.52618,-0.9692 0,0 z"
           id="path132244" /><path
           style="fill:#f3cb46;stroke-width:0.524184"
           d="m 644.89194,409.43877 c 3.05381,-2.70826 2.03392,3.23243 0,0 z"
           id="path132246" /><path
           style="fill:#e7a314;stroke-width:0.524184"
           d="m 645.18793,400.8532 c 3.7992,-2.10325 2.70953,0.18559 -0.19927,0.44174 z"
           id="path132248" /><path
           style="fill:#e7a314;stroke-width:0.524184"
           d="m 641.95284,400.8326 c 1.70665,-2.44459 2.07657,2.43567 0,0 z"
           id="path132250" /><path
           style="fill:#e7a314;stroke-width:0.524184"
           d="m 644.10171,406.53735 c -4.79821,-5.46521 6.71549,-4.06717 7.1816,-3.80059 5.5578,2.09566 -8.04522,10.07783 -7.1816,3.80059 z"
           id="path132252" /><path
           style="fill:#90a334;stroke-width:0.524184"
           d="m 613.51585,424.59789 c 1.85667,-0.68399 1.43268,1.01534 0,0 z"
           id="path132254" /><path
           style="fill:#90a334;stroke-width:0.524184"
           d="m 670.78297,427.159 c 2.88439,-3.25935 11.64163,-4.34136 3.91652,-0.26098 l -1.79821,0.5019 z"
           id="path132256" /><path
           style="fill:#90a334;stroke-width:0.524184"
           d="m 621.93556,427.2079 c 2.22346,-1.22662 0.0516,1.3133 0,0 z"
           id="path132258" /><path
           style="fill:#90a334;stroke-width:0.524184"
           d="m 668.02972,427.1166 c 0.73648,-4.19478 10.04444,-3.60907 2.48679,-0.84134 -0.41154,0.64715 -1.96538,2.57037 -2.48679,0.84134 z"
           id="path132260" /><path
           style="fill:#90a334;stroke-width:0.524184"
           d="m 605.06338,429.24459 c 2.85281,-6.16765 12.12831,1.09545 2.09073,0.436 z"
           id="path132262" /><path
           style="fill:#90a334;stroke-width:0.524184"
           d="m 664.64493,428.63635 c 2.62786,-4.3865 2.50196,1.09708 0.0189,1.16794 z"
           id="path132264" /><path
           style="fill:#90a334;stroke-width:0.524184"
           d="m 626.68463,429.26962 c -0.74058,-2.05197 2.34805,2.89898 0,0 z"
           id="path132266" /><path
           style="fill:#90a334;stroke-width:0.524184"
           d="m 661.15868,431.39579 c -1.72177,-6.26967 6.76794,-2.61912 0,0 z"
           id="path132268" /><path
           style="fill:#90a334;stroke-width:0.524184"
           d="m 611.18942,430.76696 c 1.2076,-6.39213 9.53595,3.25164 0,0 z"
           id="path132270" /><path
           style="fill:#90a334;stroke-width:0.524184"
           d="m 680.87352,432.98489 c 1.40906,-8.90925 9.94553,1.6926 0,0 z"
           id="path132272" /><path
           style="fill:#90a334;stroke-width:0.524184"
           d="m 677.46632,432.60129 c -1.27943,-3.07203 4.31863,1.99362 0,0 z"
           id="path132274" /><path
           style="fill:#90a334;stroke-width:0.524184"
           d="m 674.22052,433.44977 c -1.9854,-5.49193 5.4236,1.20282 0,0 z"
           id="path132276" /><path
           style="fill:#90a334;stroke-width:0.524184"
           d="m 615.84847,433.7514 c -0.80073,-7.80202 6.75489,2.42675 0,0 z"
           id="path132278" /><path
           style="fill:#90a334;stroke-width:0.524184"
           d="m 669.78369,434.17747 c 1.6059,-5.72812 5.54732,2.80843 0,0 z"
           id="path132280" /><path
           style="fill:#90a334;stroke-width:0.524184"
           d="m 665.93427,436.59327 c -4.48808,-4.74368 8.84725,-0.86394 0,0 z"
           id="path132282" /><path
           style="fill:#90a334;stroke-width:0.524184"
           d="m 655.58163,436.81838 c 0.003,-5.56886 7.38327,-8.10431 1.95751,-1.48154 l -0.90653,0.82974 z"
           id="path132284" /><path
           style="fill:#90a334;stroke-width:0.524184"
           d="m 661.56745,436.52389 c 4.24638,-3.34564 -0.69497,3.76041 0,0 z"
           id="path132286" /><path
           style="fill:#90a334;stroke-width:0.524184"
           d="m 658.19597,437.81503 c 5.61155,-1.09967 -4.18714,2.26 0,0 z"
           id="path132288" /><path
           style="fill:#90a334;stroke-width:0.524184"
           d="m 624.39267,437.52552 c -6.35325,0.91885 -5.16728,-9.04773 -1.00309,-2.02905 4.45781,-0.66583 7.23764,4.78615 1.00309,2.02905 z"
           id="path132290" /><path
           style="fill:#90a334;stroke-width:0.524184"
           d="m 639.78924,438.18075 c -0.74062,-2.05198 2.34806,2.89898 0,0 z"
           id="path132292" /><path
           style="fill:#90a334;stroke-width:0.524184"
           d="m 627.86178,439.67162 c 1.69649,-5.25918 8.41676,3.19358 0,0 z"
           id="path132294" /><path
           style="fill:#90a334;stroke-width:0.524184"
           d="m 630.01603,443.7951 c -3.9771,-6.88353 14.34384,-0.61901 2.01812,0.48918 l -1.03892,-0.10716 z"
           id="path132296" /><path
           style="fill:#90a334;stroke-width:0.524184"
           d="m 641.16656,445.38829 c 2.51175,-2.39479 2.9503,1.64607 0,0 z"
           id="path132298" /><path
           style="fill:#90a334;stroke-width:0.524184"
           d="m 635.58292,445.26148 c 1.65104,-6.59283 9.5443,3.0448 0,0 z"
           id="path132300" /><path
           style="fill:#778c2b;stroke-width:0.524184"
           d="m 651.81406,412.53076 c 2.22346,-1.22662 0.0516,1.3133 0,0 z"
           id="path132302" /><path
           style="fill:#778c2b;stroke-width:0.524184"
           d="m 648.28444,424.6393 c 0.75472,-1.90869 0.0611,2.51694 0,0 z"
           id="path132304" /><path
           style="fill:#778c2b;stroke-width:0.524184"
           d="m 676.02482,426.25553 c 3.85592,-3.53285 3.4933,1.22935 0.25026,0.51341 z"
           id="path132306" /><path
           style="fill:#778c2b;stroke-width:0.524184"
           d="m 672.78143,427.20792 c 2.22346,-1.22663 0.0516,1.3133 0,0 z"
           id="path132308" /><path
           style="fill:#778c2b;stroke-width:0.524184"
           d="m 669.86117,426.91076 c 5.7211,-4.42752 5.39602,-0.86761 -0.3531,0.84091 z"
           id="path132310" /><path
           style="fill:#778c2b;stroke-width:0.524184"
           d="m 666.99454,427.78023 c 0.9792,-3.7206 1.07418,3.35311 0,0 z"
           id="path132312" /><path
           style="fill:#778c2b;stroke-width:0.524184"
           d="m 650.90536,428.83278 c 0.75472,-1.9087 0.0611,2.51695 0,0 z"
           id="path132314" /><path
           style="fill:#778c2b;stroke-width:0.524184"
           d="m 662.22417,430.97319 c 3.57206,-7.08673 2.51794,1.14099 0,0 z"
           id="path132316" /><path
           style="fill:#778c2b;stroke-width:0.524184"
           d="m 614.17108,431.97454 c 1.87854,-3.95858 5.43297,0.10737 0,0 z"
           id="path132318" /><path
           style="fill:#778c2b;stroke-width:0.524184"
           d="m 659.40743,432.96453 c 0.7193,-6.75849 3.15922,-0.0824 -0.79788,0.94253 z"
           id="path132320" /><path
           style="fill:#778c2b;stroke-width:0.524184"
           d="m 618.44463,432.82773 c 1.91919,-5.22026 0.17639,5.80966 0,0 z"
           id="path132322" /><path
           style="fill:#778c2b;stroke-width:0.524184"
           d="m 623.72929,435.7534 c 5.09173,-3.08512 0.61916,3.64613 0,0 z"
           id="path132324" /><path
           style="fill:#778c2b;stroke-width:0.524184"
           d="m 655.58163,437.36147 c 2.02997,-2.67223 5.61364,-4.22789 0,0 z"
           id="path132326" /><path
           style="fill:#778c2b;stroke-width:0.524184"
           d="m 658.46464,436.50539 c 4.57586,-7.98457 20.63422,-6.95734 23.65397,-10.20451 1.85006,-4.00121 6.85361,2.39583 7.41163,5.6516 -0.73969,-1.293 -4.48511,-5.36696 -2.89637,-0.60273 -3.20458,-3.80724 -10.03196,2.48059 -12.3265,1.17529 -4.85206,-0.6463 -4.28259,2.69312 -9.41261,2.22864 -0.78987,0.60508 -8.8517,5.18756 -6.43012,1.75171 z"
           id="path132328" /><path
           style="fill:#778c2b;stroke-width:0.524184"
           d="m 649.89837,438.04968 c 0.45095,-3.34174 0.32347,2.87269 0,0 z"
           id="path132330" /><path
           style="fill:#778c2b;stroke-width:0.524184"
           d="m 627.81089,437.8644 c 3.56376,-2.54342 -2.16539,3.12453 0,0 z"
           id="path132332" /><path
           style="fill:#778c2b;stroke-width:0.524184"
           d="m 629.63451,440.3303 c 5.22453,-2.87787 7.34476,1.50436 0,0 z"
           id="path132334" /><path
           style="fill:#778c2b;stroke-width:0.524184"
           d="m 641.69075,442.76754 c -9.46395,-4.45969 -18.49286,-13.36424 -28.87152,-13.85211 -3.89837,1.22293 2.67237,-3.13405 -3.1709,-2.04618 -2.26958,-1.89684 11.41906,-2.52191 14.45225,1.33533 6.46985,4.05328 14.75801,6.17952 18.40508,13.6283 0.98401,1.32505 1.94876,3.66537 -0.81491,0.93466 z"
           id="path132336" /><path
           style="fill:#778c2b;stroke-width:0.524184"
           d="m 635.55375,443.10995 c 6.01579,-4.89847 -3.23717,4.93937 0,0 z"
           id="path132338" /><path
           style="fill:#778c2b;stroke-width:0.524184"
           d="m 639.98389,445.25741 c 3.88971,-3.36041 3.38015,1.29396 0,0 z"
           id="path132340" /><path
           style="fill:#778c2b;stroke-width:0.524184"
           d="m 652.04453,463.9968 c 0.46563,-3.55756 0.12804,4.38031 0,0 z"
           id="path132342" /><path
           style="fill:#778c2b;stroke-width:0.524184"
           d="m 649.85699,466.57404 c 0.75472,-1.9087 0.0611,2.51695 0,0 z"
           id="path132344" /><path
           style="fill:#778c2b;stroke-width:0.524184"
           d="m 648.80862,477.58191 c 0.75472,-1.9087 0.0611,2.51695 0,0 z"
           id="path132346" /><path
           style="fill:#526028;stroke-width:0.524184"
           d="m 648.63976,487.19708 c -1.30855,-7.97054 2.29554,-15.78072 1.31658,-23.78919 4.36234,-11.44532 -4.21235,-19.19842 -14.21896,-22.82151 -5.32728,-3.44759 -17.27771,-8.19932 -18.4646,-11.61006 9.76399,5.31595 19.49965,10.62934 28.90448,16.57595 7.66731,2.66342 2.95945,-12.98178 2.57097,-17.95259 1.27986,-7.68624 -2.97345,-11.86026 -9.98978,-13.39262 3.61503,-2.29039 16.17731,-1.66421 16.08921,-0.52239 -8.3493,4.21388 -3.02052,14.6662 -3.39572,21.78523 1.8274,11.25424 8.51097,-6.43812 14.69588,-5.98571 4.52749,-1.90776 13.55842,-4.10651 16.41499,-2.16531 -9.61901,1.16193 -20.30474,3.10372 -26.35194,11.5559 -6.5405,8.05613 -2.85131,19.17379 -4.22279,28.64254 -1.04758,5.10935 1.26967,17.75231 -3.34832,19.67976 z"
           id="path132348" /></g></g></g></svg>
