<?xml version="1.0" encoding="UTF-8" standalone="no"?>
<!-- Created with Inkscape (http://www.inkscape.org/) -->

<svg
   width="204.52599mm"
   height="276.49881mm"
   viewBox="0 0 204.52599 276.49881"
   version="1.1"
   id="svg5"
   xml:space="preserve"
   xmlns="http://www.w3.org/2000/svg"
   xmlns:svg="http://www.w3.org/2000/svg"><defs
     id="defs2" /><g
     id="layer1"
     style="display:inline;opacity:1"
     transform="translate(2757.4673,335.65355)"><g
       id="g131910"
       transform="matrix(2.2040458,0,0,2.2040458,-4608.5527,-855.74074)"
       style="display:inline"><path
         style="fill:#f6f9fb;stroke-width:0.524184"
         d="m 853.9856,277.41573 c -9.74057,-3.28651 -22.54213,13.10985 -6.54616,11.23636 7.2051,-3.47641 20.86796,0.89313 24.5105,-3.95339 -4.23961,-2.2412 -19.24514,-2.20762 -6.99655,-1.9977 6.27831,1.87136 12.01007,-1.05541 2.99702,-3.16395 -4.5307,-1.3223 -9.23443,-2.14982 -13.96481,-2.12132 z"
         id="path131774" /><g
         id="g140866"><path
           style="fill:#f6f9fb;stroke-width:0.524184"
           d="m 872.01757,298.09498 c -0.35155,3.76424 -3.62567,5.14762 0,0 z"
           id="path131756" /><path
           style="fill:#f6f9fb;stroke-width:0.524184"
           d="m 879.18458,293.60379 c -0.0953,4.70263 -3.99507,6.67451 0,0 z"
           id="path131758" /><path
           style="fill:#f6f9fb;stroke-width:0.524184"
           d="m 875.52227,292.32635 c -3.1031,5.86965 -3.56504,0.77649 -7.04199,7.61172 -2.1889,5.61402 -7.37832,21.50422 2.17304,20.24704 -2.11799,-9.1173 1.08904,-18.43003 4.85135,-26.83273 l 0.0108,-0.62856 z"
           id="path131760" /><path
           style="fill:#f6f9fb;stroke-width:0.524184"
           d="m 884.51914,291.01584 c 0.56273,4.16228 -1.31198,15.52069 -0.71245,5.37751 0.10721,-1.80619 0.32209,-3.60925 0.71245,-5.37751 z"
           id="path131762" /><path
           style="fill:#f6f9fb;stroke-width:0.524184"
           d="m 864.4692,290.76727 c -6.58734,1.12957 -26.05077,8.92559 -16.35253,15.37109 4.56725,0.50724 10.77986,-10.40127 2.79725,-5.67498 4.7,-2.93478 9.80123,-5.5151 13.55528,-9.69611 z"
           id="path131764" /><path
           style="fill:#f6f9fb;stroke-width:0.524184"
           d="m 881.59218,290.36265 c -8.14444,4.31276 -13.42343,18.50664 -9.48552,27.27379 10.1162,0.97376 5.56296,-16.56082 9.12134,-23.33291 -0.0467,-1.35966 1.48401,-2.69853 0.36418,-3.94088 z"
           id="path131766" /><path
           style="fill:#f6f9fb;stroke-width:0.524184"
           d="m 871.74162,287.3819 c -9.26616,3.99567 -15.52353,12.90899 -21.53266,20.4855 5.0535,8.48258 13.26709,-9.75471 19.91183,-12.39179 4.31748,-2.39556 8.72366,-8.14856 0.89638,-4.12501 -5.45647,3.62424 8.70845,-4.98052 0.72445,-3.9687 z"
           id="path131768" /><path
           style="fill:#f6f9fb;stroke-width:0.524184"
           d="m 902.63069,287.14424 c -14.59766,-2.23379 12.89711,11.43788 -0.83085,3.9594 -10.44639,-4.45221 3.53058,10.75011 7.39175,12.06687 15.9383,2.47299 1.44457,-16.19032 -6.5609,-16.02627 z"
           id="path131770" /><path
           style="fill:#f6f9fb;stroke-width:0.524184"
           d="m 893.14652,286.04146 c -5.51759,3.2943 8.78466,14.19906 -0.63292,4.78273 -7.86299,-6.84407 5.82541,15.64579 -0.50783,4.3771 -6.40478,-12.22393 -12.74281,3.14348 -12.09874,10.37508 -5.05881,8.93125 2.77985,26.74361 10.10394,11.37621 1.914,-7.41505 -0.80287,-20.7859 -3.78833,-18.51088 -0.94798,-16.92446 5.80264,17.66458 14.33761,5.07343 2.47002,-6.6053 -4.21436,-12.36063 -7.41373,-17.47367 z"
           id="path131772" /><path
           style="fill:#f6f9fb;stroke-width:0.524184"
           d="m 908.81688,275.74461 c -3.60388,-0.56247 -14.826,6.1254 -5.60909,4.44806 -4.90674,-0.19044 -9.67878,3.82498 -1.3868,2.22925 -6.20345,-0.24681 -10.28974,4.57886 -1.60942,3.71689 6.33393,2.1925 27.09938,-2.19492 16.36645,-9.69468 -2.55039,-0.5947 -5.19925,-0.1931 -7.76114,-0.69952 z"
           id="path131776" /><path
           style="fill:#f6f9fb;stroke-width:0.524184"
           d="m 918.69741,270.52322 c -8.29157,-1.23753 -9.03163,7.40379 -0.63089,6.52572 9.56914,1.58191 11.22252,-7.95025 0.63089,-6.52572 z"
           id="path131778" /><path
           style="fill:#f6f9fb;stroke-width:0.524184"
           d="m 923.0465,266.11729 c -5.18117,-1.76317 -10.35565,5.98393 -1.97065,4.25721 6.17677,2.66358 11.43606,-4.56969 1.97065,-4.25721 z"
           id="path131780" /><path
           style="fill:#f6f9fb;stroke-width:0.524184"
           d="m 850.55894,264.60007 c -12.16909,4.58283 4.08696,15.32152 11.38028,12.76413 7.71967,1.60995 -8.55404,-7.38767 0.71317,-2.67198 1.97989,-1.38936 -7.21362,-10.79493 -12.09345,-10.09215 z"
           id="path131782" /><path
           style="fill:#f6f9fb;stroke-width:0.524184"
           d="m 899.04021,262.97227 c -0.0645,4.3945 -3.84431,5.48201 0,0 z"
           id="path131784" /><path
           style="fill:#f6f9fb;stroke-width:0.524184"
           d="m 857.78433,257.16387 c -9.88134,4.85528 6.88953,14.85534 10.18832,20.1359 7.00624,6.86524 7.34744,0.32506 1.66133,-3.84932 3.34538,4.96392 10.49436,7.06005 3.2719,0.0913 -3.86407,-3.84483 -9.41305,-10.94219 -1.81036,-3.43524 2.09272,6.51181 13.39375,10.36885 7.93355,0.62087 -1.30019,-4.47772 -12.79294,-16.42621 -13.06776,-10.0813 3.83869,2.96268 12.68692,12.19389 11.86939,13.71 -6.3052,-5.97819 -10.89374,-15.25151 -20.04637,-17.19217 z"
           id="path131786" /><path
           style="fill:#f6f9fb;stroke-width:0.524184"
           d="m 878.84506,255.45126 c -10.62414,2.57742 4.37777,24.01603 5.64088,16.16751 -1.66461,-0.89942 5.23916,2.91243 2.49501,-3.56851 -1.35739,-4.92928 -1.2271,-12.36654 -8.13589,-12.599 z"
           id="path131788" /><path
           style="fill:#f6f9fb;stroke-width:0.524184"
           d="m 923.48007,253.53717 c -8.05928,5.33187 -14.76047,12.51231 -23.33514,17.08565 -9.28756,8.90736 17.74226,-5.70561 3.32491,1.53697 -9.95023,8.39375 5.2974,3.95925 8.59216,-0.74935 3.18731,-4.12397 20.148,-12.73565 11.41807,-17.87327 z"
           id="path131790" /><path
           style="fill:#f6f9fb;stroke-width:0.524184"
           d="m 893.8674,252.09594 c -9.8038,0.61498 -9.07808,20.2975 -3.43076,19.10924 2.87259,-5.9335 1.27943,-12.96699 3.43076,-19.10924 z"
           id="path131792" /><path
           style="fill:#f6f9fb;stroke-width:0.524184"
           d="m 914.17417,241.02429 c -8.57582,4.45354 -11.58055,15.21133 -11.90565,24.12865 5.33984,-3.36623 1.59329,-1.73298 1.15192,2.14859 8.87643,-3.57898 10.6915,-14.04464 14.39216,-21.75568 0.33287,-2.17753 -1.4144,-4.39224 -3.63843,-4.52156 z"
           id="path131794" /><path
           style="fill:#f6f9fb;stroke-width:0.524184"
           d="m 904.83573,235.96932 c -9.02306,3.24922 -8.71774,14.67606 -11.18298,22.39136 -2.77355,5.50556 -0.64093,19.72923 1.485,6.58876 1.36058,-3.45805 -3.43498,14.41867 3.58799,5.40238 5.05971,-8.68769 3.8933,-19.45799 7.55015,-28.74412 0.39508,-1.86719 0.76542,-4.67555 -1.44016,-5.63838 z"
           id="path131796" /><path
           style="fill:#f3cb46;stroke-width:0.524184"
           d="m 896.05114,274.68118 c 1.85684,-0.68393 1.4325,1.0153 0,0 z"
           id="path131798" /><path
           style="fill:#f3cb46;stroke-width:0.524184"
           d="m 893.56127,284.54489 c 3.32499,-4.83829 6.94196,-7.99436 1.639,-1.25765 z"
           id="path131800" /><path
           style="fill:#f3cb46;stroke-width:0.524184"
           d="m 890.41616,287.93503 c 0.86681,-1.80705 2.62743,-1.13667 0,0 z"
           id="path131802" /><path
           style="fill:#f3cb46;stroke-width:0.524184"
           d="m 878.35993,285.31106 c -1.78516,-1.95639 -2.63529,1.51482 0,0 z"
           id="path131804" /><path
           style="fill:#f3cb46;stroke-width:0.524184"
           d="m 874.52112,288.78817 c -3.06474,-9.66031 13.1096,-19.34647 19.91853,-13.80551 -1.9725,9.92308 -16.96616,8.56655 -19.47876,14.05359 l -0.43981,-0.24808 z"
           id="path131806" /><path
           style="fill:#f3cb46;stroke-width:0.524184"
           d="m 885.9606,289.85266 c 3.08114,-2.22743 2.30861,-0.43251 -0.14967,0.34752 z"
           id="path131808" /><path
           style="fill:#f3cb46;stroke-width:0.524184"
           d="m 882.94654,290.4067 c 1.85617,-0.68416 1.43318,1.01547 0,0 z"
           id="path131810" /><path
           style="fill:#f3cb46;stroke-width:0.524184"
           d="m 877.83574,290.20573 c 1.66907,-1.83126 4.19801,3.26148 0,0 z"
           id="path131812" /><path
           style="fill:#e7a314;stroke-width:0.524184"
           d="m 876.26319,285.03701 c 2.5127,-1.53631 1.77468,2.26154 0,0 z"
           id="path131814" /><path
           style="fill:#e7a314;stroke-width:0.524184"
           d="m 876.80105,289.49077 c -5.88865,-6.73675 12.36056,-2.21353 13.93062,-9.55307 3.79294,-9.03983 10.84908,-2.18385 4.1809,3.41544 -4.1847,5.29714 -11.5058,8.3338 -18.11152,6.13763 z"
           id="path131816" /><path
           style="fill:#90a334;stroke-width:0.524184"
           d="m 926.58414,306.9023 c 3.98143,-5.43483 9.60737,3.19822 0,0 z"
           id="path131818" /><path
           style="fill:#90a334;stroke-width:0.524184"
           d="m 923.14481,306.54296 c 5.16583,-6.42185 2.77941,3.88664 -0.15325,0.37376 z"
           id="path131820" /><path
           style="fill:#90a334;stroke-width:0.524184"
           d="m 931.30253,308.31408 c 0.41834,-3.12651 2.81902,3.07971 0,0 z"
           id="path131822" /><path
           style="fill:#90a334;stroke-width:0.524184"
           d="m 929.10751,309.26647 c 2.05445,-1.30247 0.29453,1.32727 0,0 z"
           id="path131824" /><path
           style="fill:#90a334;stroke-width:0.524184"
           d="m 919.02955,308.18304 c 3.24665,-7.58863 3.72807,3.39835 -0.0224,0.15304 z"
           id="path131826" /><path
           style="fill:#90a334;stroke-width:0.524184"
           d="m 916.5187,309.62786 c 3.45598,-4.82846 -1.20127,4.47483 0,0 z"
           id="path131828" /><path
           style="fill:#90a334;stroke-width:0.524184"
           d="m 925.28783,311.21885 c 0.53453,-3.23908 3.21281,1.04855 0,0 z"
           id="path131830" /><path
           style="fill:#90a334;stroke-width:0.524184"
           d="m 921.40992,313.42483 c 5.08141,-5.86251 1.89836,3.0538 0,0 z"
           id="path131832" /><path
           style="fill:#90a334;stroke-width:0.524184"
           d="m 911.82615,313.14742 c 1.75083,-6.6366 7.92604,-6.07546 1.23681,-0.31469 0.65456,0.69652 -2.00756,1.53149 -1.23681,0.31469 z"
           id="path131834" /><path
           style="fill:#90a334;stroke-width:0.524184"
           d="m 907.63829,315.40192 c 2.5972,-11.17887 6.91633,1.85034 0,0 z"
           id="path131836" /><path
           style="fill:#90a334;stroke-width:0.524184"
           d="m 916.99057,317.93289 c 2.45824,-6.49659 7.14563,-0.17652 0,0 z"
           id="path131838" /><path
           style="fill:#90a334;stroke-width:0.524184"
           d="m 910.07307,321.1566 c 5.26149,-3.44988 8.26639,-2.09467 1.20681,0.72004 -0.65424,1.17063 -2.02138,-0.0386 -1.20681,-0.72004 z"
           id="path131840" /><path
           style="fill:#90a334;stroke-width:0.524184"
           d="m 902.99658,322.26344 c -1.46193,-3.94975 7.51767,-8.36173 2.69162,-2.17197 -2.2308,-4.3915 0.0359,3.31184 -2.69162,2.17197 z"
           id="path131842" /><path
           style="fill:#90a334;stroke-width:0.524184"
           d="m 908.89366,324.44925 c -1.30105,-4.43257 6.09128,1.19166 0,0 z"
           id="path131844" /><path
           style="fill:#90a334;stroke-width:0.524184"
           d="m 905.53704,325.55032 c 6.54019,-1.66844 -4.47389,2.32793 0,0 z"
           id="path131846" /><path
           style="fill:#90a334;stroke-width:0.524184"
           d="m 870.69069,330.36088 c -5.76121,0.87748 -15.85216,-8.61653 -4.77881,-4.08326 0.43559,0.15488 9.76773,6.6439 4.77881,4.08326 z"
           id="path131848" /><path
           style="fill:#90a334;stroke-width:0.524184"
           d="m 852.81729,330.59191 c -4.8404,-6.66213 13.35467,-3.88909 3.42531,-0.10627 l -1.70766,0.48599 z"
           id="path131850" /><path
           style="fill:#90a334;stroke-width:0.524184"
           d="m 873.93786,330.85401 c -5.7401,-1.8867 -6.7032,-6.79405 -0.14293,-2.49939 2.09071,1.22477 3.79819,6.53375 0.14293,2.49939 z"
           id="path131852" /><path
           style="fill:#90a334;stroke-width:0.524184"
           d="m 857.91674,332.79434 c -5.68361,-0.0402 0.59622,-3.03939 1.32873,-0.74858 z"
           id="path131854" /><path
           style="fill:#90a334;stroke-width:0.524184"
           d="m 879.11533,333.97019 c -1.40481,-2.32559 4.05407,3.52985 0,0 z"
           id="path131856" /><path
           style="fill:#90a334;stroke-width:0.524184"
           d="m 881.29787,334.87241 c -4.66891,-3.44571 -9.30158,-10.45498 -1.59675,-4.01823 0.73497,0.47516 6.43431,8.16388 1.59675,4.01823 z"
           id="path131858" /><path
           style="fill:#90a334;stroke-width:0.524184"
           d="m 874.64477,341.80659 c -4.18727,-2.39443 -20.64595,-12.35255 -7.38781,-7.64466 1.1844,0.76153 15.68868,8.13172 7.38781,7.64466 z"
           id="path131860" /><path
           style="fill:#90a334;stroke-width:0.524184"
           d="m 886.60597,340.35003 c -5.21181,-5.38871 1.87268,-2.19443 2.41132,1.98496 l -0.84829,-0.55074 z"
           id="path131862" /><path
           style="fill:#90a334;stroke-width:0.524184"
           d="m 892.91526,345.5507 c -4.4757,-2.65264 -7.44203,-10.89102 -1.1462,-3.75543 1.47332,1.11168 5.24712,8.73742 1.1462,3.75543 z"
           id="path131864" /><path
           style="fill:#90a334;stroke-width:0.524184"
           d="m 888.87003,348.7143 c -7.20721,-0.1149 -15.99712,-10.61865 -5.86918,-4.71432 4.82705,2.87785 2.88363,1.3877 7.27144,5.47769 z"
           id="path131866" /><path
           style="fill:#778c2b;stroke-width:0.524184"
           d="m 926.06069,306.21731 c 4.99173,-4.90447 -1.50803,3.65768 0,0 z"
           id="path131868" /><path
           style="fill:#778c2b;stroke-width:0.524184"
           d="m 921.35467,308.183 c 1.34381,-5.89175 3.55712,1.75926 0,0 z"
           id="path131870" /><path
           style="fill:#778c2b;stroke-width:0.524184"
           d="m 914.0229,311.91832 c 1.6326,-7.28622 6.65698,-1.38622 4.21611,-3.79397 -1.04455,0.0245 -4.84175,7.37991 -4.21611,3.79397 z"
           id="path131872" /><path
           style="fill:#778c2b;stroke-width:0.524184"
           d="m 909.81098,314.36255 c 1.62847,-8.01601 5.10569,-0.80385 0,0 z"
           id="path131874" /><path
           style="fill:#778c2b;stroke-width:0.524184"
           d="m 907.37043,316.17272 c 3.78828,-3.58876 2.88444,4.53138 0,0 z"
           id="path131876" /><path
           style="fill:#778c2b;stroke-width:0.524184"
           d="m 906.14169,319.3861 c 0.86696,-1.80728 2.62719,-1.13638 0,0 z"
           id="path131878" /><path
           style="fill:#778c2b;stroke-width:0.524184"
           d="m 904.6713,319.84614 c 0.54092,-2.87617 0.0982,3.68449 0,0 z"
           id="path131880" /><path
           style="fill:#778c2b;stroke-width:0.524184"
           d="m 902.99658,323.05542 c 0.86689,-1.80713 2.62733,-1.13656 0,0 z"
           id="path131882" /><path
           style="fill:#778c2b;stroke-width:0.524184"
           d="m 903.52077,325.59621 c 6.00626,-8.85232 18.26926,-19.03334 28.26508,-17.45249 -7.90438,3.04953 -16.50718,10.05685 -21.42373,14.15251 4.36926,-2.86205 -5.47043,6.16303 -6.84135,3.29998 z"
           id="path131884" /><path
           style="fill:#778c2b;stroke-width:0.524184"
           d="m 864.10867,328.66129 c 2.05446,-1.30248 0.29451,1.32727 0,0 z"
           id="path131886" /><path
           style="fill:#778c2b;stroke-width:0.524184"
           d="m 872.92427,330.77907 c -4.5761,0.44611 -9.12776,-7.90095 -2.00388,-2.04614 0.54445,0.18903 5.71223,4.6287 2.00388,2.04614 z"
           id="path131888" /><path
           style="fill:#778c2b;stroke-width:0.524184"
           d="m 901.46539,333.95543 c 0.75478,-1.90867 0.0611,2.51695 0,0 z"
           id="path131890" /><path
           style="fill:#778c2b;stroke-width:0.524184"
           d="m 881.70815,336.31251 c -4.42969,-2.80325 -12.02076,-12.6323 -3.05747,-4.02199 1.26838,0.10821 7.95206,7.28817 3.05747,4.02199 z"
           id="path131892" /><path
           style="fill:#778c2b;stroke-width:0.524184"
           d="m 901.5068,339.50304 c 0.45098,-3.34205 0.3235,2.87274 0,0 z"
           id="path131894" /><path
           style="fill:#778c2b;stroke-width:0.524184"
           d="m 899.89284,342.86656 c 0.75481,-1.90865 0.0611,2.51697 0,0 z"
           id="path131896" /><path
           style="fill:#778c2b;stroke-width:0.524184"
           d="m 888.31943,341.40187 c -0.86686,-1.8071 -2.62737,-1.13662 0,0 z"
           id="path131898" /><path
           style="fill:#778c2b;stroke-width:0.524184"
           d="m 890.72486,344.18048 c -4.06963,-2.5238 -5.41122,-8.80672 -0.67008,-1.70542 0.57081,0.67447 3.93057,5.62891 0.67008,1.70542 z"
           id="path131900" /><path
           style="fill:#778c2b;stroke-width:0.524184"
           d="m 894.54275,347.49685 c -1.09098,-2.41791 3.33937,4.06995 0,0 z"
           id="path131902" /><path
           style="fill:#778c2b;stroke-width:0.524184"
           d="m 890.34629,348.84101 c -5.03423,-3.66844 -2.15459,-0.47365 -6.65116,-4.77902 -8.22074,-1.42105 -4.32398,-3.02854 -11.16682,-5.86493 -0.32228,-7.42865 -23.75969,-3.50503 -13.28279,-10.39973 -4.19512,-5.20228 8.00042,4.95038 11.99013,4.85302 8.9629,3.52243 16.02046,10.76469 22.70401,17.26592 l -1.88256,-0.26515 z"
           id="path131904" /><path
           style="fill:#778c2b;stroke-width:0.524184"
           d="m 897.16367,351.69033 c -0.58992,-2.13935 2.77542,3.88419 0,0 z"
           id="path131906" /><path
           style="fill:#526028;stroke-width:0.524184"
           d="m 896.77646,361.04901 c 5.27353,-13.34424 -13.16451,-17.58353 -19.7977,-25.75657 -4.43298,-2.62225 -22.39804,-8.9344 -8.94727,-5.7407 12.79394,2.1091 20.01098,16.28466 31.12776,19.24094 2.8452,-12.67096 -0.37844,-26.76339 -2.48356,-39.66276 1.03385,-4.11548 2.74905,9.03739 3.49575,12.60777 5.14923,5.20163 10.02458,-10.29414 17.26679,-11.17339 3.75077,-2.44085 12.80161,-3.94201 4.1191,-0.24094 -8.38871,4.11166 -17.59029,10.71416 -19.98975,20.2584 -0.27556,10.23415 0.92585,21.14347 -3.50555,30.69217 l -0.43938,0.14597 z"
           id="path131908" /></g></g></g></svg>
