<?xml version="1.0" encoding="UTF-8" standalone="no"?>
<!-- Created with Inkscape (http://www.inkscape.org/) -->

<svg
   width="157.81975mm"
   height="275.56058mm"
   viewBox="0 0 157.81975 275.56058"
   version="1.1"
   id="svg5"
   xml:space="preserve"
   xmlns="http://www.w3.org/2000/svg"
   xmlns:svg="http://www.w3.org/2000/svg"><defs
     id="defs2" /><g
     id="layer1"
     style="display:inline;opacity:1"
     transform="translate(3331.5623,336.39977)"><g
       id="g141061"><g
         id="g132524"
         transform="matrix(2.2040458,0,0,2.2040458,-4941.5913,-1153.9996)"><path
           style="fill:#f6f9fb;stroke-width:0.524184"
           d="m 765.06955,428.52727 c -5.43636,3.86021 3.34459,14.91019 3.01959,5.14767 -0.65764,-1.90527 -1.93216,-3.4848 -3.01959,-5.14767 z"
           id="path132352" /><path
           style="fill:#f6f9fb;stroke-width:0.524184"
           d="m 758.06894,425.99358 c -6.54478,0.67451 -9.78272,16.34418 -1.07198,10.89646 3.8744,-5.41503 -0.0789,-8.84457 -0.58519,-6.96435 0.521,-1.32541 1.35607,-2.52016 1.65717,-3.93211 z"
           id="path132354" /><path
           style="fill:#f6f9fb;stroke-width:0.524184"
           d="m 763.34459,418.26126 c 0.20306,5.46714 -3.08189,10.23494 -0.66146,1.96233 z"
           id="path132356" /><path
           style="fill:#f6f9fb;stroke-width:0.524184"
           d="m 767.75311,417.08259 c -5.47556,5.42313 2.69078,25.41043 5.64991,12.58904 -0.42217,-4.80279 -5.53927,-12.07032 -3.26713,-2.77714 -1.24901,-1.00273 -1.09447,-7.29294 -2.38278,-9.8119 z"
           id="path132358" /><path
           style="fill:#f6f9fb;stroke-width:0.524184"
           d="m 741.02347,416.09402 c 3.23868,0.57665 -6.22228,0.95883 0,0 z"
           id="path132360" /><path
           style="fill:#f6f9fb;stroke-width:0.524184"
           d="m 781.86439,416.05632 c 2.10762,3.74481 3.57543,14.31828 11.14944,11.70867 2.17568,-6.36172 -6.81791,-9.60767 -11.14944,-11.70867 z"
           id="path132362" /><path
           style="fill:#f6f9fb;stroke-width:0.524184"
           d="m 759.89777,415.39591 c -3.07854,5.68748 -17.55911,11.70717 -12.4614,17.47153 5.63421,1.02995 14.19086,-17.53655 11.92017,-4.09802 -0.11858,11.72122 5.87794,2.05085 5.94101,-3.76795 3.30964,-4.0988 -1.55858,-12.07117 -4.72426,-5.59449 -0.73272,-3.97092 -6.90252,8.52132 -3.02889,0.80684 0.99471,-1.47514 2.25732,-2.94678 2.35337,-4.81791 z"
           id="path132364" /><path
           style="fill:#f6f9fb;stroke-width:0.524184"
           d="m 772.44998,415.21918 c -3.88009,6.6703 2.33324,17.02604 6.58123,21.82501 8.47747,-6.45881 -2.86826,-15.83993 -6.58123,-21.82501 z"
           id="path132366" /><path
           style="fill:#f6f9fb;stroke-width:0.524184"
           d="m 756.34864,414.88845 c -3.21372,4.42906 -8.44413,6.83689 -1.69195,1.43898 z"
           id="path132368" /><path
           style="fill:#f6f9fb;stroke-width:0.524184"
           d="m 793.27455,413.1144 c -5.409,4.711 14.57488,2.51271 2.59717,0.21694 l -1.29816,-0.11608 z"
           id="path132370" /><path
           style="fill:#f6f9fb;stroke-width:0.524184"
           d="m 776.36498,411.84057 c -5.88172,3.52144 5.86112,18.24289 8.10289,14.29636 -1.16018,-5.50946 -4.61513,-10.05278 -8.10289,-14.29636 z"
           id="path132372" /><path
           style="fill:#f6f9fb;stroke-width:0.524184"
           d="m 753.91984,408.72397 c -4.807,2.66149 -4.11296,0.32882 0,0 z"
           id="path132374" /><path
           style="fill:#f6f9fb;stroke-width:0.524184"
           d="m 753.99274,407.69716 c -7.96178,-0.31881 -23.28842,1.92568 -15.82814,13.47115 4.57135,6.77584 14.5674,-10.71352 15.74099,-6.65717 -3.73138,3.16132 -18.80835,10.91167 -10.69371,14.11427 5.24508,-2.8282 18.30269,-11.4283 11.90857,-16.85706 -4.91489,-0.58616 -16.51325,6.87924 -6.10547,0.97202 1.31646,-0.98256 7.62228,-2.65646 4.97776,-5.04321 z"
           id="path132376" /><path
           style="fill:#f6f9fb;stroke-width:0.524184"
           d="m 782.1719,406.70342 c 7.25274,-0.0603 -0.91377,1.87555 0,0 z"
           id="path132378" /><path
           style="fill:#f6f9fb;stroke-width:0.524184"
           d="m 781.13578,405.15161 c -3.21838,2.453 4.0927,4.5577 -1.97123,4.30803 -2.63286,5.16613 13.22234,13.66445 15.30959,8.81606 -2.42714,-4.30194 -12.30568,-8.91892 -2.58457,-5.88898 8.1984,3.31385 13.04518,-4.29401 2.31337,-4.74383 -4.29655,-1.11067 -8.67367,-1.88251 -13.06716,-2.49128 z"
           id="path132380" /><path
           style="fill:#f6f9fb;stroke-width:0.524184"
           d="m 738.07485,401.21283 c -9.04572,-0.59063 -4.38366,10.87732 2.59728,6.51063 5.48443,1.99259 19.16174,-2.60477 6.91307,-4.32905 -3.18034,-0.68078 -6.36615,-1.34547 -9.51035,-2.18158 z"
           id="path132382" /><path
           style="fill:#f6f9fb;stroke-width:0.524184"
           d="m 798.69957,397.28495 c -5.05818,-0.26031 -24.47403,0.31049 -14.42941,4.75677 4.405,-0.44278 13.31183,1.73145 4.12837,0.84783 -6.42996,-1.13339 -7.87517,2.81694 -0.7549,2.59883 3.9733,2.98646 17.62003,1.30702 10.11735,-3.13576 -4.71068,0.71471 10.89889,-3.01095 0.93859,-5.06767 z"
           id="path132384" /><path
           style="fill:#f6f9fb;stroke-width:0.524184"
           d="m 754.00669,393.78593 c 4.34568,1.74072 0.59178,2.447 0,0 z"
           id="path132386" /><path
           style="fill:#f6f9fb;stroke-width:0.524184"
           d="m 735.16081,392.51779 c -4.61336,8.80194 12.49983,10.69269 17.16039,10.37592 -5.26057,-2.45539 -9.31325,-4.05885 -1.5276,-1.28477 6.00278,-0.94788 -8.3875,-4.4143 -9.89171,-6.60058 -1.85422,-0.95694 -3.75089,-1.85008 -5.74108,-2.49057 z"
           id="path132388" /><path
           style="fill:#f6f9fb;stroke-width:0.524184"
           d="m 737.73585,388.80487 c -1.40887,7.4913 13.34786,9.30151 14.61367,10.0927 -5.27321,-3.06846 -1.36974,-1.28376 -2.45793,-3.49506 -3.0864,-3.44096 -7.19742,-7.01079 -12.15574,-6.59764 z"
           id="path132390" /><path
           style="fill:#f6f9fb;stroke-width:0.524184"
           d="m 759.48129,388.08762 c 2.65468,3.49465 -0.0469,5.21161 0,0 z"
           id="path132392" /><path
           style="fill:#f6f9fb;stroke-width:0.524184"
           d="m 794.90807,386.67996 c -5.56694,1.32304 -14.73716,7.01074 -15.08094,10.38309 6.1258,2.26714 22.32584,-2.85317 16.42043,-10.03582 z"
           id="path132394" /><path
           style="fill:#f6f9fb;stroke-width:0.524184"
           d="m 790.44271,382.56238 c -5.36426,-0.38339 -16.82474,11.34654 -10.73403,11.84758 2.03064,-3.49096 17.42814,-6.73081 10.73403,-11.84758 z"
           id="path132396" /><path
           style="fill:#f6f9fb;stroke-width:0.524184"
           d="m 742.05341,381.9113 c -1.44188,7.09948 9.03977,15.67139 14.7006,14.12071 0.23816,-6.94249 -8.71942,-12.47293 -14.7006,-14.12071 z"
           id="path132398" /><path
           style="fill:#f6f9fb;stroke-width:0.524184"
           d="m 747.00402,376.45116 c -8.31319,3.92984 10.37474,14.34791 2.50822,3.1246 -0.51851,-1.2324 -1.2229,-2.53663 -2.50822,-3.1246 z"
           id="path132400" /><path
           style="fill:#f6f9fb;stroke-width:0.524184"
           d="m 752.52254,374.61355 c -6.24157,4.81116 2.48676,19.60804 8.27237,17.50223 2.94307,-6.67917 -4.0554,-13.17449 -8.27237,-17.50223 z"
           id="path132402" /><path
           style="fill:#f6f9fb;stroke-width:0.524184"
           d="m 766.25245,371.54217 c -7.28026,3.61863 0.98593,13.63586 0.16617,18.79617 0.0578,-7.23578 2.78233,3.71423 2.95327,-4.06659 -0.78166,-4.48618 1.85325,-12.24795 -3.11944,-14.72958 z"
           id="path132404" /><path
           style="fill:#f6f9fb;stroke-width:0.524184"
           d="m 758.92577,370.9882 c -6.45574,5.82085 4.24287,15.14641 4.45667,19.56506 -0.0668,-3.9414 -3.36125,-17.59392 -0.26965,-6.04568 0.27391,6.25468 3.07241,6.33529 1.30391,0.1978 -1.16851,-4.66222 -0.46749,-11.18568 -5.49093,-13.71718 z"
           id="path132406" /><path
           style="fill:#f6f9fb;stroke-width:0.524184"
           d="m 775.0452,370.9541 c -8.17657,5.94227 -4.09986,14.98632 -3.89706,21.20635 4.02418,0.3473 10.53283,-13.12188 5.3149,-3.64187 -2.80499,13.79827 11.32279,-18.81278 6.92594,-4.69876 12.82256,1.52974 -2.16287,-16.58459 -5.38756,-4.39764 -1.85473,3.77124 -9.58236,14.1816 -4.3435,4.98546 3.1821,-3.80372 11.1358,-12.13196 1.38728,-13.45354 z"
           id="path132408" /><path
           style="fill:#f3cb46;stroke-width:0.524184"
           d="m 753.70627,403.19143 c 0.54109,-2.87611 0.0977,3.68455 0,0 z"
           id="path132410" /><path
           style="fill:#f3cb46;stroke-width:0.524184"
           d="m 754.32446,406.87801 c -1.36708,-4.96924 1.69858,2.01484 0,0 z"
           id="path132412" /><path
           style="fill:#f3cb46;stroke-width:0.524184"
           d="m 777.23376,410.20108 c 1.4929,-5.2119 1.04302,1.78629 0,0 z"
           id="path132414" /><path
           style="fill:#f3cb46;stroke-width:0.524184"
           d="m 766.33221,394.54242 c -1.15943,-3.01423 -3.07218,2.39262 0,0 z"
           id="path132416" /><path
           style="fill:#f3cb46;stroke-width:0.524184"
           d="m 772.9989,395.56404 c -3.00005,-4.09429 -6.77596,0.28774 0,0 z"
           id="path132418" /><path
           style="fill:#f3cb46;stroke-width:0.524184"
           d="m 759.38996,398.21171 c 9.2203,-7.20082 -4.09943,0.95544 0,0 z"
           id="path132420" /><path
           style="fill:#f3cb46;stroke-width:0.524184"
           d="m 777.19237,401.33078 c -2.32993,-7.45167 -3.6536,1.02242 0,0 z"
           id="path132422" /><path
           style="fill:#f3cb46;stroke-width:0.524184"
           d="m 760.04617,401.35678 c -1.06802,-3.05311 -0.11667,3.10127 0,0 z"
           id="path132424" /><path
           style="fill:#f3cb46;stroke-width:0.524184"
           d="m 762.51521,407.05187 c -2.30151,-5.76747 -5.3213,-0.57318 0,0 z"
           id="path132426" /><path
           style="fill:#f3cb46;stroke-width:0.524184"
           d="m 767.10182,408.36498 c 2.75487,-3.78697 -5.85906,1.71164 0,0 z"
           id="path132428" /><path
           style="fill:#f3cb46;stroke-width:0.524184"
           d="m 763.20136,409.56848 c -10.09084,-3.25615 -8.95786,-18.41838 2.38359,-18.35894 7.5582,-1.55021 16.8417,6.38884 14.47393,13.8005 2.05727,-5.6966 -9.19154,1.19489 -8.17044,2.89911 -2.20761,1.82557 -5.99882,3.00184 -8.68708,1.65933 z"
           id="path132430" /><path
           style="fill:#f3cb46;stroke-width:0.524184"
           d="m 773.94965,413.52779 c 4.04218,-3.84378 -2.47069,3.73978 0,0 z"
           id="path132432" /><path
           style="fill:#f3cb46;stroke-width:0.524184"
           d="m 756.86722,412.63203 c -4.60458,-6.59401 1.1985,-0.008 1.61922,1.62796 z"
           id="path132434" /><path
           style="fill:#f3cb46;stroke-width:0.524184"
           d="m 767.84821,416.70284 c 7.02992,-2.92004 -1.4035,1.30644 -0.95534,0.0964 l 0.57514,-0.058 z"
           id="path132436" /><path
           style="fill:#f3cb46;stroke-width:0.524184"
           d="m 762.64626,416.54179 c -3.16731,-2.25956 5.66936,2.1749 0,0 z"
           id="path132438" /><path
           style="fill:#e7a314;stroke-width:0.524184"
           d="m 769.10231,394.56031 c -0.62904,-2.43431 4.61714,1.79792 0,0 z"
           id="path132440" /><path
           style="fill:#e7a314;stroke-width:0.524184"
           d="m 764.08777,394.58211 c 1.7191,-3.05279 3.85633,1.82815 0,0 z"
           id="path132442" /><path
           style="fill:#e7a314;stroke-width:0.524184"
           d="m 772.47471,395.69462 c -5.21853,-0.54579 1.88934,-0.89522 0,0 z"
           id="path132444" /><path
           style="fill:#e7a314;stroke-width:0.524184"
           d="m 758.36312,398.68609 c 4.7675,-6.02835 2.90678,-0.37503 0,0 z"
           id="path132446" /><path
           style="fill:#e7a314;stroke-width:0.524184"
           d="m 776.144,401.09469 c -3.63314,-7.07744 3.65308,2.76892 0,0 z"
           id="path132448" /><path
           style="fill:#e7a314;stroke-width:0.524184"
           d="m 760.54952,406.35712 c -4.96123,-5.87685 5.8594,3.64396 0,0 z"
           id="path132450" /><path
           style="fill:#e7a314;stroke-width:0.524184"
           d="m 764.61195,408.22726 c 3.62888,-2.22355 3.11155,0.294 0.66346,0.41264 z"
           id="path132452" /><path
           style="fill:#e7a314;stroke-width:0.524184"
           d="m 762.18743,415.84185 c -6.77069,-0.60618 -9.71555,-14.53708 -6.69589,-14.5195 2.84138,8.6599 13.80706,11.26946 18.63151,4.25442 11.55382,-9.83281 2.87405,10.85057 -5.13149,10.64926 -2.23339,0.84189 -4.63425,0.47515 -6.80413,-0.38418 z"
           id="path132454" /><path
           style="fill:#90a334;stroke-width:0.524184"
           d="m 771.42634,395.06654 c -1.11831,-2.04799 3.09028,2.42033 0,0 z"
           id="path132456" /><path
           style="fill:#90a334;stroke-width:0.524184"
           d="m 733.59981,442.1121 c -8.759,-7.42374 4.19792,-2.7381 0,0 z"
           id="path132458" /><path
           style="fill:#90a334;stroke-width:0.524184"
           d="m 757.8676,443.55364 c 0.91709,-6.95954 0.66845,4.43667 0,0 z"
           id="path132460" /><path
           style="fill:#90a334;stroke-width:0.524184"
           d="m 737.25984,444.19436 c -2.48194,-5.99848 5.48467,4.99148 0.12206,0.18159 z"
           id="path132462" /><path
           style="fill:#90a334;stroke-width:0.524184"
           d="m 755.8294,447.18172 c -1.91663,-4.7754 3.48187,-9.73941 1.22702,-1.35516 l -0.30635,0.99257 z"
           id="path132464" /><path
           style="fill:#90a334;stroke-width:0.524184"
           d="m 733.6454,447.09192 c -3.22436,-3.90445 3.66075,3.69535 0,0 z"
           id="path132466" /><path
           style="fill:#90a334;stroke-width:0.524184"
           d="m 756.82645,449.27994 c 0.3814,-4.32859 2.45616,4.36223 0,0 z"
           id="path132468" /><path
           style="fill:#90a334;stroke-width:0.524184"
           d="m 762.61414,450.79567 c -5.50638,-10.73154 4.2833,2.00011 0,0 z"
           id="path132470" /><path
           style="fill:#90a334;stroke-width:0.524184"
           d="m 740.76528,453.78119 c 1.22202,-1.1429 1.13461,2.06605 0,0 z"
           id="path132472" /><path
           style="fill:#90a334;stroke-width:0.524184"
           d="m 764.43722,456.04667 c -2.81761,-3.97953 1.96553,-1.87369 0,0 z"
           id="path132474" /><path
           style="fill:#90a334;stroke-width:0.524184"
           d="m 752.9474,455.88023 c -2.05498,-4.42658 -9.43674,-9.30011 -3.06215,-2.49813 -2.22098,-1.12747 -12.4799,-9.57692 -6.86196,-5.58935 -3.36923,-6.44078 10.84027,1.16089 10.45205,5.42958 0.16615,0.3913 1.35452,4.13459 -0.52794,2.6579 z"
           id="path132476" /><path
           style="fill:#90a334;stroke-width:0.524184"
           d="m 746.62941,457.16584 c -3.01351,-3.65466 3.83678,3.13863 0,0 z"
           id="path132478" /><path
           style="fill:#90a334;stroke-width:0.524184"
           d="m 757.25896,458.11585 c -8.5929,-6.73542 6.19873,-5.00513 0.81604,0.60643 z"
           id="path132480" /><path
           style="fill:#90a334;stroke-width:0.524184"
           d="m 749.55163,458.65379 c 2.93545,-1.41367 0.96051,1.2211 0,0 z"
           id="path132482" /><path
           style="fill:#90a334;stroke-width:0.524184"
           d="m 759.99766,457.59697 c -1.19791,-3.81031 -1.96244,-9.00022 1.0797,-2.15317 0.64276,1.32174 0.47746,5.90251 -1.0797,2.15317 z"
           id="path132484" /><path
           style="fill:#90a334;stroke-width:0.524184"
           d="m 763.17044,459.79479 c 1.51573,-4.1061 2.39856,-1.50066 0,0 z"
           id="path132486" /><path
           style="fill:#90a334;stroke-width:0.524184"
           d="m 755.60253,461.27989 c 2.22343,-1.22663 0.0516,1.31333 0,0 z"
           id="path132488" /><path
           style="fill:#778c2b;stroke-width:0.524184"
           d="m 766.6104,407.8131 c 2.22349,-1.22665 0.0516,1.31334 0,0 z"
           id="path132490" /><path
           style="fill:#778c2b;stroke-width:0.524184"
           d="m 769.37099,439.31666 c 0.75472,-1.90869 0.0611,2.51694 0,0 z"
           id="path132492" /><path
           style="fill:#778c2b;stroke-width:0.524184"
           d="m 756.77283,444.05179 c 0.53527,-7.18455 2.48083,-0.28605 0,0 z"
           id="path132494" /><path
           style="fill:#778c2b;stroke-width:0.524184"
           d="m 769.89518,447.17942 c 0.75472,-1.90868 0.0611,2.51696 0,0 z"
           id="path132496" /><path
           style="fill:#778c2b;stroke-width:0.524184"
           d="m 756.07854,447.33543 c 1.48457,-2.65932 2.1148,2.83659 0,0 z"
           id="path132498" /><path
           style="fill:#778c2b;stroke-width:0.524184"
           d="m 744.3587,449.60794 c -5.12416,-2.54833 -6.54481,-8.50198 -0.46124,-1.59574 -0.0379,-0.45331 2.599,3.66079 0.46124,1.59574 z"
           id="path132500" /><path
           style="fill:#778c2b;stroke-width:0.524184"
           d="m 758.84592,451.67847 c -2.4594,-3.20512 4.2663,3.40104 0,0 z"
           id="path132502" /><path
           style="fill:#778c2b;stroke-width:0.524184"
           d="m 748.29537,452.85788 c -0.81445,-2.30616 2.99446,3.89429 0,0 z"
           id="path132504" /><path
           style="fill:#778c2b;stroke-width:0.524184"
           d="m 758.83541,454.54881 c -1.1837,-3.18736 3.06094,3.04915 0,0 z"
           id="path132506" /><path
           style="fill:#778c2b;stroke-width:0.524184"
           d="m 751.76944,455.44309 c -3.99379,-4.31302 -6.4918,-8.88241 -0.80894,-2.2668 0.32939,0.3533 2.87209,3.82673 0.80894,2.2668 z"
           id="path132508" /><path
           style="fill:#778c2b;stroke-width:0.524184"
           d="m 755.83186,457.8531 c -3.52839,-1.9616 -2.19621,-7.63649 -0.2764,-1.27635 0.22741,0.0331 3.19772,3.30993 0.2764,1.27635 z"
           id="path132510" /><path
           style="fill:#778c2b;stroke-width:0.524184"
           d="m 763.0021,458.62738 c 1.54255,-4.11269 -7.67572,-13.61073 -3.1487,-13.70487 2.38144,3.38215 7.31493,12.64174 3.1487,13.70487 z"
           id="path132512" /><path
           style="fill:#778c2b;stroke-width:0.524184"
           d="m 755.37064,461.13918 c -8.81231,-4.49269 -23.91715,-10.67248 -23.49785,-21.09111 4.11408,2.41115 6.64116,4.54779 3.83287,5.09513 6.8144,6.23843 14.87747,11.06719 22.39085,16.26177 -0.44268,1.07318 -2.33884,-0.9069 -2.72587,-0.26579 z"
           id="path132514" /><path
           style="fill:#778c2b;stroke-width:0.524184"
           d="m 768.76575,466.48667 c -3.22438,-3.90444 3.66076,3.69536 0,0 z"
           id="path132516" /><path
           style="fill:#778c2b;stroke-width:0.524184"
           d="m 771.35948,471.72852 c -0.38262,-1.79182 2.22321,2.94538 0,0 z"
           id="path132518" /><path
           style="fill:#778c2b;stroke-width:0.524184"
           d="m 775.19782,486.01254 c 0.54108,-2.87612 0.0978,3.68451 0,0 z"
           id="path132520" /><path
           style="fill:#526028;stroke-width:0.524184"
           d="m 774.05304,495.97899 c 2.12542,-10.32311 2.69072,-23.11742 -7.57518,-29.48609 -9.97803,-7.52721 -22.0891,-12.31695 -30.66764,-21.57493 6.84258,1.98724 15.27701,11.69784 23.75192,14.70208 6.55226,0.9715 -6.59075,-20.66525 1.12743,-9.33337 1.11234,6.24833 5.59538,20.46563 12.1859,16.58397 -1.5684,-9.00534 -4.12031,-25.73997 -2.61528,-30.18294 3.21476,10.44491 2.59263,21.67791 5.62916,32.23943 0.2551,6.76643 5.35979,25.42751 -1.83631,27.05185 z"
           id="path132522" /></g></g></g></svg>
