<?xml version="1.0" encoding="UTF-8" standalone="no"?>
<!-- Created with Inkscape (http://www.inkscape.org/) -->

<svg
   width="174.4077mm"
   height="288.04758mm"
   viewBox="0 0 174.4077 288.04758"
   version="1.1"
   id="svg5"
   xml:space="preserve"
   xmlns="http://www.w3.org/2000/svg"
   xmlns:svg="http://www.w3.org/2000/svg"><defs
     id="defs2" /><g
     id="layer1"
     style="display:inline;opacity:1"
     transform="translate(2522.3393,347.41621)"><g
       id="g142379"><g
         id="g132202"
         transform="matrix(2.2040458,0,0,2.2040458,-3596.7221,-1159.5229)"><path
           style="fill:#f6f9fb;stroke-width:0.524184"
           d="m 506.27449,433.88867 c -7.71061,-1.2177 -21.79656,9.59866 -14.33516,15.72963 6.72492,-1.72399 10.11464,-10.58463 14.33516,-15.72963 z"
           id="path132120" /><path
           style="fill:#f6f9fb;stroke-width:0.524184"
           d="m 516.35036,432.57506 c -0.0495,4.63071 -9.64069,-1.57003 -6.99286,5.57427 -2.84554,-11.8755 -11.4122,14.90964 -2.61441,15.11596 5.97844,-2.82623 0.29474,-15.77249 9.43072,-10.70699 5.27449,-1.88855 4.62624,-7.53756 0.17655,-9.98324 z"
           id="path132122" /><path
           style="fill:#f6f9fb;stroke-width:0.524184"
           d="m 504.0922,431.82316 c 3.57405,0.41977 -3.73182,0.33147 0,0 z"
           id="path132124" /><path
           style="fill:#f6f9fb;stroke-width:0.524184"
           d="m 520.40541,430.32509 c 0.36543,4.68695 2.59723,2.62709 -1.3288,3.37226 1.32851,5.17222 13.18232,18.70454 11.45617,5.65762 -0.97188,-5.46794 -6.24131,-6.42628 -10.12737,-9.02988 z"
           id="path132126" /><path
           style="fill:#f6f9fb;stroke-width:0.524184"
           d="m 525.16481,428.64199 c -4.87741,2.57326 8.10607,7.53458 13.76537,11.1992 8.37854,0.92504 -2.3127,-12.21313 -8.3716,-10.8703 -1.77292,-0.4585 -3.58645,-0.36788 -5.39377,-0.3289 z"
           id="path132128" /><path
           style="fill:#f6f9fb;stroke-width:0.524184"
           d="m 533.49454,420.05237 c -3.99039,-3.61164 -14.74384,7.14841 -6.76593,5.59653 -11.50114,4.28887 8.074,0.47222 11.8609,0.92164 13.85359,-0.33432 0.47975,-8.0052 -5.09497,-6.51817 z"
           id="path132130" /><path
           style="fill:#f6f9fb;stroke-width:0.524184"
           d="m 521.6627,416.03412 c -5.80122,-0.99396 -7.96981,12.59627 -12.27063,2.95183 -4.62539,-4.33454 -14.45283,0.9116 -4.61835,3.39925 9.91114,7.01412 -9.06579,-6.48523 -13.16828,-1.69455 -7.42847,6.24131 16.06874,5.92982 14.01255,5.69061 -11.09944,-4.5369 13.91125,4.32358 15.29257,-6.12809 0.12148,-0.76511 2.98767,-4.47562 0.75214,-4.21905 z"
           id="path132132" /><path
           style="fill:#f6f9fb;stroke-width:0.524184"
           d="m 534.82779,411.84057 c -6.29846,-0.16123 -17.84014,9.07585 -13.85351,13.00726 4.48113,-5.27173 13.0975,-7.01842 15.88713,-12.67544 l -0.67452,-0.3814 z"
           id="path132134" /><path
           style="fill:#f6f9fb;stroke-width:0.524184"
           d="m 529.18992,398.47405 c 2.30437,2.14443 1.34305,4.02638 0,0 z"
           id="path132136" /><path
           style="fill:#f6f9fb;stroke-width:0.524184"
           d="m 531.50451,397.35835 c 2.17325,0.9812 1.36848,4.899 0,0 z"
           id="path132138" /><path
           style="fill:#f6f9fb;stroke-width:0.524184"
           d="m 537.06489,397.25555 c 3.30371,5.67244 0.92275,2.20389 -0.32106,3.4743 0.43872,8.87745 20.21271,9.09391 10.07509,0.79884 -3.17773,-1.59404 -6.74605,-2.32569 -9.75403,-4.27314 z"
           id="path132140" /><path
           style="fill:#f6f9fb;stroke-width:0.524184"
           d="m 519.33368,396.97232 c -6.87941,1.04503 -23.17791,5.66298 -20.28944,12.5902 7.08474,-1.43724 15.9039,-10.41311 20.28944,-12.5902 z"
           id="path132142" /><path
           style="fill:#f6f9fb;stroke-width:0.524184"
           d="m 533.14989,395.67057 c -4.39658,1.60582 -18.32027,6.33763 -17.01148,6.36466 8.27884,-7.53987 -7.7684,3.50068 -10.60865,4.83101 -6.79497,4.11197 -2.09544,10.90344 3.55329,4.64601 6.09488,-4.91166 15.53697,-17.78631 21.39208,-5.62938 9.0689,6.95445 6.68296,-6.47578 2.67476,-10.2123 z"
           id="path132144" /><path
           style="fill:#f6f9fb;stroke-width:0.524184"
           d="m 511.4308,395.16776 c 7.32375,0.11404 3.77897,1.81791 -1.50097,0.0409 z"
           id="path132146" /><path
           style="fill:#f6f9fb;stroke-width:0.524184"
           d="m 537.30829,393.65106 c 4.7878,0.64428 9.49757,4.9511 1.76493,1.0318 z"
           id="path132148" /><path
           style="fill:#f6f9fb;stroke-width:0.524184"
           d="m 511.59616,388.29069 c 5.02378,1.0666 9.74693,5.75621 1.83876,1.09472 z"
           id="path132150" /><path
           style="fill:#f6f9fb;stroke-width:0.524184"
           d="m 543.14411,388.26849 c -0.35498,2.04269 -3.53166,-0.20817 0,0 z"
           id="path132152" /><path
           style="fill:#f6f9fb;stroke-width:0.524184"
           d="m 495.48759,383.09206 c -12.72914,1.42317 -0.6526,8.66269 6.16846,7.43312 6.81914,0.0688 8.20723,4.09313 0.73879,3.28017 -6.16043,-2.67885 -23.80372,5.71067 -9.44641,5.922 7.94747,-1.41583 20.3091,-0.86311 25.43308,-4.79583 -12.43051,-1.65353 11.10412,0.32748 0.0134,-5.53367 -6.78037,-4.32616 -14.88766,-6.43683 -22.90728,-6.30579 z"
           id="path132154" /><path
           style="fill:#f6f9fb;stroke-width:0.524184"
           d="m 556.5221,377.97303 c -5.05223,-1.11477 -19.41696,6.36783 -15.25319,8.55068 4.30984,-2.39027 17.62884,-5.95607 5.89018,-1.97948 -7.42056,2.41002 -15.46526,12.00986 -4.1662,14.78581 4.18294,4.82933 17.62066,3.64116 9.37654,-3.31602 -3.6552,-2.18544 -18.5139,-3.11784 -6.86607,-6.22435 5.81079,-1.22974 25.28961,1.36319 20.26778,-8.10045 -5.29308,-1.27725 -8.48682,1.20873 -5.40353,-2.53552 -1.07863,-0.85034 -2.4783,-1.26921 -3.84551,-1.18067 z"
           id="path132156" /><path
           style="fill:#f6f9fb;stroke-width:0.524184"
           d="m 540.27503,368.50985 c -6.99608,1.2394 -10.4544,17.85378 -10.20529,16.29981 6.27094,-16.70353 -20.44694,-4.41856 -9.32946,4.97572 3.59105,-1.26703 13.17981,-0.70794 15.68232,-7.90215 -3.42294,3.49818 0.49207,8.05215 3.71568,2.25025 3.6678,-3.2356 9.93207,-16.57086 0.13675,-15.62363 z"
           id="path132158" /><path
           style="fill:#f3cb46;stroke-width:0.524184"
           d="m 534.4554,394.41134 c 5.59492,-4.44269 -2.7906,3.37883 0,0 z"
           id="path132160" /><path
           style="fill:#f3cb46;stroke-width:0.524184"
           d="m 531.22859,396.02664 c 3.08401,-2.86439 0.35684,1.92542 0,0 z"
           id="path132162" /><path
           style="fill:#f3cb46;stroke-width:0.524184"
           d="m 525.58394,394.37997 c -4.86375,-3.15121 0.20995,2.97848 0,0 z"
           id="path132164" /><path
           style="fill:#f3cb46;stroke-width:0.524184"
           d="m 520.44694,396.0101 c -1.84985,-9.34541 22.35148,-11.34086 15.64923,-5.20509 -4.61214,2.53726 -10.95428,4.94694 -15.64923,5.20509 z"
           id="path132166" /><path
           style="fill:#f3cb46;stroke-width:0.524184"
           d="m 529.11345,397.09826 c 3.28842,-2.3709 -1.01159,1.80216 0,0 z"
           id="path132168" /><path
           style="fill:#f3cb46;stroke-width:0.524184"
           d="m 523.22883,397.6935 c 1.22201,-1.14291 1.13462,2.06606 0,0 z"
           id="path132170" /><path
           style="fill:#f3cb46;stroke-width:0.524184"
           d="m 506.23051,430.33918 c 0.45821,-7.89835 20.86849,-6.41414 8.908,-0.32832 -3.09813,2.5229 -8.72561,-1.12175 -8.908,0.32832 z"
           id="path132172" /><path
           style="fill:#f3cb46;stroke-width:0.524184"
           d="m 517.24068,432.15261 c 2.04928,-2.74166 4.70583,-2.61907 0,0 z"
           id="path132174" /><path
           style="fill:#f3cb46;stroke-width:0.524184"
           d="m 514.28312,433.09885 c 4.06185,-3.97836 0.23186,1.68048 0,0 z"
           id="path132176" /><path
           style="fill:#f3cb46;stroke-width:0.524184"
           d="m 508.219,433.46307 c 6.26586,0.002 3.54561,2.14799 0,0 z"
           id="path132178" /><path
           style="fill:#e7a314;stroke-width:0.524184"
           d="m 524.53557,394.50711 c -6.158,-2.20124 6.82856,1.20127 0,0 z"
           id="path132180" /><path
           style="fill:#e7a314;stroke-width:0.524184"
           d="m 524.53557,398.27532 c -6.64848,-5.05233 11.24419,-3.13861 12.48844,-8.92854 6.4384,1.81733 -9.85644,9.60223 -12.48844,8.92854 z"
           id="path132182" /><path
           style="fill:#e7a314;stroke-width:0.524184"
           d="m 507.6566,432.76643 c -2.2954,-6.38944 9.73333,1.43438 11.49348,-5.47414 3.90416,3.22611 -7.94547,9.20505 -11.49348,5.47414 z"
           id="path132184" /><path
           style="fill:#778c2b;stroke-width:0.524184"
           d="m 533.07244,439.36034 c 0.42133,-4.51448 0.18399,5.35363 0,0 z"
           id="path132186" /><path
           style="fill:#778c2b;stroke-width:0.524184"
           d="m 535.06064,445.60687 c 0.75473,-1.90868 0.0611,2.51694 0,0 z"
           id="path132188" /><path
           style="fill:#778c2b;stroke-width:0.524184"
           d="m 526.8446,472.51479 c -2.89229,-3.5205 4.14251,4.00687 0,0 z"
           id="path132190" /><path
           style="fill:#778c2b;stroke-width:0.524184"
           d="m 530.42321,473.69421 c 0.2742,-3.88997 0.33206,3.79533 0,0 z"
           id="path132192" /><path
           style="fill:#526028;stroke-width:0.524184"
           d="m 531.73368,410.13687 c -0.40261,-5.83689 2.7575,5.18232 0,0 z"
           id="path132194" /><path
           style="fill:#526028;stroke-width:0.524184"
           d="m 531.96874,418.52917 c 2.76912,-5.39238 2.0745,4.83654 0,0 z"
           id="path132196" /><path
           style="fill:#526028;stroke-width:0.524184"
           d="m 532.74685,428.5234 c 0.44095,-8.0703 3.57862,4.75369 0,0 z"
           id="path132198" /><path
           style="fill:#526028;stroke-width:0.524184"
           d="m 525.67462,498.70221 c -1.11589,-10.14859 6.39188,-21.10205 -0.88339,-30.12718 -2.36066,-6.69714 -11.52388,-21.07148 -8.26482,-23.99264 2.46749,8.56733 6.88964,16.49359 10.68594,24.38158 5.41882,-4.13759 5.6178,-19.96295 6.18185,-28.8405 2.33815,-4.76035 2.14564,10.61396 0.33201,13.8405 -3.43795,14.75144 -3.89755,29.99892 -6.53582,44.86153 -0.38366,0.45511 -1.22889,0.45334 -1.51577,-0.12329 z"
           id="path132200" /></g></g></g></svg>
