<?xml version="1.0" encoding="UTF-8" standalone="no"?>
<!-- Created with Inkscape (http://www.inkscape.org/) -->

<svg
   width="182.16449mm"
   height="280.91046mm"
   viewBox="0 0 182.16449 280.91046"
   version="1.1"
   id="svg5"
   xml:space="preserve"
   xmlns="http://www.w3.org/2000/svg"
   xmlns:svg="http://www.w3.org/2000/svg"><defs
     id="defs2" /><g
     id="layer1"
     style="display:inline;opacity:1"
     transform="translate(3767.7088,18.957697)"><g
       id="g141856"><g
         id="g12452"
         transform="matrix(2.2040458,0,0,2.2040458,-4832.5607,-537.06233)"><path
           style="fill:#f6f9fb;stroke-width:0.524184"
           d="m 539.47508,285.42601 1.83451,1.18391 c 1.00905,0.65121 1.93298,1.26052 2.05311,1.35392 0.12012,0.0933 0.002,0.16892 -0.26252,0.16692 -0.26427,-0.001 -1.18769,-0.61027 -2.05258,-1.35341 z"
           id="path10443" /><path
           style="fill:#f6f9fb;stroke-width:0.524184"
           d="m 533.04085,282.9234 c 0.13244,-0.0379 0.62404,0.91453 1.43505,2.80655 0.82491,1.92447 0.89775,2.39101 0.29508,1.89084 -1.27083,-1.0547 -1.02041,0.4089 0.80253,4.69274 0.88133,2.07108 1.52976,3.98043 1.44126,4.24263 -0.0885,0.2622 -1.02012,-1.5848 -2.07016,-4.10414 -2.48474,-5.96157 -2.76635,-6.93963 -2.0004,-6.93963 0.41051,0 0.49556,-0.48083 0.25477,-1.44022 -0.18745,-0.74686 -0.2376,-1.12604 -0.15813,-1.14877 z"
           id="path10429" /><path
           style="fill:#f6f9fb;stroke-width:0.524184"
           d="m 525.16329,282.40044 c 0.16614,-0.05 0.072,0.84808 -0.31006,2.54454 -0.31928,1.41768 -0.78485,2.77423 -1.03456,3.01429 -0.48349,0.4648 0.0206,-2.42214 0.7705,-4.41213 0.28075,-0.74504 0.47444,-1.11669 0.57412,-1.1467 z"
           id="path10427" /><path
           style="fill:#f6f9fb;stroke-width:0.524184"
           d="m 540.85898,280.92973 c 0.0767,-0.018 0.39132,0.11121 0.97461,0.41134 1.6633,0.85583 8.38709,5.31218 8.38709,5.55883 0,0.33443 -0.22159,0.21105 -4.45554,-2.48512 -3.22487,-2.05358 -5.13634,-3.43113 -4.90616,-3.48505 z"
           id="path10421" /><path
           style="fill:#f6f9fb;stroke-width:0.524184"
           d="m 519.97808,279.20167 c 0.006,0.0455 -0.0235,0.13852 -0.094,0.28267 -0.76006,1.55179 -2.12734,3.22373 -2.14354,2.62102 -0.008,-0.2883 0.58681,-1.23161 1.32137,-2.09651 0.55094,-0.64868 0.89689,-0.94355 0.91622,-0.80718 z"
           id="path10409" /><path
           style="fill:#f6f9fb;stroke-width:0.524184"
           d="m 512.27312,278.17382 c -1.71728,0 -6.60838,7.63229 -6.60838,10.31203 0,1.44647 0.23264,1.78127 1.44177,2.07636 0.79283,0.19349 2.10839,0.90544 2.92334,1.58233 1.81416,1.50686 2.36687,1.52112 5.57485,0.14108 2.13185,-0.9171 2.57425,-1.35385 2.78743,-2.75229 0.13938,-0.9141 0.18587,-1.73714 0.10387,-1.82934 -0.082,-0.0922 -1.10617,0.32055 -2.27583,0.91726 -2.66557,1.35985 -3.0197,1.35328 -5.14646,-0.0946 -2.40745,-1.63895 -2.38847,-4.04079 0.06,-7.67912 1.03907,-1.54405 1.52031,-2.67374 1.13946,-2.67374 z"
           id="path10407" /><path
           style="fill:#f6f9fb;stroke-width:0.524184"
           d="m 518.69547,277.92526 c 0.14284,0.14284 -0.41603,0.96487 -1.24178,1.82676 -0.82575,0.8619 -1.73945,1.56735 -2.03037,1.56735 -0.29091,0 0.26796,-0.82254 1.24178,-1.82728 0.97383,-1.00473 1.88754,-1.70967 2.03037,-1.56683 z"
           id="path10405" /><path
           style="fill:#f6f9fb;stroke-width:0.524184"
           d="m 539.08854,277.193 -1.31361,1.56115 c -0.72249,0.85864 -1.2252,1.6286 -1.11725,1.711 0.10796,0.0824 2.43705,1.53753 5.17591,3.23392 5.00004,3.09689 7.70876,4.95887 7.21455,4.95887 -0.32725,0 -11.42122,-6.70539 -12.31863,-7.44554 -0.3567,-0.29419 -1.01365,-0.39447 -1.45986,-0.22325 -0.72871,0.27965 -0.72542,0.47726 0.032,1.942 0.4638,0.89688 0.70372,1.77002 0.5333,1.94045 -0.17042,0.17042 -0.59626,-0.44977 -0.94671,-1.37821 -0.59784,-1.58368 -0.78339,-1.68208 -3.00498,-1.58698 -1.30228,0.0557 -2.79304,-0.083 -3.31246,-0.30902 -0.86245,-0.37526 -0.93618,-0.0984 -0.85318,3.1936 0.05,1.98259 0.0634,5.47173 0.03,7.75353 -0.0677,4.61893 0.53317,7.49948 1.92185,9.21443 0.91722,1.13271 0.94751,1.13486 3.00705,0.19637 1.14434,-0.52145 2.17432,-1.00928 2.28875,-1.08418 0.11444,-0.0749 -0.52474,-1.88179 -1.42007,-4.01474 -1.43897,-3.42805 -1.94767,-5.4104 -2.97811,-11.60601 l -0.26148,-1.57251 0.54311,1.57251 c 0.2985,0.8649 0.77106,2.91033 1.05059,4.54494 0.47234,2.76217 3.99687,11.28344 5.33249,12.89276 0.5854,0.70537 4.37718,0.46512 5.23792,-0.33177 0.2057,-0.19044 0.52948,-1.6676 0.71934,-3.283 0.32651,-2.77813 0.22782,-3.13743 -1.81591,-6.6368 -1.18839,-2.03479 -2.16059,-3.85045 -2.16059,-4.0349 0,-0.18444 1.78776,1.1541 3.97288,2.9745 5.54958,4.62357 6.87291,5.40772 7.81038,4.62969 0.65206,-0.54118 0.6397,-0.91616 -0.0904,-2.80707 -0.46346,-1.20023 -1.04283,-2.40606 -1.28778,-2.67994 -0.87274,-0.97585 -0.42613,-1.34875 0.73381,-0.61236 0.64868,0.41181 2.54179,1.17008 4.20646,1.68465 2.75744,0.85237 3.10011,0.86192 3.85403,0.108 0.47359,-0.4736 0.69449,-1.24612 0.51676,-1.80609 -0.31667,-0.99773 -5.61427,-5.42861 -6.49056,-5.42861 -0.26528,0 -1.99349,-0.97935 -3.84007,-2.17609 -1.84658,-1.19674 -4.74133,-2.83253 -6.4332,-3.63544 z"
           id="path10401" /><path
           style="fill:#f6f9fb;stroke-width:0.524184"
           d="m 542.7338,274.05634 c 0.24763,-0.0176 0.64468,0.0178 1.13119,0.11059 0.97302,0.18556 4.25547,0.33744 7.29465,0.33744 3.03917,0 5.42781,0.0895 5.30769,0.19896 -0.12013,0.10943 -2.22357,0.32381 -4.67414,0.47646 -4.50364,0.28054 -8.55542,-0.11862 -9.29452,-0.91571 -0.11079,-0.11949 -0.0125,-0.19014 0.23513,-0.20774 z"
           id="path10395" /><path
           style="fill:#f6f9fb;stroke-width:0.524184"
           d="m 511.63234,273.64913 c 3.13802,0.003 5.26136,0.18042 4.71805,0.39377 -1.17595,0.4618 -4.79195,0.43998 -8.06462,-0.0481 -1.61813,-0.24132 -0.56734,-0.34972 3.34657,-0.34572 z"
           id="path10393" /><path
           style="fill:#f6f9fb;stroke-width:0.524184"
           d="m 549.94059,267.39163 c 0.17128,0.005 0.16734,0.0967 -0.0103,0.2744 -0.29073,0.29073 -1.34711,0.65325 -2.34715,0.80564 -1.84619,0.28132 -1.49702,0.059 1.31517,-0.83716 0.52454,-0.16715 0.87103,-0.24807 1.04231,-0.24288 z"
           id="path10383" /><path
           style="fill:#f6f9fb;stroke-width:0.524184"
           d="m 509.74821,262.98727 c 0.76199,-0.0166 4.82762,1.96608 4.82762,2.35438 0,0.45047 -0.74616,0.19361 -3.14503,-1.08366 -1.29736,-0.69077 -2.05445,-1.26272 -1.68259,-1.27072 z"
           id="path10365" /><path
           style="fill:#f6f9fb;stroke-width:0.524184"
           d="m 562.7548,261.55378 c -2.46553,0.047 -8.57264,1.27753 -10.93732,2.28875 -1.92065,0.82134 -6.43622,2.16204 -9.20771,2.7342 l -1.58285,0.32712 0.44339,2.75177 0.44338,2.75177 4.0225,-0.0186 c 3.85921,-0.0179 7.8284,-0.73761 11.51867,-2.08928 0.9517,-0.34832 1.85913,-0.50507 2.01642,-0.34778 0.88998,0.88998 -12.34106,3.59891 -16.32717,3.34295 -1.2497,-0.0802 -1.60537,0.13121 -1.73323,1.02836 -0.18641,1.30807 1.32871,1.94431 7.4259,3.11816 l 3.74241,0.72037 -3.26388,-0.28061 c -1.79523,-0.1544 -4.45414,-0.63412 -5.90869,-1.06608 -3.3858,-1.00547 -4.50779,-0.39576 -1.78232,0.96841 1.12428,0.56273 3.88051,2.0874 6.12521,3.38843 2.2447,1.30102 5.07515,2.6813 6.29006,3.06699 1.21492,0.38569 3.74223,0.65308 5.61619,0.59428 3.05664,-0.0959 3.42405,-0.22417 3.56929,-1.24385 0.0966,-0.6785 -0.43569,-1.80509 -1.32033,-2.79518 -1.30883,-1.46484 -1.93959,-1.7113 -5.40329,-2.11098 -3.60079,-0.41551 -3.46668,-0.43257 1.63918,-0.20722 4.57973,0.20213 5.67898,0.10307 6.23114,-0.56224 0.55131,-0.66428 0.5179,-0.97635 -0.1881,-1.75648 -0.47224,-0.52182 -0.85834,-1.33482 -0.85834,-1.80661 0,-0.4718 -0.70761,-1.66386 -1.57252,-2.64893 -0.8649,-0.98507 -1.57251,-1.91849 -1.57251,-2.0743 0,-0.15581 0.79085,-0.54448 1.75751,-0.86351 0.96665,-0.31902 2.28817,-1.14462 2.93677,-1.83503 1.06331,-1.13184 1.11859,-1.44011 0.56069,-3.13056 -0.41666,-1.26252 -1.02694,-1.97686 -1.8681,-2.18798 -0.18204,-0.0457 -0.46013,-0.063 -0.81235,-0.0563 z"
           id="path10355" /><path
           style="fill:#f6f9fb;stroke-width:0.524184"
           d="m 545.18016,258.66042 c 0.0521,0.004 0.0403,0.0568 -0.0465,0.16537 -0.34736,0.4342 -1.76258,1.59399 -3.14503,2.5771 -1.38245,0.98309 -2.2294,1.43209 -1.88205,0.99787 0.34736,-0.43421 1.76258,-1.59348 3.14503,-2.57659 1.03683,-0.73731 1.77211,-1.17454 1.92856,-1.16375 z"
           id="path10345" /><path
           style="fill:#f6f9fb;stroke-width:0.524184"
           d="m 557.74787,256.06368 c -0.67812,0.0725 -1.61857,0.7779 -3.98684,2.60191 -2.13952,1.64782 -5.58045,3.80859 -7.64656,4.80126 -2.06612,0.99267 -3.75688,2.01088 -3.75688,2.26291 0,0.51834 -0.0172,0.52303 8.9116,-2.24534 3.60377,-1.11735 7.17492,-2.15941 7.93595,-2.31563 2.51509,-0.51626 2.37639,-2.92376 -0.2682,-4.65656 -0.46968,-0.30775 -0.7822,-0.49204 -1.18907,-0.44855 z"
           id="path10329" /><path
           style="fill:#f6f9fb;stroke-width:0.524184"
           d="m 497.60322,255.63368 c -2.11448,0 -2.41817,0.16944 -3.45302,1.9234 -0.65911,1.1171 -1.01728,2.39195 -0.85421,3.04167 0.47596,1.89637 4.04244,4.97342 7.90184,6.81768 2.21532,1.05862 3.36764,1.8637 2.8944,2.02158 -0.43245,0.14428 -2.46185,0.65218 -4.5098,1.12913 -5.82041,1.35552 -8.01161,3.14047 -6.59443,5.37176 0.26877,0.42315 3.21197,0.85277 8.47235,1.23662 10.04633,0.7331 12.90337,0.52572 15.09623,-1.09554 0.92187,-0.68158 1.80739,-1.10717 1.96836,-0.9462 0.16097,0.16096 -1.20855,1.36366 -3.04374,2.67323 -5.61358,4.00576 -7.09901,8.43045 -3.50883,10.45104 1.4802,0.83308 1.78283,0.84264 3.53363,0.1111 2.65919,-1.11107 3.68546,-2.16315 4.92683,-5.04879 0.58985,-1.37113 1.43897,-2.79521 1.88671,-3.16466 0.91304,-0.75341 0.94852,-0.85371 -1.30586,3.7083 -2.07583,4.20067 -2.62639,7.10637 -1.5503,8.18245 0.4308,0.4308 0.94934,1.79052 1.15239,3.02152 0.20305,1.23099 0.60712,2.53298 0.89813,2.89336 0.80039,0.99118 2.71285,0.78724 4.29638,-0.45837 1.34505,-1.05801 1.39853,-1.2741 1.07642,-4.32428 -0.19498,-1.84635 -0.10766,-3.81302 0.20516,-4.62763 0.38588,-1.00485 0.36172,-2.28466 -0.0827,-4.40335 -0.54559,-2.60111 -0.83951,-3.07598 -2.27738,-3.67677 -2.30846,-0.96453 -7.09419,-6.44481 -6.85282,-7.84759 0.17363,-1.00914 -0.25661,-1.16905 -5.50664,-2.04483 -3.13227,-0.52251 -5.81886,-1.15042 -5.97018,-1.39527 -0.35328,-0.57162 -0.39288,-0.57458 3.81528,0.28216 1.96488,0.40003 4.42263,0.87606 5.46168,1.05781 l 1.88929,0.33073 -0.0997,-2.59209 c -0.11844,-3.07908 -1.1442,-4.13324 -7.17269,-7.37526 -7.8972,-4.24698 -10.32744,-5.25291 -12.69276,-5.25291 z"
           id="path10325" /><path
           style="fill:#f6f9fb;stroke-width:0.524184"
           d="m 548.1531,244.20342 c -0.51346,-0.087 -1.10267,0.75708 -1.62264,2.3952 -0.34189,1.07712 -1.42043,3.55079 -2.39675,5.49683 -1.05847,2.10973 -1.52159,3.53828 -1.14722,3.53828 0.34531,0 2.05879,-1.53307 3.80804,-3.40703 1.74924,-1.87395 3.53053,-3.39473 3.95842,-3.37963 0.52513,0.0186 0.38694,0.30005 -0.4253,0.86609 -0.66184,0.46124 -3.80015,3.41634 -6.97425,6.56704 -6.17007,6.1246 -5.96255,5.65201 -3.6897,8.39587 0.41792,0.50452 0.86282,0.91726 0.98857,0.91726 0.90061,0 10.18018,-5.2893 12.3672,-7.04918 1.48789,-1.1973 3.42114,-2.67571 4.29638,-3.28559 0.87524,-0.60988 1.90387,-1.6927 2.28565,-2.40605 0.61807,-1.15489 0.568,-1.4231 -0.45733,-2.44843 -0.80429,-0.80425 -1.5232,-1.05795 -2.38436,-0.84181 -0.67809,0.17019 -1.37921,0.0723 -1.55804,-0.21704 -0.17883,-0.28936 -1.00254,-0.52607 -1.83038,-0.52607 -1.15624,0 -1.5441,-0.27041 -1.67277,-1.16634 -0.0921,-0.64146 -0.73038,-1.44545 -1.418,-1.78697 -0.68763,-0.34152 -1.42774,-0.90856 -1.64486,-1.25987 -0.14895,-0.24102 -0.3115,-0.37355 -0.48266,-0.40256 z"
           id="path10283" /><path
           style="fill:#f6f9fb;stroke-width:0.524184"
           d="m 507.54421,242.52911 c -1.55846,0 -2.48084,1.42628 -2.03191,3.14296 0.17488,0.66874 1.65294,2.55055 3.28403,4.18165 1.6311,1.6311 3.87071,4.48358 4.97696,6.33863 1.10625,1.85507 2.62412,4.05266 3.37292,4.88343 0.79918,0.88666 1.0367,1.41254 0.57516,1.27382 -0.43245,-0.12998 -2.26449,-2.45646 -4.07107,-5.17023 -4.17472,-6.2711 -7.71463,-9.93272 -9.60303,-9.93272 -1.6969,0 -6.02339,2.33577 -6.46679,3.49126 -0.67283,1.75335 1.38264,3.94712 5.11442,5.45858 1.9701,0.79794 3.97508,1.79068 4.45554,2.20607 0.48046,0.41538 2.56412,1.63239 4.63072,2.70474 2.06661,1.07234 4.16723,2.40261 4.66794,2.95589 1.20832,1.33518 1.79627,1.2695 1.79627,-0.19999 0,-0.66309 0.24266,-1.44827 0.5395,-1.74511 0.37017,-0.37017 -0.041,-1.50487 -1.31,-3.61218 -2.61527,-4.3431 -2.28268,-4.91114 0.39068,-0.66714 1.92488,3.05579 3.52485,4.48182 3.52485,3.14192 0,-0.5235 -7.62558,-14.7403 -8.51835,-15.8812 -0.93632,-1.19655 -3.78396,-2.57038 -5.32784,-2.57038 z"
           id="path10275" /><path
           style="fill:#f6f9fb;stroke-width:0.524184"
           d="m 532.75715,236.36721 c -0.25773,0.0258 -0.55957,0.0824 -0.9214,0.16691 -0.98797,0.23068 -2.14967,0.48244 -2.58175,0.55914 -1.28178,0.22768 -2.62055,2.28754 -2.63395,4.05247 -0.007,0.90504 -0.2364,2.58921 -0.51004,3.7424 -0.4072,1.71608 0.24496,13.60974 0.78393,14.29629 0.0619,0.0789 0.49986,-0.005 0.97358,-0.18707 0.701,-0.269 0.87114,-1.17384 0.91364,-4.8612 0.057,-4.94031 0.80317,-4.21563 1.00252,0.97358 l 0.11059,2.88303 0.97565,-3.66954 0.97565,-3.66903 -0.2651,3.12281 c -0.14581,1.71777 -0.40974,3.69795 -0.58601,4.40025 -0.2885,1.14946 -0.18355,1.25074 1.05007,1.01492 0.75372,-0.14408 1.26871,-0.0967 1.14411,0.1049 -0.1246,0.20161 0.64897,0.85178 1.71928,1.44539 l 1.94613,1.07952 1.70481,-1.87275 c 3.21187,-3.52765 8.51679,-14.44471 8.51679,-17.52709 0,-1.81813 -1.12363,-2.36365 -2.65668,-1.28985 -0.62307,0.43641 -1.41567,0.68499 -1.76114,0.55242 -0.34546,-0.13257 -1.06268,0.23902 -1.5937,0.82579 -0.53102,0.58677 -1.26691,1.06712 -1.63504,1.06712 -1.32129,0 -2.69602,2.91394 -3.28921,6.97115 -0.32873,2.24843 -1.0586,4.96103 -1.62212,6.02806 -1.34239,2.54186 -1.32789,2.08123 0.046,-1.4671 0.81559,-2.1064 1.13249,-4.15422 1.17719,-7.60108 0.0337,-2.59471 0.13748,-4.18645 0.23048,-3.53777 0.17863,1.2455 0.85492,1.54716 1.41955,0.63355 0.1854,-0.29998 1.26107,-1.12854 2.39004,-1.84123 3.7375,-2.35939 2.33299,-5.17711 -2.43448,-4.88394 -1.75045,0.10765 -2.49073,-0.0913 -3.01687,-0.8108 -0.42133,-0.5762 -0.79934,-0.77861 -1.57251,-0.70125 z"
           id="path10263" /><path
           style="fill:#f6f9fb;stroke-width:0.524184"
           d="m 513.92832,236.29281 c -1.02781,-0.13497 -1.93074,0.31271 -2.86649,1.3224 -1.16142,1.25319 -1.21603,1.52102 -0.60927,2.98587 0.36657,0.88498 1.28118,2.32959 2.03244,3.21014 1.33661,1.56663 6.03268,9.64212 8.46666,14.55983 1.32212,2.67125 1.49555,2.81065 2.39262,1.91358 0.43873,-0.43873 0.20803,-1.62143 -0.89555,-4.5868 -2.12887,-5.72033 -2.28511,-6.28285 -1.25367,-4.51962 0.50594,0.86491 1.43783,2.98773 2.07067,4.71754 0.71908,1.96556 1.49288,3.21355 2.06293,3.32745 0.83428,0.16668 0.87922,-0.21243 0.5271,-4.43953 -0.21173,-2.54184 -0.61092,-5.2152 -0.88677,-5.94072 -0.939,-2.46978 -4.99824,-8.14188 -7.42539,-10.37611 -1.43511,-1.32104 -2.58747,-2.03905 -3.61528,-2.17403 z"
           id="path10261" /><path
           style="fill:#f6f9fb;stroke-width:0.524184"
           d="m 526.66449,235.07893 c -0.54708,-0.0656 -1.20601,0.22019 -2.64325,0.94207 -2.07651,1.04297 -2.55591,1.55645 -2.76934,2.96726 -0.26247,1.73497 0.42605,3.56942 2.38332,6.35155 1.29777,1.84468 1.66916,1.31729 2.15956,-3.0639 0.26169,-2.33787 0.69032,-3.49056 1.68413,-4.52789 l 1.33326,-1.39113 -1.13999,-0.7984 c -0.39147,-0.27419 -0.67944,-0.44021 -1.00769,-0.47956 z"
           id="path10257" /><path
           style="fill:#f3cb46;stroke-width:0.524184"
           d="m 517.23838,266.8598 c 0.0252,-0.61065 0.14936,-0.73485 0.31669,-0.3167 0.15142,0.3784 0.1328,0.8305 -0.0414,1.00469 -0.17418,0.17418 -0.29807,-0.13542 -0.27531,-0.68799 z"
           id="path11567" /><path
           style="fill:#f3cb46;stroke-width:0.524184"
           d="m 518.54275,274.54315 c -0.5024,-0.55515 -0.80221,-1.43971 -0.66623,-1.96569 0.22871,-0.88468 0.25179,-0.88088 0.30804,0.0508 0.0334,0.5539 0.45119,1.43846 0.92832,1.96569 0.47714,0.52723 0.74958,0.9586 0.60543,0.9586 -0.14415,0 -0.67315,-0.45422 -1.17556,-1.00937 z"
           id="path11561" /><path
           style="fill:#f3cb46;stroke-width:0.524184"
           d="m 521.6279,278.04309 -2.07208,-2.22709 2.09674,1.83249 c 1.15321,1.00788 2.32083,2.01007 2.59471,2.2271 0.31019,0.24579 0.30089,0.39459 -0.0247,0.39459 -0.28745,0 -1.45507,-1.0022 -2.59471,-2.22709 z"
           id="path11557" /><path
           style="fill:#f3cb46;stroke-width:0.524184"
           d="m 525.58394,280.79436 c -0.43245,-0.27947 -0.55039,-0.50813 -0.26209,-0.50813 0.2883,0 0.87801,0.22866 1.31046,0.50813 0.43245,0.27948 0.5504,0.50813 0.26209,0.50813 -0.2883,0 -0.878,-0.22865 -1.31046,-0.50813 z"
           id="path11553" /><path
           style="fill:#f3cb46;stroke-width:0.524184"
           d="m 530.3016,281.90021 c 0.43245,-0.31109 1.55134,-0.56923 2.4864,-0.57364 1.36799,-0.006 2.32298,-0.62128 4.88831,-3.14709 3.48567,-3.43197 3.93402,-5.06653 1.33875,-4.8808 -1.01329,0.0725 -1.38652,-0.10486 -1.20669,-0.57349 0.27164,-0.70788 -2.2943,-0.72118 -5.70194,-0.0296 -1.12334,0.228 -1.80579,0.0801 -2.28283,-0.49468 -0.51149,-0.6163 -0.92783,-0.6875 -1.67671,-0.28671 -0.79076,0.4232 -1.37407,0.23172 -2.82795,-0.92835 -1.00744,-0.80383 -1.83171,-1.75636 -1.83172,-2.11674 -10e-6,-0.36038 -0.35384,-0.65523 -0.78629,-0.65523 -0.43245,0 -0.78628,-0.35382 -0.78628,-0.78628 0,-0.43245 -0.37757,-0.78627 -0.83905,-0.78627 -0.67278,0 -0.80188,-0.46747 -0.65146,-2.35883 0.19793,-2.48865 -0.59162,-3.19443 -1.6126,-1.44151 -0.29387,0.50453 -0.54147,0.65135 -0.55024,0.32627 -0.0223,-0.82866 1.02549,-1.55902 2.86708,-1.99843 0.8649,-0.20636 1.97473,-0.73761 2.46628,-1.18054 0.62785,-0.56575 2.03132,-0.80943 4.71766,-0.81912 4.49698,-0.0162 7.20914,1.15691 10.43422,4.51326 2.19269,2.28193 2.81256,4.19325 2.78617,8.59089 -0.0162,2.69576 -0.0845,2.815 -3.52883,6.15916 -2.69249,2.61417 -3.869,3.41019 -5.04026,3.41019 -0.84035,0 -1.95999,0.14019 -2.4881,0.31154 -0.79857,0.2591 -0.82784,0.21633 -0.17392,-0.25406 z"
           id="path11551" /><path
           style="fill:#e7a314;stroke-width:0.524184"
           d="m 526.8944,280.9325 c -1.85746,-0.61701 -3.48489,-1.74601 -5.5869,-3.87577 -2.93511,-2.97388 -2.96963,-3.04509 -3.31597,-6.84127 -0.38431,-4.21233 0.44256,-7.9002 1.83129,-8.16762 0.6327,-0.12183 0.75337,0.32298 0.60245,2.22063 -0.1515,1.9048 -0.0232,2.37297 0.65033,2.37297 0.46148,0 0.83905,0.35382 0.83905,0.78627 0,0.43246 0.35383,0.78628 0.78628,0.78628 0.43245,0 0.78628,0.24981 0.78628,0.55512 0,0.30532 -0.29486,0.41446 -0.65523,0.24256 -0.36038,-0.17191 -0.21084,-0.009 0.33231,0.3622 0.54315,0.37112 1.65439,1.21873 2.46942,1.88357 1.16903,0.9536 1.69591,1.09426 2.49566,0.66624 0.76983,-0.412 1.17752,-0.34526 1.69423,0.27734 0.47704,0.57479 1.15949,0.72268 2.28283,0.49468 3.40764,-0.69164 5.97358,-0.67834 5.70194,0.0296 -0.17983,0.46863 0.1934,0.64602 1.20669,0.5735 2.59527,-0.18574 2.14692,1.44882 -1.33875,4.8808 -2.32283,2.28704 -3.5785,3.141 -4.62622,3.14621 -0.79091,0.004 -1.90979,0.11296 -2.4864,0.24227 -0.5766,0.12931 -2.22778,-0.15667 -3.66929,-0.63552 z"
           id="path11659" /><path
           style="fill:#90a334;stroke-width:0.524184"
           d="m 485.05672,285.47398 c -1.00339,-1.39994 -1.24228,-2.05865 -0.74661,-2.05865 1.15747,0 2.92931,2.24605 2.55439,3.23807 -0.26798,0.70909 -0.61782,0.48085 -1.80778,-1.17942 z"
           id="path11999" /><path
           style="fill:#90a334;stroke-width:0.524184"
           d="m 485.41796,289.98493 c -0.552,-1.43848 0.1025,-1.97748 0.7297,-0.60093 0.39171,0.85971 0.42701,1.36991 0.0948,1.36991 -0.29117,0 -0.66219,-0.34604 -0.82448,-0.76898 z"
           id="path11995" /><path
           style="fill:#90a334;stroke-width:0.524184"
           d="m 488.94535,289.30592 c -1.04223,-1.62555 -1.07984,-1.80298 -0.22082,-1.04188 0.56944,0.50452 1.31162,0.91732 1.6493,0.91732 0.33767,0 0.61395,0.47176 0.61395,1.04837 0,1.55717 -0.63624,1.26938 -2.04243,-0.92381 z"
           id="path11993" /><path
           style="fill:#90a334;stroke-width:0.524184"
           d="m 485.34954,292.5024 c -0.36218,-0.14601 -0.53153,-0.47091 -0.37636,-0.722 0.33974,-0.54971 1.82113,-0.0599 1.82113,0.60215 0,0.50491 -0.40611,0.5386 -1.44477,0.11985 z"
           id="path11991" /><path
           style="fill:#90a334;stroke-width:0.524184"
           d="m 485.96205,295.59459 c -0.31358,-0.21181 -0.70876,-0.93292 -0.87816,-1.60247 -0.29014,-1.14672 -0.24186,-1.1735 0.83225,-0.46155 0.62714,0.41569 1.21653,1.14041 1.30974,1.61049 0.17991,0.90727 -0.32422,1.08818 -1.26383,0.45353 z"
           id="path11989" /><path
           style="fill:#90a334;stroke-width:0.524184"
           d="m 483.88044,298.35458 c -0.98279,-0.75944 -0.98479,-0.81164 -0.0585,-1.52974 0.79868,-0.6192 1.22672,-0.63088 2.56099,-0.0699 0.88111,0.37048 1.81762,1.05887 2.08114,1.52974 0.40681,0.72693 0.17385,0.85614 -1.54348,0.85614 -1.11242,0 -2.48047,-0.35382 -3.0401,-0.78627 z"
           id="path11987" /><path
           style="fill:#90a334;stroke-width:0.524184"
           d="m 493.34355,299.66009 c -0.21091,-0.34127 -0.67283,-2.72497 -1.02648,-5.29711 -0.6383,-4.64234 -0.63496,-4.67419 0.45536,-4.34295 2.40433,0.73046 2.73759,1.49758 2.37398,5.46454 -0.34254,3.73702 -1.05461,5.38621 -1.80286,4.17552 z"
           id="path11985" /><path
           style="fill:#90a334;stroke-width:0.524184"
           d="m 494.46413,302.01506 c -0.1678,-0.43731 0.14529,-1.53572 0.69578,-2.44092 0.74614,-1.22693 0.94541,-2.32536 0.78293,-4.3157 -0.21793,-2.66967 -0.2179,-2.66974 0.42756,-0.83524 0.35503,1.00906 0.85886,2.16595 1.11963,2.57087 0.29982,0.46554 0.2841,0.61877 -0.0428,0.41676 -0.28432,-0.17572 -0.92244,0.96708 -1.41823,2.53993 -0.97596,3.09608 -1.1041,3.26512 -1.5649,2.0643 z"
           id="path11983" /><path
           style="fill:#90a334;stroke-width:0.524184"
           d="m 495.82941,303.72747 c 0.12987,-0.36038 0.56249,-1.78266 0.96137,-3.16062 0.81709,-2.82265 1.99589,-3.14926 2.6423,-0.7321 0.33539,1.25408 0.14098,1.71211 -1.27276,2.99869 -1.77041,1.61118 -2.72071,1.97567 -2.33091,0.89403 z"
           id="path11981" /><path
           style="fill:#90a334;stroke-width:0.524184"
           d="m 496.60971,307.03338 c -0.22647,-0.86602 0.16047,-1.6759 1.47699,-3.09147 1.74078,-1.87172 1.78385,-1.88639 1.78393,-0.60758 5e-5,0.72076 -0.6646,2.11192 -1.47699,3.09146 -1.42795,1.72178 -1.48728,1.74198 -1.78393,0.60759 z"
           id="path11975" /><path
           style="fill:#90a334;stroke-width:0.524184"
           d="m 488.62358,308.08214 c -0.68162,-0.27657 -1.29379,-1.32926 -1.73349,-2.98083 -0.39257,-1.4746 -1.3749,-3.27296 -2.32523,-4.25685 -0.90502,-0.93698 -1.37726,-1.7036 -1.04942,-1.7036 0.32784,0 0.74186,0.23588 0.92004,0.52418 0.17818,0.28831 1.23966,0.52419 2.35883,0.52419 2.29415,0 2.70195,0.3632 2.26857,2.02047 -0.21987,0.84076 -0.56874,1.06931 -1.28518,0.84192 -0.54086,-0.17167 -0.98339,-0.076 -0.98339,0.21257 0,0.28858 0.63049,0.59933 1.40108,0.69056 1.68301,0.19923 2.32256,1.47632 0.73934,1.47632 -0.60063,0 -1.09205,0.23588 -1.09205,0.52418 0,0.28831 0.69935,0.52419 1.55411,0.52419 1.01763,0 1.74779,0.3619 2.11518,1.04837 0.48628,0.90863 0.40141,1.04394 -0.63679,1.01514 -0.65882,-0.0183 -1.67204,-0.22564 -2.2516,-0.46081 z"
           id="path11973" /><path
           style="fill:#90a334;stroke-width:0.524184"
           d="m 489.93942,310.95064 c -1.00906,-0.34795 -1.90688,-1.00357 -1.99515,-1.45694 -0.14165,-0.72743 0.10161,-0.74692 2.06967,-0.16582 2.1345,0.63024 3.07707,1.50078 2.18093,2.01427 -0.23145,0.13261 -1.2464,-0.0436 -2.25545,-0.39151 z"
           id="path11961" /><path
           style="fill:#90a334;stroke-width:0.524184"
           d="m 550.92563,312.85939 c 0.47714,-0.52722 0.86752,-1.20625 0.86752,-1.50895 0,-0.69601 2.91305,-1.93121 3.58098,-1.51841 0.27453,0.16967 1.57768,-0.0913 2.8959,-0.57981 2.83175,-1.04951 3.4676,-0.70244 2.03942,1.1132 -0.5712,0.72616 -1.14568,1.21315 -1.27662,1.08221 -0.13095,-0.13094 -1.99035,0.34268 -4.13202,1.0525 -4.69842,1.5572 -5.09143,1.59272 -3.97518,0.35927 z"
           id="path11951" /><path
           style="fill:#90a334;stroke-width:0.524184"
           d="m 491.33724,313.46853 c -0.50096,-0.50095 -0.43091,-1.22308 0.11865,-1.22308 0.25745,0 0.60387,0.35382 0.76982,0.78627 0.30661,0.79901 -0.25176,1.07353 -0.88847,0.43682 z"
           id="path11949" /><path
           style="fill:#90a334;stroke-width:0.524184"
           d="m 557.035,313.03169 c 0.67711,-0.72076 1.34905,-1.31046 1.4932,-1.31046 0.14415,0 -0.2919,0.5897 -0.96902,1.31046 -0.67711,0.72075 -1.34906,1.31046 -1.49321,1.31046 -0.14415,0 0.29191,-0.58971 0.96903,-1.31046 z"
           id="path11943" /><path
           style="fill:#90a334;stroke-width:0.524184"
           d="m 498.08809,311.46827 c -0.35801,-2.86547 -0.14156,-3.94052 0.7934,-3.94052 0.27128,0 0.49324,1.53324 0.49324,3.4072 0,4.15084 -0.79356,4.47978 -1.28664,0.53332 z"
           id="path11941" /><path
           style="fill:#90a334;stroke-width:0.524184"
           d="m 543.93039,314.89301 c 0,-2.93993 3.43908,-5.30442 6.01081,-4.13266 1.1554,0.52643 1.23945,0.72012 0.62478,1.4398 -0.39062,0.45734 -0.84373,1.21079 -1.00692,1.67433 -0.1632,0.46353 -0.96567,0.98859 -1.78328,1.16679 -0.81761,0.1782 -2.0173,0.47514 -2.66597,0.65986 -0.96541,0.2749 -1.17942,0.12826 -1.17942,-0.80812 z"
           id="path11935" /><path
           style="fill:#90a334;stroke-width:0.524184"
           d="m 537.9413,314.99738 c 2.22468,-3.62533 6.7012,-5.66528 5.73746,-2.61456 -0.20381,0.64518 -0.49322,1.82173 -0.64315,2.61456 -0.25766,1.36261 -0.42874,1.4415 -3.12573,1.4415 h -2.85315 z"
           id="path11931" /><path
           style="fill:#90a334;stroke-width:0.524184"
           d="m 532.92252,315.12842 c 0.67712,-0.72075 1.48485,-1.32004 1.79497,-1.33176 0.31012,-0.0117 1.38054,-0.71936 2.37871,-1.57255 2.07392,-1.7727 4.43915,-2.30131 2.75315,-0.61532 -0.51476,0.51477 -1.60423,1.81212 -2.42104,2.88302 -1.28328,1.68246 -1.77403,1.94707 -3.61101,1.94707 h -2.12589 z"
           id="path11929" /><path
           style="fill:#90a334;stroke-width:0.524184"
           d="m 528.33591,316.14582 c 1.05287,-0.57612 1.44151,-1.19312 1.44151,-2.28852 0,-1.71235 0.73635,-2.13607 3.71216,-2.13607 2.10536,0 2.77632,0.82809 1.13654,1.40273 -0.50453,0.17681 -1.62497,0.96432 -2.48987,1.75004 -0.86491,0.78572 -2.39815,1.57078 -3.4072,1.74459 l -1.83465,0.31601 z"
           id="path11927" /><path
           style="fill:#90a334;stroke-width:0.524184"
           d="m 523.48721,316.26816 c 0,-1.19079 3.66592,-4.02275 5.20738,-4.02275 0.84538,0 0.66871,1.96293 -0.24582,2.7313 -0.44246,0.37175 -1.13326,0.97075 -1.53512,1.33113 -0.97441,0.87385 -3.42644,0.84545 -3.42644,-0.0397 z"
           id="path11925" /><path
           style="fill:#90a334;stroke-width:0.524184"
           d="m 552.40955,317.74007 -1.21825,-0.65031 1.56126,-1.11171 c 2.05516,-1.4634 3.35914,-1.46023 3.13948,0.008 -0.25391,1.69671 -1.9705,2.56149 -3.48249,1.75439 z"
           id="path11919" /><path
           style="fill:#90a334;stroke-width:0.524184"
           d="m 502.03978,312.63855 c 0.6126,-1.22528 0.77886,-1.87396 0.36949,-1.44151 -0.79549,0.84033 -2.12428,3.66929 -1.7235,3.66929 0.13212,0 0.74142,-1.0025 1.35401,-2.22778 z"
           id="path11917" /><path
           style="fill:#90a334;stroke-width:0.524184"
           d="m 500.13652,317.77177 c -0.71254,-1.50156 -0.76248,-2.14915 -0.27383,-3.55041 0.37321,-1.07019 0.46681,-3.0427 0.24922,-5.2521 -0.23493,-2.38544 -0.16528,-3.53825 0.21374,-3.53825 0.80016,0 2.19112,2.13458 2.21086,3.39279 0.009,0.58453 0.36299,1.52066 0.78627,2.08029 1.02896,1.36039 0.95319,3.24518 -0.23569,5.86326 -1.3414,2.95397 -1.93032,3.15444 -2.95057,1.00442 z"
           id="path11915" /><path
           style="fill:#90a334;stroke-width:0.524184"
           d="m 492.60243,318.92876 c -1.571,-1.58048 -4.23557,-5.15129 -4.23557,-5.67612 0,-1.06284 1.18403,-0.97615 2.07114,0.15163 0.53938,0.68571 1.82726,1.70265 2.86197,2.25988 1.03471,0.55722 1.88129,1.33662 1.88129,1.73199 0,0.53499 -0.48614,0.43202 -1.90071,-0.4026 -1.04539,-0.61679 -2.00135,-1.02081 -2.12434,-0.89781 -0.34369,0.34368 2.49961,2.43989 3.30946,2.43989 0.39358,0 0.71559,0.35382 0.71559,0.78628 0,1.14872 -1.23307,0.96074 -2.57883,-0.39314 z"
           id="path11911" /><path
           style="fill:#90a334;stroke-width:0.524184"
           d="m 502.59537,322.34614 c -0.51873,-0.96925 -0.41327,-1.66697 0.62352,-4.12557 l 1.24783,-2.95904 0.8612,1.22954 c 1.14408,1.6334 1.08984,2.21351 -0.37123,3.97011 -0.67784,0.81495 -1.34596,1.83492 -1.48472,2.26661 -0.19495,0.60648 -0.39419,0.51974 -0.8766,-0.38165 z"
           id="path11901" /><path
           style="fill:#90a334;stroke-width:0.524184"
           d="m 546.66969,322.72716 c -0.94395,-0.57552 -2.59513,-1.07399 -3.66929,-1.10769 -1.71369,-0.0538 -1.59972,-0.12151 0.92999,-0.55282 1.58566,-0.27034 3.76143,-0.41403 4.83505,-0.31931 1.95787,0.17275 2.08798,-0.37624 0.17098,-0.72142 -0.90968,-0.16381 -0.86101,-0.28958 0.44251,-1.14369 1.52013,-0.99602 3.98678,-0.84201 3.98678,0.24893 0,0.63574 -3.96237,4.64749 -4.58721,4.64437 -0.2159,-10e-4 -1.16487,-0.47284 -2.10881,-1.04837 z"
           id="path11897" /><path
           style="fill:#90a334;stroke-width:0.524184"
           d="m 524.47085,322.90039 c -1.48272,-1.72264 -1.58592,-2.19028 -0.41582,-1.88429 1.14523,0.29948 1.76292,1.27309 1.4339,2.26013 -0.11651,0.34956 -0.5228,0.19956 -1.01808,-0.37584 z"
           id="path11895" /><path
           style="fill:#90a334;stroke-width:0.524184"
           d="m 535.69862,322.96902 c -0.85018,-1.33381 -0.96405,-1.81245 -0.43118,-1.81245 0.7393,0 2.89692,2.39512 2.89692,3.21579 0,1.06618 -1.39925,0.26982 -2.46574,-1.40334 z"
           id="path11889" /><path
           style="fill:#90a334;stroke-width:0.524184"
           d="m 541.02769,324.71192 c -1.48205,-0.35869 -2.37816,-0.96828 -2.98967,-2.03378 l -0.87326,-1.52157 h 1.48399 c 0.81619,0 1.79022,0.36899 2.1645,0.81997 0.41863,0.50442 1.12915,0.70737 1.84627,0.52739 0.64116,-0.16092 1.87464,0.005 2.74105,0.36978 1.36914,0.57568 1.48851,0.78106 0.9121,1.56934 -0.72355,0.98951 -2.03229,1.05609 -5.28498,0.26887 z"
           id="path11887" /><path
           style="fill:#90a334;stroke-width:0.524184"
           d="m 527.79602,325.48112 c -1.39501,-1.21971 -1.96189,-4.25229 -0.87298,-4.67014 0.43818,-0.16814 1.2315,0.0878 1.76294,0.56873 1.39174,1.2595 4.76073,2.89743 4.76073,2.31455 0,-0.27193 -0.80946,-0.83263 -1.7988,-1.24601 -2.01973,-0.8439 -2.88819,-1.81584 -1.6225,-1.81584 1.61364,0 4.26518,1.44448 5.16088,2.8115 0.90298,1.37811 0.90145,1.38202 -0.54809,1.39865 -0.79947,0.009 -1.91147,0.36299 -2.4711,0.78627 -1.36168,1.02994 -3.091,0.97149 -4.37108,-0.14771 z"
           id="path11883" /><path
           style="fill:#90a334;stroke-width:0.524184"
           d="m 504.32719,325.16587 c -0.31592,-1.25873 1.12037,-4.92557 1.70165,-4.3443 0.4253,0.42532 -0.3473,4.98056 -0.903,5.324 -0.26319,0.16266 -0.62258,-0.2782 -0.79865,-0.9797 z"
           id="path11881" /><path
           style="fill:#90a334;stroke-width:0.524184"
           d="m 499.11264,327.24086 c -1.60587,-0.70369 -5.44825,-4.54551 -6.48656,-6.48561 -0.56975,-1.06459 -0.55387,-1.06396 1.40054,0.0554 4.279,2.45076 5.8723,3.62535 5.8723,4.3291 0,0.40397 0.47176,1.20626 1.04836,1.78286 1.20828,1.20828 0.48342,1.33401 -1.83464,0.31824 z"
           id="path11879" /><path
           style="fill:#778c2b;stroke-width:0.524184"
           d="m 493.40754,300.42104 c -0.17841,-0.46494 -0.0897,-0.67369 0.20815,-0.48962 0.76179,0.47081 1.55608,-2.03688 1.63097,-5.14925 l 0.0654,-2.71784 0.41502,2.86265 c 0.30616,2.11186 0.22125,3.23734 -0.32377,4.29128 -0.94538,1.82817 -1.60356,2.22483 -1.99576,1.20278 z"
           id="path12265" /><path
           style="fill:#778c2b;stroke-width:0.524184"
           d="m 517.23838,301.45597 c 0.0252,-0.61065 0.14936,-0.73486 0.31669,-0.3167 0.15142,0.3784 0.1328,0.8305 -0.0414,1.00469 -0.17418,0.17418 -0.29807,-0.13542 -0.27531,-0.68799 z"
           id="path12263" /><path
           style="fill:#778c2b;stroke-width:0.524184"
           d="m 495.54322,304.4994 c -0.61122,-1.2488 -0.55682,-1.81444 0.43522,-4.52533 1.44394,-3.94571 2.02772,-3.16265 0.71221,0.95532 -0.54449,1.70447 -0.86852,3.22051 -0.72004,3.36899 0.14847,0.14847 0.97268,-0.4033 1.83157,-1.22618 2.20394,-2.1115 2.37254,-1.43722 0.22625,0.90479 l -1.78668,1.94961 z"
           id="path12259" /><path
           style="fill:#778c2b;stroke-width:0.524184"
           d="m 501.05526,313.42481 c 0.33533,-0.79283 0.94463,-1.79533 1.35401,-2.22778 0.40937,-0.43245 0.24311,0.21622 -0.36949,1.4415 -1.23928,2.47876 -1.93554,3.03482 -0.98452,0.78628 z"
           id="path12245" /><path
           style="fill:#778c2b;stroke-width:0.524184"
           d="m 542.88202,315.4152 c 0,-1.31445 1.07906,-3.69395 1.67514,-3.69395 0.25217,0 0.2143,0.45626 -0.0841,1.01391 -0.73866,1.3802 -0.68314,3.0355 0.1126,3.35659 0.36038,0.14541 0.1245,0.28301 -0.52418,0.30577 -0.83461,0.0293 -1.17942,-0.25789 -1.17942,-0.98232 z"
           id="path12239" /><path
           style="fill:#778c2b;stroke-width:0.524184"
           d="m 536.69314,315.5053 c 2.55211,-3.47858 3.33512,-4.30633 4.05968,-4.29168 0.58835,0.0119 0.43153,0.35775 -0.55733,1.22903 -0.75683,0.66686 -1.78646,1.83882 -2.28806,2.60436 -0.50161,0.76554 -1.13413,1.39189 -1.40563,1.39189 -0.27149,0 -0.18539,-0.42012 0.19134,-0.9336 z"
           id="path12237" /><path
           style="fill:#778c2b;stroke-width:0.524184"
           d="m 531.88687,315.11491 c 1.07221,-1.14131 3.83511,-2.86948 4.58757,-2.86948 0.13516,0 -0.0479,0.35382 -0.40681,0.78628 -0.35891,0.43245 -0.93638,0.78627 -1.28327,0.78627 -0.3469,0 -1.18472,0.58971 -1.86184,1.31046 -0.67711,0.72076 -1.467,1.31046 -1.7553,1.31046 -0.2883,0 0.0355,-0.59579 0.71965,-1.32399 z"
           id="path12235" /><path
           style="fill:#778c2b;stroke-width:0.524184"
           d="m 498.64682,315.61569 c -0.21767,-0.56723 -0.14333,-1.07047 0.17373,-1.17616 0.31367,-0.10456 0.55418,-1.66344 0.55418,-3.59193 0,-2.45178 -0.17968,-3.3473 -0.64077,-3.1936 -0.35243,0.11748 -0.77854,0.78581 -0.94692,1.48519 -0.29305,1.21717 -0.31878,1.2243 -0.60113,0.16669 -0.20316,-0.76095 0.21401,-1.71101 1.34006,-3.05191 l 1.63504,-1.947 -0.0394,4.88655 c -0.0419,5.19359 -0.75485,8.29825 -1.47477,6.42217 z"
           id="path12233" /><path
           style="fill:#778c2b;stroke-width:0.524184"
           d="m 526.63231,316.32658 c 0,-0.22653 0.21904,-0.41186 0.48674,-0.41186 0.26771,0 0.86865,-0.38191 1.33543,-0.84868 0.46677,-0.46677 1.01398,-0.68337 1.21603,-0.48133 0.20204,0.20205 -0.0414,0.66624 -0.541,1.03156 -0.4996,0.36531 -0.80531,0.76724 -0.67937,0.89318 0.12595,0.12594 -0.23155,0.22899 -0.79442,0.22899 -0.56288,0 -1.02341,-0.18534 -1.02341,-0.41186 z"
           id="path12231" /><path
           style="fill:#778c2b;stroke-width:0.524184"
           d="m 500.92274,319.81654 c -0.55985,-0.67458 -0.54827,-0.78805 0.0669,-0.65523 0.44081,0.0952 1.17115,-0.73941 1.79233,-2.04817 1.29895,-2.73674 2.16628,-2.98092 0.99842,-0.28109 -0.46766,1.08113 -0.97011,2.37849 -1.11654,2.88301 -0.32896,1.13342 -0.85899,1.16431 -1.74107,0.10148 z"
           id="path12223" /><path
           style="fill:#778c2b;stroke-width:0.524184"
           d="m 517.98327,322.20497 c 0.52182,-0.57661 1.06671,-1.04837 1.21086,-1.04837 0.14415,0 -0.16485,0.47176 -0.68667,1.04837 -0.52182,0.5766 -1.06671,1.04836 -1.21086,1.04836 -0.14415,0 0.16485,-0.47176 0.68667,-1.04836 z"
           id="path12215" /><path
           style="fill:#778c2b;stroke-width:0.524184"
           d="m 525.9334,324.47643 c -0.1922,-0.1922 -0.34946,-0.90569 -0.34946,-1.58553 0,-0.8439 -0.42577,-1.39794 -1.342,-1.7463 -0.7381,-0.28062 -1.19594,-0.74655 -1.01743,-1.03539 0.17851,-0.28884 -0.10215,-0.55162 -0.62369,-0.58394 -0.52154,-0.0323 0.70292,-0.37165 2.72103,-0.75406 2.01811,-0.38241 7.02189,-0.70979 11.11951,-0.72751 7.68721,-0.0332 10.94353,-0.73091 13.98236,-2.99577 l 1.10734,-0.8253 -1.11296,0.25543 c -0.8731,0.20038 -1.05953,0.0511 -0.86506,-0.69255 0.26319,-1.00646 2.24011,-3.05193 2.24011,-2.31779 0,0.23821 -0.39038,0.86447 -0.86752,1.3917 -1.11691,1.23417 -0.72422,1.19824 3.99423,-0.36551 2.15213,-0.71325 3.95663,-1.29681 4.01001,-1.29681 0.0534,0 -0.72856,0.82559 -1.73762,1.83464 -1.00905,1.00906 -2.10591,1.83582 -2.43745,1.83725 -0.33155,0.002 -1.31047,0.58266 -2.17537,1.29161 -1.16192,0.95241 -1.34109,1.29392 -0.68617,1.30786 0.48752,0.0104 1.02998,0.25118 1.20547,0.53514 0.19363,0.31329 -0.25795,0.41174 -1.14847,0.25039 -0.98911,-0.17922 -1.8948,0.0759 -2.77803,0.78251 -1.28832,1.03071 -1.29105,1.04861 -0.16198,1.06007 0.63166,0.006 1.2605,0.19291 1.39742,0.41444 0.13691,0.22154 -0.61579,0.32659 -1.67267,0.23346 -1.05688,-0.0931 -3.21895,0.0518 -4.80461,0.32221 -2.75595,0.46988 -2.7906,0.49498 -0.78628,0.56949 1.15321,0.0429 2.56851,0.45375 3.14511,0.91307 1.01985,0.8124 1.01272,0.82448 -0.26209,0.44447 -0.72076,-0.21485 -2.06475,-0.42124 -2.98665,-0.45864 -0.92191,-0.0374 -1.97158,-0.36287 -2.33262,-0.72324 -0.36104,-0.36038 -1.33028,-0.65523 -2.15387,-0.65523 -1.44273,0 -1.46763,0.0426 -0.68144,1.165 1.3501,1.92754 0.90634,2.37157 -0.53827,0.5386 -0.73845,-0.93698 -1.69648,-1.7036 -2.12897,-1.7036 -0.62305,0 -0.56074,0.28678 0.30009,1.38115 1.61542,2.05367 1.28831,2.82161 -0.3692,0.86672 -1.37339,-1.61982 -3.51894,-2.77206 -5.16175,-2.77206 -1.22099,0 -0.3121,0.98622 1.67346,1.81584 0.98934,0.41338 1.7988,0.97408 1.7988,1.24601 0,0.58288 -3.36899,-1.05504 -4.76073,-2.31455 -1.52111,-1.37659 -2.5768,-0.62281 -2.21867,1.58414 0.29656,1.82746 0.16205,2.20854 -0.53391,1.51258 z"
           id="path12209" /><path
           style="fill:#778c2b;stroke-width:0.524184"
           d="m 503.08662,323.65093 c -0.37592,-0.60194 -0.40977,-0.88662 -0.0813,-0.68361 0.30958,0.19134 0.56288,0.0732 0.56288,-0.26261 0,-0.33577 0.5897,-1.31132 1.31046,-2.16789 1.63707,-1.94556 1.66238,-1.3929 0.0791,1.72746 -1.14121,2.2491 -1.27201,2.34604 -1.87115,1.38665 z"
           id="path12207" /><path
           style="fill:#778c2b;stroke-width:0.524184"
           d="m 492.22571,313.03174 c -0.31901,-0.83134 -1.23793,-1.09074 -1.23793,-0.34946 0,0.55434 0.57299,1.13574 1.11928,1.13574 0.23121,0 0.2846,-0.35383 0.11865,-0.78628 z"
           id="path12201" /><path
           style="fill:#778c2b;stroke-width:0.524184"
           d="m 502.14497,327.72136 c -1.03891,-0.45171 -1.81261,-1.23984 -2.01715,-2.05479 -0.31557,-1.25735 -2.02691,-2.62465 -5.79036,-4.62629 -1.77425,-0.94366 -2.73698,-1.98042 -1.83899,-1.98042 0.2883,0 0.66996,0.23588 0.84814,0.52418 0.50052,0.80986 1.83465,0.61927 1.83465,-0.26209 0,-0.43245 -0.32201,-0.78627 -0.71559,-0.78627 -0.80985,0 -3.65315,-2.09621 -3.30946,-2.43989 0.12299,-0.123 1.07895,0.28101 2.12434,0.89781 1.38222,0.81553 1.89619,0.92858 1.88414,0.41444 -0.009,-0.38886 -1.03896,-1.32692 -2.28855,-2.08459 -1.24958,-0.75767 -2.64537,-2.12607 -3.10174,-3.04088 -0.81468,-1.63307 -0.80881,-1.65695 0.32286,-1.31401 1.8767,0.56872 2.20099,0.53006 2.20099,-0.26233 0,-0.42202 -0.80636,-0.95842 -1.83465,-1.22044 -2.84463,-0.72485 -3.28359,-1.55146 -0.59585,-1.12205 2.21908,0.35454 2.26924,0.33193 1.68516,-0.75944 -0.40784,-0.76206 -1.10326,-1.12486 -2.15612,-1.12486 -0.85476,0 -1.55411,-0.23588 -1.55411,-0.52419 0,-0.2883 0.49142,-0.52418 1.09205,-0.52418 1.58322,0 0.94367,-1.27709 -0.73934,-1.47632 -0.77059,-0.0912 -1.40108,-0.40198 -1.40108,-0.69056 0,-0.28858 0.44253,-0.38424 0.98339,-0.21257 0.71644,0.22739 1.06531,-0.001 1.28518,-0.84192 0.4292,-1.64128 0.0279,-2.01822 -2.16846,-2.03714 -1.06412,-0.009 -2.34755,-0.33003 -2.85208,-0.71302 -1.23525,-0.93769 -1.16793,-1.53805 0.0966,-0.86131 0.55765,0.29845 1.8633,0.54263 2.90145,0.54263 1.68672,0 1.83129,-0.10513 1.35875,-0.98807 -0.29084,-0.54344 -1.12472,-1.13764 -1.85308,-1.32045 -0.72836,-0.18281 -1.32429,-0.57966 -1.32429,-0.8819 0,-0.31097 0.45509,-0.40508 1.04837,-0.21678 1.57984,0.50143 1.32668,-1.00692 -0.39314,-2.34227 -1.29733,-1.0073 -1.32355,-1.08678 -0.26209,-0.79467 1.30219,0.35836 1.64636,-0.50309 0.39313,-0.984 -0.43245,-0.16595 -0.78627,-0.5376 -0.78627,-0.82591 0,-0.2883 0.37384,-0.38073 0.83075,-0.20539 0.60776,0.23322 0.3875,-0.55926 -0.8206,-2.95251 -1.86224,-3.68906 -1.84009,-4.6328 0.0442,-1.8829 1.00345,1.46445 1.31494,1.65604 1.5594,0.95914 0.24422,-0.69621 0.46162,-0.56152 1.08409,0.67163 1.87615,3.71681 3.06819,4.88633 3.06819,3.0102 0,-2.22466 0.95356,0.42826 1.26236,3.51204 0.22564,2.25332 0.17012,3.14939 -0.16391,2.64595 -0.2778,-0.41869 -0.38879,-0.94942 -0.24665,-1.17942 0.14215,-0.22999 0.009,-0.41816 -0.29667,-0.41816 -0.30532,0 -0.49615,-0.26537 -0.42408,-0.58971 0.0721,-0.32434 -0.16381,-0.69782 -0.52418,-0.82996 -0.36038,-0.13214 -0.65523,0.0299 -0.65523,0.36017 0,0.9256 1.57263,5.88234 2.33186,7.34971 0.37292,0.72075 0.97508,2.25399 1.33814,3.40719 0.36305,1.15321 0.84672,2.33448 1.07482,2.62506 0.85238,1.08583 2.05458,5.30707 2.06194,7.24 0.005,1.34159 0.50777,2.72921 1.52333,4.20528 0.83363,1.21165 1.89036,3.02327 2.34827,4.02583 0.45791,1.00256 1.43046,2.70739 2.16122,3.78852 0.73076,1.08113 1.26625,1.95647 1.18998,1.94518 -0.0763,-0.0113 -0.89708,-0.35027 -1.82401,-0.7533 z"
           id="path12199" /><path
           style="fill:#526028;stroke-width:0.524184"
           d="m 506.99882,361.86281 c -0.65982,-0.48246 -0.87109,-1.10166 -0.67069,-1.96569 1.86996,-8.06278 3.00598,-13.93944 3.00544,-15.5473 -0.001,-2.80226 -3.11331,-11.90291 -5.43122,-15.88104 -1.08343,-1.85944 -2.36101,-4.08845 -2.83906,-4.95335 -0.47805,-0.86491 -1.64325,-2.80731 -2.58933,-4.31646 -1.14528,-1.82689 -1.7227,-3.40353 -1.72778,-4.71766 -0.007,-1.90968 -1.21469,-6.13216 -2.06194,-7.21146 -0.2281,-0.29057 -0.71177,-1.47185 -1.07482,-2.62506 -0.36306,-1.1532 -0.96522,-2.68644 -1.33814,-3.40719 -0.74158,-1.43326 -2.33186,-6.41583 -2.33186,-7.30603 0,-1.32142 0.85816,-0.36429 1.73501,1.9351 0.52181,1.36835 1.6703,4.02115 2.55219,5.89511 1.88552,4.00656 4.09244,10.54826 4.11701,12.20348 0.009,0.63977 0.71313,2.34263 1.56364,3.78414 0.8505,1.44151 1.7825,3.15709 2.07109,3.81241 0.28859,0.65532 1.39497,2.54238 2.45862,4.19348 1.06365,1.65109 2.59072,4.74937 3.3935,6.88507 1.37655,3.66218 2.29019,5.24747 2.72657,4.731 0.56051,-0.66339 6.69233,-33.03759 7.16723,-37.8409 0.58464,-5.91316 1.24068,-8.63057 1.73923,-7.204 1.4888,4.26018 1.48603,4.46489 -0.18929,13.97989 -2.15263,12.22592 -2.34128,13.80188 -1.65215,13.80188 0.30878,0 0.70929,-0.23926 0.89001,-0.53168 0.18073,-0.29242 1.27458,-1.01427 2.43078,-1.60412 1.84219,-0.93982 3.37745,-1.10464 12.41381,-1.33277 8.30699,-0.20971 11.00697,-0.46782 13.88839,-1.32773 1.96722,-0.58708 3.69243,-0.95175 3.8338,-0.81038 0.14137,0.14137 -1.11434,0.92362 -2.79049,1.73832 -2.88214,1.4009 -3.55954,1.50033 -12.48283,1.83236 -11.27164,0.4194 -12.97434,0.7011 -15.77685,2.61015 -2.99597,2.04084 -3.58018,3.18018 -4.5436,8.86116 -2.14751,12.66318 -5.16613,27.62577 -6.47726,32.10629 -0.32233,1.10152 -0.73416,1.14518 -2.00901,0.21298 z"
           id="path12295" /></g></g></g></svg>
