<?xml version="1.0" encoding="UTF-8" standalone="no"?>
<!-- Created with Inkscape (http://www.inkscape.org/) -->

<svg
   width="200.63483mm"
   height="275.68137mm"
   viewBox="0 0 200.63483 275.68137"
   version="1.1"
   id="svg5"
   xml:space="preserve"
   xmlns="http://www.w3.org/2000/svg"
   xmlns:svg="http://www.w3.org/2000/svg"><defs
     id="defs2" /><g
     id="layer1"
     style="display:inline;opacity:1"
     transform="translate(2753.7096,694.78731)"><g
       id="g133378"
       transform="matrix(2.2040458,0,0,2.2040458,-4608.5527,-1214.8745)"><path
         style="fill:#f6f9fb;stroke-width:0.524184"
         d="m 872.01757,298.09498 c -0.49715,1.11398 -0.49715,1.11398 0,0 z"
         id="path133224" /><path
         style="fill:#f6f9fb;stroke-width:0.524184"
         d="m 879.18458,293.60379 c 0.61655,3.96369 -4.65755,6.26754 0,0 z"
         id="path133226" /><path
         style="fill:#f6f9fb;stroke-width:0.524184"
         d="m 875.52227,292.32635 c -16.20173,6.46944 -6.0809,46.59546 -4.64839,14.17442 -0.46688,-5.24541 4.89764,-9.10647 4.64839,-14.17442 z"
         id="path133228" /><path
         style="fill:#f6f9fb;stroke-width:0.524184"
         d="m 884.51914,291.01584 c 0.79029,8.70565 -2.50099,15.70065 0,0 z"
         id="path133230" /><path
         style="fill:#f6f9fb;stroke-width:0.524184"
         d="m 864.4692,290.76727 c -15.69534,-4.14267 -24.26285,25.68454 -9.98242,8.66025 -11.3792,4.28071 10.40812,-6.17605 9.98242,-8.66025 z"
         id="path133232" /><path
         style="fill:#f6f9fb;stroke-width:0.524184"
         d="m 881.59218,290.36265 c -20.54973,9.36713 -3.79048,45.1328 -1.86799,10.58056 -1.45633,-3.76643 3.23043,-6.90586 1.86799,-10.58056 z"
         id="path133234" /><path
         style="fill:#f6f9fb;stroke-width:0.524184"
         d="m 871.74162,287.3819 c -16.01535,4.17718 -28.94552,36.85833 -6.82465,12.33531 10.76612,-8.3296 9.96339,-8.2046 6.82465,-12.33531 z"
         id="path133236" /><path
         style="fill:#f6f9fb;stroke-width:0.524184"
         d="m 902.63069,287.14424 c -11.54172,0.58815 12.2995,8.71736 -4.62594,3.7814 12.07896,26.22575 30.84964,4.45636 4.62594,-3.7814 z"
         id="path133238" /><path
         style="fill:#f6f9fb;stroke-width:0.524184"
         d="m 893.14652,286.04146 c 3.68321,15.7547 -4.13003,-3.44845 -1.14075,9.15983 -20.84345,-18.62626 -11.4912,54.77765 -1.35943,15.41082 -4.07101,-19.74376 -7.2068,-15.35693 6.80849,-4.39411 9.19945,-5.08551 -0.95958,-14.97318 -4.30831,-20.17654 z"
         id="path133240" /><path
         style="fill:#f6f9fb;stroke-width:0.524184"
         d="m 853.9856,277.41573 c -22.44164,0.24523 -11.028,19.41736 7.04505,9.77346 23.87406,-1.23379 -10.62384,-5.10239 11.58771,-5.23102 -4.74811,-3.99363 -12.62564,-4.01728 -18.63276,-4.54244 z"
         id="path133242" /><path
         style="fill:#f6f9fb;stroke-width:0.524184"
         d="m 908.81688,275.74461 c -14.38101,5.54692 -5.45877,4.54545 -12.88821,10.14237 9.70761,5.53414 39.56553,-7.43067 12.88821,-10.14237 z"
         id="path133244" /><path
         style="fill:#f6f9fb;stroke-width:0.524184"
         d="m 918.69741,270.52322 c -21.62189,11.4059 22.97547,3.79691 0,0 z"
         id="path133246" /><path
         style="fill:#f6f9fb;stroke-width:0.524184"
         d="m 923.0465,266.11729 c -19.84229,4.71996 17.38967,5.26146 0,0 z"
         id="path133248" /><path
         style="fill:#f6f9fb;stroke-width:0.524184"
         d="m 850.55894,264.60007 c -14.20129,20.066 34.80661,14.57494 0,0 z"
         id="path133250" /><path
         style="fill:#f6f9fb;stroke-width:0.524184"
         d="m 899.04021,262.97227 c 0.81603,4.01284 -4.50718,4.72928 0,0 z"
         id="path133252" /><path
         style="fill:#f6f9fb;stroke-width:0.524184"
         d="m 857.78433,257.16387 c -9.49518,12.29816 23.71363,27.64754 14.78787,19.37498 10.06923,5.18818 -15.93769,-21.08174 1.41364,-2.21735 21.67422,7.29645 -23.2748,-31.44719 -0.34375,-6.27796 14.41378,20.53124 -11.39551,-15.22758 -15.85776,-10.87967 z"
         id="path133254" /><path
         style="fill:#f6f9fb;stroke-width:0.524184"
         d="m 878.84506,255.45126 c -15.59241,20.22958 27.57125,24.56655 0,0 z"
         id="path133256" /><path
         style="fill:#f6f9fb;stroke-width:0.524184"
         d="m 923.48007,253.53717 c -22.74854,10.33597 -33.56253,34.3139 -7.0617,14.06325 3.42764,-3.0256 14.34152,-9.42305 7.0617,-14.06325 z"
         id="path133258" /><path
         style="fill:#f6f9fb;stroke-width:0.524184"
         d="m 893.8674,252.09594 c -16.6704,5.90217 0.8182,32.82812 -1.03969,4.74268 z"
         id="path133260" /><path
         style="fill:#f6f9fb;stroke-width:0.524184"
         d="m 914.17417,241.02429 c -19.43252,12.91492 -9.79256,41.32236 1.07669,10.67069 2.95248,-2.09987 4.23831,-10.22181 -1.07669,-10.67069 z"
         id="path133262" /><path
         style="fill:#f6f9fb;stroke-width:0.524184"
         d="m 904.83573,235.96932 c -11.71111,6.24311 -13.95627,30.68972 -10.02738,33.76565 5.11654,10.41223 13.43487,-30.59862 10.02738,-33.76565 z"
         id="path133264" /><path
         style="fill:#f3cb46;stroke-width:0.524184"
         d="m 896.05114,274.68118 c 0.41117,0.0414 0.41117,0.0414 0,0 z"
         id="path133266" /><path
         style="fill:#f3cb46;stroke-width:0.524184"
         d="m 893.56127,284.54489 c 7.35147,-11.65972 3.43819,-1.52344 0,0 z"
         id="path133268" /><path
         style="fill:#f3cb46;stroke-width:0.524184"
         d="m 890.41616,287.93503 c 0.43678,-0.36796 0.43678,-0.36796 0,0 z"
         id="path133270" /><path
         style="fill:#f3cb46;stroke-width:0.524184"
         d="m 878.35993,285.31106 c -1.67826,-2.22751 -2.40888,1.88794 0,0 z"
         id="path133272" /><path
         style="fill:#f3cb46;stroke-width:0.524184"
         d="m 874.52112,288.78817 c -1.17591,-24.08961 38.36709,-11.67619 4.26595,-2.86721 -2.39876,-1.6262 -2.52776,4.42435 -4.26595,2.86721 z"
         id="path133274" /><path
         style="fill:#f3cb46;stroke-width:0.524184"
         d="m 885.9606,289.85266 c 5.75577,-3.92687 -1.24616,2.13902 0,0 z"
         id="path133276" /><path
         style="fill:#f3cb46;stroke-width:0.524184"
         d="m 882.94654,290.4067 c 0.41117,0.0414 0.41117,0.0414 0,0 z"
         id="path133278" /><path
         style="fill:#f3cb46;stroke-width:0.524184"
         d="m 877.83574,290.20573 c 2.29753,-1.9901 3.30552,3.89755 0,0 z"
         id="path133280" /><path
         style="fill:#e7a314;stroke-width:0.524184"
         d="m 876.26319,285.03701 c 2.38692,-1.88034 1.58062,2.53724 0,0 z"
         id="path133282" /><path
         style="fill:#e7a314;stroke-width:0.524184"
         d="m 876.80105,289.49077 c 1.09469,-5.174 32.81775,-22.14263 14.4451,-2.63506 -4.07241,2.97247 -9.56247,4.29035 -14.4451,2.63506 z"
         id="path133284" /><path
         style="fill:#90a334;stroke-width:0.524184"
         d="m 926.58414,306.9023 c 3.55237,-5.56491 9.5115,3.84524 0,0 z"
         id="path133286" /><path
         style="fill:#90a334;stroke-width:0.524184"
         d="m 923.14481,306.54296 c 5.1133,-7.05447 2.2366,4.80092 0,0 z"
         id="path133288" /><path
         style="fill:#90a334;stroke-width:0.524184"
         d="m 931.30253,308.31408 c 0.75988,-3.21955 2.47851,3.53393 0,0 z"
         id="path133290" /><path
         style="fill:#90a334;stroke-width:0.524184"
         d="m 929.10751,309.26647 c 1.74055,-1.69984 0.62045,1.43548 0,0 z"
         id="path133292" /><path
         style="fill:#90a334;stroke-width:0.524184"
         d="m 919.02955,308.18304 c 2.54503,-8.06412 3.97613,3.80072 0,0 z"
         id="path133294" /><path
         style="fill:#90a334;stroke-width:0.524184"
         d="m 916.5187,309.62786 c 3.329,-5.25826 -0.829,4.34873 0,0 z"
         id="path133296" /><path
         style="fill:#90a334;stroke-width:0.524184"
         d="m 925.28783,311.21885 c 0.29078,-3.4381 3.22844,1.41001 0,0 z"
         id="path133298" /><path
         style="fill:#90a334;stroke-width:0.524184"
         d="m 921.40992,313.42483 c 3.57575,-6.73289 3.2124,2.91831 0,0 z"
         id="path133300" /><path
         style="fill:#90a334;stroke-width:0.524184"
         d="m 911.82615,313.14742 c 5.06047,-11.13044 4.6739,0.389 0,0 z"
         id="path133302" /><path
         style="fill:#90a334;stroke-width:0.524184"
         d="m 907.63829,315.40192 c 1.33282,-11.46685 7.42332,1.831 0,0 z"
         id="path133304" /><path
         style="fill:#90a334;stroke-width:0.524184"
         d="m 916.99057,317.93289 c 1.67581,-6.8513 7.15531,0.74753 0,0 z"
         id="path133306" /><path
         style="fill:#90a334;stroke-width:0.524184"
         d="m 910.07307,321.1566 c 12.06035,-7.41445 0.83019,3.99784 0,0 z"
         id="path133308" /><path
         style="fill:#90a334;stroke-width:0.524184"
         d="m 902.99658,322.26344 c 6.79889,-15.60326 4.2986,-3.12563 0,0 z"
         id="path133310" /><path
         style="fill:#90a334;stroke-width:0.524184"
         d="m 908.89366,324.44925 c -1.0414,-4.86852 5.9945,2.12486 0,0 z"
         id="path133312" /><path
         style="fill:#90a334;stroke-width:0.524184"
         d="m 905.53704,325.55032 c 6.82572,-2.06006 -3.98426,2.41932 0,0 z"
         id="path133314" /><path
         style="fill:#90a334;stroke-width:0.524184"
         d="m 870.69069,330.36088 c -20.01317,-5.15959 -2.02893,-6.78266 0,0 z"
         id="path133316" /><path
         style="fill:#90a334;stroke-width:0.524184"
         d="m 852.81729,330.59191 c -3.36026,-10.16681 15.6858,0.76455 0,0 z"
         id="path133318" /><path
         style="fill:#90a334;stroke-width:0.524184"
         d="m 873.93786,330.85401 c -15.05509,-11.64273 9.71185,3.82722 0,0 z"
         id="path133320" /><path
         style="fill:#90a334;stroke-width:0.524184"
         d="m 857.91674,332.79434 c -7.54917,-0.4239 5.24561,-3.32075 0,0 z"
         id="path133322" /><path
         style="fill:#90a334;stroke-width:0.524184"
         d="m 879.11533,333.97019 c -0.58323,-2.26397 4.04324,4.50847 0,0 z"
         id="path133324" /><path
         style="fill:#90a334;stroke-width:0.524184"
         d="m 881.29787,334.87241 c -16.61605,-15.4484 6.3584,1.28715 0,0 z"
         id="path133326" /><path
         style="fill:#90a334;stroke-width:0.524184"
         d="m 874.64477,341.80659 c -25.98092,-10.93729 -1.36597,-11.0609 0,0 z"
         id="path133328" /><path
         style="fill:#90a334;stroke-width:0.524184"
         d="m 886.60597,340.35003 c -5.70847,-9.16027 7.07329,6.65373 0,0 z"
         id="path133330" /><path
         style="fill:#90a334;stroke-width:0.524184"
         d="m 892.91526,345.5507 c -14.46984,-16.67716 7.83727,4.30216 0,0 z"
         id="path133332" /><path
         style="fill:#90a334;stroke-width:0.524184"
         d="m 888.87003,348.7143 c -23.97173,-10.73921 -2.48448,-5.86943 0,0 z"
         id="path133334" /><path
         style="fill:#778c2b;stroke-width:0.524184"
         d="m 926.06069,306.21731 c 4.63778,-5.86234 -0.38017,3.41147 0,0 z"
         id="path133336" /><path
         style="fill:#778c2b;stroke-width:0.524184"
         d="m 921.35467,308.183 c 0.24446,-6.06607 4.14267,1.65043 0,0 z"
         id="path133338" /><path
         style="fill:#778c2b;stroke-width:0.524184"
         d="m 914.0229,311.91832 c 4.94456,-9.18438 5.16637,0.32534 0,0 z"
         id="path133340" /><path
         style="fill:#778c2b;stroke-width:0.524184"
         d="m 909.81098,314.36255 c 0.22121,-7.86851 5.70162,-0.5967 0,0 z"
         id="path133342" /><path
         style="fill:#778c2b;stroke-width:0.524184"
         d="m 907.37043,316.17272 c 3.69054,-4.05905 2.56009,4.98357 0,0 z"
         id="path133344" /><path
         style="fill:#778c2b;stroke-width:0.524184"
         d="m 906.14169,319.3861 c 0.43677,-0.36796 0.43677,-0.36796 0,0 z"
         id="path133346" /><path
         style="fill:#778c2b;stroke-width:0.524184"
         d="m 904.6713,319.84614 c 0.66115,-2.76324 -0.055,3.92486 0,0 z"
         id="path133348" /><path
         style="fill:#778c2b;stroke-width:0.524184"
         d="m 902.99658,323.05542 c 0.43678,-0.36796 0.43678,-0.36796 0,0 z"
         id="path133350" /><path
         style="fill:#778c2b;stroke-width:0.524184"
         d="m 903.52077,325.59621 c 8.61806,-16.65291 43.5493,-24.34347 11.15142,-6.81033 -2.32625,-0.99972 -5.78599,9.52267 -11.15142,6.81033 z"
         id="path133352" /><path
         style="fill:#778c2b;stroke-width:0.524184"
         d="m 864.10867,328.66129 c 1.74056,-1.69986 0.62044,1.43547 0,0 z"
         id="path133354" /><path
         style="fill:#778c2b;stroke-width:0.524184"
         d="m 872.92427,330.77907 c -14.86158,-7.77124 3.02774,-0.31637 0,0 z"
         id="path133356" /><path
         style="fill:#778c2b;stroke-width:0.524184"
         d="m 901.46539,333.95543 c 0.87168,-1.83121 -0.10174,2.63751 0,0 z"
         id="path133358" /><path
         style="fill:#778c2b;stroke-width:0.524184"
         d="m 881.70815,336.31251 c -17.82542,-14.9151 2.84726,-1.41354 0,0 z"
         id="path133360" /><path
         style="fill:#778c2b;stroke-width:0.524184"
         d="m 901.5068,339.50304 c 0.37447,-3.46821 0.39937,2.76857 0,0 z"
         id="path133362" /><path
         style="fill:#778c2b;stroke-width:0.524184"
         d="m 899.89284,342.86656 c 0.87172,-1.83119 -0.10175,2.63754 0,0 z"
         id="path133364" /><path
         style="fill:#778c2b;stroke-width:0.524184"
         d="m 888.31943,341.40187 c -0.43678,-0.36797 -0.43678,-0.36797 0,0 z"
         id="path133366" /><path
         style="fill:#778c2b;stroke-width:0.524184"
         d="m 890.72486,344.18048 c -12.04177,-13.48315 5.1359,3.34738 0,0 z"
         id="path133368" /><path
         style="fill:#778c2b;stroke-width:0.524184"
         d="m 894.54275,347.49685 c -0.35774,-2.19437 3.27002,4.99688 0,0 z"
         id="path133370" /><path
         style="fill:#778c2b;stroke-width:0.524184"
         d="m 890.34629,348.84101 c -10.73435,-7.07795 -51.73689,-29.1003 -19.11064,-16.19066 1.65337,-1.72205 31.99805,22.57747 19.11064,16.19066 z"
         id="path133372" /><path
         style="fill:#778c2b;stroke-width:0.524184"
         d="m 897.16367,351.69033 c 0.25313,-1.84438 2.41752,4.73764 0,0 z"
         id="path133374" /><path
         style="fill:#526028;stroke-width:0.524184"
         d="m 896.77646,361.04901 c 6.90882,-19.42136 -56.83968,-41.8395 -16.2048,-25.26195 34.77943,39.70014 12.87193,-20.43404 17.95959,-23.23545 -5.41233,27.57861 41.05044,-21.27712 16.70112,1.32957 -22.09492,9.16634 -7.80559,34.18977 -18.45591,47.16783 z"
         id="path133376" /></g></g></svg>
