<?xml version="1.0" encoding="UTF-8" standalone="no"?>
<!-- Created with Inkscape (http://www.inkscape.org/) -->

<svg
   width="153.08127mm"
   height="242.13785mm"
   viewBox="0 0 153.08127 242.13785"
   version="1.1"
   id="svg5"
   xml:space="preserve"
   xmlns="http://www.w3.org/2000/svg"
   xmlns:svg="http://www.w3.org/2000/svg"><defs
     id="defs2" /><g
     id="layer1"
     style="display:inline;opacity:1"
     transform="translate(2912.1374,301.48505)"><g
       id="g142335"><g
         id="g131374"
         transform="matrix(2.2040458,0,0,2.2040458,-3402.0636,-1097.8482)"><path
           style="fill:#f6f9fb;stroke-width:0.524184"
           d="m 254.41788,407.12396 c -0.7557,2.14964 -2.38178,7.09403 -1.85707,1.53923 -9.0274,1.27822 -7.47607,11.86181 1.40205,9.97769 4.6273,-1.99444 3.30938,-8.59486 0.45502,-11.51692 z"
           id="path131240" /><path
           style="fill:#f6f9fb;stroke-width:0.524184"
           d="m 265.70453,406.64957 c 2.26068,3.15562 8.61911,13.58013 2.36347,4.75644 -6.38672,-8.98892 0.0654,5.3 1.30352,8.51878 9.40366,3.62907 9.7913,-13.03325 0.14359,-11.89015 l -1.90253,-0.70052 z"
           id="path131242" /><path
           style="fill:#f6f9fb;stroke-width:0.524184"
           d="m 253.49545,405.95555 c -2.17229,0.86353 0.72661,2.0572 0,0 z"
           id="path131244" /><path
           style="fill:#f6f9fb;stroke-width:0.524184"
           d="m 260.28884,405.87185 c 3.66859,5.01797 0.11617,5.30907 0,0 z"
           id="path131246" /><path
           style="fill:#f6f9fb;stroke-width:0.524184"
           d="m 257.88537,405.83565 c 3.41155,5.65485 -0.32067,5.01585 0,0 z"
           id="path131248" /><path
           style="fill:#f6f9fb;stroke-width:0.524184"
           d="m 285.03823,404.76647 c -9.75925,-0.23728 -11.80997,8.46229 -0.95072,8.10908 5.08328,-0.33329 6.43677,-7.50757 0.95072,-8.10908 z"
           id="path131250" /><path
           style="fill:#f6f9fb;stroke-width:0.524184"
           d="m 260.8087,404.28487 c -2.55239,2.00976 -0.45626,3.82081 -3.59725,1.30951 -5.66633,4.08281 7.56468,20.09095 9.6993,10.36548 -0.11438,-4.56255 -2.94323,-8.70504 -6.10205,-11.67499 z"
           id="path131252" /><path
           style="fill:#f6f9fb;stroke-width:0.524184"
           d="m 271.62148,403.72422 c 1.5889,0.83909 -2.53956,0.002 0,0 z"
           id="path131254" /><path
           style="fill:#f6f9fb;stroke-width:0.524184"
           d="m 264.62087,402.14447 c 5.01987,1.27524 0.26513,1.9975 0,0 z"
           id="path131256" /><path
           style="fill:#f6f9fb;stroke-width:0.524184"
           d="m 247.1377,400.82676 c -10.75522,1.63312 -0.36985,18.08324 4.57645,6.5982 2.14764,-6.40354 -5.69643,0.81306 -1.45139,-4.48802 -0.79962,-1.03882 -2.04303,-1.47285 -3.12506,-2.11018 z"
           id="path131258" /><path
           style="fill:#f6f9fb;stroke-width:0.524184"
           d="m 286.52083,400.02371 c -7.01384,1.96013 -19.37742,-1.47966 -22.96187,4.00624 6.58041,6.38834 16.40677,1.95309 23.47325,-1.00369 1.56365,-0.62695 0.90545,-2.68955 -0.51138,-3.00255 z"
           id="path131260" /><path
           style="fill:#f6f9fb;stroke-width:0.524184"
           d="m 274.24251,396.38527 c 1.5888,0.83955 -2.54096,0.001 0,0 z"
           id="path131262" /><path
           style="fill:#f6f9fb;stroke-width:0.524184"
           d="m 282.89418,390.93547 c -4.45471,0.99277 -15.96784,0.68857 -14.42459,5.79594 9.65963,-0.28612 -7.28111,2.06903 2.39599,3.63612 5.34412,2.77086 22.15473,-4.59366 13.48909,-9.41752 -0.48682,0.009 -0.97367,-0.0124 -1.46049,-0.0145 z"
           id="path131264" /><path
           style="fill:#f6f9fb;stroke-width:0.524184"
           d="m 268.84697,389.82081 c -2.01267,3.05725 -2.38251,0.1508 0,0 z"
           id="path131266" /><path
           style="fill:#f6f9fb;stroke-width:0.524184"
           d="m 228.27735,389.5061 c -9.96226,0.213 4.17188,10.05083 1.76572,8.52782 -7.05165,0.60871 -8.55699,12.28839 -0.0589,7.41611 4.12201,-3.20649 7.39316,-9.96205 13.69153,-7.9732 -7.942,-1.71756 -15.96011,12.26238 -3.50382,7.1272 5.68629,-1.90364 3.02099,-4.6196 0.89197,-3.48933 9.41726,-3.63401 -1.91645,-7.21969 -6.69323,-4.18768 2.56151,-0.42201 3.15352,-2.38903 -0.86879,-3.48571 5.14947,0.0516 -3.81866,-5.28427 -5.22447,-3.93521 z"
           id="path131268" /><path
           style="fill:#f6f9fb;stroke-width:0.524184"
           d="m 287.67786,386.36107 c -5.1844,1.69636 -4.52045,4.19337 0.0873,5.31977 3.14763,7.53956 7.13621,-7.02055 -0.0873,-5.31977 z"
           id="path131270" /><path
           style="fill:#f6f9fb;stroke-width:0.524184"
           d="m 233.95298,385.90581 c 3.25019,1.9891 11.07751,9.69661 3.53051,3.66755 -1.26828,-1.12989 -2.4491,-2.35774 -3.53051,-3.66755 z"
           id="path131272" /><path
           style="fill:#f6f9fb;stroke-width:0.524184"
           d="m 236.81792,382.69258 c 3.73857,1.56022 7.78772,8.00949 2.08187,2.38344 -0.75916,-0.73377 -1.46999,-1.52149 -2.08187,-2.38344 z"
           id="path131274" /><path
           style="fill:#f6f9fb;stroke-width:0.524184"
           d="m 244.53683,381.86317 c 3.07901,3.31753 0.26664,3.53419 0,0 z"
           id="path131276" /><path
           style="fill:#f6f9fb;stroke-width:0.524184"
           d="m 286.74355,379.12486 c -7.93128,1.3073 -17.09042,4.19743 -21.21619,11.61228 4.3604,5.13652 17.40816,-0.95858 21.99895,-6.17779 1.35392,-1.39701 1.58786,-4.88276 -0.78276,-5.43449 z"
           id="path131278" /><path
           style="fill:#f6f9fb;stroke-width:0.524184"
           d="m 230.01988,375.87752 c -8.61641,5.05151 2.67942,15.43584 8.31335,18.0615 7.95287,4.25213 3.13169,-4.9698 2.17761,-5.00548 9.9699,5.03509 -2.19508,-11.16936 -7.33941,-11.41439 -1.03676,-0.57316 -2.09019,-1.11563 -3.15155,-1.64163 z"
           id="path131280" /><path
           style="fill:#f6f9fb;stroke-width:0.524184"
           d="m 224.97368,373.49622 c -8.34081,2.91495 5.66598,8.61093 2.65266,0.55829 l -0.83443,-0.3283 z"
           id="path131282" /><path
           style="fill:#f6f9fb;stroke-width:0.524184"
           d="m 247.14029,373.27711 c 2.29664,4.29322 4.44227,16.04346 0.83788,5.36628 -0.46035,-1.75425 -0.73726,-3.55574 -0.83788,-5.36628 z"
           id="path131284" /><path
           style="fill:#f6f9fb;stroke-width:0.524184"
           d="m 266.56597,364.52162 c -6.39143,2.72625 2.23002,8.42221 1.93058,4.38541 -2.78587,4.5587 -7.47689,13.67339 -7.1949,16.90573 2.38761,-2.91266 3.50195,-3.87292 4.28283,-3.14275 6.65587,-9.04745 -0.66882,2.49322 -2.64406,5.84808 6.05071,2.75256 6.6215,-10.28535 13.19627,-6.93213 4.74136,-1.11637 14.14934,-6.00949 3.91207,-7.26665 -5.02271,-0.46247 -7.64635,8.6225 -4.59928,0.52841 2.78801,-7.10168 -2.35559,-10.21727 -8.88351,-10.3261 z"
           id="path131286" /><path
           style="fill:#f6f9fb;stroke-width:0.524184"
           d="m 239.19038,362.85144 c -9.56804,3.13387 9.80176,20.71692 -1.76413,9.74369 -7.53763,-7.76927 -12.10455,3.26106 -2.63317,5.22809 4.56473,0.51959 12.51219,14.90791 12.93705,6.02176 -5.69066,-5.9525 -1.20531,-17.49954 -8.53975,-20.99354 z"
           id="path131288" /><path
           style="fill:#f6f9fb;stroke-width:0.524184"
           d="m 245.72022,361.95124 c -3.93418,7.18975 -0.34991,16.49585 3.32014,22.89491 7.73437,1.65635 0.70002,-11.72449 3.34297,-16.80462 0.69858,-4.79954 -2.67932,-5.54527 -6.66311,-6.09029 z"
           id="path131290" /><path
           style="fill:#f6f9fb;stroke-width:0.524184"
           d="m 258.71581,361.33215 c -7.11828,3.26465 -8.2957,21.60216 -1.93026,22.20569 5.8612,4.46223 8.79952,-11.08608 7.25382,-15.64136 0.16784,-3.2288 -1.63887,-6.82485 -5.32356,-6.56433 z"
           id="path131292" /><path
           style="fill:#f3cb46;stroke-width:0.524184"
           d="m 243.40038,393.39365 c 0.75466,-1.90878 0.0612,2.51694 0,0 z"
           id="path131294" /><path
           style="fill:#f3cb46;stroke-width:0.524184"
           d="m 243.92457,395.49039 c 0.75466,-1.90874 0.0611,2.51696 0,0 z"
           id="path131296" /><path
           style="fill:#f3cb46;stroke-width:0.524184"
           d="m 245.38888,398.54813 c -0.7339,-2.04463 2.34046,2.89059 0,0 z"
           id="path131298" /><path
           style="fill:#f3cb46;stroke-width:0.524184"
           d="m 257.37001,389.18925 c -1.71733,-0.9962 -0.9731,1.26725 0,0 z"
           id="path131300" /><path
           style="fill:#f3cb46;stroke-width:0.524184"
           d="m 253.59474,389.00465 c -2.42763,-1.2632 -1.15971,1.82354 0,0 z"
           id="path131302" /><path
           style="fill:#f3cb46;stroke-width:0.524184"
           d="m 249.85558,391.82098 c -0.81239,-2.4086 -1.36963,3.00539 0,0 z"
           id="path131304" /><path
           style="fill:#f3cb46;stroke-width:0.524184"
           d="m 262.75382,392.48033 c -3.44422,-6.73617 -2.95706,2.35451 0,0 z"
           id="path131306" /><path
           style="fill:#f3cb46;stroke-width:0.524184"
           d="m 263.55382,402.06416 c 6.85456,-4.35021 -2.90958,-6.45068 -6.29949,-3.53955 -6.59391,0.8321 -10.37412,-11.13733 -12.05851,-9.3437 6.86262,-8.39555 22.73516,-1.87806 21.67823,8.89887 -0.0882,1.81222 -1.18572,4.09814 -3.32023,3.98438 z"
           id="path131308" /><path
           style="fill:#f3cb46;stroke-width:0.524184"
           d="m 248.66076,401.79731 c -4.78725,-4.64094 7.39538,5.20123 0,0 z"
           id="path131310" /><path
           style="fill:#f3cb46;stroke-width:0.524184"
           d="m 261.18127,403.98519 c 0.85122,-1.93545 2.52617,-0.96918 0,0 z"
           id="path131312" /><path
           style="fill:#e7a314;stroke-width:0.524184"
           d="m 256.36532,389.14792 c 2.22341,-1.22663 0.0516,1.3133 0,0 z"
           id="path131314" /><path
           style="fill:#e7a314;stroke-width:0.524184"
           d="m 251.74595,389.29999 c 1.25285,-1.80855 2.83615,1.41512 0,0 z"
           id="path131316" /><path
           style="fill:#e7a314;stroke-width:0.524184"
           d="m 248.60084,392.183 c 1.01946,-2.77325 1.59749,1.37038 0,0 z"
           id="path131318" /><path
           style="fill:#e7a314;stroke-width:0.524184"
           d="m 260.99483,391.59493 c -3.28907,-4.43674 4.50484,3.17204 0,0 z"
           id="path131320" /><path
           style="fill:#e7a314;stroke-width:0.524184"
           d="m 255.17342,404.84273 c -6.25523,-1.84705 -14.6333,-9.01003 -9.42826,-15.81477 3.44281,0.29354 3.74769,10.25335 10.75132,8.943 5.6223,-1.42403 14.4958,0.66879 5.42309,5.37287 -2.10261,0.89968 -4.40944,1.85057 -6.74615,1.4989 z"
           id="path131322" /><path
           style="fill:#90a334;stroke-width:0.524184"
           d="m 282.67282,430.68978 c 3.633,-4.49466 5.91132,4.19372 0,0 z"
           id="path131324" /><path
           style="fill:#90a334;stroke-width:0.524184"
           d="m 279.29156,430.95851 c 5.79142,-5.16475 -8.66317,1.84291 -1.27284,-3.71974 3.88765,-0.94452 7.09269,4.08233 1.27284,3.71974 z"
           id="path131326" /><path
           style="fill:#90a334;stroke-width:0.524184"
           d="m 272.20211,430.62032 c 2.67701,-10.07042 4.73624,2.99417 0,0 z"
           id="path131328" /><path
           style="fill:#90a334;stroke-width:0.524184"
           d="m 268.71823,430.84195 c 4.01531,-8.28278 2.23732,5.09593 0,0 z"
           id="path131330" /><path
           style="fill:#90a334;stroke-width:0.524184"
           d="m 263.03545,433.1404 c -0.58161,-5.5039 8.31389,-5.07908 1.92058,-0.27668 6.64313,-3.68688 -2.08337,3.80357 -1.92058,0.27668 z"
           id="path131332" /><path
           style="fill:#90a334;stroke-width:0.524184"
           d="m 260.65708,432.73425 c 2.27325,-6.65266 2.5368,4.17518 0.0425,0.4669 z"
           id="path131334" /><path
           style="fill:#90a334;stroke-width:0.524184"
           d="m 281.3315,435.92828 c 0.185,-3.43519 6.11741,-0.62867 6.42159,-3.73538 5.69935,3.36374 -4.59918,4.38369 -6.42159,3.73538 z"
           id="path131336" /><path
           style="fill:#90a334;stroke-width:0.524184"
           d="m 255.41524,438.55231 c 1.25721,-5.20127 6.87625,-6.65144 1.48246,-1.08305 z"
           id="path131338" /><path
           style="fill:#90a334;stroke-width:0.524184"
           d="m 274.9024,438.17603 c -3.1959,-5.7904 4.48494,-0.084 1.96468,-1.75656 4.56971,-5.1432 7.09025,6.26022 -1.96468,1.75656 z"
           id="path131340" /><path
           style="fill:#90a334;stroke-width:0.524184"
           d="m 267.73357,441.01261 c -6.0159,-4.17925 3.33454,-2.84972 1.61185,-4.14289 3.66964,-1.06778 8.7354,4.08618 1.88989,3.2174 -0.82659,1.06907 -2.25313,1.97404 -3.50174,0.92549 z"
           id="path131342" /><path
           style="fill:#90a334;stroke-width:0.524184"
           d="m 263.16013,441.63151 c -7.28627,-6.04872 9.67485,-0.58906 1.67868,0.61482 z"
           id="path131344" /><path
           style="fill:#90a334;stroke-width:0.524184"
           d="m 258.43485,442.47125 c -5.5554,-3.51848 6.17207,-3.77808 4.65429,0.98389 -1.59864,0.0476 -3.15619,-0.50117 -4.65429,-0.98389 z"
           id="path131346" /><path
           style="fill:#778c2b;stroke-width:0.524184"
           d="m 250.78034,422.00538 c 0.45098,-3.34126 0.32343,2.87264 0,0 z"
           id="path131348" /><path
           style="fill:#778c2b;stroke-width:0.524184"
           d="m 276.51365,431.05689 c -3.59605,-1.35948 1.33078,-4.31835 0.22701,-1.08268 6.27959,-4.12735 4.16837,2.5524 -0.22701,1.08268 z"
           id="path131350" /><path
           style="fill:#778c2b;stroke-width:0.524184"
           d="m 270.65181,431.40544 c 3.97807,-10.71483 0.66272,4.91733 0,0 z"
           id="path131352" /><path
           style="fill:#778c2b;stroke-width:0.524184"
           d="m 264.689,432.67128 c 2.96942,-6.52735 5.36491,0.52058 2.49597,-0.85248 -0.42339,-1.1168 -3.16668,4.4852 -2.49597,0.85248 z"
           id="path131354" /><path
           style="fill:#778c2b;stroke-width:0.524184"
           d="m 262.64129,431.89391 c 2.61648,-3.95651 -1.43613,5.26611 0,0 z"
           id="path131356" /><path
           style="fill:#778c2b;stroke-width:0.524184"
           d="m 258.56938,435.95328 c 1.42915,-6.87935 4.12354,-1.01823 -0.26568,0.49058 z"
           id="path131358" /><path
           style="fill:#778c2b;stroke-width:0.524184"
           d="m 251.87814,439.56559 c 0.46562,-3.55755 0.12802,4.38035 0,0 z"
           id="path131360" /><path
           style="fill:#778c2b;stroke-width:0.524184"
           d="m 261.8251,441.80376 c -1.63719,-5.72154 -9.15778,2.22132 -3.25062,-3.62628 6.96247,-4.41864 15.55833,-5.07136 23.26177,-6.69294 1.11037,-3.09605 2.08465,0.44267 4.62974,1.08672 -0.3966,3.27151 -8.68351,0.20688 -4.22686,4.83596 -2.48657,-5.2797 -6.79424,1.44274 -5.58252,-1.1632 -4.5206,-4.10586 0.22273,6.79524 -3.47543,1.00906 -6.00415,-2.49715 -1.38356,3.08015 -5.82746,-0.32723 -3.08174,2.64547 1.33566,4.53195 -3.91339,1.37186 -6.0976,-0.44365 3.67674,6.03632 -1.61523,3.50605 z"
           id="path131362" /><path
           style="fill:#778c2b;stroke-width:0.524184"
           d="m 249.16641,443.1912 c 0.75467,-1.90877 0.0612,2.51695 0,0 z"
           id="path131364" /><path
           style="fill:#778c2b;stroke-width:0.524184"
           d="m 249.6906,450.52978 c 0.75472,-1.9087 0.0611,2.51695 0,0 z"
           id="path131366" /><path
           style="fill:#778c2b;stroke-width:0.524184"
           d="m 254.40825,465.73112 c 0.75474,-1.90871 0.0611,2.51696 0,0 z"
           id="path131368" /><path
           style="fill:#778c2b;stroke-width:0.524184"
           d="m 251.78733,468.87623 c 0.75473,-1.90869 0.0611,2.51695 0,0 z"
           id="path131370" /><path
           style="fill:#526028;stroke-width:0.524184"
           d="m 252.59109,470.8498 c -2.88123,-17.23297 -4.0285,-34.7729 -3.14783,-52.22912 4.04386,5.58338 -0.2399,20.54675 4.05442,23.59471 3.76639,-7.56657 12.2708,-8.9215 19.64326,-10.68694 4.05473,-1.57699 11.55237,1.31884 3.5378,0.71093 -6.56853,2.05449 -14.68706,1.99199 -19.49797,7.513 -6.44158,6.58474 -3.74247,15.66953 -2.65199,23.66467 -0.12663,1.2835 0.92227,9.49155 -1.93769,7.43275 z"
           id="path131372" /></g></g></g></svg>
