<?xml version="1.0" encoding="UTF-8" standalone="no"?>
<!-- Created with Inkscape (http://www.inkscape.org/) -->

<svg
   width="180.32803mm"
   height="235.94884mm"
   viewBox="0 0 180.32803 235.94884"
   version="1.1"
   id="svg5"
   xml:space="preserve"
   xmlns="http://www.w3.org/2000/svg"
   xmlns:svg="http://www.w3.org/2000/svg"><defs
     id="defs2" /><g
     id="layer1"
     style="display:inline;opacity:1"
     transform="translate(3565.6066,654.96856)"><g
       id="g133818"
       transform="matrix(2.2040458,0,0,2.2040458,-4899.194,-1492.8244)"><path
         style="fill:#f6f9fb;stroke-width:0.524184"
         d="m 628.3601,398.13247 c 9.57348,26.78852 18.82705,9.55172 0,0 z"
         id="path133672" /><path
         style="fill:#f6f9fb;stroke-width:0.524184"
         d="m 666.77997,397.12115 c -9.85879,3.60848 -29.70553,21.59432 -7.48115,11.21288 -0.58779,-2.90657 13.09969,-7.49387 7.48115,-11.21288 z"
         id="path133674" /><path
         style="fill:#f6f9fb;stroke-width:0.524184"
         d="m 619.69809,396.23335 c 10.3391,22.70397 27.42534,17.87654 0,0 z"
         id="path133676" /><path
         style="fill:#f6f9fb;stroke-width:0.524184"
         d="m 645.88977,396.01993 c 1.98362,2.19681 -1.67286,1.84307 0,0 z"
         id="path133678" /><path
         style="fill:#f6f9fb;stroke-width:0.524184"
         d="m 611.21334,395.87368 c -14.88939,1.89674 28.08035,14.05023 4.89457,0.91615 z"
         id="path133680" /><path
         style="fill:#f6f9fb;stroke-width:0.524184"
         d="m 652.24391,395.81268 c 0.93466,3.74919 -2.25849,1.7571 0,0 z"
         id="path133682" /><path
         style="fill:#f6f9fb;stroke-width:0.524184"
         d="m 685.67133,394.54248 c -11.79231,2.15034 -45.50663,28.20597 -15.35681,12.62159 2.97568,-5.67909 16.85259,-4.82101 15.35681,-12.62159 z"
         id="path133684" /><path
         style="fill:#f6f9fb;stroke-width:0.524184"
         d="m 632.68645,394.01848 c 5.25474,23.3084 23.64195,20.09142 0,0 z"
         id="path133686" /><path
         style="fill:#f6f9fb;stroke-width:0.524184"
         d="m 609.30699,392.14265 c -12.6496,3.86205 12.79277,3.95772 0,0 z"
         id="path133688" /><path
         style="fill:#f6f9fb;stroke-width:0.524184"
         d="m 650.73857,390.95978 c -0.17343,1.41734 -0.17343,1.41734 0,0 z"
         id="path133690" /><path
         style="fill:#f6f9fb;stroke-width:0.524184"
         d="m 613.33931,387.73157 c -8.75573,10.71764 23.74819,8.67222 0,0 z"
         id="path133692" /><path
         style="fill:#f6f9fb;stroke-width:0.524184"
         d="m 617.21039,385.23922 c 8.13541,16.24264 6.0189,3.67213 16.13376,15.32461 -5.01615,-5.34452 -8.82524,-12.75881 -16.13376,-15.32461 z"
         id="path133694" /><path
         style="fill:#f6f9fb;stroke-width:0.524184"
         d="m 664.40957,384.08373 c -19.21563,15.75697 -2.94943,28.87066 0,0 z"
         id="path133696" /><path
         style="fill:#f6f9fb;stroke-width:0.524184"
         d="m 642.5923,382.97786 c -10.98713,18.97588 16.33877,20.56223 0,0 z"
         id="path133698" /><path
         style="fill:#f6f9fb;stroke-width:0.524184"
         d="m 669.89761,382.0389 c -9.81068,13.31237 -11.73924,19.70731 1.81083,12.15924 -15.32757,24.83149 23.73872,-21.17401 -2.14929,-3.21529 -0.6291,-1.70409 4.26785,-7.83544 0.33846,-8.94395 z"
         id="path133700" /><path
         style="fill:#f6f9fb;stroke-width:0.524184"
         d="m 632.00742,381.9733 c 2.8886,11.70315 -15.30115,-3.32758 -2.22593,12.26562 0.20037,-8.14984 19.37644,14.05281 7.58109,-7.22474 l -5.35516,-5.04093 z"
         id="path133702" /><path
         style="fill:#f6f9fb;stroke-width:0.524184"
         d="m 650.64246,380.14448 c -12.91605,16.87701 11.83183,27.71363 2.51432,4.17332 z"
         id="path133704" /><path
         style="fill:#f3cb46;stroke-width:0.524184"
         d="m 647.63213,401.01481 c -4.68898,-2.39937 -6.99417,1.96871 0,0 z"
         id="path133706" /><path
         style="fill:#f3cb46;stroke-width:0.524184"
         d="m 652.60156,405.47191 c -21.99673,-3.80574 -4.0862,-14.41001 0,0 z"
         id="path133708" /><path
         style="fill:#f3cb46;stroke-width:0.524184"
         d="m 643.60101,406.20549 c -0.31791,-3.42699 2.20342,5.85102 0,0 z"
         id="path133710" /><path
         style="fill:#f3cb46;stroke-width:0.524184"
         d="m 647.71887,408.49745 c 0.42218,-0.36308 0.42218,-0.36308 0,0 z"
         id="path133712" /><path
         style="fill:#f3cb46;stroke-width:0.524184"
         d="m 644.89194,409.43877 c 2.85388,-3.12868 1.91952,3.55127 0,0 z"
         id="path133714" /><path
         style="fill:#e7a314;stroke-width:0.524184"
         d="m 645.18793,400.8532 c 6.95449,-3.40452 -1.58103,2.41567 0,0 z"
         id="path133716" /><path
         style="fill:#e7a314;stroke-width:0.524184"
         d="m 641.95284,400.8326 c 1.66563,-2.6759 1.89632,2.72924 0,0 z"
         id="path133718" /><path
         style="fill:#e7a314;stroke-width:0.524184"
         d="m 644.10171,406.53735 c 4.88164,-20.21142 14.19436,12.00043 0,0 z"
         id="path133720" /><path
         style="fill:#90a334;stroke-width:0.524184"
         d="m 613.51585,424.59789 c 0.41117,0.0414 0.41117,0.0414 0,0 z"
         id="path133722" /><path
         style="fill:#90a334;stroke-width:0.524184"
         d="m 670.78297,427.159 c 9.88278,-7.27634 8.32315,1.29726 0,0 z"
         id="path133724" /><path
         style="fill:#90a334;stroke-width:0.524184"
         d="m 621.93556,427.2079 c 1.91274,-1.68672 0.46143,1.4367 0,0 z"
         id="path133726" /><path
         style="fill:#90a334;stroke-width:0.524184"
         d="m 668.02972,427.1166 c 6.78026,-8.21949 6.07553,1.10178 0,0 z"
         id="path133728" /><path
         style="fill:#90a334;stroke-width:0.524184"
         d="m 605.06338,429.24459 c 3.8715,-7.19789 12.72879,3.44197 0,0 z"
         id="path133730" /><path
         style="fill:#90a334;stroke-width:0.524184"
         d="m 664.64493,428.63635 c 3.78322,-5.79269 0.53518,4.87374 0,0 z"
         id="path133732" /><path
         style="fill:#90a334;stroke-width:0.524184"
         d="m 626.68463,429.26962 c -0.30157,-1.99529 2.24956,3.49845 0,0 z"
         id="path133734" /><path
         style="fill:#90a334;stroke-width:0.524184"
         d="m 661.15868,431.39579 c -2.38889,-6.44014 7.19689,-1.71926 0,0 z"
         id="path133736" /><path
         style="fill:#90a334;stroke-width:0.524184"
         d="m 611.18942,430.76696 c 1.22295,-6.81791 9.14264,4.42333 0,0 z"
         id="path133738" /><path
         style="fill:#90a334;stroke-width:0.524184"
         d="m 680.87352,432.98489 c 0.72377,-9.11955 10.37957,2.29185 0,0 z"
         id="path133740" /><path
         style="fill:#90a334;stroke-width:0.524184"
         d="m 677.46632,432.60129 c -0.82728,-3.33649 4.17322,2.69584 0,0 z"
         id="path133742" /><path
         style="fill:#90a334;stroke-width:0.524184"
         d="m 674.22052,433.44977 c -2.40922,-5.55565 5.62735,1.3849 0,0 z"
         id="path133744" /><path
         style="fill:#90a334;stroke-width:0.524184"
         d="m 615.84847,433.7514 c -1.17176,-7.94717 6.90843,2.75632 0,0 z"
         id="path133746" /><path
         style="fill:#90a334;stroke-width:0.524184"
         d="m 669.78369,434.17747 c 1.27027,-6.13778 5.46652,3.46615 0,0 z"
         id="path133748" /><path
         style="fill:#90a334;stroke-width:0.524184"
         d="m 665.93427,436.59327 c -4.57951,-5.16365 9.24643,-0.0243 0,0 z"
         id="path133750" /><path
         style="fill:#90a334;stroke-width:0.524184"
         d="m 655.58163,436.81838 c 1.41391,-9.15507 7.84058,-4.58072 0,0 z"
         id="path133752" /><path
         style="fill:#90a334;stroke-width:0.524184"
         d="m 661.56745,436.52389 c 3.97336,-4.03714 -0.18695,3.87645 0,0 z"
         id="path133754" /><path
         style="fill:#90a334;stroke-width:0.524184"
         d="m 658.19597,437.81503 c 5.78562,-1.36139 -3.93772,2.35963 0,0 z"
         id="path133756" /><path
         style="fill:#90a334;stroke-width:0.524184"
         d="m 624.39267,437.52552 c -13.73387,-6.58105 10.64072,0.1603 0,0 z"
         id="path133758" /><path
         style="fill:#90a334;stroke-width:0.524184"
         d="m 639.78924,438.18075 c -0.30162,-1.9953 2.24959,3.49845 0,0 z"
         id="path133760" /><path
         style="fill:#90a334;stroke-width:0.524184"
         d="m 627.86178,439.67162 c 1.74114,-5.64993 7.94563,4.24773 0,0 z"
         id="path133762" /><path
         style="fill:#90a334;stroke-width:0.524184"
         d="m 630.01603,443.7951 c -2.2623,-8.99423 14.93069,2.51785 0,0 z"
         id="path133764" /><path
         style="fill:#90a334;stroke-width:0.524184"
         d="m 641.16656,445.38829 c 2.22093,-2.73797 2.80018,2.03536 0,0 z"
         id="path133766" /><path
         style="fill:#90a334;stroke-width:0.524184"
         d="m 635.58292,445.26148 c 1.48915,-6.93222 9.19766,4.06231 0,0 z"
         id="path133768" /><path
         style="fill:#778c2b;stroke-width:0.524184"
         d="m 651.81406,412.53076 c 1.91274,-1.68672 0.46143,1.4367 0,0 z"
         id="path133770" /><path
         style="fill:#778c2b;stroke-width:0.524184"
         d="m 648.28444,424.6393 c 0.87162,-1.83123 -0.10172,2.6375 0,0 z"
         id="path133772" /><path
         style="fill:#778c2b;stroke-width:0.524184"
         d="m 676.02482,426.25553 c 4.0132,-4.41379 2.76599,3.00728 0,0 z"
         id="path133774" /><path
         style="fill:#778c2b;stroke-width:0.524184"
         d="m 672.78143,427.20792 c 1.91274,-1.68674 0.46143,1.4367 0,0 z"
         id="path133776" /><path
         style="fill:#778c2b;stroke-width:0.524184"
         d="m 669.86117,426.91076 c 8.19933,-6.61966 0.38048,3.90339 0,0 z"
         id="path133778" /><path
         style="fill:#778c2b;stroke-width:0.524184"
         d="m 666.99454,427.78023 c 0.85468,-3.87591 1.15067,3.3721 0,0 z"
         id="path133780" /><path
         style="fill:#778c2b;stroke-width:0.524184"
         d="m 650.90536,428.83278 c 0.87162,-1.83124 -0.10172,2.63751 0,0 z"
         id="path133782" /><path
         style="fill:#778c2b;stroke-width:0.524184"
         d="m 662.22417,430.97319 c 1.93623,-7.25497 3.63983,0.60918 0,0 z"
         id="path133784" /><path
         style="fill:#778c2b;stroke-width:0.524184"
         d="m 614.17108,431.97454 c 1.5401,-4.30652 5.24306,0.88051 0,0 z"
         id="path133786" /><path
         style="fill:#778c2b;stroke-width:0.524184"
         d="m 659.40743,432.96453 c 3.22913,-8.50184 -0.91005,4.32648 0,0 z"
         id="path133788" /><path
         style="fill:#778c2b;stroke-width:0.524184"
         d="m 618.44463,432.82773 c 1.98052,-5.21298 0.0776,5.90728 0,0 z"
         id="path133790" /><path
         style="fill:#778c2b;stroke-width:0.524184"
         d="m 623.72929,435.7534 c 4.45167,-4.03535 1.27017,3.95205 0,0 z"
         id="path133792" /><path
         style="fill:#778c2b;stroke-width:0.524184"
         d="m 655.58163,437.36147 c 0.95545,-0.86252 0.95545,-0.86252 0,0 z"
         id="path133794" /><path
         style="fill:#778c2b;stroke-width:0.524184"
         d="m 658.46464,436.50539 c 16.8903,-17.04266 46.79098,-5.31311 13.04646,-3.83947 -3.31409,0.67529 -12.5475,6.68235 -13.04646,3.83947 z"
         id="path133796" /><path
         style="fill:#778c2b;stroke-width:0.524184"
         d="m 649.89837,438.04968 c 0.37448,-3.46784 0.3993,2.76859 0,0 z"
         id="path133798" /><path
         style="fill:#778c2b;stroke-width:0.524184"
         d="m 627.81089,437.8644 c 3.58911,-2.75153 -2.01109,3.13375 0,0 z"
         id="path133800" /><path
         style="fill:#778c2b;stroke-width:0.524184"
         d="m 629.63451,440.3303 c 4.62775,-3.16155 7.03168,1.86107 0,0 z"
         id="path133802" /><path
         style="fill:#778c2b;stroke-width:0.524184"
         d="m 641.69075,442.76754 c -9.56921,-8.03038 -50.98381,-21.58379 -17.59017,-14.56296 4.09945,0.98525 23.87302,13.99715 17.59017,14.56296 z"
         id="path133804" /><path
         style="fill:#778c2b;stroke-width:0.524184"
         d="m 635.55375,443.10995 c 6.04514,-5.48547 -2.68626,4.86437 0,0 z"
         id="path133806" /><path
         style="fill:#778c2b;stroke-width:0.524184"
         d="m 639.98389,445.25741 c 3.20632,-3.74619 3.44572,1.68397 0,0 z"
         id="path133808" /><path
         style="fill:#778c2b;stroke-width:0.524184"
         d="m 652.04453,463.9968 c 0.5668,-3.44086 0.005,4.63804 0,0 z"
         id="path133810" /><path
         style="fill:#778c2b;stroke-width:0.524184"
         d="m 649.85699,466.57404 c 0.87162,-1.83124 -0.10172,2.63751 0,0 z"
         id="path133812" /><path
         style="fill:#778c2b;stroke-width:0.524184"
         d="m 648.80862,477.58191 c 0.87162,-1.83124 -0.10172,2.63751 0,0 z"
         id="path133814" /><path
         style="fill:#526028;stroke-width:0.524184"
         d="m 648.63976,487.19708 c 9.48338,-28.58485 -5.29451,-48.01137 -31.36698,-58.22076 12.76636,5.93955 42.00475,31.20016 31.47545,-1.37664 -1.44514,-13.78078 -17.18153,-16.79596 6.09943,-13.91501 -11.19433,11.31571 -2.40159,37.06682 11.30016,15.79952 38.59651,-8.78289 -30.41898,4.33772 -13.84109,30.696 -2.27238,8.25518 2.60681,20.37414 -3.66697,27.01689 z"
         id="path133816" /></g></g></svg>
