<?xml version="1.0" encoding="UTF-8" standalone="no"?>
<!-- Created with Inkscape (http://www.inkscape.org/) -->

<svg
   width="197.74835mm"
   height="262.20251mm"
   viewBox="0 0 197.74835 262.20251"
   version="1.1"
   id="svg5"
   xml:space="preserve"
   xmlns="http://www.w3.org/2000/svg"
   xmlns:svg="http://www.w3.org/2000/svg"><defs
     id="defs2" /><g
     id="layer1"
     style="display:inline;opacity:1"
     transform="translate(3164.4542,322.04554)"><g
       id="g140972"><g
         id="g132118"
         transform="matrix(2.2040458,0,0,2.2040458,-3967.6883,-1143.349)"><path
           style="fill:#f6f9fb;stroke-width:0.524184"
           d="m 392.3631,425.29442 c -9.23083,0.47382 -13.69672,18.65811 -1.52682,13.95878 3.18339,-3.56545 3.88856,-9.82927 1.52682,-13.95878 z"
           id="path131912" /><path
           style="fill:#f6f9fb;stroke-width:0.524184"
           d="m 376.74958,421.94734 c -8.02973,-1.76493 -14.3461,15.25227 -3.2617,10.50988 1.66129,-5.59409 7.87574,-12.22358 -0.90221,-6.56593 0.44253,-1.43472 5.43756,-2.57498 4.16391,-3.94395 z"
           id="path131914" /><path
           style="fill:#f6f9fb;stroke-width:0.524184"
           d="m 418.38839,420.62598 c 6.50024,6.03241 -4.25122,-2.41463 -0.98218,2.80371 -8.67941,-5.13253 0.44948,11.97129 7.06868,6.21381 7.91216,-3.44262 -0.39955,-10.46397 -6.0865,-9.01752 z"
           id="path131916" /><path
           style="fill:#f6f9fb;stroke-width:0.524184"
           d="m 399.40195,419.90147 c 1.30281,1.02291 -1.18085,1.8269 0,0 z"
           id="path131918" /><path
           style="fill:#f6f9fb;stroke-width:0.524184"
           d="m 400.72641,418.77958 c -8.05275,1.67311 -10.23871,21.99279 0.36996,16.86836 3.71462,-4.07108 2.31496,-13.27062 -0.36996,-16.86836 z"
           id="path131920" /><path
           style="fill:#f6f9fb;stroke-width:0.524184"
           d="m 407.28725,417.18949 c 2.57607,0.93603 -0.86663,1.96674 0,0 z"
           id="path131922" /><path
           style="fill:#f6f9fb;stroke-width:0.524184"
           d="m 386.15108,416.07902 c -0.42541,1.96796 -3.93336,-0.61683 0,0 z"
           id="path131924" /><path
           style="fill:#f6f9fb;stroke-width:0.524184"
           d="m 407.24385,416.03412 c -3.76683,1.67844 -7.86673,6.83979 -1.74629,11.69694 9.2309,5.63373 11.54025,-11.9722 1.74629,-11.69694 z"
           id="path131926" /><path
           style="fill:#f6f9fb;stroke-width:0.524184"
           d="m 391.9285,415.51012 c -5.15599,3.21445 -23.12934,12.58796 -13.23169,17.22561 5.59271,-1.82494 16.3753,-10.01351 15.97232,-13.27315 -5.22127,3.84588 -3.45622,2.73493 -0.72665,-1.14169 -3.38462,1.27501 -11.8512,5.98613 -3.76634,0.70496 1.14605,-0.54494 3.1277,-2.14888 1.75236,-3.51573 z"
           id="path131928" /><path
           style="fill:#f6f9fb;stroke-width:0.524184"
           d="m 385.44879,414.55824 c -6.59199,0.037 -22.50145,0.73753 -20.21572,8.6658 7.97773,-0.60493 17.74239,-2.21643 23.30475,-8.09549 0.19539,-1.61504 -2.77307,-0.35499 -3.08903,-0.57031 z"
           id="path131930" /><path
           style="fill:#f6f9fb;stroke-width:0.524184"
           d="m 426.31245,413.92675 c -4.34602,-0.14232 -18.58628,2.06553 -6.32156,3.55224 3.92993,1.95094 -18.15125,-4.28013 -5.59079,0.77495 4.59878,2.85458 21.36501,5.76807 16.23751,-3.14954 -1.35932,-0.63713 -2.8278,-1.04948 -4.32516,-1.17765 z"
           id="path131932" /><path
           style="fill:#f6f9fb;stroke-width:0.524184"
           d="m 415.50536,411.90827 c 3.08848,0.21092 -2.64551,0.51559 0,0 z"
           id="path131934" /><path
           style="fill:#f6f9fb;stroke-width:0.524184"
           d="m 388.24759,411.90827 c 3.08852,0.21091 -2.64552,0.51561 0,0 z"
           id="path131936" /><path
           style="fill:#f6f9fb;stroke-width:0.524184"
           d="m 412.82128,411.38324 c 2.92126,0.44065 -3.59929,0.25958 0,0 z"
           id="path131938" /><path
           style="fill:#f6f9fb;stroke-width:0.524184"
           d="m 422.15663,411.05406 c -2.62003,1.46885 -5.50013,0.005 0,0 z"
           id="path131940" /><path
           style="fill:#f6f9fb;stroke-width:0.524184"
           d="m 416.51153,405.65077 c -3.824,-0.0351 -4.73042,3.45526 0,0 z"
           id="path131942" /><path
           style="fill:#f6f9fb;stroke-width:0.524184"
           d="m 387.64042,405.22031 c 3.29549,0.53768 2.58723,2.03296 0,0 z"
           id="path131944" /><path
           style="fill:#f6f9fb;stroke-width:0.524184"
           d="m 435.1662,404.62089 c -6.36882,4.66379 -20.20521,3.76586 -23.3273,7.6704 6.15196,3.8723 24.99732,1.04815 23.3273,-7.6704 z"
           id="path131946" /><path
           style="fill:#f6f9fb;stroke-width:0.524184"
           d="m 384.75739,397.16355 c 4.97675,2.43127 7.6407,7.34007 1.44882,1.55707 z"
           id="path131948" /><path
           style="fill:#f6f9fb;stroke-width:0.524184"
           d="m 437.25755,392.31315 c -6.57784,0.5742 -19.28821,9.21901 -18.64174,11.58033 5.21685,-1.67085 16.2107,-4.75968 5.32497,-0.12679 -4.37232,0.69385 -15.99553,8.0553 -4.66865,5.24436 7.58169,-1.0122 23.26467,-6.2033 16.8574,-12.69997 1.23782,-0.81289 4.85362,-3.60355 1.12802,-3.99793 z"
           id="path131950" /><path
           style="fill:#f6f9fb;stroke-width:0.524184"
           d="m 409.15797,391.12153 c -1.70336,7.86766 -3.43299,5.8345 0,0 z"
           id="path131952" /><path
           style="fill:#f6f9fb;stroke-width:0.524184"
           d="m 369.97483,389.97999 c -8.50066,7.72908 11.67989,12.45636 15.74443,11.03467 -5.34643,-3.43952 -8.49118,-11.36437 -15.74443,-11.03467 z"
           id="path131954" /><path
           style="fill:#f6f9fb;stroke-width:0.524184"
           d="m 423.41447,389.82496 c -1.94637,2.98138 -10.90703,9.89741 -3.74098,3.25641 1.19643,-1.14145 2.43036,-2.24656 3.74098,-3.25641 z"
           id="path131956" /><path
           style="fill:#f6f9fb;stroke-width:0.524184"
           d="m 432.82939,383.07446 c -8.98185,3.04225 -18.73351,8.48194 -21.8549,17.75461 2.04987,5.04891 12.03061,-7.27595 4.93294,0.24444 -6.93079,7.63907 7.95474,-3.36334 10.3128,-4.80141 2.92794,-1.96816 13.98473,-10.98665 6.60916,-13.19764 z"
           id="path131958" /><path
           style="fill:#f6f9fb;stroke-width:0.524184"
           d="m 380.85634,377.8547 c -7.89912,5.36322 12.48822,15.58016 6.62683,14.26547 -2.69938,-5.73952 -18.6429,-15.07079 -12.58503,-2.63477 3.11973,5.06116 14.17817,11.24301 13.716,14.52031 -7.11675,-0.50115 -21.50688,-11.50811 -23.88165,-2.00143 3.95203,3.07189 6.10355,5.5981 -0.29496,6.6037 -0.1783,9.26457 17.77477,4.91341 24.45778,4.66378 1.3255,-4.2713 -6.42831,-2.70267 1.09471,-3.70933 -4.41982,-2.4236 -16.08741,-1.32983 -16.65472,-3.0159 6.08044,0.93898 23.39019,3.26003 17.47496,-7.19704 -5.24082,-3.3381 7.85635,5.0506 1.79957,-1.84285 -5.50277,-5.40633 7.61789,7.11494 2.98269,-1.52765 -4.42995,-7.02177 6.99268,7.89868 2.45808,-0.96533 -4.60808,-6.64398 -9.45866,-13.89439 -17.19426,-17.15896 z"
           id="path131960" /><path
           style="fill:#f6f9fb;stroke-width:0.524184"
           d="m 424.54825,375.19801 c -6.85477,2.32916 -13.9618,15.23088 -12.24374,18.27582 3.91221,-5.39173 -3.25593,7.62111 2.08584,0.59082 2.1485,-5.80353 22.16403,-12.38726 10.1579,-18.86664 z"
           id="path131962" /><path
           style="fill:#f6f9fb;stroke-width:0.524184"
           d="m 391.57765,374.83576 c -10.26499,4.02371 8.77881,24.57538 7.47893,10.78736 -0.82769,-4.28433 -3.0805,-9.22221 -7.47893,-10.78736 z"
           id="path131964" /><path
           style="fill:#f6f9fb;stroke-width:0.524184"
           d="m 416.08468,372.63848 c -8.4902,3.95386 -11.37512,20.06094 -8.2029,25.68127 3.4252,-8.05884 9.0828,-16.39014 8.58968,-25.54981 l -0.38675,-0.13146 z"
           id="path131966" /><path
           style="fill:#f6f9fb;stroke-width:0.524184"
           d="m 403.55056,372.63448 c -5.16908,6.10005 -5.23958,20.21037 -1.89767,24.3681 2.21676,-7.08943 -0.53208,-3.37043 2.46266,0.67075 2.37742,-6.40142 7.08702,-20.92903 -0.56499,-25.03885 z"
           id="path131968" /><path
           style="fill:#f3cb46;stroke-width:0.524184"
           d="m 410.7876,409.86854 c 1.4417,-7.16961 3.85162,-5.88871 0,0 z"
           id="path131970" /><path
           style="fill:#f3cb46;stroke-width:0.524184"
           d="m 395.31618,403.5329 c -2.52897,0.34735 0.21336,2.95419 0,0 z"
           id="path131972" /><path
           style="fill:#f3cb46;stroke-width:0.524184"
           d="m 406.06994,406.01257 c -1.6584,-0.87654 -0.31161,2.41012 0,0 z"
           id="path131974" /><path
           style="fill:#f3cb46;stroke-width:0.524184"
           d="m 393.48952,408.95745 c -0.39335,-5.08323 -1.15488,4.09108 0,0 z"
           id="path131976" /><path
           style="fill:#f3cb46;stroke-width:0.524184"
           d="m 402.80483,410.89003 c -1.81975,-1.65432 -1.08639,2.93926 0,0 z"
           id="path131978" /><path
           style="fill:#f3cb46;stroke-width:0.524184"
           d="m 398.46927,412.88884 c -1.04714,-2.00642 -1.45674,2.00552 0,0 z"
           id="path131980" /><path
           style="fill:#f3cb46;stroke-width:0.524184"
           d="m 395.18316,413.98554 c -12.04175,-1.00729 -0.47956,-18.86775 8.63515,-15.41008 5.7431,-1.55307 8.79776,7.97409 4.89517,7.26288 -0.0258,-5.45231 -2.46681,7.23536 -5.45384,7.14763 -2.3978,1.33438 -5.45797,2.43872 -8.07648,0.99957 z"
           id="path131982" /><path
           style="fill:#f3cb46;stroke-width:0.524184"
           d="m 407.11831,415.66206 c 3.60866,-5.5584 3.82463,-0.85118 -0.0476,0.30306 z"
           id="path131984" /><path
           style="fill:#f3cb46;stroke-width:0.524184"
           d="m 402.96852,417.97203 c 2.28929,-2.50182 4.10072,-0.89206 0,0 z"
           id="path131986" /><path
           style="fill:#f3cb46;stroke-width:0.524184"
           d="m 392.89847,417.21336 c -0.71688,-2.18076 4.25077,4.56114 0,0 z"
           id="path131988" /><path
           style="fill:#f3cb46;stroke-width:0.524184"
           d="m 395.72728,418.29161 c 2.81162,-1.38148 0.95774,1.22505 0,0 z"
           id="path131990" /><path
           style="fill:#f3cb46;stroke-width:0.524184"
           d="m 398.99345,418.65486 c 4.89711,-1.86271 -1.6578,2.16322 0,0 z"
           id="path131992" /><path
           style="fill:#e7a314;stroke-width:0.524184"
           d="m 394.0137,404.89511 c 0.1843,-4.12113 2.01339,1.04896 0,0 z"
           id="path131994" /><path
           style="fill:#e7a314;stroke-width:0.524184"
           d="m 408.01309,406.25001 c -0.22185,-4.2296 3.64744,-0.46371 0,0 z"
           id="path131996" /><path
           style="fill:#e7a314;stroke-width:0.524184"
           d="m 405.02157,406.6605 c 0.35743,-2.87314 1.74156,0.97446 0,0 z"
           id="path131998" /><path
           style="fill:#e7a314;stroke-width:0.524184"
           d="m 392.5722,408.95745 c 1.17239,-4.1848 0.50667,3.77649 0,0 z"
           id="path132000" /><path
           style="fill:#e7a314;stroke-width:0.524184"
           d="m 401.35228,411.41605 c 0.98195,-2.67978 1.89659,1.04132 0,0 z"
           id="path132002" /><path
           style="fill:#e7a314;stroke-width:0.524184"
           d="m 397.15881,412.88884 c 1.467,-2.19633 1.23346,1.71487 0,0 z"
           id="path132004" /><path
           style="fill:#e7a314;stroke-width:0.524184"
           d="m 406.8199,409.27059 c -2.65637,1.03088 -1.07064,2.07617 0,0 z"
           id="path132006" /><path
           style="fill:#e7a314;stroke-width:0.524184"
           d="m 396.00686,418.16295 c -7.68965,-1.89956 -1.86492,-7.94693 2.48879,-3.33434 8.35586,-0.052 7.82093,-10.2605 13.41293,-10.69485 1.21071,8.7106 -7.56242,15.81212 -15.90172,14.02919 z"
           id="path132008" /><path
           style="fill:#90a334;stroke-width:0.524184"
           d="m 442.76284,435.00479 c 1.54393,-5.26426 14.31686,-0.0164 4.33624,-0.65009 -1.41431,0.35795 -2.85406,0.80603 -4.33624,0.65009 z"
           id="path132010" /><path
           style="fill:#90a334;stroke-width:0.524184"
           d="m 450.18258,435.89942 c -7.37031,-3.08371 11.87659,0.64553 0,0 z"
           id="path132012" /><path
           style="fill:#90a334;stroke-width:0.524184"
           d="m 435.94844,437.50908 c 1.42948,-4.7126 13.91951,-8.16075 4.92995,-1.94341 -2.76623,-1.68837 -2.40555,4.00713 -4.92995,1.94341 z"
           id="path132014" /><path
           style="fill:#90a334;stroke-width:0.524184"
           d="m 448.13572,439.08174 c -1.76508,-3.78014 5.17278,1.60391 0,0 z"
           id="path132016" /><path
           style="fill:#90a334;stroke-width:0.524184"
           d="m 443.8112,440.2331 c -3.06482,-3.34036 9.80388,1.96541 0,0 z"
           id="path132018" /><path
           style="fill:#90a334;stroke-width:0.524184"
           d="m 426.84555,441.49068 c 0.44731,-4.60705 8.00115,-2.69202 9.18458,-6.88183 2.80521,5.33508 -8.54018,4.68891 -5.90548,5.68276 0.12985,1.75874 -2.40011,3.0217 -3.2791,1.19907 z"
           id="path132020" /><path
           style="fill:#90a334;stroke-width:0.524184"
           d="m 440.8966,442.81847 c -4.16779,-4.37247 8.82377,-0.79021 0,0 z"
           id="path132022" /><path
           style="fill:#90a334;stroke-width:0.524184"
           d="m 438.04518,442.50527 c 0.44244,-3.15702 3.47262,3.26063 0,0 z"
           id="path132024" /><path
           style="fill:#90a334;stroke-width:0.524184"
           d="m 435.51216,444.74723 c -2.12482,-5.43068 9.83574,4.19523 0,0 z"
           id="path132026" /><path
           style="fill:#90a334;stroke-width:0.524184"
           d="m 424.04512,444.8609 c 3.52801,-6.97604 -0.0981,3.91041 -0.0862,0.12216 z"
           id="path132028" /><path
           style="fill:#90a334;stroke-width:0.524184"
           d="m 432.27915,445.93654 c -2.61692,-4.29641 9.59297,3.11784 0,0 z"
           id="path132030" /><path
           style="fill:#90a334;stroke-width:0.524184"
           d="m 369.11726,448.00551 c 3.52563,-3.87282 10.38741,0.94344 0,0 z"
           id="path132032" /><path
           style="fill:#90a334;stroke-width:0.524184"
           d="m 379.07445,448.44589 c -12.86815,-6.70282 4.69849,-1.10457 0,0 z"
           id="path132034" /><path
           style="fill:#90a334;stroke-width:0.524184"
           d="m 427.2994,449.05074 c -1.98594,-4.88272 11.32313,-1.06899 2.03967,0.23 z"
           id="path132036" /><path
           style="fill:#90a334;stroke-width:0.524184"
           d="m 382.15916,449.70481 c -6.05345,-6.07035 5.59158,0.27963 0,0 z"
           id="path132038" /><path
           style="fill:#90a334;stroke-width:0.524184"
           d="m 418.86111,448.22159 c 1.60502,-5.66683 8.30082,-7.86339 2.65583,-1.0572 -1.13682,2.14376 -6.45889,6.4523 -2.65583,1.0572 z"
           id="path132040" /><path
           style="fill:#90a334;stroke-width:0.524184"
           d="m 374.34849,451.83337 c -10.58899,-1.82714 -1.25535,-3.89354 3.34892,-0.13324 0.34884,1.60533 -3.95354,-1.15476 -3.34892,0.13324 z"
           id="path132042" /><path
           style="fill:#90a334;stroke-width:0.524184"
           d="m 422.90987,452.54429 c 2.22024,-7.38131 8.80011,3.13257 0,0 z"
           id="path132044" /><path
           style="fill:#90a334;stroke-width:0.524184"
           d="m 419.69873,453.83129 c 2.2606,-3.40103 3.45306,2.07433 0,0 z"
           id="path132046" /><path
           style="fill:#90a334;stroke-width:0.524184"
           d="m 391.66648,452.73896 c -2.9808,-2.65125 -8.37305,-5.40252 -2.54443,-0.22855 -3.63388,-1.43191 -10.6412,-9.17542 -2.12773,-5.46066 1.57743,-0.56026 10.77119,10.01065 4.67216,5.68921 z"
           id="path132048" /><path
           style="fill:#90a334;stroke-width:0.524184"
           d="m 394.94129,454.15137 c -7.80343,-7.9846 5.91075,-1.69723 0.77964,1.0423 z"
           id="path132050" /><path
           style="fill:#90a334;stroke-width:0.524184"
           d="m 379.77816,456.52717 c -7.03397,-9.84317 12.63466,2.47744 0,0 z"
           id="path132052" /><path
           style="fill:#90a334;stroke-width:0.524184"
           d="m 399.93769,457.56388 c -8.07172,-10.49503 8.44662,2.72675 0,0 z"
           id="path132054" /><path
           style="fill:#90a334;stroke-width:0.524184"
           d="m 385.09206,458.2181 c 0.55799,-5.78086 5.09239,3.02917 0,0 z"
           id="path132056" /><path
           style="fill:#90a334;stroke-width:0.524184"
           d="m 403.8227,459.66456 c -5.5626,-10.14532 5.82974,0.38602 0,0 z"
           id="path132058" /><path
           style="fill:#90a334;stroke-width:0.524184"
           d="m 391.83423,459.74986 c 4.0789,-2.30168 -1.82907,2.71489 0,0 z"
           id="path132060" /><path
           style="fill:#90a334;stroke-width:0.524184"
           d="m 388.29914,460.01964 c -2.01652,-5.68002 8.17099,0.35113 0,0 z"
           id="path132062" /><path
           style="fill:#90a334;stroke-width:0.524184"
           d="m 395.27124,463.33354 c -4.9152,-8.86189 7.34715,2.32005 0,0 z"
           id="path132064" /><path
           style="fill:#90a334;stroke-width:0.524184"
           d="m 398.06752,464.46869 c -0.97813,-6.94133 7.23647,1.52827 0,0 z"
           id="path132066" /><path
           style="fill:#90a334;stroke-width:0.524184"
           d="m 409.60818,464.20805 c -8.91909,-11.83927 9.54412,6.6373 0,0 z"
           id="path132068" /><path
           style="fill:#90a334;stroke-width:0.524184"
           d="m 400.09877,465.89437 c 1.35237,-5.56331 5.03032,4.30016 0,0 z"
           id="path132070" /><path
           style="fill:#90a334;stroke-width:0.524184"
           d="m 404.4107,468.57159 c -5.38066,-3.08862 5.71915,-0.71424 0,0 z"
           id="path132072" /><path
           style="fill:#90a334;stroke-width:0.524184"
           d="m 407.14777,470.07996 c 1.59086,-5.26273 7.75867,5.43246 0,0 z"
           id="path132074" /><path
           style="fill:#778c2b;stroke-width:0.524184"
           d="m 409.21505,428.61436 c -1.11834,-2.04796 3.09028,2.4203 0,0 z"
           id="path132076" /><path
           style="fill:#778c2b;stroke-width:0.524184"
           d="m 451.14978,434.85596 c -8.57152,0.24576 1.7788,-2.18219 2.15945,0.15968 z"
           id="path132078" /><path
           style="fill:#778c2b;stroke-width:0.524184"
           d="m 441.71447,435.22473 c 1.98069,-4.04725 6.34925,-3.65674 1.00742,-2.2e-4 0.0442,1.09114 -1.14362,0.65325 -1.00742,2.2e-4 z"
           id="path132080" /><path
           style="fill:#778c2b;stroke-width:0.524184"
           d="m 439.07792,435.45795 c 2.7526,-5.27481 -0.28806,3.22007 0,0 z"
           id="path132082" /><path
           style="fill:#778c2b;stroke-width:0.524184"
           d="m 435.0555,438.13075 c 2.04977,-6.82968 2.51584,1.30692 0,0 z"
           id="path132084" /><path
           style="fill:#778c2b;stroke-width:0.524184"
           d="m 431.931,438.80072 c -0.65027,-3.94456 1.7182,2.218 0,0 z"
           id="path132086" /><path
           style="fill:#778c2b;stroke-width:0.524184"
           d="m 429.73215,439.83744 c -0.84081,-3.82809 2.62905,4.11444 0,0 z"
           id="path132088" /><path
           style="fill:#778c2b;stroke-width:0.524184"
           d="m 422.47208,445.83689 c -0.79135,-6.53232 8.84483,-2.36114 3.9133,-3.57867 -1.54655,-1.56587 -4.02079,7.84401 -3.9133,3.57867 z"
           id="path132090" /><path
           style="fill:#778c2b;stroke-width:0.524184"
           d="m 384.57839,450.72446 c -0.5073,-3.24807 -8.79505,-3.22744 -5.59624,-5.95645 1.56919,0.89773 7.55758,3.66579 5.59624,5.95645 z"
           id="path132092" /><path
           style="fill:#778c2b;stroke-width:0.524184"
           d="m 440.14191,442.82342 c -2.47949,-3.97757 -3.63798,1.52193 0,0 z"
           id="path132094" /><path
           style="fill:#778c2b;stroke-width:0.524184"
           d="m 420.7471,450.62307 c 8.05217,-6.87234 17.95385,-14.0045 28.62056,-14.85139 2.11121,4.61964 -3.37858,3.39496 -6.62576,4.05769 4.98959,1.60545 -5.89691,-0.47143 -2.18145,3.84569 -1.97691,0.65564 -8.72271,-1.5787 -3.94186,2.03225 -6.22038,-2.09949 -2.87902,1.60908 -8.6144,1.35789 -1.28725,2.41717 -5.17951,6.73836 -9.74927,5.88671 l 1.27728,-1.13044 z"
           id="path132096" /><path
           style="fill:#778c2b;stroke-width:0.524184"
           d="m 391.7087,453.51323 c -3.87963,-1.28337 -8.2544,-7.47074 -1.63456,-1.93983 -0.30945,-0.3657 4.65593,3.67961 1.63456,1.93983 z"
           id="path132098" /><path
           style="fill:#778c2b;stroke-width:0.524184"
           d="m 394.53789,454.91778 c -4.06991,-4.57992 -3.01205,-6.43124 0.52687,-0.41421 l 0.23713,0.64805 z"
           id="path132100" /><path
           style="fill:#778c2b;stroke-width:0.524184"
           d="m 396.9586,454.73985 c -0.57237,-5.46772 2.82584,5.06003 0,0 z"
           id="path132102" /><path
           style="fill:#778c2b;stroke-width:0.524184"
           d="m 416.13163,457.1824 c 0.54111,-2.87607 0.0977,3.68459 0,0 z"
           id="path132104" /><path
           style="fill:#778c2b;stroke-width:0.524184"
           d="m 402.62043,459.35466 c -4.61165,-10.88055 3.27998,1.20661 0,0 z"
           id="path132106" /><path
           style="fill:#778c2b;stroke-width:0.524184"
           d="m 406.58813,462.01451 c -3.75395,-10.08017 4.24906,5.29456 0,0 z"
           id="path132108" /><path
           style="fill:#778c2b;stroke-width:0.524184"
           d="m 416.65581,465.56935 c 0.54111,-2.87607 0.0978,3.68456 0,0 z"
           id="path132110" /><path
           style="fill:#778c2b;stroke-width:0.524184"
           d="m 411.27211,465.96249 c -3.0399,-3.6603 3.4735,3.42691 0,0 z"
           id="path132112" /><path
           style="fill:#778c2b;stroke-width:0.524184"
           d="m 409.39119,468.9448 c -8.27988,-2.66807 -10.74313,-8.52135 -18.56949,-10.23932 -5.66224,-0.43526 -11.75678,-8.64254 -22.16239,-10.01319 4.94493,-0.54069 5.95744,-1.93423 6.00206,-2.56806 8.16002,7.23282 20.88703,8.67506 29.56759,16.22584 0.75891,0.60431 13.36601,10.45677 5.16223,6.59473 z"
           id="path132114" /><path
           style="fill:#526028;stroke-width:0.524184"
           d="m 414.56,491.59866 c -1.01475,-9.10926 4.20929,-20.92756 -6.68918,-26.30219 -6.30719,-7.96139 -26.88632,-13.06237 -28.71982,-16.87039 12.36225,3.20139 26.61139,14.02772 34.94106,17.73871 1.16591,-12.52066 -3.63949,-24.71984 -4.88268,-37.11164 4.93565,6.50866 3.33303,16.22821 7.33244,22.54757 7.17248,-5.2632 14.17729,-11.32311 22.77795,-14.60119 3.12503,-1.47867 11.43866,-2.82809 3.5659,-0.1109 -10.6971,5.60411 -28.33276,11.50396 -26.43896,26.41847 0.003,8.58244 2.88265,23.2208 -1.88671,28.29156 z"
           id="path132116" /></g></g></g></svg>
