<svg width="629.266" height="1105.169" viewBox="0 0 166.493 292.409" xmlns="http://www.w3.org/2000/svg">
  <path d="M37.502 189.314c1.872 4.84-9.347-1.885 0 0zM71.817 187.932c-.009 1.21-.009 1.21 0 0z" fill="#f6f9fb" />
  <path d="M72.558 179.695c-32.916 11.422 17.757 42.952 0 0z" fill="#f6f9fb" />
  <path
    d="M55.51 178.784c-69.58 24.926-1.862 17.368-5.649 16.517 9.843 10.507 20.157-19.436 5.648-16.517zM50.079 176.814c-41.71-9.78-71.254 26.102-11.81 5.38zM82.242 175.981c-16.591 19.51 34.687 19.8 0 0z"
    fill="#f6f9fb" />
  <path d="M89.93 174.534c11.493 44.958 60.77 6.176 0 0zM32.96 170.94c11.25 1.345-14.977.11 0 0z" fill="#f6f9fb" />
  <path
    d="M13.957 165.44c-56.103 24.342 81.081 1.018 0 0zM103.719 164.963c-11.157 6.56 34.54 9.997-8.963 5.593 24.076 22.715 74.71-5.507 8.963-5.593zM17.986 160.556c3.182 2.589-5.908-.927 0 0zM28.025 157.146c12.451 3.803 3.945 4.625 0 0z"
    fill="#f6f9fb" />
  <path d="M1.32 154.852c-9.366 17.898 35.43.94.056.004zM107.395 154.766c-6.125-1.759-3.419 6.032 0 0z"
    fill="#f6f9fb" />
  <path d="M136.34 153.744c-55.745-.042-20.552 20.228 6.532 2.236zM25.312 151.584c12.479.896 17.796 14.491 0 0z"
    fill="#f6f9fb" />
  <path
    d="M7.313 141.928c-.326 33.774 67.435 15.257 11.074 3.635zM36.31 139.16c13.993 13.739 2.21 8.496 0 0zM139.111 138.981c-65.588 9.69-13.702 29.676 6.692 1.012zM52.105 133.84c.86 1.843.86 1.843 0 0z"
    fill="#f6f9fb" />
  <path
    d="M134.75 127.498c-47.036 10.307-46.129 45.643 0 0zM22.458 125.608c-22.965 38.184 71.975 24.804 0 0zM78.749 118.612c-.009 1.21-.009 1.21 0 0z"
    fill="#f6f9fb" />
  <path d="M40.768 117.184c-16.441 31.888 49.818 34.57 0 0zM120.032 106.114c-74.178 39.239 8.29 55.962 0 0z"
    fill="#f6f9fb" />
  <path
    d="M88.149 104.1c-30.791 5.081-17.34 50.463-28.73 10.148-3.547 41.133 29.349 24.987 36.53 8.427 2.71-6.647 1.111-17.418-7.8-18.574zM91.648 58.848c-24.729 13.13 17.424 22.853-.861 5.82zM113.762 54.566c-25.2 22.48 33.592 46.512 0 0z"
    fill="#f6f9fb" />
  <path
    d="M100.932 53.167c-21.849 34.62 27.687 21.21 0 0zM123.835 51.186c-23.77 7.79 34.38 49.353 4.759 3.327 24.532 28.83 54.889-2.453-4.759-3.327zM93.44 48.76c-3.36 5.75-11.769 2.082 0 0zM89.134 45.01l-5.469 1.98 5.47-1.98z"
    fill="#f6f9fb" />
  <path d="M132.303 39.316c-14.34 21.724 74.234 21.096 11.4.663zM89.813 37.073c-81.6 5.412 18.052 57.319 0 0z"
    fill="#f6f9fb" />
  <path
    d="M66.572 34.021c-42.306 12.856 21.582 17.785 0 0zM87.98 32.208c1.043 5.178 7.355-1.896 0 0zM136.503 29.897c-1.043 5.18-7.358-1.896 0 0zM161.638 24.347c-44.919 11.342 14.458 23.839 0 0z"
    fill="#f6f9fb" />
  <path d="M161.785 13.744c-67.811 21.372-7.67 34.664 0 0zM74.699 11.468c19.967 10.53 14.36 13.52 0 0z"
    fill="#f6f9fb" />
  <path d="M137.835 6.214c-46.531 36.21 32.664 19.577 0 0z" fill="#f6f9fb" />
  <path d="M124.832 6.092c-24.062 22.549 13.98 22.971 0 0z" fill="#f6f9fb" />
  <path d="M110.848 1.181c-28.111 21.303 32.6 25.154 0 0z" fill="#f6f9fb" />
  <path
    d="M93.296 0c9.88 40.034-13.001-10.917-38.011 12.21-13.37 13.267 54.306 36.19 14.8 11.147C82.887 31.29 129.514 33.009 93.295 0z"
    fill="#f6f9fb" />
  <path
    d="M109.494 43.843c-58.32-27.493 57.958-10.695 0 0zM122.157 50.33c1.362-.817 1.362-.817 0 0zM97.493 50.511c-13.602-11.578 8.484 3.435 0 0zM115.775 52.427c9.555-8.655-1.766 5.213 0 0zM104.442 53.358c.907.091.907.091 0 0zM93.934 165.034c.27-12.535 4.085-.631 0 0zM73.287 151.317c11.944-12.205-23.07 7.641 0 0zM57.363 153.935c-3.796-3.144-2.68 5.198 0 0z"
    fill="#f3cb46" />
  <path
    d="M60.35 167.504c-48.098-23.905 75.688-34.283 13.296-.754l-7.262 1.674zM89.712 170.375c.963-.811.963-.811 0 0zM43.476 170.206c-3.985-7.842 5.55 5.89 0 0zM79.6 176.073c14.664-9.727-4.568 5.838 0 0zM66.702 179.64c2.12-.253 2.12-.253 0 0zM56.785 178.898c-5.117-4.443 13.972 5.648 0 0z"
    fill="#f3cb46" />
  <path
    d="M105.285 53.05c-41.306-23.399 61.331-5.548 0 0zM60.829 151.092c4.867-10.085 9.122 2.688 0 0zM67.578 152.668c10.554-11.645 18.105 1.765 0 0zM53.897 154.6c2.309-5.172 4.113 3.433 0 0zM60.829 178.929c-55.561-13.815 77.4-32.712 17.46-2.169l-8.687 2.083z"
    fill="#e7a314" />
  <path d="M120.69 51.023c3.836-3.746 1.367 3.164 0 0z" fill="#90a334" />
  <path
    d="M106.069 83.006c.825-7.643.88 6.102 0 0zM104.823 108.905c1.92-4.036-.225 5.813 0 0zM102.512 200.176c1.92-4.036-.224 5.813 0 0z"
    fill="#778c2b" />
  <path
    d="M105.527 104.669c3.577-61.677 8.266 22.537 0 0zM97.471 292.41c-13.7-36.909-33.305-137.709-3.659-66.37 13.91-71.86-2.734 25.781 6.135 46.54.67 4.695 6.824 17.608-2.476 19.83z"
    fill="#526028" />
</svg>