<?xml version="1.0" encoding="UTF-8" standalone="no"?>
<!-- Created with Inkscape (http://www.inkscape.org/) -->

<svg
   width="168.78055mm"
   height="287.37622mm"
   viewBox="0 0 168.78055 287.37622"
   version="1.1"
   id="svg5"
   xml:space="preserve"
   xmlns="http://www.w3.org/2000/svg"
   xmlns:svg="http://www.w3.org/2000/svg"><defs
     id="defs2" /><g
     id="layer1"
     style="display:inline;opacity:1"
     transform="translate(2518.7002,706.59867)"><g
       id="g133670"
       transform="matrix(2.2040458,0,0,2.2040458,-3596.7221,-1518.6567)"><path
         style="fill:#f6f9fb;stroke-width:0.524184"
         d="m 506.27449,433.88867 c -21.35692,-1.8098 -16.80116,29.45388 -3.07471,4.38587 z"
         id="path133588" /><path
         style="fill:#f6f9fb;stroke-width:0.524184"
         d="m 516.35036,432.57506 c -10.10786,-2.41892 -19.57716,21.96819 -6.89631,17.11261 -3.46568,-13.76623 19.75265,-2.92637 6.89631,-17.11261 z"
         id="path133590" /><path
         style="fill:#f6f9fb;stroke-width:0.524184"
         d="m 504.0922,431.82316 c 3.5527,0.44517 -3.77985,0.30283 0,0 z"
         id="path133592" /><path
         style="fill:#f6f9fb;stroke-width:0.524184"
         d="m 520.40541,430.32509 c -6.08797,10.03879 19.77916,21.39841 6.1565,3.44081 z"
         id="path133594" /><path
         style="fill:#f6f9fb;stroke-width:0.524184"
         d="m 525.16481,428.64199 c -0.0573,12.29939 31.09934,13.61563 7.83671,0.44839 l -2.44294,-0.11949 z"
         id="path133596" /><path
         style="fill:#f6f9fb;stroke-width:0.524184"
         d="m 533.49454,420.05237 c -31.29009,6.67061 22.57778,12.31588 5.09609,0.34411 z"
         id="path133598" /><path
         style="fill:#f6f9fb;stroke-width:0.524184"
         d="m 521.6627,416.03412 c -11.61395,8.43316 -23.80718,0.50394 -18.21801,6.33759 -26.33519,-6.40881 0.73836,9.07272 5.1393,3.16354 6.23437,1.93211 15.20933,-3.39649 13.07871,-9.50113 z"
         id="path133600" /><path
         style="fill:#f6f9fb;stroke-width:0.524184"
         d="m 534.82779,411.84057 c -17.97555,4.16833 -17.23821,20.16517 -0.99546,3.95758 6.29306,-0.58411 3.2605,-5.00219 0.99546,-3.95758 z"
         id="path133602" /><path
         style="fill:#f6f9fb;stroke-width:0.524184"
         d="m 529.18992,398.47405 c 0.45593,0.77135 0.45593,0.77135 0,0 z"
         id="path133604" /><path
         style="fill:#f6f9fb;stroke-width:0.524184"
         d="m 531.50451,397.35835 c 2.46591,0.8559 0.62435,4.7475 0,0 z"
         id="path133606" /><path
         style="fill:#f6f9fb;stroke-width:0.524184"
         d="m 537.06489,397.25555 c -5.74645,11.48851 25.32717,11.98074 4.81336,2.2691 z"
         id="path133608" /><path
         style="fill:#f6f9fb;stroke-width:0.524184"
         d="m 519.33368,396.97232 c -12.73107,-2.45757 -31.55875,21.27868 -9.13252,6.57254 l 5.10844,-3.88897 z"
         id="path133610" /><path
         style="fill:#f6f9fb;stroke-width:0.524184"
         d="m 533.14989,395.67057 c -14.12183,7.3593 -22.26553,1.12346 -30.50987,17.4072 11.63812,-5.43212 22.54634,-16.86501 33.72363,-6.38477 1.24007,-3.84166 -0.87425,-8.09406 -3.21376,-11.02243 z"
         id="path133612" /><path
         style="fill:#f6f9fb;stroke-width:0.524184"
         d="m 511.4308,395.16776 c 13.02479,1.7318 -6.98047,-0.13746 0,0 z"
         id="path133614" /><path
         style="fill:#f6f9fb;stroke-width:0.524184"
         d="m 537.30829,393.65106 c 11.82193,4.13435 2.83995,2.29665 0,0 z"
         id="path133616" /><path
         style="fill:#f6f9fb;stroke-width:0.524184"
         d="m 511.59616,388.29069 c 12.12456,5.38894 3.03466,2.24064 0,0 z"
         id="path133618" /><path
         style="fill:#f6f9fb;stroke-width:0.524184"
         d="m 543.14411,388.26849 c -0.47385,2.34921 -3.33726,-0.86034 0,0 z"
         id="path133620" /><path
         style="fill:#f6f9fb;stroke-width:0.524184"
         d="m 495.48759,383.09206 c -19.67805,5.68563 31.97069,11.2042 0.81332,10.47874 -26.4081,10.44496 28.97381,3.98694 21.58488,0.17174 13.10076,-3.40522 -19.66289,-12.66164 -22.3982,-10.65048 z"
         id="path133622" /><path
         style="fill:#f6f9fb;stroke-width:0.524184"
         d="m 556.5221,377.97303 c -12.24658,-0.8016 -23.50521,14.12792 -4.72503,4.86674 -26.48591,0.18129 -6.76761,29.50289 2.70799,15.51228 -35.6615,-11.23383 29.55146,-6.39819 5.86255,-19.19835 z"
         id="path133624" /><path
         style="fill:#f6f9fb;stroke-width:0.524184"
         d="m 540.27503,368.50985 c -12.30175,5.86754 -5.95497,23.07074 -13.33277,8.05673 -20.41514,5.63047 2.28404,22.19363 9.48034,5.31665 -4.49176,16.71237 19.50943,-15.1261 3.85243,-13.37338 z"
         id="path133626" /><path
         style="fill:#f3cb46;stroke-width:0.524184"
         d="m 534.4554,394.41134 c 5.71686,-5.15501 -1.92123,3.11015 0,0 z"
         id="path133628" /><path
         style="fill:#f3cb46;stroke-width:0.524184"
         d="m 531.22859,396.02664 c 2.36365,-3.51197 1.19476,1.90201 0,0 z"
         id="path133630" /><path
         style="fill:#f3cb46;stroke-width:0.524184"
         d="m 525.58394,394.37997 c -4.22795,-4.20202 -0.7755,3.16197 0,0 z"
         id="path133632" /><path
         style="fill:#f3cb46;stroke-width:0.524184"
         d="m 520.44694,396.0101 c 7.8746,-17.51024 28.48485,-2.90462 0,0 z"
         id="path133634" /><path
         style="fill:#f3cb46;stroke-width:0.524184"
         d="m 529.11345,397.09826 c 3.07232,-3.01473 -0.20237,1.74197 0,0 z"
         id="path133636" /><path
         style="fill:#f3cb46;stroke-width:0.524184"
         d="m 523.22883,397.6935 c 1.41324,-1.19425 0.78063,2.25303 0,0 z"
         id="path133638" /><path
         style="fill:#f3cb46;stroke-width:0.524184"
         d="m 506.23051,430.33918 c 8.58315,-14.91711 22.804,3.17704 0,0 z"
         id="path133640" /><path
         style="fill:#f3cb46;stroke-width:0.524184"
         d="m 517.24068,432.15261 c 0.84439,-0.67009 0.84439,-0.67009 0,0 z"
         id="path133642" /><path
         style="fill:#f3cb46;stroke-width:0.524184"
         d="m 514.28312,433.09885 c 2.89645,-4.59507 1.70322,1.23889 0,0 z"
         id="path133644" /><path
         style="fill:#f3cb46;stroke-width:0.524184"
         d="m 508.219,433.46307 c 6.02669,-0.85118 2.7597,2.59116 0,0 z"
         id="path133646" /><path
         style="fill:#e7a314;stroke-width:0.524184"
         d="m 524.53557,394.50711 c -6.07725,-2.2412 6.92784,1.29117 0,0 z"
         id="path133648" /><path
         style="fill:#e7a314;stroke-width:0.524184"
         d="m 524.53557,398.27532 c -0.80152,-8.23658 27.95108,-10.6235 3.96709,-0.85531 z"
         id="path133650" /><path
         style="fill:#e7a314;stroke-width:0.524184"
         d="m 507.6566,432.76643 c 6.08136,-8.09475 21.44108,-1.73298 1.67266,0.96828 z"
         id="path133652" /><path
         style="fill:#778c2b;stroke-width:0.524184"
         d="m 533.07244,439.36034 c 0.51042,-4.38943 0.0822,5.61907 0,0 z"
         id="path133654" /><path
         style="fill:#778c2b;stroke-width:0.524184"
         d="m 535.06064,445.60687 c 0.87163,-1.83122 -0.10173,2.6375 0,0 z"
         id="path133656" /><path
         style="fill:#778c2b;stroke-width:0.524184"
         d="m 526.8446,472.51479 c -2.69661,-3.47844 4.33527,4.39075 0,0 z"
         id="path133658" /><path
         style="fill:#778c2b;stroke-width:0.524184"
         d="m 530.42321,473.69421 c 0.26412,-3.91866 0.34061,3.78055 0,0 z"
         id="path133660" /><path
         style="fill:#526028;stroke-width:0.524184"
         d="m 531.73368,410.13687 c -0.42689,-5.89476 2.75844,5.25561 0,0 z"
         id="path133662" /><path
         style="fill:#526028;stroke-width:0.524184"
         d="m 531.96874,418.52917 c 2.37623,-5.79087 2.3068,4.96127 0,0 z"
         id="path133664" /><path
         style="fill:#526028;stroke-width:0.524184"
         d="m 532.74685,428.5234 c -0.50085,-8.44957 4.14451,4.37107 0,0 z"
         id="path133666" /><path
         style="fill:#526028;stroke-width:0.524184"
         d="m 525.67462,498.70221 c 7.58671,-19.72718 -5.86918,-36.22496 -9.14821,-54.11982 3.77509,21.8419 17.44544,29.34763 16.42594,3.21078 4.91363,-20.8 -4.08789,36.57597 -4.86466,45.44253 l -0.8973,5.5898 z"
         id="path133668" /></g></g></svg>
