<?xml version="1.0" encoding="UTF-8" standalone="no"?>
<!-- Created with Inkscape (http://www.inkscape.org/) -->

<svg
   width="180.33345mm"
   height="280.90512mm"
   viewBox="0 0 180.33345 280.90512"
   version="1.1"
   id="svg5"
   xml:space="preserve"
   xmlns="http://www.w3.org/2000/svg"
   xmlns:svg="http://www.w3.org/2000/svg"><defs
     id="defs2" /><g
     id="layer1"
     style="display:inline;opacity:1"
     transform="translate(3766.066,340.25727)"><g
       id="g141216"><g
         id="g131528"
         transform="matrix(2.2040458,0,0,2.2040458,-4832.5607,-858.1434)"><path
           style="fill:#f6f9fb;stroke-width:0.524184"
           d="m 539.47508,285.42601 c 3.47824,1.78518 3.86592,3.67101 0,0 z"
           id="path131376" /><path
           style="fill:#f6f9fb;stroke-width:0.524184"
           d="m 533.04085,282.9234 c 1.20909,3.86182 5.54871,19.30603 1.44429,8.63827 -1.16672,-2.6949 -1.98701,-5.68717 -1.44429,-8.63827 z"
           id="path131378" /><path
           style="fill:#f6f9fb;stroke-width:0.524184"
           d="m 525.16329,282.40044 c -0.0469,5.83921 -3.44198,6.18049 0,0 z"
           id="path131380" /><path
           style="fill:#f6f9fb;stroke-width:0.524184"
           d="m 540.85898,280.92973 c 4.76824,1.71724 11.06237,7.92347 3.14515,2.36719 -1.09055,-0.73046 -2.15288,-1.50658 -3.14515,-2.36719 z"
           id="path131382" /><path
           style="fill:#f6f9fb;stroke-width:0.524184"
           d="m 519.97808,279.20167 c -0.15772,1.80306 -3.49511,3.90438 -1.12988,1.07545 z"
           id="path131384" /><path
           style="fill:#f6f9fb;stroke-width:0.524184"
           d="m 512.27312,278.17382 c -12.52608,4.18238 -0.62383,23.47514 5.9275,10.59849 -8.1628,2.71771 -11.18663,-3.99974 -5.9275,-10.59849 z"
           id="path131386" /><path
           style="fill:#f6f9fb;stroke-width:0.524184"
           d="m 518.69547,277.92526 c -2.2208,4.47525 -5.47723,3.02028 0,0 z"
           id="path131388" /><path
           style="fill:#f6f9fb;stroke-width:0.524184"
           d="m 539.08854,277.193 c -7.27648,5.10847 17.83479,14.094 3.41022,7.56292 -4.40743,-4.90848 -7.99901,-0.9087 -8.55148,-2.17048 -10.16931,-4.49034 -8.13706,17.87791 -1.73191,19.39135 5.54654,-1.55281 -4.61514,-19.26628 -0.98509,-15.09417 -0.35672,6.27005 8.3225,23.82402 12.03417,11.16461 0.40468,-4.38072 -7.04826,-13.29908 0.27928,-6.28372 3.36577,4.28131 9.50766,5.03878 6.61513,-1.56331 5.49904,3.85764 12.25074,-0.0684 4.59776,-4.14939 -4.91064,-3.4739 -10.33815,-6.10686 -15.66808,-8.85781 z"
           id="path131390" /><path
           style="fill:#f6f9fb;stroke-width:0.524184"
           d="m 542.7338,274.05634 c 5.22273,0.45117 18.06246,0.5895 5.70902,1.289 -1.96212,0.023 -3.99733,-0.26332 -5.70902,-1.289 z"
           id="path131392" /><path
           style="fill:#f6f9fb;stroke-width:0.524184"
           d="m 511.63234,273.64913 c 10.80829,0.76363 -10.38649,0.64694 0,0 z"
           id="path131394" /><path
           style="fill:#f6f9fb;stroke-width:0.524184"
           d="m 549.94059,267.39163 c -3.56893,2.47597 -3.58169,-0.0733 0,0 z"
           id="path131396" /><path
           style="fill:#f6f9fb;stroke-width:0.524184"
           d="m 509.74821,262.98727 c 4.75144,0.80278 3.69569,3.8945 0,0 z"
           id="path131398" /><path
           style="fill:#f6f9fb;stroke-width:0.524184"
           d="m 562.7548,261.55378 c -6.04641,1.69285 -24.64066,2.20251 -19.4153,10.56907 4.79751,1.99847 21.67607,-4.32214 9.96125,0.0946 -5.43836,-1.31696 -16.80402,3.79629 -5.2314,5.09136 9.86173,2.59644 -13.89934,-3.52694 -4.16272,1.79899 4.1833,3.01706 19.47566,10.49116 18.20874,1.68708 -5.76325,-2.80316 -8.50872,-2.51572 -0.65725,-1.97364 6.71772,-2.18077 -5.0554,-10.62698 3.46173,-12.02476 1.70653,-1.96029 0.4455,-5.02711 -2.16505,-5.2427 z"
           id="path131400" /><path
           style="fill:#f6f9fb;stroke-width:0.524184"
           d="m 545.18016,258.66042 c -3.33567,3.90693 -6.14161,3.25234 -0.47664,0.2729 z"
           id="path131402" /><path
           style="fill:#f6f9fb;stroke-width:0.524184"
           d="m 557.74787,256.06368 c -2.66956,2.3315 -16.23156,9.39777 -11.97166,8.69151 3.73096,-1.14759 20.13719,-2.55531 11.97166,-8.69151 z"
           id="path131404" /><path
           style="fill:#f6f9fb;stroke-width:0.524184"
           d="m 497.60322,255.63368 c -14.06736,5.80422 15.97385,15.34101 -0.45457,15.55148 -10.65203,7.50532 11.58245,6.77199 16.58809,5.82744 9.16416,-5.11906 -10.96784,9.69132 0.34235,11.52189 5.25826,-0.41145 10.98239,-12.98154 5.41651,-2.33308 -4.23185,10.0674 10.02806,17.05508 7.70361,2.8375 1.75891,-10.29263 -15.86999,-19.88584 -18.29111,-19.75813 6.86943,4.32915 12.2008,-2.54853 4.62613,-6.39278 -4.71823,-3.50677 -10.21936,-5.91364 -15.93101,-7.25432 z"
           id="path131406" /><path
           style="fill:#f6f9fb;stroke-width:0.524184"
           d="m 548.1531,244.20342 c -3.93376,3.72177 -6.2699,15.41184 0.44786,6.25924 3.91884,-1.48249 -17.10976,12.74125 -6.21548,14.11448 5.11502,-2.5212 23.63136,-11.11965 12.53065,-15.43089 -2.64564,-0.98565 -5.20098,-2.51724 -6.76303,-4.94283 z"
           id="path131408" /><path
           style="fill:#f6f9fb;stroke-width:0.524184"
           d="m 507.54421,242.52911 c -5.42227,6.74355 11.45154,14.76435 8.06472,17.37267 -2.54365,-7.33177 -17.01778,-20.28517 -16.50053,-5.18811 6.33691,0.4096 15.29603,11.82308 19.43054,7.06515 -1.60498,-6.42568 -2.69447,-5.01605 1.95328,-1.73191 -2.99659,-5.75403 -5.31138,-16.30286 -12.94801,-17.5178 z"
           id="path131410" /><path
           style="fill:#f6f9fb;stroke-width:0.524184"
           d="m 532.75715,236.36721 c -8.97111,0.353 -8.7465,19.13048 -4.16113,21.32394 0.4407,-6.12024 0.56268,-6.96517 1.60873,-0.61678 2.08644,-7.23034 1.17423,-5.1323 0.9865,0.95896 8.16584,8.48983 13.52034,-7.58705 15.37915,-14.03522 -4.43196,-7.83171 -12.89321,5.36064 -11.61597,11.29239 -1.68175,4.73943 1.12892,-8.91611 1.55053,-10.87707 10.71277,-5.08063 3.12391,-6.20624 -3.74781,-8.04622 z"
           id="path131412" /><path
           style="fill:#f6f9fb;stroke-width:0.524184"
           d="m 513.92832,236.29281 c -8.11577,6.15784 6.21619,15.757 7.83839,22.86121 4.38402,2.25852 -3.47187,-13.25821 1.0795,-4.23599 4.91892,8.48701 3.21368,-10.05915 -1.18211,-11.60678 -2.00859,-2.84856 -4.33672,-5.79623 -7.73578,-7.01844 z"
           id="path131414" /><path
           style="fill:#f6f9fb;stroke-width:0.524184"
           d="m 526.66449,235.07893 c -10.27472,-1.76459 -1.22828,18.82508 -0.50993,4.95789 0.70578,-1.506 4.26714,-4.43297 0.50993,-4.95789 z"
           id="path131416" /><path
           style="fill:#f3cb46;stroke-width:0.524184"
           d="m 517.23838,266.8598 c 0.75472,-1.90869 0.0611,2.51694 0,0 z"
           id="path131418" /><path
           style="fill:#f3cb46;stroke-width:0.524184"
           d="m 518.54275,274.54315 c -2.6089,-5.66908 3.21091,3.52955 0,0 z"
           id="path131420" /><path
           style="fill:#f3cb46;stroke-width:0.524184"
           d="m 521.6279,278.04309 c -4.17231,-4.81311 6.06343,5.5306 0,0 z"
           id="path131422" /><path
           style="fill:#f3cb46;stroke-width:0.524184"
           d="m 525.58394,280.79436 c -1.12521,-2.0307 3.99641,2.83119 0,0 z"
           id="path131424" /><path
           style="fill:#f3cb46;stroke-width:0.524184"
           d="m 530.3016,281.90021 c 11.02753,-0.49061 11.11594,-13.51017 -0.99135,-9.57099 -8.80314,-1.14232 -13.32142,-14.51278 -1.20132,-13.15797 10.51856,-1.96939 18.67393,13.66135 9.28296,20.10173 -1.93056,1.4043 -4.61365,3.03594 -7.09029,2.62723 z"
           id="path131426" /><path
           style="fill:#e7a314;stroke-width:0.524184"
           d="m 526.8944,280.9325 c -7.24933,-0.9848 -12.76343,-15.42168 -6.59917,-16.96989 -0.80987,12.59838 21.00238,3.92646 18.45965,13.23409 -2.73006,3.40249 -7.62639,5.69151 -11.86048,3.7358 z"
           id="path131428" /><path
           style="fill:#90a334;stroke-width:0.524184"
           d="m 485.05672,285.47398 c -2.77142,-5.88429 4.71601,4.23043 0,0 z"
           id="path131430" /><path
           style="fill:#90a334;stroke-width:0.524184"
           d="m 485.41796,289.98493 c -1.05932,-3.91317 2.18473,2.64615 0,0 z"
           id="path131432" /><path
           style="fill:#90a334;stroke-width:0.524184"
           d="m 488.94535,289.30592 c -2.30958,-4.39558 3.39813,2.26003 1.53472,1.46518 z"
           id="path131434" /><path
           style="fill:#90a334;stroke-width:0.524184"
           d="m 485.34954,292.5024 c -0.82578,-3.22389 2.82682,1.99737 0,0 z"
           id="path131436" /><path
           style="fill:#90a334;stroke-width:0.524184"
           d="m 485.96205,295.59459 c -5.78605,-6.81679 4.82002,0.94848 0,0 z"
           id="path131438" /><path
           style="fill:#90a334;stroke-width:0.524184"
           d="m 483.88044,298.35458 c 1.48396,-5.48793 7.10191,4.52449 0,0 z"
           id="path131440" /><path
           style="fill:#90a334;stroke-width:0.524184"
           d="m 493.34355,299.66009 c -2.9832,-3.32261 -0.0236,-14.2851 1.79684,-5.33285 0.0377,1.68192 0.54495,4.86003 -1.79684,5.33285 z"
           id="path131442" /><path
           style="fill:#90a334;stroke-width:0.524184"
           d="m 494.46413,302.01506 c 0.79806,-3.10158 2.61961,-12.28194 2.41724,-3.66262 -0.40822,0.13186 -1.34872,5.07275 -2.41724,3.66262 z"
           id="path131444" /><path
           style="fill:#90a334;stroke-width:0.524184"
           d="m 495.82941,303.72747 c 0.49807,-9.75564 7.94006,-1.36287 0,0 z"
           id="path131446" /><path
           style="fill:#90a334;stroke-width:0.524184"
           d="m 496.60971,307.03338 c 2.46443,-9.07031 4.43043,1.52586 0,0 z"
           id="path131448" /><path
           style="fill:#90a334;stroke-width:0.524184"
           d="m 488.62358,308.08214 c -4.02147,-1.95004 -4.45061,-12.66927 0.24415,-5.70921 -4.52109,1.23833 7.43897,7.48093 -0.24415,5.70921 z"
           id="path131450" /><path
           style="fill:#90a334;stroke-width:0.524184"
           d="m 489.93942,310.95064 c -5.55639,-3.61809 6.51239,0.56347 0,0 z"
           id="path131452" /><path
           style="fill:#90a334;stroke-width:0.524184"
           d="m 550.92563,312.85939 c 2.60497,-6.8152 15.31905,-2.02285 3.9135,-0.302 0.31296,-0.3365 -5.74006,2.06141 -3.9135,0.302 z"
           id="path131454" /><path
           style="fill:#90a334;stroke-width:0.524184"
           d="m 491.33724,313.46853 c -1.51244,-3.5206 2.80236,1.31772 0,0 z"
           id="path131456" /><path
           style="fill:#90a334;stroke-width:0.524184"
           d="m 557.035,313.03169 c 3.88857,-3.6689 -2.17685,2.96259 0,0 z"
           id="path131458" /><path
           style="fill:#90a334;stroke-width:0.524184"
           d="m 498.08809,311.46827 c -0.10139,-7.24625 2.39501,-0.0913 0.63774,1.90512 z"
           id="path131460" /><path
           style="fill:#90a334;stroke-width:0.524184"
           d="m 543.93039,314.89301 c 0.41079,-8.43976 12.39574,-0.33604 1.6129,0.82956 -0.63629,0.37606 -1.65879,-0.0414 -1.6129,-0.82956 z"
           id="path131462" /><path
           style="fill:#90a334;stroke-width:0.524184"
           d="m 537.9413,314.99738 c 5.29577,-9.51163 7.71527,5.44473 -0.44004,0.76061 z"
           id="path131464" /><path
           style="fill:#90a334;stroke-width:0.524184"
           d="m 532.92252,315.12842 c 3.29765,-4.332 10.29874,-4.50932 3.39455,0.35806 -0.25478,0.48856 -5.76535,2.21622 -3.39455,-0.35806 z"
           id="path131466" /><path
           style="fill:#90a334;stroke-width:0.524184"
           d="m 528.33591,316.14582 c -0.16386,-6.02266 11.70661,-4.42048 2.90438,-0.68953 0.58031,-0.14182 -5.53743,2.51331 -2.90438,0.68953 z"
           id="path131468" /><path
           style="fill:#90a334;stroke-width:0.524184"
           d="m 523.48721,316.26816 c 4.62281,-9.33446 8.80281,2.57921 0,0 z"
           id="path131470" /><path
           style="fill:#90a334;stroke-width:0.524184"
           d="m 552.40955,317.74007 c -1.56559,-4.99748 7.92626,-0.22934 0.52521,0.14842 z"
           id="path131472" /><path
           style="fill:#90a334;stroke-width:0.524184"
           d="m 502.03978,312.63855 c 1.3435,-4.40504 -3.64075,6.73764 0,0 z"
           id="path131474" /><path
           style="fill:#90a334;stroke-width:0.524184"
           d="m 500.13652,317.77177 c -1.27885,-4.43664 0.50126,-16.8491 3.62548,-6.50257 0.47361,1.78704 -0.46366,10.37843 -3.62548,6.50257 z"
           id="path131476" /><path
           style="fill:#90a334;stroke-width:0.524184"
           d="m 492.60243,318.92876 c -9.36973,-7.05003 3.95566,-4.84611 0.4679,-1.93988 -5.10385,-2.30346 6.99028,5.66383 -0.4679,1.93988 z"
           id="path131478" /><path
           style="fill:#90a334;stroke-width:0.524184"
           d="m 502.59537,322.34614 c -1.52749,-10.5322 8.52224,-3.93292 0,0 z"
           id="path131480" /><path
           style="fill:#90a334;stroke-width:0.524184"
           d="m 546.66969,322.72716 c -8.52055,-2.1772 4.59744,-1.11071 3.73141,-4.34256 6.81917,-0.14226 -1.55432,7.3628 -3.73141,4.34256 z"
           id="path131482" /><path
           style="fill:#90a334;stroke-width:0.524184"
           d="m 524.47085,322.90039 c -5.6701,-4.66887 4.55497,0.65368 0,0 z"
           id="path131484" /><path
           style="fill:#90a334;stroke-width:0.524184"
           d="m 535.69862,322.96902 c -1.51476,-5.78215 5.09054,6.0353 0,0 z"
           id="path131486" /><path
           style="fill:#90a334;stroke-width:0.524184"
           d="m 541.02769,324.71192 c -11.83463,-8.50318 15.72545,1.71448 0,0 z"
           id="path131488" /><path
           style="fill:#90a334;stroke-width:0.524184"
           d="m 527.79602,325.48112 c -6.01045,-8.41532 9.75298,1.24366 2.58351,-4.81305 9.82966,2.38247 3.0477,6.97545 -2.58351,4.81305 z"
           id="path131490" /><path
           style="fill:#90a334;stroke-width:0.524184"
           d="m 504.32719,325.16587 c -0.1872,-7.53993 3.75547,0.7852 0.0812,0.20379 z"
           id="path131492" /><path
           style="fill:#90a334;stroke-width:0.524184"
           d="m 499.11264,327.24086 c -5.91668,-2.30096 -7.19747,-10.14965 -0.42406,-3.47888 0.89377,0.70858 4.23867,5.15304 0.42406,3.47888 z"
           id="path131494" /><path
           style="fill:#778c2b;stroke-width:0.524184"
           d="m 493.40754,300.42104 c 2.42901,-4.9729 2.46188,-10.02161 2.10188,-1.36714 -0.17902,0.96069 -1.18542,1.60618 -2.10188,1.36714 z"
           id="path131496" /><path
           style="fill:#778c2b;stroke-width:0.524184"
           d="m 517.23838,301.45597 c 0.75472,-1.9087 0.0611,2.51695 0,0 z"
           id="path131498" /><path
           style="fill:#778c2b;stroke-width:0.524184"
           d="m 495.54322,304.4994 c -1.37444,-4.66051 3.51465,-8.62102 0.80529,-1.21425 5.52675,-3.2423 0.37688,4.61219 -0.80529,1.21425 z"
           id="path131500" /><path
           style="fill:#778c2b;stroke-width:0.524184"
           d="m 501.05526,313.42481 c 3.20597,-6.20686 -1.23661,4.7854 0,0 z"
           id="path131502" /><path
           style="fill:#778c2b;stroke-width:0.524184"
           d="m 542.88202,315.4152 c -0.003,-8.00984 3.99051,1.88167 0,0 z"
           id="path131504" /><path
           style="fill:#778c2b;stroke-width:0.524184"
           d="m 536.69314,315.5053 c 7.59661,-10.98554 1.10959,2.59811 0,0 z"
           id="path131506" /><path
           style="fill:#778c2b;stroke-width:0.524184"
           d="m 531.88687,315.11491 c 6.08866,-5.34833 1.05441,1.64336 -0.4315,0.66282 l 0.33075,-0.50805 z"
           id="path131508" /><path
           style="fill:#778c2b;stroke-width:0.524184"
           d="m 498.64682,315.61569 c 3.71582,-5.83599 -4.96642,-8.11056 1.41996,-9.8794 0.32385,2.13376 0.65263,9.66568 -1.41996,9.8794 z"
           id="path131510" /><path
           style="fill:#778c2b;stroke-width:0.524184"
           d="m 526.63231,316.32658 c 3.07172,-4.29591 3.6523,1.55006 0,0 z"
           id="path131512" /><path
           style="fill:#778c2b;stroke-width:0.524184"
           d="m 500.92274,319.81654 c 4.1948,-10.44991 3.89862,1.90492 0,0 z"
           id="path131514" /><path
           style="fill:#778c2b;stroke-width:0.524184"
           d="m 517.98327,322.20497 c 3.40089,-3.07549 -2.35816,3.16754 0,0 z"
           id="path131516" /><path
           style="fill:#778c2b;stroke-width:0.524184"
           d="m 525.9334,324.47643 c -7.49488,-11.3067 13.95281,-3.78981 19.78195,-7.3031 5.99247,-0.52656 4.15034,-7.11208 6.01129,-3.84323 5.97194,-2.52106 7.75067,-0.69521 1.45205,2.49234 -2.48582,4.31865 -5.40565,5.43363 -9.90495,5.63582 7.64195,4.2718 -9.19781,-3.87838 -4.81329,2.31196 -3.35661,-3.87877 -3.14368,0.66001 -7.43979,-2.63895 4.25385,6.00397 -5.90656,-5.04849 -5.08726,3.34516 z"
           id="path131518" /><path
           style="fill:#778c2b;stroke-width:0.524184"
           d="m 503.08662,323.65093 c 1.33247,-5.71733 5.64905,-3.17333 0,0 z"
           id="path131520" /><path
           style="fill:#778c2b;stroke-width:0.524184"
           d="m 492.22571,313.03174 c -3.16103,-4.24722 0.0401,3.49623 0,0 z"
           id="path131522" /><path
           style="fill:#778c2b;stroke-width:0.524184"
           d="m 502.14497,327.72136 c -3.24277,-3.85121 -12.04533,-9.72444 -8.69704,-10.84051 4.3347,1.84663 -8.04327,-6.02933 -1.52986,-6.44855 -5.18979,-2.2921 1.81732,-2.41215 -3.54718,-5.01301 -0.57542,-1.70065 2.12876,-6.75069 -4.4843,-6.24295 3.71357,0.34796 5.86145,-1.07917 2.01051,-3.09165 2.1313,-2.73954 -1.33942,-6.25118 -1.1509,-10.8082 5.0142,1.97348 10.17751,11.33398 5.73687,10.30749 3.36189,8.75123 5.58211,18.0701 9.7352,26.36916 0.3852,1.37684 4.29781,4.95399 1.9267,5.76822 z"
           id="path131524" /><path
           style="fill:#526028;stroke-width:0.524184"
           d="m 506.99882,361.86281 c -0.71032,-8.99876 5.25994,-18.15167 -0.045,-26.81452 -4.23444,-9.30148 -10.33441,-17.63706 -12.16806,-27.79599 -2.50496,-3.74911 -7.00665,-19.19473 -1.80501,-8.41958 4.15954,8.68937 5.69183,18.23169 10.98783,26.38784 2.31389,5.42739 8.11131,16.44901 8.29269,4.47801 2.51685,-12.10064 4.68252,-24.27698 6.36491,-36.52251 5.84937,7.68145 -3.81916,18.51538 -0.15657,25.98961 10.06185,-4.67699 21.84001,-0.83508 32.22722,-4.6797 -9.36326,8.00025 -24.35793,-1.28097 -32.71573,8.42254 -5.21908,9.59234 -3.84511,21.50847 -7.33657,31.87117 -1.2885,1.30617 -0.33136,9.88117 -3.64571,7.08313 z"
           id="path131526" /></g></g></g></svg>
