<?xml version="1.0" encoding="UTF-8" standalone="no"?>
<!-- Created with Inkscape (http://www.inkscape.org/) -->

<svg
   width="156.27116mm"
   height="275.56058mm"
   viewBox="0 0 156.27116 275.56058"
   version="1.1"
   id="svg5"
   xml:space="preserve"
   xmlns="http://www.w3.org/2000/svg"
   xmlns:svg="http://www.w3.org/2000/svg"><defs
     id="defs2" /><g
     id="layer1"
     style="display:inline;opacity:1"
     transform="translate(3332.795,695.53357)"><g
       id="g133992"
       transform="matrix(2.2040458,0,0,2.2040458,-4941.5913,-1513.1334)"><path
         style="fill:#f6f9fb;stroke-width:0.524184"
         d="m 765.06955,428.52727 c -6.99984,8.698 10.52742,11.88222 0,0 z"
         id="path133820" /><path
         style="fill:#f6f9fb;stroke-width:0.524184"
         d="m 758.06894,425.99358 c -16.31875,14.67492 3.78682,16.37154 0,0 z"
         id="path133822" /><path
         style="fill:#f6f9fb;stroke-width:0.524184"
         d="m 763.34459,418.26126 c -1.92228,12.86782 -1.67456,3.30337 0,0 z"
         id="path133824" /><path
         style="fill:#f6f9fb;stroke-width:0.524184"
         d="m 767.75311,417.08259 c -5.39787,27.06722 10.31321,6.01693 2.38278,9.8119 l -1.17665,-4.33736 z"
         id="path133826" /><path
         style="fill:#f6f9fb;stroke-width:0.524184"
         d="m 741.02347,416.09402 c 2.61791,1.26074 -7.0694,0.20276 0,0 z"
         id="path133828" /><path
         style="fill:#f6f9fb;stroke-width:0.524184"
         d="m 781.86439,416.05632 c 4.82386,22.2767 22.92888,8.04615 0,0 z"
         id="path133830" /><path
         style="fill:#f6f9fb;stroke-width:0.524184"
         d="m 759.89777,415.39591 c -14.37043,7.63792 -16.80852,27.07094 -0.6535,8.48928 5.73547,25.328 6.45035,-18.02968 -1.69987,-3.67137 l 1.51368,-2.26046 z"
         id="path133832" /><path
         style="fill:#f6f9fb;stroke-width:0.524184"
         d="m 772.44998,415.21918 c -4.7212,28.80645 23.81394,24.37172 0,0 z"
         id="path133834" /><path
         style="fill:#f6f9fb;stroke-width:0.524184"
         d="m 756.34864,414.88845 c -9.45437,9.71394 -2.76107,2.01998 0,0 z"
         id="path133836" /><path
         style="fill:#f6f9fb;stroke-width:0.524184"
         d="m 793.27455,413.1144 c -1.03588,6.44224 12.2522,-0.24655 0,0 z"
         id="path133838" /><path
         style="fill:#f6f9fb;stroke-width:0.524184"
         d="m 776.36498,411.84057 c -6.07771,13.21184 17.67963,20.53073 2.57432,3.2493 z"
         id="path133840" /><path
         style="fill:#f6f9fb;stroke-width:0.524184"
         d="m 753.91984,408.72397 c -1.11499,0.37379 -1.11499,0.37379 0,0 z"
         id="path133842" /><path
         style="fill:#f6f9fb;stroke-width:0.524184"
         d="m 753.99274,407.69716 c -25.47695,-7.11308 -17.23615,30.12493 -0.91297,6.21333 -10.20076,4.54583 -17.5254,23.55398 0.4511,7.2616 10.13308,-16.22218 -15.35163,-1.14745 0.46187,-13.47493 z"
         id="path133844" /><path
         style="fill:#f6f9fb;stroke-width:0.524184"
         d="m 782.1719,406.70342 c 6.65956,-1.59153 0.68806,2.70357 0,0 z"
         id="path133846" /><path
         style="fill:#f6f9fb;stroke-width:0.524184"
         d="m 781.13578,405.15161 c -10.63403,9.27843 24.47565,22.16875 6.71522,6.27205 26.78776,4.2285 5.78725,-6.86872 -6.71522,-6.27205 z"
         id="path133848" /><path
         style="fill:#f6f9fb;stroke-width:0.524184"
         d="m 738.07485,401.21283 c -19.75269,10.40153 34.05925,6.61557 4.74162,1.14904 z"
         id="path133850" /><path
         style="fill:#f6f9fb;stroke-width:0.524184"
         d="m 798.69957,397.28495 c -9.63727,-2.77797 -27.2635,5.39763 -6.45237,5.78264 -26.91309,0.6928 16.05261,8.52441 6.45237,-5.78264 z"
         id="path133852" /><path
         style="fill:#f6f9fb;stroke-width:0.524184"
         d="m 754.00669,393.78593 c 4.27714,1.0142 0.42947,2.71382 0,0 z"
         id="path133854" /><path
         style="fill:#f6f9fb;stroke-width:0.524184"
         d="m 735.16081,392.51779 c -2.38951,12.99595 12.33341,8.81376 15.63279,9.09115 5.33641,-2.1567 -15.21754,-7.14631 -15.63279,-9.09115 z"
         id="path133856" /><path
         style="fill:#f6f9fb;stroke-width:0.524184"
         d="m 737.73585,388.80487 c 6.41802,18.4015 26.00893,6.5141 0,0 z"
         id="path133858" /><path
         style="fill:#f6f9fb;stroke-width:0.524184"
         d="m 759.48129,388.08762 c 2.73283,3.0012 -0.2736,5.10252 0,0 z"
         id="path133860" /><path
         style="fill:#f6f9fb;stroke-width:0.524184"
         d="m 794.90807,386.67996 c -37.53314,11.54337 9.06545,16.32709 0,0 z"
         id="path133862" /><path
         style="fill:#f6f9fb;stroke-width:0.524184"
         d="m 790.44271,382.56238 c -30.98478,13.5418 1.92306,15.64536 0,0 z"
         id="path133864" /><path
         style="fill:#f6f9fb;stroke-width:0.524184"
         d="m 742.05341,381.9113 c 0.12308,18.40846 27.15456,14.38638 4.85377,1.92523 z"
         id="path133866" /><path
         style="fill:#f6f9fb;stroke-width:0.524184"
         d="m 747.00402,376.45116 c -6.2491,9.11092 12.11057,9.76993 0,0 z"
         id="path133868" /><path
         style="fill:#f6f9fb;stroke-width:0.524184"
         d="m 752.52254,374.61355 c -9.55134,21.09029 25.29224,25.00927 0,0 z"
         id="path133870" /><path
         style="fill:#f6f9fb;stroke-width:0.524184"
         d="m 766.25245,371.54217 c -10.98403,9.42517 11.93879,35.18251 0,0 z"
         id="path133872" /><path
         style="fill:#f6f9fb;stroke-width:0.524184"
         d="m 758.92577,370.9882 c -7.03498,6.12418 9.94436,29.445 3.13745,10.73361 4.67878,20.29121 3.14108,-9.27582 -3.13745,-10.73361 z"
         id="path133874" /><path
         style="fill:#f6f9fb;stroke-width:0.524184"
         d="m 775.0452,370.9541 c -12.70745,13.92519 2.71807,21.28982 1.93497,20.66666 3.3221,-12.6654 19.76529,-9.52525 2.70451,-15.44586 -22.79634,30.02421 10.43959,-3.69113 -4.63948,-5.2208 z"
         id="path133876" /><path
         style="fill:#f3cb46;stroke-width:0.524184"
         d="m 753.70627,403.19143 c 0.66128,-2.76316 -0.0555,3.92494 0,0 z"
         id="path133878" /><path
         style="fill:#f3cb46;stroke-width:0.524184"
         d="m 754.32446,406.87801 c -2.2251,-5.00171 1.98334,1.02901 0,0 z"
         id="path133880" /><path
         style="fill:#f3cb46;stroke-width:0.524184"
         d="m 777.23376,410.20108 c 0.23429,-5.42118 2.08169,0.89002 0,0 z"
         id="path133882" /><path
         style="fill:#f3cb46;stroke-width:0.524184"
         d="m 766.33221,394.54242 c -1.2321,-3.24346 -2.81183,2.8422 0,0 z"
         id="path133884" /><path
         style="fill:#f3cb46;stroke-width:0.524184"
         d="m 772.9989,395.56404 c -2.63979,-4.49724 -6.38983,1.12754 0,0 z"
         id="path133886" /><path
         style="fill:#f3cb46;stroke-width:0.524184"
         d="m 759.38996,398.21171 c 10.68476,-6.62181 -3.58318,-0.5076 0,0 z"
         id="path133888" /><path
         style="fill:#f3cb46;stroke-width:0.524184"
         d="m 777.19237,401.33078 c -0.71034,-7.51147 -4.55573,0.6983 0,0 z"
         id="path133890" /><path
         style="fill:#f3cb46;stroke-width:0.524184"
         d="m 760.04617,401.35678 c -1.0424,-3.12107 -0.13932,3.10809 0,0 z"
         id="path133892" /><path
         style="fill:#f3cb46;stroke-width:0.524184"
         d="m 762.51521,407.05187 c -1.46773,-5.90419 -5.46878,0.0169 0,0 z"
         id="path133894" /><path
         style="fill:#f3cb46;stroke-width:0.524184"
         d="m 767.10182,408.36498 c 2.38334,-4.12322 -5.88975,2.43116 0,0 z"
         id="path133896" /><path
         style="fill:#f3cb46;stroke-width:0.524184"
         d="m 763.20136,409.56848 c -27.18837,-23.95609 32.49092,-15.68749 13.16086,-5.88419 -4.26143,2.45121 -6.93368,8.63464 -13.16086,5.88419 z"
         id="path133898" /><path
         style="fill:#f3cb46;stroke-width:0.524184"
         d="m 773.94965,413.52779 c 4.08932,-4.15669 -2.1804,3.64434 0,0 z"
         id="path133900" /><path
         style="fill:#f3cb46;stroke-width:0.524184"
         d="m 756.86722,412.63203 c -6.12309,-8.93895 5.83558,6.43441 0,0 z"
         id="path133902" /><path
         style="fill:#f3cb46;stroke-width:0.524184"
         d="m 767.84821,416.70284 c 6.63189,-1.64594 -4.15328,0.60243 0,0 z"
         id="path133904" /><path
         style="fill:#f3cb46;stroke-width:0.524184"
         d="m 762.64626,416.54179 c -2.68898,-2.44786 6.10606,2.88457 0,0 z"
         id="path133906" /><path
         style="fill:#e7a314;stroke-width:0.524184"
         d="m 769.10231,394.56031 c 0.22229,-2.7907 4.19449,2.81125 0,0 z"
         id="path133908" /><path
         style="fill:#e7a314;stroke-width:0.524184"
         d="m 764.08777,394.58211 c 1.64573,-3.39059 3.57482,2.40732 0,0 z"
         id="path133910" /><path
         style="fill:#e7a314;stroke-width:0.524184"
         d="m 772.47471,395.69462 c -5.32138,0.57689 0.72431,-1.73245 0,0 z"
         id="path133912" /><path
         style="fill:#e7a314;stroke-width:0.524184"
         d="m 758.36312,398.68609 c 3.88643,-6.50105 3.10952,0.0668 0,0 z"
         id="path133914" /><path
         style="fill:#e7a314;stroke-width:0.524184"
         d="m 776.144,401.09469 c -4.82001,-6.96846 3.81365,1.50144 0,0 z"
         id="path133916" /><path
         style="fill:#e7a314;stroke-width:0.524184"
         d="m 760.54952,406.35712 c -5.2446,-5.90757 5.85214,3.44463 0,0 z"
         id="path133918" /><path
         style="fill:#e7a314;stroke-width:0.524184"
         d="m 764.61195,408.22726 c 3.84482,-3.18777 2.17166,1.73908 0,0 z"
         id="path133920" /><path
         style="fill:#e7a314;stroke-width:0.524184"
         d="m 762.18743,415.84185 c -11.01149,-5.38508 -9.71483,-23.01557 1.87621,-6.51419 24.79367,-15.29669 17.83113,8.31025 -1.87621,6.51419 z"
         id="path133922" /><path
         style="fill:#90a334;stroke-width:0.524184"
         d="m 771.42634,395.06654 c -0.62505,-2.12218 3.04515,3.07144 0,0 z"
         id="path133924" /><path
         style="fill:#90a334;stroke-width:0.524184"
         d="m 733.59981,442.1121 c -10.13034,-5.8939 4.39488,-3.88314 0,0 z"
         id="path133926" /><path
         style="fill:#90a334;stroke-width:0.524184"
         d="m 757.8676,443.55364 c 0.41797,-7.51032 1.14655,3.74553 0,0 z"
         id="path133928" /><path
         style="fill:#90a334;stroke-width:0.524184"
         d="m 737.25984,444.19436 c -2.14483,-6.11392 5.49088,5.61251 0,0 z"
         id="path133930" /><path
         style="fill:#90a334;stroke-width:0.524184"
         d="m 755.8294,447.18172 c -2.39271,-9.71378 5.97457,-4.98562 0,0 z"
         id="path133932" /><path
         style="fill:#90a334;stroke-width:0.524184"
         d="m 733.6454,447.09192 c -3.19668,-3.89145 3.67777,3.73213 0,0 z"
         id="path133934" /><path
         style="fill:#90a334;stroke-width:0.524184"
         d="m 756.82645,449.27994 c 0.59243,-4.35634 2.24624,4.65724 0,0 z"
         id="path133936" /><path
         style="fill:#90a334;stroke-width:0.524184"
         d="m 762.61414,450.79567 c -7.40759,-10.53101 4.67875,0.52977 0,0 z"
         id="path133938" /><path
         style="fill:#90a334;stroke-width:0.524184"
         d="m 740.76528,453.78119 c 1.41325,-1.19425 0.78062,2.25302 0,0 z"
         id="path133940" /><path
         style="fill:#90a334;stroke-width:0.524184"
         d="m 764.43722,456.04667 c -3.42537,-3.25134 2.2222,-2.26387 0,0 z"
         id="path133942" /><path
         style="fill:#90a334;stroke-width:0.524184"
         d="m 752.9474,455.88023 c -6.87411,-4.7311 -17.29088,-16.50995 0.52794,-2.6579 0.0188,-0.19892 1.45238,4.27318 -0.52794,2.6579 z"
         id="path133944" /><path
         style="fill:#90a334;stroke-width:0.524184"
         d="m 746.62941,457.16584 c -2.96337,-3.65699 3.85828,3.21591 0,0 z"
         id="path133946" /><path
         style="fill:#90a334;stroke-width:0.524184"
         d="m 757.25896,458.11585 c -9.57928,-8.64083 8.35522,-1.98356 0,0 z"
         id="path133948" /><path
         style="fill:#90a334;stroke-width:0.524184"
         d="m 749.55163,458.65379 c 2.48894,-1.87223 1.24204,1.40749 0,0 z"
         id="path133950" /><path
         style="fill:#90a334;stroke-width:0.524184"
         d="m 759.99766,457.59697 c -4.52836,-15.0755 4.76858,5.20401 0,0 z"
         id="path133952" /><path
         style="fill:#90a334;stroke-width:0.524184"
         d="m 763.17044,459.79479 c 0.48929,-0.70085 0.48929,-0.70085 0,0 z"
         id="path133954" /><path
         style="fill:#90a334;stroke-width:0.524184"
         d="m 755.60253,461.27989 c 1.91272,-1.68673 0.46141,1.43673 0,0 z"
         id="path133956" /><path
         style="fill:#778c2b;stroke-width:0.524184"
         d="m 766.6104,407.8131 c 1.91277,-1.68676 0.46143,1.43675 0,0 z"
         id="path133958" /><path
         style="fill:#778c2b;stroke-width:0.524184"
         d="m 769.37099,439.31666 c 0.87162,-1.83123 -0.10172,2.6375 0,0 z"
         id="path133960" /><path
         style="fill:#778c2b;stroke-width:0.524184"
         d="m 756.77283,444.05179 c -0.80331,-6.75066 3.16516,-0.97055 0,0 z"
         id="path133962" /><path
         style="fill:#778c2b;stroke-width:0.524184"
         d="m 769.89518,447.17942 c 0.87162,-1.83122 -0.10173,2.63753 0,0 z"
         id="path133964" /><path
         style="fill:#778c2b;stroke-width:0.524184"
         d="m 756.07854,447.33543 c 1.57791,-2.82371 1.8508,3.14712 0,0 z"
         id="path133966" /><path
         style="fill:#778c2b;stroke-width:0.524184"
         d="m 744.3587,449.60794 c -13.01826,-10.51904 3.92468,-0.12322 0,0 z"
         id="path133968" /><path
         style="fill:#778c2b;stroke-width:0.524184"
         d="m 758.84592,451.67847 c -2.14151,-3.25011 4.4035,3.92844 0,0 z"
         id="path133970" /><path
         style="fill:#778c2b;stroke-width:0.524184"
         d="m 748.29537,452.85788 c -0.0645,-2.0905 2.78685,4.77469 0,0 z"
         id="path133972" /><path
         style="fill:#778c2b;stroke-width:0.524184"
         d="m 758.83541,454.54881 c -0.90153,-3.23818 2.97509,3.44666 0,0 z"
         id="path133974" /><path
         style="fill:#778c2b;stroke-width:0.524184"
         d="m 751.76944,455.44309 c -12.49374,-12.83089 3.19466,-0.0567 0,0 z"
         id="path133976" /><path
         style="fill:#778c2b;stroke-width:0.524184"
         d="m 755.83186,457.8531 c -7.57495,-10.92425 3.93232,2.23172 0,0 z"
         id="path133978" /><path
         style="fill:#778c2b;stroke-width:0.524184"
         d="m 763.0021,458.62738 c -11.31806,-21.67729 3.27387,-13.21268 0,0 z"
         id="path133980" /><path
         style="fill:#778c2b;stroke-width:0.524184"
         d="m 755.37064,461.13918 c -16.08457,-1.78963 -31.58218,-31.28336 -14.34815,-11.55373 -0.3631,1.69772 24.08244,13.98972 14.34815,11.55373 z"
         id="path133982" /><path
         style="fill:#778c2b;stroke-width:0.524184"
         d="m 768.76575,466.48667 c -3.1967,-3.89144 3.67778,3.73214 0,0 z"
         id="path133984" /><path
         style="fill:#778c2b;stroke-width:0.524184"
         d="m 771.35948,471.72852 c 0.2622,-1.65101 1.89549,3.60116 0,0 z"
         id="path133986" /><path
         style="fill:#778c2b;stroke-width:0.524184"
         d="m 775.19782,486.01254 c 0.66128,-2.76318 -0.0554,3.92488 0,0 z"
         id="path133988" /><path
         style="fill:#526028;stroke-width:0.524184"
         d="m 774.05304,495.97899 c 16.44788,-26.8061 -40.20335,-45.44028 -32.83665,-48.34792 12.90732,15.52676 23.7019,8.35212 19.47318,2.65561 2.40278,20.88521 17.87136,20.21814 9.72572,-0.21839 -1.22159,-29.95231 6.9721,27.30752 7.44838,38.42162 -0.15473,2.67474 -0.5189,6.68946 -3.81063,7.48908 z"
         id="path133990" /></g></g></svg>
