<?xml version="1.0" encoding="UTF-8" standalone="no"?>
<!-- Created with Inkscape (http://www.inkscape.org/) -->

<svg
   width="92.944839mm"
   height="139.62236mm"
   viewBox="0 0 92.944839 139.62236"
   version="1.1"
   id="svg5"
   xml:space="preserve"
   inkscape:version="1.2 (dc2aedaf03, 2022-05-15)"
   sodipodi:docname="drawing.svg"
   xmlns:inkscape="http://www.inkscape.org/namespaces/inkscape"
   xmlns:sodipodi="http://sodipodi.sourceforge.net/DTD/sodipodi-0.dtd"
   xmlns="http://www.w3.org/2000/svg"
   xmlns:svg="http://www.w3.org/2000/svg"><sodipodi:namedview
     id="namedview7"
     pagecolor="#505050"
     bordercolor="#eeeeee"
     borderopacity="1"
     inkscape:showpageshadow="0"
     inkscape:pageopacity="0"
     inkscape:pagecheckerboard="0"
     inkscape:deskcolor="#505050"
     inkscape:document-units="mm"
     showgrid="false"
     inkscape:zoom="0.18128859"
     inkscape:cx="-16691.619"
     inkscape:cy="311.65779"
     inkscape:window-width="1920"
     inkscape:window-height="1001"
     inkscape:window-x="-9"
     inkscape:window-y="-9"
     inkscape:window-maximized="1"
     inkscape:current-layer="layer24"
     showguides="true" /><defs
     id="defs2" /><g
     inkscape:groupmode="layer"
     id="layer24"
     inkscape:label="another daisy 4"
     style="display:inline"
     transform="translate(4551.5477,-122.30107)"><g
       id="g61812"><path
         style="display:inline;fill:#495833;fill-opacity:1;stroke-width:0.167555"
         d="m -4356.6037,-21.729726 c -8.8049,37.699879 -12.0608,77.363576 -4.0962,115.512947 -16.2155,-14.778967 -6.5384,-51.567498 -5.8056,-74.594622 3.3361,-11.3478345 2.7285,-37.347153 9.9018,-40.918325 z"
         id="path60283"
         sodipodi:nodetypes="csssssc"
         transform="translate(-142.73433,167.62301)" /><path
         id="path60285"
         style="display:inline;fill:#3b4729;fill-opacity:1;stroke-width:0.167555"
         d="m -4358.1666,-23.368606 c -8.7118,38.13196 -17.1007,79.360854 -6.0851,117.66903 2.7319,-22.441995 -10.6041,-59.804306 1.4721,-87.8203166 1.3658,-9.8984033 6.8522,-19.7303134 4.613,-29.8487134 z"
         sodipodi:nodetypes="ssssccssccss"
         transform="translate(-142.73433,167.62301)" /><path
         style="display:inline;opacity:1;fill:#fce4d8;fill-opacity:1;stroke-width:0.277471"
         d="m -4489.6363,133.43199 c 12.8616,-12.60433 33.7743,11.28587 4.7696,6.67883"
         id="path60287" /><path
         id="path60289"
         style="display:inline;opacity:1;fill:#000000;fill-opacity:0.238727;stroke-width:0.277471"
         d="m -4484.4859,131.48882 c -13.5746,7.3126 17.6702,12.71283 0,0 z" /><path
         style="display:inline;opacity:1;fill:#fce4d8;fill-opacity:1;stroke-width:0.277471"
         d="m -4499.8789,141.37456 c -17.7881,16.58323 21.1254,38.4548 12.6567,8.88907 -1.391,-5.25119 -6.0676,-10.97047 -12.0767,-10.04171"
         id="path60291" /><path
         style="display:inline;opacity:1;fill:#000000;fill-opacity:0.238727;stroke-width:0.277471"
         d="m -4499.8789,141.37456 c -17.7881,16.58323 21.1254,38.4548 12.6567,8.88907 -1.391,-5.25119 -6.0676,-10.97047 -12.0767,-10.04171"
         id="path60293" /><path
         style="display:inline;opacity:1;fill:#fbdecf;fill-opacity:1;stroke-width:0.277471"
         d="m -4503.8308,138.66816 c -21.8611,-6.37065 -28.7955,34.75913 -4.5059,13.62578 4.5555,-3.7246 8.9506,-13.4364 0.1274,-15.33878"
         id="path60295" /><path
         style="display:inline;opacity:1;fill:#fbdecf;fill-opacity:1;stroke-width:0.277471"
         d="m -4481.5135,144.26698 c 4.4487,16.5256 35.7155,15.07611 12.9558,1.40633 -4.5375,-1.69639 -9.3735,-2.19391 -14.0913,-3.12438"
         id="path60297" /><path
         style="display:inline;opacity:1;fill:#000000;fill-opacity:0.27321;stroke-width:0.277471"
         d="m -4481.5135,144.26698 c 4.4487,16.5256 35.7155,15.07611 12.9558,1.40633 -4.5375,-1.69639 -9.3735,-2.19391 -14.0913,-3.12438"
         id="path60299" /><path
         style="display:inline;opacity:1;fill:#fce4d8;fill-opacity:1;stroke-width:0.277471"
         d="m -4487.9837,141.80115 c 1.8185,14.00047 31.3357,34.92695 18.5854,8.24275 -4.7624,-4.74118 -11.1391,-7.46643 -17.5946,-8.93867"
         id="path60301" /><path
         id="path60303"
         style="display:inline;opacity:1;fill:#000000;fill-opacity:0.270557;stroke-width:0.277471"
         d="m -4486.9941,141.10534 c 1.5001,11.39314 26.3336,36.2982 11.6403,12.06046 0.012,-6.5485 -3.6623,-14.07796 -11.6403,-12.06046 z" /><path
         style="display:inline;opacity:1;fill:#fdeae0;fill-opacity:1;stroke-width:0.277471"
         d="m -4494.5384,144.24525 c 4.199,13.67136 22.9566,37.40476 16.6421,8.37671 -2.7529,-6.06303 -9.7293,-11.82623 -16.6421,-8.37671 z"
         id="path60305" /><path
         style="display:inline;opacity:1;fill:#000000;fill-opacity:0.238727;stroke-width:0.277471"
         d="m -4494.5384,144.24525 c 4.199,13.67136 22.9566,37.40476 16.6421,8.37671 -2.7529,-6.06303 -9.7293,-11.82623 -16.6421,-8.37671 z"
         id="path60307" /><path
         style="display:inline;opacity:1;fill:#fce4d8;fill-opacity:1;stroke-width:0.277471"
         d="m -4488.8657,138.58547 c 14.2211,-14.0694 49.5859,21.23843 16.6403,10.03309 -4.9762,-2.4101 -10.5217,-5.25528 -16.1812,-3.61738"
         id="path60309" /><path
         id="path60311"
         style="display:inline;opacity:1;fill:#000000;fill-opacity:0.238727;stroke-width:0.277471"
         d="m -4479.9756,137.19143 c -23.4952,-3.70956 12.098,20.35777 1.2145,5.42556 13.8514,-3.36822 9.6206,-6.51502 -1.2145,-5.42556 z m -8.5019,6.81974 c -2.7264,-1.11414 1.4403,2.73816 0,0 z m 13.0157,-2.7124 0.2417,0.13006 z" /><path
         style="display:inline;opacity:1;fill:#fdeae0;fill-opacity:1;stroke-width:0.277471"
         d="m -4487.6953,140.29868 c 9.7726,-16.44369 35.5411,5.84717 7.1302,0.38273 l -3.6751,0.12015 -3.4605,1.29347"
         id="path60313" /><path
         id="path60315"
         style="display:inline;opacity:1;fill:#000000;fill-opacity:0.238727;stroke-width:0.277471"
         d="m -4483.1892,136.5055 c -13.6733,5.8916 15.875,6.82433 0.4689,0.3227 z" /><path
         style="display:inline;opacity:1;fill:#000000;fill-opacity:0.33;stroke-width:0.277471"
         d="m -4503.8308,138.66816 c -21.8611,-6.37065 -28.7955,34.75913 -4.5059,13.62578 4.5555,-3.7246 8.9506,-13.4364 0.1274,-15.33878"
         id="path60317" /><path
         style="display:inline;opacity:1;fill:#fce4d8;fill-opacity:1;stroke-width:0.277471"
         d="m -4514.982,136.35085 c -16.0657,-10.78815 -35.3714,11.16076 -6.9489,6.11608 11.3093,-0.61029 17.3516,-7.06155 1.7534,-7.1165"
         id="path60319" /><path
         style="display:inline;opacity:1;fill:#000000;fill-opacity:0.238727;stroke-width:0.277471"
         d="m -4514.982,136.35085 c -16.0657,-10.78815 -35.3714,11.16076 -6.9489,6.11608 11.3093,-0.61029 17.3516,-7.06155 1.7534,-7.1165"
         id="path60321" /><path
         style="display:inline;opacity:1;fill:#fbdecf;fill-opacity:1;stroke-width:0.277471"
         d="m -4515.0062,142.72291 c -15.9505,-0.33452 -39.154,-14.75668 -9.4669,-11.61462 9.9548,1.7885 21.5601,13.68981 2.7248,10.54885"
         id="path60323" /><path
         style="display:inline;opacity:1;fill:#000000;fill-opacity:0.2626;stroke-width:0.277471"
         d="m -4515.0062,142.72291 c -15.9505,-0.33452 -39.154,-14.75668 -9.4669,-11.61462 9.9548,1.7885 21.5601,13.68981 2.7248,10.54885"
         id="path60325" /><path
         id="path60327"
         style="display:inline;opacity:1;fill:#fce4d8;fill-opacity:1;stroke-width:0.277471"
         d="m -4531.6114,124.29787 c -15.5586,15.63797 46.3636,17.74866 10.8408,2.64733 -3.3096,-1.71346 -7.0199,-3.18996 -10.8408,-2.64733 z" /><path
         id="path60329"
         style="display:inline;opacity:1;fill:#000000;fill-opacity:0.238727;stroke-width:0.277471"
         d="m -4526.9068,124.89422 c -21.053,15.13443 42.6697,16.46606 5.8287,2.0428 z" /><path
         style="display:inline;opacity:1;fill:#fdeae0;fill-opacity:1;stroke-width:0.277471"
         d="m -4508.2573,135.68135 c -21.62,-3.76534 -13.1237,-21.98268 3.1674,-8.4521 4.7168,4.65849 -1.9384,9.42119 -6.507,9.34246"
         id="path60331" /><path
         id="path60333"
         style="display:inline;opacity:1;fill:#000000;fill-opacity:0.198939;stroke-width:0.277471"
         d="m -4517.7157,129.17923 c 12.2086,11.75257 21.8226,-2.36314 0,0 z m 8.6049,5.9017 c -9.6464,0.1243 2.2025,2.93285 0,0 z" /><path
         style="display:inline;opacity:1;fill:#fdeae0;fill-opacity:1;stroke-width:0.277471"
         d="m -4502.827,136.02463 c -22.8384,18.11482 6.9419,39.9382 5.5665,6.07796 0.1404,-4.85862 -5.3214,-7.25852 -9.288,-4.92541"
         id="path60335" /><path
         style="display:inline;opacity:1;fill:#000000;fill-opacity:0.238727;stroke-width:0.277471"
         d="m -4502.827,136.02463 c -22.8384,18.11482 6.9419,39.9382 5.5665,6.07796 0.1404,-4.85862 -5.3214,-7.25852 -9.288,-4.92541"
         id="path60337" /><path
         style="display:inline;opacity:1;fill:#fdeae0;fill-opacity:1;stroke-width:0.277471"
         d="m -4508.8441,134.02383 c -16.4257,-6.17158 -28.6488,22.43768 -6.2984,8.75724 2.9835,-0.69281 10.4958,-5.60342 4.7277,-8.56151"
         id="path60339" /><path
         id="path60341"
         style="display:inline;opacity:1;fill:#000000;fill-opacity:0.238727;stroke-width:0.277471"
         d="m -4509.2153,133.94597 c -11.6073,4.51596 -31.0258,19.10138 -7.0396,9.8636 3.1645,-1.76974 9.7873,-5.11312 7.0396,-9.8636 z" /><path
         style="display:inline;opacity:1;fill:#f4a002;fill-opacity:1;stroke-width:0.202867"
         d="m -4510.6958,134.39594 c 11.4435,-22.52119 40.9245,19.23488 8.6518,7.54 -3.6477,-1.33687 -7.1064,-3.84435 -8.6518,-7.54 z"
         id="path60343" /><path
         id="path60345"
         style="display:inline;opacity:1;fill:#9d5103;fill-opacity:1;stroke-width:0.202867"
         d="m -4509.2668,132.95756 c -1.9406,18.90984 39.2697,5.40601 9.7368,4.1292 -3.4485,-0.80304 -6.7875,-2.15497 -9.7368,-4.1292 z"
         sodipodi:nodetypes="cccccccccccc" /><path
         style="opacity:1;fill:#76872a;fill-opacity:1;stroke-width:0.264583"
         d="m -4512.5779,224.65945 c -9.5959,4.92543 -20.2166,-13.92023 -27.7086,-14.81782 -38.4614,-11.15888 34.4883,-6.35709 27.7086,14.81782 z"
         id="path60273" /><path
         style="display:inline;fill:#76872a;fill-opacity:1;stroke-width:0.308188"
         d="m -4508.4531,204.18325 c 12.8612,-7.86339 45.8614,-13.2949 43.427,-29.21025 -15.5151,1.71486 -43.1343,11.3653 -43.0226,29.61545"
         id="path60275" /><path
         style="opacity:1;fill:#495833;fill-opacity:1;stroke-width:0.299585"
         d="m -4511.5755,224.22555 c -8.8443,-9.82813 -42.213,-23.28023 -12.4445,-11.01791 4.7742,2.45308 10.0622,5.60539 11.6232,11.20071"
         id="path60277"
         sodipodi:nodetypes="ccccccccc" /><path
         id="path60279"
         style="display:inline;fill:#606d22;fill-opacity:1;stroke-width:0.308188"
         d="m -4459.9159,176.48525 c -15.7396,-0.79293 -51.0795,20.51816 -42.1368,25.21261 14.6407,-6.8384 31.3516,-12.76958 42.1368,-25.21261 z m -48.5024,27.6929 0.3406,0.38813 z" /><path
         style="opacity:1;fill:#495833;fill-opacity:1;stroke-width:0.264583"
         d="m -4509.6868,205.26345 c 6.5121,-12.12424 41.3303,-26.61946 11.3416,-12.52158 -4.8804,3.22331 -9.3283,7.34634 -12.1141,12.56318"
         id="path60281"
         sodipodi:nodetypes="cccccc" /><path
         id="path60347"
         style="opacity:1;fill:#606d22;fill-opacity:1;stroke-width:0.264583"
         d="m -4550.1274,204.55535 c -6.9742,7.02976 21.3024,3.28359 6.9831,7.0828 9.6439,1.18743 42.762,24.21971 20.0603,5.45803 -8.8041,-4.61775 -17.9243,-8.59531 -27.0434,-12.54083 z" /></g></g></svg>
