<?xml version="1.0" encoding="UTF-8" standalone="no"?>
<!-- Created with Inkscape (http://www.inkscape.org/) -->

<svg
   width="107.44962mm"
   height="147.82529mm"
   viewBox="0 0 107.44962 147.82529"
   version="1.1"
   id="svg5"
   xml:space="preserve"
   inkscape:version="1.2 (dc2aedaf03, 2022-05-15)"
   sodipodi:docname="drawing.svg"
   xmlns:inkscape="http://www.inkscape.org/namespaces/inkscape"
   xmlns:sodipodi="http://sodipodi.sourceforge.net/DTD/sodipodi-0.dtd"
   xmlns="http://www.w3.org/2000/svg"
   xmlns:svg="http://www.w3.org/2000/svg"><sodipodi:namedview
     id="namedview7"
     pagecolor="#505050"
     bordercolor="#eeeeee"
     borderopacity="1"
     inkscape:showpageshadow="0"
     inkscape:pageopacity="0"
     inkscape:pagecheckerboard="0"
     inkscape:deskcolor="#505050"
     inkscape:document-units="mm"
     showgrid="false"
     inkscape:zoom="0.18128859"
     inkscape:cx="-16691.619"
     inkscape:cy="311.65779"
     inkscape:window-width="1920"
     inkscape:window-height="1001"
     inkscape:window-x="-9"
     inkscape:window-y="-9"
     inkscape:window-maximized="1"
     inkscape:current-layer="layer24"
     showguides="true" /><defs
     id="defs2" /><g
     inkscape:groupmode="layer"
     id="layer20"
     inkscape:label="another daisy"
     style="display:inline"
     transform="translate(4402.9561,-118.07423)"><g
       inkscape:groupmode="layer"
       id="layer22"
       inkscape:label="another daisy 2"
       style="display:inline"><g
         id="g61740"><path
           style="display:inline;fill:#76872a;fill-opacity:1;stroke-width:0.0900417"
           d="m -4274.9609,185.57835 c -0.6575,-20.22016 35.939,-38.85576 45.074,-26.94054 -5.7754,8.43772 -25.5908,26.55601 -45.074,26.94054 z"
           id="path60195"
           sodipodi:nodetypes="cccccccccccccc"
           transform="translate(-67.079588,33.023797)" /><path
           id="path60197"
           style="display:inline;fill:#606d22;fill-opacity:1;stroke-width:0.0900417"
           d="m -4228.4269,156.92275 c -9.8454,12.81576 -22.0352,27.56233 -44.4098,26.78337 17.9642,-4.53857 26.8777,-22.59462 44.4098,-26.78337 z"
           sodipodi:nodetypes="sccccccccccs"
           transform="translate(-67.079588,33.023797)" /><path
           style="display:inline;opacity:1;fill:#3b4729;fill-opacity:1;stroke-width:0.264583"
           d="m -4272.3157,186.18145 c 5.1216,-10.43157 46.9525,-36.88245 15.1726,-17.66977 -5.8375,4.62206 -14.6395,9.28404 -15.1726,17.66977 z"
           id="path60199"
           transform="translate(-67.079588,33.023797)" /><path
           style="display:inline;fill:#495833;fill-opacity:1;stroke-width:0.167555"
           d="m -4285.2352,116.84557 c 8.8049,37.69988 12.0608,77.36358 4.0962,115.51296 16.2155,-14.77901 6.5384,-51.5675 5.8055,-74.59463 -3.3361,-11.34783 -2.7285,-37.34717 -9.9017,-40.91833 z"
           id="path60201"
           sodipodi:nodetypes="csssssc"
           transform="translate(-67.079588,33.023797)" /><path
           id="path60203"
           style="display:inline;fill:#3b4729;fill-opacity:1;stroke-width:0.167555"
           d="m -4283.6723,115.20669 c 8.7118,38.13196 17.1007,79.36086 6.0851,117.66903 -2.7319,-22.44198 10.6041,-59.80431 -1.4721,-87.82032 -1.3658,-9.8984 -6.8522,-19.73031 -4.613,-29.84871 z"
           sodipodi:nodetypes="ssssccssccss"
           transform="translate(-67.079588,33.023797)" /><path
           style="display:inline;opacity:1;fill:#fbdecf;fill-opacity:1;stroke-width:0.138563"
           d="m -4346.4271,140.31176 c 8.7911,-26.14306 -13.9986,-31.70367 -6.1426,0.3197"
           id="path60205"
           sodipodi:nodetypes="cccc" /><path
           id="path60207"
           style="display:inline;opacity:1;fill:#7d716b;fill-opacity:0.625995;stroke-width:0.138563"
           d="m -4345.5798,120.34455 c 8.6192,16.85753 -14.7826,25.69454 -8.2955,2.40092 3.4095,1.5684 7.1283,2.61187 8.2955,-2.40092 z"
           sodipodi:nodetypes="ccccccsc" /><path
           style="display:inline;opacity:1;fill:#fbdecf;fill-opacity:1;stroke-width:0.138563"
           d="m -4341.6712,147.77104 c 15.5734,-2.23105 38.3713,34.89367 12.9641,20.16854 -5.2303,-6.10281 -8.1579,-13.90903 -14.0527,-19.48497"
           id="path60209"
           sodipodi:nodetypes="ccccc" /><path
           style="display:inline;opacity:1;fill:#000000;fill-opacity:0.251989;stroke-width:0.138563"
           d="m -4341.6712,147.77104 c 15.5734,-2.23105 38.3713,34.89367 12.9641,20.16854 -5.2303,-6.10281 -8.1579,-13.90903 -14.0527,-19.48497"
           id="path60211"
           sodipodi:nodetypes="ccccc" /><path
           style="display:inline;opacity:1;fill:#fce4d8;fill-opacity:1;stroke-width:0.138563"
           d="m -4345.6283,141.88439 c 17.8238,-13.42437 2.8132,-35.15419 -6.2775,-9.7423 l -0.3363,4.31968 2.2478,3.90104"
           id="path60213"
           sodipodi:nodetypes="cccc" /><path
           style="display:inline;opacity:1;fill:#fce4d8;fill-opacity:1;stroke-width:0.138563"
           d="m -4359.6191,142.78497 c -6.0552,-20.03804 -58.9766,-6.50959 -27.7927,1.20218 8.2818,0.31839 20.3156,6.72331 26.8029,-1.01788"
           id="path60215" /><path
           id="path60217"
           style="display:inline;opacity:1;fill:#000000;fill-opacity:0.251989;stroke-width:0.138563"
           d="m -4391.8706,131.95296 c -13.973,20.83005 51.7199,4.09098 18.9229,13.72906 -8.6561,-0.43969 -45.5686,-2.06909 -18.9229,-13.72906 z"
           sodipodi:nodetypes="ssssccccccccccccsscccccccccsccc" /><path
           style="display:inline;opacity:1;fill:#fce4d8;fill-opacity:1;stroke-width:0.138563"
           d="m -4380.2581,169.42662 c -29.2812,16.28419 3.5469,-37.15298 20.229,-20.07989"
           id="path60219"
           sodipodi:nodetypes="ccccc" /><path
           style="display:inline;opacity:1;fill:#000000;fill-opacity:0.251989;stroke-width:0.138563"
           d="m -4380.2581,169.42663 c -29.2813,16.28416 3.5469,-37.15297 20.229,-20.07989"
           id="path60221"
           sodipodi:nodetypes="ccccc" /><path
           style="display:inline;opacity:1;fill:#fdeae0;fill-opacity:1;stroke-width:0.138563"
           d="m -4362.1552,148.0835 c -12.0687,3.57102 -48.5426,30.29309 -37.696,0.2049 9.8407,-11.5058 26.6364,-5.17111 38.5085,-1.20298"
           id="path60223"
           sodipodi:nodetypes="ccccccc" /><path
           style="display:inline;opacity:1;fill:#fdeae0;fill-opacity:1;stroke-width:0.138563"
           d="m -4356.3031,151.59691 c 3.0825,13.91591 -20.5245,41.07137 -17.2158,12.33854 2.4013,-7.01108 7.28,-17.90422 16.3596,-16.97796"
           id="path60225"
           sodipodi:nodetypes="ccccc" /><path
           style="display:inline;opacity:1;fill:#000000;fill-opacity:0.251989;stroke-width:0.138563"
           d="m -4356.3031,151.59691 c 3.0825,13.91591 -20.5245,41.07137 -17.2158,12.33854 2.4013,-7.01108 7.28,-17.90422 16.3596,-16.97796"
           id="path60227"
           sodipodi:nodetypes="ccccc" /><path
           style="display:inline;opacity:1;fill:#fce4d8;fill-opacity:1;stroke-width:0.138563"
           d="m -4341.6109,147.75623 c 27.3154,2.94286 7.7343,54.07825 -5.5093,20.38469 -2.4143,-6.49591 -5.9688,-13.85078 -3.1318,-20.80974"
           id="path60229"
           sodipodi:nodetypes="ccscscc" /><path
           id="path60231"
           style="display:inline;opacity:1;fill:#000000;fill-opacity:0.251989;stroke-width:0.138563"
           d="m -4350.2519,147.33137 c 24.2037,-4.44985 -6.0237,29.94873 -1.3878,2.22371 l 0.9031,-1.44688 0.4848,-0.77683 z"
           sodipodi:nodetypes="ccccccccccc" /><path
           style="display:inline;opacity:1;fill:#fdeae0;fill-opacity:1;stroke-width:0.138563"
           d="m -4348.5257,149.61451 c 16.8659,16.80629 -11.4389,49.75947 -15.2923,17.98042 -0.089,-8.98393 4.041,-20.22355 14.0997,-21.88663"
           id="path60233"
           sodipodi:nodetypes="ccsccc" /><path
           id="path60235"
           style="display:inline;opacity:1;fill:#000000;fill-opacity:0.251989;stroke-width:0.138563"
           d="m -4350.0474,145.70044 c 9.7448,22.51902 -30.2323,10.7441 0,0 z m -4.4264,36.96811 2.7028,0.18772 z" /><path
           style="display:inline;opacity:1;fill:#fce4d8;fill-opacity:1;stroke-width:0.138563"
           d="m -4331.0336,141.60235 c 17.3668,1.0615 28.6173,-17.61727 4.5926,-11.73596 -8.2799,1.03364 -26.762,19.12154 -5.3094,12.50389"
           id="path60237"
           sodipodi:nodetypes="cccccc" /><path
           id="path60239"
           style="display:inline;opacity:1;fill:#000000;fill-opacity:0.251989;stroke-width:0.138563"
           d="m -4327.1499,131.12835 c 0.4054,12.00594 26.8696,-1.31365 3.1002,8.95291 -23.29,10.20867 -22.1379,-3.21451 -3.1002,-8.95291 z" /><path
           style="display:inline;opacity:1;fill:#fce4d8;fill-opacity:1;stroke-width:0.138563"
           d="m -4321.3573,144.72018 c 36.8811,5.90091 -12.6058,-24.62202 -15.7579,-1.07783 4.177,6.1998 12.5339,1.39772 18.3861,1.40036"
           id="path60241"
           sodipodi:nodetypes="ccccc" /><path
           id="path60243"
           style="display:inline;opacity:1;fill:#000000;fill-opacity:0.251989;stroke-width:0.138563"
           d="m -4334.3617,136.94718 c 28.9047,3.61721 3.0351,18.39841 -5.8551,3.42851 l 1.9307,-1.74272 z" /><path
           style="display:inline;opacity:1;fill:#fdeae0;fill-opacity:1;stroke-width:0.138563"
           d="m -4331.3408,154.9798 c 14.0672,18.36566 40.6397,-2.13283 13.0716,-9.486 -8.1301,-2.62231 -18.0469,-3.83749 -25.3328,1.67144"
           id="path60245"
           sodipodi:nodetypes="ccccc" /><path
           id="path60247"
           style="display:inline;opacity:1;fill:#000000;fill-opacity:0.251989;stroke-width:0.138563"
           d="m -4328.0652,143.99953 c -5.3595,16.9628 -29.841,-5.15241 0,0 z" /><path
           id="path60249"
           style="display:inline;opacity:1;fill:#7d716b;fill-opacity:0.625995;stroke-width:0.138563"
           d="m -4334.0835,122.01569 c -1.298,17.35112 -28.9716,22.34476 -8.6096,8.63228 2.1497,-3.12015 4.2187,-7.95117 8.6096,-8.63228 z"
           sodipodi:nodetypes="ccccsc" /><path
           style="display:inline;opacity:1;fill:#fdeae0;fill-opacity:1;stroke-width:0.138563"
           d="m -4319.238,130.3838 c -13.2668,-27.98726 -39.4547,30.11165 -7.1338,6.55006 l 3.9102,-2.71496 3.1471,-3.56057"
           id="path60251"
           sodipodi:nodetypes="csscccc" /><path
           id="path60253"
           style="display:inline;opacity:1;fill:#000000;fill-opacity:0.251989;stroke-width:0.138563"
           d="m -4345.4675,136.32879 c 19.8798,-4.26466 3.3852,16.73283 0,0 z"
           sodipodi:nodetypes="cccccccc" /><path
           style="display:inline;opacity:1;fill:#fbdecf;fill-opacity:1;stroke-width:0.138563"
           d="m -4351.7009,138.55115 c 8.7685,-17.44538 -25.1659,-28.24153 -5.1734,-7.23104 l 2.3286,3.67947 1.3941,4.1659"
           id="path60255"
           sodipodi:nodetypes="ccsccc" /><path
           id="path60257"
           style="display:inline;opacity:1;fill:#000000;fill-opacity:0.331565;stroke-width:0.138563"
           d="m -4365.2479,118.07423 c 16.5249,7.23304 12.7557,27.25662 1.0077,5.24251 l -1.1013,-2.46764 z"
           sodipodi:nodetypes="ccccccc" /><path
           style="display:inline;opacity:1;fill:#fdeae0;fill-opacity:1;stroke-width:0.138563"
           d="m -4352.0445,138.11826 c 5.4018,-17.10635 -36.8771,-23.66729 -14.0728,-4.90396 3.0632,3.8132 7.6656,9.17123 13.2535,7.20697"
           id="path60259"
           sodipodi:nodetypes="cccccc" /><path
           id="path60261"
           style="display:inline;opacity:1;fill:#000000;fill-opacity:0.33;stroke-width:0.138563"
           d="m -4376.1131,123.13962 c 16.0637,-1.88576 29.6352,28.63059 8.6911,9.2504 -2.8406,-3.13371 -5.4544,-6.4967 -8.6911,-9.2504 z"
           sodipodi:nodetypes="ccccccccc" /><path
           style="display:inline;opacity:1;fill:#fdeae0;fill-opacity:1;stroke-width:0.138563"
           d="m -4357.8033,140.23812 c -2.8001,-22.53756 -44.4487,-13.14327 -11.4055,-1.2955 l 5.6412,1.27666 z"
           id="path60263"
           sodipodi:nodetypes="ccsccc" /><path
           id="path60265"
           style="display:inline;opacity:1;fill:#000000;fill-opacity:0.251989;stroke-width:0.138563"
           d="m -4361.226,136.42702 c 9.5462,13.33081 -25.7078,-5.82924 0,0 z"
           sodipodi:nodetypes="ccccc" /><path
           id="path60267"
           style="display:inline;opacity:1;fill:#000000;fill-opacity:0.33;stroke-width:0.138563"
           d="m -4390.7109,142.5856 c -14.4775,22.87048 16.5345,6.71508 25.326,3.92751 -8.1036,11.45886 -50.0377,30.17754 -33.9142,1.14591 l 3.8924,-3.47492 z" /><path
           style="display:inline;opacity:1;fill:#f4a002;fill-opacity:1;stroke-width:0.138563"
           d="m -4337.8855,144.21479 c -7.6923,20.60092 -41.9193,-8.58819 -11.7576,-5.67167 3.7641,0.53865 7.469,1.85262 10.543,4.13236"
           id="path60269"
           sodipodi:nodetypes="cccccccc" /><path
           id="path60271"
           style="display:inline;opacity:1;fill:#9d5103;fill-opacity:1;stroke-width:0.138563"
           d="m -4361.0748,139.91815 c 1.3965,6.00889 33.1013,11.1826 6.6661,10.2274 -6.9389,0.3397 -18.1363,-4.90348 -6.6661,-10.2274 z"
           sodipodi:nodetypes="ccccccccsc" /></g></g></g></svg>
