<?xml version="1.0" encoding="UTF-8" standalone="no"?>
<!-- Created with Inkscape (http://www.inkscape.org/) -->

<svg
   width="94.869797mm"
   height="153.81236mm"
   viewBox="0 0 94.869797 153.81236"
   version="1.1"
   id="svg5"
   xml:space="preserve"
   inkscape:version="1.2 (dc2aedaf03, 2022-05-15)"
   sodipodi:docname="drawing.svg"
   xmlns:inkscape="http://www.inkscape.org/namespaces/inkscape"
   xmlns:sodipodi="http://sodipodi.sourceforge.net/DTD/sodipodi-0.dtd"
   xmlns="http://www.w3.org/2000/svg"
   xmlns:svg="http://www.w3.org/2000/svg"><sodipodi:namedview
     id="namedview7"
     pagecolor="#505050"
     bordercolor="#eeeeee"
     borderopacity="1"
     inkscape:showpageshadow="0"
     inkscape:pageopacity="0"
     inkscape:pagecheckerboard="0"
     inkscape:deskcolor="#505050"
     inkscape:document-units="mm"
     showgrid="false"
     inkscape:zoom="0.18128859"
     inkscape:cx="-16691.619"
     inkscape:cy="311.65779"
     inkscape:window-width="1920"
     inkscape:window-height="1001"
     inkscape:window-x="-9"
     inkscape:window-y="-9"
     inkscape:window-maximized="1"
     inkscape:current-layer="layer24"
     showguides="true" /><defs
     id="defs2" /><g
     inkscape:groupmode="layer"
     id="layer27"
     inkscape:label="another daisy 7"
     style="display:inline"
     transform="translate(4250.4475,-109.28801)"><g
       inkscape:groupmode="layer"
       id="layer29"
       inkscape:label="another daisy 9"
       style="display:inline"><g
         id="g61662"><path
           style="display:inline;opacity:1;fill:#76872a;fill-opacity:1;stroke-width:0.487037"
           d="m -4210.3465,214.60036 c 11.8048,-9.11911 33.2069,-49.92587 6.5893,-23.30709 -8.6425,4.50131 -14.6429,14.2019 -8.3273,23.25239"
           id="path60349" /><path
           id="path60351"
           style="display:inline;opacity:1;fill:#606d22;fill-opacity:1;stroke-width:0.487037"
           d="m -4188.5819,178.37696 c -0.059,9.97374 -36.4289,35.74351 -17.9578,31.49802 7.2162,-9.51894 17.5986,-18.66622 17.9578,-31.49802 z" /><path
           style="display:inline;opacity:1;fill:#495833;fill-opacity:1;stroke-width:0.264583"
           d="m -4220.3906,219.48806 c 5.8615,-11.21935 28.1312,-38.81604 10.1693,-12.6911 -2.6385,4.73048 -5.5231,9.62493 -10.1693,12.6911 z"
           id="path60353"
           sodipodi:nodetypes="cccccc" /><path
           style="display:inline;opacity:1;fill:#76872a;fill-opacity:1;stroke-width:0.487037"
           d="m -4217.5974,219.36606 c 19.1338,3.24282 56.871,-6.40194 58.9858,-25.27933 -19.4272,11.67547 -49.0771,-0.61335 -58.9858,25.27933 z"
           id="path60355" /><path
           id="path60357"
           style="display:inline;opacity:1;fill:#606d22;fill-opacity:1;stroke-width:0.487037"
           d="m -4155.5777,194.11236 c -13.7675,13.27147 -53.2315,15.52971 -54.6359,26.67163 20.1903,-1.03256 44.9164,-7.01541 54.6359,-26.67163 z" /><path
           id="path60359"
           style="display:inline;opacity:1;fill:#495833;fill-opacity:1;stroke-width:0.264583"
           d="m -4172.0898,203.79816 c -12.1595,-1.19981 -52.0057,13.21696 -41.6064,14.98675 14.1862,-4.1049 27.295,-11.25847 41.6064,-14.98675 z"
           sodipodi:nodetypes="sccccsscccccss" /><path
           style="display:inline;fill:#495833;fill-opacity:1;stroke-width:0.199656"
           d="m -4206.665,146.4871 c -12.2007,36.85187 -16.4847,77.2791 -6.4759,115.16869 -14.3339,7.65725 -11.4491,-38.39498 -10.7776,-50.4375 3.5367,-19.72719 5.7247,-54.39158 17.2535,-64.73119 z"
           id="path60361"
           sodipodi:nodetypes="csssssc" /><path
           id="path60363"
           style="display:inline;fill:#3b4729;fill-opacity:1;stroke-width:0.199656"
           d="m -4208.8563,144.82739 c -12.0215,35.74804 -21.3458,75.59829 -11.9681,112.92236 14.1707,20.79019 -0.95,-25.18917 -1.1557,-32.74069 -6.3733,-28.58608 13.0912,-52.80901 13.1238,-80.18167 z"
           sodipodi:nodetypes="ssssccssccss" /><path
           style="display:inline;opacity:1;fill:#fbdecf;fill-opacity:1;stroke-width:0.345683"
           d="m -4192.7486,155.58296 c 16.6818,1.85129 42.3191,-18.19078 12.3558,-15.46799 -7.0201,1.54865 -13.6573,5.21359 -18.348,10.7129"
           id="path60365" /><path
           style="display:inline;opacity:1;fill:#fce4d8;fill-opacity:1;stroke-width:0.345683"
           d="m -4201.6948,152.27763 c 17.9681,23.82525 -13.5439,26.10299 -1.414,-3.94316"
           id="path60367" /><path
           style="display:inline;opacity:1;fill:#fce4d8;fill-opacity:1;stroke-width:0.345683"
           d="m -4208.8052,151.17589 c -7.3212,29.09435 -31.3519,7.16118 -4.3881,-5.23826"
           id="path60369" /><path
           id="path60371"
           style="display:inline;opacity:1;fill:#000000;fill-opacity:0.236074;stroke-width:0.345683"
           d="m -4203.1086,148.33435 c -12.0719,16.0017 16.6546,24.97286 0.9622,3.24226 z" /><path
           id="path60373"
           style="display:inline;opacity:1;fill:#000000;fill-opacity:0.236074;stroke-width:0.345683"
           d="m -4213.1929,145.93767 c -31.2149,16.67183 15.1947,22.8493 0,0 z" /><path
           style="display:inline;opacity:1;fill:#fdeae0;fill-opacity:1;stroke-width:0.345683"
           d="m -4204.9441,150.42202 c 13.2102,26.29238 -23.2981,24.88918 -6.7469,0.42854 l 3.4307,-1.03538"
           id="path60375"
           sodipodi:nodetypes="ccccc" /><path
           id="path60377"
           style="display:inline;opacity:1;fill:#000000;fill-opacity:0.236074;stroke-width:0.345683"
           d="m -4209.2642,149.67867 c -19.2318,13.13972 22.3329,7.35263 0,0 z" /><path
           id="path60379"
           style="display:inline;opacity:1;fill:#000000;fill-opacity:0.236074;stroke-width:0.345683"
           d="m -4172.5581,146.04027 c -13.4249,-4.21083 -34.1912,10.49222 -9.5811,6.91438 4.9739,-0.56942 26.9041,-7.46456 9.5811,-6.91438 z" /><path
           style="display:inline;opacity:1;fill:#fce4d8;fill-opacity:1;stroke-width:0.345683"
           d="m -4198.0927,150.18266 c 12.7552,-13.62552 46.927,14.94376 17.9744,10.38771 -6.7295,-3.11935 -12.8635,-8.34305 -20.6118,-8.59004"
           id="path60381"
           sodipodi:nodetypes="cccccc" /><path
           id="path60383"
           style="display:inline;opacity:1;fill:#000000;fill-opacity:0.236074;stroke-width:0.345683"
           d="m -4187.8898,148.78814 c -23.6093,-4.12657 9.26,17.75932 2.5335,3.7495 z m 12.0016,12.64796 0.6437,1.07137 z" /><path
           style="display:inline;opacity:1;fill:#fdeae0;fill-opacity:1;stroke-width:0.345683"
           d="m -4200.1156,149.73977 c 19.0261,-1.03534 25.5275,34.12726 3.1157,15.9472 -4.529,-2.80452 -9.5664,-7.93994 -7.9375,-13.80223"
           id="path60385"
           sodipodi:nodetypes="ccccccc" /><path
           id="path60387"
           style="display:inline;opacity:1;fill:#000000;fill-opacity:0.236074;stroke-width:0.345683"
           d="m -4200.1158,149.73975 c -18.0045,5.95795 9.123,9.84302 5.6848,1.99731 z m 16.9613,19.23701 -0.1436,0.0366 z" /><path
           id="path60389"
           style="display:inline;opacity:1;fill:#fbdecf;fill-opacity:1;stroke-width:0.345683"
           d="m -4200.7377,113.3118 c -15.6295,10.31319 3.4131,35.71536 3.8809,9.1878 0.3146,-3.35541 -0.3956,-7.59131 -3.8809,-9.1878 z" /><path
           id="path60391"
           style="display:inline;opacity:1;fill:#000000;fill-opacity:0.18;stroke-width:0.345683"
           d="m -4199.1719,113.73334 c -17.2361,12.76569 3.0871,34.95802 2.1807,6.28441 l -0.6342,-3.28894 z" /><path
           style="display:inline;opacity:1;fill:#fbdecf;fill-opacity:1;stroke-width:0.345683"
           d="m -4213.9957,138.51517 c 15.0173,-14.3763 -16.6548,-36.69877 -7.5373,-10.14941 1.8201,3.72863 4.1039,7.26316 5.2571,11.2898"
           id="path60393" /><path
           id="path60395"
           style="display:inline;opacity:1;fill:#000000;fill-opacity:0.18;stroke-width:0.345683"
           d="m -4216.3409,114.46249 c -21.3196,1.87598 10.1056,37.64737 3.9864,10.44323 0.1604,-2.53144 1.6735,-11.06078 -3.9864,-10.44323 z" /><path
           style="display:inline;opacity:1;fill:#fce4d8;fill-opacity:1;stroke-width:0.345683"
           d="m -4199.2341,143.15805 c 13.9194,-5.2819 17.8535,-38.15643 -0.7501,-17.98485 -3.3987,5.41989 -4.9585,11.67807 -6.6026,17.77524"
           id="path60397"
           sodipodi:nodetypes="ccccc" /><path
           id="path60399"
           style="display:inline;opacity:1;fill:#000000;fill-opacity:0.18;stroke-width:0.345683"
           d="m -4183.9801,120.98745 c -21.9725,-9.94454 -26.0521,41.08396 -5.7854,11.07859 2.4202,-3.40439 4.4377,-7.11661 5.7854,-11.07859 z" /><path
           style="display:inline;opacity:1;fill:#fce4d8;fill-opacity:1;stroke-width:0.345683"
           d="m -4194.7741,147.13607 c 16.021,-3.5699 30.4703,-32.63254 5.1957,-19.82975 -5.966,4.06486 -12.7278,12.59303 -7.0104,19.69442"
           id="path60401" /><path
           id="path60403"
           style="display:inline;opacity:1;fill:#000000;fill-opacity:0.18;stroke-width:0.345683"
           d="m -4189.4438,131.20635 c -18.8623,4.44589 -0.9878,24.7818 8.1636,6.66049 11.7169,-5.87611 -3.2382,-7.63355 -8.1636,-6.66049 z" /><path
           id="path60405"
           style="display:inline;opacity:1;fill:#fce4d8;fill-opacity:1;stroke-width:0.345683"
           d="m -4210.3415,109.28801 c -20.0778,9.61287 9.933,45.85267 5.7675,12.11647 0.8272,-4.44312 0.016,-11.62826 -5.7675,-12.11647 z" /><path
           id="path60407"
           style="display:inline;opacity:1;fill:#000000;fill-opacity:0.18;stroke-width:0.345683"
           d="m -4208.5603,113.28862 c -22.5705,3.78124 8.2878,42.86584 4.1026,9.90345 0.3809,-3.47958 0.4715,-8.8987 -4.1026,-9.90345 z" /><path
           style="display:inline;opacity:1;fill:#fbdecf;fill-opacity:1;stroke-width:0.345683"
           d="m -4217.8571,138.55385 c -4.9947,-14.37328 -41.5784,-16.72294 -18.2769,0.20558 4.977,2.46346 10.479,3.74024 15.9983,4.12418"
           id="path60409" /><path
           style="display:inline;opacity:1;fill:#000000;fill-opacity:0.18;stroke-width:0.345683"
           d="m -4217.8571,138.55385 c -4.9947,-14.37328 -41.5784,-16.72294 -18.2769,0.20558 4.977,2.46346 10.479,3.74024 15.9983,4.12418"
           id="path60411" /><path
           style="display:inline;opacity:1;fill:#fce4d8;fill-opacity:1;stroke-width:0.345683"
           d="m -4220.621,141.53055 c -5.3497,-15.16626 -49.9932,-6.14414 -18.9172,1.4692 6.0003,0.89142 12.0698,1.06446 18.0943,1.72016"
           id="path60413" /><path
           style="display:inline;opacity:1;fill:#000000;fill-opacity:0.18;stroke-width:0.345683"
           d="m -4220.621,141.53055 c -5.3497,-15.16626 -49.9932,-6.14414 -18.9172,1.4692 6.0003,0.89142 12.0698,1.06446 18.0943,1.72016"
           id="path60415" /><path
           style="display:inline;opacity:1;fill:#fbdecf;fill-opacity:1;stroke-width:0.345683"
           d="m -4217.7093,153.99795 c -10.6528,0.65279 -46.7237,5.08755 -20.1271,-8.28198 6.7002,-1.8417 14.8742,-1.71522 20.0844,3.54629"
           id="path60417" /><path
           id="path60419"
           style="display:inline;opacity:1;fill:#000000;fill-opacity:0.18;stroke-width:0.345683"
           d="m -4227.5311,144.83582 c -54.0268,12.07522 37.5201,14.73854 0,0 z" /><path
           style="display:inline;opacity:1;fill:#fdeae0;fill-opacity:1;stroke-width:0.345683"
           d="m -4212.9411,151.92447 c -3.6932,20.83055 -42.9944,12.79379 -15.6578,-1.1967 4.5681,-2.04249 9.6982,-2.86005 14.6689,-2.20462"
           id="path60421"
           sodipodi:nodetypes="ccccc" /><path
           id="path60423"
           style="display:inline;opacity:1;fill:#000000;fill-opacity:0.236074;stroke-width:0.345683"
           d="m -4217.5047,148.1786 c -24.5479,1.62073 12.8788,16.14363 0.481,-0.005 z" /><path
           style="display:inline;opacity:1;fill:#fdeae0;fill-opacity:1;stroke-width:0.345683"
           d="m -4222.4356,150.22874 c -15.8376,2.95778 -45.1151,-14.76185 -13.7803,-11.29912 6.8302,2.08705 13.3575,5.94069 17.5569,11.84037"
           id="path60425" /><path
           id="path60427"
           style="display:inline;opacity:1;fill:#000000;fill-opacity:0.18;stroke-width:0.345683"
           d="m -4231.5972,140.81873 c -34.3342,8.07369 34.2537,12.98738 0,0 z" /><path
           style="display:inline;opacity:1;fill:#fdeae0;fill-opacity:1;stroke-width:0.345683"
           d="m -4217.9064,143.10606 c -12.2628,-5.30329 -30.1267,-36.80068 -4.2515,-23.22541 6.042,4.22757 11.4675,11.12105 10.2605,18.95637"
           id="path60429"
           sodipodi:nodetypes="cccccc" /><path
           id="path60431"
           style="display:inline;opacity:1;fill:#000000;fill-opacity:0.18;stroke-width:0.345683"
           d="m -4236.1077,117.42846 c -6.9616,22.584 42.9426,29.19055 15.8002,5.10833 -4.5472,-3.25205 -10.0875,-5.59855 -15.8002,-5.10833 z" /><path
           id="path60433"
           style="display:inline;opacity:1;fill:#fdeae0;fill-opacity:1;stroke-width:0.345683"
           d="m -4170.7988,131.47629 c -18.8311,-4.27859 -36.8646,31.0711 -8.1032,14.86162 4.1299,-1.98143 21.1264,-12.10077 8.1032,-14.86162 z"
           sodipodi:nodetypes="sccccccss" /><path
           id="path60435"
           style="display:inline;opacity:1;fill:#000000;fill-opacity:0.236074;stroke-width:0.345683"
           d="m -4174.5154,142.65413 c -17.3084,-3.92848 -29.3135,14.54999 -4.9907,4.03838 l 3.0475,-1.54338 z" /><path
           style="opacity:1;fill:#f4a002;fill-opacity:1;stroke-width:0.29021"
           d="m -4215.3342,152.84874 c -28.9103,-16.49214 40.6469,-25.33047 13.8824,-1.29281 -4.7558,2.19422 -12.4249,3.96363 -16.1066,-1.09552"
           id="path60437" /><path
           id="path60439"
           style="opacity:1;fill:#9d5103;fill-opacity:1;stroke-width:0.29021"
           d="m -4212.0399,137.36827 c -32.3255,6.51338 27.1441,29.28656 12.8032,4.26265 -3.8628,-2.37225 -8.2386,-3.98554 -12.8032,-4.26265 z m -5.5185,13.09234 0.3956,0.41708 z" /></g></g></g></svg>
