<?xml version="1.0" encoding="UTF-8" standalone="no"?>
<!-- Created with Inkscape (http://www.inkscape.org/) -->

<svg
   width="148.58057mm"
   height="248.88284mm"
   viewBox="0 0 148.58057 248.88284"
   version="1.1"
   id="svg5"
   xml:space="preserve"
   inkscape:version="1.2 (dc2aedaf03, 2022-05-15)"
   sodipodi:docname="drawing.svg"
   xmlns:inkscape="http://www.inkscape.org/namespaces/inkscape"
   xmlns:sodipodi="http://sodipodi.sourceforge.net/DTD/sodipodi-0.dtd"
   xmlns="http://www.w3.org/2000/svg"
   xmlns:svg="http://www.w3.org/2000/svg"><sodipodi:namedview
     id="namedview7"
     pagecolor="#505050"
     bordercolor="#eeeeee"
     borderopacity="1"
     inkscape:showpageshadow="0"
     inkscape:pageopacity="0"
     inkscape:pagecheckerboard="0"
     inkscape:deskcolor="#505050"
     inkscape:document-units="mm"
     showgrid="false"
     inkscape:zoom="0.36257717"
     inkscape:cx="-1249.3892"
     inkscape:cy="-20.685252"
     inkscape:window-width="1920"
     inkscape:window-height="1001"
     inkscape:window-x="-9"
     inkscape:window-y="-9"
     inkscape:window-maximized="1"
     inkscape:current-layer="layer12"
     showguides="true" /><defs
     id="defs2" /><g
     inkscape:groupmode="layer"
     id="layer9"
     inkscape:label="Daisy2"
     transform="translate(1202.5069,-122.45434)"
     style="display:inline"><g
       id="g35235"
       transform="matrix(3.6921553,0,0,3.6921553,-212.82537,-424.92754)"
       style="display:inline"><path
         d="m -246.15926,161.40416 c -2.78474,3.81982 -4.00244,7.19326 -5.26542,11.14659 -2.23338,6.99125 -2.57743,14.11453 -2.29807,20.7088 0.13968,3.29581 1.11272,17.13098 4.01655,22.25407 0.24965,0.44109 1.68466,-0.19937 2.00048,-0.50343 -1.76229,-4.25091 -6.08172,-18.88975 -4.74258,-31.59279 0.41403,-3.93627 1.55939,-8.20895 2.65535,-11.41419 2.10546,-6.16053 3.90657,-9.07201 3.63369,-10.59905 v 0"
         style="fill:#8a8f27;fill-opacity:1;fill-rule:evenodd;stroke:none;stroke-width:0.00294059"
         id="path35059" /><path
         d="m -253.65541,184.14725 c 1.76876,-3.37844 -4.12153,-15.62364 -8.17689,-17.60206 -0.66899,-0.32611 2.72916,2.11957 4.66612,6.5775 2.56743,5.90706 2.95941,10.97428 3.51077,11.02456 v 0"
         style="fill:#8a8f27;fill-opacity:1;fill-rule:evenodd;stroke:none;stroke-width:0.00294059"
         id="path35061" /><path
         d="m -256.60188,173.56643 c -1.04803,-0.90188 -1.42589,-1.29268 -2.8262,-1.58263 -0.94305,-0.19525 -0.54195,-2.50891 -4.03831,-2.50391 -0.6237,10e-4 1.99519,2.35894 3.41726,2.63977 1.51028,0.29759 3.42667,2.12751 3.42667,2.11193 0.002,-0.12174 0.17584,-0.53195 0.0206,-0.66516 v 0"
         style="fill:#8a8f27;fill-opacity:1;fill-rule:evenodd;stroke:none;stroke-width:0.00294059"
         id="path35065" /><path
         d="m -254.65051,178.45633 c -1.04685,-0.90188 -1.42589,-1.29268 -2.8262,-1.58262 -0.94334,-0.19526 -0.54195,-2.50891 -4.0383,-2.50362 0.36875,2.11428 1.99636,2.35894 3.41843,2.63977 1.50881,0.29758 3.4252,2.12722 3.42667,2.11163 10e-4,-0.12174 0.17467,-0.53195 0.0194,-0.66516 v 0"
         style="fill:#8a8f27;fill-opacity:1;fill-rule:evenodd;stroke:none;stroke-width:0.00294059"
         id="path35067" /><path
         d="m -255.89261,175.67307 c -0.42991,-1.26034 -0.64987,-1.74318 -0.32876,-3.03322 0.21613,-0.86806 -2.22191,-1.53322 -0.7078,-4.43705 1.91109,1.21887 1.44795,2.6774 1.1089,3.98038 -0.35964,1.38325 0.60282,3.76689 0.5887,3.76042 -0.12027,-0.0506 -0.59664,-0.0841 -0.66104,-0.27053 v 0"
         style="fill:#8a8f27;fill-opacity:1;fill-rule:evenodd;stroke:none;stroke-width:0.00294059"
         id="path35069" /><path
         d="m -254.74637,178.53926 c -0.10468,-1.31739 -0.1979,-1.83375 0.43491,-3.02028 0.42698,-0.79955 -1.78052,-1.96167 0.41668,-4.46793 1.55646,1.59027 0.7428,2.91118 0.0879,4.1083 -0.69486,1.26945 -0.35081,3.79277 -0.36375,3.78365 -0.10469,-0.0753 -0.56018,-0.20702 -0.57577,-0.40374 v 0"
         style="fill:#8a8f27;fill-opacity:1;fill-rule:evenodd;stroke:none;stroke-width:0.00294059"
         id="path35071" /><path
         d="m -252.67326,197.61632 c -1.76905,-3.37991 4.12006,-15.62481 8.17543,-17.60324 0.66898,-0.32611 -2.72916,2.11958 -4.66613,6.57721 -2.56595,5.90706 -2.9594,10.97575 -3.5093,11.02603 v 0"
         style="fill:#8a8f27;fill-opacity:1;fill-rule:evenodd;stroke:none;stroke-width:0.00294059"
         id="path35073" /><path
         d="m -246.80502,181.96181 c 1.23828,0.0673 2.66565,-1.03774 3.10673,-2.40423 0.50608,-1.56586 -0.07,-3.42255 -0.0635,-3.41226 0.0144,0.0206 -0.002,0.29259 -0.45785,1.01715 -0.91894,1.45942 -0.82425,1.23299 -1.96049,2.41834 -0.81396,0.85013 -0.41286,1.41178 -0.62488,2.381 v 0"
         style="fill:#8a8f27;fill-opacity:1;fill-rule:evenodd;stroke:none;stroke-width:0.00294059"
         id="path35075" /><path
         d="m -249.91851,186.55295 c -0.10616,-1.31739 -0.19908,-1.83375 0.43491,-3.02146 0.4255,-0.79837 -1.78053,-1.96166 0.41668,-4.46822 1.55528,1.59174 0.74132,2.91265 0.0868,4.1083 -0.69516,1.27092 -0.35081,3.79394 -0.36375,3.78365 -0.10351,-0.0738 -0.55901,-0.20702 -0.57459,-0.40227 v 0"
         style="fill:#8a8f27;fill-opacity:1;fill-rule:evenodd;stroke:none;stroke-width:0.00294059"
         id="path35077" /><path
         d="m -251.33411,193.11075 c 1.25651,-0.63664 1.7767,-0.8463 2.51155,-1.98225 0.49579,-0.76485 2.75622,0.30788 3.84071,-2.75504 -2.29572,-0.3364 -3.05527,1.01186 -3.78748,2.17016 -0.77632,1.22799 -3.26082,2.33688 -3.24523,2.34188 0.12409,0.0403 0.49402,0.31965 0.68045,0.22525 v 0"
         style="fill:#8a8f27;fill-opacity:1;fill-rule:evenodd;stroke:none;stroke-width:0.00294059"
         id="path35079" /></g><g
       inkscape:groupmode="layer"
       id="layer12"
       inkscape:label="petalas 2"
       style="display:inline"><path
         style="display:inline;fill:#fff3cf;fill-opacity:1;stroke-width:2.32376"
         d="m -1094.0358,177.90948 c 4.2336,7.48534 11.4878,16.44848 16.8099,24.90813 6.2936,10.00365 10.5385,18.87994 13.2425,17.713 1.0238,-0.19582 1.8962,-0.59412 2.6313,-1.15341 1.197,-0.91078 0.9611,-3.25404 1.4878,-4.83949 0.5293,-1.59258 1.8183,-2.42961 1.7905,-4.34056 -0.042,-2.93507 -0.6719,-6.03147 -1.6709,-8.63117 -2.4979,-8.01051 -7.3466,-12.90006 -12.0336,-17.09843 -4.5764,-2.96525 -11.0245,-7.59785 -16.0113,-8.48114"
         id="path9630-5"
         sodipodi:nodetypes="cscsssccc" /><path
         style="display:inline;fill:#fff3cf;fill-opacity:1;stroke-width:2.6396"
         d="m -1104.0414,177.05657 c 2.345,20.62179 3.6806,41.93308 12.5227,61.08358 2.6218,0.93855 2.8362,-0.26231 4.0412,-0.72554 1.6114,-0.6194 2.6574,-3.86787 3.7771,-5.10351 1.8032,-1.9897 3.2974,-2.36416 3.8994,-5.15977 0.5796,-2.69067 0.6237,-5.52833 0.1733,-8.07741 -1.2157,-14.01093 -8.4299,-26.43066 -16.3216,-37.7808"
         id="path9632-3"
         sodipodi:nodetypes="ccssscc" /><path
         style="display:inline;fill:#fff3cf;fill-opacity:1;stroke-width:2.6396"
         d="m -1105.9723,174.94138 c -0.7475,21.34686 0.9384,42.84386 -2.1706,64.05731 -0.9388,1.53127 -2.3201,2.29977 -3.8881,2.70051 -1.6371,0.4184 -3.4778,-0.18624 -5.2304,-0.1201 -2.1274,0.0804 -4.1963,0.54568 -5.9307,-0.10533 -2.1889,-0.82169 -3.8446,-2.43072 -4.4116,-5.34408 -2.2618,-10.51201 1.3151,-27.65153 1.7613,-38.28419 0.8447,-8.37789 2.93,-16.96235 8.1633,-23.75835"
         id="path9634-0"
         sodipodi:nodetypes="ccsssccc" /><path
         style="display:inline;fill:#fff3cf;fill-opacity:1;stroke-width:2.6396"
         d="m -1121.2056,174.53394 c -8.4592,15.75252 -14.2277,39.44066 -27.9247,52.21574 -4.7328,4.96204 -7.1077,1.53619 -11.4681,-5.29937 -4.0912,-6.80192 -8.8249,-8.91104 -4.7354,-14.9741 7.87,-16.6859 25.7534,-34.54425 40.8988,-45.08194"
         id="path9638-8"
         sodipodi:nodetypes="ccccc" /><path
         style="display:inline;fill:#fff3cf;fill-opacity:1;stroke-width:2.7236"
         d="m -1132.8768,165.13192 c -12.5354,15.21737 -33.0565,25.57715 -42.3413,37.08056 -6.829,4.27015 -8.2681,0.85376 -13.4479,-6.83295 -3.4746,-8.23187 -5.5119,-7.93326 -0.766,-13.32428 13.8478,-8.10855 37.7846,-24.76484 51.2574,-23.53999"
         id="path9640-2"
         sodipodi:nodetypes="ccccc" /><path
         style="display:inline;fill:#fff3cf;fill-opacity:1;stroke-width:2.6396"
         d="m -1140.1666,154.79158 c -15.9691,3.00978 -37.7038,24.18859 -54.0083,24.67482 -1.143,0.0341 -2.6743,0.19367 -4.0365,-1.83344 -0.6372,-0.94809 -0.4202,-3.71394 -0.9261,-4.80606 -0.6039,-1.30319 -1.8907,-2.57645 -2.1296,-3.77933 -0.2508,-1.26248 -0.2471,-2.37821 0.1234,-3.15508 11.3288,-11.26923 34.2561,-14.58977 50.1397,-16.29916 3.8283,-0.11568 6.6424,-2.96933 10.4668,-2.8157"
         id="path9642-6"
         sodipodi:nodetypes="cssssccc" /><path
         style="display:inline;fill:#fff3cf;fill-opacity:1;stroke-width:2.6396"
         d="m -1140.1516,144.76048 c -20.2764,4.92181 -38.2777,10.70223 -59.1404,12.91246 -0.5543,-0.87256 -1.0544,-1.69398 -1.4974,-2.46777 -1.1566,-2.02021 -0.052,-3.40309 -0.3851,-4.83594 -0.4166,-1.79208 -2.0255,-3.48596 -0.9914,-4.57801 0.8942,-0.94418 2.3644,-1.67216 4.4692,-2.26251 8.9803,-3.46677 31.8619,-8.32977 41.1949,-6.10044 5.6636,0.91755 11.1954,3.62587 16.8384,2.17826"
         id="path9644-5"
         sodipodi:nodetypes="ccsssccc" /><path
         style="display:inline;fill:#fff3cf;fill-opacity:1;stroke-width:2.6396"
         d="m -1154.3103,138.06031 c -8.3126,-1.44251 -17.2192,0.74166 -25.1853,-2.55082 -2.3559,-2.61845 -1.6994,-4.99669 -2.3176,-6.8383 -0.8259,-2.45916 -2.3247,-4.07396 -0.8874,-5.11008 1.2608,-0.90885 3.2086,-1.2619 5.5211,-1.04457 11.6267,0.049 37.4962,6.31273 44.8917,14.97443 -3.3265,5.68074 -7.0004,8.49132 -3.0489,3.04989"
         id="path9646-8"
         sodipodi:nodetypes="ccssccc" /><path
         style="display:inline;fill:#fff3cf;fill-opacity:1;stroke-width:2.6396"
         d="m -1086.5947,163.13642 c 10.5685,3.63827 23.5493,5.2328 30.6884,14.29567 1.4263,1.90389 2.0148,3.73961 1.9784,5.29836 -0.025,1.02309 -1.65,1.74909 -2.152,2.47453 -0.7071,1.02194 -0.4954,1.86773 -1.8635,2.01681 -1.7179,0.18723 -3.8243,-0.44397 -5.9854,-2.22045 -11.171,-5.42847 -22.0217,-8.29075 -28.7904,-18.29711"
         id="path9650-4"
         sodipodi:nodetypes="ccssscc" /><path
         style="display:inline;fill:#e6c78a;fill-opacity:1;stroke-width:0.364585"
         id="path10138-4"
         d="m -1135.1681,140.21448 c -2.8845,-1.27425 -0.071,-0.59606 -2.9966,-1.78433 -0.5142,-1.19842 -8.1301,-3.71116 -13.3219,-4.9564 -4.25,-3.15766 9.3393,0.19839 11.7939,1.4335 1.7546,0.85032 3.4702,1.77834 5.219,2.64023 -0.2314,0.889 -0.4629,1.778 -0.6944,2.667 z"
         sodipodi:nodetypes="cccccc" /><path
         style="display:inline;fill:#e6c78a;fill-opacity:1;stroke-width:0.364585"
         id="path10146-7"
         d="m -1087.3343,165.71657 c 1.8106,0.73639 2.5246,0.26846 4.2845,1.11845 3.2985,2.14673 7.9149,4.68505 8.4664,6.17962 0.2717,3.42042 -8.0758,-5.63332 -10.115,-4.42821 -1.7037,-0.82396 -1.9129,0.40024 -3.6661,-0.31371 z"
         sodipodi:nodetypes="cccccc" /><path
         style="display:inline;fill:#e6c78a;fill-opacity:1;stroke-width:0.364585"
         id="path10148-0"
         d="m -1093.3302,160.32471 c 2.0204,0.65279 2.7344,1.87479 4.7572,2.51994 1.8028,0.5876 16.0276,4.34063 12.8366,6.23543 -1.2933,0.73045 -10.8543,-4.37087 -13.2609,-5.12095 l -5.1795,-1.0118 z"
         sodipodi:nodetypes="scccccs" /><path
         style="display:inline;fill:#e6c78a;fill-opacity:1;stroke-width:0.364585"
         id="path10150-5"
         d="m -1094.2478,172.35247 c 5.6733,4.8424 -0.3343,-1.03671 5.4705,2.84124 4.4645,1.84517 14.3851,12.33828 12.1797,13.15966 -0.4404,0.5107 -9.1333,-9.41587 -15.2267,-11.86939 -1.3027,-1.37899 -2.1538,0.14218 -3.5129,-1.1801 z"
         sodipodi:nodetypes="cccccc" /><path
         style="display:inline;fill:#e6c78a;fill-opacity:1;stroke:none;stroke-width:0.461241;stroke-opacity:1"
         id="path2017-5-2"
         d="m -1126.0456,168.74485 c -1.9429,3.55593 -6.6464,9.5845 -10.0459,15.79555 -3.93,7.18043 -6.3913,14.43482 -5.2554,15.65464 2.2112,-0.77637 4.9168,-8.08959 8.3704,-14.79627 3.9892,-7.74647 8.7794,-14.84709 11.7671,-12.7781 -1.064,-4.97776 -1.0446,-8.96904 -4.8362,-3.87582 z"
         sodipodi:nodetypes="cscscc" /><path
         style="display:inline;fill:#e6c78a;fill-opacity:1;stroke:none;stroke-width:0.364585;stroke-opacity:1"
         id="path2019-2-5"
         d="m -1109.9215,177.09537 c -0.2989,2.95527 0.1792,8.70385 -0.3389,13.86883 -0.599,5.97108 -2.1229,13.7979 -3.4849,13.86767 -1.1835,-1.58114 0.1971,-9.5679 0.9083,-15.03139 0.8213,-6.31052 0.782,-12.6887 -2.2696,-13.126 3.0627,-2.15528 4.9081,-4.34079 5.1851,0.42089 z"
         sodipodi:nodetypes="cscscc" /><path
         style="display:inline;fill:#e6c78a;fill-opacity:1;stroke:none;stroke-width:0.39326;stroke-opacity:1"
         d="m -1100.7965,181.81468 -2.1351,1.07122 c 2.1714,8.97243 3.4694,17.76343 4.7165,19.83917 2.0698,-3.29724 -0.4762,-12.08423 -2.5814,-20.91039 z"
         id="path2043-4-6"
         sodipodi:nodetypes="cccc" /><path
         style="display:inline;fill:#e6c78a;fill-opacity:1;stroke:none;stroke-width:0.394808;stroke-opacity:1"
         id="path2045-1-6"
         d="m -1140.637,160.16167 c -2.6755,2.03231 -8.229,2.99191 -12.9067,6.5394 -5.4076,4.10108 -12.7875,11.27903 -12.367,12.71476 1.9109,0.2887 8.6687,-6.30892 13.5585,-10.22833 5.6479,-4.52713 12.4612,-6.83117 13.9621,-3.96114 0.9359,-4.39547 2.3349,-7.56216 -2.2469,-5.06472 z"
         sodipodi:nodetypes="cscsccc" /><path
         style="display:inline;fill:#e6c78a;fill-opacity:1;stroke:none;stroke-width:0.288538;stroke-opacity:1"
         id="path2047-4-4"
         d="m -1143.5762,150.83016 c -2.2901,1.07816 -6.4947,1.02417 -10.4974,2.9052 -4.6275,2.17458 -11.2092,6.25433 -11.1449,7.31928 1.3426,0.45381 7.3736,-3.29936 11.5935,-5.41414 4.874,-2.4427 10.2222,-3.16891 10.8312,-0.95339 1.4219,-2.96855 2.9737,-5.01213 -0.7824,-3.85699 z"
         sodipodi:nodetypes="cscsccc" /><path
         style="display:inline;fill:#e6c78a;fill-opacity:1;stroke:none;stroke-width:0.364585;stroke-opacity:1"
         id="path2049-3-5"
         d="m -1143.4511,141.69522 c -2.9701,0.0367 -7.9161,-2.40548 -13.1067,-2.34563 -6.0007,0.0691 -14.7812,1.38543 -14.971,2.73601 1.4702,1.31849 9.5201,0.0942 15.025,-0.13136 6.3585,-0.26068 12.8478,1.86474 13.0139,4.94302 2.4173,-2.86009 4.7574,-4.50536 0.038,-5.20199 z"
         sodipodi:nodetypes="cscsccc" /><path
         style="display:inline;fill:#e6c78a;fill-opacity:1;stroke:none;stroke-width:0.35195;stroke-opacity:1"
         d="m -1142.5981,149.07746 -0.4512,1.95008 c -9.3927,0.63647 -19.1486,2.63465 -20.6219,2.57422 1.8664,-4.24761 11.6495,-3.56327 21.0737,-4.52428 z"
         id="path2051-5-8"
         sodipodi:nodetypes="ccccc" /><path
         style="display:inline;fill:#e6c78a;fill-opacity:1;stroke:none;stroke-width:0.35195;stroke-opacity:1"
         d="m -1127.267,164.55418 0.971,1.73978 c -5.8566,7.22976 -12.1284,16.16833 -14.0026,17.56815 -0.4611,-4.18027 7.2734,-12.19993 13.0321,-19.30834 z"
         id="path2053-9-2"
         sodipodi:nodetypes="ccccc" /><path
         style="display:inline;fill:#e6c78a;fill-opacity:1;stroke:none;stroke-width:0.35195;stroke-opacity:1"
         d="m -1130.9566,158.69545 0.3641,1.95882 c -8.3677,5.28413 -16.5192,10.23024 -17.6253,10.28742 0.02,-4.23418 9.5336,-7.35085 17.2618,-12.24646 z"
         id="path2053-9-9-5"
         sodipodi:nodetypes="ccccc" /><path
         style="display:inline;fill:#e6c78a;fill-opacity:1;stroke:none;stroke-width:0.329478;stroke-opacity:1"
         id="path2019-4-4"
         d="m -1098.7794,181.21978 c 1.0223,2.08389 4.184,6.02673 5.9756,9.66835 2.0711,4.20996 3.9685,9.80551 2.4927,9.99634 -2.0339,-0.97452 -4.1632,-6.66619 -5.8778,-10.53534 -1.9804,-4.46896 -4.9445,-8.89496 -8.5227,-8.87974 2.4031,-1.81708 3.4451,-3.52799 5.9322,-0.24961 z"
         sodipodi:nodetypes="cscscc" /><path
         style="display:inline;fill:#f5cd44;fill-opacity:1;stroke-width:0.525598"
         d="m -1089.9051,168.98966 c 3.1352,-1.59948 3.8846,-6.38365 1.4113,-8.87907 -0.3883,-3.29438 -1.3688,-6.74507 -3.8399,-9.10016 -0.2768,-3.69862 -3.6124,-6.48702 -7.0851,-7.18185 -1.8362,-2.72428 -4.9301,-4.90829 -8.3341,-4.68794 -3.296,-1.26951 -6.4579,-3.75526 -10.1944,-3.06478 -3.8202,0.17202 -7.4345,-2.05024 -11.2436,-1.41402 -3.529,0.9158 -6.3388,3.40627 -9.6009,4.91946 -3.6442,2.2113 -7.5332,5.30817 -8.1609,9.79207 0.2891,3.90944 4.315,5.62703 6.6159,8.26523 3.0322,2.22456 3.3237,6.77672 6.8466,8.30664 2.9979,0.7291 4.5065,3.17908 6.0773,5.45781 2.6816,1.18182 6.1186,0.93477 7.7471,3.83337 3.1717,2.64936 7.2561,3.76151 10.8386,5.70775 3.4105,1.50486 7.4889,2.9927 11.0485,1.08469 2.3188,-0.97016 4.4697,-2.32085 6.4062,-3.91911 1.8172,-2.75887 -0.2141,-6.32272 1.4674,-9.12009 z"
         id="path6646-9"
         sodipodi:nodetypes="ccccccccccccccccccc" /><path
         id="path8718-8"
         style="display:inline;fill:#f0a60d;fill-opacity:1;stroke-width:0.525598"
         d="m -1089.9444,169.2793 c -1.5256,2.63844 -0.2136,5.26213 -0.8605,7.80177 -1.385,2.72354 -4.3534,3.40153 -6.6347,4.82319 -2.4463,1.28264 -5.1685,1.52135 -7.3802,0.50472 -4.1045,-1.15469 -7.7491,-3.28393 -11.4803,-5.17616 -2.5838,-0.28526 -3.723,-2.61613 -5.3669,-4.25854 -1.6692,-1.70447 -4.7477,0.56179 -5.983,-1.97899 -1.3939,-1.72152 -2.3156,-4.45945 -4.9001,-4.49738 -3.8313,-0.97048 -4.3741,-5.81799 -7.1243,-8.1532 -2.191,-2.51694 -5.1941,-4.21727 -6.9842,-7.11802 -1.197,-3.29905 1.6313,-6.71783 4.0992,-8.97077 2.5605,-2.29592 2.8911,2.64149 4.8227,3.35698 1.9195,2.2299 1.7793,8.762 4.8494,9.62245 2.5202,0.45259 4.9908,1.25324 6.8329,3.02799 2.011,1.4802 3.0074,4.30343 5.6433,4.85341 3.5905,0.89192 7.6839,0.89213 10.5038,3.43212 1.9096,1.619 3.9345,3.39022 6.6665,3.39556 2.8033,0.89974 5.6104,0.86403 8.8434,0.82706 1.2401,-1.28418 2.9711,-1.61393 4.4528,-1.49205 z"
         sodipodi:nodetypes="scccccccccccccccccss" /><path
         d="m -1129.8635,158.05991 c 1.2528,0.31016 1.8773,2.66897 -0.4284,3.46993 -3.449,1.19802 -1.6391,-3.98287 0.4284,-3.46993 v 0"
         style="display:inline;fill:#b88729;fill-opacity:1;fill-rule:evenodd;stroke:none;stroke-width:0.0105045"
         id="path22088-5-0-8" /><path
         d="m -1141.4202,144.35265 c 1.2526,0.31015 1.8772,2.66907 -0.4285,3.46995 -3.449,1.19799 -1.6392,-3.98289 0.4285,-3.46995 v 0"
         style="display:inline;fill:#b88729;fill-opacity:1;fill-rule:evenodd;stroke:none;stroke-width:0.0105045"
         id="path22092-5-6-4" /><path
         d="m -1094.4244,157.08906 c 1.2526,0.31015 1.8772,2.66903 -0.4284,3.46993 -3.4488,1.19803 -1.6391,-3.98288 0.4284,-3.46993 v 0"
         style="display:inline;fill:#d29b30;fill-opacity:1;fill-rule:evenodd;stroke:none;stroke-width:0.0105045"
         id="path22098-6-8-7" /><path
         d="m -1141.4444,155.61161 c 0.2144,1.48089 2.5008,2.37591 3.4555,-0.24629 1.4308,-3.92698 -3.8162,-2.19151 -3.4555,0.24629 v 0"
         style="display:inline;fill:#b88729;fill-opacity:1;fill-rule:evenodd;stroke:none;stroke-width:0.00791824"
         id="path22100-1-8-6" /><path
         d="m -1118.3633,158.32621 c -0.073,-1.52111 -2.2282,-2.66959 -3.4045,-0.11812 -1.7622,3.82136 3.5328,2.62295 3.4045,0.11812 v 0"
         style="display:inline;fill:#d29b30;fill-opacity:1;fill-rule:evenodd;stroke:none;stroke-width:0.00791824"
         id="path22102-8-8-2" /><path
         d="m -1135.8696,150.26029 c 0.2928,1.96004 3.3197,3.16017 4.5654,-0.30058 1.8666,-5.18301 -5.0573,-2.92596 -4.5654,0.30058 v 0"
         style="display:inline;fill:#d29b30;fill-opacity:1;fill-rule:evenodd;stroke:none;stroke-width:0.0104681"
         id="path22104-0-8-2" /><path
         d="m -1140.3414,142.59477 c 0.2143,1.48088 2.5009,2.37575 3.4557,-0.24621 1.4309,-3.92695 -3.8163,-2.19156 -3.4557,0.24621 v 0"
         style="display:inline;fill:#d29b30;fill-opacity:1;fill-rule:evenodd;stroke:none;stroke-width:0.00791824"
         id="path22108-8-5-1" /><path
         d="m -1094.6427,166.72838 c 0.1945,1.34475 2.2708,2.15742 3.1379,-0.22357 1.2993,-3.56596 -3.4656,-1.99001 -3.1379,0.22357 v 0"
         style="display:inline;fill:#d29b30;fill-opacity:1;fill-rule:evenodd;stroke:none;stroke-width:0.00719029"
         id="path22110-7-9-3" /><path
         d="m -1099.0401,165.6755 c 0.1506,1.04352 1.762,1.6739 2.4345,-0.17358 1.0075,-2.76684 -2.6887,-1.54408 -2.4345,0.17358 v 0"
         style="display:inline;fill:#d29b30;fill-opacity:1;fill-rule:evenodd;stroke:none;stroke-width:0.00557896"
         id="path22112-5-0-1" /></g></g></svg>
