<?xml version="1.0" encoding="UTF-8" standalone="no"?>
<!-- Created with Inkscape (http://www.inkscape.org/) -->

<svg
   width="95.275932mm"
   height="161.93346mm"
   viewBox="0 0 95.275932 161.93346"
   version="1.1"
   id="svg5"
   xml:space="preserve"
   inkscape:version="1.2 (dc2aedaf03, 2022-05-15)"
   sodipodi:docname="large_1.svg"
   xmlns:inkscape="http://www.inkscape.org/namespaces/inkscape"
   xmlns:sodipodi="http://sodipodi.sourceforge.net/DTD/sodipodi-0.dtd"
   xmlns="http://www.w3.org/2000/svg"
   xmlns:svg="http://www.w3.org/2000/svg"><sodipodi:namedview
     id="namedview7"
     pagecolor="#505050"
     bordercolor="#eeeeee"
     borderopacity="1"
     inkscape:showpageshadow="0"
     inkscape:pageopacity="0"
     inkscape:pagecheckerboard="0"
     inkscape:deskcolor="#505050"
     inkscape:document-units="mm"
     showgrid="false"
     inkscape:zoom="1.4503087"
     inkscape:cx="-75.501166"
     inkscape:cy="296.14384"
     inkscape:window-width="3200"
     inkscape:window-height="1271"
     inkscape:window-x="2391"
     inkscape:window-y="-9"
     inkscape:window-maximized="1"
     inkscape:current-layer="layer12"
     showguides="true" /><defs
     id="defs2" /><g
     inkscape:groupmode="layer"
     id="layer9"
     inkscape:label="Daisy2"
     transform="translate(6086.57,-776.61738)"
     style="display:inline"><g
       inkscape:groupmode="layer"
       id="layer12"
       inkscape:label="petalas 2"
       style="display:inline"><g
         id="g2748"
         transform="matrix(-2.36756,0,0,2.36756,-6626.8539,427.95355)"
         style="display:inline;fill:#4f5902;fill-opacity:1"
         inkscape:export-filename="minhaFlor2.svg"
         inkscape:export-xdpi="96"
         inkscape:export-ydpi="96"><path
           d="m -246.15926,161.40416 c -2.78474,3.81982 -4.00244,7.19326 -5.26542,11.14659 -2.23338,6.99125 -2.57743,14.11453 -2.29807,20.7088 0.13968,3.29581 1.11272,17.13098 4.01655,22.25407 0.24965,0.44109 1.68466,-0.19937 2.00048,-0.50343 -1.76229,-4.25091 -6.08172,-18.88975 -4.74258,-31.59279 0.41403,-3.93627 1.55939,-8.20895 2.65535,-11.41419 2.10546,-6.16053 3.90657,-9.07201 3.63369,-10.59905 v 0"
           style="fill:#4f5902;fill-opacity:1;fill-rule:evenodd;stroke:none;stroke-width:0.00294059"
           id="path2728" /><path
           d="m -253.65541,184.14725 c 1.76876,-3.37844 -4.12153,-15.62364 -8.17689,-17.60206 -0.66899,-0.32611 2.72916,2.11957 4.66612,6.5775 2.56743,5.90706 2.95941,10.97428 3.51077,11.02456 v 0"
           style="fill:#4f5902;fill-opacity:1;fill-rule:evenodd;stroke:none;stroke-width:0.00294059"
           id="path2730" /><path
           d="m -256.60188,173.56643 c -1.04803,-0.90188 -1.42589,-1.29268 -2.8262,-1.58263 -0.94305,-0.19525 -0.54195,-2.50891 -4.03831,-2.50391 -0.6237,10e-4 1.99519,2.35894 3.41726,2.63977 1.51028,0.29759 3.42667,2.12751 3.42667,2.11193 0.002,-0.12174 0.17584,-0.53195 0.0206,-0.66516 v 0"
           style="fill:#4f5902;fill-opacity:1;fill-rule:evenodd;stroke:none;stroke-width:0.00294059"
           id="path2732" /><path
           d="m -254.65051,178.45633 c -1.04685,-0.90188 -1.42589,-1.29268 -2.8262,-1.58262 -0.94334,-0.19526 -0.54195,-2.50891 -4.0383,-2.50362 0.36875,2.11428 1.99636,2.35894 3.41843,2.63977 1.50881,0.29758 3.4252,2.12722 3.42667,2.11163 10e-4,-0.12174 0.17467,-0.53195 0.0194,-0.66516 v 0"
           style="fill:#4f5902;fill-opacity:1;fill-rule:evenodd;stroke:none;stroke-width:0.00294059"
           id="path2734" /><path
           d="m -255.89261,175.67307 c -0.42991,-1.26034 -0.64987,-1.74318 -0.32876,-3.03322 0.21613,-0.86806 -2.22191,-1.53322 -0.7078,-4.43705 1.91109,1.21887 1.44795,2.6774 1.1089,3.98038 -0.35964,1.38325 0.60282,3.76689 0.5887,3.76042 -0.12027,-0.0506 -0.59664,-0.0841 -0.66104,-0.27053 v 0"
           style="fill:#4f5902;fill-opacity:1;fill-rule:evenodd;stroke:none;stroke-width:0.00294059"
           id="path2736" /><path
           d="m -254.74637,178.53926 c -0.10468,-1.31739 -0.1979,-1.83375 0.43491,-3.02028 0.42698,-0.79955 -1.78052,-1.96167 0.41668,-4.46793 1.55646,1.59027 0.7428,2.91118 0.0879,4.1083 -0.69486,1.26945 -0.35081,3.79277 -0.36375,3.78365 -0.10469,-0.0753 -0.56018,-0.20702 -0.57577,-0.40374 v 0"
           style="fill:#4f5902;fill-opacity:1;fill-rule:evenodd;stroke:none;stroke-width:0.00294059"
           id="path2738" /><path
           d="m -252.67326,197.61632 c -1.76905,-3.37991 4.12006,-15.62481 8.17543,-17.60324 0.66898,-0.32611 -2.72916,2.11958 -4.66613,6.57721 -2.56595,5.90706 -2.9594,10.97575 -3.5093,11.02603 v 0"
           style="fill:#4f5902;fill-opacity:1;fill-rule:evenodd;stroke:none;stroke-width:0.00294059"
           id="path2740" /><path
           d="m -246.80502,181.96181 c 1.23828,0.0673 2.66565,-1.03774 3.10673,-2.40423 0.50608,-1.56586 -0.07,-3.42255 -0.0635,-3.41226 0.0144,0.0206 -0.002,0.29259 -0.45785,1.01715 -0.91894,1.45942 -0.82425,1.23299 -1.96049,2.41834 -0.81396,0.85013 -0.41286,1.41178 -0.62488,2.381 v 0"
           style="fill:#4f5902;fill-opacity:1;fill-rule:evenodd;stroke:none;stroke-width:0.00294059"
           id="path2742" /><path
           d="m -249.91851,186.55295 c -0.10616,-1.31739 -0.19908,-1.83375 0.43491,-3.02146 0.4255,-0.79837 -1.78053,-1.96166 0.41668,-4.46822 1.55528,1.59174 0.74132,2.91265 0.0868,4.1083 -0.69516,1.27092 -0.35081,3.79394 -0.36375,3.78365 -0.10351,-0.0738 -0.55901,-0.20702 -0.57459,-0.40227 v 0"
           style="fill:#4f5902;fill-opacity:1;fill-rule:evenodd;stroke:none;stroke-width:0.00294059"
           id="path2744" /><path
           d="m -251.33411,193.11075 c 1.25651,-0.63664 1.7767,-0.8463 2.51155,-1.98225 0.49579,-0.76485 2.75622,0.30788 3.84071,-2.75504 -2.29572,-0.3364 -3.05527,1.01186 -3.78748,2.17016 -0.77632,1.22799 -3.26082,2.33688 -3.24523,2.34188 0.12409,0.0403 0.49402,0.31965 0.68045,0.22525 v 0"
           style="fill:#4f5902;fill-opacity:1;fill-rule:evenodd;stroke:none;stroke-width:0.00294059"
           id="path2746" /></g><path
         style="display:inline;fill:#fff3cf;fill-opacity:1;stroke-width:1.49009"
         d="m -6060.1623,808.80813 c -3.4269,4.32032 -8.9144,9.27611 -13.1279,14.10527 -4.9825,5.71053 -8.555,10.91085 -10.1518,9.90248 -0.629,-0.22596 -1.142,-0.5651 -1.552,-0.99256 -0.6676,-0.69609 -0.2849,-2.15701 -0.4607,-3.21376 -0.1768,-1.06153 -0.9101,-1.72008 -0.7023,-2.92783 0.3189,-1.85509 1.0261,-3.75386 1.9177,-5.30125 2.3796,-4.82577 5.9378,-7.4405 9.3248,-9.6335 3.1942,-1.42286 7.74,-3.71563 10.9869,-3.77879"
         id="path2750"
         sodipodi:nodetypes="cscsssccc" /><path
         style="display:inline;fill:#fff3cf;fill-opacity:1;stroke-width:1.69262"
         d="m -6053.7392,809.26378 c -3.5381,12.82983 -6.5054,26.1969 -14.0128,37.448 -1.7543,0.33358 -1.7706,-0.44847 -2.4878,-0.86185 -0.9591,-0.55278 -1.2983,-2.71469 -1.8846,-3.60888 -0.9443,-1.4399 -1.8536,-1.82585 -1.9566,-3.65669 -0.099,-1.76216 0.1552,-3.5641 0.6942,-5.13403 2.1647,-8.75448 7.971,-15.90388 14.0999,-22.30829"
         id="path2752"
         sodipodi:nodetypes="ccssscc" /><path
         style="display:inline;fill:#fff3cf;fill-opacity:1;stroke-width:1.69262"
         d="m -6052.3055,808.11607 c -1.6513,13.59696 -4.859,27.04682 -5.0011,40.79432 0.4423,1.06346 1.2408,1.68776 2.1942,2.0977 0.9954,0.42801 2.2216,0.2282 3.3252,0.44455 1.3396,0.26264 2.6039,0.76338 3.7674,0.52365 1.4684,-0.30262 2.6774,-1.15708 3.3265,-2.94618 2.4792,-6.43387 1.9193,-17.64726 2.695,-24.42712 0.2989,-5.3912 -0.1676,-11.03675 -2.8062,-15.86271"
         id="path2754"
         sodipodi:nodetypes="ccsssccc" /><path
         style="display:inline;fill:#fff3cf;fill-opacity:1;stroke-width:1.69262"
         d="m -6042.6151,809.37428 c 3.7907,10.82073 5.0869,26.4006 12.492,35.85658 2.5041,3.61438 4.3495,1.68062 7.7921,-2.21546 3.2687,-3.90158 6.4773,-4.76644 4.4902,-9.01426 -3.3245,-11.35336 -12.8754,-24.44613 -21.4207,-32.62897"
         id="path2756"
         sodipodi:nodetypes="ccccc" /><path
         style="display:inline;fill:#fff3cf;fill-opacity:1;stroke-width:1.74648"
         d="m -6034.2859,804.58014 c 6.4261,10.88747 18.3943,19.49269 23.1309,27.70393 3.901,3.38476 5.1526,1.36383 9.199,-2.98986 3.0204,-4.86878 4.2812,-4.47683 1.8115,-8.36426 -7.965,-6.51491 -21.4703,-19.44877 -30.1268,-20.01393"
         id="path2758"
         sodipodi:nodetypes="ccccc" /><path
         style="display:inline;fill:#fff3cf;fill-opacity:1;stroke-width:1.69262"
         d="m -6028.6388,798.75548 c 9.8163,3.49614 21.4765,19.07567 31.7565,21.00661 0.7206,0.1354 1.6748,0.38889 2.7395,-0.75964 0.498,-0.53715 0.6358,-2.31083 1.065,-2.95231 0.5123,-0.7654 1.4541,-1.44389 1.7252,-2.1821 0.2845,-0.77478 0.3933,-1.48191 0.236,-2.0109 -6.0547,-8.26635 -20.2479,-12.65196 -30.1395,-15.31583 -2.4136,-0.45437 -3.9122,-2.54215 -6.3501,-2.82552"
         id="path2760"
         sodipodi:nodetypes="cssssccc" /><path
         style="display:inline;fill:#fff3cf;fill-opacity:1;stroke-width:1.69262"
         d="m -6027.6498,792.3996 c 12.3545,5.13609 23.1824,10.58963 36.1783,14.06638 0.4379,-0.49757 0.8365,-0.96813 1.1942,-1.4142 0.9337,-1.16463 0.3713,-2.15063 0.7252,-3.02509 0.4424,-1.09374 1.6302,-2.00662 1.0838,-2.80132 -0.4724,-0.68712 -1.3314,-1.29462 -2.6059,-1.87811 -5.3437,-3.08996 -19.3543,-8.44811 -25.4884,-7.9649 -3.6791,0.0175 -7.4529,1.18249 -10.8834,-0.29622"
         id="path2762"
         sodipodi:nodetypes="ccsssccc" /><path
         style="display:inline;fill:#fff3cf;fill-opacity:1;stroke-width:1.69262"
         d="m -6018.0138,789.56459 c 5.4094,-0.0863 10.834,2.18379 16.208,0.89104 1.753,-1.42419 1.5739,-2.99607 2.1488,-4.10114 0.768,-1.47559 1.8782,-2.34932 1.0708,-3.14874 -0.7083,-0.70123 -1.907,-1.11876 -3.3934,-1.21126 -7.3701,-1.1263 -24.3811,0.2666 -29.928,5.01737 1.5418,3.92968 3.5892,6.07578 1.6278,2.23549"
         id="path2764"
         sodipodi:nodetypes="ccssccc" /><path
         style="display:inline;fill:#fff3cf;fill-opacity:1;stroke-width:1.69262"
         d="m -6063.4055,798.70919 c -7.057,1.25275 -15.4386,0.97075 -20.863,6.00119 -1.0931,1.06408 -1.6486,2.16836 -1.7807,3.1594 -0.086,0.65058 0.8711,1.27224 1.1169,1.78175 0.3462,0.71774 0.1279,1.23245 0.9797,1.46306 1.0696,0.28961 2.4667,0.0994 4.0126,-0.8108 7.6168,-2.32682 14.7753,-3.05992 20.0591,-8.72487"
         id="path2766"
         sodipodi:nodetypes="ccssscc" /><path
         style="display:inline;fill:#e6c78a;fill-opacity:1;stroke-width:0.233787"
         id="path2768"
         d="m -6030.3542,789.0238 c 1.9541,-0.52007 0.1048,-0.37044 2.0759,-0.83203 0.445,-0.70798 5.5195,-1.54165 8.9323,-1.81369 3.0066,-1.57723 -5.9359,-0.80393 -7.6137,-0.26586 -1.1961,0.364 -2.3753,0.78111 -3.5689,1.15302 0.058,0.58617 0.1163,1.17237 0.1744,1.75856 z"
         sodipodi:nodetypes="cccccc" /><path
         style="display:inline;fill:#e6c78a;fill-opacity:1;stroke-width:0.233787"
         id="path2770"
         d="m -6059.4748,805.30905 c -4.0759,2.50278 0.3149,-0.62346 -3.7482,1.25531 -3.0118,0.72447 -10.3406,6.38403 -9.0253,7.12388 0.2281,0.36735 6.7228,-5.05555 10.827,-6.00325 0.9625,-0.74387 1.3502,0.30448 2.3427,-0.39789 z"
         sodipodi:nodetypes="cccccc" /><path
         style="display:inline;fill:#e6c78a;fill-opacity:1;stroke-width:0.233787"
         id="path2772"
         d="m -6063.1938,800.41726 c -1.2203,0.28624 -1.626,-0.0812 -2.8254,0.28204 -2.3032,1.03154 -5.4802,2.17998 -5.9783,3.07185 -0.5126,2.13967 5.6765,-2.76468 6.8483,-1.79831 1.1612,-0.35236 1.1719,0.44395 2.3536,0.16621 z"
         sodipodi:nodetypes="cccccc" /><path
         style="display:inline;fill:#e6c78a;fill-opacity:1;stroke:none;stroke-width:0.295766;stroke-opacity:1"
         id="path2774"
         d="m -6038.9729,806.18884 c 0.8769,2.44596 3.2563,6.73306 4.7916,11.00594 1.7747,4.93974 2.6118,9.78016 1.7708,10.43982 -1.3235,-0.71191 -2.3094,-5.61391 -3.8296,-10.20614 -1.7559,-5.30421 -4.0836,-10.27904 -6.1821,-9.26579 1.1694,-3.04735 1.5545,-5.57763 3.4493,-1.97383 z"
         sodipodi:nodetypes="cscscc" /><path
         style="display:inline;fill:#e6c78a;fill-opacity:1;stroke:none;stroke-width:0.233787;stroke-opacity:1"
         id="path2776"
         d="m -6050.0182,809.87366 c -0.1047,1.90183 -0.9798,5.49577 -1.1658,8.81919 -0.2149,3.84212 -0.029,8.95184 0.8273,9.13161 0.9071,-0.8838 0.8275,-6.08058 0.9207,-9.61232 0.108,-4.07926 0.7677,-8.11572 2.7443,-8.08898 -1.7255,-1.67015 -2.677,-3.2383 -3.3265,-0.2495 z"
         sodipodi:nodetypes="cscscc" /><path
         style="display:inline;fill:#e6c78a;fill-opacity:1;stroke:none;stroke-width:0.252174;stroke-opacity:1"
         d="m -6056.2683,811.9549 1.2459,0.89111 c -2.2686,5.46761 -3.9659,10.90723 -4.9625,12.098 -0.983,-2.29472 1.5044,-7.60757 3.7166,-12.98911 z"
         id="path2778"
         sodipodi:nodetypes="cccc" /><path
         style="display:inline;fill:#e6c78a;fill-opacity:1;stroke:none;stroke-width:0.253167;stroke-opacity:1"
         id="path2780"
         d="m -6028.8753,802.20407 c 1.4926,1.55373 4.915,2.71439 7.525,5.42722 3.0174,3.13617 6.9778,8.41775 6.5685,9.28538 -1.2392,-0.007 -4.8634,-4.85936 -7.5707,-7.8289 -3.1272,-3.42998 -7.2138,-5.56769 -8.4503,-3.89903 -0.1553,-2.87754 -0.7263,-5.0228 1.9275,-2.98469 z"
         sodipodi:nodetypes="cscsccc" /><path
         style="display:inline;fill:#e6c78a;fill-opacity:1;stroke:none;stroke-width:0.185022;stroke-opacity:1"
         id="path2782"
         d="m -6026.0845,796.58544 c 1.3433,0.91093 4.0121,1.29524 6.3605,2.88523 2.715,1.83815 6.4781,5.07767 6.3314,5.74588 -0.8957,0.15383 -4.3426,-2.824 -6.8052,-4.58367 -2.8444,-2.03254 -6.16,-3.02491 -6.7664,-1.68208 -0.6051,-2.022 -1.3848,-3.47102 0.8797,-2.36539 z"
         sodipodi:nodetypes="cscsccc" /><path
         style="display:inline;fill:#e6c78a;fill-opacity:1;stroke:none;stroke-width:0.233787;stroke-opacity:1"
         id="path2784"
         d="m -6025.2546,790.78629 c 1.8779,0.31886 5.2541,-0.73584 8.5362,-0.18126 3.7944,0.64106 9.2255,2.34893 9.2113,3.22336 -1.0626,0.68887 -6.0401,-0.88795 -9.5047,-1.57874 -4.0021,-0.79806 -8.3244,-0.0976 -8.736,1.83585 -1.2466,-2.05239 -2.5652,-3.32754 0.4941,-3.29902 z"
         sodipodi:nodetypes="cscsccc" /><path
         style="display:inline;fill:#e6c78a;fill-opacity:1;stroke:none;stroke-width:0.225685;stroke-opacity:1"
         d="m -6026.5297,795.3778 0.092,1.28022 c 5.8866,1.33812 11.8677,3.57498 12.8071,3.68336 -0.7595,-2.87651 -7.0249,-3.41679 -12.8992,-4.96363 z"
         id="path2786"
         sodipodi:nodetypes="ccccc" /><path
         style="display:inline;fill:#e6c78a;fill-opacity:1;stroke:none;stroke-width:0.225685;stroke-opacity:1"
         d="m -6037.782,803.65576 -0.7883,1.00545 c 2.9904,5.16278 6.0736,11.44936 7.1215,12.52265 0.7082,-2.60217 -3.3931,-8.45225 -6.3335,-13.5284 z"
         id="path2788"
         sodipodi:nodetypes="ccccc" /><path
         style="display:inline;fill:#e6c78a;fill-opacity:1;stroke:none;stroke-width:0.225685;stroke-opacity:1"
         d="m -6034.8616,800.31171 -0.4256,1.20461 c 4.7747,4.18023 9.4461,8.12482 10.141,8.27113 0.4086,-2.68424 -5.3075,-5.60548 -9.7157,-9.47594 z"
         id="path2790"
         sodipodi:nodetypes="ccccc" /><path
         id="path2792"
         style="display:inline;fill:#997a00;fill-opacity:0.36;stroke-width:1.49009"
         d="m -6060.6505,805.70668 0.488,3.10132 c -2.0136,2.53863 -4.7398,5.29899 -7.4998,8.12183 0.071,-0.3418 0.098,-0.69096 0.1357,-1.03797 0.07,-0.73134 0.1231,-1.46397 0.1718,-2.19694 0.064,-0.57459 0.1339,-1.1485 0.2473,-1.71548 0.1432,-0.7112 0.269,-1.09974 0.4664,-1.78537 0.071,-0.14738 0.1415,-0.29485 0.2134,-0.44179 0.4483,-0.91689 0.9471,-1.80769 1.4824,-2.6763 0.108,-0.17179 0.2215,-0.33999 0.3388,-0.50559 1.5675,-0.5041 2.9716,-0.84467 3.9553,-0.86382 z" /><path
         style="display:inline;fill:#e6c78a;fill-opacity:1;stroke:none;stroke-width:0.211275;stroke-opacity:1"
         id="path2794"
         d="m -6057.4869,811.37727 c -0.855,1.21832 -3.2503,3.40127 -4.7477,5.52979 -1.731,2.46073 -3.4899,5.81646 -2.5741,6.08424 1.3854,-0.41487 3.3008,-3.80842 4.7721,-6.08873 1.6994,-2.63382 4.0176,-5.14251 6.2828,-4.77669 -1.3415,-1.39028 -1.8312,-2.57779 -3.7331,-0.74861 z"
         sodipodi:nodetypes="cscscc" /><path
         id="path2796"
         style="display:inline;fill:#997a00;fill-opacity:0.36;stroke-width:1.69262"
         d="m -6053.739,809.26387 c -3.5381,12.82982 -6.5056,26.19692 -14.0129,37.44802 -1.7543,0.33356 -1.7708,-0.44852 -2.488,-0.8619 -0.9591,-0.55276 -1.2983,-2.71472 -1.8846,-3.60891 -0.9443,-1.4399 -1.8536,-1.82593 -1.9566,-3.65678 -0.027,-0.47599 -0.027,-0.95474 -0,-1.43119 0.6878,-0.28255 1.3198,-0.67547 1.901,-1.14065 0.177,-0.14783 0.3581,-0.29084 0.5309,-0.44355 1.2155,-1.07429 2.253,-2.33222 3.2623,-3.59613 0.2707,-0.36602 0.55,-0.72591 0.8122,-1.09806 1.4623,-2.07537 2.6994,-4.31065 3.6447,-6.66769 0.1769,-0.48814 0.3704,-0.97058 0.5317,-1.46417 0.602,-1.8433 1.0162,-3.77122 0.8624,-5.72052 -0.031,-0.38336 -0.1155,-0.76014 -0.1734,-1.14023 -0.068,-0.26254 -0.1239,-0.52868 -0.194,-0.79058 1.176,-1.35084 2.3912,-2.66551 3.62,-3.94951 z" /><path
         style="display:inline;fill:#997a00;fill-opacity:0.36;stroke-width:1.69262"
         d="m -6052.3055,808.11607 c -1.6513,13.59696 -4.859,27.04682 -5.0011,40.79432 0.4423,1.06346 1.2408,1.68776 2.1942,2.0977 0.9954,0.42801 2.2216,0.2282 3.3252,0.44455 1.3396,0.26264 2.6039,0.76338 3.7674,0.52365 1.4684,-0.30262 2.6774,-1.15708 3.3265,-2.94618 2.4792,-6.43387 1.9193,-17.64726 2.695,-24.42712 0.2989,-5.3912 -0.1676,-11.03675 -2.8062,-15.86271"
         id="path2798"
         sodipodi:nodetypes="ccsssccc" /><path
         id="path2800"
         style="display:inline;fill:#997a00;fill-opacity:0.36;stroke-width:1.69262"
         d="m -6039.2613,801.37206 c 1.3168,1.261 2.6576,2.63948 3.9958,4.10935 -0.3367,-0.006 -0.6726,-0.0161 -1.0036,-0.0477 -0.4038,0.65106 -0.8955,1.25509 -1.2113,1.95311 -0.1255,0.27733 -0.074,0.60545 -0.083,0.9097 -0.01,0.23062 0.017,0.46093 0.034,0.691 0.067,0.89676 0.2043,1.7869 0.3233,2.67759 0.3923,2.54877 0.8324,5.10681 1.7577,7.52632 0.1929,0.47408 0.3695,0.95477 0.5786,1.42192 1.1663,2.60591 2.7952,4.98097 4.999,6.818 0.4336,0.34797 0.8584,0.70704 1.3005,1.04395 2.2161,1.68848 4.6355,3.08897 6.9153,4.68618 1.4572,0.97714 2.915,1.95571 4.413,2.8694 0.2109,2.63512 -2.4181,3.79659 -5.0889,6.98451 -3.4426,3.89607 -5.2879,5.82989 -7.7921,2.21549 -7.405,-9.45596 -8.7014,-25.036 -12.492,-35.85671 z m 10.2443,11.71305 c -5e-4,0.003 0.01,0.006 0.01,0.009 -1e-4,6.4e-4 -1e-4,9.9e-4 -4e-4,0.003 4e-4,-0.003 -0.01,-0.008 -0.01,-0.0114 z" /><path
         id="path2802"
         style="display:inline;fill:#997a00;fill-opacity:0.36;stroke-width:1.74648"
         d="m -6029.4458,801.00476 c 6.6375,1.35884 11.9946,5.83123 17.2546,9.83022 4.1479,3.38398 8.267,6.84019 12.2648,10.38121 1.8546,2.04712 0.7842,4.68344 -0.8896,6.40322 -1.7424,2.25586 -3.4355,4.83607 -6.0489,6.145 -2.7395,0.90418 -4.6987,-1.90717 -5.9068,-3.93533 -6.6955,-8.81623 -15.8572,-15.61228 -21.5143,-25.24904 1.6768,-1.04615 2.6835,-3.46631 4.8402,-3.57528 z m 15.9573,15.98558 c 1.8715,1.31284 6.5587,2.04555 5.1366,-1.5926 -1.8128,-3.45447 -5.4604,-5.31826 -8.4662,-7.58821 -1.5264,-0.98516 -3.1777,-1.82873 -4.9677,-2.20384 -0.088,-0.0244 -0.1747,-0.0437 -0.2591,-0.0585 -13.8513,-4.09997 5.3417,9.75799 8.5564,11.44315 z"
         sodipodi:nodetypes="cccccccccccccc" /><path
         id="path2804"
         style="display:inline;fill:#997a00;fill-opacity:0.36;stroke-width:1.69262"
         d="m -6027.3806,793.74739 c 1.7836,0.29424 3.073,1.54069 4.6469,2.29432 0,9e-5 0,2.7e-4 -1e-4,3.3e-4 -0.1611,0.19976 -0.097,0.48683 0.1181,0.95879 0.044,0.0965 0.1268,0.16996 0.1903,0.25498 0.2335,0.28103 0.3021,0.37057 0.5627,0.6506 0.671,0.72114 1.4108,1.37549 2.2045,1.95885 0.7356,0.52639 0.9774,0.71134 1.7584,1.2172 1.5321,0.99241 3.1347,1.86868 4.7876,2.64347 1.2236,0.5695 1.5743,0.74464 2.8274,1.27783 1.0191,0.43355 2.0135,0.83128 3.0532,1.21336 0.5078,0.18661 1.0195,0.36274 1.531,0.53878 0.5201,0.179 1.0427,0.35073 1.564,0.52618 1.5803,0.51147 3.161,1.01933 4.7583,1.47625 0.9772,0.27952 2.1403,0.59777 3.1363,0.81851 0.4412,0.0978 0.8874,0.17256 1.3311,0.25887 0.3936,0.0548 0.7852,0.1244 1.1806,0.16405 0.3659,0.0364 0.7364,0.0561 1.1059,0.049 0.5452,0.58138 1.05,1.18363 1.5077,1.80843 0.1574,0.52901 0.049,1.23601 -0.236,2.01076 -0.2711,0.7382 -1.2129,1.41688 -1.7252,2.18229 -0.4292,0.64146 -0.567,2.41505 -1.065,2.95221 -1.0647,1.14852 -2.0191,0.89499 -2.7397,0.75962 -10.28,-1.93093 -21.9401,-17.51055 -31.7563,-21.00669 l 1.0324,-5.03972 c 0.077,0.009 0.1512,0.0197 0.2257,0.0314 z" /><path
         id="path2806"
         style="display:inline;fill:#997a00;fill-opacity:0.36;stroke-width:1.69262"
         d="m -6015.295,789.36137 c 0.091,0.5715 0.1847,1.01339 0.4549,1.82046 0.5881,1.75638 1.6025,3.33617 2.642,4.85195 0.7938,1.01474 1.0588,1.41056 1.9669,2.33844 1.1202,1.14473 2.384,2.12787 3.7129,3.01499 -7.0205,-2.78887 -13.8087,-5.94334 -21.1315,-8.98762 l 0.2036,-3.31331 c 3.4301,1.47857 7.2047,0.31347 10.8837,0.29598 0.391,-0.0308 0.8163,-0.036 1.2675,-0.0209 z" /><path
         id="path2808"
         style="display:inline;fill:#997a00;fill-opacity:0.36;stroke-width:1.69262"
         d="m -6024.1733,787.34172 c 1.0716,0.16825 2.1404,0.35424 3.1986,0.59452 0.8306,0.179 1.6589,0.36915 2.4916,0.53842 0.9609,0.19543 1.9276,0.36363 2.8917,0.54266 0.5078,0.0925 1.0162,0.18224 1.5243,0.27231 0.8318,0.29165 1.6582,0.59947 2.4823,0.91334 -2.1426,-0.33725 -4.2869,-0.67297 -6.4289,-0.63853 l -12.266,-0.31697 c 1.9614,3.84028 -0.086,1.69415 -1.6279,-2.23553 0.2346,-0.20093 0.4902,-0.39573 0.7645,-0.58464 0.1027,0.008 0.2055,0.0152 0.3081,0.0223 1.582,0.1589 3.158,0.37287 4.7316,0.60058 0.6435,0.0961 1.2873,0.19064 1.9301,0.29155 z" /><path
         style="display:inline;fill:#e6c78a;fill-opacity:1;stroke-width:0.233787"
         id="path2810"
         d="m -6058.8589,797.59851 c -1.3448,0.21242 -1.9187,0.91544 -3.2643,1.12278 -1.2006,0.19277 -10.5851,1.15428 -8.7523,2.6722 0.7465,0.59145 7.3109,-1.68839 8.91,-1.92399 l 3.3819,-0.12537 z"
         sodipodi:nodetypes="scccccs" /><path
         id="path2812"
         style="display:inline;fill:#997a00;fill-opacity:0.36;stroke-width:1.69262"
         d="m -6063.4055,798.7093 3.5246,2.86968 c -2.2999,2.4659 -4.9555,3.99681 -7.8492,5.13188 0.21,-0.84666 0.4265,-1.69175 0.6696,-2.52997 0.2848,-0.98199 0.3666,-1.19078 0.6922,-2.15744 0.3586,-1.05532 0.8126,-2.07281 1.3375,-3.0533 0.548,-0.0803 1.0907,-0.16595 1.6253,-0.26085 z m -20.7238,10.28249 c -0.029,0.0176 -0.058,0.0358 -0.088,0.0518 -0.5156,0.2763 -0.2288,-0.054 0.088,-0.0518 z" /><path
         style="display:inline;fill:#f5cd44;fill-opacity:1;stroke-width:0.337035"
         d="m -6061.891,802.74656 c -1.827,-1.32531 -1.8254,-4.43052 -0.01,-5.76509 0.5739,-2.04823 1.5385,-4.13654 3.3383,-5.38244 0.5435,-2.31541 2.934,-3.74975 5.203,-3.84425 1.4344,-1.54296 3.6116,-2.6185 5.7461,-2.14009 2.2142,-0.47612 4.4647,-1.73602 6.7629,-0.9267 2.4028,0.48922 4.9136,-0.55873 7.2631,0.22344 2.1445,0.9314 3.6764,2.78872 5.5922,4.07197 2.0884,1.76353 4.2437,4.11241 4.195,7.01529 -0.5723,2.44773 -3.2936,3.13503 -5.0137,4.57722 -2.1422,1.10737 -2.78,3.962 -5.1639,4.58049 -1.9717,0.16345 -3.1711,1.56529 -4.393,2.85242 -1.8164,0.48172 -3.969,-0.0169 -5.2892,1.65719 -2.2728,1.36257 -4.9709,1.66053 -7.434,2.53682 -2.3102,0.61379 -5.0418,1.15034 -7.1068,-0.41265 -1.3724,-0.84537 -2.6004,-1.91508 -3.6681,-3.12029 -0.8764,-1.92853 0.765,-3.98392 -0.022,-5.92333 z"
         id="path2814"
         sodipodi:nodetypes="ccccccccccccccccccc" /><path
         id="path2816"
         style="display:inline;fill:#f0a60d;fill-opacity:1;stroke-width:0.337035"
         d="m -6061.895,802.93395 c 0.7037,1.8232 -0.3885,3.35464 -0.2314,5.02782 0.6062,1.86313 2.419,2.58808 3.7227,3.71574 1.422,1.05602 3.1226,1.47818 4.6249,1.05434 2.7149,-0.32291 5.2356,-1.30894 7.7876,-2.1362 1.6651,0.0765 2.6187,-1.28666 3.8237,-2.16344 1.2269,-0.91359 2.9515,0.82845 3.9869,-0.65809 1.0545,-0.95177 1.9108,-2.59442 3.5518,-2.36119 2.5236,-0.2334 3.3499,-3.25012 5.3246,-4.45565 1.6384,-1.37632 3.71,-2.1545 5.1327,-3.81385 1.0867,-1.97068 -0.3646,-4.41789 -1.7038,-6.09072 -1.3934,-1.70927 -2.0943,1.38552 -3.3891,1.64649 -1.4379,1.22152 -1.9993,5.37335 -4.0298,5.61282 -1.6415,0.0358 -3.2862,0.29712 -4.6297,1.23801 -1.4213,0.73747 -2.3335,2.42672 -4.058,2.51275 -2.3633,0.20761 -4.9564,-0.19972 -6.9955,1.1286 -1.3708,0.8355 -2.8298,1.75595 -4.5609,1.48741 -1.8654,0.29092 -3.6401,-0.0111 -5.6844,-0.35635 -0.6578,-0.93693 -1.7215,-1.31812 -2.6722,-1.38839 z"
         sodipodi:nodetypes="scccccccccccccccccss" /><path
         d="m -6035.4908,799.8003 c -0.8244,0.0718 -1.4549,1.50384 -0.074,2.24073 2.0656,1.10223 1.4348,-2.35986 0.074,-2.24073 v 0"
         style="display:inline;fill:#b88729;fill-opacity:1;fill-rule:evenodd;stroke:none;stroke-width:0.00673591"
         id="path2818" /><path
         d="m -6026.8056,792.26753 c -0.8244,0.0718 -1.4548,1.50391 -0.074,2.24075 2.0655,1.10219 1.4348,-2.35987 0.074,-2.24075 v 0"
         style="display:inline;fill:#b88729;fill-opacity:1;fill-rule:evenodd;stroke:none;stroke-width:0.00673591"
         id="path2820" /><path
         d="m -6057.8437,795.65774 c -0.8243,0.0718 -1.4548,1.5039 -0.074,2.24073 2.0654,1.10221 1.4348,-2.35986 0.074,-2.24073 v 0"
         style="display:inline;fill:#d29b30;fill-opacity:1;fill-rule:evenodd;stroke:none;stroke-width:0.00673591"
         id="path2822" /><path
         d="m -6027.9109,799.40214 c -0.2833,0.91675 -1.8208,1.25612 -2.1644,-0.49997 -0.5155,-2.63004 2.6355,-1.0084 2.1644,0.49997 v 0"
         style="display:inline;fill:#b88729;fill-opacity:1;fill-rule:evenodd;stroke:none;stroke-width:0.0050775"
         id="path2824" /><path
         d="m -6042.8023,798.82428 c 0.1978,-0.95628 1.6772,-1.46931 2.1684,0.26409 0.7359,2.59612 -2.4991,1.3099 -2.1684,-0.26409 v 0"
         style="display:inline;fill:#d29b30;fill-opacity:1;fill-rule:evenodd;stroke:none;stroke-width:0.0050775"
         id="path2826" /><path
         d="m -6030.9097,795.45734 c -0.3806,1.21246 -2.4176,1.67142 -2.8622,-0.64486 -0.6665,-3.46906 3.4949,-1.35009 2.8622,0.64486 v 0"
         style="display:inline;fill:#d29b30;fill-opacity:1;fill-rule:evenodd;stroke:none;stroke-width:0.00671257"
         id="path2828" /><path
         d="m -6027.314,791.04659 c -0.2831,0.91676 -1.8207,1.25602 -2.1646,-0.49995 -0.5155,-2.63002 2.6357,-1.0084 2.1646,0.49995 v 0"
         style="display:inline;fill:#d29b30;fill-opacity:1;fill-rule:evenodd;stroke:none;stroke-width:0.0050775"
         id="path2830" /><path
         d="m -6058.6649,801.78567 c -0.257,0.8325 -1.6532,1.14063 -1.9654,-0.45396 -0.4682,-2.38826 2.3933,-0.91565 1.9654,0.45396 v 0"
         style="display:inline;fill:#d29b30;fill-opacity:1;fill-rule:evenodd;stroke:none;stroke-width:0.00461071"
         id="path2832" /><path
         d="m -6055.7745,801.55642 c -0.1997,0.64598 -1.2828,0.88497 -1.5249,-0.35228 -0.3628,-1.853 1.8569,-0.7105 1.5249,0.35228 v 0"
         style="display:inline;fill:#d29b30;fill-opacity:1;fill-rule:evenodd;stroke:none;stroke-width:0.00357746"
         id="path2834" /></g></g></svg>
