<?xml version="1.0" encoding="UTF-8" standalone="no"?>
<!-- Created with Inkscape (http://www.inkscape.org/) -->

<svg
   width="94.689926mm"
   height="167.58316mm"
   viewBox="0 0 94.689926 167.58316"
   version="1.1"
   id="svg5"
   xml:space="preserve"
   inkscape:version="1.2 (dc2aedaf03, 2022-05-15)"
   sodipodi:docname="large_3.svg"
   xmlns:inkscape="http://www.inkscape.org/namespaces/inkscape"
   xmlns:sodipodi="http://sodipodi.sourceforge.net/DTD/sodipodi-0.dtd"
   xmlns="http://www.w3.org/2000/svg"
   xmlns:svg="http://www.w3.org/2000/svg"><sodipodi:namedview
     id="namedview7"
     pagecolor="#505050"
     bordercolor="#eeeeee"
     borderopacity="1"
     inkscape:showpageshadow="0"
     inkscape:pageopacity="0"
     inkscape:pagecheckerboard="0"
     inkscape:deskcolor="#505050"
     inkscape:document-units="mm"
     showgrid="false"
     inkscape:zoom="1.8101934"
     inkscape:cx="26.240291"
     inkscape:cy="147.77427"
     inkscape:window-width="3200"
     inkscape:window-height="1271"
     inkscape:window-x="2391"
     inkscape:window-y="-9"
     inkscape:window-maximized="1"
     inkscape:current-layer="layer3"
     showguides="true" /><defs
     id="defs2" /><g
     inkscape:groupmode="layer"
     id="layer3"
     inkscape:label="Daisy1"
     style="display:inline"
     transform="translate(5808.2447,-782.58908)"><path
       d="m -5764.4558,949.91763 c -9.2944,1.33454 -3.3686,-2.38756 0.3302,-15.67805 4.4788,-16.08563 8.5874,-26.27468 9.5781,-37.61667 0.057,-0.6575 0.1359,-1.3473 0.2313,-2.06407 -0.2867,-1.08684 -0.6342,-2.39809 -1.0471,-3.71912 -2.1564,-1.78336 -3.9134,-2.62251 -4.2107,-2.6818 -6.1862,-1.22571 -9.8821,-1.89896 -12.1218,-10.00444 7.4975,-2.02507 8.6804,5.14896 12.7328,7.81799 0.8946,0.59073 1.724,1.17916 2.4934,1.76013 -0.053,-0.11855 -0.1022,-0.23795 -0.1554,-0.35355 -1.8825,-4.23399 -4.3361,-6.68162 -4.6965,-6.88953 -5.4528,-3.15769 -8.7358,-4.99059 -8.2337,-13.38353 7.7482,0.50588 6.5495,7.67913 9.5219,11.51084 3.788,4.88851 5.5062,9.00318 6.295,12.20363 3.8084,-22.62088 2.2758,-25.84461 -4.1979,-45.95559 -4.3565,-13.53516 -4.9539,-16.51795 -3.7912,-14.31799 2.1767,4.1184 10.3939,22.39646 11.9199,31.5625 0.644,3.86696 1.4073,8.46127 1.318,13.68977 1.113,-2.66828 2.9197,-5.78995 5.8785,-9.28764 3.1344,-3.70258 2.2427,-10.91863 10.0044,-11.09427 0.1426,8.4057 -3.2132,10.09675 -8.7982,13.02026 -0.3701,0.19134 -2.9265,2.5332 -4.9877,6.68163 -0.4488,0.90145 -0.8623,1.91847 -1.2421,2.94301 1.0771,-0.57193 2.2532,-1.13639 3.5412,-1.68129 4.4652,-1.89295 6.9255,-8.73972 13.9345,-5.39363 -3.6658,7.56655 -7.4218,7.56355 -13.7267,7.65288 -0.3039,0.007 -2.16,0.50513 -4.5807,1.85241 -0.096,0.29124 -0.1853,0.57494 -0.2747,0.85268 -1.661,23.45701 -10.8203,54.69528 -15.7148,68.57344 v 0"
       style="display:inline;fill:#4f5902;fill-opacity:1;fill-rule:evenodd;stroke:none;stroke-width:0.00750579"
       id="path1567"
       inkscape:export-filename="minhaFlor1.svg"
       inkscape:export-xdpi="96"
       inkscape:export-ydpi="96" /><path
       style="display:inline;fill:#fff3cf;fill-opacity:1;stroke:none;stroke-width:0.260439"
       d="m -5768.9072,818.55921 c -4.3705,-3.52289 -11.4934,-9.68721 -17.2564,-14.20033 -4.3054,-3.37175 -8.0218,-5.56258 -5.9161,-7.83964 0.2797,-0.22615 2.1832,-0.52367 3.2635,-1.44838 1.1787,-1.00894 1.5419,-2.63828 1.8806,-2.56092 6.9552,0.0286 12.959,9.47271 16.1275,15.38169 1.7436,2.84759 3.1834,5.90122 5.1547,8.61301"
       id="path15186"
       sodipodi:nodetypes="cscsccc"
       inkscape:transform-center-x="19.687941"
       inkscape:transform-center-y="-20.793093" /><path
       style="display:inline;fill:#fff3cf;fill-opacity:1;stroke:none;stroke-width:0.30704"
       d="m -5770.8253,824.06655 c -8.889,-1.78914 -18.2174,-1.97601 -26.6667,-5.36741 -5.0852,-2.0412 -7.3106,-3.38316 -8.0853,-4.81767 -0.6714,-1.2429 0.9664,-1.79695 1.5563,-3.69378 0.1365,-0.4389 0.2476,-3.85414 0.643,-4.10964 6.6804,-1.69983 17.2673,4.36287 23.5089,7.37077 2.8374,1.32904 5.6449,2.71341 8.4913,4.02403 1.7539,0.80751 4.6476,2.92455 6.5654,2.2053"
       id="path15188"
       sodipodi:nodetypes="csssccsc"
       inkscape:transform-center-x="26.42032"
       inkscape:transform-center-y="-11.446564" /><path
       style="display:inline;fill:#fff3cf;fill-opacity:1;stroke:none;stroke-width:0.299516"
       d="m -5772.5501,830.59171 c -13.0843,2.15767 -20.81,9.28231 -30.9561,10.38399 -1.7769,0.19298 -1.5823,-2.30704 -2.2905,-4.66538 -0.5588,-1.86107 -2.2958,-3.44006 -1.7523,-4.87686 0.4387,-1.15942 4.0515,-2.01614 5.1277,-2.52336 3.5956,-1.69482 7.1253,-2.57906 10.8934,-3.46876 1.5203,-0.35895 4.7687,-1.15473 6.0908,-1.26482 2.5466,-0.21205 6.3036,-0.11698 9.0939,-0.11558 1.6283,8.2e-4 3.5168,0.28939 5.186,-0.0259"
       id="path15190"
       sodipodi:nodetypes="cssssccsc"
       inkscape:transform-center-x="29.715628"
       inkscape:transform-center-y="6.7464279" /><path
       style="display:inline;fill:#fff3cf;fill-opacity:1;stroke:none;stroke-width:0.314716"
       d="m -5764.9207,818.77187 c -2.2976,-7.25256 -6.2274,-14.25259 -6.8931,-21.75762 0.1351,-2.77496 -0.9157,-9.72554 0.8324,-12.70318 0.6332,-1.07847 1.7348,-0.9648 3.2917,-0.61382 0.6849,0.88503 4.8128,-0.0664 5.1866,0.0364 3.9387,2.68291 2.788,11.25639 2.2713,14.81248 -1.0567,6.87591 -2.6007,14.59255 -0.071,20.99896"
       id="path15192"
       sodipodi:nodetypes="ccscccc"
       inkscape:transform-center-x="6.4761249"
       inkscape:transform-center-y="-24.287712" /><path
       style="display:inline;fill:#fff3cf;fill-opacity:1;stroke:none;stroke-width:0.274882"
       d="m -5752.088,815.21854 c 0.092,-0.49417 0.087,-1.02407 0.2773,-1.4825 0.1944,-0.46776 0.5629,-0.84071 0.8588,-1.2516 2.0497,-2.84718 2.4835,-3.52328 4.5569,-5.9198 3.6233,-4.18796 7.874,-8.61342 13.2211,-11.02703 0.9187,-0.4147 1.9705,-0.5922 2.9828,-0.82532 1.1242,-0.25886 2.3172,-0.49997 3.4501,-0.3836 1.0108,0.10389 0.9263,1.94886 1.7493,2.86356 0.7844,0.87183 4.0442,4.55572 3.1074,5.25893 -7.6892,5.77186 -16.2311,7.66019 -19.4675,10.79403 -1.942,1.88032 -4.4226,3.77804 -6.7541,5.12511 -0.9691,0.55992 -2.0427,1.02666 -2.8151,1.7964 -0.9788,0.97523 0.7629,0.73209 0.9283,0.72492"
       id="path15194"
       sodipodi:nodetypes="cscsssssssssc"
       inkscape:transform-center-x="-22.37423"
       inkscape:transform-center-y="-18.112146" /><path
       style="display:inline;fill:#fff3cf;fill-opacity:1;stroke:none;stroke-width:0.2721"
       d="m -5760.0675,819.00114 c 1.501,-7.11477 1.6952,-14.64674 4.5028,-21.34423 3.7792,-8.68838 5.3519,-12.10636 7.6315,-12.89939 1.2944,-0.45031 1.5426,0.99731 3.8265,1.75534 0.9352,0.3104 3.2724,-0.37008 4.4997,0.0285 4.7683,4.25397 -11.6149,21.31454 -14.2694,30.38528"
       id="path15196"
       sodipodi:nodetypes="ccsscc"
       inkscape:transform-center-x="-10.144652"
       inkscape:transform-center-y="-23.931223" /><path
       style="display:inline;fill:#fff3cf;fill-opacity:1;stroke:none;stroke-width:0.299516"
       d="m -5744.8904,819.40148 c 11.8784,-1.28287 18.2577,-6.20403 29.6834,-4.09892 1.941,0.35759 0.186,2.98062 -0.2257,5.63882 -0.2552,1.64876 1.3237,3.31188 0.6351,4.45391 -0.6401,1.06173 -2.2794,0.72692 -3.4292,1.03249 -10.2813,-1.04556 -14.188,-1.74674 -24.1067,0.0799 -1.6015,-0.29345 -3.4073,-0.91668 -5.1061,-0.90652"
       id="path15198"
       sodipodi:nodetypes="csssccc"
       inkscape:transform-center-x="-28.352469"
       inkscape:transform-center-y="-5.5832105" /><path
       style="display:inline;fill:#fff3cf;fill-opacity:1;stroke:none;stroke-width:0.274882"
       d="m -5771.5731,831.86359 c -0.5018,-0.0316 -1.0141,-0.16702 -1.5053,-0.0948 -0.5011,0.0737 -0.9531,0.33973 -1.424,0.52571 -3.2629,1.28892 -4.0247,1.54361 -6.8566,2.96603 -4.9486,2.48558 -8.1226,7.11415 -11.774,11.70609 -0.6274,0.78902 -1.0574,1.76518 -1.5316,2.68934 -0.9968,1.94227 -1.0821,3.09606 0.3703,5.26362 0.6527,0.97429 0.9532,3.57643 2.1245,3.5655 6.4857,-0.0607 12.6949,-9.50921 17.4146,-15.75886 1.629,-2.15706 3.3833,-4.29918 5.261,-6.22918 0.7804,-0.80212 1.4963,-1.72854 2.4319,-2.28861 1.1855,-0.70963 0.5227,0.91917 0.4752,1.07776"
       id="path15200"
       sodipodi:nodetypes="cscssssssssc"
       inkscape:transform-center-x="21.55131"
       inkscape:transform-center-y="19.223277" /><path
       style="display:inline;fill:#fff3cf;fill-opacity:1;stroke:none;stroke-width:0.260355"
       d="m -5764.0821,831.15932 c -3.448,5.83807 -8.0811,11.04811 -10.3441,17.51429 -2.951,8.43167 -3.887,13.34862 0.7926,16.31759 0.2209,0.14023 0.9472,0.68334 1.2917,0.6967 1.2518,0.0486 3.6383,-4.02214 3.9817,-4.55641 3.3399,-6.13801 4.9078,-10.53502 6.2398,-16.63534 0.5328,-2.37317 1.2224,-4.69938 1.7953,-7.06522 0.3277,-1.35269 0.4049,-3.75313 1.4312,-4.70484"
       id="path15202"
       sodipodi:nodetypes="csssccsc"
       inkscape:transform-center-x="8.6067216"
       inkscape:transform-center-y="22.417966" /><path
       style="display:inline;fill:#fff3cf;fill-opacity:1;stroke:none;stroke-width:0.26329"
       d="m -5751.3578,835.61747 c -2.718,-14.96951 23.4614,13.33754 22.1443,21.14599 -0.1084,0.64193 -1.8048,0.42418 -3.0136,1.03556 -1.3841,0.70002 -2.335,2.17113 -3.0514,1.86737 -4.7594,-2.01817 -7.5424,-3.66972 -10.1041,-8.26405 -1.166,-2.09118 -2.0467,-4.33748 -3.1963,-6.44752 -1.4794,-2.71547 -2.9835,-5.50113 -4.7419,-8.06237 -0.4215,-0.61402 -1.0545,-1.50673 -1.0569,-0.48216"
       id="path15204"
       sodipodi:nodetypes="csscsssc"
       inkscape:transform-center-x="-17.582091"
       inkscape:transform-center-y="19.370547" /><path
       style="display:inline;fill:#fff3cf;fill-opacity:1;stroke:none;stroke-width:0.304046"
       d="m -5745.5516,825.8306 c 8.5488,2.9904 13.4089,2.16404 21.2914,6.64545 8.8549,5.03421 7.5283,4.99623 5.6817,8.77726 -0.1984,0.40611 -0.2926,2.82044 -0.7211,3.01222 -1.6298,0.72944 -4.7033,-0.75653 -6.2543,-1.2335 -5.9289,-1.82355 -7.3418,-2.26331 -12.5654,-5.63156 -2.6198,-1.68922 -5.2019,-3.42784 -7.8334,-5.1005 -1.6213,-1.03058 -4.1835,-3.4916 -6.187,-3.06544"
       id="path15206"
       sodipodi:nodetypes="cssscssc"
       inkscape:transform-center-x="-24.745337"
       inkscape:transform-center-y="9.4891073" /><path
       style="display:inline;fill:#fff3cf;fill-opacity:1;stroke:none;stroke-width:0.271075"
       d="m -5755.8755,836.22806 c 8.1487,18.27459 8.0742,10.77673 8.7607,28.08122 0.02,0.48329 -2.56,1.27849 -3.1193,1.32228 -0.8424,0.0659 -3.8218,-1.14414 -4.3521,-1.6089 -3.9132,-3.43025 -2.8457,-5.87047 -3.934,-10.348 -0.6342,-2.60867 -1.2744,-5.19715 -1.2356,-7.86433 0.047,-3.20644 0.5073,-6.41549 0.2553,-9.63489 -7e-4,-0.0665 -0.3279,-4.47456 -1.0006,-2.78091"
       id="path15208"
       sodipodi:nodetypes="csscsscc"
       inkscape:transform-center-x="-5.1984001"
       inkscape:transform-center-y="23.001707" /><path
       style="display:inline;fill:#e6c78a;fill-opacity:1;stroke:none;stroke-width:0.164669;stroke-opacity:1"
       id="path15210"
       d="m -5767.1694,815.75865 c -2.0682,-2.83549 -7.3035,-11.62506 -8.1118,-11.145 -1.137,2.03636 6.3084,9.64546 6.5066,11.49653 1.5618,0.35358 2.9207,1.92898 1.6052,-0.35158 z"
       sodipodi:nodetypes="cccc"
       inkscape:transform-center-x="11.537234"
       inkscape:transform-center-y="-15.544265" /><path
       style="display:inline;fill:#e6c78a;fill-opacity:1;stroke:none;stroke-width:0.180615;stroke-opacity:1"
       id="path15212"
       d="m -5768.7115,816.38078 c -2.1265,-4.01599 -10.5713,-12.8931 -11.7748,-11.66922 -0.3057,1.11166 2.5804,2.71218 4.6903,5.07919 2.5285,2.83626 5.1677,5.97663 5.5233,7.13083 1.6878,0.27579 3.464,1.97739 1.561,-0.54095 z"
       sodipodi:nodetypes="ccsccc"
       inkscape:transform-center-x="14.717571"
       inkscape:transform-center-y="-15.158354" /><path
       style="display:inline;fill:#e6c78a;fill-opacity:1;stroke:none;stroke-width:0.229973;stroke-opacity:1"
       id="path15214"
       d="m -5767.6205,820.49081 c -1.7105,-0.76471 -4.7048,-2.83196 -7.6928,-4.17087 -3.4546,-1.54778 -6.8435,-2.28654 -7.3094,-1.56339 0.4931,1.14402 3.9245,2.01132 7.1366,3.3384 3.7099,1.53283 7.1865,3.55777 6.4671,5.36441 2.1409,-0.99825 3.9161,-1.322 1.3985,-2.96855 z"
       sodipodi:nodetypes="cscscc"
       inkscape:transform-center-x="15.650539"
       inkscape:transform-center-y="-7.402803" /><path
       style="display:inline;fill:#e6c78a;fill-opacity:1;stroke:none;stroke-width:0.229973;stroke-opacity:1"
       id="path15216"
       d="m -5771.1734,820.41063 c -1.8278,-0.41169 -5.1716,-1.84658 -8.3654,-2.56867 -3.6921,-0.83483 -8.6794,-1.48723 -8.9932,-0.6863 0.7095,1.02401 5.7637,1.79409 9.1745,2.46045 3.9398,0.76957 7.7479,2.06771 7.3998,3.98083 1.9015,-1.40159 3.5778,-2.06902 0.7843,-3.18631 z"
       sodipodi:nodetypes="cscscc"
       inkscape:transform-center-x="20.258167"
       inkscape:transform-center-y="-6.1769524" /><path
       style="display:inline;fill:#e6c78a;fill-opacity:1;stroke:none;stroke-width:0.229973;stroke-opacity:1"
       id="path15218"
       d="m -5772.8114,824.89226 c -3.3183,0.61936 -16.8885,3.07998 -16.9233,5.22925 4.8015,0.2549 15.6906,-6.90078 17.8248,-2.07409 0.9544,-2.16083 2.0781,-3.57265 -0.9015,-3.15514 z"
       sodipodi:nodetypes="ccccc"
       inkscape:transform-center-x="20.62004"
       inkscape:transform-center-y="1.7094645" /><path
       style="display:inline;fill:#e6c78a;fill-opacity:1;stroke:none;stroke-width:0.241203;stroke-opacity:1"
       id="path15220"
       d="m -5764.8792,814.41889 c 0.2238,-1.96301 -1.0407,-5.41497 -0.6525,-8.84581 0.4487,-3.96628 1.8999,-9.68118 2.7959,-9.70808 0.7633,1.06955 -0.5786,6.30755 -1.0963,9.9343 -0.5981,4.18908 0.3555,8.6393 2.3571,8.97427 -2.0327,1.39074 -3.2659,2.81909 -3.4042,-0.35467 z"
       sodipodi:nodetypes="cscsccc"
       inkscape:transform-center-x="4.1799032"
       inkscape:transform-center-y="-19.687895" /><path
       style="display:inline;fill:#e6c78a;fill-opacity:1;stroke:none;stroke-width:0.229973;stroke-opacity:1"
       id="path15222"
       d="m -5751.6018,816.84136 c 1.3694,-1.27871 2.558,-4.54885 4.9494,-6.78546 2.7647,-2.58575 7.34,-5.81566 8.0156,-5.28301 -0.095,1.24214 -4.2972,4.19526 -6.9041,6.49345 -3.0112,2.65449 -5.0414,6.45343 -3.7744,7.92858 -2.3491,-0.24893 -4.1329,0.022 -2.2865,-2.35354 z"
       sodipodi:nodetypes="cscsccc"
       inkscape:transform-center-x="-13.774655"
       inkscape:transform-center-y="-13.768472" /><path
       style="display:inline;fill:#e6c78a;fill-opacity:1;stroke:none;stroke-width:0.23652;stroke-opacity:1"
       id="path15224"
       d="m -5756.0083,814.02532 c 0.9172,-1.70267 1.0331,-5.32941 2.6336,-8.30634 1.8503,-3.44155 5.2429,-8.09337 6.0617,-7.77601 0.2999,1.26545 -2.8205,5.52461 -4.6094,8.63058 -2.0662,3.58749 -2.8267,8.0049 -1.141,9.07378 -2.3424,0.49114 -3.9765,1.32166 -2.9449,-1.622 z"
       sodipodi:nodetypes="cscsccc"
       inkscape:transform-center-x="-7.7412447"
       inkscape:transform-center-y="-18.733053" /><path
       style="display:inline;fill:#e6c78a;fill-opacity:1;stroke:none;stroke-width:0.169357;stroke-opacity:1"
       id="path15226"
       d="m -5757.8842,814.85228 c 1.1142,-3.46626 5.2624,-13.20743 4.3894,-13.6094 -2.3497,0.25109 -4.2196,11.17059 -5.6275,12.45018 0.6315,1.54523 0.1365,3.65012 1.2381,1.15921 z"
       sodipodi:nodetypes="cccc"
       inkscape:transform-center-x="-3.3008439"
       inkscape:transform-center-y="-17.145479" /><path
       style="display:inline;fill:#e6c78a;fill-opacity:1;stroke:none;stroke-width:0.210347;stroke-opacity:1"
       id="path15228"
       d="m -5747.009,821.99382 c 1.66,-0.15674 4.2812,-1.89514 7.1819,-2.17156 3.3533,-0.31953 8.3297,-0.07 8.5128,0.71578 -0.7453,0.86648 -5.3086,0.62734 -8.3941,0.82474 -3.5641,0.22806 -7.0648,1.87218 -6.9816,3.69902 -1.5127,-1.54291 -2.9129,-2.37345 -0.319,-3.06796 z"
       sodipodi:nodetypes="cscsccc"
       inkscape:transform-center-x="-19.344016"
       inkscape:transform-center-y="-3.855495" /><path
       id="path15370"
       style="display:inline;fill:#9b7500;fill-opacity:0.357422;stroke:none;stroke-width:0.260439"
       inkscape:transform-center-x="20.050082"
       inkscape:transform-center-y="-20.267129"
       d="m -5792.1107,798.1149 c 3e-4,0.002 -0.01,0.0237 0,0.0529 0.01,-0.002 0.01,-0.003 0.014,-0.004 -0.01,-0.0315 -0.019,-0.0509 -0.018,-0.0481 z m 18.2567,4.63144 c 0.07,0.27634 0.1392,0.56697 0.2103,0.89673 0.3986,1.86999 0.5867,3.88434 0.3962,5.79227 -0.063,0.62896 -0.2011,1.24809 -0.3017,1.87211 -0.186,0.54735 -0.3328,1.10973 -0.5577,1.64228 -0.1351,0.3196 -0.2905,0.62678 -0.4597,0.92553 2.0967,1.75409 4.0855,3.4148 5.66,4.68395 l 3.2537,-2.05465 c -1.9713,-2.71179 -3.4112,-5.7653 -5.1548,-8.61288 -0.8311,-1.54976 -1.8588,-3.34295 -3.0459,-5.1454 z" /><path
       style="display:inline;fill:#e6c78a;fill-opacity:1;stroke:none;stroke-width:0.198908;stroke-opacity:1"
       id="path15230"
       d="m -5746.5332,823.64428 c 5.116,-1.5994 19.8848,-2.65203 20.0368,-0.93676 -0.5895,1.03577 -4.5124,0.32141 -8.3195,0.69601 -4.5618,0.44889 -9.4647,1.05213 -10.699,1.68123 -1.7761,-0.91256 -4.7524,-0.81517 -1.0183,-1.44047 z"
       sodipodi:nodetypes="ccsccc"
       inkscape:transform-center-x="-21.81594"
       inkscape:transform-center-y="-2.7737365" /><path
       id="path15372"
       style="display:inline;fill:#9b7500;fill-opacity:0.357422;stroke:none;stroke-width:0.30704"
       inkscape:transform-center-x="26.573488"
       inkscape:transform-center-y="-12.206902"
       d="m -5783.8889,811.45439 c 20.1403,13.36541 -3.0236,9.06172 -13.5789,7.25377 8.4429,3.38218 17.7618,3.5708 26.6425,5.35823 l 6.013,-4.38817 c -1.9179,0.71925 -4.8115,-1.39776 -6.5654,-2.20526 -2.8463,-1.31064 -5.6539,-2.69513 -8.4913,-4.02417 -1.1984,-0.57755 -2.5592,-1.26821 -4.0198,-1.99441 z"
       sodipodi:nodetypes="ccccscsc" /><path
       style="display:inline;fill:#e6c78a;fill-opacity:1;stroke:none;stroke-width:0.241295;stroke-opacity:1"
       id="path15232"
       d="m -5771.5232,832.17461 c -1.6183,1.07005 -5.0442,2.48777 -7.8734,4.35521 -3.271,2.15895 -5.8451,4.76458 -5.5277,5.63866 1.2184,0.26895 3.9219,-2.29473 6.872,-4.37228 3.4074,-2.39964 7.0796,-4.28032 8.1316,-2.49941 0.4336,-2.5622 1.204,-4.37111 -1.6025,-3.12218 z"
       sodipodi:nodetypes="cscscc"
       inkscape:transform-center-x="17.889165"
       inkscape:transform-center-y="11.085641" /><path
       id="path15374"
       style="display:inline;fill:#9b7500;fill-opacity:0.357422;stroke:none;stroke-width:0.299516"
       inkscape:transform-center-x="29.825428"
       inkscape:transform-center-y="6.0746325"
       d="m -5776.4283,824.06033 c -0.08,0.16409 -0.1706,0.33599 -0.2829,0.52702 -0.2116,0.3601 -0.4478,0.70748 -0.7093,1.03312 -0.2411,0.30014 -0.5166,0.57166 -0.7942,0.83846 -0.7387,0.71011 -1.2238,1.04679 -2.0469,1.68267 -1.1638,0.79887 -1.5635,1.11011 -2.8279,1.81756 -0.5299,0.29654 -1.0724,0.57025 -1.6184,0.83609 -1.1411,0.55555 -2.56,1.18831 -3.7605,1.58307 -0.6353,0.20888 -1.291,0.34893 -1.9366,0.52339 -0.7188,0.12245 -1.4312,0.29156 -2.1565,0.36795 -1.3334,0.14042 -2.7948,0.0731 -4.1276,-0.017 -2.1677,-0.14648 -4.3175,-0.44679 -6.4531,-0.84362 -0.5192,-0.10302 -1.0399,-0.19741 -1.5585,-0.30319 -0.6889,-0.029 -1.2538,-0.17628 -1.6953,-0.40006 -0.3811,-0.0995 -0.7661,-0.20527 -1.1349,-0.31059 -0.01,0.0132 -0.013,0.0253 -0.018,0.0382 -0.5435,1.4368 1.1935,3.01577 1.7522,4.87684 0.7083,2.35834 0.5138,4.85828 2.2907,4.66536 10.146,-1.10166 17.8717,-8.22616 30.956,-10.38379 l 1.3928,-6.55683 c -1.6693,0.31523 -3.5577,0.0267 -5.186,0.0259 -0.026,2.4e-4 -0.059,-5.2e-4 -0.085,-4.8e-4 z" /><path
       style="display:inline;fill:#e6c78a;fill-opacity:1;stroke:none;stroke-width:0.22091;stroke-opacity:1"
       id="path15234"
       d="m -5772.788,835.02365 c -1.2058,1.36693 -4.0273,3.61197 -6.1365,5.99928 -2.4384,2.75988 -4.0699,5.62574 -3.4895,6.18723 1.2486,-0.20692 3.017,-3.08425 5.1748,-5.67317 2.4924,-2.99037 5.4021,-5.6731 6.9713,-4.6662 -0.3989,-2.10782 -0.2366,-3.75324 -2.5201,-1.84714 z"
       sodipodi:nodetypes="cscscc"
       inkscape:transform-center-x="17.070668"
       inkscape:transform-center-y="14.803291" /><path
       id="path15376"
       style="display:inline;fill:#9b7500;fill-opacity:0.357422;stroke:none;stroke-width:0.314716"
       inkscape:transform-center-x="5.5500122"
       inkscape:transform-center-y="-24.727144"
       d="m -5764.8849,803.02337 c 0.1312,1.79155 -3.6659,5.72465 -4.7352,3.20609 1.477,4.19463 3.3636,8.32597 4.6993,12.54246 l 4.6181,0.77327 c -1.6675,-4.22282 -1.5643,-9.01496 -0.9986,-13.76021 -5.0938,2.38503 -0.3223,-3.91234 -3.5836,-2.76161 z"
       sodipodi:nodetypes="cccccc" /><path
       style="display:inline;fill:#e6c78a;fill-opacity:1;stroke:none;stroke-width:0.211684;stroke-opacity:1"
       id="path15236"
       d="m -5762.8215,832.72593 c -0.6968,1.57319 -2.3205,3.81928 -3.5402,6.5676 -1.41,3.17726 -3.7049,7.91827 -3.0219,8.31387 1.066,-0.48631 2.4546,-4.67747 3.6607,-7.62775 1.3932,-3.40773 3.9978,-6.68105 5.6987,-6.09488 -0.96,-1.89977 -5.5305,-1.35031 -7.0446,0.98377 z"
       sodipodi:nodetypes="cscsccc"
       inkscape:transform-center-x="5.4798981"
       inkscape:transform-center-y="14.160806" /><path
       id="path15378"
       style="display:inline;fill:#9b7500;fill-opacity:0.357422;stroke:none;stroke-width:0.274882"
       inkscape:transform-center-x="-21.870761"
       inkscape:transform-center-y="-17.705261"
       d="m -5750.1965,811.4332 c -0.2416,0.3369 -0.4542,0.6331 -0.7553,1.05137 -0.2958,0.41089 -0.6646,0.78387 -0.859,1.25164 -0.1905,0.45843 -0.1849,0.98816 -0.2773,1.48234 l 1.6683,4.51651 c 0.7003,-0.52975 1.5402,-0.91766 2.3138,-1.36463 2.3316,-1.34709 4.8122,-3.24501 6.7542,-5.12532 0.396,-0.38349 0.8723,-0.74795 1.416,-1.10354 -5.7925,2.62309 -10.3611,0.23758 -10.2607,-0.70837 z m -0.2233,8.30186 c -0.1771,0.13386 -0.3456,0.27647 -0.5013,0.43171 -0.9788,0.97523 0.7631,0.73187 0.9284,0.72473 z"
       sodipodi:nodetypes="cssccsscccscc" /><path
       style="display:inline;fill:#e6c78a;fill-opacity:1;stroke:none;stroke-width:0.211684;stroke-opacity:1"
       id="path15238"
       d="m -5763.6882,835.95571 c -0.345,1.67017 -1.2311,4.39959 -1.8365,7.31786 -0.7,3.3737 -2.1573,8.22816 -1.4001,8.47519 0.9435,-0.68773 2.3637,-5.12259 2.9123,-8.2345 0.6331,-3.59436 1.5266,-7.22265 3.3265,-6.99546 -1.3552,-1.65381 -2.0175,-3.13785 -3.0022,-0.56309 z"
       sodipodi:nodetypes="cscsccc"
       inkscape:transform-center-x="4.6255573"
       inkscape:transform-center-y="17.150809" /><path
       id="path15380"
       style="display:inline;fill:#9b7500;fill-opacity:0.357422;stroke:none;stroke-width:0.2721"
       inkscape:transform-center-x="-9.7443554"
       inkscape:transform-center-y="-24.529094"
       d="m -5758.5063,809.44566 c -0.4903,3.19474 -0.8989,6.41564 -1.5612,9.55546 l 6.1909,-2.07464 c 0.7305,-2.49599 2.5025,-5.59809 4.5852,-8.87074 -3.2536,2.98638 -6.1453,1.92464 -9.2149,1.38994 z"
       sodipodi:nodetypes="sccccs" /><path
       style="display:inline;fill:#e6c78a;fill-opacity:1;stroke:none;stroke-width:0.213556;stroke-opacity:1"
       id="path15240"
       d="m -5751.6503,831.00685 c 1.2975,1.30289 4.2699,2.32135 6.5387,4.5963 2.6231,2.63 6.0675,7.03718 5.7134,7.74044 -1.0757,-0.0303 -4.2276,-4.07876 -6.5815,-6.56605 -2.7187,-2.87298 -6.2687,-4.70538 -7.3398,-3.36163 -0.1386,-2.36198 -0.6372,-4.1317 1.6692,-2.40908 z"
       sodipodi:nodetypes="cscsccc"
       inkscape:transform-center-x="-12.936334"
       inkscape:transform-center-y="10.688716" /><path
       id="path15382"
       style="display:inline;fill:#9b7500;fill-opacity:0.357422;stroke:none;stroke-width:0.299516"
       inkscape:transform-center-x="-28.611092"
       inkscape:transform-center-y="-4.0146638"
       d="m -5725.6496,815.19262 c 15.6547,2.11987 2.2874,7.33847 -1.5697,10.35729 2.5704,0.18785 5.3897,0.5114 8.9927,0.87784 1.1497,-0.30556 2.7891,0.0293 3.429,-1.03236 0.6885,-1.14202 -0.8905,-2.8051 -0.6351,-4.45389 0.4118,-2.65823 2.1668,-5.28141 0.2258,-5.63901 -3.9361,-0.72521 -7.2731,-0.61642 -10.4425,-0.1099 z"
       sodipodi:nodetypes="cccsssc" /><path
       style="display:inline;fill:#e6c78a;fill-opacity:1;stroke:none;stroke-width:0.182004;stroke-opacity:1"
       id="path15242"
       d="m -5749.3265,833.8961 c 0.703,1.43364 2.7947,3.06436 4.0246,5.56848 1.4217,2.89492 3.0547,7.4983 2.6033,7.99746 -0.8401,-0.3057 -2.3306,-4.53125 -3.5751,-7.23606 -1.4376,-3.12418 -3.785,-5.58987 -4.9583,-4.7389 0.4699,-2.02232 0.5112,-3.64038 1.9057,-1.59099 z"
       sodipodi:nodetypes="cscsccc"
       inkscape:transform-center-x="-12.426594"
       inkscape:transform-center-y="14.063168" /><path
       id="path15384"
       style="display:inline;fill:#9b7500;fill-opacity:0.357422;stroke:none;stroke-width:0.274882"
       inkscape:transform-center-x="21.64429"
       inkscape:transform-center-y="19.046406"
       d="m -5770.5991,832.53221 c -1.0898,2.1596 -1.4179,2.49598 -2.9461,4.76873 -0.7216,0.83537 -1.3932,1.71668 -2.1648,2.50606 -1.743,1.78316 -3.6569,3.3635 -5.8737,4.53766 -0.9703,0.51389 -2.0221,0.8654 -3.069,1.19617 -2.4596,0.77713 -3.723,0.82324 -6.2839,1.15641 -0.6612,-0.007 -1.3232,0.008 -1.9843,6.8e-4 -0.07,0.0895 -0.1408,0.17908 -0.2119,0.26864 -0.6274,0.78902 -1.0576,1.76527 -1.5318,2.68942 -0.9968,1.94227 -1.0821,3.09612 0.3703,5.26367 0.6527,0.9743 0.9531,3.5763 2.1244,3.56537 6.4856,-0.0607 12.6951,-9.50909 17.4147,-15.75872 1.6291,-2.15708 3.3832,-4.29921 5.2609,-6.2292 0.623,-0.6404 1.2053,-1.3595 1.8909,-1.90868 z m 2.9957,2.05621 1.0165,0.69793 c 0.047,-0.15853 0.7102,-1.78739 -0.4751,-1.07777 -0.1887,0.11288 -0.3683,0.24116 -0.5414,0.37984 z" /><path
       style="display:inline;fill:#e6c78a;fill-opacity:1;stroke:none;stroke-width:0.229973;stroke-opacity:1"
       id="path15244"
       d="m -5751.5084,827.69245 c 1.8056,0.50096 5.2154,-0.19147 8.3713,0.68138 3.6484,1.00905 8.7913,3.2266 8.6894,4.08085 -1.1092,0.56717 -5.8212,-1.47651 -9.1421,-2.50112 -3.8356,-1.18352 -8.1357,-0.93296 -8.7329,0.91763 -1.0135,-2.13376 -2.1755,-3.51418 0.8143,-3.17873 z"
       sodipodi:nodetypes="cscsccc"
       inkscape:transform-center-x="-15.496404"
       inkscape:transform-center-y="4.4394035" /><path
       id="path15386"
       style="display:inline;fill:#9b7500;fill-opacity:0.357422;stroke:none;stroke-width:0.260355"
       inkscape:transform-center-x="8.6069203"
       inkscape:transform-center-y="22.418156"
       d="m -5764.0822,831.15947 c -1.3431,2.27411 -2.8655,4.453 -4.3581,6.64787 0.1701,0.48938 0.3116,1.02732 0.4149,1.6181 0.2407,1.37462 0.3783,1.90671 0.4252,3.36808 0.015,0.4569 -0.026,0.91411 -0.059,1.37008 -0.1088,1.51021 -0.3318,3.01879 -0.7711,4.47064 -0.6529,2.0606 -1.3048,4.2503 -2.7571,5.91672 -0.4518,0.51849 -0.9282,1.03041 -1.4891,1.42839 -0.5529,0.39228 -1.2102,0.61107 -1.8153,0.91658 -0.6748,0.0921 -1.3461,0.33289 -2.0249,0.27594 -0.082,-0.007 -0.1635,-0.0152 -0.2437,-0.0246 -0.4733,3.55192 0.304,6.05338 3.1265,7.84414 0.221,0.14021 0.9472,0.68329 1.2917,0.69664 1.2518,0.0486 3.6383,-4.02214 3.9817,-4.55641 3.3399,-6.13801 4.9079,-10.53513 6.2399,-16.63544 0.5328,-2.37317 1.2225,-4.69928 1.7954,-7.0651 0.3276,-1.3527 0.4049,-3.75332 1.4311,-4.70501 z m -10.596,18.24124 c -0.014,0.0396 -0.028,0.0791 -0.041,0.11858 0.175,0.13482 0.3511,0.27369 0.5284,0.41837 0.011,0.006 0.082,0.0706 0.088,0.0652 0.015,-0.0231 10e-5,-0.0618 -0.024,-0.0828 -0.1327,-0.15665 -0.251,-0.33847 -0.4274,-0.44359 -0.047,-0.0278 -0.085,-0.0501 -0.1281,-0.0751 z" /><path
       style="display:inline;fill:#e6c78a;fill-opacity:1;stroke:none;stroke-width:0.222005;stroke-opacity:1"
       d="m -5756.7706,837.5381 -1.04,0.71586 c 1.7991,5.65926 2.8831,11.84663 3.2594,12.69723 2.061,-2.07781 -0.6035,-7.66066 -2.2197,-13.41341 z"
       id="path15246"
       sodipodi:nodetypes="ccccc"
       inkscape:transform-center-x="-3.2007609"
       inkscape:transform-center-y="17.925417" /><path
       id="path15388"
       style="display:inline;fill:#9b7500;fill-opacity:0.357422;stroke:none;stroke-width:0.26329"
       inkscape:transform-center-x="-17.582431"
       inkscape:transform-center-y="19.370471"
       d="m -5750.2106,831.34099 c -1.1504,0.18481 -1.6569,1.46978 -1.1473,4.27656 l -2.4349,0.63903 c 0.1598,0.1873 0.328,0.42583 0.4721,0.63572 1.7584,2.56122 3.2625,5.34703 4.7419,8.06251 1.1497,2.11001 2.0303,4.35626 3.1964,6.4474 2.5616,4.59436 5.3445,6.24588 10.1041,8.26402 0.7164,0.30377 1.6672,-1.16714 3.0513,-1.86714 1.2088,-0.61139 2.9051,-0.39374 3.0135,-1.03569 0.1955,-1.1591 -0.2183,-2.77199 -1.0502,-4.62584 -0.2647,-0.009 -0.542,-0.0189 -0.8736,-0.0286 -1.6532,-0.18531 -2.6144,-0.22598 -4.2469,-0.70025 -0.7641,-0.22203 -1.5144,-0.49826 -2.2409,-0.82299 -0.5914,-0.26439 -1.1479,-0.60325 -1.7019,-0.93922 -1.4939,-0.90597 -1.827,-1.23443 -3.201,-2.31211 -0.9546,-0.8867 -1.8878,-1.67809 -2.6828,-2.72341 -0.4567,-0.60039 -0.8747,-1.23333 -1.2356,-1.89573 -0.5093,-0.93522 -0.6909,-2.01479 -0.9834,-3.02476 -1.0155,-3.50603 -0.084,-5.78497 1.5095,-6.55474 -1.7603,-1.26045 -3.2762,-1.95722 -4.2903,-1.79478 z m -3.5822,4.91559 c -0.3079,-0.36065 -0.5835,-0.52073 -0.5851,0.1536 z" /><path
       style="display:inline;fill:#e6c78a;fill-opacity:1;stroke:none;stroke-width:0.222005;stroke-opacity:1"
       d="m -5754.8661,838.30011 -0.938,0.83635 c 1.9969,5.51875 3.8883,12.14174 4.7162,13.36322 1.1385,-2.3962 -1.8146,-8.77367 -3.7784,-14.19988 z"
       id="path15248"
       sodipodi:nodetypes="ccccc"
       inkscape:transform-center-x="-5.6870096"
       inkscape:transform-center-y="19.080672" /><path
       id="path15390"
       style="display:inline;fill:#9b7500;fill-opacity:0.357422;stroke:none;stroke-width:0.304046"
       inkscape:transform-center-x="-24.745345"
       inkscape:transform-center-y="9.4891183"
       d="m -5745.5516,825.83055 -6.588,3.40394 c 2.0035,-0.42616 4.5656,2.03492 6.1869,3.0655 2.6315,1.67266 5.2134,3.41141 7.8332,5.10063 5.2236,3.36824 6.6366,3.80775 12.5657,5.63126 1.5509,0.477 4.6244,1.96313 6.2542,1.23369 0.4285,-0.19178 0.5229,-2.60623 0.7211,-3.01234 1.8467,-3.78102 3.1734,-3.74314 -5.6816,-8.77734 -2.2859,-1.2996 -4.3171,-2.15114 -6.2583,-2.78052 0.3175,0.2087 0.5562,0.40813 0.9537,0.71422 1.4364,1.28805 3.3367,3.99502 1.9571,5.62334 -4.1809,1.78657 -10.7861,-3.07318 -14.615,-4.58951 -3.9431,-2.15897 2.4884,-3.3441 3.967,-3.43189 0.2649,-0.008 0.5302,-0.0128 0.7953,-0.0147 -2.4295,-0.51208 -5.021,-1.09229 -8.0913,-2.16627 z"
       sodipodi:nodetypes="ccssssssccccccsc" /><path
       style="display:inline;fill:#9b7500;fill-opacity:0.357422;stroke:none;stroke-width:0.271075"
       d="m -5755.8755,836.22806 c 8.1487,18.27459 8.0742,10.77673 8.7607,28.08122 0.02,0.48329 -2.56,1.27849 -3.1193,1.32228 -0.8424,0.0659 -3.8218,-1.14414 -4.3521,-1.6089 -3.9132,-3.43025 -2.8457,-5.87047 -3.934,-10.348 -0.6342,-2.60867 -1.2744,-5.19715 -1.2356,-7.86433 0.047,-3.20644 0.5073,-6.41549 0.2553,-9.63489 -7e-4,-0.0665 -0.3279,-4.47456 -1.0006,-2.78091"
       id="path15392"
       sodipodi:nodetypes="csscsscc"
       inkscape:transform-center-x="-5.1984001"
       inkscape:transform-center-y="23.001707" /><g
       id="g15282"
       transform="matrix(0.85782969,-0.14007913,0.14007913,0.85782969,-5706.7086,744.29449)"
       style="display:inline"><g
         id="g15254"
         transform="translate(44.70346,6.5206166)"><path
           style="fill:#f5cd44;fill-opacity:1;stroke-width:0.78494"
           d="m -137.20659,80.036649 c -0.73948,-2.554381 -1.45441,-5.613171 -1.18429,-8.287291 1.70448,-4.389268 3.76573,-7.853649 6.9236,-9.907004 1.73739,-1.129712 3.26687,-2.191221 5.48999,-2.626852 1.71289,-0.33565 4.05996,-0.151482 5.8583,-0.255924 1.42295,-0.008 2.88415,-0.126482 4.1932,0.08745 1.13402,0.185323 2.61221,1.108728 3.51035,1.526074 1.4734,0.684656 2.23418,1.01013 3.63513,1.904704 1.32287,0.844714 2.93151,1.494924 3.98026,2.559901 1.23696,1.256112 1.74509,2.933738 2.49553,4.431101 2.712324,5.411924 2.538133,11.770115 -3.04709,17.049667 -3.91908,5.501885 -14.62474,8.551308 -19.96569,6.604649 -6.74968,-2.287595 -11.00586,-7.552907 -11.88929,-13.08647 z"
           id="path15250"
           sodipodi:nodetypes="ccsscssssscccc" /><path
           style="fill:#f1a60e;fill-opacity:1;stroke-width:0.78494"
           d="m -137.13016,80.036649 c -0.73948,-2.554381 -1.45441,-5.613171 -1.18429,-8.287291 0.69161,1.056692 1.25077,2.288471 2.17923,3.053593 0.85539,0.704912 2.07941,0.95166 2.76404,1.701328 0.72852,0.797729 0.71804,1.694569 1.10033,2.747329 0.46073,1.268743 1.96823,1.720401 2.9217,2.372922 1.26281,0.864227 2.19024,2.014979 3.60435,1.895586 1.37544,-0.116128 2.44095,-0.194443 4.06636,-0.107018 0.90798,0.04884 2.0719,0.377758 3.16432,0.821985 1.172,0.476589 2.45578,0.260893 3.67439,0.507213 1.17999,0.238516 1.79433,0.741975 2.85976,0.706429 0.61844,-0.02063 1.86332,-0.727874 2.80028,-1.345307 0.66723,-0.439694 1.49632,-0.507234 2.161,-1.003087 0.80489,-0.600449 1.55787,-1.166902 2.13774,-1.517304 1.81563,-1.097137 1.82396,-0.243799 3.89293,-1.130435 -6.01705,12.434317 -18.9119,14.617186 -24.25285,12.670527 -6.74968,-2.287595 -11.00586,-7.552907 -11.88929,-13.08647 z"
           id="path15252"
           sodipodi:nodetypes="ccssssssssssssccc" /></g><path
         d="m -72.686288,92.186332 c -0.845525,-0.482892 -2.445743,0.206853 -1.622958,1.67472 1.230967,2.195887 3.019043,-0.878208 1.622958,-1.67472 v 0"
         style="fill:#b9841f;fill-opacity:1;fill-rule:evenodd;stroke:none;stroke-width:0.0073614"
         id="path15256" /><path
         d="m -59.825548,84.151433 c -0.845525,-0.482892 -2.445743,0.206852 -1.622958,1.67472 1.230967,2.195886 3.019043,-0.878208 1.622958,-1.67472 v 0"
         style="fill:#cf9423;fill-opacity:1;fill-rule:evenodd;stroke:none;stroke-width:0.0073614"
         id="path15258" /><path
         d="m -61.193505,90.592503 c -0.845525,-0.482892 -2.445743,0.206853 -1.622958,1.67472 1.230967,2.195887 3.019043,-0.878208 1.622958,-1.67472 v 0"
         style="fill:#b9841f;fill-opacity:1;fill-rule:evenodd;stroke:none;stroke-width:0.0073614"
         id="path15260" /><path
         d="m -64.34403,76.856868 c -0.845525,-0.482892 -2.445743,0.206853 -1.622958,1.67472 1.230967,2.195887 3.019043,-0.878208 1.622958,-1.67472 v 0"
         style="fill:#cf9423;fill-opacity:1;fill-rule:evenodd;stroke:none;stroke-width:0.0073614"
         id="path15262" /><path
         d="m -63.623699,81.601223 c -0.845525,-0.482892 -2.445743,0.206853 -1.622958,1.67472 1.230967,2.195887 3.019043,-0.878208 1.622958,-1.67472 v 0"
         style="fill:#cf9423;fill-opacity:1;fill-rule:evenodd;stroke:none;stroke-width:0.0073614"
         id="path15264" /><path
         d="m -83.499435,74.120382 c -0.845525,-0.482892 -2.445743,0.206853 -1.622958,1.67472 1.230967,2.195887 3.019043,-0.878208 1.622958,-1.67472 v 0"
         style="fill:#cf9423;fill-opacity:1;fill-rule:evenodd;stroke:none;stroke-width:0.0073614"
         id="path15266" /><path
         d="m -67.20034,95.357598 c -0.908374,0.519946 -2.627398,-0.222513 -1.743441,-1.797322 1.323436,-2.358884 3.242668,0.94499 1.743441,1.797322 v 0"
         style="fill:#b9841f;fill-opacity:1;fill-rule:evenodd;stroke:none;stroke-width:0.00554902"
         id="path15268" /><path
         d="m -76.961741,87.055248 c 0.85327,-0.606151 2.636571,-0.03508 1.910594,1.618514 -1.086804,2.476827 -3.319439,-0.623878 -1.910594,-1.618514 v 0"
         style="fill:#cf9423;fill-opacity:1;fill-rule:evenodd;stroke:none;stroke-width:0.00554902"
         id="path15270" /><path
         d="m -66.335005,89.680355 c -1.207004,0.683903 -3.491157,-0.292679 -2.3166,-2.364081 1.758516,-3.102723 4.308697,1.242979 2.3166,2.364081 v 0"
         style="fill:#cf9423;fill-opacity:1;fill-rule:evenodd;stroke:none;stroke-width:0.00733595"
         id="path15272" /><path
         d="m -58.988162,79.108078 c -0.908374,0.519946 -2.627398,-0.222513 -1.743442,-1.797322 1.323436,-2.358884 3.242668,0.94499 1.743442,1.797322 v 0"
         style="fill:#cf9423;fill-opacity:1;fill-rule:evenodd;stroke:none;stroke-width:0.00554902"
         id="path15274" /><path
         d="m -71.278013,87.165262 c -0.908374,0.519945 -2.627398,-0.222513 -1.743442,-1.797322 1.323436,-2.358884 3.242668,0.94499 1.743442,1.797322 v 0"
         style="fill:#cf9423;fill-opacity:1;fill-rule:evenodd;stroke:none;stroke-width:0.00554902"
         id="path15276" /><path
         d="m -88.534975,78.296806 c -0.824864,0.472145 -2.385852,-0.202057 -1.583161,-1.632088 1.201768,-2.142023 2.944558,0.858114 1.583161,1.632088 v 0"
         style="fill:#cf9423;fill-opacity:1;fill-rule:evenodd;stroke:none;stroke-width:0.00503888"
         id="path15278" /><path
         d="m -85.58574,80.007288 c -0.640012,0.366337 -1.851182,-0.156776 -1.228374,-1.266337 0.932451,-1.661995 2.284682,0.665811 1.228374,1.266337 v 0"
         style="fill:#cf9423;fill-opacity:1;fill-rule:evenodd;stroke:none;stroke-width:0.00390967"
         id="path15280" /></g></g></svg>
