<?xml version="1.0" encoding="UTF-8" standalone="no"?>
<!-- Created with Inkscape (http://www.inkscape.org/) -->

<svg
   width="94.689926mm"
   height="167.58316mm"
   viewBox="0 0 94.689926 167.58316"
   version="1.1"
   id="svg5"
   xml:space="preserve"
   inkscape:version="1.2 (dc2aedaf03, 2022-05-15)"
   sodipodi:docname="drawing.svg"
   xmlns:inkscape="http://www.inkscape.org/namespaces/inkscape"
   xmlns:sodipodi="http://sodipodi.sourceforge.net/DTD/sodipodi-0.dtd"
   xmlns="http://www.w3.org/2000/svg"
   xmlns:svg="http://www.w3.org/2000/svg"><sodipodi:namedview
     id="namedview7"
     pagecolor="#505050"
     bordercolor="#eeeeee"
     borderopacity="1"
     inkscape:showpageshadow="0"
     inkscape:pageopacity="0"
     inkscape:pagecheckerboard="0"
     inkscape:deskcolor="#505050"
     inkscape:document-units="mm"
     showgrid="false"
     inkscape:zoom="0.36257718"
     inkscape:cx="-20741.791"
     inkscape:cy="2342.9494"
     inkscape:window-width="3200"
     inkscape:window-height="1271"
     inkscape:window-x="2391"
     inkscape:window-y="-9"
     inkscape:window-maximized="1"
     inkscape:current-layer="layer3"
     showguides="true" /><defs
     id="defs2" /><g
     inkscape:groupmode="layer"
     id="layer3"
     inkscape:label="Daisy1"
     style="display:inline"
     transform="translate(5951.7082,-779.67016)"><g
       id="g2274"
       transform="matrix(-1,0,0,1,-11665.263,-2.9189188)"><path
         d="m -5764.4558,949.91763 c -9.2944,1.33454 -3.3686,-2.38756 0.3302,-15.67805 4.4788,-16.08563 8.5874,-26.27468 9.5781,-37.61667 0.057,-0.6575 0.1359,-1.3473 0.2313,-2.06407 -0.2867,-1.08684 -0.6342,-2.39809 -1.0471,-3.71912 -2.1564,-1.78336 -3.9134,-2.62251 -4.2107,-2.6818 -6.1862,-1.22571 -9.8821,-1.89896 -12.1218,-10.00444 7.4975,-2.02507 8.6804,5.14896 12.7328,7.81799 0.8946,0.59073 1.724,1.17916 2.4934,1.76013 -0.053,-0.11855 -0.1022,-0.23795 -0.1554,-0.35355 -1.8825,-4.23399 -4.3361,-6.68162 -4.6965,-6.88953 -5.4528,-3.15769 -8.7358,-4.99059 -8.2337,-13.38353 7.7482,0.50588 6.5495,7.67913 9.5219,11.51084 3.788,4.88851 5.5062,9.00318 6.295,12.20363 3.8084,-22.62088 2.2758,-25.84461 -4.1979,-45.95559 -4.3565,-13.53516 -4.9539,-16.51795 -3.7912,-14.31799 2.1767,4.1184 10.3939,22.39646 11.9199,31.5625 0.644,3.86696 1.4073,8.46127 1.318,13.68977 1.113,-2.66828 2.9197,-5.78995 5.8785,-9.28764 3.1344,-3.70258 2.2427,-10.91863 10.0044,-11.09427 0.1426,8.4057 -3.2132,10.09675 -8.7982,13.02026 -0.3701,0.19134 -2.9265,2.5332 -4.9877,6.68163 -0.4488,0.90145 -0.8623,1.91847 -1.2421,2.94301 1.0771,-0.57193 2.2532,-1.13639 3.5412,-1.68129 4.4652,-1.89295 6.9255,-8.73972 13.9345,-5.39363 -3.6658,7.56655 -7.4218,7.56355 -13.7267,7.65288 -0.3039,0.007 -2.16,0.50513 -4.5807,1.85241 -0.096,0.29124 -0.1853,0.57494 -0.2747,0.85268 -1.661,23.45701 -10.8203,54.69528 -15.7148,68.57344 v 0"
         style="display:inline;fill:#4f5902;fill-opacity:1;fill-rule:evenodd;stroke:none;stroke-width:0.00750579"
         id="path2150"
         inkscape:export-filename="minhaFlor1.svg"
         inkscape:export-xdpi="96"
         inkscape:export-ydpi="96" /><path
         style="display:inline;fill:#fff3cf;fill-opacity:1;stroke:none;stroke-width:0.260439"
         d="m -5767.8122,817.34905 c -3.7456,-4.18119 -9.782,-11.41287 -14.7423,-16.79575 -3.7057,-4.02153 -7.0205,-6.78267 -4.5753,-8.6906 0.3125,-0.17812 2.239,-0.16499 3.4542,-0.90351 1.3259,-0.80579 1.947,-2.35529 2.2688,-2.22436 6.8596,1.14916 11.263,11.43737 13.4377,17.77973 1.2619,3.09137 2.1908,6.33713 3.6993,9.33116"
         id="path2152"
         sodipodi:nodetypes="cscsccc"
         inkscape:transform-center-x="16.357642"
         inkscape:transform-center-y="-23.495589" /><path
         style="display:inline;fill:#fff3cf;fill-opacity:1;stroke:none;stroke-width:0.30704"
         d="m -5770.5928,822.47528 c -8.4844,-3.1983 -17.6608,-4.8861 -25.4531,-9.59486 -4.6898,-2.83406 -6.6698,-4.51712 -7.2032,-6.05773 -0.4623,-1.33485 1.2434,-1.61771 2.1313,-3.39467 0.2054,-0.41117 0.8655,-3.76386 1.2969,-3.9523 6.867,-0.60099 16.3384,7.08864 22.0137,11.06312 2.5861,1.76894 5.1338,3.58767 7.7318,5.33989 1.6008,1.07961 4.1155,3.63533 6.1242,3.23456"
         id="path2154"
         sodipodi:nodetypes="csssccsc"
         inkscape:transform-center-x="24.489835"
         inkscape:transform-center-y="-15.720263" /><path
         style="display:inline;fill:#fff3cf;fill-opacity:1;stroke:none;stroke-width:0.299516"
         d="m -5773.3466,828.63718 c -13.261,0.0208 -22.0339,5.80723 -32.225,5.25935 -1.7847,-0.0959 -1.1898,-2.53188 -1.5087,-4.97354 -0.2515,-1.92678 -1.7113,-3.76506 -0.9434,-5.0955 0.6198,-1.07357 4.3235,-1.33684 5.4673,-1.664 3.8218,-1.09319 7.4478,-1.39703 11.3101,-1.66782 1.5583,-0.10925 4.8924,-0.37112 6.215,-0.2667 2.5475,0.20114 6.2401,0.90045 8.9937,1.35152 1.6068,0.26321 3.4241,0.85236 5.1223,0.81022"
         id="path2156"
         sodipodi:nodetypes="cssssccsc"
         inkscape:transform-center-x="29.703904"
         inkscape:transform-center-y="1.1235958" /><path
         style="display:inline;fill:#fff3cf;fill-opacity:1;stroke:none;stroke-width:0.314716"
         d="m -5763.9121,818.20139 c -1.0987,-7.52803 -3.849,-15.06988 -3.2965,-22.5841 0.5805,-2.71692 0.6636,-9.74599 2.8688,-12.40297 0.7987,-0.96233 1.8676,-0.67261 3.3476,-0.0753 0.5333,0.98384 4.7606,0.71007 5.1129,0.87181 3.4548,3.2826 0.9375,11.55857 -0.1456,14.98489 -2.151,6.61574 -4.9184,13.98268 -3.4541,20.71306"
         id="path2158"
         sodipodi:nodetypes="ccscccc"
         inkscape:transform-center-x="1.1461604"
         inkscape:transform-center-y="-24.87072" /><path
         style="display:inline;fill:#fff3cf;fill-opacity:1;stroke:none;stroke-width:0.274882"
         d="m -5750.6745,816.76263 c 0.1709,-0.47281 0.2507,-0.99669 0.5126,-1.41843 0.2673,-0.43031 0.6911,-0.73899 1.0493,-1.09683 2.4818,-2.47963 3.0189,-3.07698 5.4514,-5.10802 4.2509,-3.54928 9.1592,-7.23186 14.8254,-8.75217 0.9735,-0.26123 2.0402,-0.26689 3.0768,-0.33383 1.1512,-0.0743 2.3675,-0.11999 3.4668,0.17743 0.9809,0.26544 0.6001,2.07267 1.265,3.10806 0.6336,0.98684 3.2571,5.14792 2.2192,5.69096 -8.5189,4.45722 -17.2534,4.94426 -20.9526,7.51555 -2.2196,1.54277 -4.9736,3.01591 -7.4918,3.96962 -1.0466,0.39643 -2.1814,0.68404 -3.0678,1.31923 -1.1231,0.80475 0.635,0.84548 0.7994,0.86506"
         id="path2160"
         sodipodi:nodetypes="cscsssssssssc"
         inkscape:transform-center-x="-24.83168"
         inkscape:transform-center-y="-14.622884" /><path
         style="display:inline;fill:#fff3cf;fill-opacity:1;stroke:none;stroke-width:0.2721"
         d="m -5759.1593,819.20981 c 2.628,-6.77987 4.0336,-14.18207 7.8838,-20.33955 5.13,-7.96576 7.233,-11.0856 9.6106,-11.50088 1.3501,-0.23581 1.3617,1.23288 3.4936,2.34908 0.873,0.45706 3.2893,0.16214 4.4363,0.75326 4.0204,4.96682 -14.8981,19.16406 -18.9798,27.68842"
         id="path2162"
         sodipodi:nodetypes="ccsscc"
         inkscape:transform-center-x="-13.570005"
         inkscape:transform-center-y="-22.694714" /><path
         style="display:inline;fill:#fff3cf;fill-opacity:1;stroke:none;stroke-width:0.299516"
         d="m -5744.2451,822.05086 c 11.9299,0.64823 19.0189,-3.18051 29.956,0.73845 1.858,0.66573 -0.2968,2.97163 -1.1315,5.52874 -0.5176,1.58607 0.7726,3.48191 -0.091,4.49804 -0.8028,0.9447 -2.3668,0.35006 -3.5508,0.46634 -9.9784,-2.68883 -13.721,-4.01045 -23.8044,-3.80616 -1.5333,-0.54772 -3.2151,-1.45383 -4.8933,-1.71758"
         id="path2164"
         sodipodi:nodetypes="csssccc"
         inkscape:transform-center-x="-28.83793"
         inkscape:transform-center-y="0.70020176" /><path
         style="display:inline;fill:#fff3cf;fill-opacity:1;stroke:none;stroke-width:0.274882"
         d="m -5772.5874,830.04988 c -0.4901,-0.11202 -0.9739,-0.32827 -1.4703,-0.33613 -0.5065,-0.008 -0.9954,0.18169 -1.4901,0.28935 -3.428,0.74622 -4.2209,0.8748 -7.245,1.82224 -5.2845,1.65557 -9.163,5.71211 -13.5067,9.65557 -0.7463,0.6776 -1.328,1.5717 -1.945,2.40735 -1.2967,1.75625 -1.5669,2.8812 -0.4828,5.25449 0.4872,1.06676 0.3644,3.68331 1.5221,3.86128 6.4107,0.9853 14.0615,-7.33899 19.7267,-12.74632 1.9553,-1.86634 4.0319,-3.69773 6.1961,-5.29989 0.8995,-0.66586 1.7553,-1.4648 2.769,-1.86676 1.2843,-0.50931 0.3677,0.99139 0.2953,1.14026"
         id="path2166"
         sodipodi:nodetypes="cscssssssssc"
         inkscape:transform-center-x="24.076053"
         inkscape:transform-center-y="15.26803" /><path
         style="display:inline;fill:#fff3cf;fill-opacity:1;stroke:none;stroke-width:0.260355"
         d="m -5765.0808,830.56207 c -4.3438,5.20608 -9.756,9.60134 -13.0315,15.61829 -4.2713,7.84586 -5.9874,12.54771 -1.8475,16.23203 0.1954,0.17399 0.8247,0.82706 1.1625,0.89575 1.2276,0.24967 4.239,-3.3832 4.664,-3.85515 4.2854,-5.51952 6.5415,-9.60636 8.8392,-15.41228 0.9083,-2.25628 1.9638,-4.44094 2.9105,-6.68352 0.5414,-1.2822 1.0044,-3.63883 2.1707,-4.41269"
         id="path2168"
         sodipodi:nodetypes="csssccsc"
         inkscape:transform-center-x="11.753599"
         inkscape:transform-center-y="20.692339" /><path
         style="display:inline;fill:#fff3cf;fill-opacity:1;stroke:none;stroke-width:0.26329"
         d="m -5753.2413,837.0126 c -0.27,-15.21187 21.0052,16.94423 18.4469,24.43835 -0.2104,0.61607 -1.8495,0.12778 -3.1411,0.53635 -1.4788,0.46781 -2.6543,1.76645 -3.3124,1.3512 -4.372,-2.75882 -6.8524,-4.83728 -8.6402,-9.7844 -0.8137,-2.25175 -1.3209,-4.61063 -2.1154,-6.87835 -1.0225,-2.91841 -2.058,-5.91006 -3.3806,-8.72119 -0.3171,-0.67394 -0.7979,-1.65698 -0.9654,-0.64619"
         id="path2170"
         sodipodi:nodetypes="csscsssc"
         inkscape:transform-center-x="-14.140358"
         inkscape:transform-center-y="21.825853" /><path
         style="display:inline;fill:#fff3cf;fill-opacity:1;stroke:none;stroke-width:0.304046"
         d="m -5745.9337,828.28939 c 7.9551,4.32904 12.8848,4.29673 19.9421,9.98991 7.9278,6.39546 6.6247,6.14419 4.1928,9.57818 -0.2612,0.36884 -0.7433,2.73642 -1.1971,2.85664 -1.726,0.45725 -4.5199,-1.50463 -5.9737,-2.22532 -5.5576,-2.75522 -6.8811,-3.41693 -11.4936,-7.58299 -2.3133,-2.08934 -4.5815,-4.22138 -6.909,-6.29626 -1.434,-1.27839 -3.5661,-4.12017 -5.6121,-4.02247"
         id="path2172"
         sodipodi:nodetypes="cssscssc"
         inkscape:transform-center-x="-23.14419"
         inkscape:transform-center-y="13.653448" /><path
         style="display:inline;fill:#fff3cf;fill-opacity:1;stroke:none;stroke-width:0.271075"
         d="m -5757.7984,836.88712 c 5.0971,19.34897 6.2319,11.93711 4.1207,29.12605 -0.058,0.48022 -2.7326,0.8492 -3.2917,0.80227 -0.842,-0.0707 -3.5874,-1.7451 -4.0359,-2.28925 -3.3092,-4.01606 -1.8624,-6.25234 -2.2149,-10.84674 -0.2055,-2.67678 -0.4201,-5.33459 0.048,-7.96065 0.5628,-3.15701 1.5346,-6.24987 1.8047,-9.46781 0.01,-0.0657 0.3975,-4.46891 -0.5393,-2.90581"
         id="path2174"
         sodipodi:nodetypes="csscsscc"
         inkscape:transform-center-x="-1.2294008"
         inkscape:transform-center-y="23.311491" /><path
         style="display:inline;fill:#e6c78a;fill-opacity:1;stroke:none;stroke-width:0.164669;stroke-opacity:1"
         id="path2176"
         d="m -5765.6458,814.86516 c -1.5842,-3.13174 -5.3345,-12.65013 -6.2096,-12.30661 -1.4503,1.8265 4.6715,10.53604 4.5688,12.39486 1.4844,0.60066 2.5716,2.37446 1.6408,-0.0883 z"
         sodipodi:nodetypes="cccc"
         inkscape:transform-center-x="8.9272585"
         inkscape:transform-center-y="-17.191674" /><path
         style="display:inline;fill:#e6c78a;fill-opacity:1;stroke:none;stroke-width:0.180615;stroke-opacity:1"
         id="path2178"
         d="m -5767.268,815.23063 c -1.4515,-4.3062 -8.3552,-14.42823 -9.7402,-13.4143 -0.4809,1.04786 2.1095,3.09257 3.8104,5.76868 2.0383,3.20667 4.1369,6.73133 4.3019,7.92776 1.6213,0.54419 3.1,2.50979 1.6278,-0.28231 z"
         sodipodi:nodetypes="ccsccc"
         inkscape:transform-center-x="12.103133"
         inkscape:transform-center-y="-17.314449" /><path
         style="display:inline;fill:#e6c78a;fill-opacity:1;stroke:none;stroke-width:0.229973;stroke-opacity:1"
         id="path2180"
         d="m -5766.8536,819.46277 c -1.5649,-1.03038 -4.1869,-3.55317 -6.9201,-5.35613 -3.16,-2.08429 -6.3855,-3.35954 -6.9619,-2.72094 0.3023,1.20854 3.5491,2.61751 6.5053,4.4449 3.4144,2.11068 6.5192,4.66944 5.5181,6.33654 2.2738,-0.64018 4.0779,-0.67361 1.8586,-2.70437 z"
         sodipodi:nodetypes="cscscc"
         inkscape:transform-center-x="14.13978"
         inkscape:transform-center-y="-9.9853852" /><path
         style="display:inline;fill:#e6c78a;fill-opacity:1;stroke:none;stroke-width:0.229973;stroke-opacity:1"
         id="path2182"
         d="m -5770.3471,818.81106 c -1.7376,-0.70089 -4.8064,-2.6559 -7.8421,-3.88327 -3.5093,-1.41894 -8.3263,-2.86657 -8.7651,-2.12668 0.5352,1.12496 5.3993,2.69953 8.6581,3.90686 3.7643,1.39445 7.3134,3.28933 6.6615,5.12134 2.1025,-1.07683 3.8645,-1.46537 1.2876,-3.01825 z"
         sodipodi:nodetypes="cscscc"
         inkscape:transform-center-x="18.859956"
         inkscape:transform-center-y="-9.4639602" /><path
         style="display:inline;fill:#e6c78a;fill-opacity:1;stroke:none;stroke-width:0.229973;stroke-opacity:1"
         id="path2184"
         d="m -5772.686,822.97011 c -3.3747,0.0765 -17.1641,0.31797 -17.5448,2.43354 4.6976,1.02537 16.5976,-4.28188 17.926,0.82566 1.2902,-1.97876 2.6267,-3.19104 -0.3812,-3.25918 z"
         sodipodi:nodetypes="ccccc"
         inkscape:transform-center-x="20.671536"
         inkscape:transform-center-y="-1.345679" /><path
         style="display:inline;fill:#e6c78a;fill-opacity:1;stroke:none;stroke-width:0.241203;stroke-opacity:1"
         id="path2186"
         d="m -5763.1696,813.912 c 0.5372,-1.90128 -0.1544,-5.5119 0.7816,-8.83534 1.0821,-3.84211 3.4353,-9.24844 4.3239,-9.13059 0.581,1.17859 -1.5875,6.13186 -2.6829,9.62778 -1.2654,4.03793 -1.0415,8.58365 0.88,9.23683 -2.2303,1.04496 -3.6776,2.2559 -3.3026,-0.89867 z"
         sodipodi:nodetypes="cscsccc"
         inkscape:transform-center-x="1.0426436"
         inkscape:transform-center-y="-20.078403" /><path
         style="display:inline;fill:#e6c78a;fill-opacity:1;stroke:none;stroke-width:0.229973;stroke-opacity:1"
         id="path2188"
         d="m -5750.4562,818.44259 c 1.5576,-1.0413 3.2577,-4.07713 5.9783,-5.89911 3.1453,-2.10638 8.1813,-4.55672 8.7622,-3.92216 -0.2938,1.21062 -4.9171,3.44789 -7.8603,5.29591 -3.3996,2.13451 -6.0155,5.55661 -5.0028,7.21666 -2.2783,-0.62426 -4.0825,-0.6444 -1.8774,-2.69128 z"
         sodipodi:nodetypes="cscsccc"
         inkscape:transform-center-x="-15.875513"
         inkscape:transform-center-y="-11.144926" /><path
         style="display:inline;fill:#e6c78a;fill-opacity:1;stroke:none;stroke-width:0.23652;stroke-opacity:1"
         id="path2190"
         d="m -5754.3512,814.95322 c 1.1796,-1.5326 1.8785,-5.09325 3.9378,-7.77333 2.3808,-3.09836 6.4787,-7.14263 7.2357,-6.69745 0.092,1.29723 -3.674,4.99783 -5.9401,7.7749 -2.6173,3.20761 -4.0798,7.44471 -2.5884,8.77129 -2.3909,0.10722 -4.1375,0.66353 -2.645,-2.0754 z"
         sodipodi:nodetypes="cscsccc"
         inkscape:transform-center-x="-10.698493"
         inkscape:transform-center-y="-17.173918" /><path
         style="display:inline;fill:#e6c78a;fill-opacity:1;stroke:none;stroke-width:0.169357;stroke-opacity:1"
         id="path2192"
         d="m -5756.3359,815.46704 c 1.6583,-3.24138 7.3222,-12.18668 6.5253,-12.7241 -2.3594,-0.13087 -5.9646,10.34455 -7.5604,11.3805 0.3743,1.62682 -0.4535,3.62441 1.0351,1.34359 z"
         sodipodi:nodetypes="cccc"
         inkscape:transform-center-x="-6.1859788"
         inkscape:transform-center-y="-16.353486" /><path
         style="display:inline;fill:#e6c78a;fill-opacity:1;stroke:none;stroke-width:0.210347;stroke-opacity:1"
         id="path2194"
         d="m -5746.7538,824.26788 c 1.6636,0.11284 4.5307,-1.1804 7.438,-0.98574 3.361,0.22508 8.2321,1.2733 8.2862,2.07836 -0.8752,0.73504 -5.3403,-0.2364 -8.4173,-0.53884 -3.5543,-0.34932 -7.2742,0.70914 -7.4865,2.52551 -1.2442,-1.76652 -2.4923,-2.81187 0.1796,-3.07927 z"
         sodipodi:nodetypes="cscsccc"
         inkscape:transform-center-x="-19.811448"
         inkscape:transform-center-y="-1.1747456" /><path
         id="path2196"
         style="display:inline;fill:#9b7500;fill-opacity:0.357422;stroke:none;stroke-width:0.260439"
         inkscape:transform-center-x="16.359028"
         inkscape:transform-center-y="-23.495634"
         d="m -5787.4176,793.4325 c 0,0.002 -0.01,0.0224 -0.01,0.052 0.01,-5.9e-4 0.01,-10e-4 0.015,-0.002 0,-0.0319 -0.01,-0.0532 -0.01,-0.0504 z m 17.2717,7.51316 c 0.024,0.28392 0.046,0.58199 0.063,0.91889 0.092,1.90979 -0.047,3.92812 -0.5424,5.78042 -0.1632,0.61064 -0.3997,1.19935 -0.5995,1.79901 -0.2718,0.51022 -0.5073,1.04159 -0.8151,1.53093 -0.1848,0.29366 -0.3877,0.57177 -0.6028,0.83936 1.7866,2.06906 3.4817,4.02857 4.8311,5.53488 l 3.5423,-1.50343 c -1.5085,-2.99403 -2.4375,-6.23969 -3.6994,-9.33105 -0.5704,-1.66343 -1.2957,-3.5988 -2.1768,-5.56901 z" /><path
         style="display:inline;fill:#e6c78a;fill-opacity:1;stroke:none;stroke-width:0.198908;stroke-opacity:1"
         id="path2198"
         d="m -5746.5502,825.97345 c 5.3069,-0.754 20.0523,0.58728 19.9259,2.30462 -0.7487,0.92723 -4.5052,-0.41 -8.3229,-0.65385 -4.5745,-0.29216 -9.5106,-0.48697 -10.8301,-0.065 -1.6058,-1.18687 -4.5589,-1.57042 -0.7729,-1.58576 z"
         sodipodi:nodetypes="ccsccc"
         inkscape:transform-center-x="-21.985539"
         inkscape:transform-center-y="0.70060604" /><path
         id="path2200"
         style="display:inline;fill:#9b7500;fill-opacity:0.357422;stroke:none;stroke-width:0.30704"
         inkscape:transform-center-x="24.489814"
         inkscape:transform-center-y="-15.720262"
         d="m -5781.453,807.92266 c 17.723,16.4365 -4.4445,8.45597 -14.5705,4.97055 7.7875,4.69864 16.9542,6.38663 25.4307,9.5819 l 6.6416,-3.36175 c -2.0087,0.40077 -4.5233,-2.1549 -6.1241,-3.2345 -2.5979,-1.75222 -5.1457,-3.57109 -7.7318,-5.34003 -1.0897,-0.76314 -2.3214,-1.66408 -3.6458,-2.61617 z"
         sodipodi:nodetypes="ccccscsc" /><path
         style="display:inline;fill:#e6c78a;fill-opacity:1;stroke:none;stroke-width:0.241295;stroke-opacity:1"
         id="path2202"
         d="m -5772.5883,830.36487 c -1.7695,0.79527 -5.3791,1.64234 -8.4723,3.02941 -3.5762,1.60357 -6.5366,3.7603 -6.3642,4.67411 1.1591,0.46178 4.2405,-1.63268 7.4868,-3.20764 3.7496,-1.81913 7.6769,-3.08341 8.4281,-1.15625 0.8409,-2.45882 1.8927,-4.11993 -1.0784,-3.33963 z"
         sodipodi:nodetypes="cscscc"
         inkscape:transform-center-x="19.484547"
         inkscape:transform-center-y="8.0211696" /><path
         id="path2204"
         style="display:inline;fill:#9b7500;fill-opacity:0.357422;stroke:none;stroke-width:0.299516"
         inkscape:transform-center-x="29.704115"
         inkscape:transform-center-y="1.1235941"
         d="m -5776.1215,821.56617 c -0.1051,0.1491 -0.2226,0.30409 -0.3642,0.47452 -0.2668,0.32131 -0.5559,0.62608 -0.8665,0.90531 -0.2863,0.25737 -0.602,0.48093 -0.9189,0.69952 -0.8435,0.58177 -1.3765,0.83588 -2.2914,1.33078 -1.2773,0.60087 -1.7219,0.84364 -3.0838,1.33807 -0.5708,0.20725 -1.1503,0.38996 -1.732,0.56433 -1.2157,0.36439 -2.7181,0.7602 -3.9665,0.95633 -0.6606,0.10378 -1.3303,0.13632 -1.9956,0.20445 -0.7292,0.005 -1.4595,0.0571 -2.1876,0.0156 -1.3386,-0.0763 -2.7701,-0.37828 -4.0709,-0.68196 -2.1158,-0.49392 -4.1891,-1.13677 -6.2328,-1.87258 -0.4958,-0.18534 -0.9945,-0.36242 -1.4893,-0.5504 -0.6752,-0.13965 -1.209,-0.37604 -1.6087,-0.66805 -0.36,-0.15962 -0.723,-0.32605 -1.07,-0.48943 -0.01,0.0117 -0.017,0.0229 -0.024,0.0348 -0.7679,1.33044 0.6919,3.1687 0.9434,5.09548 0.3189,2.44166 -0.2759,4.87758 1.5088,4.97354 10.191,0.54788 18.9639,-5.23841 32.2248,-5.25918 l 2.4313,-6.24666 c -1.6982,0.0421 -3.5155,-0.54699 -5.1223,-0.8102 -0.026,-0.004 -0.058,-0.01 -0.084,-0.0142 z" /><path
         style="display:inline;fill:#e6c78a;fill-opacity:1;stroke:none;stroke-width:0.22091;stroke-opacity:1"
         id="path2206"
         d="m -5774.2957,832.97284 c -1.4103,1.15474 -4.5567,2.91572 -7.0231,4.9319 -2.8513,2.33083 -4.9233,4.8963 -4.441,5.54399 1.2656,-0.003 3.4746,-2.55772 6.0214,-4.76505 2.9418,-2.54959 6.2458,-4.72833 7.6322,-3.4817 -0.054,-2.14456 0.3714,-3.74231 -2.1895,-2.22914 z"
         sodipodi:nodetypes="cscscc"
         inkscape:transform-center-x="19.426707"
         inkscape:transform-center-y="11.782032" /><path
         id="path2208"
         style="display:inline;fill:#9b7500;fill-opacity:0.357422;stroke:none;stroke-width:0.314716"
         inkscape:transform-center-x="1.1461782"
         inkscape:transform-center-y="-24.87073"
         d="m -5761.3387,802.66453 c -0.1592,1.78928 -4.5406,5.05901 -5.19,2.40105 0.7817,4.37784 1.9778,8.75921 2.6165,13.13585 l 4.4331,1.50741 c -0.9651,-4.43635 -0.091,-9.14922 1.2321,-13.74127 -5.4116,1.53294 0.3124,-3.91314 -3.0917,-3.30304 z"
         sodipodi:nodetypes="cccccc" /><path
         style="display:inline;fill:#e6c78a;fill-opacity:1;stroke:none;stroke-width:0.211684;stroke-opacity:1"
         id="path2210"
         d="m -5764.0892,832.31135 c -0.9412,1.44034 -2.9056,3.3954 -4.5523,5.91122 -1.9036,2.9085 -4.9326,7.21768 -4.3223,7.71818 1.1305,-0.30815 3.1764,-4.22073 4.8422,-6.93807 1.9241,-3.13867 5.0222,-5.94944 6.6064,-5.09682 -0.6413,-2.02965 -5.2406,-2.22395 -7.111,-0.16439 z"
         sodipodi:nodetypes="cscsccc"
         inkscape:transform-center-x="7.7625141"
         inkscape:transform-center-y="12.865099" /><path
         id="path2212"
         style="display:inline;fill:#9b7500;fill-opacity:0.357422;stroke:none;stroke-width:0.274882"
         inkscape:transform-center-x="-24.83173"
         inkscape:transform-center-y="-14.622886"
         d="m -5748.1976,813.33162 c -0.2928,0.29355 -0.5503,0.55162 -0.9149,0.9159 -0.3582,0.35784 -0.7822,0.66652 -1.0495,1.09684 -0.2619,0.42173 -0.3417,0.94545 -0.5126,1.41826 l 0.9186,4.72634 c 0.7766,-0.40995 1.668,-0.65744 2.5035,-0.9739 2.5182,-0.95372 5.2723,-2.42705 7.4919,-3.96981 0.4527,-0.31465 0.9815,-0.59759 1.5754,-0.86091 -6.1395,1.65529 -10.264,-1.43533 -10.0124,-2.35272 z m -1.5584,8.15734 c -0.1963,0.10358 -0.3856,0.21716 -0.5643,0.34528 -1.1231,0.80475 0.6352,0.84529 0.7995,0.86488 z"
         sodipodi:nodetypes="cssccsscccscc" /><path
         style="display:inline;fill:#e6c78a;fill-opacity:1;stroke:none;stroke-width:0.211684;stroke-opacity:1"
         id="path2214"
         d="m -5765.465,835.35925 c -0.6097,1.59273 -1.9241,4.14367 -2.9919,6.92622 -1.2345,3.2168 -3.4551,7.77294 -2.7476,8.13878 1.042,-0.52669 3.1583,-4.67471 4.2013,-7.65752 1.2041,-3.44534 2.6706,-6.88222 4.4104,-6.36792 -1.071,-1.8506 -1.4855,-3.42198 -2.8722,-1.03956 z"
         sodipodi:nodetypes="cscsccc"
         inkscape:transform-center-x="7.4498089"
         inkscape:transform-center-y="16.039211" /><path
         id="path2216"
         style="display:inline;fill:#9b7500;fill-opacity:0.357422;stroke:none;stroke-width:0.2721"
         inkscape:transform-center-x="-13.570053"
         inkscape:transform-center-y="-22.694719"
         d="m -5756.0785,810.03084 c -0.9988,3.07396 -1.9211,6.18691 -3.0808,9.17895 l 6.4444,-1.04978 c 1.1232,-2.34564 3.3719,-5.12163 5.9548,-8.01585 -3.6923,2.423 -6.3751,0.90911 -9.3184,-0.1133 z"
         sodipodi:nodetypes="sccccs" /><path
         style="display:inline;fill:#e6c78a;fill-opacity:1;stroke:none;stroke-width:0.213556;stroke-opacity:1"
         id="path2218"
         d="m -5752.7869,832.41511 c 1.0705,1.49496 3.8399,2.97913 5.7125,5.59 2.1649,3.01835 4.854,7.92302 4.3912,8.56002 -1.0567,-0.20321 -3.515,-4.70676 -5.4373,-7.5409 -2.2201,-3.27356 -5.4284,-5.65413 -6.7021,-4.50057 0.2439,-2.35344 0.037,-4.18038 2.0357,-2.10857 z"
         sodipodi:nodetypes="cscsccc"
         inkscape:transform-center-x="-10.878883"
         inkscape:transform-center-y="12.666196" /><path
         id="path2220"
         style="display:inline;fill:#9b7500;fill-opacity:0.357422;stroke:none;stroke-width:0.299516"
         inkscape:transform-center-x="-28.838102"
         inkscape:transform-center-y="0.7002011"
         d="m -5724.5775,820.99787 c 15.1084,4.61507 1.0748,7.61118 -3.2183,9.96894 2.5065,0.59964 5.2368,1.37332 8.7336,2.31562 1.1839,-0.11628 2.7479,0.47845 3.5506,-0.46624 0.8635,-1.01614 -0.4268,-2.91195 0.091,-4.49802 0.8348,-2.55712 2.9896,-4.86318 1.1316,-5.52891 -3.7678,-1.35008 -7.0787,-1.7805 -10.2883,-1.79139 z"
         sodipodi:nodetypes="cccsssc" /><path
         style="display:inline;fill:#e6c78a;fill-opacity:1;stroke:none;stroke-width:0.182004;stroke-opacity:1"
         id="path2222"
         d="m -5750.9591,835.6411 c 0.4627,1.52818 2.2643,3.4747 3.0745,6.14428 0.9366,3.08621 1.8064,7.89259 1.2804,8.31247 -0.7798,-0.43708 -1.5698,-4.8476 -2.3622,-7.71763 -0.9153,-3.31503 -2.8346,-6.12679 -4.1297,-5.47603 0.7896,-1.92017 1.0912,-3.51041 2.1372,-1.26307 z"
         sodipodi:nodetypes="cscsccc"
         inkscape:transform-center-x="-9.8348846"
         inkscape:transform-center-y="15.947343" /><path
         id="path2224"
         style="display:inline;fill:#9b7500;fill-opacity:0.357422;stroke:none;stroke-width:0.274882"
         inkscape:transform-center-x="24.076115"
         inkscape:transform-center-y="15.268034"
         d="m -5771.7339,830.86673 c -1.4236,1.95574 -1.8016,2.23485 -3.6761,4.2316 -0.8468,0.70816 -1.6516,1.46972 -2.5404,2.12442 -2.0076,1.47895 -4.1511,2.7302 -6.5282,3.53174 -1.0404,0.3508 -2.1351,0.52821 -3.2216,0.68594 -2.5527,0.37058 -3.807,0.21248 -6.3882,0.12857 -0.6513,-0.11379 -1.3072,-0.20514 -1.9584,-0.31911 -0.084,0.077 -0.1678,0.15405 -0.2525,0.23097 -0.7463,0.6776 -1.3282,1.57176 -1.9452,2.4074 -1.2967,1.75625 -1.5669,2.88126 -0.4828,5.25454 0.4872,1.06677 0.3643,3.68316 1.522,3.86113 6.4107,0.98529 14.0617,-7.33883 19.7268,-12.74616 1.9554,-1.86634 4.0318,-3.69778 6.196,-5.29993 0.7181,-0.53162 1.4087,-1.14747 2.1738,-1.57899 z m 2.6252,2.51212 0.8907,0.85262 c 0.072,-0.14887 0.989,-1.64956 -0.2952,-1.14025 -0.2044,0.081 -0.4023,0.17867 -0.5955,0.28763 z" /><path
         style="display:inline;fill:#e6c78a;fill-opacity:1;stroke:none;stroke-width:0.229973;stroke-opacity:1"
         id="path2226"
         d="m -5752.1127,829.16691 c 1.7012,0.78539 5.178,0.65153 8.152,2.02158 3.4381,1.58384 8.1564,4.60123 7.9182,5.4279 -1.1861,0.381 -5.5072,-2.39536 -8.6195,-3.94177 -3.5948,-1.7862 -7.879,-2.23191 -8.7667,-0.50177 -0.6564,-2.26921 -1.5807,-3.81884 1.316,-3.00593 z"
         sodipodi:nodetypes="cscsccc"
         inkscape:transform-center-x="-14.531674"
         inkscape:transform-center-y="6.9174523" /><path
         id="path2228"
         style="display:inline;fill:#9b7500;fill-opacity:0.357422;stroke:none;stroke-width:0.260355"
         inkscape:transform-center-x="11.753601"
         inkscape:transform-center-y="20.692344"
         d="m -5765.0809,830.56221 c -1.6921,2.02792 -3.5457,3.93298 -5.3725,5.85862 0.089,0.51039 0.1419,1.06409 0.1487,1.66381 0.016,1.39544 0.066,1.94274 -0.1232,3.39257 -0.059,0.45332 -0.1728,0.898 -0.2787,1.34272 -0.3508,1.47293 -0.814,2.92585 -1.4815,4.28793 -0.9765,1.92843 -1.9727,3.98446 -3.6746,5.39504 -0.5295,0.43889 -1.0822,0.86734 -1.6999,1.16973 -0.6089,0.29804 -1.2928,0.40805 -1.9392,0.61205 -0.6809,-0.0179 -1.3822,0.1116 -2.0429,-0.054 -0.08,-0.0201 -0.159,-0.0414 -0.2366,-0.0636 -1.0395,3.42922 -0.6755,6.02325 1.8215,8.24548 0.1955,0.17399 0.8247,0.82701 1.1625,0.8957 1.2276,0.24967 4.239,-3.38321 4.664,-3.85516 4.2854,-5.51952 6.5416,-9.60645 8.8393,-15.41236 0.9083,-2.25628 1.9638,-4.44084 2.9105,-6.68341 0.5414,-1.2822 1.0045,-3.639 2.1707,-4.41286 z m -13.3973,16.29513 c -0.02,0.0369 -0.04,0.0736 -0.06,0.11035 0.1509,0.16125 0.3024,0.3267 0.454,0.49805 0.01,0.008 0.07,0.083 0.076,0.0785 0.019,-0.0203 0.01,-0.061 -0.01,-0.0855 -0.1057,-0.17599 -0.1932,-0.37451 -0.3503,-0.50667 -0.042,-0.035 -0.076,-0.0632 -0.1143,-0.0948 z" /><path
         style="display:inline;fill:#e6c78a;fill-opacity:1;stroke:none;stroke-width:0.222005;stroke-opacity:1"
         d="m -5758.8929,838.03579 -1.1418,0.53889 c 0.8636,5.87524 0.9363,12.15643 1.1706,13.05656 2.3689,-1.7185 0.6389,-7.6578 -0.029,-13.59581 z"
         id="path2230"
         sodipodi:nodetypes="ccccc"
         inkscape:transform-center-x="-0.44593235"
         inkscape:transform-center-y="18.230227" /><path
         id="path2232"
         style="display:inline;fill:#9b7500;fill-opacity:0.357422;stroke:none;stroke-width:0.26329"
         inkscape:transform-center-x="-14.140331"
         inkscape:transform-center-y="21.825851"
         d="m -5751.4199,832.9769 c -1.1651,-0.003 -1.8721,1.18354 -1.8215,4.03576 l -2.5061,0.23826 c 0.1276,0.21062 0.2551,0.47313 0.3635,0.7035 1.3227,2.81113 2.3581,5.80292 3.3806,8.72133 0.7946,2.26771 1.3017,4.62652 2.1155,6.87825 1.7877,4.94713 4.2681,7.02556 8.6402,9.78437 0.6581,0.41526 1.8335,-0.88319 3.3123,-1.35099 1.2916,-0.40857 2.9306,0.0796 3.141,-0.53649 0.3798,-1.11244 0.2313,-2.77094 -0.2909,-4.73462 -0.2598,-0.0516 -0.5319,-0.10599 -0.8576,-0.169 -1.6017,-0.44931 -2.5438,-0.64436 -4.0785,-1.37552 -0.7184,-0.34228 -1.4143,-0.73581 -2.079,-1.17338 -0.5411,-0.35625 -1.0357,-0.78036 -1.5283,-1.20122 -1.3284,-1.13489 -1.6042,-1.51274 -2.7865,-2.79776 -0.7993,-1.02896 -1.5927,-1.96039 -2.2089,-3.12018 -0.3539,-0.66613 -0.6645,-1.35817 -0.9139,-2.07007 -0.3519,-1.00507 -0.3572,-2.09981 -0.4831,-3.14371 -0.4372,-3.62386 0.8495,-5.72288 2.5462,-6.22578 -1.5342,-1.52767 -2.918,-2.45964 -3.945,-2.46275 z m -4.3276,4.27402 c -0.2457,-0.40555 -0.4919,-0.60795 -0.6022,0.0573 z" /><path
         style="display:inline;fill:#e6c78a;fill-opacity:1;stroke:none;stroke-width:0.222005;stroke-opacity:1"
         d="m -5757.1361,839.09477 -1.0605,0.67425 c 1.0814,5.76843 1.8807,12.60967 2.5009,13.9486 1.5098,-2.1814 -0.3769,-8.95142 -1.4405,-14.62318 z"
         id="path2234"
         sodipodi:nodetypes="ccccc"
         inkscape:transform-center-x="-2.6267686"
         inkscape:transform-center-y="19.802922" /><path
         id="path2236"
         style="display:inline;fill:#9b7500;fill-opacity:0.357422;stroke:none;stroke-width:0.304046"
         inkscape:transform-center-x="-23.144209"
         inkscape:transform-center-y="13.653449"
         d="m -5745.9337,828.28934 -7.0505,2.29772 c 2.046,-0.0977 4.178,2.74412 5.612,4.02251 2.3275,2.07488 4.5955,4.20702 6.9088,6.29636 4.6125,4.16605 5.9362,4.82753 11.4939,7.58274 1.4537,0.7207 4.2476,2.68274 5.9736,2.22549 0.4538,-0.12022 0.9361,-2.48789 1.1972,-2.85674 2.4319,-3.43399 3.7351,-3.1828 -4.1928,-9.57826 -2.0466,-1.65101 -3.914,-2.81877 -5.7284,-3.75277 0.2797,0.25714 0.4832,0.49244 0.8261,0.85858 1.2101,1.50271 2.6493,4.48055 1.0253,5.86525 -4.4142,1.08941 -10.1498,-4.7713 -13.6843,-6.88488 -3.5436,-2.76621 2.9948,-2.89935 4.4682,-2.74771 0.2627,0.035 0.5253,0.0728 0.7873,0.11366 -2.3152,-0.89692 -4.7794,-1.88721 -7.6364,-3.44195 z"
         sodipodi:nodetypes="ccssssssccccccsc" /><path
         style="display:inline;fill:#9b7500;fill-opacity:0.357422;stroke:none;stroke-width:0.271075"
         d="m -5757.7984,836.88712 c 5.0971,19.34897 6.2319,11.93711 4.1207,29.12605 -0.058,0.48022 -2.7326,0.8492 -3.2917,0.80227 -0.842,-0.0707 -3.5874,-1.7451 -4.0359,-2.28925 -3.3092,-4.01606 -1.8624,-6.25234 -2.2149,-10.84674 -0.2055,-2.67678 -0.4201,-5.33459 0.048,-7.96065 0.5628,-3.15701 1.5346,-6.24987 1.8047,-9.46781 0.01,-0.0657 0.3975,-4.46891 -0.5393,-2.90581"
         id="path2238"
         sodipodi:nodetypes="csscsscc"
         inkscape:transform-center-x="-1.2294008"
         inkscape:transform-center-y="23.311491" /><g
         id="g2272"
         transform="matrix(0.86919154,0,0,0.86919154,-5694.4581,754.07905)"
         style="display:inline"><g
           id="g2244"
           transform="translate(44.70346,6.5206166)"><path
             style="fill:#f5cd44;fill-opacity:1;stroke-width:0.78494"
             d="m -137.20659,80.036649 c -0.73948,-2.554381 -1.45441,-5.613171 -1.18429,-8.287291 1.70448,-4.389268 3.76573,-7.853649 6.9236,-9.907004 1.73739,-1.129712 3.26687,-2.191221 5.48999,-2.626852 1.71289,-0.33565 4.05996,-0.151482 5.8583,-0.255924 1.42295,-0.008 2.88415,-0.126482 4.1932,0.08745 1.13402,0.185323 2.61221,1.108728 3.51035,1.526074 1.4734,0.684656 2.23418,1.01013 3.63513,1.904704 1.32287,0.844714 2.93151,1.494924 3.98026,2.559901 1.23696,1.256112 1.74509,2.933738 2.49553,4.431101 2.712324,5.411924 2.538133,11.770115 -3.04709,17.049667 -3.91908,5.501885 -14.62474,8.551308 -19.96569,6.604649 -6.74968,-2.287595 -11.00586,-7.552907 -11.88929,-13.08647 z"
             id="path2240"
             sodipodi:nodetypes="ccsscssssscccc" /><path
             style="fill:#f1a60e;fill-opacity:1;stroke-width:0.78494"
             d="m -137.13016,80.036649 c -0.73948,-2.554381 -1.45441,-5.613171 -1.18429,-8.287291 0.69161,1.056692 1.25077,2.288471 2.17923,3.053593 0.85539,0.704912 2.07941,0.95166 2.76404,1.701328 0.72852,0.797729 0.71804,1.694569 1.10033,2.747329 0.46073,1.268743 1.96823,1.720401 2.9217,2.372922 1.26281,0.864227 2.19024,2.014979 3.60435,1.895586 1.37544,-0.116128 2.44095,-0.194443 4.06636,-0.107018 0.90798,0.04884 2.0719,0.377758 3.16432,0.821985 1.172,0.476589 2.45578,0.260893 3.67439,0.507213 1.17999,0.238516 1.79433,0.741975 2.85976,0.706429 0.61844,-0.02063 1.86332,-0.727874 2.80028,-1.345307 0.66723,-0.439694 1.49632,-0.507234 2.161,-1.003087 0.80489,-0.600449 1.55787,-1.166902 2.13774,-1.517304 1.81563,-1.097137 1.82396,-0.243799 3.89293,-1.130435 -6.01705,12.434317 -18.9119,14.617186 -24.25285,12.670527 -6.74968,-2.287595 -11.00586,-7.552907 -11.88929,-13.08647 z"
             id="path2242"
             sodipodi:nodetypes="ccssssssssssssccc" /></g><path
           d="m -72.686288,92.186332 c -0.845525,-0.482892 -2.445743,0.206853 -1.622958,1.67472 1.230967,2.195887 3.019043,-0.878208 1.622958,-1.67472 v 0"
           style="fill:#b9841f;fill-opacity:1;fill-rule:evenodd;stroke:none;stroke-width:0.0073614"
           id="path2246" /><path
           d="m -59.825548,84.151433 c -0.845525,-0.482892 -2.445743,0.206852 -1.622958,1.67472 1.230967,2.195886 3.019043,-0.878208 1.622958,-1.67472 v 0"
           style="fill:#cf9423;fill-opacity:1;fill-rule:evenodd;stroke:none;stroke-width:0.0073614"
           id="path2248" /><path
           d="m -61.193505,90.592503 c -0.845525,-0.482892 -2.445743,0.206853 -1.622958,1.67472 1.230967,2.195887 3.019043,-0.878208 1.622958,-1.67472 v 0"
           style="fill:#b9841f;fill-opacity:1;fill-rule:evenodd;stroke:none;stroke-width:0.0073614"
           id="path2250" /><path
           d="m -64.34403,76.856868 c -0.845525,-0.482892 -2.445743,0.206853 -1.622958,1.67472 1.230967,2.195887 3.019043,-0.878208 1.622958,-1.67472 v 0"
           style="fill:#cf9423;fill-opacity:1;fill-rule:evenodd;stroke:none;stroke-width:0.0073614"
           id="path2252" /><path
           d="m -63.623699,81.601223 c -0.845525,-0.482892 -2.445743,0.206853 -1.622958,1.67472 1.230967,2.195887 3.019043,-0.878208 1.622958,-1.67472 v 0"
           style="fill:#cf9423;fill-opacity:1;fill-rule:evenodd;stroke:none;stroke-width:0.0073614"
           id="path2254" /><path
           d="m -83.499435,74.120382 c -0.845525,-0.482892 -2.445743,0.206853 -1.622958,1.67472 1.230967,2.195887 3.019043,-0.878208 1.622958,-1.67472 v 0"
           style="fill:#cf9423;fill-opacity:1;fill-rule:evenodd;stroke:none;stroke-width:0.0073614"
           id="path2256" /><path
           d="m -67.20034,95.357598 c -0.908374,0.519946 -2.627398,-0.222513 -1.743441,-1.797322 1.323436,-2.358884 3.242668,0.94499 1.743441,1.797322 v 0"
           style="fill:#b9841f;fill-opacity:1;fill-rule:evenodd;stroke:none;stroke-width:0.00554902"
           id="path2258" /><path
           d="m -76.961741,87.055248 c 0.85327,-0.606151 2.636571,-0.03508 1.910594,1.618514 -1.086804,2.476827 -3.319439,-0.623878 -1.910594,-1.618514 v 0"
           style="fill:#cf9423;fill-opacity:1;fill-rule:evenodd;stroke:none;stroke-width:0.00554902"
           id="path2260" /><path
           d="m -66.335005,89.680355 c -1.207004,0.683903 -3.491157,-0.292679 -2.3166,-2.364081 1.758516,-3.102723 4.308697,1.242979 2.3166,2.364081 v 0"
           style="fill:#cf9423;fill-opacity:1;fill-rule:evenodd;stroke:none;stroke-width:0.00733595"
           id="path2262" /><path
           d="m -58.988162,79.108078 c -0.908374,0.519946 -2.627398,-0.222513 -1.743442,-1.797322 1.323436,-2.358884 3.242668,0.94499 1.743442,1.797322 v 0"
           style="fill:#cf9423;fill-opacity:1;fill-rule:evenodd;stroke:none;stroke-width:0.00554902"
           id="path2264" /><path
           d="m -71.278013,87.165262 c -0.908374,0.519945 -2.627398,-0.222513 -1.743442,-1.797322 1.323436,-2.358884 3.242668,0.94499 1.743442,1.797322 v 0"
           style="fill:#cf9423;fill-opacity:1;fill-rule:evenodd;stroke:none;stroke-width:0.00554902"
           id="path2266" /><path
           d="m -88.534975,78.296806 c -0.824864,0.472145 -2.385852,-0.202057 -1.583161,-1.632088 1.201768,-2.142023 2.944558,0.858114 1.583161,1.632088 v 0"
           style="fill:#cf9423;fill-opacity:1;fill-rule:evenodd;stroke:none;stroke-width:0.00503888"
           id="path2268" /><path
           d="m -85.58574,80.007288 c -0.640012,0.366337 -1.851182,-0.156776 -1.228374,-1.266337 0.932451,-1.661995 2.284682,0.665811 1.228374,1.266337 v 0"
           style="fill:#cf9423;fill-opacity:1;fill-rule:evenodd;stroke:none;stroke-width:0.00390967"
           id="path2270" /></g></g></g></svg>
