<?xml version="1.0" encoding="UTF-8" standalone="no"?>
<!-- Created with Inkscape (http://www.inkscape.org/) -->

<svg
   width="64.286644mm"
   height="139.20058mm"
   viewBox="0 0 64.286644 139.20058"
   version="1.1"
   id="svg5"
   xml:space="preserve"
   inkscape:version="1.2 (dc2aedaf03, 2022-05-15)"
   sodipodi:docname="drawing.svg"
   xmlns:inkscape="http://www.inkscape.org/namespaces/inkscape"
   xmlns:sodipodi="http://sodipodi.sourceforge.net/DTD/sodipodi-0.dtd"
   xmlns="http://www.w3.org/2000/svg"
   xmlns:svg="http://www.w3.org/2000/svg"><sodipodi:namedview
     id="namedview7"
     pagecolor="#505050"
     bordercolor="#eeeeee"
     borderopacity="1"
     inkscape:showpageshadow="0"
     inkscape:pageopacity="0"
     inkscape:pagecheckerboard="0"
     inkscape:deskcolor="#505050"
     inkscape:document-units="mm"
     showgrid="false"
     inkscape:zoom="0.18128859"
     inkscape:cx="-16691.619"
     inkscape:cy="311.65779"
     inkscape:window-width="1920"
     inkscape:window-height="1001"
     inkscape:window-x="-9"
     inkscape:window-y="-9"
     inkscape:window-maximized="1"
     inkscape:current-layer="layer24"
     showguides="true" /><defs
     id="defs2" /><g
     inkscape:groupmode="layer"
     id="layer27"
     inkscape:label="another daisy 7"
     style="display:inline"
     transform="translate(4249.8829,241.27146)"><g
       inkscape:groupmode="layer"
       id="layer29"
       inkscape:label="another daisy 9"
       style="display:inline"><g
         id="g62175"><path
           style="display:inline;fill:#76872a;fill-opacity:1;stroke-width:0.487037"
           d="m -4226.8585,-142.59845 c 32.56,-13.89535 -5.3627,-47.36823 -1.738,-0.0547"
           id="path62032" /><path
           style="display:inline;fill:#495833;fill-opacity:1;stroke-width:0.264583"
           d="m -4233.8066,-139.64573 c 4.1903,-14.78033 16.8718,-12.85195 0,0 z"
           id="path62034"
           sodipodi:nodetypes="cccccc" /><path
           style="display:inline;fill:#76872a;fill-opacity:1;stroke-width:0.487037"
           d="m -4232.9484,-138.99374 c 16.1868,11.38793 72.502,-20.21286 34.3319,-19.42993 -13.296,1.21884 -29.1914,5.40298 -34.3319,19.42993 z"
           id="path62036" /><path
           id="path62038"
           style="display:inline;fill:#495833;fill-opacity:1;stroke-width:0.264583"
           d="m -4191.0528,-155.33563 c -16.6107,-6.20918 -40.9734,18.60683 -11.8418,3.60448 3.8094,-1.59294 7.7428,-2.9799 11.8418,-3.60448 z"
           sodipodi:nodetypes="sccccsscccccss" /><path
           style="display:inline;fill:#495833;fill-opacity:1;stroke-width:0.199656"
           d="m -4220.081,-212.64669 c -16.7612,31.79215 -9.1293,95.5473 -10.5809,110.5758 -17.1819,-32.31187 -2.5051,-79.28746 10.5809,-110.5758 z"
           id="path62040"
           sodipodi:nodetypes="csssssc" /><path
           style="display:inline;fill:#fbdecf;fill-opacity:1;stroke-width:0.345683"
           d="m -4206.1646,-203.55083 c 24.5128,11.20579 16.8334,-34.79555 -2.329,-8.34933 l -3.6632,3.59424"
           id="path62042" /><path
           style="display:inline;fill:#fce4d8;fill-opacity:1;stroke-width:0.345683"
           d="m -4215.1108,-206.85616 c 15.5858,22.5748 -18.5023,11.90446 -1.414,-3.94316"
           id="path62044" /><path
           style="display:inline;fill:#fce4d8;fill-opacity:1;stroke-width:0.345683"
           d="m -4222.2212,-207.9579 c -0.4876,27.52459 -32.0508,-3.61977 -4.3881,-5.23826"
           id="path62046" /><path
           id="path62048"
           style="display:inline;fill:#000000;fill-opacity:0.236074;stroke-width:0.345683"
           d="m -4216.5246,-210.79944 c -13.9963,16.038 20.2371,14.39991 0,0 z" /><path
           id="path62050"
           style="display:inline;fill:#000000;fill-opacity:0.236074;stroke-width:0.345683"
           d="m -4226.6089,-213.19612 c -24.3503,4.3047 14.2832,26.06404 0,0 z" /><path
           style="display:inline;fill:#fdeae0;fill-opacity:1;stroke-width:0.345683"
           d="m -4218.3601,-208.71177 c 19.1867,18.39915 -30.5847,19.00289 -3.3162,-0.60684"
           id="path62052"
           sodipodi:nodetypes="ccccc" /><path
           style="display:inline;fill:#fce4d8;fill-opacity:1;stroke-width:0.345683"
           d="m -4214.5188,-210.13694 c 14.1387,-20.31521 30.4493,25.59081 2.7417,2.68192 l -5.3791,-0.88426"
           id="path62054"
           sodipodi:nodetypes="cccccc" /><path
           style="display:inline;fill:#fdeae0;fill-opacity:1;stroke-width:0.345683"
           d="m -4214.8086,-209.57646 c 28.2843,-3.00713 0.3348,41.25498 -4.8218,2.14497"
           id="path62056"
           sodipodi:nodetypes="ccccccc" /><path
           id="path62058"
           style="display:inline;fill:#fbdecf;fill-opacity:1;stroke-width:0.345683"
           d="m -4215.7956,-237.24767 c -23.4637,11.02491 21.8554,29.40741 0,0 z" /><path
           style="display:inline;fill:#fbdecf;fill-opacity:1;stroke-width:0.345683"
           d="m -4227.4117,-220.61862 c 17.6914,-13.17707 -23.7964,-25.95548 -2.2802,1.14039"
           id="path62060" /><path
           style="display:inline;fill:#fce4d8;fill-opacity:1;stroke-width:0.345683"
           d="m -4212.6501,-215.97574 c 27.6092,-10.20597 -13.2835,-33.53774 -7.3527,-0.20961"
           id="path62062"
           sodipodi:nodetypes="ccccc" /><path
           style="display:inline;fill:#fce4d8;fill-opacity:1;stroke-width:0.345683"
           d="m -4208.1901,-211.99772 c 33.959,0.43018 -9.2498,-45.8935 -1.8147,-0.13533"
           id="path62064" /><path
           id="path62066"
           style="display:inline;fill:#fce4d8;fill-opacity:1;stroke-width:0.345683"
           d="m -4225.3994,-241.27146 c -26.8334,14.99887 29.8107,29.10412 0,0 z" /><path
           style="display:inline;fill:#fbdecf;fill-opacity:1;stroke-width:0.345683"
           d="m -4231.2731,-220.57994 c -6.5392,-26.49511 -36.991,10.66466 -2.2786,4.32976"
           id="path62068" /><path
           style="display:inline;fill:#fbdecf;fill-opacity:1;stroke-width:0.345683"
           d="m -4231.1253,-205.13584 c -22.9145,15.95898 -27.006,-25.38402 -0.043,-4.73569"
           id="path62070" /><path
           style="display:inline;fill:#fdeae0;fill-opacity:1;stroke-width:0.345683"
           d="m -4226.3571,-207.20932 c -4.7419,29.2091 -38.4674,-12.45991 -0.9889,-3.40132"
           id="path62072"
           sodipodi:nodetypes="ccccc" /><path
           style="display:inline;fill:#fdeae0;fill-opacity:1;stroke-width:0.345683"
           d="m -4232.9327,-212.18884 c -26.2171,11.56634 -19.4115,-32.17567 3.7766,0.54125"
           id="path62074" /><path
           style="display:inline;fill:#fdeae0;fill-opacity:1;stroke-width:0.345683"
           d="m -4231.3224,-216.02773 c -32.0212,-6.15826 7.0456,-44.42136 6.0088,-4.26904"
           id="path62076"
           sodipodi:nodetypes="cccccc" /><path
           id="path62078"
           style="display:inline;fill:#fdeae0;fill-opacity:1;stroke-width:0.345683"
           d="m -4210.4851,-228.75209 c -30.5507,-5.91986 -1.8923,37.75443 3.3242,1.59524 z"
           sodipodi:nodetypes="sccccccss" /><path
           style="fill:#f4a002;fill-opacity:1;stroke-width:0.323736"
           d="m -4228.7502,-206.47356 c -15.645,-31.04612 42.4381,-4.47681 3.3872,0.95986 l -3.0783,-1.32367 -2.5331,-2.60826"
           id="path62080" /></g></g></g></svg>
