<?xml version="1.0" encoding="UTF-8" standalone="no"?>
<!-- Created with Inkscape (http://www.inkscape.org/) -->

<svg
   width="81.789505mm"
   height="133.97816mm"
   viewBox="0 0 81.789505 133.97816"
   version="1.1"
   id="svg5"
   xml:space="preserve"
   inkscape:version="1.2 (dc2aedaf03, 2022-05-15)"
   sodipodi:docname="drawing.svg"
   xmlns:inkscape="http://www.inkscape.org/namespaces/inkscape"
   xmlns:sodipodi="http://sodipodi.sourceforge.net/DTD/sodipodi-0.dtd"
   xmlns="http://www.w3.org/2000/svg"
   xmlns:svg="http://www.w3.org/2000/svg"><sodipodi:namedview
     id="namedview7"
     pagecolor="#505050"
     bordercolor="#eeeeee"
     borderopacity="1"
     inkscape:showpageshadow="0"
     inkscape:pageopacity="0"
     inkscape:pagecheckerboard="0"
     inkscape:deskcolor="#505050"
     inkscape:document-units="mm"
     showgrid="false"
     inkscape:zoom="0.18128859"
     inkscape:cx="-16691.619"
     inkscape:cy="311.65779"
     inkscape:window-width="1920"
     inkscape:window-height="1001"
     inkscape:window-x="-9"
     inkscape:window-y="-9"
     inkscape:window-maximized="1"
     inkscape:current-layer="layer24"
     showguides="true" /><defs
     id="defs2" /><g
     inkscape:groupmode="layer"
     id="layer20"
     inkscape:label="another daisy"
     style="display:inline"
     transform="translate(4402.6424,233.51327)"><g
       inkscape:groupmode="layer"
       id="layer22"
       inkscape:label="another daisy 2"
       style="display:inline"><g
         id="g62197"><path
           style="display:inline;fill:#76872a;fill-opacity:1;stroke-width:0.0900417"
           d="m -4355.4565,-140.53165 c -9.5944,-29.63678 60.1746,-35.35016 24.2289,-7.12013 -7.5186,3.95857 -15.9503,5.60675 -24.2289,7.12013 z"
           id="path61946"
           sodipodi:nodetypes="cccccccccccccc" /><path
           style="display:inline;fill:#3b4729;fill-opacity:1;stroke-width:0.264583"
           d="m -4352.8113,-139.92855 c 24.3701,-19.64823 6.5076,-20.04753 0,0 z"
           id="path61948" /><path
           style="display:inline;fill:#495833;fill-opacity:1;stroke-width:0.167555"
           d="m -4365.7308,-209.26443 c 12.4667,31.77044 6.1014,98.12267 7.3717,109.729318 12.4073,-34.191908 2.6866,-76.304158 -7.3717,-109.729318 z"
           id="path61950"
           sodipodi:nodetypes="csssssc" /><path
           style="display:inline;fill:#fbdecf;fill-opacity:1;stroke-width:0.138563"
           d="m -4355.4647,-218.0923 c 12.8797,-18.05193 -20.2779,-20.57549 -6.1426,0.3197"
           id="path61952"
           sodipodi:nodetypes="cccc" /><path
           style="display:inline;fill:#fbdecf;fill-opacity:1;stroke-width:0.138563"
           d="m -4350.7088,-210.63302 c 22.5123,-9.31831 16.9022,36.82224 2.9204,5.20976 l -4.009,-4.52619"
           id="path61954"
           sodipodi:nodetypes="ccccc" /><path
           style="display:inline;fill:#fce4d8;fill-opacity:1;stroke-width:0.138563"
           d="m -4354.6659,-216.51967 c 24.6008,-9.99638 -17.2431,-31.82432 -4.366,-1.52158"
           id="path61956"
           sodipodi:nodetypes="cccc" /><path
           style="display:inline;fill:#fce4d8;fill-opacity:1;stroke-width:0.138563"
           d="m -4368.6567,-215.61909 c -1.3664,-26.48762 -49.4566,4.07331 -14.1573,3.91436 l 6.902,-0.77472 6.2655,-2.95534"
           id="path61958" /><path
           style="display:inline;fill:#fce4d8;fill-opacity:1;stroke-width:0.138563"
           d="m -4389.2957,-188.97744 c -26.608,1.14788 13.0178,-38.10876 20.229,-20.07989"
           id="path61960"
           sodipodi:nodetypes="ccccc" /><path
           style="display:inline;fill:#fdeae0;fill-opacity:1;stroke-width:0.138563"
           d="m -4371.1928,-210.32056 c -12.6061,26.66473 -54.9574,-8.64163 -14.0266,-5.99272 l 7.5939,1.97208 7.2452,3.02256"
           id="path61962"
           sodipodi:nodetypes="ccccccc" /><path
           style="display:inline;fill:#fdeae0;fill-opacity:1;stroke-width:0.138563"
           d="m -4365.3407,-206.80715 c 9.4526,32.71423 -44.4974,7.88413 -0.8562,-4.63942"
           id="path61964"
           sodipodi:nodetypes="ccccc" /><path
           style="display:inline;fill:#fce4d8;fill-opacity:1;stroke-width:0.138563"
           d="m -4350.6485,-210.64783 c 30.5583,-1.01962 -3.741,50.82397 -8.1281,15.02693 l -0.8288,-7.70441 0.3158,-7.74757"
           id="path61966"
           sodipodi:nodetypes="ccscscc" /><path
           style="display:inline;fill:#fdeae0;fill-opacity:1;stroke-width:0.138563"
           d="m -4357.5633,-208.78955 c 26.2721,18.63085 -35.123,36.39005 -11.6819,3.5878 2.5205,-3.56276 6.1855,-6.45855 10.4893,-7.49401"
           id="path61968"
           sodipodi:nodetypes="ccsccc" /><path
           style="display:inline;fill:#fce4d8;fill-opacity:1;stroke-width:0.138563"
           d="m -4347.6822,-213.06074 c 42.3619,-15.60314 -35.248,-10.99413 -0.7168,0.76793"
           id="path61970"
           sodipodi:nodetypes="cccccc" /><path
           style="display:inline;fill:#fce4d8;fill-opacity:1;stroke-width:0.138563"
           d="m -4338.0059,-209.94291 c 20.4318,-11.76264 -33.7848,-5.05718 -3.078,1.30121 1.9021,-0.32623 3.8041,-0.65245 5.7062,-0.97868"
           id="path61972"
           sodipodi:nodetypes="ccccc" /><path
           style="display:inline;fill:#fdeae0;fill-opacity:1;stroke-width:0.138563"
           d="m -4340.3784,-203.42426 c 15.2623,23.21313 27.9073,-27.09665 -0.7289,-11.60487 -4.0682,0.17794 -8.3211,1.10808 -11.5323,3.79031"
           id="path61974"
           sodipodi:nodetypes="ccccc" /><path
           style="display:inline;fill:#fdeae0;fill-opacity:1;stroke-width:0.138563"
           d="m -4335.8866,-224.27929 c -11.3509,-22.9401 -24.0366,27.9654 -2.156,2.34911 l 1.4185,-1.41512 0.661,-0.65946"
           id="path61976"
           sodipodi:nodetypes="csscccc" /><path
           style="display:inline;fill:#fbdecf;fill-opacity:1;stroke-width:0.138563"
           d="m -4360.7385,-219.85291 c 10.918,-12.70389 -22.2718,-18.33502 -1.4507,0.61433"
           id="path61978"
           sodipodi:nodetypes="ccsccc" /><path
           style="display:inline;fill:#fdeae0;fill-opacity:1;stroke-width:0.138563"
           d="m -4361.0821,-220.2858 c 2.5928,-28.03993 -35.689,4.19322 -0.8193,2.30301"
           id="path61980"
           sodipodi:nodetypes="cccccc" /><path
           style="display:inline;fill:#fdeae0;fill-opacity:1;stroke-width:0.138563"
           d="m -4366.8409,-218.16594 c 1.3897,-24.40062 -38.2715,2.0011 0,0 z"
           id="path61982"
           sodipodi:nodetypes="ccsccc" /><path
           style="display:inline;fill:#f4a002;fill-opacity:1;stroke-width:0.167038"
           d="m -4350.5351,-212.64129 c -13.7682,22.12807 -37.7801,-20.27363 -1.7651,-1.53931"
           id="path61984"
           sodipodi:nodetypes="cccccccc" /></g></g></g></svg>
