<?xml version="1.0" encoding="UTF-8" standalone="no"?>
<!-- Created with Inkscape (http://www.inkscape.org/) -->

<svg
   width="63.1679mm"
   height="128.9359mm"
   viewBox="0 0 63.1679 128.9359"
   version="1.1"
   id="svg5"
   xml:space="preserve"
   inkscape:version="1.2 (dc2aedaf03, 2022-05-15)"
   sodipodi:docname="drawing.svg"
   xmlns:inkscape="http://www.inkscape.org/namespaces/inkscape"
   xmlns:sodipodi="http://sodipodi.sourceforge.net/DTD/sodipodi-0.dtd"
   xmlns="http://www.w3.org/2000/svg"
   xmlns:svg="http://www.w3.org/2000/svg"><sodipodi:namedview
     id="namedview7"
     pagecolor="#505050"
     bordercolor="#eeeeee"
     borderopacity="1"
     inkscape:showpageshadow="0"
     inkscape:pageopacity="0"
     inkscape:pagecheckerboard="0"
     inkscape:deskcolor="#505050"
     inkscape:document-units="mm"
     showgrid="false"
     inkscape:zoom="0.18128859"
     inkscape:cx="-16691.619"
     inkscape:cy="311.65779"
     inkscape:window-width="1920"
     inkscape:window-height="1001"
     inkscape:window-x="-9"
     inkscape:window-y="-9"
     inkscape:window-maximized="1"
     inkscape:current-layer="layer24"
     showguides="true" /><defs
     id="defs2" /><g
     inkscape:groupmode="layer"
     id="layer24"
     inkscape:label="another daisy 4"
     style="display:inline"
     transform="translate(4549.9516,232.4471)"><g
       id="g62220"><path
         style="display:inline;fill:#495833;fill-opacity:1;stroke-width:0.167555"
         d="m -4512.754,-213.24051 c -12.4667,31.77043 -6.1014,98.12266 -7.3718,109.72931 -12.407,-34.19182 -2.6867,-76.30435 7.3718,-109.72931 z"
         id="path61988"
         sodipodi:nodetypes="csssssc" /><path
         style="display:inline;fill:#fce4d8;fill-opacity:1;stroke-width:0.322178"
         d="m -4513.0874,-224.8433 c 9.4148,-21.26684 32.5721,20.41018 5.5381,7.75493"
         id="path61990" /><path
         style="display:inline;fill:#fce4d8;fill-opacity:1;stroke-width:0.322178"
         d="m -4517.5664,-214.98553 c -24.0997,21.63523 41.5771,23.06372 6.9184,-0.19828 l -3.0193,-1.13154 -3.2257,-0.008"
         id="path61992" /><path
         style="display:inline;fill:#fbdecf;fill-opacity:1;stroke-width:0.322178"
         d="m -4522.1551,-218.12799 c -28.8622,-11.55318 -5.5121,43.67661 0.641,4.6144 0.012,-3.10559 -2.1591,-6.78509 -5.725,-6.6034"
         id="path61994" /><path
         style="display:inline;fill:#fbdecf;fill-opacity:1;stroke-width:0.322178"
         d="m -4503.6558,-212.26256 c 1.4838,24.47434 38.048,-4.39636 -1.3185,-1.99486"
         id="path61996" /><path
         style="display:inline;fill:#fce4d8;fill-opacity:1;stroke-width:0.322178"
         d="m -4511.1685,-215.12569 c -5.5782,30.86132 49.732,11.14586 1.1504,-0.80804"
         id="path61998" /><path
         style="display:inline;fill:#fdeae0;fill-opacity:1;stroke-width:0.322178"
         d="m -4518.7793,-212.28779 c 1.1954,38.91411 41.0118,-4.39977 0,0 z"
         id="path62000" /><path
         style="display:inline;fill:#fce4d8;fill-opacity:1;stroke-width:0.322178"
         d="m -4512.1926,-218.85948 c 19.84,-19.80409 42.2332,26.77391 0.533,7.44942"
         id="path62002" /><path
         id="path62004"
         style="display:inline;fill:#000000;fill-opacity:0.238727;stroke-width:0.322178"
         d="m -4501.8702,-220.47813 c -19.5348,13.4333 24.7365,-0.16445 0,0 z m -9.8717,7.91855 c -3.7291,-0.91411 3.2107,3.06099 0,0 z m 15.1128,-3.14943 0.2807,0.15102 z" /><path
         style="display:inline;fill:#fdeae0;fill-opacity:1;stroke-width:0.322178"
         d="m -4510.8337,-216.87024 c 11.5764,-22.083 29.9343,14.53954 -0.012,2.08579"
         id="path62006" /><path
         style="display:inline;fill:#fce4d8;fill-opacity:1;stroke-width:0.322178"
         d="m -4535.103,-220.81867 c -28.6775,-11.84025 3.1369,26.62133 0.9525,-0.793 -1.8706,-1.89798 -4.7063,-0.0976 -6.9851,-0.36861"
         id="path62008" /><path
         style="display:inline;fill:#fbdecf;fill-opacity:1;stroke-width:0.322178"
         d="m -4535.1311,-213.41993 c -34.9277,2.47605 10.5341,-27.38611 -2.7621,0.1677 l -5.0663,-1.40519"
         id="path62010" /><path
         id="path62012"
         style="display:inline;fill:#fce4d8;fill-opacity:1;stroke-width:0.37408"
         d="m -4545.0459,-230.68568 c -4.749,26.77497 48.8154,-2.5613 0,0 z" /><path
         style="display:inline;fill:#fdeae0;fill-opacity:1;stroke-width:0.322178"
         d="m -4527.2948,-221.59604 c -32.0427,-13.81465 22.2817,-15.46301 -3.8777,1.03382"
         id="path62014" /><path
         style="display:inline;fill:#fdeae0;fill-opacity:1;stroke-width:0.322178"
         d="m -4520.9895,-221.19745 c -28.3782,11.26363 27.2405,32.53829 2.2896,0.91169 l -3.3086,-0.96565 -3.3022,1.39221"
         id="path62016" /><path
         style="display:inline;fill:#fdeae0;fill-opacity:1;stroke-width:0.322178"
         d="m -4527.9761,-223.52062 c -26.9864,-12.90826 -4.701,34.81283 -1.8238,0.22726"
         id="path62018" /><path
         style="display:inline;fill:#f4a002;fill-opacity:1;stroke-width:0.264006"
         d="m -4533.6577,-224.73785 c 20.8625,-22.25895 38.5905,27.19683 2.8028,2.29791 l -1.9831,-1.62587 z"
         id="path62020" /><path
         style="fill:#76872a;fill-opacity:1;stroke-width:0.264583"
         d="m -4525.9939,-134.47434 c -20.7967,2.8984 -37.4828,-30.9769 -8.1496,-13.90649 4.6176,3.01538 8.39,8.13347 8.1496,13.90649 z"
         id="path62022" /><path
         style="display:inline;fill:#76872a;fill-opacity:1;stroke-width:0.308188"
         d="m -4521.8691,-154.95054 c 15.8958,0.36664 53.0687,-29.93696 17.3628,-22.18702 -8.5594,4.56089 -15.3505,12.89585 -16.9584,22.59222"
         id="path62024" /><path
         style="fill:#495833;fill-opacity:1;stroke-width:0.299585"
         d="m -4524.9915,-134.90824 c -15.4796,-5.41386 -11.7968,-18.09445 -0.8213,0.1828"
         id="path62026"
         sodipodi:nodetypes="ccccccccc" /><path
         style="fill:#495833;fill-opacity:1;stroke-width:0.264583"
         d="m -4523.1028,-153.87034 c 13.1808,-11.89156 14.4702,-17.73578 -0.7725,0.0416"
         id="path62028"
         sodipodi:nodetypes="cccccc" /></g></g></svg>
