<?xml version="1.0" encoding="UTF-8" standalone="no"?>
<!-- Created with Inkscape (http://www.inkscape.org/) -->

<svg
   width="96.834618mm"
   height="143.92825mm"
   viewBox="0 0 96.834618 143.92825"
   version="1.1"
   id="svg5"
   xml:space="preserve"
   inkscape:version="1.2 (dc2aedaf03, 2022-05-15)"
   sodipodi:docname="drawing.svg"
   xmlns:inkscape="http://www.inkscape.org/namespaces/inkscape"
   xmlns:sodipodi="http://sodipodi.sourceforge.net/DTD/sodipodi-0.dtd"
   xmlns="http://www.w3.org/2000/svg"
   xmlns:svg="http://www.w3.org/2000/svg"><sodipodi:namedview
     id="namedview7"
     pagecolor="#505050"
     bordercolor="#eeeeee"
     borderopacity="1"
     inkscape:showpageshadow="0"
     inkscape:pageopacity="0"
     inkscape:pagecheckerboard="0"
     inkscape:deskcolor="#505050"
     inkscape:document-units="mm"
     showgrid="false"
     inkscape:zoom="0.18128859"
     inkscape:cx="-16691.619"
     inkscape:cy="311.65779"
     inkscape:window-width="1920"
     inkscape:window-height="1001"
     inkscape:window-x="-9"
     inkscape:window-y="-9"
     inkscape:window-maximized="1"
     inkscape:current-layer="layer24"
     showguides="true" /><defs
     id="defs2" /><g
     inkscape:groupmode="layer"
     id="layer24"
     inkscape:label="another daisy 4"
     style="display:inline"
     transform="translate(4545.755,-308.9497)"><g
       id="g61570"><path
         style="opacity:1;fill:#76872a;fill-opacity:1;stroke-width:0.264583"
         d="m -4505.2806,411.47026 c -0.3095,0.039 -0.6223,0.058 -0.9287,0.1173 -1.2845,0.2497 -1.0713,0.3942 -2.4929,0.4986 -1.4044,0.103 -3.4358,0.053 -4.8392,0 -0.7435,-0.028 -1.5721,-0.064 -2.2974,-0.2347 -0.2878,-0.068 -1.2671,-0.5559 -0.7167,-0.9971 0.7826,-0.6276 2.3913,-0.7263 3.3237,-0.9238 0.4871,-0.1031 0.4881,-0.097 0.8636,-0.1613 0.1685,-0.029 0.3357,-0.065 0.5051,-0.088 0.054,-0.01 0.2172,0 0.1629,0 -2.591,0 -5.4147,-0.2762 -7.7721,-1.437 -0.7583,-0.3734 -2.0563,-0.8875 -2.346,-1.833 -0.074,-0.2423 0.9411,-0.169 1.1731,-0.1906 0.6218,-0.058 1.234,-0.2118 1.8574,-0.2639 0.8009,-0.067 1.4621,0.1159 0.6027,-0.6746 -0.1159,-0.1066 -0.2323,-0.2134 -0.3582,-0.3079 -0.2657,-0.1991 -0.543,-0.3816 -0.8147,-0.5719 -0.391,-0.2737 -0.7816,-0.5482 -1.1732,-0.8211 -1.456,-1.0148 -1.0297,-0.7435 -2.3137,-1.5397 -2.3413,-1.4519 -5.3991,-2.8611 -8.1794,-3.226 -0.777,-0.102 -4.6294,0.2429 -4.8228,-0.3666 -0.1534,-0.4831 0.2884,-0.6614 0.6678,-0.7919 1.4891,-0.5116 3.1279,-0.086 4.6276,0.1467 0.2066,0.032 0.7847,0.038 0.5376,-0.3959 -0.517,-0.9083 -2.8165,-1.4162 -3.666,-1.657 -2.9756,-0.8434 -6.077,-0.6447 -9.1081,-1.0705 -0.7543,-0.1059 -2.6019,-0.1981 -2.9493,-1.1877 -0.029,-0.083 -0.034,-0.4641 0.081,-0.5719 1.2827,-1.1963 3.1499,-1.7199 4.8231,-2.0822 1.7187,-0.3723 5.8343,-0.7886 7.4949,-0.44 2.1047,0.442 4.2415,1.2842 6.2079,2.1409 0.685,0.2984 1.3978,0.6969 2.0203,1.0998 0.2665,0.1724 0.6223,0.5696 0.9451,0.6892 0.3331,0.1234 0.1567,-1.0572 0.1791,-1.2318 0.1628,-1.2593 2.5369,0.7168 2.7374,0.8945 1.0359,0.9184 2.1693,1.8139 2.998,2.9328 1.2285,1.6581 1.8312,3.1684 3.715,4.2378 0.1839,0.1044 0.3588,0.2709 0.5702,0.2786 0.1635,0.01 -0.1841,-0.2732 -0.2445,-0.4253 -0.1746,-0.4424 -0.6043,-1.5464 -0.1465,-1.9209 1.0165,-0.8316 1.9931,-0.1934 3.0469,0.2639 1.5587,0.6763 2.8866,1.3906 4.0082,2.6981 0.7112,0.8292 1.8359,2.0548 2.4929,3.0501 0.8107,1.2276 3.0183,5.0413 1.2221,6.3346 -0.2458,0.1771 -1.4941,0.033 -1.6947,0.029 z"
         id="path54587" /><path
         style="display:inline;fill:#76872a;fill-opacity:1;stroke-width:0.308188"
         d="m -4501.1558,390.99406 c 2.3537,-0.4609 7.063,1.6728 7.595,-0.8808 -4.0972,-1.2822 7.1579,0.071 4.8468,-3.739 -2.1383,-0.2785 -3.5725,0.1306 -0.4405,-0.5955 1.9706,-0.017 8.9195,-2.2726 3.845,-2.6874 -2.8018,-0.3563 5.8793,0.4947 5.663,-2.3868 -3.6221,-1.9332 5.1367,-1.0843 7.0961,-1.5199 2.6542,0.1728 3.4152,-2.0704 0.3461,-2.4026 1.2187,-1.0741 7.2711,-1.0169 10.0049,-2.5417 2.8646,-0.4225 1.856,-2.9899 -0.6217,-2.5299 3.7372,-1.92 7.0519,-4.6664 10.0655,-7.5384 1.3266,-5.8005 -6.4688,-2.3914 -9.5596,-2.0095 -1.8504,0.3414 -7.183,4.225 -6.7845,3.3075 1.7896,-3.5398 -4.4806,0.3368 -5.9116,0.8972 -1.5468,0.628 -4.8421,3.0428 -4.0261,0.053 -3.0677,0.2895 -5.5013,7.8296 -7.1324,4.3234 -2.4208,0.4482 -4.9111,7.8909 -6.3807,4.4396 -2.824,-1.214 -3.8935,5.2369 -5.6521,7.2572 -0.5803,2.7922 -1.3862,0.3611 -2.6627,0.8525 -1.4608,2.4284 -2.1116,5.9006 0.1139,8.1063"
         id="path54423" /><path
         style="opacity:1;fill:#495833;fill-opacity:1;stroke-width:0.299585"
         d="m -4504.2782,411.03636 c -2.9048,-1.7339 -4.9734,-4.7244 -7.8583,-6.4959 -7.2983,-4.9301 -16.2578,-9.391 -23.993,-10.8024 0.4003,-1.4709 1.7461,-0.332 2.766,-0.5767 3.067,-0.109 8.5246,2.5644 10.9886,4.0708 3.338,2.0284 4.3681,2.4117 7.8342,4.1989 2.8628,1.8539 5.4678,4.1322 8.3474,5.9584 1.0164,0.7238 3.4572,1.7847 2.1028,3.7126 -0.296,-0.01 -0.8406,0.3775 -1.009,0.1171"
         id="path54867"
         sodipodi:nodetypes="ccccccccc" /><path
         id="path55174"
         style="display:inline;fill:#606d22;fill-opacity:1;stroke-width:0.308188"
         d="m -4452.6186,363.29606 c -1.0589,0.1288 -2.1163,0.2703 -3.1714,0.4325 -2.3533,0.4335 -3.3117,0.5808 -5.6482,1.1297 -3.7415,0.8789 -7.4217,2.0487 -10.9306,3.6245 -0.8739,0.4054 -1.7557,0.7947 -2.6221,1.216 -4.2606,2.0718 -8.3787,4.4506 -12.3248,7.0698 -0.7317,0.5083 -1.4788,0.9954 -2.1952,1.525 -0.6698,0.4952 -1.3138,1.0245 -1.9616,1.5482 -2.622,2.12 -5.0997,4.4093 -7.5391,6.735 -0.8273,0.7773 -1.9716,1.8752 -2.9699,2.7492 0.1716,0.5916 0.4514,1.1538 0.8605,1.663 2.3646,-0.4344 7.0307,1.6656 7.5602,-0.8759 -4.0972,-1.2822 7.1579,0.071 4.8468,-3.7388 -2.1383,-0.2785 -3.5723,0.1307 -0.4403,-0.5954 1.9706,-0.017 8.9192,-2.2728 3.8447,-2.6876 -2.8018,-0.3563 5.8795,0.495 5.6632,-2.3865 -3.6221,-1.9331 5.1368,-1.0847 7.0962,-1.5203 2.6542,0.1728 3.4148,-2.0702 0.3457,-2.4024 1.2187,-1.0741 7.2713,-1.0171 10.0051,-2.542 2.8646,-0.4225 1.856,-2.9895 -0.6217,-2.5295 3.7372,-1.9201 7.052,-4.6666 10.0656,-7.5386 0.073,-0.3199 0.1169,-0.61 0.1369,-0.8759 z m -48.5024,27.6929 c -0.011,0 -0.024,0 -0.035,0 l 0.4041,0.4056 c -0.1336,-0.1324 -0.2561,-0.2697 -0.3694,-0.4108 z" /><path
         style="opacity:1;fill:#495833;fill-opacity:1;stroke-width:0.264583"
         d="m -4502.3895,392.07426 c 2.2792,-3.0552 4.9979,-6.3431 7.8492,-8.8062 5.2285,-3.6445 10.9649,-6.4833 16.374,-9.8301 14.2391,-5.2834 -3.418,-0.5867 -11.8109,5.6456 -3.4159,2.0491 -6.508,4.546 -9.2261,7.4567 -1.1653,1.8034 -4.827,3.1549 -3.9587,5.5756"
         id="path54871"
         sodipodi:nodetypes="cccccc" /><path
         style="display:inline;fill:#495833;fill-opacity:1;stroke-width:0.167555"
         d="m -4349.3064,165.08108 c -0.09,1.00489 -8.881,36.33261 -8.7785,69.54361 0.066,21.53285 4.5186,44.65647 4.5575,49.33735 0.011,1.3526 -2.9153,1.89204 -3.5797,0.38801 -2.5733,-5.82466 -5.6463,-23.94785 -4.9272,-46.30222 0.8755,-27.21505 7.1452,-59.59077 10.015,-72.6582 0.9212,-4.1948 2.7129,-0.30855 2.7129,-0.30855 z"
         id="path46270-9"
         sodipodi:nodetypes="csssssc"
         transform="translate(-142.73433,167.62301)" /><path
         id="path46272-6"
         style="display:inline;fill:#3b4729;fill-opacity:1;stroke-width:0.167555"
         d="m -4350.8693,163.4422 c -0.4141,0.0186 -0.8334,0.50591 -1.15,1.94751 -2.8698,13.06739 -9.1395,45.44322 -10.015,72.6582 -0.7191,22.35429 2.3539,40.47762 4.9272,46.30225 0.6644,1.50401 3.5912,0.96447 3.5798,-0.38813 -0.02,-2.47058 -1.2698,-10.10163 -2.4554,-19.90212 -3.2756,-6.11029 -3.7759,-13.77654 -4.3457,-22.04978 -0.9344,-13.56788 -0.2268,-28.63834 2.9347,-40.59406 0.5993,-2.26636 1.7714,-4.28659 2.4686,-6.25319 2.495,-16.96808 5.5655,-29.48974 5.6187,-30.08178 0,0 -0.7716,-1.67333 -1.5624,-1.6389 z"
         sodipodi:nodetypes="ssssccssccss"
         transform="translate(-142.73433,167.62301)" /><path
         style="display:inline;opacity:1;fill:#fce4d8;fill-opacity:1;stroke-width:0.277471"
         d="m -4482.339,320.2428 c 1.9152,-1.10729 1.792,-1.24076 3.9347,-1.69757 4.2193,-0.89954 8.7075,-1.44483 12.9683,-0.47356 0.3536,0.0806 0.7387,0.0938 1.0528,0.27542 0.5308,0.30694 0.9771,0.74387 1.4281,1.15922 1.7806,1.63992 3.4077,5.03721 0.3252,6.63934 -1.8693,0.97155 -6.7657,1.35036 -9.0646,1.17376 -1.9126,-0.14692 -4.0062,-0.89922 -5.8749,-0.39776"
         id="path47437" /><path
         id="path54053"
         style="display:inline;opacity:1;fill:#000000;fill-opacity:0.238727;stroke-width:0.277471"
         d="m -4477.1886,318.29963 c -0.4072,0.0784 -0.8129,0.15967 -1.2156,0.24553 -2.1428,0.4568 -2.0194,0.59035 -3.9347,1.69762 l 4.7692,6.67888 c 1.8687,-0.50151 3.9627,0.25102 5.8753,0.39793 0.1277,0.01 0.2648,0.0175 0.4076,0.0239 -0.428,-1.48655 -0.9619,-2.92002 -1.6812,-4.31563 -0.4003,-0.7788 -0.8137,-1.54814 -1.2345,-2.31467 -0.1752,-0.12923 -0.3632,-0.26797 -0.8239,-0.61008 -0.7476,-0.55538 -1.5536,-1.09498 -2.1622,-1.80351 z" /><path
         style="display:inline;opacity:1;fill:#fce4d8;fill-opacity:1;stroke-width:0.277471"
         d="m -4492.5816,328.18537 c -0.9324,3.77032 -2.483,7.45739 -2.7065,11.37401 -0.082,1.43303 -0.012,2.87076 0,4.30607 0.01,0.80991 -0.2707,5.2322 0.6042,6.69827 0.833,1.39604 2.3612,1.76203 3.6972,2.39226 2.1859,1.03108 3.5388,1.98072 6.0412,1.19612 1.6748,-0.52509 2.8925,-0.85425 4.1565,-2.15304 1.9724,-2.02669 2.3519,-7.47737 1.9814,-10.13441 -0.3285,-2.35721 -1.6368,-5.9545 -2.7064,-8.13365 -0.8103,-1.65075 -2.1271,-4.9077 -4.1563,-5.39341 -1.1231,-0.26878 -2.1579,-0.2144 -3.2624,-0.65241 -0.7923,-0.31427 -1.4926,-0.98112 -2.3439,-1.02216 -0.6865,-0.0331 -0.6368,0.0125 -0.725,0.36971"
         id="path47423" /><path
         style="display:inline;opacity:1;fill:#000000;fill-opacity:0.238727;stroke-width:0.277471"
         d="m -4492.5816,328.18537 c -0.9324,3.77032 -2.483,7.45739 -2.7065,11.37401 -0.082,1.43303 -0.012,2.87076 0,4.30607 0.01,0.80991 -0.2707,5.2322 0.6042,6.69827 0.833,1.39604 2.3612,1.76203 3.6972,2.39226 2.1859,1.03108 3.5388,1.98072 6.0412,1.19612 1.6748,-0.52509 2.8925,-0.85425 4.1565,-2.15304 1.9724,-2.02669 2.3519,-7.47737 1.9814,-10.13441 -0.3285,-2.35721 -1.6368,-5.9545 -2.7064,-8.13365 -0.8103,-1.65075 -2.1271,-4.9077 -4.1563,-5.39341 -1.1231,-0.26878 -2.1579,-0.2144 -3.2624,-0.65241 -0.7923,-0.31427 -1.4926,-0.98112 -2.3439,-1.02216 -0.6865,-0.0331 -0.6368,0.0125 -0.725,0.36971"
         id="path54055" /><path
         style="display:inline;opacity:1;fill:#fbdecf;fill-opacity:1;stroke-width:0.277471"
         d="m -4496.5335,325.47897 c -2.9563,0.4215 -5.9806,0.5057 -8.8689,1.26447 -5.0355,1.32297 -11.3794,8.83888 -14.3963,12.8044 -0.4166,0.54768 -2.1898,3.61654 -1.7734,4.02451 1.4702,1.44049 5.6219,1.48124 7.5043,1.42409 9.7055,-0.29482 16.1446,-6.52558 18.0995,-15.68311 0.1461,-0.68418 0.6072,-2.03909 0.2513,-2.6816 -0.9072,-1.63738 -3.1786,-4.14656 -5.195,-2.86576"
         id="path47425" /><path
         style="display:inline;opacity:1;fill:#fbdecf;fill-opacity:1;stroke-width:0.277471"
         d="m -4474.2162,331.07779 c 3.1685,4.53089 5.6403,6.47042 9.9802,9.39501 3.1785,2.14196 6.6304,3.82311 9.956,5.71963 0.4219,0.24065 2.4036,1.75587 2.8515,0.71768 0.6869,-1.59249 0.2368,-3.33671 -0.29,-4.87149 -0.5236,-1.52554 -0.7866,-2.40063 -1.5707,-3.67533 -3.4006,-5.52852 -10.3451,-7.11945 -16.3114,-7.89443 -1.5772,-0.20487 -3.0484,-0.18142 -4.5914,-0.54369 -0.1517,-0.0356 -1.0821,-0.0348 -1.1357,-0.19573 -0.039,-0.11714 -0.016,-0.24648 -0.024,-0.3697"
         id="path47427" /><path
         style="display:inline;opacity:1;fill:#000000;fill-opacity:0.27321;stroke-width:0.277471"
         d="m -4474.2162,331.07779 c 3.1685,4.53089 5.6403,6.47042 9.9802,9.39501 3.1785,2.14196 6.6304,3.82311 9.956,5.71963 0.4219,0.24065 2.4036,1.75587 2.8515,0.71768 0.6869,-1.59249 0.2368,-3.33671 -0.29,-4.87149 -0.5236,-1.52554 -0.7866,-2.40063 -1.5707,-3.67533 -3.4006,-5.52852 -10.3451,-7.11945 -16.3114,-7.89443 -1.5772,-0.20487 -3.0484,-0.18142 -4.5914,-0.54369 -0.1517,-0.0356 -1.0821,-0.0348 -1.1357,-0.19573 -0.039,-0.11714 -0.016,-0.24648 -0.024,-0.3697"
         id="path54059" /><path
         style="display:inline;opacity:1;fill:#fce4d8;fill-opacity:1;stroke-width:0.277471"
         d="m -4480.6864,328.61196 c 1.74,2.47198 3.52,4.91612 5.2197,7.41594 1.7981,2.64475 3.5405,5.49619 5.0021,8.35112 2.0515,4.00722 1.1918,4.7324 5.2439,7.50295 0.1752,0.11976 5.5103,2.07302 5.6787,1.93553 1.0333,-0.84334 1.3823,-2.19152 1.8125,-3.39261 1.2438,-3.47303 0.8412,-7.29818 -1.3533,-10.33017 -1.2993,-1.79511 -3.3786,-3.06387 -5.0747,-4.43652 -2.8291,-2.28968 -5.6228,-4.89075 -9.1102,-6.15458 -1.2454,-0.45133 -3.2724,-1.08902 -4.6156,-1.30487 -0.6582,-0.10579 -1.3749,0.24207 -1.8123,-0.28271"
         id="path47429" /><path
         id="path54061"
         style="display:inline;opacity:1;fill:#000000;fill-opacity:0.270557;stroke-width:0.277471"
         d="m -4479.6968,327.91615 -0.9896,0.69585 c 1.74,2.47197 3.5198,4.91609 5.2195,7.41586 1.7981,2.64475 3.541,5.49637 5.0025,8.35125 2.0515,4.00723 1.1917,4.73262 5.2438,7.50312 0.1752,0.11976 5.5101,2.07275 5.6785,1.93526 0.7447,-0.60778 1.134,-1.47639 1.4545,-2.36393 -0.3022,-0.0556 -0.5973,-0.14965 -0.8915,-0.23954 -0.8994,-0.27495 -1.1874,-0.44112 -2.0485,-0.83349 -0.9464,-0.53285 -1.2046,-0.63197 -2.0652,-1.29957 -1.4257,-1.10548 -2.6313,-2.47408 -3.5736,-4.00979 -0.2151,-0.39815 -0.4436,-0.7891 -0.6449,-1.19443 -0.2895,-0.58289 -0.581,-1.26347 -0.8319,-1.90817 -0.3456,-0.5221 -0.6446,-1.07415 -0.8806,-1.65615 -0.083,-0.23191 -0.1759,-0.4607 -0.2493,-0.69585 -0.2301,-0.73564 -0.3855,-1.52333 -0.3729,-2.29727 0.01,-0.59946 0.071,-0.86294 0.1756,-1.33642 0.01,-0.38324 0.046,-0.78347 0.1138,-1.12885 0.067,-0.3449 0.1776,-0.87157 0.5403,-1.07087 0.087,-0.0478 0.1925,-0.006 0.2948,0.0195 0.1423,-0.20145 0.2973,-0.36515 0.5712,-0.59667 0.1158,-0.0978 0.2364,-0.19518 0.3685,-0.26935 v -5.4e-4 c 0.01,-0.015 0.021,-0.0275 0.03,-0.0417 -1.76,-1.37563 -3.6117,-2.62777 -5.7174,-3.3909 -1.2455,-0.45133 -3.2725,-1.08914 -4.6157,-1.30498 -0.6583,-0.1058 -1.3749,0.24244 -1.8123,-0.28235 z" /><path
         style="display:inline;opacity:1;fill:#fdeae0;fill-opacity:1;stroke-width:0.277471"
         d="m -4487.2411,331.05606 c 2.7598,3.40098 5.1212,6.95387 7.0078,10.89558 1.3778,2.87855 2.2302,5.96952 3.0207,9.04702 0.3121,1.21549 0.8734,5.13867 1.8365,6.13285 0.277,0.28593 0.6847,0.42057 1.0633,0.5437 2.8345,0.92205 4.2322,-1.40167 5.3405,-3.61012 2.1559,-4.29635 0.8583,-7.11585 -0.7733,-11.33054 -1.2189,-3.14869 -2.8118,-7.86258 -5.5097,-10.02566 -1.9111,-1.53234 -6.0747,-2.87514 -8.4577,-2.45749 -1.1881,0.20822 -2.3521,0.53643 -3.5281,0.80466 z"
         id="path47431" /><path
         style="display:inline;opacity:1;fill:#000000;fill-opacity:0.238727;stroke-width:0.277471"
         d="m -4487.2411,331.05606 c 2.7598,3.40098 5.1212,6.95387 7.0078,10.89558 1.3778,2.87855 2.2302,5.96952 3.0207,9.04702 0.3121,1.21549 0.8734,5.13867 1.8365,6.13285 0.277,0.28593 0.6847,0.42057 1.0633,0.5437 2.8345,0.92205 4.2322,-1.40167 5.3405,-3.61012 2.1559,-4.29635 0.8583,-7.11585 -0.7733,-11.33054 -1.2189,-3.14869 -2.8118,-7.86258 -5.5097,-10.02566 -1.9111,-1.53234 -6.0747,-2.87514 -8.4577,-2.45749 -1.1881,0.20822 -2.3521,0.53643 -3.5281,0.80466 z"
         id="path54063" /><path
         style="display:inline;opacity:1;fill:#fce4d8;fill-opacity:1;stroke-width:0.277471"
         d="m -4481.5684,325.39628 c 1.0874,-0.32622 2.1508,-0.74723 3.2622,-0.97867 2.4023,-0.50022 5.0483,-0.40384 7.4912,-0.41318 2.4957,-0.009 4.8782,-0.005 7.3462,0.32619 2.7852,0.37392 5.5138,0.81633 7.9261,2.3705 2.2669,1.46055 3.7864,3.82855 5.0747,6.13285 1.0324,1.84663 1.5465,3.77561 1.5465,5.87189 0,2.50593 0.1383,2.54097 -2.6823,1.67457 -1.6731,-0.51394 -3.7657,-1.20723 -5.3888,-1.84858 -2.8815,-1.13849 -5.5813,-2.65895 -8.4819,-3.76233 -2.7531,-1.04728 -5.6181,-1.72659 -8.4819,-2.39224 -1.9681,-0.45747 -3.9369,-0.94102 -5.9204,-1.32663 -0.5055,-0.0983 -1.0124,-0.19156 -1.5224,-0.26096 -0.056,-0.007 -0.7049,-0.0295 -0.7009,-0.0216 0.3053,0.58865 0.51,0.67298 0.9908,1.0439"
         id="path47433" /><path
         id="path54065"
         style="display:inline;opacity:1;fill:#000000;fill-opacity:0.238727;stroke-width:0.277471"
         d="m -4472.6783,324.00224 c -1.8873,2.4e-4 -3.8263,0.04 -5.628,0.41513 -1.1114,0.2314 -2.1745,0.65251 -3.2619,0.97873 l 0.388,5.42588 c 0.4363,0.065 0.8704,0.14452 1.3034,0.2287 1.9835,0.3856 3.952,0.86919 5.9202,1.32666 2.855,0.66361 5.711,1.34107 8.4564,2.38289 -0.6811,-0.3974 -1.3727,-0.77715 -2.0758,-1.13643 -0.5441,-0.26908 -1.0902,-0.54046 -1.6506,-0.77606 -0.084,-0.0355 -0.6598,-0.25184 -0.7615,-0.29861 -0.1463,-0.0673 -0.2864,-0.14705 -0.4298,-0.22057 -0.1966,-0.14453 -0.4312,-0.24825 -0.5901,-0.43355 -0.8117,-0.94676 -1.1188,-1.66628 -0.5967,-3.01967 0.4206,-1.09023 1.5643,-1.39702 2.5336,-1.65345 1.3813,-0.30184 2.7666,-0.58609 4.1507,-0.87469 1.6132,-0.32531 3.2334,-0.65273 4.8774,-0.77767 0.4514,-0.0343 0.9042,-0.0437 1.3565,-0.0656 0.2342,-0.002 0.4685,-9.3e-4 0.7029,10e-4 -1.7494,-0.63637 -3.604,-0.92185 -5.485,-1.17438 -2.1595,-0.29 -4.2541,-0.3294 -6.4154,-0.32841 -0.3088,1.4e-4 -0.6191,10e-4 -0.9311,0.002 -0.6107,0.002 -1.234,-0.002 -1.8632,-0.002 z m -8.5019,6.81974 c -0.073,-0.0109 -0.1458,-0.0225 -0.2189,-0.0325 -0.056,-0.007 -0.7053,-0.0286 -0.7013,-0.0212 0.3053,0.58865 0.5104,0.67284 0.9912,1.04376 z m 13.0157,-2.7124 c 0.1421,0.0927 0.099,0.0665 0.2417,0.13006 -0.073,-0.0519 -0.1639,-0.0832 -0.2417,-0.13006 z" /><path
         style="display:inline;opacity:1;fill:#fdeae0;fill-opacity:1;stroke-width:0.277471"
         d="m -4480.398,327.10949 c 0.7146,-0.91155 1.3084,-1.93245 2.144,-2.73463 1.4585,-1.40019 8.7236,-2.29361 10.6709,-2.56745 2.1459,-0.30176 6.3322,-1.20474 8.4021,-0.002 0.8218,0.47762 1.6707,1.4576 2.2324,2.20769 0.4577,0.61137 0.7692,1.53306 0.4921,2.29705 -0.5852,1.61404 -3.0891,1.92302 -4.5252,2.10825 -3.1358,0.40445 -6.4732,-0.10775 -9.5579,-0.49331 -3.7234,-0.46539 -6.6415,-1.26397 -9.8638,0.98075"
         id="path47435" /><path
         id="path54067"
         style="display:inline;opacity:1;fill:#000000;fill-opacity:0.238727;stroke-width:0.277471"
         d="m -4475.8919,323.31631 c -1.0815,0.31108 -1.9522,0.66487 -2.3622,1.05865 -0.8356,0.80219 -1.43,1.82315 -2.1442,2.73477 v 1.79622 c 3.2223,-2.24471 6.1404,-1.44608 9.8638,-0.98068 0.3408,0.0426 0.688,0.087 1.0345,0.13131 -0.729,-0.62549 -1.3074,-1.06877 -2.0857,-1.68343 -0.3564,-0.28147 -0.706,-0.57135 -1.0687,-0.84466 -0.3383,-0.25487 -0.6888,-0.49274 -1.0332,-0.7392 -1.2939,-0.89927 -0.6887,-0.494 -1.9552,-1.31593 -0.1069,-0.0695 -0.1645,-0.10593 -0.2441,-0.15722 z" /><path
         style="display:inline;opacity:1;fill:#000000;fill-opacity:0.33;stroke-width:0.277471"
         d="m -4496.5335,325.47897 c -2.9563,0.4215 -5.9806,0.5057 -8.8689,1.26447 -5.0355,1.32297 -11.3794,8.83888 -14.3963,12.8044 -0.4166,0.54768 -2.1898,3.61654 -1.7734,4.02451 1.4702,1.44049 5.6219,1.48124 7.5043,1.42409 9.7055,-0.29482 16.1446,-6.52558 18.0995,-15.68311 0.1461,-0.68418 0.6072,-2.03909 0.2513,-2.6816 -0.9072,-1.63738 -3.1786,-4.14656 -5.195,-2.86576"
         id="path55411" /><path
         style="display:inline;opacity:1;fill:#fce4d8;fill-opacity:1;stroke-width:0.277471"
         d="m -4507.6847,323.16166 c -1.3452,-0.68144 -2.5797,-1.65165 -4.0355,-2.0443 -1.7119,-0.46163 -8.608,0.57736 -10.3669,0.71768 -2.9251,0.23336 -6.6619,0.14826 -9.4243,1.58758 -0.534,0.27823 -1.2708,0.72279 -1.7158,1.19613 -0.6789,0.72206 -1.6404,2.56653 -0.6766,3.47963 0.877,0.83076 4.9628,1.38548 6.1137,1.50057 0.8056,0.0805 2.6003,0.24653 3.5764,0.174 1.7358,-0.12899 3.491,-0.74323 5.1956,-1.02214 0.8081,-0.13225 3.2623,-0.23783 3.7456,-0.26097 1.6949,-0.0813 3.4028,-0.18635 5.0988,-0.21748 1.98,-0.0364 7.9378,0.0281 8.9169,-2.17477 0.3162,-0.71133 -0.3995,-1.38497 -0.8941,-1.73983 -0.7567,-0.54276 -3.2966,-1.85714 -4.2048,-1.65281 -0.457,0.10288 -0.8641,0.51432 -1.329,0.45671 -0.9497,-0.11771 -1.7889,-0.68574 -2.7065,-0.95692 -0.7377,-0.21795 -1.7029,0.0745 -2.489,-0.0435"
         id="path47439" /><path
         style="display:inline;opacity:1;fill:#000000;fill-opacity:0.238727;stroke-width:0.277471"
         d="m -4507.6847,323.16166 c -1.3452,-0.68144 -2.5797,-1.65165 -4.0355,-2.0443 -1.7119,-0.46163 -8.608,0.57736 -10.3669,0.71768 -2.9251,0.23336 -6.6619,0.14826 -9.4243,1.58758 -0.534,0.27823 -1.2708,0.72279 -1.7158,1.19613 -0.6789,0.72206 -1.6404,2.56653 -0.6766,3.47963 0.877,0.83076 4.9628,1.38548 6.1137,1.50057 0.8056,0.0805 2.6003,0.24653 3.5764,0.174 1.7358,-0.12899 3.491,-0.74323 5.1956,-1.02214 0.8081,-0.13225 3.2623,-0.23783 3.7456,-0.26097 1.6949,-0.0813 3.4028,-0.18635 5.0988,-0.21748 1.98,-0.0364 7.9378,0.0281 8.9169,-2.17477 0.3162,-0.71133 -0.3995,-1.38497 -0.8941,-1.73983 -0.7567,-0.54276 -3.2966,-1.85714 -4.2048,-1.65281 -0.457,0.10288 -0.8641,0.51432 -1.329,0.45671 -0.9497,-0.11771 -1.7889,-0.68574 -2.7065,-0.95692 -0.7377,-0.21795 -1.7029,0.0745 -2.489,-0.0435"
         id="path54069" /><path
         style="display:inline;opacity:1;fill:#fbdecf;fill-opacity:1;stroke-width:0.277471"
         d="m -4507.7089,329.53372 c -5.1138,-2.651 -10.1254,-2.99966 -15.5623,-4.08857 -3.2857,-0.65806 -5.8756,-1.63409 -9.0136,-2.39223 -1.5006,-0.36257 -2.8301,-0.21109 -3.818,-1.56585 -2.016,-2.76482 2.6007,-4.23125 4.4947,-4.54525 1.9172,-0.31784 4.3157,-0.21401 6.2103,-0.0435 0.6114,0.0551 1.2186,0.17056 1.8124,0.32622 2.607,0.68335 5.1086,1.67687 7.7329,2.30524 0.8256,0.19769 1.6783,0.25933 2.5132,0.4132 2.6502,0.48853 5.2713,1.14613 7.757,2.19653 0.4621,0.19531 1.8433,0.6674 2.2715,1.21788 0.1704,0.21915 0.2122,1.06438 0.2174,1.21785 0.088,2.58817 -0.098,2.37532 -2.1024,3.47964 -0.8513,0.4689 -1.5662,1.25941 -2.5131,1.47884 -0.525,0.12164 -0.9886,-0.46979 -1.5224,-0.5437 -0.7421,-0.10278 -1.5002,0.0764 -2.2473,0.0216 -1.0218,-0.0748 -1.9735,-0.38024 -2.9724,-0.54367"
         id="path47441" /><path
         style="display:inline;opacity:1;fill:#000000;fill-opacity:0.2626;stroke-width:0.277471"
         d="m -4507.7089,329.53372 c -5.1138,-2.651 -10.1254,-2.99966 -15.5623,-4.08857 -3.2857,-0.65806 -5.8756,-1.63409 -9.0136,-2.39223 -1.5006,-0.36257 -2.8301,-0.21109 -3.818,-1.56585 -2.016,-2.76482 2.6007,-4.23125 4.4947,-4.54525 1.9172,-0.31784 4.3157,-0.21401 6.2103,-0.0435 0.6114,0.0551 1.2186,0.17056 1.8124,0.32622 2.607,0.68335 5.1086,1.67687 7.7329,2.30524 0.8256,0.19769 1.6783,0.25933 2.5132,0.4132 2.6502,0.48853 5.2713,1.14613 7.757,2.19653 0.4621,0.19531 1.8433,0.6674 2.2715,1.21788 0.1704,0.21915 0.2122,1.06438 0.2174,1.21785 0.088,2.58817 -0.098,2.37532 -2.1024,3.47964 -0.8513,0.4689 -1.5662,1.25941 -2.5131,1.47884 -0.525,0.12164 -0.9886,-0.46979 -1.5224,-0.5437 -0.7421,-0.10278 -1.5002,0.0764 -2.2473,0.0216 -1.0218,-0.0748 -1.9735,-0.38024 -2.9724,-0.54367"
         id="path54071" /><path
         id="path47445"
         style="display:inline;opacity:1;fill:#fce4d8;fill-opacity:1;stroke-width:0.277471"
         d="m -4524.3141,311.10868 c -0.8185,0.001 -1.6163,0.0657 -2.3859,0.20051 -1.9632,0.34377 -4.8405,1.59967 -4.0111,4.11034 0.4747,1.437 4.2689,3.71812 5.3402,4.19768 0.6447,0.28866 1.3487,0.42177 2.0299,0.60875 10.586,2.90593 -1.1319,-0.41376 7.3701,1.9792 2.4111,0.67862 5.8772,1.36817 8.1106,2.94504 0.077,-7.2e-4 0.154,-0.002 0.231,-0.002 0.167,-2.9e-4 0.3338,7.8e-4 0.5007,0.004 0.2294,0.004 0.4586,0.0153 0.6879,0.0233 1.165,0.0499 2.3226,0.1925 3.4736,0.37362 1.0813,0.18744 2.1605,0.386 3.2391,0.58808 0.08,0.0149 0.1565,0.0319 0.2315,0.0501 -0.4377,-1.62256 -1.2541,-3.26403 -1.8061,-3.82974 -5.2424,-5.37336 -15.0994,-11.2615 -23.0115,-11.24841 z" /><path
         id="path54073"
         style="display:inline;opacity:1;fill:#000000;fill-opacity:0.238727;stroke-width:0.277471"
         d="m -4519.6095,311.70503 c -0.2759,0.12453 -0.5532,0.24465 -0.8164,0.37827 -0.2299,0.11666 -0.498,0.26382 -0.7742,0.41755 -0.064,0.0721 -0.1443,0.16159 -0.201,0.22531 -0.7425,0.72127 -1.106,1.10043 -1.9048,1.76733 -0.3232,0.26988 -0.6668,0.51399 -0.9942,0.77876 -0.319,0.25791 -0.6254,0.53156 -0.9447,0.7891 -0.5907,0.47662 -1.1954,0.93521 -1.7875,1.41025 -0.3338,0.28457 -0.5716,0.4844 -0.8123,0.69505 1.0083,0.68101 2.0034,1.23952 2.4737,1.45004 0.6447,0.28866 1.3487,0.42229 2.0299,0.60927 10.586,2.90593 -1.1314,-0.41374 7.3706,1.9792 2.4114,0.67868 5.8773,1.36793 8.1106,2.94504 0.077,-7.2e-4 0.1537,-0.002 0.2305,-0.002 0.167,-2.9e-4 0.3338,7.8e-4 0.5007,0.004 0.2294,0.004 0.4586,0.0153 0.6879,0.0233 1.165,0.0499 2.3226,0.1925 3.4736,0.37362 1.0813,0.18744 2.1605,0.386 3.2391,0.58808 0.08,0.0149 0.1565,0.0319 0.2315,0.0501 -0.4377,-1.62248 -1.2541,-3.26352 -1.8061,-3.82922 -4.2401,-4.34619 -11.4997,-9.02813 -18.3069,-10.65258 z" /><path
         style="display:inline;opacity:1;fill:#fdeae0;fill-opacity:1;stroke-width:0.277471"
         d="m -4500.96,322.49216 c -1.8986,-1.31257 -3.72,-2.74441 -5.6957,-3.93773 -1.0833,-0.65425 -6.1387,-2.36803 -7.3346,-2.801 -1.6154,-0.58488 -3.1924,-0.86606 -4.5156,-2.05496 -2.5384,-2.28056 3.7677,-4.10921 5.0545,-4.35206 1.0488,-0.19793 2.111,-0.35247 3.1774,-0.39323 2.2442,-0.0858 5.7362,1.43792 7.7467,2.21129 2.1291,0.81907 4.4437,1.62736 5.7588,3.62639 0.5176,0.78658 1.7257,2.60016 1.0611,3.51959 -1.8124,2.50797 -1.4772,1.25654 -4.8134,2.88423 -1.308,0.63817 -2.5191,1.45857 -3.7788,2.18784"
         id="path47447" /><path
         id="path54075"
         style="display:inline;opacity:1;fill:#000000;fill-opacity:0.198939;stroke-width:0.277471"
         d="m -4510.4184,315.99004 v 5.4e-4 c -0.4475,4.1e-4 -0.8948,0.003 -1.343,0.009 -0.4506,0.0135 -0.9007,0.0363 -1.3504,0.0634 1.8785,0.65939 5.5486,1.94273 6.4561,2.49074 1.6779,1.01353 3.2449,2.19935 4.8422,3.33779 0.4238,-0.24565 0.8523,-0.48269 1.2925,-0.69748 3.3362,-1.62768 3.0009,-0.37621 4.8134,-2.88419 0.2458,-0.33983 0.2355,-0.80159 0.099,-1.28872 -0.224,0.0478 -0.4462,0.11599 -0.6736,0.11218 -0.3952,-0.007 -0.7804,-0.12851 -1.1706,-0.19185 -2.1802,-0.35409 -0.9183,-0.14021 -3.2668,-0.55006 -1.8825,-0.23654 -3.7778,-0.29485 -5.6719,-0.34467 -1.344,-0.0353 -2.6843,-0.0581 -4.0266,-0.0569 z m 8.6049,5.9017 c -0.8355,0.48422 -1.6502,1.00703 -2.4858,1.49087 l 3.3394,-0.89041 c -0.2861,-0.19776 -0.5703,-0.39852 -0.8536,-0.60046 z" /><path
         style="display:inline;opacity:1;fill:#fdeae0;fill-opacity:1;stroke-width:0.277471"
         d="m -4495.5297,322.83544 c -3.6085,4.19615 -5.8037,9.10002 -7.9262,14.11424 -1.3488,3.18651 -3.4059,7.5891 -1.1598,10.87385 0.4318,0.63161 0.8897,1.28757 1.5223,1.71804 1.116,0.75936 3.564,1.49358 5.0263,1.58758 0.4025,0.0258 0.9539,0.24768 1.2083,-0.0652 0.4874,-0.59934 2.3324,-5.54661 2.924,-6.76354 1.472,-3.02785 3.7893,-6.48285 4.3255,-9.89517 0.2398,-1.52654 0.3537,-4.78617 -0.1933,-6.24159 -0.1479,-0.39365 -1.4108,-2.37544 -1.6432,-2.76196 -0.3429,-0.57009 -0.5756,-1.27234 -1.2324,-1.58757 -0.6084,-0.29205 -1.2708,-0.45511 -1.9091,-0.67418 -0.3122,-0.10719 -0.6123,-0.30216 -0.9424,-0.30447 -0.731,-0.005 -1.4482,0.2033 -2.1749,0.28271 -0.4014,0.0438 -0.8563,-0.11095 -1.2082,0.0869 -0.2478,0.13937 -0.2255,0.52195 -0.3384,0.78291"
         id="path47449" /><path
         style="display:inline;opacity:1;fill:#000000;fill-opacity:0.238727;stroke-width:0.277471"
         d="m -4495.5297,322.83544 c -3.6085,4.19615 -5.8037,9.10002 -7.9262,14.11424 -1.3488,3.18651 -3.4059,7.5891 -1.1598,10.87385 0.4318,0.63161 0.8897,1.28757 1.5223,1.71804 1.116,0.75936 3.564,1.49358 5.0263,1.58758 0.4025,0.0258 0.9539,0.24768 1.2083,-0.0652 0.4874,-0.59934 2.3324,-5.54661 2.924,-6.76354 1.472,-3.02785 3.7893,-6.48285 4.3255,-9.89517 0.2398,-1.52654 0.3537,-4.78617 -0.1933,-6.24159 -0.1479,-0.39365 -1.4108,-2.37544 -1.6432,-2.76196 -0.3429,-0.57009 -0.5756,-1.27234 -1.2324,-1.58757 -0.6084,-0.29205 -1.2708,-0.45511 -1.9091,-0.67418 -0.3122,-0.10719 -0.6123,-0.30216 -0.9424,-0.30447 -0.731,-0.005 -1.4482,0.2033 -2.1749,0.28271 -0.4014,0.0438 -0.8563,-0.11095 -1.2082,0.0869 -0.2478,0.13937 -0.2255,0.52195 -0.3384,0.78291"
         id="path54077" /><path
         style="display:inline;opacity:1;fill:#fdeae0;fill-opacity:1;stroke-width:0.277471"
         d="m -4501.5468,320.83464 c -5.1992,-0.46135 -9.897,1.1928 -14.4507,3.47964 -2.2964,1.1532 -4.8751,2.38606 -6.5729,4.39301 -0.3284,0.38816 -0.6473,0.78772 -0.9183,1.21788 -0.3762,0.59707 -1.7148,3.46096 -0.8215,4.17557 1.0219,0.81754 4.0327,0.007 4.8571,-0.174 3.0792,-0.67773 5.8739,-2.19534 8.7477,-3.41438 2.8676,-1.21638 5.9464,-1.82471 8.2645,-4.00156 0.2487,-0.23363 1.2494,-1.11585 1.4741,-1.58759 0.3905,-0.82022 0.3251,-3.63703 -0.58,-4.08857 -0.4721,-0.23554 -1.0471,0.1305 -1.5707,0.19573"
         id="path47443" /><path
         id="path54079"
         style="display:inline;opacity:1;fill:#000000;fill-opacity:0.238727;stroke-width:0.277471"
         d="m -4501.918,320.75678 c -0.087,0.001 -0.1763,0.0145 -0.2661,0.033 -2.0012,-0.1126 -3.9287,0.0843 -5.8042,0.50345 -0.014,0.27497 -0.039,0.52603 -0.1083,0.9045 -0.1906,1.0319 -0.622,1.99447 -1.1831,2.87552 -0.4127,0.59782 -0.5402,0.82134 -1.0352,1.37164 -0.8115,0.90217 -1.7904,1.6374 -2.838,2.24253 -0.7295,0.38306 -0.9646,0.52758 -1.7358,0.84434 -1.3077,0.53706 -2.6809,0.8729 -4.0884,1.00747 -0.3614,0.0217 -0.7218,0.0577 -1.0839,0.065 -0.892,0.019 -1.9151,-0.0646 -2.7926,-0.23196 -0.3095,-0.0589 -0.5471,-0.11949 -0.782,-0.18804 -0.4855,0.91431 -1.4758,3.27619 -0.6753,3.91657 1.022,0.81755 4.0333,0.007 4.8574,-0.17396 3.0792,-0.67773 5.8736,-2.1957 8.7474,-3.41474 2.8676,-1.21638 5.9465,-1.82431 8.2646,-4.00112 0.2487,-0.23363 1.2494,-1.11615 1.474,-1.58788 0.3906,-0.82023 0.3252,-3.63684 -0.5798,-4.08837 -0.118,-0.0588 -0.2419,-0.0801 -0.3702,-0.078 z" /><path
         style="display:inline;opacity:1;fill:#f4a002;fill-opacity:1;stroke-width:0.202867"
         d="m -4503.3985,321.20675 c 2.8033,-2.87636 5.4454,-5.48506 9.7822,-6.17338 0.4327,-0.0687 1.3361,0.10634 1.643,0.14875 0.9892,0.13672 2.1447,0.13548 3.0971,0.40165 0.8438,0.23586 1.6378,0.60551 2.4739,0.86278 0.7275,0.22385 1.498,0.29444 2.2284,0.50578 0.967,0.27984 1.8606,0.71905 2.7949,1.07103 0.4237,0.15963 0.9099,0.23357 1.2652,0.4909 2.5894,1.87421 2.9462,4.88634 2.9462,7.60143 0,0.43922 0.077,0.93581 0,1.36857 -0.1317,0.73841 -0.8237,1.149 -1.3976,1.59167 -0.8822,0.68044 -0.4828,0.5118 -1.5296,1.1008 -0.3193,0.17971 -1.3375,0.38017 -1.4353,0.40164 -1.9157,0.42079 -3.6083,-0.0141 -5.5332,-0.25288 -3.4141,-0.42352 -7.3192,-1.11903 -10.3676,-2.66273 -0.9492,-0.48063 -1.8098,-1.15864 -2.5118,-1.88921 -0.2572,-0.26783 -0.4437,-0.57583 -0.7176,-0.83304 -0.4806,-0.45147 -1.5727,-1.25275 -1.8507,-1.79994 -0.3237,-0.63749 -0.5635,-1.29566 -0.8875,-1.93382 z"
         id="path50150" /><path
         id="path52355"
         style="display:inline;opacity:1;fill:#9d5103;fill-opacity:1;stroke-width:0.202867"
         d="m -4501.9695,319.76837 c -1.1804,0.72391 -1.6231,1.8548 -0.7226,2.99951 0.5342,1.24444 1.8823,1.78833 2.6461,2.86537 2.4392,2.69987 6.1959,3.47831 9.6082,4.18207 2.4496,0.38628 4.9088,0.82819 7.3878,0.9329 1.7295,0.0228 3.4356,-0.58796 4.6716,-1.81152 1.1584,-0.57988 1.4287,-1.86471 1.2013,-3.04621 -2.4203,-1.59 -11.4642,-1.23956 -12.6998,-0.87878 -1.2259,-0.0937 -1.7966,-1.78245 -3.2043,-1.68611 -1.1058,-0.62767 -2.3349,0.57725 -3.3004,-0.20183 -0.9298,-1.22506 -2.1891,-2.19695 -3.7222,-2.52557 -0.6409,-0.22777 -1.3016,-0.43811 -1.8657,-0.82983 z"
         sodipodi:nodetypes="cccccccccccc" /><path
         id="path54873"
         style="opacity:1;fill:#606d22;fill-opacity:1;stroke-width:0.264583"
         d="m -4542.8301,391.36616 c -1.0419,0.3453 -2.043,0.824 -2.8262,1.5544 -0.115,0.1078 -0.1101,0.489 -0.081,0.5721 0.3474,0.9896 2.1948,1.0816 2.9491,1.1875 3.0311,0.4258 6.1324,0.2273 9.108,1.0708 0.8495,0.2408 3.1494,0.7484 3.6664,1.6567 0.2471,0.434 -0.3313,0.4279 -0.5379,0.3958 -1.4997,-0.2326 -3.1385,-0.6579 -4.6276,-0.1462 -0.3794,0.1305 -0.8211,0.3086 -0.6677,0.7917 0.1934,0.6095 4.046,0.2644 4.823,0.3664 2.7803,0.3649 5.838,1.7743 8.1793,3.2261 1.284,0.7963 0.8576,0.5253 2.3136,1.54 0.3916,0.2729 0.782,0.5474 1.173,0.8211 0.2717,0.1903 0.5493,0.3725 0.815,0.5716 0.1259,0.095 0.2422,0.2013 0.3581,0.308 0.8594,0.7904 0.1983,0.6072 -0.6026,0.6743 -0.6234,0.052 -1.2359,0.2062 -1.8577,0.2641 -0.232,0.022 -1.2471,-0.052 -1.1731,0.1907 0.2897,0.9455 1.5878,1.4595 2.3461,1.8329 2.3211,1.143 5.0938,1.4276 7.6518,1.4361 -0.014,5e-4 -0.033,-10e-5 -0.042,0.001 -0.1694,0.023 -0.3369,0.059 -0.5054,0.088 -0.3755,0.065 -0.3764,0.058 -0.8635,0.1613 -0.9324,0.1975 -2.5413,0.2964 -3.3239,0.9239 -0.5504,0.4412 0.429,0.9296 0.7168,0.9974 0.7253,0.1707 1.554,0.2064 2.2975,0.2346 1.4034,0.053 3.4351,0.1031 4.8395,0 1.4216,-0.1043 1.2084,-0.2489 2.4929,-0.4987 0.3062,-0.06 0.6188,-0.078 0.9281,-0.1173 h 5e-4 c 0.096,0 0.4322,0.035 0.7814,0.05 -1.564,-1.0659 -1.4381,-0.9807 -4.7522,-3.1817 -4.2684,-2.8323 -8.7106,-5.3912 -13.2416,-7.7773 -2.9955,-1.5775 -6.4627,-3.2892 -9.5518,-4.6995 -1.4341,-0.6546 -2.889,-1.2623 -4.3336,-1.8934 -2.136,-0.904 -4.2884,-1.7673 -6.4518,-2.6024 z" /></g></g></svg>
