<?xml version="1.0" encoding="UTF-8" standalone="no"?>
<!-- Created with Inkscape (http://www.inkscape.org/) -->

<svg
   width="99.651482mm"
   height="158.9001mm"
   viewBox="0 0 99.651482 158.9001"
   version="1.1"
   id="svg5"
   xml:space="preserve"
   inkscape:version="1.2 (dc2aedaf03, 2022-05-15)"
   sodipodi:docname="drawing.svg"
   xmlns:inkscape="http://www.inkscape.org/namespaces/inkscape"
   xmlns:sodipodi="http://sodipodi.sourceforge.net/DTD/sodipodi-0.dtd"
   xmlns="http://www.w3.org/2000/svg"
   xmlns:svg="http://www.w3.org/2000/svg"><sodipodi:namedview
     id="namedview7"
     pagecolor="#505050"
     bordercolor="#eeeeee"
     borderopacity="1"
     inkscape:showpageshadow="0"
     inkscape:pageopacity="0"
     inkscape:pagecheckerboard="0"
     inkscape:deskcolor="#505050"
     inkscape:document-units="mm"
     showgrid="false"
     inkscape:zoom="0.18128859"
     inkscape:cx="-16691.619"
     inkscape:cy="311.65779"
     inkscape:window-width="1920"
     inkscape:window-height="1001"
     inkscape:window-x="-9"
     inkscape:window-y="-9"
     inkscape:window-maximized="1"
     inkscape:current-layer="layer24"
     showguides="true" /><defs
     id="defs2" /><g
     inkscape:groupmode="layer"
     id="layer27"
     inkscape:label="another daisy 7"
     style="display:inline"
     transform="translate(4247.8836,-296.09882)"><g
       inkscape:groupmode="layer"
       id="layer29"
       inkscape:label="another daisy 9"
       style="display:inline"><g
         id="g61420"><path
           style="display:inline;opacity:1;fill:#76872a;fill-opacity:1;stroke-width:0.487037"
           d="m -4203.0492,401.41117 c 2.1053,-3.3662 5.8097,-4.9038 7.7985,-8.3842 -0.6046,-1.8018 0.4975,-3.7489 1.7527,-5.0438 1.3474,-1.1736 1.8441,-3.0373 3.1034,-4.2691 1.6717,-1.5703 3.8806,-2.4722 5.0539,-4.6661 2.6976,-3.6718 4.9474,-8.4096 4.278,-12.9748 -0.023,-1.5401 -1.8655,-2.7479 -2.8138,-0.9957 -1.2171,1.6695 -1.9398,3.7975 -3.5251,5.1071 -1.4843,1.8033 -2.8098,3.757 -4.1521,5.6888 1.5529,-1.2004 0.1628,-4.1344 -1.3362,-2.3769 -0.8094,1.6863 -2.1535,2.9675 -3.1947,4.5109 -0.8961,1.2493 -2.5626,3.6879 -2.8436,4.2947 1.2116,-1.4077 -0.029,-4.0525 -1.657,-3.2561 -1.5015,1.3093 -1.076,3.7921 -2.2517,5.4405 -0.9499,1.9718 -2.1838,3.7641 -3.3647,5.5801 0.2861,-1.9473 -1.7133,-1.963 -2.2432,-0.2535 -1.0629,1.6821 -0.4359,3.4838 0.4221,4.8105 1.066,2.2528 2.0298,4.5798 3.2355,6.7329"
           id="path60032" /><path
           id="path60105"
           style="display:inline;opacity:1;fill:#606d22;fill-opacity:1;stroke-width:0.487037"
           d="m -4181.2846,365.18777 c 0.048,0.2685 0.079,0.4964 0.077,0.6377 -0.016,1.5014 -0.545,1.9985 -1.2852,3.2132 -0.364,0.5546 -0.7133,1.1195 -1.0924,1.664 -0.7191,1.0329 -1.898,2.5541 -2.6712,3.5181 -1.7477,2.1794 -3.592,4.2782 -5.4875,6.3299 -2.468,2.6041 -4.9528,5.1874 -7.5266,7.6879 -1.3708,1.3315 -3.6028,3.4672 -5.1232,4.7025 -0.6058,0.4921 -1.2651,0.9143 -1.8976,1.3715 -0.7511,0.4698 -1.1274,0.7174 -1.45,0.9136 0.9572,2.063 1.8557,4.1685 2.9543,6.1304 l 1.7379,0.055 c 2.1053,-3.3662 5.8097,-4.9041 7.7985,-8.3845 -0.6046,-1.8018 0.4976,-3.7487 1.7528,-5.0436 1.3474,-1.1736 1.8439,-3.0372 3.1032,-4.269 1.6717,-1.5703 3.8807,-2.4725 5.054,-4.6664 2.6973,-3.6717 4.9471,-8.4097 4.2777,-12.9749 0,-0.3169 -0.086,-0.6194 -0.2217,-0.8852 z" /><path
           style="display:inline;opacity:1;fill:#495833;fill-opacity:1;stroke-width:0.264583"
           d="m -4213.0933,406.29887 c 5.1594,-5.3578 6.8184,-13.1784 12.3323,-18.2583 2.18,-4.5181 5.9381,-7.8592 10.0956,-11.3336 -2.3998,3.5069 -10.9122,12.6666 -14.8502,20.6014 -1.4419,1.3305 -1.1689,3.3211 -2.185,4.9614 -1.1013,2.0358 -2.8894,4.031 -5.3927,4.0291 z"
           id="path60193"
           sodipodi:nodetypes="cccccc" /><path
           style="display:inline;opacity:1;fill:#76872a;fill-opacity:1;stroke-width:0.487037"
           d="m -4210.3001,406.17687 c 4.9595,1.3871 10.5663,5.3059 15.8097,2.9167 1.4727,-3.6776 -4.8473,-4.1446 -0.4763,-2.1544 2.8169,0.5505 10.6502,0.011 9.8437,-4.0101 -2.8363,-1.248 -4.7113,1.5574 -0.5852,0.527 5.1871,-1.4184 12.0104,-0.095 16.1068,-4.1871 0.5711,-3.5147 -6.2681,-0.021 -1.2738,-0.5482 2.8274,-0.8527 10.3381,0.8278 10.0858,-2.9382 -2.1978,-1.8613 6.003,-2.0903 7.133,-5.1007 2.6144,-2.711 7.1078,-9.9965 4.7726,-12.1745 -2.1593,2.2667 -8.7541,8.3895 -9.6332,7.0867 0.8215,-7.8726 -6.8478,0.4408 -9.8021,2.3047 -2.7021,1.7576 -3.1645,1.8175 -1.5926,-1.233 -1.7639,-7.3707 -7.7453,1.4802 -10.9788,3.9662 -3.9598,4.2264 0.5027,-4.6285 -4.0194,-4.6223 -4.4437,-1.0018 -6.9671,5.654 -10.9593,7.6317 -3.3384,4.904 -0.4289,-4.1869 -4.9903,-2.0353 -3.7845,2.7898 -7.4026,7.2242 -9.1189,12.0414 -0.2129,0.8344 -0.3209,1.6904 -0.3163,2.5316 z"
           id="path60026" /><path
           id="path60128"
           style="display:inline;opacity:1;fill:#606d22;fill-opacity:1;stroke-width:0.487037"
           d="m -4148.2804,380.92317 c -0.6895,0.3881 -1.381,0.7723 -2.0769,1.1488 -0.2366,0.146 -0.4695,0.2953 -0.6966,0.4496 -1.0683,0.5922 -2.1248,1.2062 -3.2049,1.7766 -1.1273,0.5954 -2.2712,1.159 -3.4158,1.7203 -5.7742,2.8318 -11.671,5.4137 -17.647,7.7887 -1.7219,0.6726 -3.4369,1.3631 -5.1656,2.018 -4.9556,1.8774 -9.9698,3.6488 -15.0797,5.0648 -1.3539,0.3751 -2.4229,0.6366 -3.4752,0.8723 -0.9994,0.3054 -2.0006,0.6064 -2.9559,0.878 -1.5045,0.4276 -3.469,0.9576 -5.0178,1.2609 -1.1933,0.2336 -2.0766,0.3413 -3.1171,0.4589 -0.11,0.6047 -0.165,1.2155 -0.1618,1.8185 4.9582,1.3883 10.5626,5.3035 15.8042,2.915 0.3493,-0.8721 0.2572,-1.5615 -0.023,-2.0825 3.0129,0.4022 9.6951,-0.2153 9.4413,-3.7125 5.0974,-1.1619 11.539,-0.1028 15.4703,-4.0297 0.05,-0.3062 0.043,-0.5582 -0.01,-0.7653 3.3298,-0.2984 9.0402,0.571 8.8196,-2.7208 -2.1978,-1.8613 6.0029,-2.0907 7.1329,-5.101 1.9663,-2.039 4.9915,-6.6635 5.379,-9.7586 z" /><path
           id="path60034"
           style="display:inline;opacity:1;fill:#495833;fill-opacity:1;stroke-width:0.264583"
           d="m -4164.7925,390.60897 c -11.0766,2.4739 -23.0195,2.154 -33.2136,7.7278 -3.6698,2.04 -7.3559,4.127 -11.0244,6.1208 -1.0334,1.114 -6.5317,1.9437 -3.7968,3.8234 2.9751,0.2637 5.826,-1.2911 8.5519,-2.3458 7.2321,-3.3137 13.8579,-8.3079 21.875,-9.6153 5.9603,-1.4944 12.4378,-2.0998 17.6079,-5.7109 z"
           sodipodi:nodetypes="sccccsscccccss" /><path
           style="display:inline;fill:#495833;fill-opacity:1;stroke-width:0.199656"
           d="m -4199.3677,333.29791 c -0.1262,1.01765 -12.4516,36.79426 -12.3079,70.42736 0.093,21.8065 6.3353,45.224 6.3898,49.9643 0.015,1.3698 -4.0874,1.9161 -5.0189,0.393 -3.6079,-5.8987 -7.9164,-24.2522 -6.9082,-46.8907 1.2275,-27.5609 10.0179,-60.348 14.0415,-73.58149 1.2916,-4.24811 3.8037,-0.31247 3.8037,-0.31247 z"
           id="path46270-8"
           sodipodi:nodetypes="csssssc" /><path
           id="path46272-8"
           style="display:inline;fill:#3b4729;fill-opacity:1;stroke-width:0.199656"
           d="m -4201.559,331.6382 c -0.5806,0.0188 -1.1685,0.51233 -1.6124,1.97226 -4.0236,13.23345 -12.814,46.02071 -14.0415,73.58151 -1.0082,22.6384 3.3003,40.992 6.9082,46.8907 0.9315,1.5231 5.035,0.9767 5.0191,-0.3931 -0.028,-2.502 -1.7804,-10.23 -3.4426,-20.155 -4.5926,-6.188 -5.294,-13.9516 -6.0929,-22.33 -1.3101,-13.7403 -0.318,-29.0023 4.1146,-41.1099 0.8402,-2.2952 2.4836,-4.3411 3.4611,-6.3327 3.4981,-17.1837 7.8031,-29.86448 7.8777,-30.46404 0,0 -1.0819,-1.6946 -2.1906,-1.65973 z"
           sodipodi:nodetypes="ssssccssccss" /><path
           style="display:inline;opacity:1;fill:#fbdecf;fill-opacity:1;stroke-width:0.345683"
           d="m -4185.4513,342.39377 c 9.4455,-3.95727 19.9612,-4.16836 29.4665,-7.90025 4.5242,-3.29442 -2.3584,-8.44206 -6.1179,-8.01749 -8.4663,-1.21874 -16.7765,1.95261 -24.0632,5.9732 -2.1193,1.3004 -4.0326,3.01441 -5.2776,5.18945"
           id="path56232" /><path
           style="display:inline;opacity:1;fill:#fce4d8;fill-opacity:1;stroke-width:0.345683"
           d="m -4194.3975,339.08844 c 2.1303,4.74534 6.7105,8.62691 5.9109,14.30663 1.2059,5.2702 -5.3551,9.29 -7.9119,3.6404 -3.5875,-5.59345 -1.4318,-12.43647 0.04,-18.33228 0.2435,-1.17532 0.4425,-2.3615 0.547,-3.55791"
           id="path56220" /><path
           style="display:inline;opacity:1;fill:#fce4d8;fill-opacity:1;stroke-width:0.345683"
           d="m -4201.5079,337.9867 c -2.7309,6.14896 -5.811,13.15336 -12.4903,15.83371 -4.2099,2.41136 -6.9684,-1.89495 -5.1995,-5.56485 0.9546,-5.30849 4.7745,-9.48375 9.1225,-12.39538 1.3692,-1.06733 2.7,-2.19611 4.1792,-3.11174"
           id="path56222" /><path
           id="path59439"
           style="display:inline;opacity:1;fill:#000000;fill-opacity:0.236074;stroke-width:0.345683"
           d="m -4195.8113,335.14516 c -0.4221,5.44444 -3.0962,10.598 -2.4769,16.1428 2.0497,3.23475 7.9997,3.35447 9.6448,0.0301 0.2941,-5.45226 -5.1935,-8.67823 -6.2966,-13.74233 -0.2904,-0.8102 -0.5809,-1.62039 -0.8713,-2.43059 z" /><path
           id="path59441"
           style="display:inline;opacity:1;fill:#000000;fill-opacity:0.236074;stroke-width:0.345683"
           d="m -4205.8956,332.74848 c -4.7379,3.57738 -10.3816,6.85995 -12.4937,12.7585 2.4508,2.80018 6.8171,3.56157 10.2305,1.89034 3.89,-0.79902 4.3958,-5.38197 6.1611,-8.34213 1.1704,-1.60138 -1.3147,-2.71058 -2.016,-4.06012 -0.6273,-0.74886 -1.2546,-1.49773 -1.8819,-2.24659 z" /><path
           style="display:inline;opacity:1;fill:#fdeae0;fill-opacity:1;stroke-width:0.345683"
           d="m -4197.6468,337.23283 c 2.0269,5.77953 2.8188,12.11973 0.9849,18.06085 -0.6925,3.00319 -3.0505,8.82129 -6.9016,6.10559 -4,-2.8372 -4.6596,-8.04522 -4.3584,-12.58252 0.09,-4.11655 0.851,-8.79975 4.0537,-11.69029 0.8243,-0.60647 1.9246,-0.79593 2.9052,-0.50047"
           id="path56224"
           sodipodi:nodetypes="ccccc" /><path
           id="path59443"
           style="display:inline;opacity:1;fill:#000000;fill-opacity:0.236074;stroke-width:0.345683"
           d="m -4201.9669,336.48948 c -3.0912,0.24932 -6.5454,5.74854 -4.1977,7.82807 2.7377,1.72218 9.0289,2.20821 10.188,-0.51854 -0.8834,-2.09798 -0.2564,-6.2234 -2.7992,-6.77291 -1.0646,-0.1692 -2.1185,-0.44272 -3.1911,-0.53662 z" /><path
           id="path59437"
           style="display:inline;opacity:1;fill:#000000;fill-opacity:0.236074;stroke-width:0.345683"
           d="m -4165.2608,332.85108 c -7.1627,-0.02 -14.1285,1.91241 -21.204,2.71552 -1.6762,-2.92292 -6.4145,1.4648 -3.9,2.92846 1.6378,1.2996 3.2756,2.59919 4.9134,3.89879 9.4672,-3.97398 20.0224,-4.15704 29.5364,-7.93997 0.9465,-1.55069 -5.272,-1.12124 -7.2656,-1.54468 -0.6929,-0.0408 -1.3897,-0.0407 -2.0802,-0.0581 z" /><path
           style="display:inline;opacity:1;fill:#fce4d8;fill-opacity:1;stroke-width:0.345683"
           d="m -4190.7954,336.99347 c 8.267,-1.51318 17.0425,-2.59173 25.2226,-0.0851 4.0761,1.75448 9.1078,7.46761 5.627,11.73341 -3.9545,3.16947 -8.9548,0.21195 -12.8724,-1.49093 -5.9549,-2.63642 -11.5017,-6.28193 -17.6892,-8.33321 -0.964,-0.17277 -1.9593,-0.19874 -2.9254,-0.0265"
           id="path56234"
           sodipodi:nodetypes="cccccc" /><path
           id="path59445"
           style="display:inline;opacity:1;fill:#000000;fill-opacity:0.236074;stroke-width:0.345683"
           d="m -4180.5925,335.59895 c -3.5776,0.44068 -7.4422,0.42009 -10.7718,1.78223 -2.4924,1.45301 -1.8328,1.39812 0.8571,1.43643 5.4974,1.80096 10.4622,4.94726 15.7013,7.38259 -1.4145,-3.7869 -3.5798,-7.23541 -5.7866,-10.60125 z m 12.0016,12.64796 c 0.4292,1.90919 1.4143,1.16851 0,0 z" /><path
           style="display:inline;opacity:1;fill:#fdeae0;fill-opacity:1;stroke-width:0.345683"
           d="m -4192.8183,336.55058 c 7.2442,2.90422 14.021,7.32195 19.0301,13.34419 1.7802,2.71037 3.4807,8.189 -0.6962,9.531 -5.457,0.091 -9.7262,-4.33311 -14.6147,-6.24481 -4.2153,-2.57797 -6.4276,-7.17493 -9.8206,-10.59832 0.4265,-1.2957 0.8531,-2.59139 1.2796,-3.88709"
           id="path56226"
           sodipodi:nodetypes="ccccccc" /><path
           id="path59447"
           style="display:inline;opacity:1;fill:#000000;fill-opacity:0.236074;stroke-width:0.345683"
           d="m -4192.8185,336.55056 c -1.5862,0.82829 -3.5367,1.32723 -4.8934,2.36307 0.021,1.18671 -2.3371,3.94309 0.01,3.58678 3.9452,0.93154 8.7891,1.76403 11.9226,-1.52373 0.9426,-1.75875 -5.2827,-3.22819 -7.0359,-4.42612 z m 16.9613,19.23701 c -0.354,-0.1035 -0.029,0.2012 0,0 z" /><path
           id="path56240"
           style="display:inline;opacity:1;fill:#fbdecf;fill-opacity:1;stroke-width:0.345683"
           d="m -4193.4404,300.12261 c -4.5254,0.32365 -5.7739,5.46294 -5.045,9.15917 -0.1706,5.5978 0.6832,11.25121 -0.3582,16.80309 1.4606,-0.28546 2.9374,-1.10083 4.4042,-1.58979 2.5524,-6.96408 6.2138,-14.34223 4.2769,-21.93542 -0.5736,-1.29677 -1.7749,-2.47152 -3.2779,-2.43705 z" /><path
           id="path59351"
           style="display:inline;opacity:1;fill:#000000;fill-opacity:0.18;stroke-width:0.345683"
           d="m -4191.8746,300.54415 c -2.4894,3.53068 -6.9362,6.35254 -6.6399,11.21291 0.1182,4.57991 0.4254,9.16291 -0.1184,13.72153 2.7701,1.29416 5.7747,-3.013 6.0647,-5.89843 2.0679,-5.52713 4.1997,-11.80865 2.0699,-17.62456 -0.3239,-0.57885 -0.7873,-1.09402 -1.3763,-1.41145 z" /><path
           style="display:inline;opacity:1;fill:#fbdecf;fill-opacity:1;stroke-width:0.345683"
           d="m -4206.6984,325.32598 c 2.4133,-6.99295 1.7473,-14.49662 1.5587,-21.75377 -0.9502,-4.91012 -8.7473,-6.85425 -10.7213,-1.59899 -2.6011,5.1752 0.522,10.83927 2.7822,15.52461 1.4308,2.90382 3.4289,5.95388 4.1002,8.96854"
           id="path56244" /><path
           id="path59353"
           style="display:inline;opacity:1;fill:#000000;fill-opacity:0.18;stroke-width:0.345683"
           d="m -4209.0436,301.2733 c -3.204,0.36954 -8.784,1.36196 -7.7775,5.73474 0.799,7.1167 5.7378,12.76601 7.9413,19.40896 2.994,-0.63537 2.9687,-3.92139 3.4697,-6.41402 0.7295,-5.67272 0.6334,-11.50369 0.053,-17.1557 -0.4868,-1.32509 -2.4349,-1.5134 -3.6863,-1.57398 z m 0.1638,25.14369 c -0.2911,0.0667 0.06,0.0672 0,0 z" /><path
           style="display:inline;opacity:1;fill:#fce4d8;fill-opacity:1;stroke-width:0.345683"
           d="m -4191.9368,329.96886 c 3.4704,-8.38904 13.9556,-12.28349 15.442,-21.71553 -1.8151,-5.27726 -9.1354,-4.98796 -12.2757,-1.13365 -5.518,4.65561 -6.8689,12.075 -9.4602,18.42805 -0.5109,1.23412 -2.1879,2.91204 -1.0588,4.21152"
           id="path56248"
           sodipodi:nodetypes="ccccc" /><path
           id="path59355"
           style="display:inline;opacity:1;fill:#000000;fill-opacity:0.18;stroke-width:0.345683"
           d="m -4176.6828,307.79826 c -4.9255,0.13041 -9.9053,0.48327 -14.623,2.00457 -3.8393,4.82759 -4.7129,11.13337 -7.3672,16.52931 -2.2786,2.58672 -0.1912,4.05446 2.3663,3.51219 1.4566,0.0415 2.9131,0.083 4.3697,0.12451 3.4704,-8.38906 13.9556,-12.28349 15.4421,-21.71555 z" /><path
           style="display:inline;opacity:1;fill:#fce4d8;fill-opacity:1;stroke-width:0.345683"
           d="m -4187.4768,333.94688 c 4.1785,-6.18989 11.7904,-8.16208 17.66,-12.23184 3.6731,-1.29643 7.7523,-6.31119 4.4013,-9.866 -5.0692,-4.25577 -12.6698,-1.69603 -16.9372,2.49923 -4.2185,2.9429 -8.2051,7.0709 -8.7303,12.43552 -0.62,2.28538 -1.8378,6.70917 1.7915,7.02776"
           id="path56250" /><path
           id="path59357"
           style="display:inline;opacity:1;fill:#000000;fill-opacity:0.18;stroke-width:0.345683"
           d="m -4182.1465,318.01716 c -3.8165,-0.8484 -6.7511,1.23663 -7.9129,4.88709 -0.659,3.24586 -2.9117,7.21485 -0.8574,10.28924 3.2772,2.43828 4.8751,-1.45818 7.152,-3.21277 5.2567,-4.00983 11.662,-6.21544 16.9553,-10.13748 -5.0235,-1.19991 -10.1692,-1.84704 -15.337,-1.82608 z" /><path
           id="path56252"
           style="display:inline;opacity:1;fill:#fce4d8;fill-opacity:1;stroke-width:0.345683"
           d="m -4203.0442,296.09882 c -4.1453,0.23307 -4.8424,5.40045 -5.599,8.62761 -0.4824,4.3564 -0.469,8.9064 0.6096,13.15659 1.982,2.8481 4.4041,8.19196 5.1177,9.9181 1.25,-0.84428 2.5,-1.68857 3.75,-2.53285 2.5261,-7.6857 0.9882,-15.8791 1.9189,-23.77554 -0.2121,-2.89378 -2.9398,-5.30952 -5.7972,-5.39391 z" /><path
           id="path59359"
           style="display:inline;opacity:1;fill:#000000;fill-opacity:0.18;stroke-width:0.345683"
           d="m -4201.263,300.09943 c -4.4213,-0.22495 -8.7458,2.26778 -7.6398,7.30405 -0.2283,5.41504 0,11.20449 3.8369,15.45281 1.9622,2.13256 0.6266,7.11892 3.8624,3.78864 2.8818,-1.10707 2.8351,-4.43696 3.265,-7.06832 0.6226,-6.06277 0.065,-12.18502 0.6787,-18.24515 -1.2289,-0.67115 -2.5791,-1.23614 -4.0032,-1.23203 z" /><path
           style="display:inline;opacity:1;fill:#fbdecf;fill-opacity:1;stroke-width:0.345683"
           d="m -4210.5598,325.36466 c -4.5433,-6.21775 -12.5129,-8.05797 -18.3205,-12.73277 -2.8969,-1.70181 -8.6157,-3.31645 -9.8327,1.1001 -0.7868,5.36914 4.173,9.1191 8.5516,10.99142 5.1172,2.65563 10.7281,4.09793 16.2373,5.62328 0.4674,0.0577 0.9148,-0.23305 1.0857,-0.65227"
           id="path56254" /><path
           style="display:inline;opacity:1;fill:#000000;fill-opacity:0.18;stroke-width:0.345683"
           d="m -4210.5598,325.36466 c -4.5433,-6.21775 -12.5129,-8.05797 -18.3205,-12.73277 -2.8969,-1.70181 -8.6157,-3.31645 -9.8327,1.1001 -0.7868,5.36914 4.173,9.1191 8.5516,10.99142 5.1172,2.65563 10.7281,4.09793 16.2373,5.62328 0.4674,0.0577 0.9148,-0.23305 1.0857,-0.65227"
           id="path59361" /><path
           style="display:inline;opacity:1;fill:#fce4d8;fill-opacity:1;stroke-width:0.345683"
           d="m -4213.3237,328.34136 c -6.7945,-4.11091 -13.7379,-9.03239 -22.0121,-9.12157 -4.3991,-0.38392 -9.5789,0.32538 -12.3747,4.14051 1.5605,4.5387 7.5694,3.75792 11.1785,5.69828 7.3183,1.8807 14.9573,1.36616 22.3854,2.47214"
           id="path56256" /><path
           style="display:inline;opacity:1;fill:#000000;fill-opacity:0.18;stroke-width:0.345683"
           d="m -4213.3237,328.34136 c -6.7945,-4.11091 -13.7379,-9.03239 -22.0121,-9.12157 -4.3991,-0.38392 -9.5789,0.32538 -12.3747,4.14051 1.5605,4.5387 7.5694,3.75792 11.1785,5.69828 7.3183,1.8807 14.9573,1.36616 22.3854,2.47214"
           id="path59363" /><path
           style="display:inline;opacity:1;fill:#fbdecf;fill-opacity:1;stroke-width:0.345683"
           d="m -4210.412,340.80876 c -5.6499,5.4e-4 -11.3184,-0.68083 -16.9542,-0.008 -4.5932,2.31935 -9.8708,4.02447 -14.9576,2.4697 -3.1164,-2.94878 1.2194,-7.03219 4.2063,-8.0847 5.6582,-2.43781 11.9189,-3.32181 18.0398,-3.53777 3.516,0.0629 7.6869,0.78705 9.8333,3.83441 l -0.02,0.32661 -0.1903,0.26406"
           id="path56258" /><path
           id="path59365"
           style="display:inline;opacity:1;fill:#000000;fill-opacity:0.18;stroke-width:0.345683"
           d="m -4220.2338,331.64663 c -4.7178,0.0555 -9.4,0.92563 -13.9623,2.07847 0.3309,3.11332 -3.1935,7.90181 -1.5722,10.02654 4.0811,-0.36196 7.4024,-3.4822 11.5681,-3.19957 4.5992,-0.19188 9.1919,0.25667 13.7902,0.25688 0.094,-1.76536 -0.2743,-3.66105 0.1673,-5.32674 -2.1371,-3.08776 -6.4682,-3.79007 -9.9911,-3.83558 z" /><path
           style="display:inline;opacity:1;fill:#fdeae0;fill-opacity:1;stroke-width:0.345683"
           d="m -4205.6438,338.73528 c -5.0891,4.8342 -8.8286,11.77988 -15.8165,14.11658 -3.7051,-0.47987 -10.2722,3.34431 -12.0546,-0.89729 0.6151,-7.96457 8.0293,-12.95717 14.9269,-15.39957 3.8032,-1.33921 7.9583,-2.02595 11.9553,-1.22104"
           id="path56260"
           sodipodi:nodetypes="ccccc" /><path
           id="path59449"
           style="display:inline;opacity:1;fill:#000000;fill-opacity:0.236074;stroke-width:0.345683"
           d="m -4210.2074,334.98941 c -3.1616,0.4627 -9.3328,0.23167 -10.1699,3.46781 0.069,4.31231 4.3102,7.45601 8.4542,6.36182 2.4169,-1.24773 5.0815,-4.50561 6.0866,-6.74488 -0.4652,-2.78452 -1.1437,-3.39995 -4.3709,-3.08475 z" /><path
           style="display:inline;opacity:1;fill:#fdeae0;fill-opacity:1;stroke-width:0.345683"
           d="m -4215.1383,337.03955 c -9.5355,-1.92206 -19.1276,-3.97245 -28.8846,-4.16478 -4.5301,-0.35024 -5.4964,-6.21863 -0.6096,-6.86675 8.0332,-3.70057 17.2105,-0.32023 24.4075,3.7357 3.5379,1.86709 7.2435,3.94878 8.8633,7.83708"
           id="path56262" /><path
           id="path59369"
           style="display:inline;opacity:1;fill:#000000;fill-opacity:0.18;stroke-width:0.345683"
           d="m -4224.2999,327.62954 c -4.9648,1.12065 -9.8013,2.86241 -14.148,5.54953 9.1562,0.62701 18.0257,3.13743 27.086,4.40185 -2.3207,-5.33044 -8.2205,-7.33279 -12.938,-9.95138 z" /><path
           style="display:inline;opacity:1;fill:#fdeae0;fill-opacity:1;stroke-width:0.345683"
           d="m -4210.6091,329.91687 c -4.446,-5.2441 -9.1297,-10.36444 -14.8346,-14.26856 -3.7011,-2.81294 -7.2346,-8.2048 -4.7882,-12.7894 4.2631,-3.75344 9.7813,0.0927 13.5886,2.63584 5.3966,3.69972 10.4329,8.73662 12.2732,15.16161 0.058,1.64804 0.3024,3.39953 -0.23,4.99147"
           id="path56264"
           sodipodi:nodetypes="cccccc" /><path
           id="path59371"
           style="display:inline;opacity:1;fill:#000000;fill-opacity:0.18;stroke-width:0.345683"
           d="m -4228.8104,304.23927 c -4.8494,-0.13852 -0.9164,7.69243 1.3989,9.59467 3.7686,3.50667 8.2457,6.222 11.5831,10.21289 2.1682,1.20633 3.7639,6.46076 6.1552,5.20528 1.691,-1.20152 3.382,-2.40303 5.073,-3.60455 1.5874,-5.40186 -1.8336,-10.48766 -5.2568,-14.35459 -5.4335,-4.01679 -12.0214,-7.13256 -18.9534,-7.0537 z" /><path
           id="path56266"
           style="display:inline;opacity:1;fill:#fdeae0;fill-opacity:1;stroke-width:0.345683"
           d="m -4163.5015,318.2871 c -10.2559,0.15001 -20.154,6.16919 -25.1017,15.13739 -1.3854,1.19314 -4.2405,2.96244 -2.6619,3.64403 1.6377,2.10826 6.6154,-0.63561 9.5013,-0.4604 4.8308,-1.01436 9.3852,-3.27724 13.8113,-5.44678 3.8831,-2.48168 9.595,-5.74053 9.4873,-10.86206 -0.8494,-1.87791 -3.2653,-1.96385 -5.0363,-2.01218 z"
           sodipodi:nodetypes="sccccccss" /><path
           id="path59451"
           style="display:inline;opacity:1;fill:#000000;fill-opacity:0.236074;stroke-width:0.345683"
           d="m -4167.2181,329.46494 c -7.0555,0.12179 -13.9429,1.8879 -20.8494,3.16135 -1.7796,2.41035 -4.8053,3.20369 -2.9767,5.25787 3.6695,-0.11416 7.3273,-1.12439 10.9966,-1.53763 5.0136,-1.96904 10.1839,-3.73694 14.6866,-6.76313 -0.617,-0.0657 -1.2367,-0.10829 -1.8571,-0.11846 z" /><path
           style="opacity:1;fill:#f4a002;fill-opacity:1;stroke-width:0.29021"
           d="m -4208.0369,339.65955 c -4.1933,-0.93276 -9.581,-4.06108 -8.7853,-9.06566 1.0701,-5.29627 7.0656,-6.84508 11.6254,-7.7866 5.6559,-0.86089 12.002,-0.13237 16.6322,3.44608 3.8386,2.84962 2.1944,8.65117 -1.8538,10.36619 -4.2662,2.46748 -9.4301,2.29878 -13.9623,4.04856 -2.5742,0.37274 -4.549,-1.43487 -5.8804,-3.3969"
           id="path56332" /><path
           id="path59754"
           style="opacity:1;fill:#9d5103;fill-opacity:1;stroke-width:0.29021"
           d="m -4204.7426,324.17908 c -3.6081,0.5023 -8.1709,0.46833 -10.7072,3.37486 -2.6441,3.02446 -1.4396,7.74659 1.9177,9.68942 3.6012,1.8524 7.8299,4.71167 11.9196,2.59436 5.1142,-1.3426 11.5929,-1.46977 14.6449,-6.54037 -1.7762,-2.04726 -4.8887,-5.03032 -7.9372,-6.44943 -3.0644,-1.5195 -6.3878,-2.626 -9.8378,-2.66884 z m -5.5185,13.09234 c 0.5313,0.54196 0.5235,0.57025 0,0 z" /></g></g></g></svg>
