<?xml version="1.0" encoding="UTF-8" standalone="no"?>
<!-- Created with Inkscape (http://www.inkscape.org/) -->

<svg
   width="109.4975mm"
   height="154.29489mm"
   viewBox="0 0 109.4975 154.29489"
   version="1.1"
   id="svg5"
   xml:space="preserve"
   inkscape:version="1.2 (dc2aedaf03, 2022-05-15)"
   sodipodi:docname="drawing.svg"
   xmlns:inkscape="http://www.inkscape.org/namespaces/inkscape"
   xmlns:sodipodi="http://sodipodi.sourceforge.net/DTD/sodipodi-0.dtd"
   xmlns="http://www.w3.org/2000/svg"
   xmlns:svg="http://www.w3.org/2000/svg"><sodipodi:namedview
     id="namedview7"
     pagecolor="#505050"
     bordercolor="#eeeeee"
     borderopacity="1"
     inkscape:showpageshadow="0"
     inkscape:pageopacity="0"
     inkscape:pagecheckerboard="0"
     inkscape:deskcolor="#505050"
     inkscape:document-units="mm"
     showgrid="false"
     inkscape:zoom="0.18128859"
     inkscape:cx="-16691.619"
     inkscape:cy="311.65779"
     inkscape:window-width="1920"
     inkscape:window-height="1001"
     inkscape:window-x="-9"
     inkscape:window-y="-9"
     inkscape:window-maximized="1"
     inkscape:current-layer="layer24"
     showguides="true" /><defs
     id="defs2" /><g
     inkscape:groupmode="layer"
     id="layer20"
     inkscape:label="another daisy"
     style="display:inline"
     transform="translate(4396.5654,-302.55915)"><g
       inkscape:groupmode="layer"
       id="layer22"
       inkscape:label="another daisy 2"
       style="display:inline"><g
         id="g61498"><path
           style="display:inline;fill:#76872a;fill-opacity:1;stroke-width:0.0900417"
           d="m -4267.6636,372.38916 1.9168,-3.6985 c 1.8032,-1.1699 -2.7215,-18.52082 4.2695,-10.1997 0.3767,-4.99623 2.567,-8.97504 3.0628,-3.56069 2.5406,-4.19799 7.6553,-10.69697 7.1698,-2.80979 2.552,-5.71464 9.4223,-10.98197 7.1434,-3.40834 2.4005,-5.13192 12.7738,-13.68526 11.8162,-6.73993 15.3848,-4.3464 16.1157,0.89389 3.4139,6.30229 13.9782,1.4823 -2.1088,5.45457 -6.1549,6.6632 12.8854,0.62143 -0.2904,3.64416 -7.6407,5.87526 9.3064,2.821 -0.9856,4.1971 -7.1964,4.6919 6.705,1.2173 0.1135,3.2154 -6.1051,4.7675 l -9.6915,3.5052 z"
           id="path46262"
           sodipodi:nodetypes="cccccccccccccc"
           transform="translate(-67.079588,33.023797)" /><path
           id="path46264"
           style="display:inline;fill:#606d22;fill-opacity:1;stroke-width:0.0900417"
           d="m -4221.1296,343.73356 c -1.3662,1.33247 -3.9558,2.92889 -7.7415,4.54085 13.9781,1.4823 -2.109,5.45453 -6.155,6.66316 12.8853,0.62142 -0.2906,3.64429 -7.6408,5.87539 9.3062,2.8211 -0.9857,4.1969 -7.1964,4.6918 6.7049,1.2172 0.1136,3.2154 -6.105,4.7675 l -9.6913,3.5053 -2.0039,-1.3884 1.207,-4.2144 c 9.1372,2.5733 26.9814,-13.02249 33.7373,-20.59659 2.4797,-1.23075 9.1825,-2.47483 11.5898,-3.84463 z"
           sodipodi:nodetypes="sccccccccccs"
           transform="translate(-67.079588,33.023797)" /><path
           style="display:inline;opacity:1;fill:#3b4729;fill-opacity:1;stroke-width:0.264583"
           d="m -4265.0184,372.99226 c 8.5057,-11.2604 20.425,-19.34563 31.9176,-27.22228 4.6155,-3.08562 -8.7466,4.04368 -10.9233,5.63973 -8.7837,5.47049 -16.8725,12.22935 -23.1432,20.50595 -0.1516,1.1129 1.4567,1.3365 2.1489,1.0766 z"
           id="path46832"
           transform="translate(-67.079588,33.023797)" /><path
           style="display:inline;fill:#495833;fill-opacity:1;stroke-width:0.167555"
           d="m -4277.9379,303.65638 c 0.09,1.00489 8.881,36.33261 8.7785,69.54358 -0.066,21.5329 -4.5186,44.6565 -4.5575,49.3374 -0.011,1.3526 2.9153,1.892 3.5797,0.388 2.5733,-5.8247 5.6463,-23.9479 4.9272,-46.3022 -0.8755,-27.21508 -7.1452,-59.5908 -10.015,-72.65823 -0.9212,-4.1948 -2.7129,-0.30855 -2.7129,-0.30855 z"
           id="path46270"
           sodipodi:nodetypes="csssssc"
           transform="translate(-67.079588,33.023797)" /><path
           id="path46272"
           style="display:inline;fill:#3b4729;fill-opacity:1;stroke-width:0.167555"
           d="m -4276.375,302.0175 c 0.4141,0.0186 0.8334,0.50591 1.15,1.94751 2.8698,13.06739 9.1395,45.44322 10.015,72.65815 0.7191,22.3543 -2.3539,40.4777 -4.9272,46.3023 -0.6644,1.504 -3.5912,0.9645 -3.5798,-0.3881 0.02,-2.4706 1.2698,-10.1017 2.4554,-19.9022 3.2756,-6.1102 3.7759,-13.7765 4.3457,-22.0497 0.9344,-13.5679 0.2268,-28.63837 -2.9347,-40.59409 -0.5993,-2.26636 -1.7714,-4.28659 -2.4686,-6.25319 -2.495,-16.96808 -5.5655,-29.48974 -5.6187,-30.08178 0,0 0.7716,-1.67333 1.5624,-1.6389 z"
           sodipodi:nodetypes="ssssccssccss"
           transform="translate(-67.079588,33.023797)" /><path
           style="display:inline;opacity:1;fill:#fbdecf;fill-opacity:1;stroke-width:0.138563"
           d="m -4339.1298,327.12257 c 0.096,-7.18763 3.7265,-16.78559 -0.53,-23.44702 -4.389,-3.82413 -8.5648,3.0781 -6.8791,7.13942 0.3559,4.99524 -0.044,11.80636 1.2665,16.6273"
           id="path23591"
           sodipodi:nodetypes="cccc" /><path
           id="path38502"
           style="display:inline;opacity:1;fill:#7d716b;fill-opacity:0.625995;stroke-width:0.138563"
           d="m -4338.2825,307.15536 c 0.043,0.004 0.087,0.008 0.1304,0.0125 1.6521,6.25371 -0.8975,13.94615 -0.9778,19.95466 l -6.1425,0.31988 c -1.31,-4.82093 -0.9107,-11.63203 -1.2665,-16.62725 -0.4029,-0.97058 -0.4702,-2.10356 -0.2806,-3.21347 1.7464,2.12763 1.8798,4.1622 2.9769,4.99387 0.7435,0.56355 2.7316,-3.91917 5.5601,-5.44015 z"
           sodipodi:nodetypes="ccccccsc" /><path
           style="display:inline;opacity:1;fill:#fbdecf;fill-opacity:1;stroke-width:0.138563"
           d="m -4334.3739,334.58185 c 7.999,0.70464 18.6642,12.8011 25.5153,15.81256 5.0125,2.06957 0.3197,13.55965 -5.7045,10.31705 -5.5051,-2.94608 -8.1515,-8.99548 -11.8455,-13.73872 -2.4504,-2.7738 -7.2978,-8.66204 -9.0539,-11.70732"
           id="path23577"
           sodipodi:nodetypes="ccccc" /><path
           style="display:inline;opacity:1;fill:#000000;fill-opacity:0.251989;stroke-width:0.138563"
           d="m -4334.3739,334.58185 c 7.999,0.70464 18.6642,12.8011 25.5153,15.81256 5.0125,2.06957 0.3197,13.55965 -5.7045,10.31705 -5.5051,-2.94608 -8.1515,-8.99548 -11.8455,-13.73872 -2.4504,-2.7738 -7.2978,-8.66204 -9.0539,-11.70732"
           id="path38504"
           sodipodi:nodetypes="ccccc" /><path
           style="display:inline;opacity:1;fill:#fce4d8;fill-opacity:1;stroke-width:0.138563"
           d="m -4338.331,328.6952 c 3.9009,-11.25734 13.343,-15.99173 11.2551,-21.8061 -0.2467,-4.3355 -4.2558,-0.37096 -6.4543,-2.45608 -7.6927,4.82208 -15.843,19.795 -9.1668,22.7406"
           id="path23589"
           sodipodi:nodetypes="cccc" /><path
           style="display:inline;opacity:1;fill:#fce4d8;fill-opacity:1;stroke-width:0.138563"
           d="m -4352.3218,329.59578 c -6.0313,-4.95779 -13.1645,-8.48736 -20.4794,-11.08869 -7.233,-1.5256 -15.5602,-0.043 -20.7974,5.48168 -2.9569,5.46987 5.0836,7.97607 9.2398,7.24042 9.4683,-0.85668 18.7066,1.74451 28.0769,2.54622 0.8312,-0.73876 5.4685,-2.8081 2.9703,-3.99533"
           id="path23561" /><path
           id="path38508"
           style="display:inline;opacity:1;fill:#000000;fill-opacity:0.251989;stroke-width:0.138563"
           d="m -4384.5733,318.76377 c -0.5297,0.22595 -0.9988,0.46958 -1.1551,0.68118 -0.9749,1.32057 -1.838,2.78958 -2.2573,4.37663 -0.2245,0.84995 0.6331,2.50442 1.2027,3.22889 0.2743,0.34888 0.6183,0.6369 0.9275,0.95533 0.9475,0.7115 1.9616,1.33113 3.1035,1.68088 0.9505,0.28613 1.9187,0.50729 2.9034,0.63923 1.3909,0.14106 2.7879,0.15516 4.1842,0.0761 1.9467,-0.12531 3.8912,-0.28162 5.8385,-0.39647 1.8834,-0.049 2.8007,-1.66729 4.6825,-1.76459 2.3352,-2.13091 8.7499,0.57218 10.2052,-0.65864 0.8921,0.64396 1.7656,1.31409 2.6164,2.01349 l -0.9899,0.1843 c 2.4982,1.18723 -2.139,3.25656 -2.9702,3.99532 -9.3702,-0.80171 -18.6085,-3.40278 -28.0768,-2.54609 -4.1562,0.73564 -12.1968,-1.77059 -9.2399,-7.24045 2.4681,-2.60354 5.6226,-4.30867 9.0253,-5.22506 z m 4.5474,1.69171 c 0.028,0.01 0.053,0.0285 0.08,0.0428 0.012,0.011 0.025,0.0213 0.037,0.0322 -0.032,-0.0194 -0.07,-0.0328 -0.1014,-0.0541 -0.01,-0.005 -0.023,-0.0235 -0.015,-0.0208 z m 0.065,0.0755 c 0.027,0.006 0.092,0.0419 0.095,0.0366 0.01,0.008 0.019,0.0164 0.029,0.0246 -0.02,-0.008 -0.04,-0.0143 -0.059,-0.023 -0.02,-0.009 -0.039,-0.0181 -0.059,-0.0271 -6e-4,-0.004 -0.011,-0.0121 -0.01,-0.0111 z"
           sodipodi:nodetypes="ssssccccccccccccsscccccccccsccc" /><path
           style="display:inline;opacity:1;fill:#fce4d8;fill-opacity:1;stroke-width:0.138563"
           d="m -4372.9608,356.23743 c -2.4257,3.28803 -6.8306,9.66343 -11.1948,5.34003 -3.3536,-3.81726 -1.2373,-9.13276 1.3593,-12.71775 5.4843,-8.33736 17.8535,-16.24438 28.0213,-15.18844 1.103,0.29293 2.0354,1.31199 2.0432,2.48627"
           id="path23565"
           sodipodi:nodetypes="ccccc" /><path
           style="display:inline;opacity:1;fill:#000000;fill-opacity:0.251989;stroke-width:0.138563"
           d="m -4372.9608,356.23744 c -2.4257,3.28802 -6.8306,9.66342 -11.1948,5.34002 -3.3537,-3.81726 -1.2374,-9.13276 1.3593,-12.71774 5.4843,-8.33736 17.8535,-16.24439 28.0213,-15.18845 1.103,0.29294 2.0354,1.312 2.0432,2.48628"
           id="path38514"
           sodipodi:nodetypes="ccccc" /><path
           style="display:inline;opacity:1;fill:#fdeae0;fill-opacity:1;stroke-width:0.138563"
           d="m -4354.8579,334.89431 c -11.0246,2.23976 -19.2814,10.24958 -29.4658,14.39775 -3.3793,2.67171 -11.1059,4.05394 -12.2306,-1.4997 -0.1692,-4.54271 1.6217,-9.17513 4.1509,-12.90065 3.2424,-4.21786 8.6707,-6.16718 13.8764,-5.89767 5.4706,-0.48346 11.3078,-0.32277 16.1436,2.58992 2.706,1.0241 5.617,1.33692 8.338,2.31227"
           id="path23563"
           sodipodi:nodetypes="ccccccc" /><path
           style="display:inline;opacity:1;fill:#fdeae0;fill-opacity:1;stroke-width:0.138563"
           d="m -4349.0058,338.40772 c -1.8514,10.43416 -7.7555,17.98766 -8.5235,28.59484 -3.8761,3.4505 -8.7959,-2.3828 -9.2386,-6.2886 -1.1781,-6.8555 1.7895,-13.68993 5.1358,-19.49485 2.3678,-3.43096 7.9263,-11.16674 11.7701,-7.45081"
           id="path23567"
           sodipodi:nodetypes="ccccc" /><path
           style="display:inline;opacity:1;fill:#000000;fill-opacity:0.251989;stroke-width:0.138563"
           d="m -4349.0058,338.40772 c -1.8514,10.43416 -7.7555,17.98766 -8.5235,28.59484 -3.8761,3.4505 -8.7959,-2.3828 -9.2386,-6.2886 -1.1781,-6.8555 1.7895,-13.68993 5.1358,-19.49485 2.3678,-3.43096 7.9263,-11.16674 11.7701,-7.45081"
           id="path38512"
           sodipodi:nodetypes="ccccc" /><path
           style="display:inline;opacity:1;fill:#fce4d8;fill-opacity:1;stroke-width:0.138563"
           d="m -4334.3136,334.56704 c 7.5171,4.60053 15.3521,12.6165 15.7109,21.87433 -0.2111,2.95449 -1.403,6.08959 -3.365,8.45139 -1.8649,2.2449 -2.7485,1.0822 -5.8241,1.1112 -1.1691,-0.2701 -3.8744,2.0839 -4.7826,1.6453 -5.0218,-2.4251 -6.3729,-7.407 -7.5647,-14.73463 -0.718,-6.27553 -7.2424,-15.30542 -2.8156,-18.77264"
           id="path23573"
           sodipodi:nodetypes="ccscscc" /><path
           id="path38516"
           style="display:inline;opacity:1;fill:#000000;fill-opacity:0.251989;stroke-width:0.138563"
           d="m -4342.9546,334.14218 8.6412,0.42489 c 0.9092,0.55646 1.8225,1.1634 2.7269,1.81647 0.019,0.15881 0.042,0.3197 0.071,0.48497 v 0.01 c -0.2867,0.44964 -0.5738,0.89896 -0.8601,1.34882 -1.0254,1.62681 -0.3019,3.71012 -1.2936,5.35776 -1.0757,1.80907 -3.8762,3.17642 -4.9447,4.98979 -0.5577,0.9808 -1.1525,1.93793 -1.7837,2.87058 -1.3874,-6.14185 -6.6503,-14.09824 -2.5585,-17.30302 z"
           sodipodi:nodetypes="ccccccccccc" /><path
           style="display:inline;opacity:1;fill:#fdeae0;fill-opacity:1;stroke-width:0.138563"
           d="m -4341.2284,336.42532 c 2.7485,9.44211 5.9982,22.37574 2.2851,32.04444 -1.9296,1.6189 -4.7299,-0.1157 -7.4408,-0.2955 -2.7128,-0.18 -5.3357,1.1938 -6.3901,-0.2578 -5.5467,-8.4431 -4.7812,-22.92179 1.9183,-30.55062 2.1469,-2.50057 4.9015,-5.0145 8.4349,-4.84673"
           id="path23569"
           sodipodi:nodetypes="ccsccc" /><path
           id="path38518"
           style="display:inline;opacity:1;fill:#000000;fill-opacity:0.251989;stroke-width:0.138563"
           d="m -4342.7501,332.51125 c 0.1089,9e-5 0.2187,0.003 0.3291,0.008 l 1.1927,3.90627 c 0.5874,2.01827 1.2032,4.07844 1.7728,6.16442 -1.4883,0.9777 -3.1676,1.58709 -4.8504,2.14989 -1.422,0.40224 -2.8677,0.78599 -4.3534,0.82569 -0.8222,0.022 -1.6902,-0.0349 -2.5076,-0.0723 -1.3456,-0.11206 -2.6797,-0.30119 -4.0073,-0.53125 0.9191,-2.76826 2.3591,-5.36495 4.3184,-7.59605 2.0798,-2.42243 4.7297,-4.85727 8.1057,-4.85456 z m -4.4264,36.96811 c 0.9434,0.088 1.8894,0.1551 2.8364,0.197 -0.9366,0.09 -1.9015,0.021 -2.8364,-0.197 z" /><path
           style="display:inline;opacity:1;fill:#fce4d8;fill-opacity:1;stroke-width:0.138563"
           d="m -4323.7363,328.41316 c 5.6878,-2.36072 12.1202,-3.88868 18.8358,-5.67731 14.3644,-3.19098 -3.5135,-8.44711 -11.0985,-6.34297 -5.1659,2.06153 -14.845,5.81572 -19.1875,9.4083 -3.9107,2.56558 -1.0829,7.35179 3.1645,6.02468 1.2202,-0.0398 6.3507,-2.57202 7.5689,-2.64477"
           id="path23583"
           sodipodi:nodetypes="cccccc" /><path
           id="path38520"
           style="display:inline;opacity:1;fill:#000000;fill-opacity:0.251989;stroke-width:0.138563"
           d="m -4319.8526,317.93916 c 0.2512,3.42574 -7.0611,2.39739 -1.8752,4.62128 0.4744,0.20344 0.9246,0.47679 1.4232,0.61028 0.4137,0.11076 0.8519,0.10674 1.2801,0.11339 1.2348,0.0192 2.153,-0.13189 3.3853,-0.30473 1.6678,-0.23392 2.3132,-0.34994 3.9891,-0.62488 3.4163,-0.60719 6.8931,-0.70849 10.3573,-0.72584 -0.855,0.38548 -2.039,0.75866 -3.6078,1.10716 -6.7155,1.78862 -13.148,3.31656 -18.8358,5.67728 l -0.7166,0.76805 c -1.2182,0.0727 -6.3488,2.6048 -7.569,2.6446 -4.2474,1.3271 -7.0752,-3.45893 -3.1645,-6.0245 3.4156,-2.82582 10.1081,-5.73867 15.3339,-7.86209 z" /><path
           style="display:inline;opacity:1;fill:#fce4d8;fill-opacity:1;stroke-width:0.138563"
           d="m -4314.06,331.53099 c 8.2601,0.64172 16.5801,1.21011 17.969,0.50686 1.2351,-9.26714 -24.3963,-10.87514 -32.994,-7.68821 -6.1672,0.36818 -5.6814,8.8763 0.5452,8.42266 5.7176,0.79767 11.4351,-0.1294 17.108,-0.91878"
           id="path23581"
           sodipodi:nodetypes="ccccc" /><path
           id="path38522"
           style="display:inline;opacity:1;fill:#000000;fill-opacity:0.251989;stroke-width:0.138563"
           d="m -4327.0644,323.75799 c 2.1558,0.83889 4.3098,1.68205 6.4622,2.53093 4.5692,1.79046 9.0867,3.70607 13.5453,5.75008 -2.2286,-0.14429 -4.6156,-0.3225 -7.0028,-0.50797 l 2.628,0.32259 c -5.6729,0.78938 -11.3903,1.71646 -17.1079,0.91879 -6.2266,0.45364 -6.7122,-8.05465 -0.545,-8.42283 0.5957,-0.22081 1.2755,-0.41781 2.0202,-0.59159 z" /><path
           style="display:inline;opacity:1;fill:#fdeae0;fill-opacity:1;stroke-width:0.138563"
           d="m -4324.0435,341.79061 c 8.4697,1.88816 14.9422,9.00163 23.7666,9.75938 5.0483,-3.40868 3.4906,-11.25688 -0.7156,-14.69548 -7.0891,-5.87506 -16.85,-6.5785 -25.6506,-5.76767 -3.9638,-0.65616 -13.5797,-0.28825 -9.6616,2.88921"
           id="path23579"
           sodipodi:nodetypes="ccccc" /><path
           id="path38524"
           style="display:inline;opacity:1;fill:#000000;fill-opacity:0.251989;stroke-width:0.138563"
           d="m -4320.7679,330.81034 c 0.3948,10e-4 0.7898,0.007 1.1848,0.0176 -0.2382,0.34249 -0.4982,0.69841 -0.8008,1.08712 -1.9848,2.5502 -4.4652,4.74278 -7.1308,6.55845 -0.2832,0.19287 -0.5733,0.3747 -0.8657,0.55317 l -7.9244,-5.0505 c -3.9181,-3.17746 5.6978,-3.54541 9.6615,-2.88925 1.9252,-0.17737 3.8964,-0.28242 5.8754,-0.27658 z" /><path
           id="path38618"
           style="display:inline;opacity:1;fill:#7d716b;fill-opacity:0.625995;stroke-width:0.138563"
           d="m -4326.7862,308.8265 c -0.2628,5.0281 -8.0839,9.88122 -11.5448,19.86859 l -4.3661,-1.52148 c -1.9194,-0.84689 -2.6114,-2.689 -2.4429,-4.99719 0.8224,-0.81129 4.7616,1.93399 5.3597,0.90453 2.4672,-4.24646 7.8436,-11.80518 12.9941,-14.25445 z"
           sodipodi:nodetypes="ccccsc" /><path
           style="display:inline;opacity:1;fill:#fdeae0;fill-opacity:1;stroke-width:0.138563"
           d="m -4311.9407,317.19461 c 0.5537,-0.0272 1.8862,-2.9257 1.4367,-3.78371 -0.9966,-1.90218 -4.4166,-1.41907 -4.6508,-3.11806 -0.5297,-3.84265 -7.9495,-0.0674 -11.5935,1.01213 -5.8388,2.3446 -10.1056,7.7618 -12.0947,13.58465 -0.5964,5.96737 6.103,5.09005 9.6691,3.26332 4.7078,-1.48915 14.9448,-6.0303 17.1567,-10.6838"
           id="path23587"
           sodipodi:nodetypes="csscccc" /><path
           id="path38526"
           style="display:inline;opacity:1;fill:#000000;fill-opacity:0.251989;stroke-width:0.138563"
           d="m -4338.1702,323.1396 c 6.9632,-0.41541 10.323,1.40116 11.7091,3.87149 0.055,-0.007 0.1095,-0.013 0.1642,-0.0195 0.1137,-8e-5 0.2268,-0.003 0.3391,-0.009 -1.2109,0.48796 -2.3154,0.88549 -3.2164,1.17048 -3.566,1.82671 -10.2655,2.70382 -9.6691,-3.26353 0.201,-0.58852 0.4259,-1.17261 0.6731,-1.7499 z"
           sodipodi:nodetypes="cccccccc" /><path
           style="display:inline;opacity:1;fill:#fbdecf;fill-opacity:1;stroke-width:0.138563"
           d="m -4344.4036,325.36196 c -1.977,-6.67307 0.4524,-14.92002 -4.9822,-20.32126 -0.6001,-1.12596 -3.4805,-1.30549 -6.6313,-1.42856 -1.879,-0.0734 -3.7581,2.92984 -2.3323,5.47964 3.2957,3.24085 7.509,5.62563 9.4077,10.13702 1.2254,2.15292 2.2159,4.43121 3.0874,6.74749"
           id="path23593"
           sodipodi:nodetypes="ccsccc" /><path
           id="path38809"
           style="display:inline;opacity:1;fill:#000000;fill-opacity:0.331565;stroke-width:0.138563"
           d="m -4357.9506,304.88504 c 4.8668,2.01805 9.93,7.92618 12.4947,11.84792 0.1722,2.93844 0.2478,5.91395 1.0523,8.62905 l -1.4506,0.61433 c -0.8715,-2.31626 -1.862,-4.59472 -3.0874,-6.74762 -1.8987,-4.51138 -6.112,-6.89617 -9.4076,-10.137 -0.9443,-1.68868 -0.5942,-3.15126 0.3986,-4.20668 z"
           sodipodi:nodetypes="ccccccc" /><path
           style="display:inline;opacity:1;fill:#fdeae0;fill-opacity:1;stroke-width:0.138563"
           d="m -4344.7472,324.92907 c -2.5006,-9.93407 -9.9753,-17.40734 -16.2002,-18.81985 -2.4567,-0.53332 -3.6268,0.84216 -5.2603,2.04318 -1.7499,1.30566 -3.4639,3.77652 -0.3773,5.26527 5.1948,2.33794 9.7569,9.50667 14.2452,12.83244 1.5701,0.95599 6.0351,3.86745 6.7733,0.98197"
           id="path23716"
           sodipodi:nodetypes="cccccc" /><path
           id="path38832"
           style="display:inline;opacity:1;fill:#000000;fill-opacity:0.33;stroke-width:0.138563"
           d="m -4368.8158,309.95043 c 0.1811,0.0219 0.3621,0.0447 0.5409,0.0766 11.1253,2.50326 12.3031,6.16244 18.1509,11.60115 2.6444,0.44944 1.9172,-0.0342 4.1266,-0.52939 0.495,1.22758 0.9172,2.50679 1.2503,3.83023 l -0.8194,2.30307 c -0.7383,2.88547 -5.2033,-0.0259 -6.7734,-0.98185 -4.4883,-3.32577 -9.0503,-10.49454 -14.2451,-12.83248 -1.8641,-0.89909 -2.4463,-2.25026 -2.2308,-3.46731 z"
           sodipodi:nodetypes="ccccccccc" /><path
           style="display:inline;opacity:1;fill:#fdeae0;fill-opacity:1;stroke-width:0.138563"
           d="m -4350.506,327.04893 c -5.2954,-4.43463 -8.7463,-14.88797 -16.3162,-15.85815 -2.4202,-0.56229 -5.2987,1.4183 -8.8486,1.68432 -1.9494,0.14608 -2.457,2.75576 -1.6009,4.88695 4.2253,3.63992 10.7168,5.73208 15.7549,7.84459 2.9862,-0.15823 9.7251,5.15842 11.0108,1.44229 z"
           id="path23595"
           sodipodi:nodetypes="ccsccc" /><path
           id="path38532"
           style="display:inline;opacity:1;fill:#000000;fill-opacity:0.251989;stroke-width:0.138563"
           d="m -4353.9287,323.23783 c 1.0919,1.46174 2.209,2.79471 3.4226,3.81102 -1.2856,3.71611 -8.0244,-1.60042 -11.0106,-1.44219 -1.1029,-0.46244 -2.2818,-0.92655 -3.4849,-1.40349 4.2166,-2.50694 8.6768,-1.26467 11.0729,-0.96534 z"
           sodipodi:nodetypes="ccccc" /><path
           id="path44954"
           style="display:inline;opacity:1;fill:#000000;fill-opacity:0.33;stroke-width:0.138563"
           d="m -4383.4136,329.39641 c -2.1881,2.3253 -4.2448,4.85064 -5.6643,7.72149 -1.3164,8.05206 5.8735,7.78057 11.0588,5.47409 3.5835,-1.76056 6.6393,-4.38978 9.6816,-6.92981 1.1973,-1.19718 2.2588,-2.87774 4.0958,-3.07475 1.4249,-1.12678 3.2745,-0.77661 4.8008,-0.12092 1.8059,0.44648 3.6404,0.80084 5.3955,1.42988 -0.9102,1.64914 -3.0342,1.24788 -4.5274,1.98955 -9.0718,3.00503 -16.4331,9.44815 -25.1684,13.16819 -2.2314,1.35414 -4.669,2.57744 -7.3443,2.58227 -2.2423,0.0905 -4.8727,-1.02862 -5.3485,-3.44372 -0.3874,-2.25352 0.2003,-4.55621 0.8015,-6.72672 1.0722,-3.20465 2.6333,-6.4068 5.2141,-8.66356 1.9977,-1.70458 4.4462,-2.84612 7.0048,-3.40599 z" /><path
           style="display:inline;opacity:1;fill:#f4a002;fill-opacity:1;stroke-width:0.138563"
           d="m -4330.5882,331.0256 c -0.7454,2.90531 -2.5015,6.16076 -5.7625,6.65296 -2.7241,0.82026 -5.3792,-0.23739 -7.8428,-1.23089 -2.4459,-0.24675 -4.8288,-0.88856 -7.3107,-0.77979 -1.8796,-0.50301 -4.5397,1.77147 -5.6504,-0.65649 -1.4399,-3.46637 0.8082,-7.77896 4.4381,-8.6509 3.1995,-0.40221 6.3341,-1.89873 9.607,-1.17216 3.9913,0.68448 8.1142,1.65286 11.3067,4.29796"
           id="path24444"
           sodipodi:nodetypes="cccccccc" /><path
           id="path39574"
           style="display:inline;opacity:1;fill:#9d5103;fill-opacity:1;stroke-width:0.138563"
           d="m -4353.7775,326.72896 c 0.2083,0.15959 -3.1913,3.32927 -1.731,4.82618 4.2472,-3.38726 8.3878,-3.31884 12.353,2.74362 1.5398,2.48094 8.4141,0.55179 10.4231,1.2181 -0.9148,1.10835 -2.1042,1.93326 -3.6184,2.1618 -2.7239,0.82026 -5.379,-0.23759 -7.8426,-1.2311 -2.4459,-0.24674 -4.8289,-0.88845 -7.3108,-0.77968 -1.8796,-0.50301 -4.5398,1.77139 -5.6505,-0.65655 -1.2936,-3.1141 0.3899,-6.9106 3.3772,-8.28237 z"
           sodipodi:nodetypes="ccccccccsc" /></g></g></g></svg>
